<?xml version="1.0" encoding="utf-8" standalone="no"?>
<!DOCTYPE svg PUBLIC "-//W3C//DTD SVG 1.1//EN"
  "http://www.w3.org/Graphics/SVG/1.1/DTD/svg11.dtd">
<!-- Created with matplotlib (https://matplotlib.org/) -->
<svg height="576pt" version="1.1" viewBox="0 0 576 576" width="576pt" xmlns="http://www.w3.org/2000/svg" xmlns:xlink="http://www.w3.org/1999/xlink">
 <metadata>
  <rdf:RDF xmlns:cc="http://creativecommons.org/ns#" xmlns:dc="http://purl.org/dc/elements/1.1/" xmlns:rdf="http://www.w3.org/1999/02/22-rdf-syntax-ns#">
   <cc:Work>
    <dc:type rdf:resource="http://purl.org/dc/dcmitype/StillImage"/>
    <dc:date>2021-03-15T21:35:36.078755</dc:date>
    <dc:format>image/svg+xml</dc:format>
    <dc:creator>
     <cc:Agent>
      <dc:title>Matplotlib v3.3.2, https://matplotlib.org/</dc:title>
     </cc:Agent>
    </dc:creator>
   </cc:Work>
  </rdf:RDF>
 </metadata>
 <defs>
  <style type="text/css">*{stroke-linecap:butt;stroke-linejoin:round;}</style>
 </defs>
 <g id="figure_1">
  <g id="patch_1">
   <path d="M 0 576 
L 576 576 
L 576 0 
L 0 0 
z
" style="fill:#ffffff;"/>
  </g>
  <g id="axes_1">
   <g id="patch_2">
    <path d="M 72 512.64 
L 518.4 512.64 
L 518.4 69.12 
L 72 69.12 
z
" style="fill:#eaeaf2;"/>
   </g>
   <g id="matplotlib.axis_1">
    <g id="xtick_1">
     <g id="line2d_1">
      <path clip-path="url(#p2e6998696a)" d="M 90.986027 512.64 
L 90.986027 69.12 
" style="fill:none;stroke:#ffffff;stroke-linecap:round;"/>
     </g>
     <g id="text_1">
      <!-- 0.0 -->
      <g style="fill:#262626;" transform="translate(80.561027 532.876719)scale(0.15 -0.15)">
       <defs>
        <path d="M 4.15625 35.296875 
Q 4.15625 48 6.765625 55.734375 
Q 9.375 63.484375 14.515625 67.671875 
Q 19.671875 71.875 27.484375 71.875 
Q 33.25 71.875 37.59375 69.546875 
Q 41.9375 67.234375 44.765625 62.859375 
Q 47.609375 58.5 49.21875 52.21875 
Q 50.828125 45.953125 50.828125 35.296875 
Q 50.828125 22.703125 48.234375 14.96875 
Q 45.65625 7.234375 40.5 3 
Q 35.359375 -1.21875 27.484375 -1.21875 
Q 17.140625 -1.21875 11.234375 6.203125 
Q 4.15625 15.140625 4.15625 35.296875 
z
M 13.1875 35.296875 
Q 13.1875 17.671875 17.3125 11.828125 
Q 21.4375 6 27.484375 6 
Q 33.546875 6 37.671875 11.859375 
Q 41.796875 17.71875 41.796875 35.296875 
Q 41.796875 52.984375 37.671875 58.78125 
Q 33.546875 64.59375 27.390625 64.59375 
Q 21.34375 64.59375 17.71875 59.46875 
Q 13.1875 52.9375 13.1875 35.296875 
z
" id="ArialMT-48"/>
        <path d="M 9.078125 0 
L 9.078125 10.015625 
L 19.09375 10.015625 
L 19.09375 0 
z
" id="ArialMT-46"/>
       </defs>
       <use xlink:href="#ArialMT-48"/>
       <use x="55.615234" xlink:href="#ArialMT-46"/>
       <use x="83.398438" xlink:href="#ArialMT-48"/>
      </g>
     </g>
    </g>
    <g id="xtick_2">
     <g id="line2d_2">
      <path clip-path="url(#p2e6998696a)" d="M 156.230108 512.64 
L 156.230108 69.12 
" style="fill:none;stroke:#ffffff;stroke-linecap:round;"/>
     </g>
     <g id="text_2">
      <!-- 0.5 -->
      <g style="fill:#262626;" transform="translate(145.805108 532.876719)scale(0.15 -0.15)">
       <defs>
        <path d="M 4.15625 18.75 
L 13.375 19.53125 
Q 14.40625 12.796875 18.140625 9.390625 
Q 21.875 6 27.15625 6 
Q 33.5 6 37.890625 10.78125 
Q 42.28125 15.578125 42.28125 23.484375 
Q 42.28125 31 38.0625 35.34375 
Q 33.84375 39.703125 27 39.703125 
Q 22.75 39.703125 19.328125 37.765625 
Q 15.921875 35.84375 13.96875 32.765625 
L 5.71875 33.84375 
L 12.640625 70.609375 
L 48.25 70.609375 
L 48.25 62.203125 
L 19.671875 62.203125 
L 15.828125 42.96875 
Q 22.265625 47.46875 29.34375 47.46875 
Q 38.71875 47.46875 45.15625 40.96875 
Q 51.609375 34.46875 51.609375 24.265625 
Q 51.609375 14.546875 45.953125 7.46875 
Q 39.0625 -1.21875 27.15625 -1.21875 
Q 17.390625 -1.21875 11.203125 4.25 
Q 5.03125 9.71875 4.15625 18.75 
z
" id="ArialMT-53"/>
       </defs>
       <use xlink:href="#ArialMT-48"/>
       <use x="55.615234" xlink:href="#ArialMT-46"/>
       <use x="83.398438" xlink:href="#ArialMT-53"/>
      </g>
     </g>
    </g>
    <g id="xtick_3">
     <g id="line2d_3">
      <path clip-path="url(#p2e6998696a)" d="M 221.474189 512.64 
L 221.474189 69.12 
" style="fill:none;stroke:#ffffff;stroke-linecap:round;"/>
     </g>
     <g id="text_3">
      <!-- 1.0 -->
      <g style="fill:#262626;" transform="translate(211.049189 532.876719)scale(0.15 -0.15)">
       <defs>
        <path d="M 37.25 0 
L 28.46875 0 
L 28.46875 56 
Q 25.296875 52.984375 20.140625 49.953125 
Q 14.984375 46.921875 10.890625 45.40625 
L 10.890625 53.90625 
Q 18.265625 57.375 23.78125 62.296875 
Q 29.296875 67.234375 31.59375 71.875 
L 37.25 71.875 
z
" id="ArialMT-49"/>
       </defs>
       <use xlink:href="#ArialMT-49"/>
       <use x="55.615234" xlink:href="#ArialMT-46"/>
       <use x="83.398438" xlink:href="#ArialMT-48"/>
      </g>
     </g>
    </g>
    <g id="xtick_4">
     <g id="line2d_4">
      <path clip-path="url(#p2e6998696a)" d="M 286.71827 512.64 
L 286.71827 69.12 
" style="fill:none;stroke:#ffffff;stroke-linecap:round;"/>
     </g>
     <g id="text_4">
      <!-- 1.5 -->
      <g style="fill:#262626;" transform="translate(276.29327 532.876719)scale(0.15 -0.15)">
       <use xlink:href="#ArialMT-49"/>
       <use x="55.615234" xlink:href="#ArialMT-46"/>
       <use x="83.398438" xlink:href="#ArialMT-53"/>
      </g>
     </g>
    </g>
    <g id="xtick_5">
     <g id="line2d_5">
      <path clip-path="url(#p2e6998696a)" d="M 351.96235 512.64 
L 351.96235 69.12 
" style="fill:none;stroke:#ffffff;stroke-linecap:round;"/>
     </g>
     <g id="text_5">
      <!-- 2.0 -->
      <g style="fill:#262626;" transform="translate(341.53735 532.876719)scale(0.15 -0.15)">
       <defs>
        <path d="M 50.34375 8.453125 
L 50.34375 0 
L 3.03125 0 
Q 2.9375 3.171875 4.046875 6.109375 
Q 5.859375 10.9375 9.828125 15.625 
Q 13.8125 20.3125 21.34375 26.46875 
Q 33.015625 36.03125 37.109375 41.625 
Q 41.21875 47.21875 41.21875 52.203125 
Q 41.21875 57.421875 37.46875 61 
Q 33.734375 64.59375 27.734375 64.59375 
Q 21.390625 64.59375 17.578125 60.78125 
Q 13.765625 56.984375 13.71875 50.25 
L 4.6875 51.171875 
Q 5.609375 61.28125 11.65625 66.578125 
Q 17.71875 71.875 27.9375 71.875 
Q 38.234375 71.875 44.234375 66.15625 
Q 50.25 60.453125 50.25 52 
Q 50.25 47.703125 48.484375 43.546875 
Q 46.734375 39.40625 42.65625 34.8125 
Q 38.578125 30.21875 29.109375 22.21875 
Q 21.1875 15.578125 18.9375 13.203125 
Q 16.703125 10.84375 15.234375 8.453125 
z
" id="ArialMT-50"/>
       </defs>
       <use xlink:href="#ArialMT-50"/>
       <use x="55.615234" xlink:href="#ArialMT-46"/>
       <use x="83.398438" xlink:href="#ArialMT-48"/>
      </g>
     </g>
    </g>
    <g id="xtick_6">
     <g id="line2d_6">
      <path clip-path="url(#p2e6998696a)" d="M 417.206431 512.64 
L 417.206431 69.12 
" style="fill:none;stroke:#ffffff;stroke-linecap:round;"/>
     </g>
     <g id="text_6">
      <!-- 2.5 -->
      <g style="fill:#262626;" transform="translate(406.781431 532.876719)scale(0.15 -0.15)">
       <use xlink:href="#ArialMT-50"/>
       <use x="55.615234" xlink:href="#ArialMT-46"/>
       <use x="83.398438" xlink:href="#ArialMT-53"/>
      </g>
     </g>
    </g>
    <g id="xtick_7">
     <g id="line2d_7">
      <path clip-path="url(#p2e6998696a)" d="M 482.450512 512.64 
L 482.450512 69.12 
" style="fill:none;stroke:#ffffff;stroke-linecap:round;"/>
     </g>
     <g id="text_7">
      <!-- 3.0 -->
      <g style="fill:#262626;" transform="translate(472.025512 532.876719)scale(0.15 -0.15)">
       <defs>
        <path d="M 4.203125 18.890625 
L 12.984375 20.0625 
Q 14.5 12.59375 18.140625 9.296875 
Q 21.78125 6 27 6 
Q 33.203125 6 37.46875 10.296875 
Q 41.75 14.59375 41.75 20.953125 
Q 41.75 27 37.796875 30.921875 
Q 33.84375 34.859375 27.734375 34.859375 
Q 25.25 34.859375 21.53125 33.890625 
L 22.515625 41.609375 
Q 23.390625 41.5 23.921875 41.5 
Q 29.546875 41.5 34.03125 44.421875 
Q 38.53125 47.359375 38.53125 53.46875 
Q 38.53125 58.296875 35.25 61.46875 
Q 31.984375 64.65625 26.8125 64.65625 
Q 21.6875 64.65625 18.265625 61.421875 
Q 14.84375 58.203125 13.875 51.765625 
L 5.078125 53.328125 
Q 6.6875 62.15625 12.390625 67.015625 
Q 18.109375 71.875 26.609375 71.875 
Q 32.46875 71.875 37.390625 69.359375 
Q 42.328125 66.84375 44.9375 62.5 
Q 47.5625 58.15625 47.5625 53.265625 
Q 47.5625 48.640625 45.0625 44.828125 
Q 42.578125 41.015625 37.703125 38.765625 
Q 44.046875 37.3125 47.5625 32.6875 
Q 51.078125 28.078125 51.078125 21.140625 
Q 51.078125 11.765625 44.234375 5.25 
Q 37.40625 -1.265625 26.953125 -1.265625 
Q 17.53125 -1.265625 11.296875 4.34375 
Q 5.078125 9.96875 4.203125 18.890625 
z
" id="ArialMT-51"/>
       </defs>
       <use xlink:href="#ArialMT-51"/>
       <use x="55.615234" xlink:href="#ArialMT-46"/>
       <use x="83.398438" xlink:href="#ArialMT-48"/>
      </g>
     </g>
    </g>
    <g id="text_8">
     <!-- Environment Steps -->
     <g style="fill:#262626;" transform="translate(231.837891 550.7775)scale(0.15 -0.15)">
      <defs>
       <path d="M 7.90625 0 
L 7.90625 71.578125 
L 59.671875 71.578125 
L 59.671875 63.140625 
L 17.390625 63.140625 
L 17.390625 41.21875 
L 56.984375 41.21875 
L 56.984375 32.8125 
L 17.390625 32.8125 
L 17.390625 8.453125 
L 61.328125 8.453125 
L 61.328125 0 
z
" id="ArialMT-69"/>
       <path d="M 6.59375 0 
L 6.59375 51.859375 
L 14.5 51.859375 
L 14.5 44.484375 
Q 20.21875 53.03125 31 53.03125 
Q 35.6875 53.03125 39.625 51.34375 
Q 43.5625 49.65625 45.515625 46.921875 
Q 47.46875 44.1875 48.25 40.4375 
Q 48.734375 37.984375 48.734375 31.890625 
L 48.734375 0 
L 39.9375 0 
L 39.9375 31.546875 
Q 39.9375 36.921875 38.90625 39.578125 
Q 37.890625 42.234375 35.28125 43.8125 
Q 32.671875 45.40625 29.15625 45.40625 
Q 23.53125 45.40625 19.453125 41.84375 
Q 15.375 38.28125 15.375 28.328125 
L 15.375 0 
z
" id="ArialMT-110"/>
       <path d="M 21 0 
L 1.265625 51.859375 
L 10.546875 51.859375 
L 21.6875 20.796875 
Q 23.484375 15.765625 25 10.359375 
Q 26.171875 14.453125 28.265625 20.21875 
L 39.796875 51.859375 
L 48.828125 51.859375 
L 29.203125 0 
z
" id="ArialMT-118"/>
       <path d="M 6.640625 61.46875 
L 6.640625 71.578125 
L 15.4375 71.578125 
L 15.4375 61.46875 
z
M 6.640625 0 
L 6.640625 51.859375 
L 15.4375 51.859375 
L 15.4375 0 
z
" id="ArialMT-105"/>
       <path d="M 6.5 0 
L 6.5 51.859375 
L 14.40625 51.859375 
L 14.40625 44 
Q 17.4375 49.515625 20 51.265625 
Q 22.5625 53.03125 25.640625 53.03125 
Q 30.078125 53.03125 34.671875 50.203125 
L 31.640625 42.046875 
Q 28.421875 43.953125 25.203125 43.953125 
Q 22.3125 43.953125 20.015625 42.21875 
Q 17.71875 40.484375 16.75 37.40625 
Q 15.28125 32.71875 15.28125 27.15625 
L 15.28125 0 
z
" id="ArialMT-114"/>
       <path d="M 3.328125 25.921875 
Q 3.328125 40.328125 11.328125 47.265625 
Q 18.015625 53.03125 27.640625 53.03125 
Q 38.328125 53.03125 45.109375 46.015625 
Q 51.90625 39.015625 51.90625 26.65625 
Q 51.90625 16.65625 48.90625 10.90625 
Q 45.90625 5.171875 40.15625 2 
Q 34.421875 -1.171875 27.640625 -1.171875 
Q 16.75 -1.171875 10.03125 5.8125 
Q 3.328125 12.796875 3.328125 25.921875 
z
M 12.359375 25.921875 
Q 12.359375 15.96875 16.703125 11.015625 
Q 21.046875 6.0625 27.640625 6.0625 
Q 34.1875 6.0625 38.53125 11.03125 
Q 42.875 16.015625 42.875 26.21875 
Q 42.875 35.84375 38.5 40.796875 
Q 34.125 45.75 27.640625 45.75 
Q 21.046875 45.75 16.703125 40.8125 
Q 12.359375 35.890625 12.359375 25.921875 
z
" id="ArialMT-111"/>
       <path d="M 6.59375 0 
L 6.59375 51.859375 
L 14.453125 51.859375 
L 14.453125 44.578125 
Q 16.890625 48.390625 20.9375 50.703125 
Q 25 53.03125 30.171875 53.03125 
Q 35.9375 53.03125 39.625 50.640625 
Q 43.3125 48.25 44.828125 43.953125 
Q 50.984375 53.03125 60.84375 53.03125 
Q 68.5625 53.03125 72.703125 48.75 
Q 76.859375 44.484375 76.859375 35.59375 
L 76.859375 0 
L 68.109375 0 
L 68.109375 32.671875 
Q 68.109375 37.9375 67.25 40.25 
Q 66.40625 42.578125 64.15625 43.984375 
Q 61.921875 45.40625 58.890625 45.40625 
Q 53.421875 45.40625 49.796875 41.765625 
Q 46.1875 38.140625 46.1875 30.125 
L 46.1875 0 
L 37.40625 0 
L 37.40625 33.6875 
Q 37.40625 39.546875 35.25 42.46875 
Q 33.109375 45.40625 28.21875 45.40625 
Q 24.515625 45.40625 21.359375 43.453125 
Q 18.21875 41.5 16.796875 37.734375 
Q 15.375 33.984375 15.375 26.90625 
L 15.375 0 
z
" id="ArialMT-109"/>
       <path d="M 42.09375 16.703125 
L 51.171875 15.578125 
Q 49.03125 7.625 43.21875 3.21875 
Q 37.40625 -1.171875 28.375 -1.171875 
Q 17 -1.171875 10.328125 5.828125 
Q 3.65625 12.84375 3.65625 25.484375 
Q 3.65625 38.578125 10.390625 45.796875 
Q 17.140625 53.03125 27.875 53.03125 
Q 38.28125 53.03125 44.875 45.953125 
Q 51.46875 38.875 51.46875 26.03125 
Q 51.46875 25.25 51.421875 23.6875 
L 12.75 23.6875 
Q 13.234375 15.140625 17.578125 10.59375 
Q 21.921875 6.0625 28.421875 6.0625 
Q 33.25 6.0625 36.671875 8.59375 
Q 40.09375 11.140625 42.09375 16.703125 
z
M 13.234375 30.90625 
L 42.1875 30.90625 
Q 41.609375 37.453125 38.875 40.71875 
Q 34.671875 45.796875 27.984375 45.796875 
Q 21.921875 45.796875 17.796875 41.75 
Q 13.671875 37.703125 13.234375 30.90625 
z
" id="ArialMT-101"/>
       <path d="M 25.78125 7.859375 
L 27.046875 0.09375 
Q 23.34375 -0.6875 20.40625 -0.6875 
Q 15.625 -0.6875 12.984375 0.828125 
Q 10.359375 2.34375 9.28125 4.8125 
Q 8.203125 7.28125 8.203125 15.1875 
L 8.203125 45.015625 
L 1.765625 45.015625 
L 1.765625 51.859375 
L 8.203125 51.859375 
L 8.203125 64.703125 
L 16.9375 69.96875 
L 16.9375 51.859375 
L 25.78125 51.859375 
L 25.78125 45.015625 
L 16.9375 45.015625 
L 16.9375 14.703125 
Q 16.9375 10.9375 17.40625 9.859375 
Q 17.875 8.796875 18.921875 8.15625 
Q 19.96875 7.515625 21.921875 7.515625 
Q 23.390625 7.515625 25.78125 7.859375 
z
" id="ArialMT-116"/>
       <path id="ArialMT-32"/>
       <path d="M 4.5 23 
L 13.421875 23.78125 
Q 14.0625 18.40625 16.375 14.96875 
Q 18.703125 11.53125 23.578125 9.40625 
Q 28.46875 7.28125 34.578125 7.28125 
Q 39.984375 7.28125 44.140625 8.890625 
Q 48.296875 10.5 50.3125 13.296875 
Q 52.34375 16.109375 52.34375 19.4375 
Q 52.34375 22.796875 50.390625 25.3125 
Q 48.4375 27.828125 43.953125 29.546875 
Q 41.0625 30.671875 31.203125 33.03125 
Q 21.34375 35.40625 17.390625 37.5 
Q 12.25 40.1875 9.734375 44.15625 
Q 7.234375 48.140625 7.234375 53.078125 
Q 7.234375 58.5 10.296875 63.203125 
Q 13.375 67.921875 19.28125 70.359375 
Q 25.203125 72.796875 32.421875 72.796875 
Q 40.375 72.796875 46.453125 70.234375 
Q 52.546875 67.671875 55.8125 62.6875 
Q 59.078125 57.71875 59.328125 51.421875 
L 50.25 50.734375 
Q 49.515625 57.515625 45.28125 60.984375 
Q 41.0625 64.453125 32.8125 64.453125 
Q 24.21875 64.453125 20.28125 61.296875 
Q 16.359375 58.15625 16.359375 53.71875 
Q 16.359375 49.859375 19.140625 47.359375 
Q 21.875 44.875 33.421875 42.265625 
Q 44.96875 39.65625 49.265625 37.703125 
Q 55.515625 34.8125 58.484375 30.390625 
Q 61.46875 25.984375 61.46875 20.21875 
Q 61.46875 14.5 58.203125 9.4375 
Q 54.9375 4.390625 48.796875 1.578125 
Q 42.671875 -1.21875 35.015625 -1.21875 
Q 25.296875 -1.21875 18.71875 1.609375 
Q 12.15625 4.4375 8.421875 10.125 
Q 4.6875 15.828125 4.5 23 
z
" id="ArialMT-83"/>
       <path d="M 6.59375 -19.875 
L 6.59375 51.859375 
L 14.59375 51.859375 
L 14.59375 45.125 
Q 17.4375 49.078125 21 51.046875 
Q 24.5625 53.03125 29.640625 53.03125 
Q 36.28125 53.03125 41.359375 49.609375 
Q 46.4375 46.1875 49.015625 39.953125 
Q 51.609375 33.734375 51.609375 26.3125 
Q 51.609375 18.359375 48.75 11.984375 
Q 45.90625 5.609375 40.453125 2.21875 
Q 35.015625 -1.171875 29 -1.171875 
Q 24.609375 -1.171875 21.109375 0.6875 
Q 17.625 2.546875 15.375 5.375 
L 15.375 -19.875 
z
M 14.546875 25.640625 
Q 14.546875 15.625 18.59375 10.84375 
Q 22.65625 6.0625 28.421875 6.0625 
Q 34.28125 6.0625 38.453125 11.015625 
Q 42.625 15.96875 42.625 26.375 
Q 42.625 36.28125 38.546875 41.203125 
Q 34.46875 46.140625 28.8125 46.140625 
Q 23.1875 46.140625 18.859375 40.890625 
Q 14.546875 35.640625 14.546875 25.640625 
z
" id="ArialMT-112"/>
       <path d="M 3.078125 15.484375 
L 11.765625 16.84375 
Q 12.5 11.625 15.84375 8.84375 
Q 19.1875 6.0625 25.203125 6.0625 
Q 31.25 6.0625 34.171875 8.515625 
Q 37.109375 10.984375 37.109375 14.3125 
Q 37.109375 17.28125 34.515625 19 
Q 32.71875 20.171875 25.53125 21.96875 
Q 15.875 24.421875 12.140625 26.203125 
Q 8.40625 27.984375 6.46875 31.125 
Q 4.546875 34.28125 4.546875 38.09375 
Q 4.546875 41.546875 6.125 44.5 
Q 7.71875 47.46875 10.453125 49.421875 
Q 12.5 50.921875 16.03125 51.96875 
Q 19.578125 53.03125 23.640625 53.03125 
Q 29.734375 53.03125 34.34375 51.265625 
Q 38.96875 49.515625 41.15625 46.5 
Q 43.359375 43.5 44.1875 38.484375 
L 35.59375 37.3125 
Q 35.015625 41.3125 32.203125 43.546875 
Q 29.390625 45.796875 24.265625 45.796875 
Q 18.21875 45.796875 15.625 43.796875 
Q 13.03125 41.796875 13.03125 39.109375 
Q 13.03125 37.40625 14.109375 36.03125 
Q 15.1875 34.625 17.484375 33.6875 
Q 18.796875 33.203125 25.25 31.453125 
Q 34.578125 28.953125 38.25 27.359375 
Q 41.9375 25.78125 44.03125 22.75 
Q 46.140625 19.734375 46.140625 15.234375 
Q 46.140625 10.84375 43.578125 6.953125 
Q 41.015625 3.078125 36.171875 0.953125 
Q 31.34375 -1.171875 25.25 -1.171875 
Q 15.140625 -1.171875 9.84375 3.03125 
Q 4.546875 7.234375 3.078125 15.484375 
z
" id="ArialMT-115"/>
      </defs>
      <use xlink:href="#ArialMT-69"/>
      <use x="66.699219" xlink:href="#ArialMT-110"/>
      <use x="122.314453" xlink:href="#ArialMT-118"/>
      <use x="172.314453" xlink:href="#ArialMT-105"/>
      <use x="194.53125" xlink:href="#ArialMT-114"/>
      <use x="227.832031" xlink:href="#ArialMT-111"/>
      <use x="283.447266" xlink:href="#ArialMT-110"/>
      <use x="339.0625" xlink:href="#ArialMT-109"/>
      <use x="422.363281" xlink:href="#ArialMT-101"/>
      <use x="477.978516" xlink:href="#ArialMT-110"/>
      <use x="533.59375" xlink:href="#ArialMT-116"/>
      <use x="561.376953" xlink:href="#ArialMT-32"/>
      <use x="589.160156" xlink:href="#ArialMT-83"/>
      <use x="655.859375" xlink:href="#ArialMT-116"/>
      <use x="683.642578" xlink:href="#ArialMT-101"/>
      <use x="739.257812" xlink:href="#ArialMT-112"/>
      <use x="794.873047" xlink:href="#ArialMT-115"/>
     </g>
    </g>
    <g id="text_9">
     <!-- 1e3 -->
     <g style="fill:#262626;" transform="translate(500.048906 546.731562)scale(0.11 -0.11)">
      <use xlink:href="#ArialMT-49"/>
      <use x="55.615234" xlink:href="#ArialMT-101"/>
      <use x="111.230469" xlink:href="#ArialMT-51"/>
     </g>
    </g>
   </g>
   <g id="matplotlib.axis_2">
    <g id="ytick_1">
     <g id="line2d_8">
      <path clip-path="url(#p2e6998696a)" d="M 72 486.105873 
L 518.4 486.105873 
" style="fill:none;stroke:#ffffff;stroke-linecap:round;"/>
     </g>
     <g id="text_10">
      <!-- −500.0 -->
      <g style="fill:#262626;" transform="translate(16.20625 491.474232)scale(0.15 -0.15)">
       <defs>
        <path d="M 52.828125 31.203125 
L 5.5625 31.203125 
L 5.5625 39.40625 
L 52.828125 39.40625 
z
" id="ArialMT-8722"/>
       </defs>
       <use xlink:href="#ArialMT-8722"/>
       <use x="58.398438" xlink:href="#ArialMT-53"/>
       <use x="114.013672" xlink:href="#ArialMT-48"/>
       <use x="169.628906" xlink:href="#ArialMT-48"/>
       <use x="225.244141" xlink:href="#ArialMT-46"/>
       <use x="253.027344" xlink:href="#ArialMT-48"/>
      </g>
     </g>
    </g>
    <g id="ytick_2">
     <g id="line2d_9">
      <path clip-path="url(#p2e6998696a)" d="M 72 436.166984 
L 518.4 436.166984 
" style="fill:none;stroke:#ffffff;stroke-linecap:round;"/>
     </g>
     <g id="text_11">
      <!-- −400.0 -->
      <g style="fill:#262626;" transform="translate(16.20625 441.535343)scale(0.15 -0.15)">
       <defs>
        <path d="M 32.328125 0 
L 32.328125 17.140625 
L 1.265625 17.140625 
L 1.265625 25.203125 
L 33.9375 71.578125 
L 41.109375 71.578125 
L 41.109375 25.203125 
L 50.78125 25.203125 
L 50.78125 17.140625 
L 41.109375 17.140625 
L 41.109375 0 
z
M 32.328125 25.203125 
L 32.328125 57.46875 
L 9.90625 25.203125 
z
" id="ArialMT-52"/>
       </defs>
       <use xlink:href="#ArialMT-8722"/>
       <use x="58.398438" xlink:href="#ArialMT-52"/>
       <use x="114.013672" xlink:href="#ArialMT-48"/>
       <use x="169.628906" xlink:href="#ArialMT-48"/>
       <use x="225.244141" xlink:href="#ArialMT-46"/>
       <use x="253.027344" xlink:href="#ArialMT-48"/>
      </g>
     </g>
    </g>
    <g id="ytick_3">
     <g id="line2d_10">
      <path clip-path="url(#p2e6998696a)" d="M 72 386.228095 
L 518.4 386.228095 
" style="fill:none;stroke:#ffffff;stroke-linecap:round;"/>
     </g>
     <g id="text_12">
      <!-- −300.0 -->
      <g style="fill:#262626;" transform="translate(16.20625 391.596455)scale(0.15 -0.15)">
       <use xlink:href="#ArialMT-8722"/>
       <use x="58.398438" xlink:href="#ArialMT-51"/>
       <use x="114.013672" xlink:href="#ArialMT-48"/>
       <use x="169.628906" xlink:href="#ArialMT-48"/>
       <use x="225.244141" xlink:href="#ArialMT-46"/>
       <use x="253.027344" xlink:href="#ArialMT-48"/>
      </g>
     </g>
    </g>
    <g id="ytick_4">
     <g id="line2d_11">
      <path clip-path="url(#p2e6998696a)" d="M 72 336.289207 
L 518.4 336.289207 
" style="fill:none;stroke:#ffffff;stroke-linecap:round;"/>
     </g>
     <g id="text_13">
      <!-- −200.0 -->
      <g style="fill:#262626;" transform="translate(16.20625 341.657566)scale(0.15 -0.15)">
       <use xlink:href="#ArialMT-8722"/>
       <use x="58.398438" xlink:href="#ArialMT-50"/>
       <use x="114.013672" xlink:href="#ArialMT-48"/>
       <use x="169.628906" xlink:href="#ArialMT-48"/>
       <use x="225.244141" xlink:href="#ArialMT-46"/>
       <use x="253.027344" xlink:href="#ArialMT-48"/>
      </g>
     </g>
    </g>
    <g id="ytick_5">
     <g id="line2d_12">
      <path clip-path="url(#p2e6998696a)" d="M 72 286.350318 
L 518.4 286.350318 
" style="fill:none;stroke:#ffffff;stroke-linecap:round;"/>
     </g>
     <g id="text_14">
      <!-- −100.0 -->
      <g style="fill:#262626;" transform="translate(16.20625 291.718678)scale(0.15 -0.15)">
       <use xlink:href="#ArialMT-8722"/>
       <use x="58.398438" xlink:href="#ArialMT-49"/>
       <use x="114.013672" xlink:href="#ArialMT-48"/>
       <use x="169.628906" xlink:href="#ArialMT-48"/>
       <use x="225.244141" xlink:href="#ArialMT-46"/>
       <use x="253.027344" xlink:href="#ArialMT-48"/>
      </g>
     </g>
    </g>
    <g id="ytick_6">
     <g id="line2d_13">
      <path clip-path="url(#p2e6998696a)" d="M 72 236.41143 
L 518.4 236.41143 
" style="fill:none;stroke:#ffffff;stroke-linecap:round;"/>
     </g>
     <g id="text_15">
      <!-- 0.0 -->
      <g style="fill:#262626;" transform="translate(41.65 241.779789)scale(0.15 -0.15)">
       <use xlink:href="#ArialMT-48"/>
       <use x="55.615234" xlink:href="#ArialMT-46"/>
       <use x="83.398438" xlink:href="#ArialMT-48"/>
      </g>
     </g>
    </g>
    <g id="ytick_7">
     <g id="line2d_14">
      <path clip-path="url(#p2e6998696a)" d="M 72 186.472541 
L 518.4 186.472541 
" style="fill:none;stroke:#ffffff;stroke-linecap:round;"/>
     </g>
     <g id="text_16">
      <!-- 100.0 -->
      <g style="fill:#262626;" transform="translate(24.967188 191.8409)scale(0.15 -0.15)">
       <use xlink:href="#ArialMT-49"/>
       <use x="55.615234" xlink:href="#ArialMT-48"/>
       <use x="111.230469" xlink:href="#ArialMT-48"/>
       <use x="166.845703" xlink:href="#ArialMT-46"/>
       <use x="194.628906" xlink:href="#ArialMT-48"/>
      </g>
     </g>
    </g>
    <g id="ytick_8">
     <g id="line2d_15">
      <path clip-path="url(#p2e6998696a)" d="M 72 136.533652 
L 518.4 136.533652 
" style="fill:none;stroke:#ffffff;stroke-linecap:round;"/>
     </g>
     <g id="text_17">
      <!-- 200.0 -->
      <g style="fill:#262626;" transform="translate(24.967188 141.902012)scale(0.15 -0.15)">
       <use xlink:href="#ArialMT-50"/>
       <use x="55.615234" xlink:href="#ArialMT-48"/>
       <use x="111.230469" xlink:href="#ArialMT-48"/>
       <use x="166.845703" xlink:href="#ArialMT-46"/>
       <use x="194.628906" xlink:href="#ArialMT-48"/>
      </g>
     </g>
    </g>
    <g id="ytick_9">
     <g id="line2d_16">
      <path clip-path="url(#p2e6998696a)" d="M 72 86.594764 
L 518.4 86.594764 
" style="fill:none;stroke:#ffffff;stroke-linecap:round;"/>
     </g>
     <g id="text_18">
      <!-- 300.0 -->
      <g style="fill:#262626;" transform="translate(24.967188 91.963123)scale(0.15 -0.15)">
       <use xlink:href="#ArialMT-51"/>
       <use x="55.615234" xlink:href="#ArialMT-48"/>
       <use x="111.230469" xlink:href="#ArialMT-48"/>
       <use x="166.845703" xlink:href="#ArialMT-46"/>
       <use x="194.628906" xlink:href="#ArialMT-48"/>
      </g>
     </g>
    </g>
    <g id="ytick_10">
     <g id="line2d_17">
      <path clip-path="url(#p2e6998696a)" d="M 72 89.28 
L 518.4 89.28 
" style="fill:none;stroke:#ffffff;stroke-linecap:round;"/>
     </g>
     <g id="text_19">
      <!-- 294.6 -->
      <g style="fill:#262626;" transform="translate(24.967188 94.648359)scale(0.15 -0.15)">
       <defs>
        <path d="M 5.46875 16.546875 
L 13.921875 17.328125 
Q 14.984375 11.375 18.015625 8.6875 
Q 21.046875 6 25.78125 6 
Q 29.828125 6 32.875 7.859375 
Q 35.9375 9.71875 37.890625 12.8125 
Q 39.84375 15.921875 41.15625 21.1875 
Q 42.484375 26.46875 42.484375 31.9375 
Q 42.484375 32.515625 42.4375 33.6875 
Q 39.796875 29.5 35.234375 26.875 
Q 30.671875 24.265625 25.34375 24.265625 
Q 16.453125 24.265625 10.296875 30.703125 
Q 4.15625 37.15625 4.15625 47.703125 
Q 4.15625 58.59375 10.578125 65.234375 
Q 17 71.875 26.65625 71.875 
Q 33.640625 71.875 39.421875 68.109375 
Q 45.21875 64.359375 48.21875 57.390625 
Q 51.21875 50.4375 51.21875 37.25 
Q 51.21875 23.53125 48.234375 15.40625 
Q 45.265625 7.28125 39.375 3.03125 
Q 33.5 -1.21875 25.59375 -1.21875 
Q 17.1875 -1.21875 11.859375 3.4375 
Q 6.546875 8.109375 5.46875 16.546875 
z
M 41.453125 48.140625 
Q 41.453125 55.71875 37.421875 60.15625 
Q 33.40625 64.59375 27.734375 64.59375 
Q 21.875 64.59375 17.53125 59.8125 
Q 13.1875 55.03125 13.1875 47.40625 
Q 13.1875 40.578125 17.3125 36.296875 
Q 21.4375 32.03125 27.484375 32.03125 
Q 33.59375 32.03125 37.515625 36.296875 
Q 41.453125 40.578125 41.453125 48.140625 
z
" id="ArialMT-57"/>
        <path d="M 49.75 54.046875 
L 41.015625 53.375 
Q 39.84375 58.546875 37.703125 60.890625 
Q 34.125 64.65625 28.90625 64.65625 
Q 24.703125 64.65625 21.53125 62.3125 
Q 17.390625 59.28125 14.984375 53.46875 
Q 12.59375 47.65625 12.5 36.921875 
Q 15.671875 41.75 20.265625 44.09375 
Q 24.859375 46.4375 29.890625 46.4375 
Q 38.671875 46.4375 44.84375 39.96875 
Q 51.03125 33.5 51.03125 23.25 
Q 51.03125 16.5 48.125 10.71875 
Q 45.21875 4.9375 40.140625 1.859375 
Q 35.0625 -1.21875 28.609375 -1.21875 
Q 17.625 -1.21875 10.6875 6.859375 
Q 3.765625 14.9375 3.765625 33.5 
Q 3.765625 54.25 11.421875 63.671875 
Q 18.109375 71.875 29.4375 71.875 
Q 37.890625 71.875 43.28125 67.140625 
Q 48.6875 62.40625 49.75 54.046875 
z
M 13.875 23.1875 
Q 13.875 18.65625 15.796875 14.5 
Q 17.71875 10.359375 21.1875 8.171875 
Q 24.65625 6 28.46875 6 
Q 34.03125 6 38.03125 10.484375 
Q 42.046875 14.984375 42.046875 22.703125 
Q 42.046875 30.125 38.078125 34.390625 
Q 34.125 38.671875 28.125 38.671875 
Q 22.171875 38.671875 18.015625 34.390625 
Q 13.875 30.125 13.875 23.1875 
z
" id="ArialMT-54"/>
       </defs>
       <use xlink:href="#ArialMT-50"/>
       <use x="55.615234" xlink:href="#ArialMT-57"/>
       <use x="111.230469" xlink:href="#ArialMT-52"/>
       <use x="166.845703" xlink:href="#ArialMT-46"/>
       <use x="194.628906" xlink:href="#ArialMT-54"/>
      </g>
     </g>
    </g>
    <g id="text_20">
     <!-- avg reward -->
     <g style="fill:#262626;" transform="translate(9.049219 327.978047)rotate(-90)scale(0.15 -0.15)">
      <defs>
       <path d="M 40.4375 6.390625 
Q 35.546875 2.25 31.03125 0.53125 
Q 26.515625 -1.171875 21.34375 -1.171875 
Q 12.796875 -1.171875 8.203125 3 
Q 3.609375 7.171875 3.609375 13.671875 
Q 3.609375 17.484375 5.34375 20.625 
Q 7.078125 23.78125 9.890625 25.6875 
Q 12.703125 27.59375 16.21875 28.5625 
Q 18.796875 29.25 24.03125 29.890625 
Q 34.671875 31.15625 39.703125 32.90625 
Q 39.75 34.71875 39.75 35.203125 
Q 39.75 40.578125 37.25 42.78125 
Q 33.890625 45.75 27.25 45.75 
Q 21.046875 45.75 18.09375 43.578125 
Q 15.140625 41.40625 13.71875 35.890625 
L 5.125 37.0625 
Q 6.296875 42.578125 8.984375 45.96875 
Q 11.671875 49.359375 16.75 51.1875 
Q 21.828125 53.03125 28.515625 53.03125 
Q 35.15625 53.03125 39.296875 51.46875 
Q 43.453125 49.90625 45.40625 47.53125 
Q 47.359375 45.171875 48.140625 41.546875 
Q 48.578125 39.3125 48.578125 33.453125 
L 48.578125 21.734375 
Q 48.578125 9.46875 49.140625 6.21875 
Q 49.703125 2.984375 51.375 0 
L 42.1875 0 
Q 40.828125 2.734375 40.4375 6.390625 
z
M 39.703125 26.03125 
Q 34.90625 24.078125 25.34375 22.703125 
Q 19.921875 21.921875 17.671875 20.9375 
Q 15.4375 19.96875 14.203125 18.09375 
Q 12.984375 16.21875 12.984375 13.921875 
Q 12.984375 10.40625 15.640625 8.0625 
Q 18.3125 5.71875 23.4375 5.71875 
Q 28.515625 5.71875 32.46875 7.9375 
Q 36.421875 10.15625 38.28125 14.015625 
Q 39.703125 17 39.703125 22.796875 
z
" id="ArialMT-97"/>
       <path d="M 4.984375 -4.296875 
L 13.53125 -5.5625 
Q 14.0625 -9.515625 16.5 -11.328125 
Q 19.78125 -13.765625 25.4375 -13.765625 
Q 31.546875 -13.765625 34.859375 -11.328125 
Q 38.1875 -8.890625 39.359375 -4.5 
Q 40.046875 -1.8125 39.984375 6.78125 
Q 34.234375 0 25.640625 0 
Q 14.9375 0 9.078125 7.71875 
Q 3.21875 15.4375 3.21875 26.21875 
Q 3.21875 33.640625 5.90625 39.90625 
Q 8.59375 46.1875 13.6875 49.609375 
Q 18.796875 53.03125 25.6875 53.03125 
Q 34.859375 53.03125 40.828125 45.609375 
L 40.828125 51.859375 
L 48.921875 51.859375 
L 48.921875 7.03125 
Q 48.921875 -5.078125 46.453125 -10.125 
Q 44 -15.1875 38.640625 -18.109375 
Q 33.296875 -21.046875 25.484375 -21.046875 
Q 16.21875 -21.046875 10.5 -16.875 
Q 4.78125 -12.703125 4.984375 -4.296875 
z
M 12.25 26.859375 
Q 12.25 16.65625 16.296875 11.96875 
Q 20.359375 7.28125 26.46875 7.28125 
Q 32.515625 7.28125 36.609375 11.9375 
Q 40.71875 16.609375 40.71875 26.5625 
Q 40.71875 36.078125 36.5 40.90625 
Q 32.28125 45.75 26.3125 45.75 
Q 20.453125 45.75 16.34375 40.984375 
Q 12.25 36.234375 12.25 26.859375 
z
" id="ArialMT-103"/>
       <path d="M 16.15625 0 
L 0.296875 51.859375 
L 9.375 51.859375 
L 17.625 21.921875 
L 20.703125 10.796875 
Q 20.90625 11.625 23.390625 21.484375 
L 31.640625 51.859375 
L 40.671875 51.859375 
L 48.4375 21.78125 
L 51.03125 11.859375 
L 54 21.875 
L 62.890625 51.859375 
L 71.4375 51.859375 
L 55.21875 0 
L 46.09375 0 
L 37.84375 31.0625 
L 35.84375 39.890625 
L 25.34375 0 
z
" id="ArialMT-119"/>
       <path d="M 40.234375 0 
L 40.234375 6.546875 
Q 35.296875 -1.171875 25.734375 -1.171875 
Q 19.53125 -1.171875 14.328125 2.25 
Q 9.125 5.671875 6.265625 11.796875 
Q 3.421875 17.921875 3.421875 25.875 
Q 3.421875 33.640625 6 39.96875 
Q 8.59375 46.296875 13.765625 49.65625 
Q 18.953125 53.03125 25.34375 53.03125 
Q 30.03125 53.03125 33.6875 51.046875 
Q 37.359375 49.078125 39.65625 45.90625 
L 39.65625 71.578125 
L 48.390625 71.578125 
L 48.390625 0 
z
M 12.453125 25.875 
Q 12.453125 15.921875 16.640625 10.984375 
Q 20.84375 6.0625 26.5625 6.0625 
Q 32.328125 6.0625 36.34375 10.765625 
Q 40.375 15.484375 40.375 25.140625 
Q 40.375 35.796875 36.265625 40.765625 
Q 32.171875 45.75 26.171875 45.75 
Q 20.3125 45.75 16.375 40.96875 
Q 12.453125 36.1875 12.453125 25.875 
z
" id="ArialMT-100"/>
      </defs>
      <use xlink:href="#ArialMT-97"/>
      <use x="55.615234" xlink:href="#ArialMT-118"/>
      <use x="105.615234" xlink:href="#ArialMT-103"/>
      <use x="161.230469" xlink:href="#ArialMT-32"/>
      <use x="189.013672" xlink:href="#ArialMT-114"/>
      <use x="222.314453" xlink:href="#ArialMT-101"/>
      <use x="277.929688" xlink:href="#ArialMT-119"/>
      <use x="350.146484" xlink:href="#ArialMT-97"/>
      <use x="405.761719" xlink:href="#ArialMT-114"/>
      <use x="439.0625" xlink:href="#ArialMT-100"/>
     </g>
    </g>
   </g>
   <g id="line2d_18">
    <path clip-path="url(#p2e6998696a)" d="M 92.290909 492.48 
L 93.595791 385.352427 
L 94.900672 397.037987 
L 96.205554 351.512955 
L 97.510436 344.731284 
L 98.815317 353.306735 
L 100.120199 374.982656 
L 101.42508 274.164078 
L 102.729962 306.50858 
L 104.034844 282.121366 
L 105.339725 234.804347 
L 106.644607 281.039533 
L 107.949488 171.417485 
L 109.25437 173.855972 
L 110.559252 139.020256 
L 111.864133 164.287775 
L 113.169015 155.661772 
L 114.473897 266.207468 
L 115.778778 162.942802 
L 117.08366 135.550252 
L 118.388541 136.453969 
L 119.693423 125.330001 
L 120.998305 112.734574 
L 122.303186 188.405425 
L 123.608068 173.499418 
L 126.217831 129.161837 
L 127.522713 126.445808 
L 128.827594 170.374435 
L 130.132476 166.181659 
L 131.437357 194.172979 
L 132.742239 178.047201 
L 134.047121 122.85927 
L 135.352002 138.27112 
L 136.656884 156.078194 
L 137.961766 146.173353 
L 139.266647 131.754527 
L 140.571529 128.119236 
L 141.87641 194.890085 
L 143.181292 123.618373 
L 144.486174 119.362511 
L 145.791055 156.786334 
L 147.095937 137.523736 
L 148.400818 150.42558 
L 149.7057 127.564769 
L 151.010582 157.960785 
L 152.315463 124.099626 
L 153.620345 139.459454 
L 154.925227 160.408634 
L 156.230108 114.041554 
L 158.839871 158.132366 
L 160.144753 143.506664 
L 161.449635 121.36281 
L 162.754516 143.821418 
L 164.059398 145.32783 
L 165.364279 120.51254 
L 166.669161 138.952133 
L 167.974043 117.608081 
L 169.278924 117.479523 
L 170.583806 156.485357 
L 171.888688 152.809077 
L 173.193569 178.495082 
L 174.498451 132.228854 
L 175.803332 177.140558 
L 177.108214 154.501799 
L 178.413096 150.97991 
L 179.717977 222.885075 
L 182.32774 124.084287 
L 183.632622 151.996816 
L 184.937504 171.101976 
L 186.242385 123.370736 
L 187.547267 135.110178 
L 188.852148 143.518963 
L 190.15703 122.457829 
L 191.461912 116.017925 
L 192.766793 143.228219 
L 194.071675 159.13247 
L 195.376557 162.037027 
L 196.681438 171.430965 
L 197.98632 152.453631 
L 199.291201 110.046183 
L 200.596083 133.791006 
L 201.900965 119.399613 
L 203.205846 152.952936 
L 204.510728 126.846181 
L 205.815609 130.912373 
L 207.120491 130.288777 
L 208.425373 155.528459 
L 209.730254 124.66211 
L 211.035136 134.939038 
L 212.340018 135.878402 
L 213.644899 146.948718 
L 214.949781 111.802678 
L 216.254662 107.900738 
L 217.559544 153.144391 
L 218.864426 99.649894 
L 220.169307 103.494493 
L 221.474189 118.978917 
L 222.77907 107.165203 
L 224.083952 210.573442 
L 225.388834 105.316863 
L 226.693715 106.328428 
L 227.998597 105.940917 
L 229.303479 109.775983 
L 230.60836 112.320035 
L 231.913242 125.883782 
L 233.218123 194.608489 
L 234.523005 124.600943 
L 235.827887 108.811123 
L 237.132768 120.463329 
L 238.43765 119.876911 
L 239.742531 103.007175 
L 241.047413 164.897106 
L 242.352295 116.785358 
L 243.657176 96.768547 
L 244.962058 113.469911 
L 246.266939 119.858517 
L 247.571821 164.082094 
L 248.876703 146.232081 
L 250.181584 120.788447 
L 251.486466 121.927594 
L 252.791348 263.96851 
L 254.096229 129.873681 
L 255.401111 132.144888 
L 256.705992 138.192633 
L 258.010874 163.319584 
L 259.315756 162.030337 
L 260.620637 96.179699 
L 261.925519 143.448004 
L 263.2304 131.760997 
L 264.535282 104.408764 
L 265.840164 244.043795 
L 267.145045 415.414441 
L 268.449927 141.27073 
L 269.754809 172.620557 
L 271.05969 112.400998 
L 272.364572 145.194585 
L 273.669453 126.351395 
L 274.974335 141.0426 
L 276.279217 150.726238 
L 277.584098 97.746278 
L 278.88898 101.645179 
L 280.193861 100.151142 
L 281.498743 95.983147 
L 282.803625 133.90197 
L 284.108506 108.801392 
L 285.413388 102.95612 
L 286.71827 100.361151 
L 288.023151 106.936783 
L 289.328033 97.961439 
L 290.632914 106.041623 
L 291.937796 208.640891 
L 293.242678 108.294634 
L 294.547559 107.967276 
L 295.852441 115.560119 
L 297.157322 117.715395 
L 298.462204 109.761551 
L 299.767086 137.634981 
L 301.071967 110.670968 
L 302.376849 107.779167 
L 303.68173 100.70602 
L 304.986612 129.51649 
L 306.291494 145.185304 
L 307.596375 194.825718 
L 308.901257 128.588145 
L 310.206139 135.389164 
L 311.51102 107.760223 
L 312.815902 98.844971 
L 314.120783 117.215724 
L 315.425665 104.242921 
L 316.730547 104.570935 
L 318.035428 110.531864 
L 319.34031 99.265416 
L 320.645191 101.244317 
L 321.950073 110.701647 
L 323.254955 96.631721 
L 324.559836 103.383454 
L 325.864718 96.162035 
L 327.1696 96.579112 
L 328.474481 104.96253 
L 329.779363 125.56492 
L 331.084244 98.397901 
L 332.389126 115.084901 
L 333.694008 108.514702 
L 334.998889 111.542491 
L 336.303771 100.199118 
L 337.608652 162.696148 
L 338.913534 99.11402 
L 340.218416 100.65998 
L 341.523297 98.438364 
L 342.828179 112.207174 
L 344.133061 118.601609 
L 345.437942 101.09344 
L 346.742824 101.347386 
L 348.047705 102.743505 
L 349.352587 103.490561 
L 350.657469 139.13269 
L 351.96235 105.366302 
L 353.267232 115.150868 
L 354.572113 113.283928 
L 355.876995 124.399865 
L 357.181877 98.279424 
L 358.486758 100.69651 
L 359.79164 96.199816 
L 361.096521 105.68281 
L 362.401403 112.332745 
L 363.706285 90.721321 
L 365.011166 93.831955 
L 366.316048 97.479545 
L 367.62093 124.626821 
L 368.925811 115.248275 
L 370.230693 124.689587 
L 371.535574 112.103793 
L 372.840456 103.016608 
L 374.145338 108.535535 
L 375.450219 133.737704 
L 376.755101 100.544078 
L 378.059982 156.211835 
L 380.669746 106.710102 
L 381.974627 129.464902 
L 383.279509 118.561611 
L 384.584391 101.487535 
L 385.889272 121.509351 
L 387.194154 106.292888 
L 388.499035 119.578624 
L 389.803917 100.701204 
L 391.108799 108.309722 
L 392.41368 99.284481 
L 393.718562 120.339617 
L 395.023443 97.016047 
L 396.328325 114.335528 
L 397.633207 98.813804 
L 398.938088 113.636631 
L 400.24297 95.844324 
L 401.547852 107.862835 
L 402.852733 97.864755 
L 404.157615 97.347642 
L 405.462496 106.249743 
L 406.767378 94.426839 
L 408.07226 96.910616 
L 409.377141 102.202038 
L 410.682023 102.667944 
L 413.291786 97.112654 
L 414.596668 99.026465 
L 415.901549 98.713509 
L 417.206431 94.278324 
L 418.511312 105.918315 
L 419.816194 102.124176 
L 421.121076 101.43968 
L 422.425957 89.31996 
L 423.730839 127.162468 
L 425.035721 95.427583 
L 426.340602 99.433773 
L 427.645484 94.699805 
L 428.950365 95.430128 
L 430.255247 113.923503 
L 431.560129 121.034629 
L 432.86501 127.2938 
L 434.169892 98.566594 
L 435.474773 143.657876 
L 436.779655 103.392765 
L 438.084537 96.553265 
L 439.389418 98.806901 
L 440.6943 98.938347 
L 441.999182 93.360243 
L 444.608945 100.10437 
L 445.913826 96.623583 
L 447.218708 137.711403 
L 448.52359 119.607824 
L 449.828471 98.022232 
L 451.133353 110.491942 
L 452.438234 93.782029 
L 453.743116 98.278982 
L 455.047998 105.400273 
L 456.352879 94.753953 
L 457.657761 99.713018 
L 458.962643 102.552394 
L 460.267524 111.146842 
L 461.572406 94.332457 
L 462.877287 97.385118 
L 464.182169 121.360836 
L 465.487051 104.077718 
L 466.791932 92.272539 
L 468.096814 110.978453 
L 469.401695 93.201837 
L 470.706577 95.797933 
L 472.011459 89.28 
L 473.31634 103.828709 
L 474.621222 101.685793 
L 475.926103 109.877635 
L 477.230985 94.843931 
L 478.535867 108.693309 
L 479.840748 95.817928 
L 481.14563 91.526503 
L 482.450512 105.215791 
L 483.755393 95.794657 
L 485.060275 147.615001 
L 486.365156 120.291519 
L 487.670038 100.774113 
L 488.97492 95.205305 
L 490.279801 94.58686 
L 491.584683 121.583045 
L 492.889564 102.103099 
L 494.194446 104.687278 
L 495.499328 107.758821 
L 496.804209 95.144726 
L 498.109091 94.939502 
L 498.109091 94.939502 
" style="fill:none;stroke:#4c72b0;stroke-linecap:round;stroke-opacity:0.3;stroke-width:1.5;"/>
   </g>
   <g id="line2d_19">
    <path clip-path="url(#p2e6998696a)" d="M 92.290909 492.48 
L 93.595791 481.767243 
L 94.900672 473.294317 
L 97.510436 449.477691 
L 98.815317 439.860596 
L 100.120199 433.372802 
L 101.42508 417.451929 
L 102.729962 406.357594 
L 104.034844 393.933972 
L 105.339725 378.021009 
L 106.644607 368.322862 
L 107.949488 348.632324 
L 109.25437 331.154689 
L 110.559252 311.941246 
L 113.169015 283.024486 
L 114.473897 281.342784 
L 115.778778 269.502786 
L 117.08366 256.107532 
L 120.998305 220.30832 
L 122.303186 217.118031 
L 123.608068 212.756169 
L 124.912949 206.609956 
L 127.522713 191.623211 
L 130.132476 187.166666 
L 131.437357 187.867297 
L 132.742239 186.885288 
L 134.047121 180.482686 
L 135.352002 176.261529 
L 136.656884 174.243196 
L 137.961766 171.436211 
L 140.571529 163.533162 
L 141.87641 166.668855 
L 144.486174 158.063677 
L 145.791055 157.935943 
L 147.095937 155.894722 
L 148.400818 155.347808 
L 149.7057 152.569504 
L 151.010582 153.108632 
L 152.315463 150.207732 
L 153.620345 149.132904 
L 154.925227 150.260477 
L 156.230108 146.638584 
L 157.53499 145.500637 
L 158.839871 146.76381 
L 160.144753 146.438095 
L 161.449635 143.930567 
L 162.754516 143.919652 
L 164.059398 144.06047 
L 165.364279 141.705677 
L 166.669161 141.430322 
L 169.278924 136.891241 
L 170.583806 138.850652 
L 171.888688 140.246495 
L 173.193569 144.071354 
L 174.498451 142.887104 
L 175.803332 146.312449 
L 177.108214 147.131384 
L 178.413096 147.516237 
L 179.717977 155.053121 
L 181.022859 156.834719 
L 182.32774 153.559676 
L 183.632622 153.40339 
L 184.937504 155.173248 
L 186.242385 151.992997 
L 187.547267 150.304715 
L 188.852148 149.62614 
L 190.15703 146.909309 
L 191.461912 143.820171 
L 192.766793 143.760975 
L 195.376557 146.972015 
L 196.681438 149.41791 
L 197.98632 149.721482 
L 199.291201 145.753952 
L 200.596083 144.557658 
L 201.900965 142.041853 
L 203.205846 143.132962 
L 204.510728 141.504284 
L 207.120491 139.429461 
L 208.425373 141.039361 
L 209.730254 139.401636 
L 211.035136 138.955376 
L 212.340018 138.647679 
L 213.644899 139.477782 
L 216.254662 133.829319 
L 217.559544 135.760826 
L 218.864426 132.149733 
L 220.169307 129.284209 
L 221.474189 128.253679 
L 222.77907 126.144832 
L 224.083952 134.587693 
L 225.388834 131.66061 
L 227.998597 126.808744 
L 229.303479 125.105468 
L 230.60836 123.826925 
L 231.913242 124.03261 
L 233.218123 131.090198 
L 234.523005 130.441273 
L 235.827887 128.278258 
L 238.43765 126.73478 
L 239.742531 124.362019 
L 241.047413 128.415528 
L 242.352295 127.252511 
L 243.657176 124.204114 
L 244.962058 123.130694 
L 246.266939 122.803476 
L 247.571821 126.931338 
L 248.876703 128.861412 
L 250.181584 128.054116 
L 251.486466 127.441464 
L 252.791348 141.094168 
L 254.096229 139.97212 
L 255.401111 139.189396 
L 256.705992 139.08972 
L 258.010874 141.512707 
L 259.315756 143.56447 
L 260.620637 138.825992 
L 261.925519 139.288194 
L 263.2304 138.535474 
L 264.535282 135.122803 
L 265.840164 146.014902 
L 267.145045 172.954856 
L 268.449927 169.786443 
L 269.754809 170.069855 
L 271.05969 164.302969 
L 272.364572 162.392131 
L 273.669453 158.788057 
L 274.974335 157.013511 
L 276.279217 156.384784 
L 277.584098 150.520934 
L 280.193861 141.085136 
L 281.498743 136.574937 
L 282.803625 136.307641 
L 284.108506 133.557016 
L 286.71827 127.483349 
L 288.023151 125.428692 
L 289.328033 122.681967 
L 290.632914 121.017932 
L 291.937796 129.780228 
L 294.547559 125.66523 
L 295.852441 124.654719 
L 297.157322 123.960786 
L 298.462204 122.540863 
L 299.767086 124.050275 
L 302.376849 121.219026 
L 303.68173 119.167726 
L 304.986612 120.202602 
L 306.291494 122.700872 
L 307.596375 129.913357 
L 308.901257 129.780836 
L 310.206139 130.341668 
L 311.51102 128.083524 
L 312.815902 125.159669 
L 314.120783 124.365274 
L 315.425665 122.353039 
L 316.730547 120.574828 
L 318.035428 119.570532 
L 319.34031 117.54002 
L 320.645191 115.91045 
L 321.950073 115.38957 
L 323.254955 113.513785 
L 324.559836 112.500752 
L 325.864718 110.86688 
L 327.1696 109.438103 
L 328.474481 108.990546 
L 329.779363 110.647983 
L 331.084244 109.422975 
L 332.389126 109.989168 
L 333.694008 109.841721 
L 334.998889 110.011798 
L 336.303771 109.03053 
L 337.608652 114.397092 
L 338.913534 112.868785 
L 341.523297 110.32695 
L 342.828179 110.514973 
L 344.133061 111.323636 
L 346.742824 109.405294 
L 348.047705 108.739115 
L 349.352587 108.214259 
L 350.657469 111.306102 
L 351.96235 110.712122 
L 353.267232 111.155997 
L 354.572113 111.36879 
L 355.876995 112.671898 
L 357.181877 111.23265 
L 358.486758 110.179036 
L 359.79164 108.781114 
L 361.096521 108.471284 
L 362.401403 108.85743 
L 363.706285 107.043819 
L 365.011166 105.722633 
L 366.316048 104.898324 
L 367.62093 106.871174 
L 368.925811 107.708884 
L 370.230693 109.406954 
L 371.535574 109.676638 
L 372.840456 109.010635 
L 374.145338 108.963125 
L 375.450219 111.440583 
L 376.755101 110.350932 
L 378.059982 114.937023 
L 379.364864 116.602152 
L 380.669746 115.612947 
L 381.974627 116.998142 
L 383.279509 117.154489 
L 384.584391 115.587794 
L 385.889272 116.179949 
L 387.194154 115.191243 
L 388.499035 115.629981 
L 389.803917 114.137104 
L 391.108799 113.554365 
L 392.41368 112.127377 
L 393.718562 112.948601 
L 395.023443 111.355346 
L 396.328325 111.653364 
L 397.633207 110.369408 
L 398.938088 110.69613 
L 400.24297 109.21095 
L 401.547852 109.076138 
L 404.157615 106.894264 
L 405.462496 106.829812 
L 406.767378 105.589515 
L 408.07226 104.721625 
L 410.682023 104.289494 
L 411.986904 103.839078 
L 413.291786 103.166435 
L 415.901549 102.348546 
L 417.206431 101.541523 
L 418.511312 101.979203 
L 421.121076 101.938298 
L 422.425957 100.676464 
L 423.730839 103.325064 
L 425.035721 102.535316 
L 426.340602 102.225162 
L 427.645484 101.472626 
L 428.950365 100.868376 
L 430.255247 102.173889 
L 431.560129 104.059963 
L 432.86501 106.383347 
L 434.169892 105.601671 
L 435.474773 109.407292 
L 436.779655 108.805839 
L 438.084537 107.580582 
L 440.6943 105.926727 
L 441.999182 104.670079 
L 443.304063 103.869187 
L 444.608945 103.492706 
L 445.913826 102.805793 
L 447.218708 106.296354 
L 448.52359 107.627501 
L 449.828471 106.666974 
L 451.133353 107.049471 
L 452.438234 105.722727 
L 453.743116 104.978352 
L 455.047998 105.020544 
L 456.352879 103.993885 
L 457.657761 103.565799 
L 458.962643 103.464458 
L 460.267524 104.232696 
L 461.572406 103.242672 
L 462.877287 102.656917 
L 464.182169 104.527309 
L 465.487051 104.48235 
L 466.791932 103.261369 
L 468.096814 104.033077 
L 469.401695 102.949953 
L 470.706577 102.234751 
L 472.011459 100.939276 
L 473.31634 101.228219 
L 474.621222 101.273977 
L 475.926103 102.134343 
L 477.230985 101.405301 
L 478.535867 102.134102 
L 479.840748 101.502485 
L 481.14563 100.504887 
L 482.450512 100.975977 
L 483.755393 100.457845 
L 485.060275 105.173561 
L 486.365156 106.685357 
L 487.670038 106.094232 
L 490.279801 103.963492 
L 491.584683 105.725447 
L 492.889564 105.363212 
L 494.194446 105.295619 
L 495.499328 105.541939 
L 498.109091 103.545946 
L 498.109091 103.545946 
" style="fill:none;stroke:#4c72b0;stroke-linecap:round;stroke-width:2;"/>
   </g>
   <g id="patch_3">
    <path d="M 72 512.64 
L 72 69.12 
" style="fill:none;stroke:#ffffff;stroke-linecap:square;stroke-linejoin:miter;stroke-width:1.25;"/>
   </g>
   <g id="patch_4">
    <path d="M 518.4 512.64 
L 518.4 69.12 
" style="fill:none;stroke:#ffffff;stroke-linecap:square;stroke-linejoin:miter;stroke-width:1.25;"/>
   </g>
   <g id="patch_5">
    <path d="M 72 512.64 
L 518.4 512.64 
" style="fill:none;stroke:#ffffff;stroke-linecap:square;stroke-linejoin:miter;stroke-width:1.25;"/>
   </g>
   <g id="patch_6">
    <path d="M 72 69.12 
L 518.4 69.12 
" style="fill:none;stroke:#ffffff;stroke-linecap:square;stroke-linejoin:miter;stroke-width:1.25;"/>
   </g>
   <g id="text_21">
    <!-- ere -->
    <g style="fill:#262626;" transform="translate(284.361328 63.12)scale(0.15 -0.15)">
     <use xlink:href="#ArialMT-101"/>
     <use x="55.615234" xlink:href="#ArialMT-114"/>
     <use x="88.916016" xlink:href="#ArialMT-101"/>
    </g>
   </g>
   <g id="legend_1">
    <g id="patch_7">
     <path d="M 438.222656 505.14 
L 507.9 505.14 
Q 510.9 505.14 510.9 502.14 
L 510.9 482.422031 
Q 510.9 479.422031 507.9 479.422031 
L 438.222656 479.422031 
Q 435.222656 479.422031 435.222656 482.422031 
L 435.222656 502.14 
Q 435.222656 505.14 438.222656 505.14 
z
" style="fill:#eaeaf2;opacity:0.8;stroke:#cccccc;stroke-linejoin:miter;"/>
    </g>
    <g id="line2d_20">
     <path d="M 441.222656 490.90875 
L 471.222656 490.90875 
" style="fill:none;stroke:#4c72b0;stroke-linecap:round;stroke-width:2;"/>
    </g>
    <g id="line2d_21"/>
    <g id="text_22">
     <!-- ere -->
     <g style="fill:#262626;" transform="translate(483.222656 496.15875)scale(0.15 -0.15)">
      <use xlink:href="#ArialMT-101"/>
      <use x="55.615234" xlink:href="#ArialMT-114"/>
      <use x="88.916016" xlink:href="#ArialMT-101"/>
     </g>
    </g>
   </g>
  </g>
 </g>
 <defs>
  <clipPath id="p2e6998696a">
   <rect height="443.52" width="446.4" x="72" y="69.12"/>
  </clipPath>
 </defs>
</svg>
