<?xml version="1.0" encoding="utf-8" standalone="no"?>
<!DOCTYPE svg PUBLIC "-//W3C//DTD SVG 1.1//EN"
  "http://www.w3.org/Graphics/SVG/1.1/DTD/svg11.dtd">
<!-- Created with matplotlib (https://matplotlib.org/) -->
<svg height="576pt" version="1.1" viewBox="0 0 576 576" width="576pt" xmlns="http://www.w3.org/2000/svg" xmlns:xlink="http://www.w3.org/1999/xlink">
 <metadata>
  <rdf:RDF xmlns:cc="http://creativecommons.org/ns#" xmlns:dc="http://purl.org/dc/elements/1.1/" xmlns:rdf="http://www.w3.org/1999/02/22-rdf-syntax-ns#">
   <cc:Work>
    <dc:type rdf:resource="http://purl.org/dc/dcmitype/StillImage"/>
    <dc:date>2021-03-16T02:51:33.046324</dc:date>
    <dc:format>image/svg+xml</dc:format>
    <dc:creator>
     <cc:Agent>
      <dc:title>Matplotlib v3.3.2, https://matplotlib.org/</dc:title>
     </cc:Agent>
    </dc:creator>
   </cc:Work>
  </rdf:RDF>
 </metadata>
 <defs>
  <style type="text/css">*{stroke-linecap:butt;stroke-linejoin:round;}</style>
 </defs>
 <g id="figure_1">
  <g id="patch_1">
   <path d="M 0 576 
L 576 576 
L 576 0 
L 0 0 
z
" style="fill:none;"/>
  </g>
  <g id="axes_1">
   <g id="patch_2">
    <path d="M 72 504 
L 518.4 504 
L 518.4 69.12 
L 72 69.12 
z
" style="fill:#eaeaf2;"/>
   </g>
   <g id="matplotlib.axis_1">
    <g id="xtick_1">
     <g id="line2d_1">
      <path clip-path="url(#p9c6b7e3c47)" d="M 90.933658 504 
L 90.933658 69.12 
" style="fill:none;stroke:#ffffff;stroke-linecap:round;"/>
     </g>
     <g id="text_1">
      <!-- 0.0 -->
      <g style="fill:#262626;" transform="translate(80.508658 524.236719)scale(0.15 -0.15)">
       <defs>
        <path d="M 4.15625 35.296875 
Q 4.15625 48 6.765625 55.734375 
Q 9.375 63.484375 14.515625 67.671875 
Q 19.671875 71.875 27.484375 71.875 
Q 33.25 71.875 37.59375 69.546875 
Q 41.9375 67.234375 44.765625 62.859375 
Q 47.609375 58.5 49.21875 52.21875 
Q 50.828125 45.953125 50.828125 35.296875 
Q 50.828125 22.703125 48.234375 14.96875 
Q 45.65625 7.234375 40.5 3 
Q 35.359375 -1.21875 27.484375 -1.21875 
Q 17.140625 -1.21875 11.234375 6.203125 
Q 4.15625 15.140625 4.15625 35.296875 
z
M 13.1875 35.296875 
Q 13.1875 17.671875 17.3125 11.828125 
Q 21.4375 6 27.484375 6 
Q 33.546875 6 37.671875 11.859375 
Q 41.796875 17.71875 41.796875 35.296875 
Q 41.796875 52.984375 37.671875 58.78125 
Q 33.546875 64.59375 27.390625 64.59375 
Q 21.34375 64.59375 17.71875 59.46875 
Q 13.1875 52.9375 13.1875 35.296875 
z
" id="ArialMT-48"/>
        <path d="M 9.078125 0 
L 9.078125 10.015625 
L 19.09375 10.015625 
L 19.09375 0 
z
" id="ArialMT-46"/>
       </defs>
       <use xlink:href="#ArialMT-48"/>
       <use x="55.615234" xlink:href="#ArialMT-46"/>
       <use x="83.398438" xlink:href="#ArialMT-48"/>
      </g>
     </g>
    </g>
    <g id="xtick_2">
     <g id="line2d_2">
      <path clip-path="url(#p9c6b7e3c47)" d="M 158.79623 504 
L 158.79623 69.12 
" style="fill:none;stroke:#ffffff;stroke-linecap:round;"/>
     </g>
     <g id="text_2">
      <!-- 0.5 -->
      <g style="fill:#262626;" transform="translate(148.37123 524.236719)scale(0.15 -0.15)">
       <defs>
        <path d="M 4.15625 18.75 
L 13.375 19.53125 
Q 14.40625 12.796875 18.140625 9.390625 
Q 21.875 6 27.15625 6 
Q 33.5 6 37.890625 10.78125 
Q 42.28125 15.578125 42.28125 23.484375 
Q 42.28125 31 38.0625 35.34375 
Q 33.84375 39.703125 27 39.703125 
Q 22.75 39.703125 19.328125 37.765625 
Q 15.921875 35.84375 13.96875 32.765625 
L 5.71875 33.84375 
L 12.640625 70.609375 
L 48.25 70.609375 
L 48.25 62.203125 
L 19.671875 62.203125 
L 15.828125 42.96875 
Q 22.265625 47.46875 29.34375 47.46875 
Q 38.71875 47.46875 45.15625 40.96875 
Q 51.609375 34.46875 51.609375 24.265625 
Q 51.609375 14.546875 45.953125 7.46875 
Q 39.0625 -1.21875 27.15625 -1.21875 
Q 17.390625 -1.21875 11.203125 4.25 
Q 5.03125 9.71875 4.15625 18.75 
z
" id="ArialMT-53"/>
       </defs>
       <use xlink:href="#ArialMT-48"/>
       <use x="55.615234" xlink:href="#ArialMT-46"/>
       <use x="83.398438" xlink:href="#ArialMT-53"/>
      </g>
     </g>
    </g>
    <g id="xtick_3">
     <g id="line2d_3">
      <path clip-path="url(#p9c6b7e3c47)" d="M 226.658802 504 
L 226.658802 69.12 
" style="fill:none;stroke:#ffffff;stroke-linecap:round;"/>
     </g>
     <g id="text_3">
      <!-- 1.0 -->
      <g style="fill:#262626;" transform="translate(216.233802 524.236719)scale(0.15 -0.15)">
       <defs>
        <path d="M 37.25 0 
L 28.46875 0 
L 28.46875 56 
Q 25.296875 52.984375 20.140625 49.953125 
Q 14.984375 46.921875 10.890625 45.40625 
L 10.890625 53.90625 
Q 18.265625 57.375 23.78125 62.296875 
Q 29.296875 67.234375 31.59375 71.875 
L 37.25 71.875 
z
" id="ArialMT-49"/>
       </defs>
       <use xlink:href="#ArialMT-49"/>
       <use x="55.615234" xlink:href="#ArialMT-46"/>
       <use x="83.398438" xlink:href="#ArialMT-48"/>
      </g>
     </g>
    </g>
    <g id="xtick_4">
     <g id="line2d_4">
      <path clip-path="url(#p9c6b7e3c47)" d="M 294.521374 504 
L 294.521374 69.12 
" style="fill:none;stroke:#ffffff;stroke-linecap:round;"/>
     </g>
     <g id="text_4">
      <!-- 1.5 -->
      <g style="fill:#262626;" transform="translate(284.096374 524.236719)scale(0.15 -0.15)">
       <use xlink:href="#ArialMT-49"/>
       <use x="55.615234" xlink:href="#ArialMT-46"/>
       <use x="83.398438" xlink:href="#ArialMT-53"/>
      </g>
     </g>
    </g>
    <g id="xtick_5">
     <g id="line2d_5">
      <path clip-path="url(#p9c6b7e3c47)" d="M 362.383946 504 
L 362.383946 69.12 
" style="fill:none;stroke:#ffffff;stroke-linecap:round;"/>
     </g>
     <g id="text_5">
      <!-- 2.0 -->
      <g style="fill:#262626;" transform="translate(351.958946 524.236719)scale(0.15 -0.15)">
       <defs>
        <path d="M 50.34375 8.453125 
L 50.34375 0 
L 3.03125 0 
Q 2.9375 3.171875 4.046875 6.109375 
Q 5.859375 10.9375 9.828125 15.625 
Q 13.8125 20.3125 21.34375 26.46875 
Q 33.015625 36.03125 37.109375 41.625 
Q 41.21875 47.21875 41.21875 52.203125 
Q 41.21875 57.421875 37.46875 61 
Q 33.734375 64.59375 27.734375 64.59375 
Q 21.390625 64.59375 17.578125 60.78125 
Q 13.765625 56.984375 13.71875 50.25 
L 4.6875 51.171875 
Q 5.609375 61.28125 11.65625 66.578125 
Q 17.71875 71.875 27.9375 71.875 
Q 38.234375 71.875 44.234375 66.15625 
Q 50.25 60.453125 50.25 52 
Q 50.25 47.703125 48.484375 43.546875 
Q 46.734375 39.40625 42.65625 34.8125 
Q 38.578125 30.21875 29.109375 22.21875 
Q 21.1875 15.578125 18.9375 13.203125 
Q 16.703125 10.84375 15.234375 8.453125 
z
" id="ArialMT-50"/>
       </defs>
       <use xlink:href="#ArialMT-50"/>
       <use x="55.615234" xlink:href="#ArialMT-46"/>
       <use x="83.398438" xlink:href="#ArialMT-48"/>
      </g>
     </g>
    </g>
    <g id="xtick_6">
     <g id="line2d_6">
      <path clip-path="url(#p9c6b7e3c47)" d="M 430.246519 504 
L 430.246519 69.12 
" style="fill:none;stroke:#ffffff;stroke-linecap:round;"/>
     </g>
     <g id="text_6">
      <!-- 2.5 -->
      <g style="fill:#262626;" transform="translate(419.821519 524.236719)scale(0.15 -0.15)">
       <use xlink:href="#ArialMT-50"/>
       <use x="55.615234" xlink:href="#ArialMT-46"/>
       <use x="83.398438" xlink:href="#ArialMT-53"/>
      </g>
     </g>
    </g>
    <g id="xtick_7">
     <g id="line2d_7">
      <path clip-path="url(#p9c6b7e3c47)" d="M 498.109091 504 
L 498.109091 69.12 
" style="fill:none;stroke:#ffffff;stroke-linecap:round;"/>
     </g>
     <g id="text_7">
      <!-- 3.0 -->
      <g style="fill:#262626;" transform="translate(487.684091 524.236719)scale(0.15 -0.15)">
       <defs>
        <path d="M 4.203125 18.890625 
L 12.984375 20.0625 
Q 14.5 12.59375 18.140625 9.296875 
Q 21.78125 6 27 6 
Q 33.203125 6 37.46875 10.296875 
Q 41.75 14.59375 41.75 20.953125 
Q 41.75 27 37.796875 30.921875 
Q 33.84375 34.859375 27.734375 34.859375 
Q 25.25 34.859375 21.53125 33.890625 
L 22.515625 41.609375 
Q 23.390625 41.5 23.921875 41.5 
Q 29.546875 41.5 34.03125 44.421875 
Q 38.53125 47.359375 38.53125 53.46875 
Q 38.53125 58.296875 35.25 61.46875 
Q 31.984375 64.65625 26.8125 64.65625 
Q 21.6875 64.65625 18.265625 61.421875 
Q 14.84375 58.203125 13.875 51.765625 
L 5.078125 53.328125 
Q 6.6875 62.15625 12.390625 67.015625 
Q 18.109375 71.875 26.609375 71.875 
Q 32.46875 71.875 37.390625 69.359375 
Q 42.328125 66.84375 44.9375 62.5 
Q 47.5625 58.15625 47.5625 53.265625 
Q 47.5625 48.640625 45.0625 44.828125 
Q 42.578125 41.015625 37.703125 38.765625 
Q 44.046875 37.3125 47.5625 32.6875 
Q 51.078125 28.078125 51.078125 21.140625 
Q 51.078125 11.765625 44.234375 5.25 
Q 37.40625 -1.265625 26.953125 -1.265625 
Q 17.53125 -1.265625 11.296875 4.34375 
Q 5.078125 9.96875 4.203125 18.890625 
z
" id="ArialMT-51"/>
       </defs>
       <use xlink:href="#ArialMT-51"/>
       <use x="55.615234" xlink:href="#ArialMT-46"/>
       <use x="83.398438" xlink:href="#ArialMT-48"/>
      </g>
     </g>
    </g>
    <g id="text_8">
     <!-- Episodes -->
     <g style="fill:#262626;" transform="translate(262.29125 542.670469)scale(0.16 -0.16)">
      <defs>
       <path d="M 7.90625 0 
L 7.90625 71.578125 
L 59.671875 71.578125 
L 59.671875 63.140625 
L 17.390625 63.140625 
L 17.390625 41.21875 
L 56.984375 41.21875 
L 56.984375 32.8125 
L 17.390625 32.8125 
L 17.390625 8.453125 
L 61.328125 8.453125 
L 61.328125 0 
z
" id="ArialMT-69"/>
       <path d="M 6.59375 -19.875 
L 6.59375 51.859375 
L 14.59375 51.859375 
L 14.59375 45.125 
Q 17.4375 49.078125 21 51.046875 
Q 24.5625 53.03125 29.640625 53.03125 
Q 36.28125 53.03125 41.359375 49.609375 
Q 46.4375 46.1875 49.015625 39.953125 
Q 51.609375 33.734375 51.609375 26.3125 
Q 51.609375 18.359375 48.75 11.984375 
Q 45.90625 5.609375 40.453125 2.21875 
Q 35.015625 -1.171875 29 -1.171875 
Q 24.609375 -1.171875 21.109375 0.6875 
Q 17.625 2.546875 15.375 5.375 
L 15.375 -19.875 
z
M 14.546875 25.640625 
Q 14.546875 15.625 18.59375 10.84375 
Q 22.65625 6.0625 28.421875 6.0625 
Q 34.28125 6.0625 38.453125 11.015625 
Q 42.625 15.96875 42.625 26.375 
Q 42.625 36.28125 38.546875 41.203125 
Q 34.46875 46.140625 28.8125 46.140625 
Q 23.1875 46.140625 18.859375 40.890625 
Q 14.546875 35.640625 14.546875 25.640625 
z
" id="ArialMT-112"/>
       <path d="M 6.640625 61.46875 
L 6.640625 71.578125 
L 15.4375 71.578125 
L 15.4375 61.46875 
z
M 6.640625 0 
L 6.640625 51.859375 
L 15.4375 51.859375 
L 15.4375 0 
z
" id="ArialMT-105"/>
       <path d="M 3.078125 15.484375 
L 11.765625 16.84375 
Q 12.5 11.625 15.84375 8.84375 
Q 19.1875 6.0625 25.203125 6.0625 
Q 31.25 6.0625 34.171875 8.515625 
Q 37.109375 10.984375 37.109375 14.3125 
Q 37.109375 17.28125 34.515625 19 
Q 32.71875 20.171875 25.53125 21.96875 
Q 15.875 24.421875 12.140625 26.203125 
Q 8.40625 27.984375 6.46875 31.125 
Q 4.546875 34.28125 4.546875 38.09375 
Q 4.546875 41.546875 6.125 44.5 
Q 7.71875 47.46875 10.453125 49.421875 
Q 12.5 50.921875 16.03125 51.96875 
Q 19.578125 53.03125 23.640625 53.03125 
Q 29.734375 53.03125 34.34375 51.265625 
Q 38.96875 49.515625 41.15625 46.5 
Q 43.359375 43.5 44.1875 38.484375 
L 35.59375 37.3125 
Q 35.015625 41.3125 32.203125 43.546875 
Q 29.390625 45.796875 24.265625 45.796875 
Q 18.21875 45.796875 15.625 43.796875 
Q 13.03125 41.796875 13.03125 39.109375 
Q 13.03125 37.40625 14.109375 36.03125 
Q 15.1875 34.625 17.484375 33.6875 
Q 18.796875 33.203125 25.25 31.453125 
Q 34.578125 28.953125 38.25 27.359375 
Q 41.9375 25.78125 44.03125 22.75 
Q 46.140625 19.734375 46.140625 15.234375 
Q 46.140625 10.84375 43.578125 6.953125 
Q 41.015625 3.078125 36.171875 0.953125 
Q 31.34375 -1.171875 25.25 -1.171875 
Q 15.140625 -1.171875 9.84375 3.03125 
Q 4.546875 7.234375 3.078125 15.484375 
z
" id="ArialMT-115"/>
       <path d="M 3.328125 25.921875 
Q 3.328125 40.328125 11.328125 47.265625 
Q 18.015625 53.03125 27.640625 53.03125 
Q 38.328125 53.03125 45.109375 46.015625 
Q 51.90625 39.015625 51.90625 26.65625 
Q 51.90625 16.65625 48.90625 10.90625 
Q 45.90625 5.171875 40.15625 2 
Q 34.421875 -1.171875 27.640625 -1.171875 
Q 16.75 -1.171875 10.03125 5.8125 
Q 3.328125 12.796875 3.328125 25.921875 
z
M 12.359375 25.921875 
Q 12.359375 15.96875 16.703125 11.015625 
Q 21.046875 6.0625 27.640625 6.0625 
Q 34.1875 6.0625 38.53125 11.03125 
Q 42.875 16.015625 42.875 26.21875 
Q 42.875 35.84375 38.5 40.796875 
Q 34.125 45.75 27.640625 45.75 
Q 21.046875 45.75 16.703125 40.8125 
Q 12.359375 35.890625 12.359375 25.921875 
z
" id="ArialMT-111"/>
       <path d="M 40.234375 0 
L 40.234375 6.546875 
Q 35.296875 -1.171875 25.734375 -1.171875 
Q 19.53125 -1.171875 14.328125 2.25 
Q 9.125 5.671875 6.265625 11.796875 
Q 3.421875 17.921875 3.421875 25.875 
Q 3.421875 33.640625 6 39.96875 
Q 8.59375 46.296875 13.765625 49.65625 
Q 18.953125 53.03125 25.34375 53.03125 
Q 30.03125 53.03125 33.6875 51.046875 
Q 37.359375 49.078125 39.65625 45.90625 
L 39.65625 71.578125 
L 48.390625 71.578125 
L 48.390625 0 
z
M 12.453125 25.875 
Q 12.453125 15.921875 16.640625 10.984375 
Q 20.84375 6.0625 26.5625 6.0625 
Q 32.328125 6.0625 36.34375 10.765625 
Q 40.375 15.484375 40.375 25.140625 
Q 40.375 35.796875 36.265625 40.765625 
Q 32.171875 45.75 26.171875 45.75 
Q 20.3125 45.75 16.375 40.96875 
Q 12.453125 36.1875 12.453125 25.875 
z
" id="ArialMT-100"/>
       <path d="M 42.09375 16.703125 
L 51.171875 15.578125 
Q 49.03125 7.625 43.21875 3.21875 
Q 37.40625 -1.171875 28.375 -1.171875 
Q 17 -1.171875 10.328125 5.828125 
Q 3.65625 12.84375 3.65625 25.484375 
Q 3.65625 38.578125 10.390625 45.796875 
Q 17.140625 53.03125 27.875 53.03125 
Q 38.28125 53.03125 44.875 45.953125 
Q 51.46875 38.875 51.46875 26.03125 
Q 51.46875 25.25 51.421875 23.6875 
L 12.75 23.6875 
Q 13.234375 15.140625 17.578125 10.59375 
Q 21.921875 6.0625 28.421875 6.0625 
Q 33.25 6.0625 36.671875 8.59375 
Q 40.09375 11.140625 42.09375 16.703125 
z
M 13.234375 30.90625 
L 42.1875 30.90625 
Q 41.609375 37.453125 38.875 40.71875 
Q 34.671875 45.796875 27.984375 45.796875 
Q 21.921875 45.796875 17.796875 41.75 
Q 13.671875 37.703125 13.234375 30.90625 
z
" id="ArialMT-101"/>
      </defs>
      <use xlink:href="#ArialMT-69"/>
      <use x="66.699219" xlink:href="#ArialMT-112"/>
      <use x="122.314453" xlink:href="#ArialMT-105"/>
      <use x="144.53125" xlink:href="#ArialMT-115"/>
      <use x="194.53125" xlink:href="#ArialMT-111"/>
      <use x="250.146484" xlink:href="#ArialMT-100"/>
      <use x="305.761719" xlink:href="#ArialMT-101"/>
      <use x="361.376953" xlink:href="#ArialMT-115"/>
     </g>
    </g>
    <g id="text_9">
     <!-- 1e3 -->
     <g style="fill:#262626;" transform="translate(500.048906 538.091563)scale(0.11 -0.11)">
      <use xlink:href="#ArialMT-49"/>
      <use x="55.615234" xlink:href="#ArialMT-101"/>
      <use x="111.230469" xlink:href="#ArialMT-51"/>
     </g>
    </g>
   </g>
   <g id="matplotlib.axis_2">
    <g id="ytick_1">
     <g id="line2d_8">
      <path clip-path="url(#p9c6b7e3c47)" d="M 72 504 
L 518.4 504 
" style="fill:none;stroke:#ffffff;stroke-linecap:round;"/>
     </g>
     <g id="text_10">
      <!-- −200 -->
      <g style="fill:#262626;" transform="translate(28.714844 509.368359)scale(0.15 -0.15)">
       <defs>
        <path d="M 52.828125 31.203125 
L 5.5625 31.203125 
L 5.5625 39.40625 
L 52.828125 39.40625 
z
" id="ArialMT-8722"/>
       </defs>
       <use xlink:href="#ArialMT-8722"/>
       <use x="58.398438" xlink:href="#ArialMT-50"/>
       <use x="114.013672" xlink:href="#ArialMT-48"/>
       <use x="169.628906" xlink:href="#ArialMT-48"/>
      </g>
     </g>
    </g>
    <g id="ytick_2">
     <g id="line2d_9">
      <path clip-path="url(#p9c6b7e3c47)" d="M 72 347.948997 
L 518.4 347.948997 
" style="fill:none;stroke:#ffffff;stroke-linecap:round;"/>
     </g>
     <g id="text_11">
      <!-- 0 -->
      <g style="fill:#262626;" transform="translate(54.158594 353.317357)scale(0.15 -0.15)">
       <use xlink:href="#ArialMT-48"/>
      </g>
     </g>
    </g>
    <g id="ytick_3">
     <g id="line2d_10">
      <path clip-path="url(#p9c6b7e3c47)" d="M 72 191.897995 
L 518.4 191.897995 
" style="fill:none;stroke:#ffffff;stroke-linecap:round;"/>
     </g>
     <g id="text_12">
      <!-- 200 -->
      <g style="fill:#262626;" transform="translate(37.475781 197.266354)scale(0.15 -0.15)">
       <use xlink:href="#ArialMT-50"/>
       <use x="55.615234" xlink:href="#ArialMT-48"/>
       <use x="111.230469" xlink:href="#ArialMT-48"/>
      </g>
     </g>
    </g>
    <g id="ytick_4">
     <g id="line2d_11">
      <path clip-path="url(#p9c6b7e3c47)" d="M 72 115.155861 
L 518.4 115.155861 
" style="fill:none;stroke:#ffffff;stroke-linecap:round;"/>
     </g>
     <g id="text_13">
      <!-- 298 -->
      <g style="fill:#262626;" transform="translate(37.475781 120.524221)scale(0.15 -0.15)">
       <defs>
        <path d="M 5.46875 16.546875 
L 13.921875 17.328125 
Q 14.984375 11.375 18.015625 8.6875 
Q 21.046875 6 25.78125 6 
Q 29.828125 6 32.875 7.859375 
Q 35.9375 9.71875 37.890625 12.8125 
Q 39.84375 15.921875 41.15625 21.1875 
Q 42.484375 26.46875 42.484375 31.9375 
Q 42.484375 32.515625 42.4375 33.6875 
Q 39.796875 29.5 35.234375 26.875 
Q 30.671875 24.265625 25.34375 24.265625 
Q 16.453125 24.265625 10.296875 30.703125 
Q 4.15625 37.15625 4.15625 47.703125 
Q 4.15625 58.59375 10.578125 65.234375 
Q 17 71.875 26.65625 71.875 
Q 33.640625 71.875 39.421875 68.109375 
Q 45.21875 64.359375 48.21875 57.390625 
Q 51.21875 50.4375 51.21875 37.25 
Q 51.21875 23.53125 48.234375 15.40625 
Q 45.265625 7.28125 39.375 3.03125 
Q 33.5 -1.21875 25.59375 -1.21875 
Q 17.1875 -1.21875 11.859375 3.4375 
Q 6.546875 8.109375 5.46875 16.546875 
z
M 41.453125 48.140625 
Q 41.453125 55.71875 37.421875 60.15625 
Q 33.40625 64.59375 27.734375 64.59375 
Q 21.875 64.59375 17.53125 59.8125 
Q 13.1875 55.03125 13.1875 47.40625 
Q 13.1875 40.578125 17.3125 36.296875 
Q 21.4375 32.03125 27.484375 32.03125 
Q 33.59375 32.03125 37.515625 36.296875 
Q 41.453125 40.578125 41.453125 48.140625 
z
" id="ArialMT-57"/>
        <path d="M 17.671875 38.8125 
Q 12.203125 40.828125 9.5625 44.53125 
Q 6.9375 48.25 6.9375 53.421875 
Q 6.9375 61.234375 12.546875 66.546875 
Q 18.171875 71.875 27.484375 71.875 
Q 36.859375 71.875 42.578125 66.421875 
Q 48.296875 60.984375 48.296875 53.171875 
Q 48.296875 48.1875 45.671875 44.5 
Q 43.0625 40.828125 37.75 38.8125 
Q 44.34375 36.671875 47.78125 31.875 
Q 51.21875 27.09375 51.21875 20.453125 
Q 51.21875 11.28125 44.71875 5.03125 
Q 38.234375 -1.21875 27.640625 -1.21875 
Q 17.046875 -1.21875 10.546875 5.046875 
Q 4.046875 11.328125 4.046875 20.703125 
Q 4.046875 27.6875 7.59375 32.390625 
Q 11.140625 37.109375 17.671875 38.8125 
z
M 15.921875 53.71875 
Q 15.921875 48.640625 19.1875 45.40625 
Q 22.46875 42.1875 27.6875 42.1875 
Q 32.765625 42.1875 36.015625 45.375 
Q 39.265625 48.578125 39.265625 53.21875 
Q 39.265625 58.0625 35.90625 61.359375 
Q 32.5625 64.65625 27.59375 64.65625 
Q 22.5625 64.65625 19.234375 61.421875 
Q 15.921875 58.203125 15.921875 53.71875 
z
M 13.09375 20.65625 
Q 13.09375 16.890625 14.875 13.375 
Q 16.65625 9.859375 20.171875 7.921875 
Q 23.6875 6 27.734375 6 
Q 34.03125 6 38.125 10.046875 
Q 42.234375 14.109375 42.234375 20.359375 
Q 42.234375 26.703125 38.015625 30.859375 
Q 33.796875 35.015625 27.4375 35.015625 
Q 21.234375 35.015625 17.15625 30.90625 
Q 13.09375 26.8125 13.09375 20.65625 
z
" id="ArialMT-56"/>
       </defs>
       <use xlink:href="#ArialMT-50"/>
       <use x="55.615234" xlink:href="#ArialMT-57"/>
       <use x="111.230469" xlink:href="#ArialMT-56"/>
      </g>
     </g>
    </g>
    <g id="text_14">
     <!-- avg reward -->
     <g style="fill:#262626;" transform="translate(21.347344 326.13125)rotate(-90)scale(0.16 -0.16)">
      <defs>
       <path d="M 40.4375 6.390625 
Q 35.546875 2.25 31.03125 0.53125 
Q 26.515625 -1.171875 21.34375 -1.171875 
Q 12.796875 -1.171875 8.203125 3 
Q 3.609375 7.171875 3.609375 13.671875 
Q 3.609375 17.484375 5.34375 20.625 
Q 7.078125 23.78125 9.890625 25.6875 
Q 12.703125 27.59375 16.21875 28.5625 
Q 18.796875 29.25 24.03125 29.890625 
Q 34.671875 31.15625 39.703125 32.90625 
Q 39.75 34.71875 39.75 35.203125 
Q 39.75 40.578125 37.25 42.78125 
Q 33.890625 45.75 27.25 45.75 
Q 21.046875 45.75 18.09375 43.578125 
Q 15.140625 41.40625 13.71875 35.890625 
L 5.125 37.0625 
Q 6.296875 42.578125 8.984375 45.96875 
Q 11.671875 49.359375 16.75 51.1875 
Q 21.828125 53.03125 28.515625 53.03125 
Q 35.15625 53.03125 39.296875 51.46875 
Q 43.453125 49.90625 45.40625 47.53125 
Q 47.359375 45.171875 48.140625 41.546875 
Q 48.578125 39.3125 48.578125 33.453125 
L 48.578125 21.734375 
Q 48.578125 9.46875 49.140625 6.21875 
Q 49.703125 2.984375 51.375 0 
L 42.1875 0 
Q 40.828125 2.734375 40.4375 6.390625 
z
M 39.703125 26.03125 
Q 34.90625 24.078125 25.34375 22.703125 
Q 19.921875 21.921875 17.671875 20.9375 
Q 15.4375 19.96875 14.203125 18.09375 
Q 12.984375 16.21875 12.984375 13.921875 
Q 12.984375 10.40625 15.640625 8.0625 
Q 18.3125 5.71875 23.4375 5.71875 
Q 28.515625 5.71875 32.46875 7.9375 
Q 36.421875 10.15625 38.28125 14.015625 
Q 39.703125 17 39.703125 22.796875 
z
" id="ArialMT-97"/>
       <path d="M 21 0 
L 1.265625 51.859375 
L 10.546875 51.859375 
L 21.6875 20.796875 
Q 23.484375 15.765625 25 10.359375 
Q 26.171875 14.453125 28.265625 20.21875 
L 39.796875 51.859375 
L 48.828125 51.859375 
L 29.203125 0 
z
" id="ArialMT-118"/>
       <path d="M 4.984375 -4.296875 
L 13.53125 -5.5625 
Q 14.0625 -9.515625 16.5 -11.328125 
Q 19.78125 -13.765625 25.4375 -13.765625 
Q 31.546875 -13.765625 34.859375 -11.328125 
Q 38.1875 -8.890625 39.359375 -4.5 
Q 40.046875 -1.8125 39.984375 6.78125 
Q 34.234375 0 25.640625 0 
Q 14.9375 0 9.078125 7.71875 
Q 3.21875 15.4375 3.21875 26.21875 
Q 3.21875 33.640625 5.90625 39.90625 
Q 8.59375 46.1875 13.6875 49.609375 
Q 18.796875 53.03125 25.6875 53.03125 
Q 34.859375 53.03125 40.828125 45.609375 
L 40.828125 51.859375 
L 48.921875 51.859375 
L 48.921875 7.03125 
Q 48.921875 -5.078125 46.453125 -10.125 
Q 44 -15.1875 38.640625 -18.109375 
Q 33.296875 -21.046875 25.484375 -21.046875 
Q 16.21875 -21.046875 10.5 -16.875 
Q 4.78125 -12.703125 4.984375 -4.296875 
z
M 12.25 26.859375 
Q 12.25 16.65625 16.296875 11.96875 
Q 20.359375 7.28125 26.46875 7.28125 
Q 32.515625 7.28125 36.609375 11.9375 
Q 40.71875 16.609375 40.71875 26.5625 
Q 40.71875 36.078125 36.5 40.90625 
Q 32.28125 45.75 26.3125 45.75 
Q 20.453125 45.75 16.34375 40.984375 
Q 12.25 36.234375 12.25 26.859375 
z
" id="ArialMT-103"/>
       <path id="ArialMT-32"/>
       <path d="M 6.5 0 
L 6.5 51.859375 
L 14.40625 51.859375 
L 14.40625 44 
Q 17.4375 49.515625 20 51.265625 
Q 22.5625 53.03125 25.640625 53.03125 
Q 30.078125 53.03125 34.671875 50.203125 
L 31.640625 42.046875 
Q 28.421875 43.953125 25.203125 43.953125 
Q 22.3125 43.953125 20.015625 42.21875 
Q 17.71875 40.484375 16.75 37.40625 
Q 15.28125 32.71875 15.28125 27.15625 
L 15.28125 0 
z
" id="ArialMT-114"/>
       <path d="M 16.15625 0 
L 0.296875 51.859375 
L 9.375 51.859375 
L 17.625 21.921875 
L 20.703125 10.796875 
Q 20.90625 11.625 23.390625 21.484375 
L 31.640625 51.859375 
L 40.671875 51.859375 
L 48.4375 21.78125 
L 51.03125 11.859375 
L 54 21.875 
L 62.890625 51.859375 
L 71.4375 51.859375 
L 55.21875 0 
L 46.09375 0 
L 37.84375 31.0625 
L 35.84375 39.890625 
L 25.34375 0 
z
" id="ArialMT-119"/>
      </defs>
      <use xlink:href="#ArialMT-97"/>
      <use x="55.615234" xlink:href="#ArialMT-118"/>
      <use x="105.615234" xlink:href="#ArialMT-103"/>
      <use x="161.230469" xlink:href="#ArialMT-32"/>
      <use x="189.013672" xlink:href="#ArialMT-114"/>
      <use x="222.314453" xlink:href="#ArialMT-101"/>
      <use x="277.929688" xlink:href="#ArialMT-119"/>
      <use x="350.146484" xlink:href="#ArialMT-97"/>
      <use x="405.761719" xlink:href="#ArialMT-114"/>
      <use x="439.0625" xlink:href="#ArialMT-100"/>
     </g>
    </g>
   </g>
   <g id="line2d_12">
    <path clip-path="url(#p9c6b7e3c47)" d="M 95.423585 577 
L 96.362663 527.785884 
L 97.719915 517.190067 
L 99.077166 530.588521 
L 100.434418 564.455405 
L 101.791669 406.934477 
L 103.148921 457.470163 
L 104.506172 419.367101 
L 105.863424 345.43806 
L 107.220675 417.676824 
L 108.577926 246.401181 
L 109.935178 250.211121 
L 111.292429 195.783114 
L 112.649681 235.261581 
L 114.006932 221.784145 
L 115.364184 394.502913 
L 116.721435 233.160169 
L 118.078687 190.36151 
L 119.435938 191.773496 
L 120.793189 174.39319 
L 122.150441 154.713848 
L 123.507692 272.943472 
L 124.864944 249.654034 
L 127.579447 180.380125 
L 128.936698 176.136548 
L 130.29395 244.771499 
L 131.651201 238.220624 
L 133.008452 281.954813 
L 134.365704 256.75958 
L 135.722955 170.53287 
L 137.080207 194.612648 
L 138.437458 222.43477 
L 139.79471 206.959252 
L 141.151961 184.430996 
L 142.509213 178.751145 
L 143.866464 283.075233 
L 145.223715 171.718909 
L 146.580967 165.069466 
L 147.938218 223.541183 
L 149.29547 193.44492 
L 150.652721 213.603016 
L 152.009973 177.884836 
L 153.367224 225.376168 
L 154.724476 172.470828 
L 156.081727 196.469325 
L 157.438978 229.200735 
L 158.79623 156.755897 
L 161.510733 225.64425 
L 162.867984 202.792765 
L 164.225236 168.194772 
L 165.582487 203.284544 
L 166.939739 205.638191 
L 168.29699 166.866293 
L 169.654241 195.676676 
L 171.011493 162.328311 
L 172.368744 162.127449 
L 173.725996 223.07093 
L 175.083247 217.327038 
L 176.440499 257.459358 
L 177.79775 185.172093 
L 179.155002 255.343022 
L 180.512253 219.971781 
L 181.869504 214.469112 
L 183.226756 326.815156 
L 185.941259 172.446862 
L 187.29851 216.057945 
L 188.655762 245.908224 
L 190.013013 171.331996 
L 191.370265 189.67393 
L 192.727516 202.811981 
L 194.084767 169.905652 
L 195.442019 159.84382 
L 196.79927 202.357717 
L 198.156522 227.206832 
L 199.513773 231.744969 
L 200.871025 246.422243 
L 202.228276 216.771683 
L 203.585528 150.513453 
L 204.942779 187.612831 
L 206.30003 165.127435 
L 207.657282 217.551807 
L 209.014533 176.7621 
L 210.371785 183.115197 
L 211.729036 182.140878 
L 213.086288 221.575854 
L 214.443539 173.349663 
L 215.800791 189.406539 
L 217.158042 190.874219 
L 218.515293 208.170698 
L 219.872545 153.257834 
L 221.229796 147.161366 
L 222.587048 217.850939 
L 223.944299 134.270085 
L 225.301551 140.276963 
L 226.658802 164.470131 
L 228.016054 146.012152 
L 229.373305 307.579218 
L 230.730556 143.12427 
L 232.087808 144.704758 
L 233.445059 144.099303 
L 234.802311 150.091287 
L 236.159562 154.066163 
L 237.516814 175.258428 
L 238.874065 282.635262 
L 240.231317 173.254095 
L 241.588568 148.583769 
L 242.945819 166.789406 
L 244.303071 165.873175 
L 245.660322 139.515567 
L 247.017574 236.213612 
L 248.374825 161.042871 
L 249.732077 129.768213 
L 251.089328 155.862752 
L 252.44658 165.844435 
L 253.803831 234.940221 
L 255.161082 207.05101 
L 256.518334 167.297376 
L 257.875585 169.077202 
L 259.232837 391.004722 
L 260.590088 181.492324 
L 261.94734 185.040904 
L 263.304591 194.490019 
L 264.661843 233.748861 
L 266.019094 231.734516 
L 267.376345 128.848184 
L 268.733597 202.701114 
L 270.090848 184.441104 
L 271.4481 141.705438 
L 272.805351 359.873955 
L 273.905973 577 
M 274.323025 577 
L 275.519854 199.299297 
L 276.877106 248.280884 
L 278.234357 154.192662 
L 279.591608 205.430007 
L 280.94886 175.989036 
L 282.306111 198.942863 
L 283.663363 214.072769 
L 285.020614 131.295839 
L 286.377866 137.387557 
L 287.735117 135.053245 
L 289.092369 128.541088 
L 290.44962 187.786202 
L 291.806871 148.568565 
L 293.164123 139.435798 
L 294.521374 135.381368 
L 295.878626 145.655265 
L 297.235877 131.63201 
L 298.593129 144.256649 
L 299.95038 304.559763 
L 301.307631 147.776798 
L 302.664883 147.265327 
L 304.022134 159.128534 
L 305.379386 162.495979 
L 306.736637 150.068737 
L 308.093889 193.618732 
L 309.45114 151.489629 
L 310.808392 146.971421 
L 312.165643 135.920198 
L 313.522894 180.934243 
L 314.880146 205.415506 
L 316.237397 282.974665 
L 317.594649 179.483777 
L 318.9519 190.109823 
L 320.309152 146.941824 
L 321.666403 133.012457 
L 323.023655 161.715284 
L 324.380906 141.446322 
L 325.738157 141.958816 
L 327.095409 151.272289 
L 328.45266 133.669369 
L 329.809912 136.761244 
L 331.167163 151.537561 
L 332.524415 129.554433 
L 333.881666 140.103472 
L 335.238918 128.820587 
L 336.596169 129.472236 
L 337.95342 142.570653 
L 339.310672 174.760232 
L 340.667923 132.313947 
L 342.025175 158.386044 
L 343.382426 148.120636 
L 344.739678 152.851313 
L 346.096929 135.128204 
L 347.454181 232.774792 
L 348.811432 133.432825 
L 350.168683 135.848263 
L 351.525935 132.377167 
L 352.883186 153.889827 
L 354.240438 163.880618 
L 355.597689 136.52551 
L 356.954941 136.922281 
L 358.312192 139.103604 
L 359.669444 140.27082 
L 361.026695 195.958783 
L 362.383946 143.201514 
L 363.741198 158.489112 
L 365.098449 155.572169 
L 366.455701 172.939927 
L 367.812952 132.128837 
L 369.170204 135.905339 
L 370.527455 128.879616 
L 371.884707 143.696032 
L 373.241958 154.086022 
L 374.599209 120.319908 
L 375.956461 125.180024 
L 377.313712 130.87909 
L 378.670964 173.294527 
L 380.028215 158.641303 
L 381.385467 173.392595 
L 382.742718 153.728302 
L 384.09997 139.530306 
L 385.457221 148.153186 
L 386.814472 187.52955 
L 388.171724 135.667177 
L 389.528975 222.643573 
L 392.243478 145.301093 
L 393.60073 180.853641 
L 394.957981 163.818124 
L 396.315233 137.141251 
L 397.672484 168.423732 
L 399.029735 144.649229 
L 400.386987 165.407125 
L 401.744238 135.912673 
L 403.10149 147.800371 
L 404.458741 133.699157 
L 405.815993 166.596116 
L 407.173244 130.154911 
L 408.530496 157.215209 
L 409.887747 132.963763 
L 411.244998 156.123238 
L 412.60225 128.324189 
L 413.959501 147.102147 
L 415.316753 131.48095 
L 416.674004 130.673002 
L 418.031256 144.581819 
L 419.388507 126.109482 
L 420.745759 129.990184 
L 422.10301 138.257605 
L 423.460261 138.985547 
L 426.174764 130.305853 
L 427.532016 133.296028 
L 428.889267 132.807059 
L 430.246519 125.877439 
L 431.60377 144.063991 
L 432.961022 138.135953 
L 434.318273 137.066483 
L 435.675524 118.130393 
L 437.032776 177.256272 
L 438.390027 127.673063 
L 439.747279 133.932414 
L 441.10453 126.535969 
L 442.461782 127.67704 
L 443.819033 156.571454 
L 445.176285 167.682015 
L 446.533536 177.461467 
L 447.890787 132.577517 
L 449.248039 203.029022 
L 450.60529 140.118021 
L 451.962542 129.431852 
L 453.319793 132.952976 
L 454.677045 133.15835 
L 456.034296 124.44301 
L 458.748799 134.980168 
L 460.10605 129.541718 
L 461.463302 193.738135 
L 462.820553 165.452748 
L 464.177805 131.726994 
L 465.535056 151.209915 
L 466.892308 125.102017 
L 468.249559 132.128146 
L 469.606811 143.25459 
L 470.964062 126.620572 
L 472.321313 134.368712 
L 473.678565 138.805008 
L 475.035816 152.233142 
L 476.393068 125.962017 
L 477.750319 130.731554 
L 479.107571 168.191689 
L 480.464822 141.188205 
L 481.822074 122.74356 
L 483.179325 151.970049 
L 484.536576 124.195514 
L 485.893828 128.251706 
L 487.251079 118.067959 
L 488.608331 140.799149 
L 489.965582 137.451015 
L 491.322834 150.250109 
L 492.680085 126.761155 
L 494.037337 148.399694 
L 495.394588 128.282947 
L 496.751839 121.57794 
L 498.109091 142.966352 
L 498.109091 142.966352 
" style="fill:none;stroke:#4c72b0;stroke-linecap:round;stroke-opacity:0.3;stroke-width:1.5;"/>
   </g>
   <g id="line2d_13">
    <path clip-path="url(#p9c6b7e3c47)" d="M 105.437764 577 
L 105.863424 569.202588 
L 107.220675 554.050012 
L 108.577926 523.285129 
L 109.935178 495.977728 
L 111.292429 465.958267 
L 114.006932 420.778153 
L 115.364184 418.150629 
L 116.721435 399.651583 
L 118.078687 378.722576 
L 122.150441 322.789183 
L 123.507692 317.804612 
L 124.864944 310.989554 
L 126.222195 301.38659 
L 128.936698 277.971004 
L 130.29395 274.651053 
L 131.651201 271.00801 
L 133.008452 272.102691 
L 134.365704 270.56838 
L 135.722955 260.564829 
L 137.080207 253.969611 
L 138.437458 250.816127 
L 139.79471 246.430439 
L 142.509213 234.08256 
L 143.866464 238.981827 
L 146.580967 225.536928 
L 147.938218 225.337354 
L 149.29547 222.14811 
L 150.652721 221.293601 
L 152.009973 216.952725 
L 153.367224 217.795069 
L 154.724476 213.262645 
L 156.081727 211.583313 
L 157.438978 213.345055 
L 158.79623 207.686139 
L 160.153481 205.908188 
L 161.510733 207.881794 
L 162.867984 207.372891 
L 164.225236 203.455079 
L 165.582487 203.438026 
L 166.939739 203.658042 
L 168.29699 199.978867 
L 169.654241 199.548648 
L 171.011493 195.826615 
L 172.368744 192.456698 
L 173.725996 195.518121 
L 175.083247 197.699013 
L 176.440499 203.675047 
L 177.79775 201.824752 
L 179.155002 207.176579 
L 180.512253 208.456099 
L 181.869504 209.0574 
L 183.226756 220.833176 
L 184.584007 223.61678 
L 185.941259 218.499789 
L 187.29851 218.255604 
L 188.655762 221.020866 
L 190.013013 216.051979 
L 191.370265 213.414174 
L 192.727516 212.353955 
L 194.084767 208.109125 
L 195.442019 203.282594 
L 196.79927 203.190106 
L 199.513773 208.207098 
L 200.871025 212.028612 
L 202.228276 212.502919 
L 203.585528 206.303973 
L 204.942779 204.434859 
L 206.30003 200.504116 
L 207.657282 202.208885 
L 209.014533 199.664207 
L 211.729036 196.422463 
L 213.086288 198.937802 
L 214.443539 196.378988 
L 215.800791 195.681743 
L 217.158042 195.200991 
L 218.515293 196.497962 
L 221.229796 187.67269 
L 222.587048 190.690515 
L 223.944299 185.048472 
L 225.301551 180.571321 
L 226.658802 178.961202 
L 228.016054 175.666297 
L 229.373305 188.857589 
L 230.730556 184.284257 
L 233.445059 176.703607 
L 234.802311 174.042375 
L 236.159562 172.044754 
L 237.516814 172.366121 
L 238.874065 183.393035 
L 240.231317 182.379141 
L 241.588568 178.999604 
L 244.303071 176.588043 
L 245.660322 172.880796 
L 247.017574 179.214077 
L 248.374825 177.396957 
L 249.732077 172.634082 
L 251.089328 170.956949 
L 252.44658 170.445698 
L 253.803831 176.89515 
L 255.161082 179.910736 
L 256.518334 178.6494 
L 257.875585 177.69218 
L 259.232837 199.023435 
L 260.590088 197.270324 
L 261.94734 196.047382 
L 263.304591 195.891645 
L 264.661843 199.677367 
L 266.019094 202.883082 
L 267.376345 195.479592 
L 268.733597 196.201744 
L 270.090848 195.02568 
L 271.4481 189.693656 
L 272.805351 206.711686 
L 274.162603 248.803199 
L 275.519854 243.852809 
L 276.877106 244.295617 
L 278.234357 235.285321 
L 279.591608 232.29979 
L 280.94886 226.668714 
L 282.306111 223.896129 
L 283.663363 222.913793 
L 285.020614 213.751998 
L 287.735117 199.009323 
L 289.092369 191.962499 
L 290.44962 191.54487 
L 291.806871 187.247239 
L 294.521374 177.757622 
L 295.878626 174.547387 
L 297.235877 170.255849 
L 298.593129 167.655929 
L 299.95038 181.346312 
L 302.664883 174.916957 
L 304.022134 173.338115 
L 305.379386 172.253902 
L 306.736637 170.035385 
L 308.093889 172.39372 
L 309.45114 170.303311 
L 310.808392 167.970122 
L 312.165643 164.765129 
L 313.522894 166.382041 
L 314.880146 170.285387 
L 316.237397 181.554315 
L 317.594649 181.347261 
L 318.9519 182.223517 
L 320.309152 178.695348 
L 321.666403 174.127059 
L 323.023655 172.885881 
L 324.380906 169.741925 
L 325.738157 166.963615 
L 327.095409 165.394482 
L 328.45266 162.221971 
L 329.809912 159.675898 
L 331.167163 158.862064 
L 332.524415 155.931301 
L 333.881666 154.348518 
L 335.238918 151.795725 
L 336.596169 149.563376 
L 337.95342 148.864104 
L 339.310672 151.453717 
L 340.667923 149.53974 
L 342.025175 150.42437 
L 343.382426 150.193997 
L 344.739678 150.459728 
L 346.096929 148.926576 
L 347.454181 157.311398 
L 348.811432 154.92354 
L 351.525935 150.952128 
L 352.883186 151.245898 
L 354.240438 152.50937 
L 355.597689 150.910984 
L 356.954941 149.512114 
L 358.312192 148.471263 
L 359.669444 147.651218 
L 361.026695 152.481975 
L 362.383946 151.553929 
L 363.741198 152.247447 
L 365.098449 152.579919 
L 366.455701 154.61592 
L 367.812952 152.367212 
L 369.170204 150.721024 
L 370.527455 148.536884 
L 371.884707 148.052798 
L 373.241958 148.656121 
L 374.599209 145.822499 
L 375.956461 143.758252 
L 377.313712 142.470336 
L 378.670964 145.552755 
L 380.028215 146.86161 
L 381.385467 149.514708 
L 382.742718 149.936068 
L 384.09997 148.895491 
L 385.457221 148.821261 
L 386.814472 152.69209 
L 388.171724 150.989598 
L 389.528975 158.154996 
L 390.886227 160.756626 
L 392.243478 159.211073 
L 393.60073 161.375329 
L 394.957981 161.619609 
L 396.315233 159.171773 
L 397.672484 160.096969 
L 399.029735 158.552195 
L 400.386987 159.237688 
L 401.744238 156.905187 
L 403.10149 155.994705 
L 404.458741 153.76515 
L 405.815993 155.048247 
L 407.173244 152.558913 
L 408.530496 153.024543 
L 409.887747 151.018465 
L 411.244998 151.528942 
L 412.60225 149.208467 
L 413.959501 148.997835 
L 416.674004 145.588832 
L 418.031256 145.488131 
L 419.388507 143.550266 
L 420.745759 142.194257 
L 423.460261 141.519088 
L 424.817513 140.815349 
L 426.174764 139.764399 
L 428.889267 138.486512 
L 430.246519 137.225604 
L 431.60377 137.909443 
L 434.318273 137.845533 
L 435.675524 135.874019 
L 437.032776 140.012244 
L 438.390027 138.778326 
L 439.747279 138.293735 
L 441.10453 137.117958 
L 442.461782 136.173867 
L 443.819033 138.213625 
L 445.176285 141.160464 
L 446.533536 144.790565 
L 447.890787 143.56926 
L 449.248039 149.515236 
L 450.60529 148.575515 
L 451.962542 146.661148 
L 454.677045 144.077133 
L 456.034296 142.113721 
L 457.391548 140.862392 
L 458.748799 140.27417 
L 460.10605 139.200925 
L 461.463302 144.654646 
L 462.820553 146.734456 
L 464.177805 145.23371 
L 465.535056 145.83133 
L 466.892308 143.758399 
L 468.249559 142.595374 
L 469.606811 142.661295 
L 470.964062 141.057223 
L 472.321313 140.388372 
L 473.678565 140.230035 
L 475.035816 141.430346 
L 476.393068 139.883513 
L 477.750319 138.968317 
L 479.107571 141.890655 
L 480.464822 141.82041 
L 481.822074 139.912725 
L 483.179325 141.118457 
L 484.536576 139.426163 
L 485.893828 138.308717 
L 487.251079 136.284641 
L 488.608331 136.736092 
L 489.965582 136.807584 
L 491.322834 138.151837 
L 492.680085 137.012769 
L 494.037337 138.151461 
L 495.394588 137.16461 
L 496.751839 135.605943 
L 498.109091 136.341984 
L 498.109091 136.341984 
" style="fill:none;stroke:#4c72b0;stroke-linecap:round;stroke-width:2;"/>
   </g>
   <g id="line2d_14">
    <path clip-path="url(#p9c6b7e3c47)" d="M 94.57341 577 
L 95.005412 503.192183 
L 96.362663 539.813177 
L 97.719915 460.814904 
L 98.484865 577 
M 100.125802 577 
L 100.434418 550.523943 
L 100.647844 577 
M 102.92102 577 
L 103.148921 548.365932 
L 104.506172 396.289698 
L 105.863424 261.992751 
L 107.220675 358.119102 
L 108.577926 295.499284 
L 109.935178 398.893687 
L 111.292429 458.289195 
L 112.649681 445.084692 
L 114.006932 310.408151 
L 115.364184 197.627611 
L 116.721435 255.322437 
L 118.078687 181.421866 
L 119.435938 420.635378 
L 120.793189 329.774231 
L 122.150441 283.766373 
L 123.507692 372.071138 
L 124.864944 355.742162 
L 126.222195 214.962188 
L 127.579447 223.016259 
L 128.936698 201.728201 
L 130.29395 331.925129 
L 131.651201 295.19792 
L 133.008452 316.395953 
L 134.365704 245.349654 
L 135.722955 168.443305 
L 137.080207 362.507524 
L 138.437458 279.666945 
L 139.79471 184.704007 
L 141.151961 183.112863 
L 142.509213 254.447228 
L 143.866464 298.874233 
L 145.223715 228.74528 
L 146.580967 195.95458 
L 147.938218 325.1289 
L 149.29547 144.721974 
L 150.652721 227.049521 
L 152.009973 247.186687 
L 153.367224 383.691585 
L 154.724476 207.580863 
L 156.081727 168.477403 
L 157.438978 228.030769 
L 158.79623 183.797265 
L 160.153481 303.092317 
L 161.510733 231.232534 
L 162.867984 146.401112 
L 164.225236 143.97765 
L 165.582487 163.981852 
L 166.939739 159.800661 
L 168.29699 160.020858 
L 169.654241 348.569015 
L 171.011493 166.390885 
L 172.368744 234.582025 
L 173.725996 228.370714 
L 175.083247 173.86717 
L 176.440499 199.512898 
L 177.79775 138.649662 
L 179.155002 196.880264 
L 180.512253 160.576713 
L 181.869504 236.89605 
L 183.226756 158.267784 
L 184.584007 142.315655 
L 185.941259 217.09927 
L 187.29851 149.441542 
L 188.655762 151.558813 
L 190.013013 209.0086 
L 191.370265 175.047958 
L 192.727516 397.174804 
L 194.084767 143.831757 
L 195.442019 160.820162 
L 196.79927 202.352669 
L 198.156522 167.724709 
L 199.513773 160.738858 
L 200.871025 254.686468 
L 202.228276 177.293822 
L 203.585528 182.917645 
L 204.942779 158.124475 
L 206.30003 199.913443 
L 207.657282 139.356196 
L 209.014533 305.781468 
L 210.371785 170.697324 
L 211.729036 162.751417 
L 213.086288 183.290664 
L 214.443539 317.598749 
L 215.800791 173.655652 
L 217.158042 255.105211 
L 218.515293 184.589247 
L 219.872545 189.420516 
L 221.229796 141.152416 
L 222.587048 129.695826 
L 223.944299 169.592197 
L 225.301551 221.855723 
L 226.658802 152.404895 
L 228.016054 144.819958 
L 229.373305 183.277782 
L 230.730556 141.046003 
L 232.087808 178.962579 
L 233.445059 210.058842 
L 234.802311 217.53877 
L 236.159562 155.130763 
L 237.516814 134.304207 
L 238.874065 157.121451 
L 240.231317 157.902361 
L 241.588568 161.292201 
L 242.945819 136.587491 
L 244.303071 126.675552 
L 245.660322 194.503162 
L 247.017574 131.597697 
L 248.374825 168.891592 
L 249.732077 129.509596 
L 251.089328 141.090483 
L 252.44658 124.958482 
L 253.803831 127.827933 
L 255.161082 133.275503 
L 256.518334 128.127934 
L 257.875585 177.247866 
L 259.232837 144.687471 
L 260.590088 142.564509 
L 261.94734 141.679984 
L 263.304591 168.902176 
L 264.661843 143.248161 
L 266.019094 260.455463 
L 267.376345 167.686373 
L 268.733597 138.700214 
L 270.090848 147.66155 
L 271.4481 142.892965 
L 272.805351 143.432129 
L 274.162603 145.402554 
L 275.519854 145.618024 
L 276.877106 145.325166 
L 278.234357 150.068916 
L 279.591608 143.513612 
L 280.94886 194.97407 
L 282.306111 142.257889 
L 283.663363 167.066024 
L 285.020614 142.676638 
L 286.377866 191.966084 
L 287.735117 169.047355 
L 289.092369 179.890454 
L 290.44962 127.308105 
L 291.806871 138.382259 
L 293.164123 159.98139 
L 294.521374 142.232029 
L 295.878626 157.870359 
L 297.235877 143.19349 
L 298.593129 168.189546 
L 299.95038 139.95215 
L 301.307631 151.361987 
L 302.664883 164.06043 
L 305.379386 134.278586 
L 306.736637 214.821117 
L 308.093889 158.717834 
L 309.45114 186.577376 
L 310.808392 246.252229 
L 312.165643 137.743873 
L 313.522894 135.276216 
L 314.880146 142.379637 
L 316.237397 144.550626 
L 317.594649 141.103698 
L 318.9519 146.77912 
L 320.309152 157.906505 
L 321.666403 146.608772 
L 323.023655 132.174055 
L 324.380906 159.197052 
L 325.738157 148.85366 
L 327.095409 135.780829 
L 328.45266 151.376679 
L 329.809912 139.829116 
L 331.167163 134.801701 
L 332.524415 138.752956 
L 333.881666 134.860182 
L 335.238918 144.294652 
L 336.596169 143.474847 
L 337.95342 144.425663 
L 339.310672 154.049102 
L 340.667923 142.048157 
L 342.025175 139.006358 
L 343.382426 133.138849 
L 344.739678 131.610365 
L 346.096929 132.581398 
L 347.454181 137.47285 
L 348.811432 140.395973 
L 350.168683 125.707734 
L 351.525935 145.891642 
L 352.883186 152.44266 
L 354.240438 133.10025 
L 355.597689 132.977955 
L 356.954941 146.307128 
L 358.312192 144.03075 
L 359.669444 137.102177 
L 361.026695 126.70696 
L 363.741198 146.430782 
L 365.098449 162.556413 
L 366.455701 137.582693 
L 367.812952 130.97086 
L 369.170204 131.717017 
L 370.527455 139.079126 
L 371.884707 136.940425 
L 373.241958 142.674471 
L 374.599209 152.635342 
L 375.956461 174.739468 
L 377.313712 137.203375 
L 378.670964 137.635578 
L 380.028215 133.974537 
L 381.385467 150.376917 
L 382.742718 131.591959 
L 384.09997 135.767233 
L 385.457221 143.442606 
L 386.814472 131.980682 
L 388.171724 133.682156 
L 389.528975 130.276279 
L 390.886227 134.006587 
L 392.243478 145.099029 
L 393.60073 132.925617 
L 394.957981 145.810849 
L 396.315233 134.231106 
L 397.672484 130.510965 
L 399.029735 126.105981 
L 400.386987 133.695085 
L 401.744238 137.522759 
L 403.10149 162.823006 
L 404.458741 145.813564 
L 405.815993 143.93417 
L 407.173244 137.576716 
L 408.530496 143.390768 
L 409.887747 139.963604 
L 411.244998 132.254823 
L 412.60225 139.426512 
L 413.959501 134.3304 
L 415.316753 133.419181 
L 416.674004 137.02898 
L 418.031256 128.289924 
L 419.388507 131.285029 
L 420.745759 136.543488 
L 422.10301 123.400305 
L 423.460261 133.764281 
L 424.817513 132.101572 
L 426.174764 129.412469 
L 427.532016 160.626968 
L 428.889267 129.691349 
L 430.246519 140.63285 
L 431.60377 127.57646 
L 432.961022 134.365855 
L 434.318273 128.182129 
L 435.675524 129.594032 
L 437.032776 135.085462 
L 438.390027 128.298996 
L 439.747279 125.888178 
L 441.10453 131.529097 
L 442.461782 138.349208 
L 443.819033 143.036834 
L 445.176285 130.446959 
L 446.533536 141.310382 
L 447.890787 144.767787 
L 449.248039 133.352676 
L 450.60529 125.091897 
L 451.962542 138.091782 
L 453.319793 131.360106 
L 454.677045 131.40361 
L 456.034296 153.870945 
L 457.391548 148.117445 
L 458.748799 165.554185 
L 460.10605 137.503876 
L 461.463302 164.021879 
L 462.820553 132.991932 
L 464.177805 137.755469 
L 465.535056 131.382394 
L 466.892308 146.348275 
L 468.249559 144.37054 
L 469.606811 128.672408 
L 470.964062 142.050395 
L 472.321313 128.873639 
L 473.678565 128.272946 
L 475.035816 136.657664 
L 476.393068 134.568515 
L 477.750319 125.112947 
L 479.107571 128.441389 
L 480.464822 121.935374 
L 481.822074 128.185534 
L 483.179325 141.295166 
L 484.536576 129.868697 
L 485.893828 138.604801 
L 487.251079 138.128547 
L 488.608331 131.191735 
L 489.965582 131.20307 
L 491.322834 128.921833 
L 492.680085 142.211552 
L 494.037337 131.37175 
L 495.394588 129.544694 
L 496.751839 132.622711 
L 498.109091 143.74725 
L 498.109091 143.74725 
" style="fill:none;stroke:#dd8452;stroke-linecap:round;stroke-opacity:0.3;stroke-width:1.5;"/>
   </g>
   <g id="line2d_15">
    <path clip-path="url(#p9c6b7e3c47)" d="M 104.602607 577 
L 105.863424 547.528039 
L 107.220675 528.587146 
L 108.577926 505.278359 
L 109.935178 494.639892 
L 111.292429 491.004823 
L 112.649681 486.41281 
L 114.006932 468.812344 
L 115.364184 441.69387 
L 116.721435 423.056727 
L 118.078687 398.893241 
L 119.435938 401.067455 
L 120.793189 393.938132 
L 122.150441 382.920956 
L 123.507692 381.835975 
L 124.864944 379.226593 
L 126.222195 362.800153 
L 128.936698 334.112407 
L 130.29395 333.893679 
L 131.651201 330.024103 
L 133.008452 328.661288 
L 134.365704 320.330125 
L 135.722955 305.141443 
L 137.080207 310.878051 
L 138.437458 307.75694 
L 139.79471 295.451647 
L 141.151961 284.217769 
L 142.509213 281.240715 
L 143.866464 283.004066 
L 145.223715 277.578188 
L 146.580967 269.415827 
L 147.938218 274.987134 
L 149.29547 261.960618 
L 150.652721 258.469509 
L 152.009973 257.341226 
L 153.367224 269.976262 
L 154.724476 263.736722 
L 156.081727 254.21079 
L 157.438978 251.592788 
L 158.79623 244.813236 
L 160.153481 250.641144 
L 161.510733 248.700283 
L 164.225236 229.021094 
L 166.939739 216.245519 
L 168.29699 210.623053 
L 169.654241 224.417649 
L 171.011493 218.614973 
L 172.368744 220.211678 
L 173.725996 221.027582 
L 175.083247 216.31154 
L 176.440499 214.631676 
L 177.79775 207.033475 
L 179.155002 206.018154 
L 180.512253 201.47401 
L 181.869504 205.016214 
L 183.226756 200.341371 
L 184.584007 194.538799 
L 185.941259 196.794846 
L 187.29851 192.059516 
L 188.655762 188.009446 
L 190.013013 190.109361 
L 191.370265 188.603221 
L 192.727516 209.460379 
L 194.084767 202.897517 
L 195.442019 198.689781 
L 196.79927 199.05607 
L 198.156522 195.922934 
L 199.513773 192.404526 
L 200.871025 198.632721 
L 202.228276 196.498831 
L 203.585528 195.140712 
L 204.942779 191.439088 
L 206.30003 192.286524 
L 207.657282 186.993491 
L 209.014533 198.872289 
L 210.371785 196.054792 
L 211.729036 192.724455 
L 213.086288 191.781076 
L 214.443539 204.362843 
L 215.800791 201.292124 
L 217.158042 206.673433 
L 218.515293 204.465014 
L 219.872545 202.960564 
L 221.229796 196.77975 
L 222.587048 190.071357 
L 223.944299 188.023441 
L 225.301551 191.406669 
L 226.658802 187.506492 
L 228.016054 183.237838 
L 229.373305 183.241833 
L 230.730556 179.02225 
L 232.087808 179.016283 
L 233.445059 182.120539 
L 234.802311 185.662362 
L 236.159562 182.609202 
L 237.516814 177.778702 
L 238.874065 175.712977 
L 240.231317 173.931916 
L 241.588568 172.667944 
L 242.945819 169.059899 
L 244.303071 164.821464 
L 245.660322 167.789634 
L 247.017574 164.17044 
L 248.374825 164.642556 
L 249.732077 161.12926 
L 251.089328 159.125382 
L 252.44658 155.708692 
L 253.803831 152.920616 
L 255.161082 150.956105 
L 256.518334 148.673288 
L 257.875585 151.530746 
L 259.232837 150.846418 
L 261.94734 149.184403 
L 263.304591 151.15618 
L 264.661843 150.365378 
L 266.019094 161.374387 
L 267.376345 162.005585 
L 268.733597 159.675048 
L 270.090848 158.473698 
L 271.4481 156.915625 
L 272.805351 155.567275 
L 275.519854 153.657525 
L 276.877106 152.824289 
L 278.234357 152.548752 
L 279.591608 151.645238 
L 280.94886 155.978121 
L 282.306111 154.606098 
L 283.663363 155.852091 
L 285.020614 154.534545 
L 286.377866 158.277699 
L 287.735117 159.354665 
L 289.092369 161.408244 
L 290.44962 157.99823 
L 291.806871 156.036633 
L 293.164123 156.431108 
L 294.521374 155.0112 
L 295.878626 155.297116 
L 297.235877 154.086754 
L 298.593129 155.497033 
L 299.95038 153.942545 
L 301.307631 153.684489 
L 302.664883 154.722083 
L 304.022134 154.103467 
L 305.379386 152.120979 
L 306.736637 158.390992 
L 308.093889 158.423677 
L 309.45114 161.239046 
L 310.808392 169.740365 
L 313.522894 163.414266 
L 314.880146 161.310803 
L 316.237397 159.634785 
L 317.594649 157.781676 
L 318.9519 156.681421 
L 320.309152 156.803929 
L 321.666403 155.784413 
L 323.023655 153.423378 
L 324.380906 154.000745 
L 325.738157 153.486036 
L 327.095409 151.715516 
L 328.45266 151.681632 
L 329.809912 150.49638 
L 331.167163 148.926912 
L 332.524415 147.909517 
L 333.881666 146.604583 
L 337.95342 145.917911 
L 339.310672 146.73103 
L 340.667923 146.262742 
L 342.025175 145.537104 
L 344.739678 143.028587 
L 346.096929 141.983868 
L 347.454181 141.532766 
L 348.811432 141.419087 
L 350.168683 139.847952 
L 351.525935 140.452321 
L 352.883186 141.651355 
L 355.597689 140.014415 
L 356.954941 140.643687 
L 358.312192 140.982393 
L 359.669444 140.594371 
L 361.026695 139.20563 
L 362.383946 138.932951 
L 363.741198 139.682734 
L 365.098449 141.970102 
L 366.455701 141.531361 
L 367.812952 140.475311 
L 369.170204 139.599481 
L 370.527455 139.547446 
L 371.884707 139.286744 
L 373.241958 139.625517 
L 374.599209 140.926499 
L 375.956461 144.307796 
L 380.028215 142.098512 
L 381.385467 142.926353 
L 382.742718 141.792914 
L 384.09997 141.190345 
L 385.457221 141.415571 
L 386.814472 140.472082 
L 388.171724 139.79309 
L 389.528975 138.841409 
L 390.886227 138.357927 
L 392.243478 139.032037 
L 393.60073 138.421395 
L 394.957981 139.16034 
L 396.315233 138.667417 
L 397.672484 137.851772 
L 399.029735 136.677193 
L 400.386987 136.378982 
L 401.744238 136.49336 
L 403.10149 139.126324 
L 404.458741 139.795048 
L 405.815993 140.20896 
L 407.173244 139.945736 
L 408.530496 140.290239 
L 409.887747 140.257576 
L 411.244998 139.4573 
L 412.60225 139.454222 
L 415.316753 138.389574 
L 416.674004 138.253514 
L 418.031256 137.257155 
L 419.388507 136.659943 
L 420.745759 136.648297 
L 422.10301 135.323498 
L 423.460261 135.167576 
L 424.817513 134.860976 
L 426.174764 134.316125 
L 427.532016 136.947209 
L 428.889267 136.221623 
L 430.246519 136.662746 
L 431.60377 135.754117 
L 432.961022 135.615291 
L 434.318273 134.871975 
L 435.675524 134.344181 
L 437.032776 134.418309 
L 438.390027 133.806378 
L 439.747279 133.014558 
L 441.10453 132.866011 
L 442.461782 133.414331 
L 443.819033 134.376581 
L 445.176285 133.983619 
L 446.533536 134.716295 
L 447.890787 135.721445 
L 449.248039 135.484568 
L 450.60529 134.445301 
L 451.962542 134.809949 
L 454.677045 134.158829 
L 456.034296 136.130041 
L 457.391548 137.328781 
L 458.748799 140.151321 
L 460.10605 139.886577 
L 461.463302 142.300107 
L 462.820553 141.36929 
L 464.177805 141.007908 
L 465.535056 140.045356 
L 466.892308 140.675648 
L 468.249559 141.045137 
L 469.606811 139.807864 
L 470.964062 140.032117 
L 473.678565 137.851937 
L 475.035816 137.73251 
L 476.393068 137.41611 
L 477.750319 136.185794 
L 479.107571 135.411353 
L 480.464822 134.063756 
L 481.822074 133.475933 
L 483.179325 134.257857 
L 484.536576 133.818941 
L 487.251079 134.680629 
L 489.965582 134.018872 
L 491.322834 133.509169 
L 492.680085 134.379407 
L 494.037337 134.078641 
L 495.394588 133.625247 
L 496.751839 133.524993 
L 498.109091 134.547219 
L 498.109091 134.547219 
" style="fill:none;stroke:#dd8452;stroke-linecap:round;stroke-width:2;"/>
   </g>
   <g id="line2d_16">
    <path clip-path="url(#p9c6b7e3c47)" d="M 94.768529 577 
L 95.005412 479.978954 
L 96.362663 456.042248 
L 97.994134 577 
M 100.846708 577 
L 101.791669 522.610456 
L 104.506172 441.126395 
L 105.782611 577 
M 105.983903 577 
L 107.220675 488.694222 
L 108.577926 425.227086 
L 109.935178 373.105349 
L 111.292429 452.669528 
L 112.649681 441.52238 
L 114.006932 409.323205 
L 115.364184 399.073559 
L 116.721435 392.874127 
L 118.078687 413.908596 
L 119.435938 389.158397 
L 120.793189 395.33472 
L 123.507692 389.850865 
L 124.864944 438.293976 
L 126.222195 388.213134 
L 127.579447 283.372299 
L 128.936698 413.672993 
L 130.29395 405.380307 
L 131.651201 366.810937 
L 133.008452 334.0538 
L 134.365704 363.940484 
L 135.722955 418.759604 
L 137.080207 220.887369 
L 138.437458 348.439214 
L 139.79471 371.573709 
L 141.151961 373.867656 
L 142.509213 201.898227 
L 143.866464 350.984759 
L 145.223715 326.309328 
L 146.580967 295.132212 
L 147.938218 179.982735 
L 149.29547 202.01576 
L 150.652721 326.289692 
L 152.009973 246.080905 
L 153.367224 189.656976 
L 154.724476 245.416683 
L 156.081727 258.583427 
L 157.438978 161.090065 
L 160.153481 258.017964 
L 161.510733 141.354695 
L 162.867984 144.376874 
L 164.225236 179.682425 
L 165.582487 162.945505 
L 166.939739 158.909242 
L 168.29699 182.463369 
L 169.654241 185.024652 
L 171.011493 170.444946 
L 172.368744 152.934629 
L 173.725996 147.590901 
L 175.083247 140.853915 
L 176.440499 168.876459 
L 177.79775 158.997571 
L 179.155002 202.347942 
L 180.512253 135.172922 
L 181.869504 137.145561 
L 183.226756 183.450748 
L 184.584007 166.659681 
L 185.941259 144.289295 
L 187.29851 280.077556 
L 188.655762 160.915813 
L 190.013013 130.097383 
L 191.370265 162.363957 
L 192.727516 153.431801 
L 194.084767 132.066641 
L 195.442019 188.908759 
L 196.79927 128.208751 
L 198.156522 124.819732 
L 199.513773 153.285253 
L 200.871025 132.988408 
L 202.228276 140.648851 
L 203.585528 135.747041 
L 204.942779 140.538032 
L 206.30003 146.352561 
L 207.657282 145.369718 
L 209.014533 137.798568 
L 210.371785 134.487508 
L 211.729036 128.778012 
L 213.086288 139.206636 
L 214.443539 197.716916 
L 215.800791 135.020814 
L 217.158042 132.611567 
L 218.515293 135.371724 
L 219.872545 139.838951 
L 221.229796 134.328519 
L 222.587048 127.173474 
L 223.944299 129.356536 
L 225.301551 139.462134 
L 226.658802 132.395263 
L 228.016054 132.621854 
L 229.373305 130.987909 
L 230.730556 137.976368 
L 232.087808 133.753971 
L 233.445059 148.893592 
L 234.802311 139.343029 
L 236.159562 126.785014 
L 237.516814 129.694945 
L 238.874065 125.261721 
L 240.231317 125.219884 
L 241.588568 129.404516 
L 242.945819 127.297889 
L 244.303071 128.537944 
L 245.660322 125.987733 
L 247.017574 124.814613 
L 248.374825 134.78939 
L 249.732077 134.442076 
L 251.089328 135.126585 
L 252.44658 127.882962 
L 253.803831 178.257009 
L 255.161082 142.479574 
L 256.518334 125.458428 
L 257.875585 137.007978 
L 259.232837 128.381789 
L 260.590088 128.234967 
L 261.94734 126.787585 
L 263.304591 136.959189 
L 264.661843 145.88045 
L 266.019094 137.300812 
L 267.376345 130.303138 
L 270.090848 140.586608 
L 271.4481 135.430872 
L 272.805351 127.522789 
L 274.162603 127.838291 
L 275.519854 125.586034 
L 276.877106 124.446177 
L 278.234357 120.201279 
L 279.591608 124.73282 
L 280.94886 128.340142 
L 282.306111 126.737438 
L 283.663363 124.50754 
L 285.020614 136.48284 
L 286.377866 150.736292 
L 287.735117 127.757618 
L 289.092369 130.566374 
L 290.44962 141.123533 
L 291.806871 126.473988 
L 293.164123 143.481942 
L 294.521374 130.235275 
L 295.878626 131.822073 
L 297.235877 136.693143 
L 298.593129 132.447911 
L 299.95038 135.836548 
L 301.307631 121.69495 
L 302.664883 130.162865 
L 304.022134 154.405536 
L 305.379386 127.968897 
L 306.736637 123.870344 
L 308.093889 126.745201 
L 309.45114 132.577326 
L 310.808392 123.33249 
L 312.165643 130.354499 
L 313.522894 133.648796 
L 314.880146 126.929978 
L 316.237397 158.998976 
L 317.594649 139.473944 
L 318.9519 123.892322 
L 320.309152 131.007792 
L 321.666403 139.247783 
L 323.023655 141.418129 
L 324.380906 132.494486 
L 325.738157 135.162326 
L 327.095409 131.730851 
L 328.45266 131.702397 
L 329.809912 127.949991 
L 331.167163 136.458576 
L 332.524415 121.808316 
L 333.881666 125.359181 
L 335.238918 122.603763 
L 336.596169 127.399231 
L 337.95342 126.652955 
L 339.310672 126.040476 
L 340.667923 126.645574 
L 342.025175 120.472134 
L 343.382426 131.345986 
L 344.739678 131.462972 
L 346.096929 130.090882 
L 347.454181 131.859505 
L 348.811432 127.961778 
L 350.168683 133.024435 
L 351.525935 128.44246 
L 352.883186 129.715494 
L 355.597689 123.875964 
L 356.954941 124.319262 
L 358.312192 132.161363 
L 359.669444 127.588271 
L 361.026695 130.582756 
L 362.383946 126.039381 
L 363.741198 128.900808 
L 365.098449 138.280084 
L 366.455701 133.287266 
L 367.812952 124.005403 
L 369.170204 127.293794 
L 370.527455 115.155861 
L 371.884707 138.355637 
L 373.241958 122.090173 
L 374.599209 128.898546 
L 375.956461 137.21421 
L 377.313712 123.839246 
L 378.670964 122.202635 
L 380.028215 131.625962 
L 381.385467 129.456997 
L 382.742718 119.988571 
L 384.09997 132.361975 
L 385.457221 130.993338 
L 386.814472 130.977146 
L 388.171724 129.299222 
L 389.528975 123.800553 
L 390.886227 130.004494 
L 392.243478 119.856917 
L 393.60073 117.811938 
L 394.957981 125.857366 
L 396.315233 126.148032 
L 397.672484 119.248747 
L 399.029735 123.00632 
L 400.386987 128.261779 
L 401.744238 116.208377 
L 403.10149 124.246137 
L 404.458741 133.233476 
L 405.815993 122.858856 
L 407.173244 135.669391 
L 408.530496 128.763392 
L 409.887747 128.701625 
L 411.244998 119.751432 
L 412.60225 128.420697 
L 413.959501 135.815118 
L 415.316753 123.022822 
L 416.674004 145.559257 
L 418.031256 127.091849 
L 419.388507 128.769487 
L 420.745759 128.729151 
L 422.10301 128.925048 
L 423.460261 142.232125 
L 424.817513 127.982732 
L 426.174764 121.114783 
L 427.532016 125.776597 
L 428.889267 127.585461 
L 430.246519 123.240268 
L 431.60377 125.607154 
L 432.961022 125.611179 
L 434.318273 134.567848 
L 435.675524 132.86785 
L 437.032776 126.35774 
L 438.390027 121.537413 
L 439.747279 125.239291 
L 441.10453 124.42258 
L 442.461782 127.032272 
L 443.819033 125.497026 
L 445.176285 126.234111 
L 446.533536 129.506548 
L 447.890787 153.272216 
L 449.248039 126.703007 
L 450.60529 127.991042 
L 451.962542 145.523564 
L 453.319793 128.11629 
L 454.677045 124.664886 
L 456.034296 129.243169 
L 457.391548 119.094759 
L 458.748799 121.072684 
L 460.10605 128.135006 
L 462.820553 122.801922 
L 464.177805 127.741045 
L 465.535056 123.67028 
L 466.892308 134.83468 
L 468.249559 123.475073 
L 469.606811 128.550303 
L 470.964062 128.779869 
L 472.321313 123.4545 
L 473.678565 132.74034 
L 475.035816 129.212738 
L 476.393068 129.846648 
L 477.750319 125.620346 
L 479.107571 125.095922 
L 480.464822 122.547187 
L 481.822074 137.856287 
L 483.179325 131.416468 
L 484.536576 133.150278 
L 485.893828 133.497307 
L 487.251079 132.485509 
L 488.608331 130.564636 
L 489.965582 122.419367 
L 491.322834 127.667872 
L 492.680085 117.518081 
L 494.037337 134.731861 
L 495.394588 118.991583 
L 496.751839 130.318282 
L 496.751839 130.318282 
" style="fill:none;stroke:#55a868;stroke-linecap:round;stroke-opacity:0.3;stroke-width:1.5;"/>
   </g>
   <g id="line2d_17">
    <path clip-path="url(#p9c6b7e3c47)" d="M 113.068193 577 
L 115.364184 548.437683 
L 116.721435 532.881328 
L 118.078687 520.984054 
L 119.435938 507.801489 
L 122.150441 486.157164 
L 123.507692 476.526534 
L 124.864944 472.703278 
L 126.222195 464.254264 
L 127.579447 446.166067 
L 128.936698 442.91676 
L 130.29395 439.163115 
L 131.651201 431.927897 
L 133.008452 422.140487 
L 134.365704 416.320487 
L 135.722955 416.564399 
L 137.080207 396.996696 
L 138.437458 392.140947 
L 139.79471 390.084224 
L 141.151961 388.462567 
L 142.509213 369.806133 
L 143.866464 367.923995 
L 145.223715 363.762529 
L 146.580967 356.899497 
L 147.938218 339.207821 
L 149.29547 325.488615 
L 150.652721 325.568723 
L 152.009973 317.619941 
L 153.367224 304.823644 
L 154.724476 298.882948 
L 156.081727 294.852996 
L 157.438978 281.476703 
L 158.79623 274.417426 
L 160.153481 272.77748 
L 161.510733 259.635201 
L 162.867984 248.109369 
L 164.225236 241.266674 
L 166.939739 225.982026 
L 168.29699 221.63016 
L 169.654241 217.969609 
L 171.011493 213.217143 
L 175.083247 195.191575 
L 176.440499 192.560063 
L 177.79775 189.203814 
L 179.155002 190.518227 
L 180.512253 184.983696 
L 181.869504 180.199883 
L 183.226756 180.524969 
L 184.584007 179.138441 
L 185.941259 175.653526 
L 187.29851 186.095929 
L 188.655762 183.577917 
L 190.013013 178.229864 
L 191.370265 176.643273 
L 192.727516 174.322126 
L 194.084767 170.096577 
L 195.442019 171.977796 
L 198.156522 163.322775 
L 199.513773 162.319023 
L 200.871025 159.385962 
L 202.228276 157.51225 
L 203.585528 155.335729 
L 204.942779 153.85596 
L 207.657282 152.33203 
L 209.014533 150.878683 
L 210.371785 149.239566 
L 211.729036 147.19341 
L 213.086288 146.394733 
L 214.443539 151.526951 
L 217.158042 148.149861 
L 218.515293 146.872047 
L 219.872545 146.168737 
L 221.229796 144.984715 
L 222.587048 143.203591 
L 223.944299 141.818886 
L 225.301551 141.583211 
L 228.016054 139.86016 
L 229.373305 138.972935 
L 230.730556 138.873278 
L 232.087808 138.361347 
L 233.445059 139.414572 
L 234.802311 139.407417 
L 236.159562 138.145177 
L 237.516814 137.300154 
L 240.231317 135.008668 
L 241.588568 134.448253 
L 242.945819 133.733216 
L 244.303071 133.213689 
L 247.017574 131.723446 
L 251.089328 132.556778 
L 252.44658 132.089396 
L 253.803831 136.706157 
L 255.161082 137.283499 
L 256.518334 136.100992 
L 257.875585 136.191691 
L 261.94734 133.902573 
L 263.304591 134.208234 
L 264.661843 135.375456 
L 266.019094 135.567992 
L 267.376345 135.041506 
L 268.733597 135.101776 
L 270.090848 135.650259 
L 271.4481 135.62832 
L 276.877106 132.384414 
L 278.234357 131.166101 
L 279.591608 130.522773 
L 280.94886 130.30451 
L 282.306111 129.947803 
L 283.663363 129.403776 
L 285.020614 130.111683 
L 286.377866 132.174144 
L 287.735117 131.732491 
L 289.092369 131.615879 
L 290.44962 132.566645 
L 291.806871 131.957379 
L 293.164123 133.109835 
L 294.521374 132.822379 
L 295.878626 132.722349 
L 297.235877 133.119428 
L 298.593129 133.052276 
L 299.95038 133.330704 
L 301.307631 132.167128 
L 302.664883 131.966702 
L 304.022134 134.210585 
L 305.379386 133.586416 
L 306.736637 132.614809 
L 308.093889 132.027848 
L 309.45114 132.082796 
L 310.808392 131.207766 
L 312.165643 131.122439 
L 313.522894 131.375075 
L 314.880146 130.930565 
L 316.237397 133.737406 
L 317.594649 134.31106 
L 318.9519 133.269186 
L 320.309152 133.043047 
L 321.666403 133.66352 
L 323.023655 134.438981 
L 324.380906 134.244532 
L 325.738157 134.336311 
L 328.45266 133.838428 
L 329.809912 133.249584 
L 331.167163 133.570484 
L 332.524415 132.394267 
L 333.881666 131.690758 
L 335.238918 130.782059 
L 340.667923 129.360602 
L 342.025175 128.471756 
L 344.739678 129.029558 
L 346.096929 129.13569 
L 347.454181 129.408072 
L 348.811432 129.263442 
L 350.168683 129.639542 
L 351.525935 129.519833 
L 352.883186 129.5394 
L 354.240438 129.270254 
L 356.954941 128.289669 
L 358.312192 128.676838 
L 359.669444 128.567982 
L 361.026695 128.769459 
L 362.383946 128.496451 
L 363.741198 128.536887 
L 365.098449 129.511207 
L 366.455701 129.888812 
L 367.812952 129.300472 
L 369.170204 129.099804 
L 370.527455 127.70541 
L 371.884707 128.770432 
L 373.241958 128.102406 
L 374.599209 128.18202 
L 375.956461 129.085239 
L 378.670964 127.924839 
L 380.028215 128.294952 
L 381.385467 128.411156 
L 382.742718 127.568898 
L 384.09997 128.048205 
L 386.814472 128.606161 
L 388.171724 128.675467 
L 389.528975 128.187976 
L 390.886227 128.369628 
L 393.60073 126.547715 
L 396.315233 126.445615 
L 397.672484 125.725928 
L 399.029735 125.453968 
L 400.386987 125.734749 
L 401.744238 124.782111 
L 403.10149 124.728514 
L 404.458741 125.57901 
L 405.815993 125.306995 
L 407.173244 126.343234 
L 409.887747 126.796888 
L 411.244998 126.092342 
L 412.60225 126.325177 
L 413.959501 127.274172 
L 415.316753 126.849037 
L 416.674004 128.720059 
L 418.031256 128.557238 
L 422.10301 128.626683 
L 423.460261 129.987227 
L 424.817513 129.786778 
L 426.174764 128.919578 
L 427.532016 128.60528 
L 428.889267 128.503298 
L 430.246519 127.976995 
L 432.961022 127.527128 
L 434.318273 128.2312 
L 435.675524 128.694865 
L 437.032776 128.461152 
L 438.390027 127.768778 
L 441.10453 127.206505 
L 442.461782 127.189081 
L 445.176285 126.941299 
L 446.533536 127.197824 
L 447.890787 129.805264 
L 449.248039 129.495038 
L 450.60529 129.344638 
L 451.962542 130.962531 
L 453.319793 130.677907 
L 454.677045 130.076605 
L 456.034296 129.993261 
L 457.391548 128.903411 
L 458.748799 128.120338 
L 460.10605 128.121805 
L 461.463302 127.854186 
L 462.820553 127.34896 
L 464.177805 127.388168 
L 465.535056 127.01638 
L 466.892308 127.79821 
L 468.249559 127.365896 
L 470.964062 127.61389 
L 472.321313 127.197951 
L 473.678565 127.75219 
L 476.393068 128.093085 
L 479.107571 127.570822 
L 480.464822 127.068459 
L 481.822074 128.147241 
L 483.179325 128.474164 
L 485.893828 129.397329 
L 487.251079 129.706147 
L 488.608331 129.791996 
L 489.965582 129.054733 
L 491.322834 128.916047 
L 492.680085 127.77625 
L 494.037337 128.471811 
L 495.394588 127.523788 
L 496.751839 127.803238 
L 496.751839 127.803238 
" style="fill:none;stroke:#55a868;stroke-linecap:round;stroke-width:2;"/>
   </g>
   <g id="patch_3">
    <path d="M 72 504 
L 72 69.12 
" style="fill:none;stroke:#ffffff;stroke-linecap:square;stroke-linejoin:miter;stroke-width:1.25;"/>
   </g>
   <g id="patch_4">
    <path d="M 518.4 504 
L 518.4 69.12 
" style="fill:none;stroke:#ffffff;stroke-linecap:square;stroke-linejoin:miter;stroke-width:1.25;"/>
   </g>
   <g id="patch_5">
    <path d="M 72 504 
L 518.4 504 
" style="fill:none;stroke:#ffffff;stroke-linecap:square;stroke-linejoin:miter;stroke-width:1.25;"/>
   </g>
   <g id="patch_6">
    <path d="M 72 69.12 
L 518.4 69.12 
" style="fill:none;stroke:#ffffff;stroke-linecap:square;stroke-linejoin:miter;stroke-width:1.25;"/>
   </g>
   <g id="text_15">
    <!-- LunarLanderContinuous -->
    <g style="fill:#262626;" transform="translate(209.36375 63.12)scale(0.16 -0.16)">
     <defs>
      <path d="M 7.328125 0 
L 7.328125 71.578125 
L 16.796875 71.578125 
L 16.796875 8.453125 
L 52.046875 8.453125 
L 52.046875 0 
z
" id="ArialMT-76"/>
      <path d="M 40.578125 0 
L 40.578125 7.625 
Q 34.515625 -1.171875 24.125 -1.171875 
Q 19.53125 -1.171875 15.546875 0.578125 
Q 11.578125 2.34375 9.640625 5 
Q 7.71875 7.671875 6.9375 11.53125 
Q 6.390625 14.109375 6.390625 19.734375 
L 6.390625 51.859375 
L 15.1875 51.859375 
L 15.1875 23.09375 
Q 15.1875 16.21875 15.71875 13.8125 
Q 16.546875 10.359375 19.234375 8.375 
Q 21.921875 6.390625 25.875 6.390625 
Q 29.828125 6.390625 33.296875 8.421875 
Q 36.765625 10.453125 38.203125 13.9375 
Q 39.65625 17.4375 39.65625 24.078125 
L 39.65625 51.859375 
L 48.4375 51.859375 
L 48.4375 0 
z
" id="ArialMT-117"/>
      <path d="M 6.59375 0 
L 6.59375 51.859375 
L 14.5 51.859375 
L 14.5 44.484375 
Q 20.21875 53.03125 31 53.03125 
Q 35.6875 53.03125 39.625 51.34375 
Q 43.5625 49.65625 45.515625 46.921875 
Q 47.46875 44.1875 48.25 40.4375 
Q 48.734375 37.984375 48.734375 31.890625 
L 48.734375 0 
L 39.9375 0 
L 39.9375 31.546875 
Q 39.9375 36.921875 38.90625 39.578125 
Q 37.890625 42.234375 35.28125 43.8125 
Q 32.671875 45.40625 29.15625 45.40625 
Q 23.53125 45.40625 19.453125 41.84375 
Q 15.375 38.28125 15.375 28.328125 
L 15.375 0 
z
" id="ArialMT-110"/>
      <path d="M 58.796875 25.09375 
L 68.265625 22.703125 
Q 65.28125 11.03125 57.546875 4.90625 
Q 49.8125 -1.21875 38.625 -1.21875 
Q 27.046875 -1.21875 19.796875 3.484375 
Q 12.546875 8.203125 8.765625 17.140625 
Q 4.984375 26.078125 4.984375 36.328125 
Q 4.984375 47.515625 9.25 55.828125 
Q 13.53125 64.15625 21.40625 68.46875 
Q 29.296875 72.796875 38.765625 72.796875 
Q 49.515625 72.796875 56.828125 67.328125 
Q 64.15625 61.859375 67.046875 51.953125 
L 57.71875 49.75 
Q 55.21875 57.5625 50.484375 61.125 
Q 45.75 64.703125 38.578125 64.703125 
Q 30.328125 64.703125 24.78125 60.734375 
Q 19.234375 56.78125 16.984375 50.109375 
Q 14.75 43.453125 14.75 36.375 
Q 14.75 27.25 17.40625 20.4375 
Q 20.0625 13.625 25.671875 10.25 
Q 31.296875 6.890625 37.84375 6.890625 
Q 45.796875 6.890625 51.3125 11.46875 
Q 56.84375 16.0625 58.796875 25.09375 
z
" id="ArialMT-67"/>
      <path d="M 25.78125 7.859375 
L 27.046875 0.09375 
Q 23.34375 -0.6875 20.40625 -0.6875 
Q 15.625 -0.6875 12.984375 0.828125 
Q 10.359375 2.34375 9.28125 4.8125 
Q 8.203125 7.28125 8.203125 15.1875 
L 8.203125 45.015625 
L 1.765625 45.015625 
L 1.765625 51.859375 
L 8.203125 51.859375 
L 8.203125 64.703125 
L 16.9375 69.96875 
L 16.9375 51.859375 
L 25.78125 51.859375 
L 25.78125 45.015625 
L 16.9375 45.015625 
L 16.9375 14.703125 
Q 16.9375 10.9375 17.40625 9.859375 
Q 17.875 8.796875 18.921875 8.15625 
Q 19.96875 7.515625 21.921875 7.515625 
Q 23.390625 7.515625 25.78125 7.859375 
z
" id="ArialMT-116"/>
     </defs>
     <use xlink:href="#ArialMT-76"/>
     <use x="55.615234" xlink:href="#ArialMT-117"/>
     <use x="111.230469" xlink:href="#ArialMT-110"/>
     <use x="166.845703" xlink:href="#ArialMT-97"/>
     <use x="222.460938" xlink:href="#ArialMT-114"/>
     <use x="255.761719" xlink:href="#ArialMT-76"/>
     <use x="311.376953" xlink:href="#ArialMT-97"/>
     <use x="366.992188" xlink:href="#ArialMT-110"/>
     <use x="422.607422" xlink:href="#ArialMT-100"/>
     <use x="478.222656" xlink:href="#ArialMT-101"/>
     <use x="533.837891" xlink:href="#ArialMT-114"/>
     <use x="567.138672" xlink:href="#ArialMT-67"/>
     <use x="639.355469" xlink:href="#ArialMT-111"/>
     <use x="694.970703" xlink:href="#ArialMT-110"/>
     <use x="750.585938" xlink:href="#ArialMT-116"/>
     <use x="778.369141" xlink:href="#ArialMT-105"/>
     <use x="800.585938" xlink:href="#ArialMT-110"/>
     <use x="856.201172" xlink:href="#ArialMT-117"/>
     <use x="911.816406" xlink:href="#ArialMT-111"/>
     <use x="967.431641" xlink:href="#ArialMT-117"/>
     <use x="1023.046875" xlink:href="#ArialMT-115"/>
    </g>
   </g>
   <g id="legend_1">
    <g id="patch_7">
     <path d="M 377.74 496 
L 507.2 496 
Q 510.4 496 510.4 492.8 
L 510.4 426.5025 
Q 510.4 423.3025 507.2 423.3025 
L 377.74 423.3025 
Q 374.54 423.3025 374.54 426.5025 
L 374.54 492.8 
Q 374.54 496 377.74 496 
z
" style="fill:#eaeaf2;opacity:0.8;stroke:#cccccc;stroke-linejoin:miter;"/>
    </g>
    <g id="line2d_18">
     <path d="M 380.94 435.555 
L 412.94 435.555 
" style="fill:none;stroke:#4c72b0;stroke-linecap:round;stroke-width:2;"/>
    </g>
    <g id="line2d_19"/>
    <g id="text_16">
     <!-- BASELINE -->
     <g style="fill:#262626;" transform="translate(425.74 441.155)scale(0.16 -0.16)">
      <defs>
       <path d="M 7.328125 0 
L 7.328125 71.578125 
L 34.1875 71.578125 
Q 42.390625 71.578125 47.34375 69.40625 
Q 52.296875 67.234375 55.09375 62.71875 
Q 57.90625 58.203125 57.90625 53.265625 
Q 57.90625 48.6875 55.421875 44.625 
Q 52.9375 40.578125 47.90625 38.09375 
Q 54.390625 36.1875 57.875 31.59375 
Q 61.375 27 61.375 20.75 
Q 61.375 15.71875 59.25 11.390625 
Q 57.125 7.078125 54 4.734375 
Q 50.875 2.390625 46.15625 1.1875 
Q 41.453125 0 34.625 0 
z
M 16.796875 41.5 
L 32.28125 41.5 
Q 38.578125 41.5 41.3125 42.328125 
Q 44.921875 43.40625 46.75 45.890625 
Q 48.578125 48.390625 48.578125 52.15625 
Q 48.578125 55.71875 46.875 58.421875 
Q 45.171875 61.140625 41.984375 62.140625 
Q 38.8125 63.140625 31.109375 63.140625 
L 16.796875 63.140625 
z
M 16.796875 8.453125 
L 34.625 8.453125 
Q 39.203125 8.453125 41.0625 8.796875 
Q 44.34375 9.375 46.53125 10.734375 
Q 48.734375 12.109375 50.140625 14.71875 
Q 51.5625 17.328125 51.5625 20.75 
Q 51.5625 24.75 49.515625 27.703125 
Q 47.46875 30.671875 43.828125 31.859375 
Q 40.1875 33.0625 33.34375 33.0625 
L 16.796875 33.0625 
z
" id="ArialMT-66"/>
       <path d="M -0.140625 0 
L 27.34375 71.578125 
L 37.546875 71.578125 
L 66.84375 0 
L 56.0625 0 
L 47.703125 21.6875 
L 17.78125 21.6875 
L 9.90625 0 
z
M 20.515625 29.390625 
L 44.78125 29.390625 
L 37.3125 49.21875 
Q 33.890625 58.25 32.234375 64.0625 
Q 30.859375 57.171875 28.375 50.390625 
z
" id="ArialMT-65"/>
       <path d="M 4.5 23 
L 13.421875 23.78125 
Q 14.0625 18.40625 16.375 14.96875 
Q 18.703125 11.53125 23.578125 9.40625 
Q 28.46875 7.28125 34.578125 7.28125 
Q 39.984375 7.28125 44.140625 8.890625 
Q 48.296875 10.5 50.3125 13.296875 
Q 52.34375 16.109375 52.34375 19.4375 
Q 52.34375 22.796875 50.390625 25.3125 
Q 48.4375 27.828125 43.953125 29.546875 
Q 41.0625 30.671875 31.203125 33.03125 
Q 21.34375 35.40625 17.390625 37.5 
Q 12.25 40.1875 9.734375 44.15625 
Q 7.234375 48.140625 7.234375 53.078125 
Q 7.234375 58.5 10.296875 63.203125 
Q 13.375 67.921875 19.28125 70.359375 
Q 25.203125 72.796875 32.421875 72.796875 
Q 40.375 72.796875 46.453125 70.234375 
Q 52.546875 67.671875 55.8125 62.6875 
Q 59.078125 57.71875 59.328125 51.421875 
L 50.25 50.734375 
Q 49.515625 57.515625 45.28125 60.984375 
Q 41.0625 64.453125 32.8125 64.453125 
Q 24.21875 64.453125 20.28125 61.296875 
Q 16.359375 58.15625 16.359375 53.71875 
Q 16.359375 49.859375 19.140625 47.359375 
Q 21.875 44.875 33.421875 42.265625 
Q 44.96875 39.65625 49.265625 37.703125 
Q 55.515625 34.8125 58.484375 30.390625 
Q 61.46875 25.984375 61.46875 20.21875 
Q 61.46875 14.5 58.203125 9.4375 
Q 54.9375 4.390625 48.796875 1.578125 
Q 42.671875 -1.21875 35.015625 -1.21875 
Q 25.296875 -1.21875 18.71875 1.609375 
Q 12.15625 4.4375 8.421875 10.125 
Q 4.6875 15.828125 4.5 23 
z
" id="ArialMT-83"/>
       <path d="M 9.328125 0 
L 9.328125 71.578125 
L 18.796875 71.578125 
L 18.796875 0 
z
" id="ArialMT-73"/>
       <path d="M 7.625 0 
L 7.625 71.578125 
L 17.328125 71.578125 
L 54.9375 15.375 
L 54.9375 71.578125 
L 64.015625 71.578125 
L 64.015625 0 
L 54.296875 0 
L 16.703125 56.25 
L 16.703125 0 
z
" id="ArialMT-78"/>
      </defs>
      <use xlink:href="#ArialMT-66"/>
      <use x="66.699219" xlink:href="#ArialMT-65"/>
      <use x="133.398438" xlink:href="#ArialMT-83"/>
      <use x="200.097656" xlink:href="#ArialMT-69"/>
      <use x="266.796875" xlink:href="#ArialMT-76"/>
      <use x="322.412109" xlink:href="#ArialMT-73"/>
      <use x="350.195312" xlink:href="#ArialMT-78"/>
      <use x="422.412109" xlink:href="#ArialMT-69"/>
     </g>
    </g>
    <g id="line2d_20">
     <path d="M 380.94 458.1875 
L 412.94 458.1875 
" style="fill:none;stroke:#dd8452;stroke-linecap:round;stroke-width:2;"/>
    </g>
    <g id="line2d_21"/>
    <g id="text_17">
     <!-- PRE -->
     <g style="fill:#262626;" transform="translate(425.74 463.7875)scale(0.16 -0.16)">
      <defs>
       <path d="M 7.71875 0 
L 7.71875 71.578125 
L 34.71875 71.578125 
Q 41.84375 71.578125 45.609375 70.90625 
Q 50.875 70.015625 54.4375 67.546875 
Q 58.015625 65.09375 60.1875 60.640625 
Q 62.359375 56.203125 62.359375 50.875 
Q 62.359375 41.75 56.546875 35.421875 
Q 50.734375 29.109375 35.546875 29.109375 
L 17.1875 29.109375 
L 17.1875 0 
z
M 17.1875 37.546875 
L 35.6875 37.546875 
Q 44.875 37.546875 48.734375 40.96875 
Q 52.59375 44.390625 52.59375 50.59375 
Q 52.59375 55.078125 50.3125 58.265625 
Q 48.046875 61.46875 44.34375 62.5 
Q 41.9375 63.140625 35.5 63.140625 
L 17.1875 63.140625 
z
" id="ArialMT-80"/>
       <path d="M 7.859375 0 
L 7.859375 71.578125 
L 39.59375 71.578125 
Q 49.171875 71.578125 54.140625 69.640625 
Q 59.125 67.71875 62.109375 62.828125 
Q 65.09375 57.953125 65.09375 52.046875 
Q 65.09375 44.4375 60.15625 39.203125 
Q 55.21875 33.984375 44.921875 32.5625 
Q 48.6875 30.765625 50.640625 29 
Q 54.78125 25.203125 58.5 19.484375 
L 70.953125 0 
L 59.03125 0 
L 49.5625 14.890625 
Q 45.40625 21.34375 42.71875 24.75 
Q 40.046875 28.171875 37.921875 29.53125 
Q 35.796875 30.90625 33.59375 31.453125 
Q 31.984375 31.78125 28.328125 31.78125 
L 17.328125 31.78125 
L 17.328125 0 
z
M 17.328125 39.984375 
L 37.703125 39.984375 
Q 44.1875 39.984375 47.84375 41.328125 
Q 51.515625 42.671875 53.421875 45.625 
Q 55.328125 48.578125 55.328125 52.046875 
Q 55.328125 57.125 51.640625 60.390625 
Q 47.953125 63.671875 39.984375 63.671875 
L 17.328125 63.671875 
z
" id="ArialMT-82"/>
      </defs>
      <use xlink:href="#ArialMT-80"/>
      <use x="66.699219" xlink:href="#ArialMT-82"/>
      <use x="138.916016" xlink:href="#ArialMT-69"/>
     </g>
    </g>
    <g id="line2d_22">
     <path d="M 380.94 480.82 
L 412.94 480.82 
" style="fill:none;stroke:#55a868;stroke-linecap:round;stroke-width:2;"/>
    </g>
    <g id="line2d_23"/>
    <g id="text_18">
     <!-- ERE -->
     <g style="fill:#262626;" transform="translate(425.74 486.42)scale(0.16 -0.16)">
      <use xlink:href="#ArialMT-69"/>
      <use x="66.699219" xlink:href="#ArialMT-82"/>
      <use x="138.916016" xlink:href="#ArialMT-69"/>
     </g>
    </g>
   </g>
  </g>
 </g>
 <defs>
  <clipPath id="p9c6b7e3c47">
   <rect height="434.88" width="446.4" x="72" y="69.12"/>
  </clipPath>
 </defs>
</svg>
