<?xml version="1.0" encoding="utf-8" standalone="no"?>
<!DOCTYPE svg PUBLIC "-//W3C//DTD SVG 1.1//EN"
  "http://www.w3.org/Graphics/SVG/1.1/DTD/svg11.dtd">
<!-- Created with matplotlib (https://matplotlib.org/) -->
<svg height="576pt" version="1.1" viewBox="0 0 1080 576" width="1080pt" xmlns="http://www.w3.org/2000/svg" xmlns:xlink="http://www.w3.org/1999/xlink">
 <metadata>
  <rdf:RDF xmlns:cc="http://creativecommons.org/ns#" xmlns:dc="http://purl.org/dc/elements/1.1/" xmlns:rdf="http://www.w3.org/1999/02/22-rdf-syntax-ns#">
   <cc:Work>
    <dc:type rdf:resource="http://purl.org/dc/dcmitype/StillImage"/>
    <dc:date>2021-03-13T21:40:47.329854</dc:date>
    <dc:format>image/svg+xml</dc:format>
    <dc:creator>
     <cc:Agent>
      <dc:title>Matplotlib v3.3.2, https://matplotlib.org/</dc:title>
     </cc:Agent>
    </dc:creator>
   </cc:Work>
  </rdf:RDF>
 </metadata>
 <defs>
  <style type="text/css">*{stroke-linecap:butt;stroke-linejoin:round;}</style>
 </defs>
 <g id="figure_1">
  <g id="patch_1">
   <path d="M 0 576 
L 1080 576 
L 1080 0 
L 0 0 
z
" style="fill:#ffffff;"/>
  </g>
  <g id="axes_1">
   <g id="patch_2">
    <path d="M 135 512.64 
L 972 512.64 
L 972 69.12 
L 135 69.12 
z
" style="fill:#eaeaf2;"/>
   </g>
   <g id="matplotlib.axis_1">
    <g id="xtick_1">
     <g id="line2d_1">
      <path clip-path="url(#p7c9a7e2f07)" d="M 170.582966 512.64 
L 170.582966 69.12 
" style="fill:none;stroke:#ffffff;stroke-linecap:round;"/>
     </g>
     <g id="text_1">
      <!-- 0.0 -->
      <g style="fill:#262626;" transform="translate(162.937966 530.013594)scale(0.11 -0.11)">
       <defs>
        <path d="M 4.15625 35.296875 
Q 4.15625 48 6.765625 55.734375 
Q 9.375 63.484375 14.515625 67.671875 
Q 19.671875 71.875 27.484375 71.875 
Q 33.25 71.875 37.59375 69.546875 
Q 41.9375 67.234375 44.765625 62.859375 
Q 47.609375 58.5 49.21875 52.21875 
Q 50.828125 45.953125 50.828125 35.296875 
Q 50.828125 22.703125 48.234375 14.96875 
Q 45.65625 7.234375 40.5 3 
Q 35.359375 -1.21875 27.484375 -1.21875 
Q 17.140625 -1.21875 11.234375 6.203125 
Q 4.15625 15.140625 4.15625 35.296875 
z
M 13.1875 35.296875 
Q 13.1875 17.671875 17.3125 11.828125 
Q 21.4375 6 27.484375 6 
Q 33.546875 6 37.671875 11.859375 
Q 41.796875 17.71875 41.796875 35.296875 
Q 41.796875 52.984375 37.671875 58.78125 
Q 33.546875 64.59375 27.390625 64.59375 
Q 21.34375 64.59375 17.71875 59.46875 
Q 13.1875 52.9375 13.1875 35.296875 
z
" id="ArialMT-48"/>
        <path d="M 9.078125 0 
L 9.078125 10.015625 
L 19.09375 10.015625 
L 19.09375 0 
z
" id="ArialMT-46"/>
       </defs>
       <use xlink:href="#ArialMT-48"/>
       <use x="55.615234" xlink:href="#ArialMT-46"/>
       <use x="83.398438" xlink:href="#ArialMT-48"/>
      </g>
     </g>
    </g>
    <g id="xtick_2">
     <g id="line2d_2">
      <path clip-path="url(#p7c9a7e2f07)" d="M 293.707414 512.64 
L 293.707414 69.12 
" style="fill:none;stroke:#ffffff;stroke-linecap:round;"/>
     </g>
     <g id="text_2">
      <!-- 0.5 -->
      <g style="fill:#262626;" transform="translate(286.062414 530.013594)scale(0.11 -0.11)">
       <defs>
        <path d="M 4.15625 18.75 
L 13.375 19.53125 
Q 14.40625 12.796875 18.140625 9.390625 
Q 21.875 6 27.15625 6 
Q 33.5 6 37.890625 10.78125 
Q 42.28125 15.578125 42.28125 23.484375 
Q 42.28125 31 38.0625 35.34375 
Q 33.84375 39.703125 27 39.703125 
Q 22.75 39.703125 19.328125 37.765625 
Q 15.921875 35.84375 13.96875 32.765625 
L 5.71875 33.84375 
L 12.640625 70.609375 
L 48.25 70.609375 
L 48.25 62.203125 
L 19.671875 62.203125 
L 15.828125 42.96875 
Q 22.265625 47.46875 29.34375 47.46875 
Q 38.71875 47.46875 45.15625 40.96875 
Q 51.609375 34.46875 51.609375 24.265625 
Q 51.609375 14.546875 45.953125 7.46875 
Q 39.0625 -1.21875 27.15625 -1.21875 
Q 17.390625 -1.21875 11.203125 4.25 
Q 5.03125 9.71875 4.15625 18.75 
z
" id="ArialMT-53"/>
       </defs>
       <use xlink:href="#ArialMT-48"/>
       <use x="55.615234" xlink:href="#ArialMT-46"/>
       <use x="83.398438" xlink:href="#ArialMT-53"/>
      </g>
     </g>
    </g>
    <g id="xtick_3">
     <g id="line2d_3">
      <path clip-path="url(#p7c9a7e2f07)" d="M 416.831862 512.64 
L 416.831862 69.12 
" style="fill:none;stroke:#ffffff;stroke-linecap:round;"/>
     </g>
     <g id="text_3">
      <!-- 1.0 -->
      <g style="fill:#262626;" transform="translate(409.186862 530.013594)scale(0.11 -0.11)">
       <defs>
        <path d="M 37.25 0 
L 28.46875 0 
L 28.46875 56 
Q 25.296875 52.984375 20.140625 49.953125 
Q 14.984375 46.921875 10.890625 45.40625 
L 10.890625 53.90625 
Q 18.265625 57.375 23.78125 62.296875 
Q 29.296875 67.234375 31.59375 71.875 
L 37.25 71.875 
z
" id="ArialMT-49"/>
       </defs>
       <use xlink:href="#ArialMT-49"/>
       <use x="55.615234" xlink:href="#ArialMT-46"/>
       <use x="83.398438" xlink:href="#ArialMT-48"/>
      </g>
     </g>
    </g>
    <g id="xtick_4">
     <g id="line2d_4">
      <path clip-path="url(#p7c9a7e2f07)" d="M 539.956311 512.64 
L 539.956311 69.12 
" style="fill:none;stroke:#ffffff;stroke-linecap:round;"/>
     </g>
     <g id="text_4">
      <!-- 1.5 -->
      <g style="fill:#262626;" transform="translate(532.311311 530.013594)scale(0.11 -0.11)">
       <use xlink:href="#ArialMT-49"/>
       <use x="55.615234" xlink:href="#ArialMT-46"/>
       <use x="83.398438" xlink:href="#ArialMT-53"/>
      </g>
     </g>
    </g>
    <g id="xtick_5">
     <g id="line2d_5">
      <path clip-path="url(#p7c9a7e2f07)" d="M 663.080759 512.64 
L 663.080759 69.12 
" style="fill:none;stroke:#ffffff;stroke-linecap:round;"/>
     </g>
     <g id="text_5">
      <!-- 2.0 -->
      <g style="fill:#262626;" transform="translate(655.435759 530.013594)scale(0.11 -0.11)">
       <defs>
        <path d="M 50.34375 8.453125 
L 50.34375 0 
L 3.03125 0 
Q 2.9375 3.171875 4.046875 6.109375 
Q 5.859375 10.9375 9.828125 15.625 
Q 13.8125 20.3125 21.34375 26.46875 
Q 33.015625 36.03125 37.109375 41.625 
Q 41.21875 47.21875 41.21875 52.203125 
Q 41.21875 57.421875 37.46875 61 
Q 33.734375 64.59375 27.734375 64.59375 
Q 21.390625 64.59375 17.578125 60.78125 
Q 13.765625 56.984375 13.71875 50.25 
L 4.6875 51.171875 
Q 5.609375 61.28125 11.65625 66.578125 
Q 17.71875 71.875 27.9375 71.875 
Q 38.234375 71.875 44.234375 66.15625 
Q 50.25 60.453125 50.25 52 
Q 50.25 47.703125 48.484375 43.546875 
Q 46.734375 39.40625 42.65625 34.8125 
Q 38.578125 30.21875 29.109375 22.21875 
Q 21.1875 15.578125 18.9375 13.203125 
Q 16.703125 10.84375 15.234375 8.453125 
z
" id="ArialMT-50"/>
       </defs>
       <use xlink:href="#ArialMT-50"/>
       <use x="55.615234" xlink:href="#ArialMT-46"/>
       <use x="83.398438" xlink:href="#ArialMT-48"/>
      </g>
     </g>
    </g>
    <g id="xtick_6">
     <g id="line2d_6">
      <path clip-path="url(#p7c9a7e2f07)" d="M 786.205207 512.64 
L 786.205207 69.12 
" style="fill:none;stroke:#ffffff;stroke-linecap:round;"/>
     </g>
     <g id="text_6">
      <!-- 2.5 -->
      <g style="fill:#262626;" transform="translate(778.560207 530.013594)scale(0.11 -0.11)">
       <use xlink:href="#ArialMT-50"/>
       <use x="55.615234" xlink:href="#ArialMT-46"/>
       <use x="83.398438" xlink:href="#ArialMT-53"/>
      </g>
     </g>
    </g>
    <g id="xtick_7">
     <g id="line2d_7">
      <path clip-path="url(#p7c9a7e2f07)" d="M 909.329656 512.64 
L 909.329656 69.12 
" style="fill:none;stroke:#ffffff;stroke-linecap:round;"/>
     </g>
     <g id="text_7">
      <!-- 3.0 -->
      <g style="fill:#262626;" transform="translate(901.684656 530.013594)scale(0.11 -0.11)">
       <defs>
        <path d="M 4.203125 18.890625 
L 12.984375 20.0625 
Q 14.5 12.59375 18.140625 9.296875 
Q 21.78125 6 27 6 
Q 33.203125 6 37.46875 10.296875 
Q 41.75 14.59375 41.75 20.953125 
Q 41.75 27 37.796875 30.921875 
Q 33.84375 34.859375 27.734375 34.859375 
Q 25.25 34.859375 21.53125 33.890625 
L 22.515625 41.609375 
Q 23.390625 41.5 23.921875 41.5 
Q 29.546875 41.5 34.03125 44.421875 
Q 38.53125 47.359375 38.53125 53.46875 
Q 38.53125 58.296875 35.25 61.46875 
Q 31.984375 64.65625 26.8125 64.65625 
Q 21.6875 64.65625 18.265625 61.421875 
Q 14.84375 58.203125 13.875 51.765625 
L 5.078125 53.328125 
Q 6.6875 62.15625 12.390625 67.015625 
Q 18.109375 71.875 26.609375 71.875 
Q 32.46875 71.875 37.390625 69.359375 
Q 42.328125 66.84375 44.9375 62.5 
Q 47.5625 58.15625 47.5625 53.265625 
Q 47.5625 48.640625 45.0625 44.828125 
Q 42.578125 41.015625 37.703125 38.765625 
Q 44.046875 37.3125 47.5625 32.6875 
Q 51.078125 28.078125 51.078125 21.140625 
Q 51.078125 11.765625 44.234375 5.25 
Q 37.40625 -1.265625 26.953125 -1.265625 
Q 17.53125 -1.265625 11.296875 4.34375 
Q 5.078125 9.96875 4.203125 18.890625 
z
" id="ArialMT-51"/>
       </defs>
       <use xlink:href="#ArialMT-51"/>
       <use x="55.615234" xlink:href="#ArialMT-46"/>
       <use x="83.398438" xlink:href="#ArialMT-48"/>
      </g>
     </g>
    </g>
    <g id="text_8">
     <!-- Environment Steps -->
     <g style="fill:#262626;" transform="translate(490.137891 547.119375)scale(0.15 -0.15)">
      <defs>
       <path d="M 7.90625 0 
L 7.90625 71.578125 
L 59.671875 71.578125 
L 59.671875 63.140625 
L 17.390625 63.140625 
L 17.390625 41.21875 
L 56.984375 41.21875 
L 56.984375 32.8125 
L 17.390625 32.8125 
L 17.390625 8.453125 
L 61.328125 8.453125 
L 61.328125 0 
z
" id="ArialMT-69"/>
       <path d="M 6.59375 0 
L 6.59375 51.859375 
L 14.5 51.859375 
L 14.5 44.484375 
Q 20.21875 53.03125 31 53.03125 
Q 35.6875 53.03125 39.625 51.34375 
Q 43.5625 49.65625 45.515625 46.921875 
Q 47.46875 44.1875 48.25 40.4375 
Q 48.734375 37.984375 48.734375 31.890625 
L 48.734375 0 
L 39.9375 0 
L 39.9375 31.546875 
Q 39.9375 36.921875 38.90625 39.578125 
Q 37.890625 42.234375 35.28125 43.8125 
Q 32.671875 45.40625 29.15625 45.40625 
Q 23.53125 45.40625 19.453125 41.84375 
Q 15.375 38.28125 15.375 28.328125 
L 15.375 0 
z
" id="ArialMT-110"/>
       <path d="M 21 0 
L 1.265625 51.859375 
L 10.546875 51.859375 
L 21.6875 20.796875 
Q 23.484375 15.765625 25 10.359375 
Q 26.171875 14.453125 28.265625 20.21875 
L 39.796875 51.859375 
L 48.828125 51.859375 
L 29.203125 0 
z
" id="ArialMT-118"/>
       <path d="M 6.640625 61.46875 
L 6.640625 71.578125 
L 15.4375 71.578125 
L 15.4375 61.46875 
z
M 6.640625 0 
L 6.640625 51.859375 
L 15.4375 51.859375 
L 15.4375 0 
z
" id="ArialMT-105"/>
       <path d="M 6.5 0 
L 6.5 51.859375 
L 14.40625 51.859375 
L 14.40625 44 
Q 17.4375 49.515625 20 51.265625 
Q 22.5625 53.03125 25.640625 53.03125 
Q 30.078125 53.03125 34.671875 50.203125 
L 31.640625 42.046875 
Q 28.421875 43.953125 25.203125 43.953125 
Q 22.3125 43.953125 20.015625 42.21875 
Q 17.71875 40.484375 16.75 37.40625 
Q 15.28125 32.71875 15.28125 27.15625 
L 15.28125 0 
z
" id="ArialMT-114"/>
       <path d="M 3.328125 25.921875 
Q 3.328125 40.328125 11.328125 47.265625 
Q 18.015625 53.03125 27.640625 53.03125 
Q 38.328125 53.03125 45.109375 46.015625 
Q 51.90625 39.015625 51.90625 26.65625 
Q 51.90625 16.65625 48.90625 10.90625 
Q 45.90625 5.171875 40.15625 2 
Q 34.421875 -1.171875 27.640625 -1.171875 
Q 16.75 -1.171875 10.03125 5.8125 
Q 3.328125 12.796875 3.328125 25.921875 
z
M 12.359375 25.921875 
Q 12.359375 15.96875 16.703125 11.015625 
Q 21.046875 6.0625 27.640625 6.0625 
Q 34.1875 6.0625 38.53125 11.03125 
Q 42.875 16.015625 42.875 26.21875 
Q 42.875 35.84375 38.5 40.796875 
Q 34.125 45.75 27.640625 45.75 
Q 21.046875 45.75 16.703125 40.8125 
Q 12.359375 35.890625 12.359375 25.921875 
z
" id="ArialMT-111"/>
       <path d="M 6.59375 0 
L 6.59375 51.859375 
L 14.453125 51.859375 
L 14.453125 44.578125 
Q 16.890625 48.390625 20.9375 50.703125 
Q 25 53.03125 30.171875 53.03125 
Q 35.9375 53.03125 39.625 50.640625 
Q 43.3125 48.25 44.828125 43.953125 
Q 50.984375 53.03125 60.84375 53.03125 
Q 68.5625 53.03125 72.703125 48.75 
Q 76.859375 44.484375 76.859375 35.59375 
L 76.859375 0 
L 68.109375 0 
L 68.109375 32.671875 
Q 68.109375 37.9375 67.25 40.25 
Q 66.40625 42.578125 64.15625 43.984375 
Q 61.921875 45.40625 58.890625 45.40625 
Q 53.421875 45.40625 49.796875 41.765625 
Q 46.1875 38.140625 46.1875 30.125 
L 46.1875 0 
L 37.40625 0 
L 37.40625 33.6875 
Q 37.40625 39.546875 35.25 42.46875 
Q 33.109375 45.40625 28.21875 45.40625 
Q 24.515625 45.40625 21.359375 43.453125 
Q 18.21875 41.5 16.796875 37.734375 
Q 15.375 33.984375 15.375 26.90625 
L 15.375 0 
z
" id="ArialMT-109"/>
       <path d="M 42.09375 16.703125 
L 51.171875 15.578125 
Q 49.03125 7.625 43.21875 3.21875 
Q 37.40625 -1.171875 28.375 -1.171875 
Q 17 -1.171875 10.328125 5.828125 
Q 3.65625 12.84375 3.65625 25.484375 
Q 3.65625 38.578125 10.390625 45.796875 
Q 17.140625 53.03125 27.875 53.03125 
Q 38.28125 53.03125 44.875 45.953125 
Q 51.46875 38.875 51.46875 26.03125 
Q 51.46875 25.25 51.421875 23.6875 
L 12.75 23.6875 
Q 13.234375 15.140625 17.578125 10.59375 
Q 21.921875 6.0625 28.421875 6.0625 
Q 33.25 6.0625 36.671875 8.59375 
Q 40.09375 11.140625 42.09375 16.703125 
z
M 13.234375 30.90625 
L 42.1875 30.90625 
Q 41.609375 37.453125 38.875 40.71875 
Q 34.671875 45.796875 27.984375 45.796875 
Q 21.921875 45.796875 17.796875 41.75 
Q 13.671875 37.703125 13.234375 30.90625 
z
" id="ArialMT-101"/>
       <path d="M 25.78125 7.859375 
L 27.046875 0.09375 
Q 23.34375 -0.6875 20.40625 -0.6875 
Q 15.625 -0.6875 12.984375 0.828125 
Q 10.359375 2.34375 9.28125 4.8125 
Q 8.203125 7.28125 8.203125 15.1875 
L 8.203125 45.015625 
L 1.765625 45.015625 
L 1.765625 51.859375 
L 8.203125 51.859375 
L 8.203125 64.703125 
L 16.9375 69.96875 
L 16.9375 51.859375 
L 25.78125 51.859375 
L 25.78125 45.015625 
L 16.9375 45.015625 
L 16.9375 14.703125 
Q 16.9375 10.9375 17.40625 9.859375 
Q 17.875 8.796875 18.921875 8.15625 
Q 19.96875 7.515625 21.921875 7.515625 
Q 23.390625 7.515625 25.78125 7.859375 
z
" id="ArialMT-116"/>
       <path id="ArialMT-32"/>
       <path d="M 4.5 23 
L 13.421875 23.78125 
Q 14.0625 18.40625 16.375 14.96875 
Q 18.703125 11.53125 23.578125 9.40625 
Q 28.46875 7.28125 34.578125 7.28125 
Q 39.984375 7.28125 44.140625 8.890625 
Q 48.296875 10.5 50.3125 13.296875 
Q 52.34375 16.109375 52.34375 19.4375 
Q 52.34375 22.796875 50.390625 25.3125 
Q 48.4375 27.828125 43.953125 29.546875 
Q 41.0625 30.671875 31.203125 33.03125 
Q 21.34375 35.40625 17.390625 37.5 
Q 12.25 40.1875 9.734375 44.15625 
Q 7.234375 48.140625 7.234375 53.078125 
Q 7.234375 58.5 10.296875 63.203125 
Q 13.375 67.921875 19.28125 70.359375 
Q 25.203125 72.796875 32.421875 72.796875 
Q 40.375 72.796875 46.453125 70.234375 
Q 52.546875 67.671875 55.8125 62.6875 
Q 59.078125 57.71875 59.328125 51.421875 
L 50.25 50.734375 
Q 49.515625 57.515625 45.28125 60.984375 
Q 41.0625 64.453125 32.8125 64.453125 
Q 24.21875 64.453125 20.28125 61.296875 
Q 16.359375 58.15625 16.359375 53.71875 
Q 16.359375 49.859375 19.140625 47.359375 
Q 21.875 44.875 33.421875 42.265625 
Q 44.96875 39.65625 49.265625 37.703125 
Q 55.515625 34.8125 58.484375 30.390625 
Q 61.46875 25.984375 61.46875 20.21875 
Q 61.46875 14.5 58.203125 9.4375 
Q 54.9375 4.390625 48.796875 1.578125 
Q 42.671875 -1.21875 35.015625 -1.21875 
Q 25.296875 -1.21875 18.71875 1.609375 
Q 12.15625 4.4375 8.421875 10.125 
Q 4.6875 15.828125 4.5 23 
z
" id="ArialMT-83"/>
       <path d="M 6.59375 -19.875 
L 6.59375 51.859375 
L 14.59375 51.859375 
L 14.59375 45.125 
Q 17.4375 49.078125 21 51.046875 
Q 24.5625 53.03125 29.640625 53.03125 
Q 36.28125 53.03125 41.359375 49.609375 
Q 46.4375 46.1875 49.015625 39.953125 
Q 51.609375 33.734375 51.609375 26.3125 
Q 51.609375 18.359375 48.75 11.984375 
Q 45.90625 5.609375 40.453125 2.21875 
Q 35.015625 -1.171875 29 -1.171875 
Q 24.609375 -1.171875 21.109375 0.6875 
Q 17.625 2.546875 15.375 5.375 
L 15.375 -19.875 
z
M 14.546875 25.640625 
Q 14.546875 15.625 18.59375 10.84375 
Q 22.65625 6.0625 28.421875 6.0625 
Q 34.28125 6.0625 38.453125 11.015625 
Q 42.625 15.96875 42.625 26.375 
Q 42.625 36.28125 38.546875 41.203125 
Q 34.46875 46.140625 28.8125 46.140625 
Q 23.1875 46.140625 18.859375 40.890625 
Q 14.546875 35.640625 14.546875 25.640625 
z
" id="ArialMT-112"/>
       <path d="M 3.078125 15.484375 
L 11.765625 16.84375 
Q 12.5 11.625 15.84375 8.84375 
Q 19.1875 6.0625 25.203125 6.0625 
Q 31.25 6.0625 34.171875 8.515625 
Q 37.109375 10.984375 37.109375 14.3125 
Q 37.109375 17.28125 34.515625 19 
Q 32.71875 20.171875 25.53125 21.96875 
Q 15.875 24.421875 12.140625 26.203125 
Q 8.40625 27.984375 6.46875 31.125 
Q 4.546875 34.28125 4.546875 38.09375 
Q 4.546875 41.546875 6.125 44.5 
Q 7.71875 47.46875 10.453125 49.421875 
Q 12.5 50.921875 16.03125 51.96875 
Q 19.578125 53.03125 23.640625 53.03125 
Q 29.734375 53.03125 34.34375 51.265625 
Q 38.96875 49.515625 41.15625 46.5 
Q 43.359375 43.5 44.1875 38.484375 
L 35.59375 37.3125 
Q 35.015625 41.3125 32.203125 43.546875 
Q 29.390625 45.796875 24.265625 45.796875 
Q 18.21875 45.796875 15.625 43.796875 
Q 13.03125 41.796875 13.03125 39.109375 
Q 13.03125 37.40625 14.109375 36.03125 
Q 15.1875 34.625 17.484375 33.6875 
Q 18.796875 33.203125 25.25 31.453125 
Q 34.578125 28.953125 38.25 27.359375 
Q 41.9375 25.78125 44.03125 22.75 
Q 46.140625 19.734375 46.140625 15.234375 
Q 46.140625 10.84375 43.578125 6.953125 
Q 41.015625 3.078125 36.171875 0.953125 
Q 31.34375 -1.171875 25.25 -1.171875 
Q 15.140625 -1.171875 9.84375 3.03125 
Q 4.546875 7.234375 3.078125 15.484375 
z
" id="ArialMT-115"/>
      </defs>
      <use xlink:href="#ArialMT-69"/>
      <use x="66.699219" xlink:href="#ArialMT-110"/>
      <use x="122.314453" xlink:href="#ArialMT-118"/>
      <use x="172.314453" xlink:href="#ArialMT-105"/>
      <use x="194.53125" xlink:href="#ArialMT-114"/>
      <use x="227.832031" xlink:href="#ArialMT-111"/>
      <use x="283.447266" xlink:href="#ArialMT-110"/>
      <use x="339.0625" xlink:href="#ArialMT-109"/>
      <use x="422.363281" xlink:href="#ArialMT-101"/>
      <use x="477.978516" xlink:href="#ArialMT-110"/>
      <use x="533.59375" xlink:href="#ArialMT-116"/>
      <use x="561.376953" xlink:href="#ArialMT-32"/>
      <use x="589.160156" xlink:href="#ArialMT-83"/>
      <use x="655.859375" xlink:href="#ArialMT-116"/>
      <use x="683.642578" xlink:href="#ArialMT-101"/>
      <use x="739.257812" xlink:href="#ArialMT-112"/>
      <use x="794.873047" xlink:href="#ArialMT-115"/>
     </g>
    </g>
    <g id="text_9">
     <!-- 1e3 -->
     <g style="fill:#262626;" transform="translate(953.648906 543.073437)scale(0.11 -0.11)">
      <use xlink:href="#ArialMT-49"/>
      <use x="55.615234" xlink:href="#ArialMT-101"/>
      <use x="111.230469" xlink:href="#ArialMT-51"/>
     </g>
    </g>
   </g>
   <g id="matplotlib.axis_2">
    <g id="ytick_1">
     <g id="line2d_8">
      <path clip-path="url(#p7c9a7e2f07)" d="M 135 512.64 
L 972 512.64 
" style="fill:none;stroke:#ffffff;stroke-linecap:round;"/>
     </g>
     <g id="text_10">
      <!-- −400 -->
      <g style="fill:#262626;" transform="translate(100.724219 516.576797)scale(0.11 -0.11)">
       <defs>
        <path d="M 52.828125 31.203125 
L 5.5625 31.203125 
L 5.5625 39.40625 
L 52.828125 39.40625 
z
" id="ArialMT-8722"/>
        <path d="M 32.328125 0 
L 32.328125 17.140625 
L 1.265625 17.140625 
L 1.265625 25.203125 
L 33.9375 71.578125 
L 41.109375 71.578125 
L 41.109375 25.203125 
L 50.78125 25.203125 
L 50.78125 17.140625 
L 41.109375 17.140625 
L 41.109375 0 
z
M 32.328125 25.203125 
L 32.328125 57.46875 
L 9.90625 25.203125 
z
" id="ArialMT-52"/>
       </defs>
       <use xlink:href="#ArialMT-8722"/>
       <use x="58.398438" xlink:href="#ArialMT-52"/>
       <use x="114.013672" xlink:href="#ArialMT-48"/>
       <use x="169.628906" xlink:href="#ArialMT-48"/>
      </g>
     </g>
    </g>
    <g id="ytick_2">
     <g id="line2d_9">
      <path clip-path="url(#p7c9a7e2f07)" d="M 135 395.516782 
L 972 395.516782 
" style="fill:none;stroke:#ffffff;stroke-linecap:round;"/>
     </g>
     <g id="text_11">
      <!-- −200 -->
      <g style="fill:#262626;" transform="translate(100.724219 399.453579)scale(0.11 -0.11)">
       <use xlink:href="#ArialMT-8722"/>
       <use x="58.398438" xlink:href="#ArialMT-50"/>
       <use x="114.013672" xlink:href="#ArialMT-48"/>
       <use x="169.628906" xlink:href="#ArialMT-48"/>
      </g>
     </g>
    </g>
    <g id="ytick_3">
     <g id="line2d_10">
      <path clip-path="url(#p7c9a7e2f07)" d="M 135 278.393564 
L 972 278.393564 
" style="fill:none;stroke:#ffffff;stroke-linecap:round;"/>
     </g>
     <g id="text_12">
      <!-- 0 -->
      <g style="fill:#262626;" transform="translate(119.382969 282.330361)scale(0.11 -0.11)">
       <use xlink:href="#ArialMT-48"/>
      </g>
     </g>
    </g>
    <g id="ytick_4">
     <g id="line2d_11">
      <path clip-path="url(#p7c9a7e2f07)" d="M 135 161.270346 
L 972 161.270346 
" style="fill:none;stroke:#ffffff;stroke-linecap:round;"/>
     </g>
     <g id="text_13">
      <!-- 200 -->
      <g style="fill:#262626;" transform="translate(107.148906 165.207143)scale(0.11 -0.11)">
       <use xlink:href="#ArialMT-50"/>
       <use x="55.615234" xlink:href="#ArialMT-48"/>
       <use x="111.230469" xlink:href="#ArialMT-48"/>
      </g>
     </g>
    </g>
    <g id="ytick_5">
     <g id="line2d_12">
      <path clip-path="url(#p7c9a7e2f07)" d="M 135 103.671961 
L 972 103.671961 
" style="fill:none;stroke:#ffffff;stroke-linecap:round;"/>
     </g>
     <g id="text_14">
      <!-- 298 -->
      <g style="fill:#262626;" transform="translate(107.148906 107.608758)scale(0.11 -0.11)">
       <defs>
        <path d="M 5.46875 16.546875 
L 13.921875 17.328125 
Q 14.984375 11.375 18.015625 8.6875 
Q 21.046875 6 25.78125 6 
Q 29.828125 6 32.875 7.859375 
Q 35.9375 9.71875 37.890625 12.8125 
Q 39.84375 15.921875 41.15625 21.1875 
Q 42.484375 26.46875 42.484375 31.9375 
Q 42.484375 32.515625 42.4375 33.6875 
Q 39.796875 29.5 35.234375 26.875 
Q 30.671875 24.265625 25.34375 24.265625 
Q 16.453125 24.265625 10.296875 30.703125 
Q 4.15625 37.15625 4.15625 47.703125 
Q 4.15625 58.59375 10.578125 65.234375 
Q 17 71.875 26.65625 71.875 
Q 33.640625 71.875 39.421875 68.109375 
Q 45.21875 64.359375 48.21875 57.390625 
Q 51.21875 50.4375 51.21875 37.25 
Q 51.21875 23.53125 48.234375 15.40625 
Q 45.265625 7.28125 39.375 3.03125 
Q 33.5 -1.21875 25.59375 -1.21875 
Q 17.1875 -1.21875 11.859375 3.4375 
Q 6.546875 8.109375 5.46875 16.546875 
z
M 41.453125 48.140625 
Q 41.453125 55.71875 37.421875 60.15625 
Q 33.40625 64.59375 27.734375 64.59375 
Q 21.875 64.59375 17.53125 59.8125 
Q 13.1875 55.03125 13.1875 47.40625 
Q 13.1875 40.578125 17.3125 36.296875 
Q 21.4375 32.03125 27.484375 32.03125 
Q 33.59375 32.03125 37.515625 36.296875 
Q 41.453125 40.578125 41.453125 48.140625 
z
" id="ArialMT-57"/>
        <path d="M 17.671875 38.8125 
Q 12.203125 40.828125 9.5625 44.53125 
Q 6.9375 48.25 6.9375 53.421875 
Q 6.9375 61.234375 12.546875 66.546875 
Q 18.171875 71.875 27.484375 71.875 
Q 36.859375 71.875 42.578125 66.421875 
Q 48.296875 60.984375 48.296875 53.171875 
Q 48.296875 48.1875 45.671875 44.5 
Q 43.0625 40.828125 37.75 38.8125 
Q 44.34375 36.671875 47.78125 31.875 
Q 51.21875 27.09375 51.21875 20.453125 
Q 51.21875 11.28125 44.71875 5.03125 
Q 38.234375 -1.21875 27.640625 -1.21875 
Q 17.046875 -1.21875 10.546875 5.046875 
Q 4.046875 11.328125 4.046875 20.703125 
Q 4.046875 27.6875 7.59375 32.390625 
Q 11.140625 37.109375 17.671875 38.8125 
z
M 15.921875 53.71875 
Q 15.921875 48.640625 19.1875 45.40625 
Q 22.46875 42.1875 27.6875 42.1875 
Q 32.765625 42.1875 36.015625 45.375 
Q 39.265625 48.578125 39.265625 53.21875 
Q 39.265625 58.0625 35.90625 61.359375 
Q 32.5625 64.65625 27.59375 64.65625 
Q 22.5625 64.65625 19.234375 61.421875 
Q 15.921875 58.203125 15.921875 53.71875 
z
M 13.09375 20.65625 
Q 13.09375 16.890625 14.875 13.375 
Q 16.65625 9.859375 20.171875 7.921875 
Q 23.6875 6 27.734375 6 
Q 34.03125 6 38.125 10.046875 
Q 42.234375 14.109375 42.234375 20.359375 
Q 42.234375 26.703125 38.015625 30.859375 
Q 33.796875 35.015625 27.4375 35.015625 
Q 21.234375 35.015625 17.15625 30.90625 
Q 13.09375 26.8125 13.09375 20.65625 
z
" id="ArialMT-56"/>
       </defs>
       <use xlink:href="#ArialMT-50"/>
       <use x="55.615234" xlink:href="#ArialMT-57"/>
       <use x="111.230469" xlink:href="#ArialMT-56"/>
      </g>
     </g>
    </g>
    <g id="text_15">
     <!-- avg reward -->
     <g style="fill:#262626;" transform="translate(93.567188 327.978047)rotate(-90)scale(0.15 -0.15)">
      <defs>
       <path d="M 40.4375 6.390625 
Q 35.546875 2.25 31.03125 0.53125 
Q 26.515625 -1.171875 21.34375 -1.171875 
Q 12.796875 -1.171875 8.203125 3 
Q 3.609375 7.171875 3.609375 13.671875 
Q 3.609375 17.484375 5.34375 20.625 
Q 7.078125 23.78125 9.890625 25.6875 
Q 12.703125 27.59375 16.21875 28.5625 
Q 18.796875 29.25 24.03125 29.890625 
Q 34.671875 31.15625 39.703125 32.90625 
Q 39.75 34.71875 39.75 35.203125 
Q 39.75 40.578125 37.25 42.78125 
Q 33.890625 45.75 27.25 45.75 
Q 21.046875 45.75 18.09375 43.578125 
Q 15.140625 41.40625 13.71875 35.890625 
L 5.125 37.0625 
Q 6.296875 42.578125 8.984375 45.96875 
Q 11.671875 49.359375 16.75 51.1875 
Q 21.828125 53.03125 28.515625 53.03125 
Q 35.15625 53.03125 39.296875 51.46875 
Q 43.453125 49.90625 45.40625 47.53125 
Q 47.359375 45.171875 48.140625 41.546875 
Q 48.578125 39.3125 48.578125 33.453125 
L 48.578125 21.734375 
Q 48.578125 9.46875 49.140625 6.21875 
Q 49.703125 2.984375 51.375 0 
L 42.1875 0 
Q 40.828125 2.734375 40.4375 6.390625 
z
M 39.703125 26.03125 
Q 34.90625 24.078125 25.34375 22.703125 
Q 19.921875 21.921875 17.671875 20.9375 
Q 15.4375 19.96875 14.203125 18.09375 
Q 12.984375 16.21875 12.984375 13.921875 
Q 12.984375 10.40625 15.640625 8.0625 
Q 18.3125 5.71875 23.4375 5.71875 
Q 28.515625 5.71875 32.46875 7.9375 
Q 36.421875 10.15625 38.28125 14.015625 
Q 39.703125 17 39.703125 22.796875 
z
" id="ArialMT-97"/>
       <path d="M 4.984375 -4.296875 
L 13.53125 -5.5625 
Q 14.0625 -9.515625 16.5 -11.328125 
Q 19.78125 -13.765625 25.4375 -13.765625 
Q 31.546875 -13.765625 34.859375 -11.328125 
Q 38.1875 -8.890625 39.359375 -4.5 
Q 40.046875 -1.8125 39.984375 6.78125 
Q 34.234375 0 25.640625 0 
Q 14.9375 0 9.078125 7.71875 
Q 3.21875 15.4375 3.21875 26.21875 
Q 3.21875 33.640625 5.90625 39.90625 
Q 8.59375 46.1875 13.6875 49.609375 
Q 18.796875 53.03125 25.6875 53.03125 
Q 34.859375 53.03125 40.828125 45.609375 
L 40.828125 51.859375 
L 48.921875 51.859375 
L 48.921875 7.03125 
Q 48.921875 -5.078125 46.453125 -10.125 
Q 44 -15.1875 38.640625 -18.109375 
Q 33.296875 -21.046875 25.484375 -21.046875 
Q 16.21875 -21.046875 10.5 -16.875 
Q 4.78125 -12.703125 4.984375 -4.296875 
z
M 12.25 26.859375 
Q 12.25 16.65625 16.296875 11.96875 
Q 20.359375 7.28125 26.46875 7.28125 
Q 32.515625 7.28125 36.609375 11.9375 
Q 40.71875 16.609375 40.71875 26.5625 
Q 40.71875 36.078125 36.5 40.90625 
Q 32.28125 45.75 26.3125 45.75 
Q 20.453125 45.75 16.34375 40.984375 
Q 12.25 36.234375 12.25 26.859375 
z
" id="ArialMT-103"/>
       <path d="M 16.15625 0 
L 0.296875 51.859375 
L 9.375 51.859375 
L 17.625 21.921875 
L 20.703125 10.796875 
Q 20.90625 11.625 23.390625 21.484375 
L 31.640625 51.859375 
L 40.671875 51.859375 
L 48.4375 21.78125 
L 51.03125 11.859375 
L 54 21.875 
L 62.890625 51.859375 
L 71.4375 51.859375 
L 55.21875 0 
L 46.09375 0 
L 37.84375 31.0625 
L 35.84375 39.890625 
L 25.34375 0 
z
" id="ArialMT-119"/>
       <path d="M 40.234375 0 
L 40.234375 6.546875 
Q 35.296875 -1.171875 25.734375 -1.171875 
Q 19.53125 -1.171875 14.328125 2.25 
Q 9.125 5.671875 6.265625 11.796875 
Q 3.421875 17.921875 3.421875 25.875 
Q 3.421875 33.640625 6 39.96875 
Q 8.59375 46.296875 13.765625 49.65625 
Q 18.953125 53.03125 25.34375 53.03125 
Q 30.03125 53.03125 33.6875 51.046875 
Q 37.359375 49.078125 39.65625 45.90625 
L 39.65625 71.578125 
L 48.390625 71.578125 
L 48.390625 0 
z
M 12.453125 25.875 
Q 12.453125 15.921875 16.640625 10.984375 
Q 20.84375 6.0625 26.5625 6.0625 
Q 32.328125 6.0625 36.34375 10.765625 
Q 40.375 15.484375 40.375 25.140625 
Q 40.375 35.796875 36.265625 40.765625 
Q 32.171875 45.75 26.171875 45.75 
Q 20.3125 45.75 16.375 40.96875 
Q 12.453125 36.1875 12.453125 25.875 
z
" id="ArialMT-100"/>
      </defs>
      <use xlink:href="#ArialMT-97"/>
      <use x="55.615234" xlink:href="#ArialMT-118"/>
      <use x="105.615234" xlink:href="#ArialMT-103"/>
      <use x="161.230469" xlink:href="#ArialMT-32"/>
      <use x="189.013672" xlink:href="#ArialMT-114"/>
      <use x="222.314453" xlink:href="#ArialMT-101"/>
      <use x="277.929688" xlink:href="#ArialMT-119"/>
      <use x="350.146484" xlink:href="#ArialMT-97"/>
      <use x="405.761719" xlink:href="#ArialMT-114"/>
      <use x="439.0625" xlink:href="#ArialMT-100"/>
     </g>
    </g>
   </g>
   <g id="line2d_13">
    <path clip-path="url(#p7c9a7e2f07)" d="M 173.078314 577 
L 175.507944 453.051525 
L 177.970432 466.754778 
L 180.432921 413.369146 
L 182.89541 405.416514 
L 185.357899 415.472649 
L 187.820388 440.891252 
L 190.282877 322.66479 
L 192.745366 360.59407 
L 195.207855 331.996027 
L 197.670344 276.508993 
L 200.132833 330.727399 
L 202.595322 202.177411 
L 205.057811 205.036941 
L 207.5203 164.1863 
L 209.982789 193.816646 
L 212.445278 183.701231 
L 214.907767 313.334348 
L 217.370256 192.239443 
L 219.832745 160.117146 
L 222.295234 161.176904 
L 224.757723 148.132211 
L 227.220212 133.36199 
L 229.682701 222.098581 
L 232.14519 204.618822 
L 237.070168 152.625672 
L 239.532657 149.440679 
L 241.995146 200.954262 
L 244.457635 196.037539 
L 246.920124 228.861993 
L 249.382613 209.95185 
L 251.845102 145.23487 
L 254.30759 163.307814 
L 256.770079 184.189554 
L 259.232568 172.574489 
L 261.695057 155.666031 
L 264.157546 151.403051 
L 266.620035 229.702918 
L 269.082524 146.125044 
L 271.545013 141.134342 
L 274.007502 185.019966 
L 276.469991 162.431382 
L 278.93248 177.56093 
L 281.394969 150.752847 
L 283.857458 186.397204 
L 286.319947 146.689393 
L 288.782436 164.701333 
L 291.244925 189.267711 
L 293.707414 134.894639 
L 296.169903 159.775736 
L 298.632392 186.598411 
L 301.094881 169.447355 
L 303.55737 143.480023 
L 306.019859 169.816457 
L 308.482348 171.582974 
L 310.944837 142.48294 
L 313.407326 164.106414 
L 315.869815 139.076983 
L 318.332304 138.926227 
L 320.794793 184.66702 
L 323.257282 180.355974 
L 325.719771 210.477065 
L 328.182259 156.222257 
L 330.644748 208.888661 
L 333.107237 182.340971 
L 335.569726 178.210973 
L 338.032215 262.531676 
L 342.957193 146.671406 
L 345.419682 179.403463 
L 347.882171 201.807425 
L 350.34466 145.834649 
L 352.807149 159.601086 
L 355.269638 169.461778 
L 357.732127 144.764114 
L 360.194616 137.212262 
L 362.657105 169.120832 
L 365.119594 187.771198 
L 367.582083 191.177272 
L 370.044572 202.193219 
L 372.507061 179.939155 
L 374.96955 130.209406 
L 377.432039 158.05414 
L 379.894528 141.17785 
L 382.357017 180.524673 
L 384.819506 149.910183 
L 387.281995 154.678465 
L 389.744484 153.947196 
L 392.206973 183.544899 
L 394.669462 147.348998 
L 397.131951 159.400397 
L 399.59444 160.501957 
L 402.056929 173.483733 
L 404.519417 132.269187 
L 406.981906 127.693516 
L 409.444395 180.749185 
L 411.906884 118.018037 
L 414.369373 122.526466 
L 416.831862 140.684514 
L 419.294351 126.83098 
L 421.75684 248.094249 
L 424.219329 124.663496 
L 426.681818 125.849722 
L 429.144307 125.395302 
L 431.606796 129.892552 
L 434.069285 132.875873 
L 436.531774 148.781611 
L 438.994263 229.3727 
L 441.456752 147.27727 
L 443.919241 128.761093 
L 446.38173 142.425233 
L 448.844219 141.737561 
L 451.306708 121.955004 
L 453.769197 194.531188 
L 456.231686 138.112203 
L 458.694175 114.639181 
L 461.156664 134.224293 
L 463.619153 141.71599 
L 466.081642 193.575451 
L 468.544131 172.643358 
L 471.00662 142.806488 
L 473.469109 144.142326 
L 475.931598 310.7088 
L 478.394086 153.460427 
L 480.856575 156.123794 
L 483.319064 163.215775 
L 485.781553 192.681282 
L 488.244042 191.169427 
L 490.706531 113.948659 
L 493.16902 169.378568 
L 495.631509 155.673618 
L 498.093998 123.5986 
L 500.556487 287.343775 
L 503.018976 488.304209 
L 505.481465 166.825353 
L 507.943954 203.588212 
L 510.406443 132.970816 
L 512.868932 171.426723 
L 515.331421 149.329965 
L 517.79391 166.557833 
L 520.256399 177.9135 
L 522.718888 115.785733 
L 525.181377 120.357838 
L 527.643866 118.605833 
L 530.106355 113.718169 
L 532.568844 158.184263 
L 535.031333 128.749682 
L 537.493822 121.895134 
L 539.956311 118.852103 
L 542.4188 126.56312 
L 544.881289 116.038044 
L 547.343778 125.513397 
L 549.806267 245.828013 
L 552.268756 128.155425 
L 554.731244 127.771543 
L 557.193733 136.675408 
L 559.656222 139.202826 
L 562.118711 129.875628 
L 564.5812 162.561836 
L 567.043689 130.94207 
L 569.506178 127.550954 
L 571.968667 119.25652 
L 574.431156 153.041562 
L 576.893645 171.415839 
L 579.356134 229.627437 
L 581.818623 151.952923 
L 584.281112 159.928243 
L 586.743601 127.52874 
L 589.20609 117.074131 
L 591.668579 138.616879 
L 594.131068 123.404121 
L 596.593557 123.788771 
L 599.056046 130.778947 
L 601.518535 117.567172 
L 603.981024 119.887762 
L 606.443513 130.978045 
L 608.906002 114.47873 
L 611.368491 122.396253 
L 613.83098 113.927946 
L 616.293469 114.417037 
L 618.755958 124.247982 
L 621.218447 148.407693 
L 623.680936 116.549868 
L 626.143425 136.118136 
L 628.605914 128.413491 
L 631.068402 131.964074 
L 633.530891 118.662093 
L 635.99338 191.9502 
L 638.455869 117.389636 
L 640.918358 119.202529 
L 643.380847 116.597317 
L 645.843336 132.743525 
L 648.305825 140.242058 
L 650.768314 119.710833 
L 653.230803 120.008627 
L 655.693292 121.645807 
L 658.155781 122.521855 
L 660.61827 164.318148 
L 663.080759 124.721471 
L 665.543248 136.195494 
L 668.005737 134.006198 
L 670.468226 147.041472 
L 672.930715 116.410934 
L 675.393204 119.245368 
L 677.855693 113.972249 
L 680.318182 125.092629 
L 682.780671 132.890778 
L 685.24316 107.547808 
L 687.705649 111.195541 
L 690.168138 115.472944 
L 692.630627 147.307616 
L 695.093116 136.30972 
L 697.555605 147.38122 
L 700.018094 132.622294 
L 702.480583 121.966066 
L 704.943071 128.437921 
L 707.40556 157.991634 
L 709.868049 119.066616 
L 712.330538 184.34627 
L 717.255516 126.297298 
L 719.718005 152.981067 
L 722.180494 140.195154 
L 724.642983 120.172974 
L 727.105472 143.651867 
L 729.567961 125.808046 
L 732.03045 141.38777 
L 734.492939 119.250872 
L 736.955428 128.173118 
L 739.417917 117.58953 
L 741.880406 142.280161 
L 744.342895 114.929416 
L 746.805384 135.239373 
L 749.267873 117.037584 
L 751.730362 134.4198 
L 754.192851 113.555377 
L 756.65534 127.649069 
L 759.117829 115.924666 
L 761.580318 115.318266 
L 764.042807 125.757451 
L 766.505296 111.893141 
L 768.967785 114.80578 
L 771.430274 121.010848 
L 773.892763 121.5572 
L 776.355252 118.176861 
L 778.817741 115.042704 
L 781.280229 117.286964 
L 783.742718 116.919971 
L 786.205207 111.718982 
L 788.667696 125.368798 
L 791.130185 120.919542 
L 793.592674 120.116858 
L 796.055163 105.90448 
L 798.517652 150.281081 
L 800.980141 113.066678 
L 803.44263 117.7646 
L 805.905119 112.213239 
L 808.367608 113.069663 
L 810.830097 134.756205 
L 813.292586 143.095176 
L 815.755075 150.43509 
L 818.217564 116.747689 
L 820.680053 169.624677 
L 823.142542 122.407173 
L 825.605031 114.386727 
L 828.06752 117.029488 
L 830.530009 117.18363 
L 832.992498 110.64238 
L 837.917476 118.550985 
L 840.379965 114.469187 
L 842.842454 162.651453 
L 845.304943 141.422012 
L 847.767432 116.109333 
L 850.229921 130.732132 
L 852.69241 111.136994 
L 855.154898 116.410416 
L 857.617387 124.761307 
L 860.079876 112.276736 
L 862.542365 118.092061 
L 865.004854 121.421698 
L 867.467343 131.50011 
L 869.929832 111.782462 
L 872.392321 115.362212 
L 874.85481 143.477709 
L 877.317299 123.210393 
L 879.779788 109.366867 
L 882.242277 131.302647 
L 884.704766 110.456623 
L 887.167255 113.500976 
L 889.629744 105.857621 
L 892.092233 122.918389 
L 894.554722 120.405466 
L 897.017211 130.011755 
L 899.4797 112.38225 
L 901.942189 128.622937 
L 904.404678 113.524423 
L 906.867167 108.492017 
L 909.329656 124.544972 
L 911.792145 113.497133 
L 914.254634 174.265061 
L 916.717123 142.223758 
L 919.179612 119.33637 
L 921.642101 112.806021 
L 924.10459 112.080792 
L 926.567079 143.738285 
L 929.029568 120.894826 
L 931.492056 123.925203 
L 933.954545 127.527096 
L 933.954545 127.527096 
" style="fill:none;stroke:#4c72b0;stroke-linecap:round;stroke-opacity:0.3;stroke-width:1.5;"/>
   </g>
   <g id="line2d_14">
    <path clip-path="url(#p7c9a7e2f07)" d="M 173.374047 577 
L 175.507944 566.113848 
L 177.970432 556.177941 
L 182.89541 528.249006 
L 185.357899 516.971371 
L 187.820388 509.363359 
L 190.282877 490.693502 
L 192.745366 477.683559 
L 195.207855 463.114806 
L 197.670344 444.454224 
L 200.132833 433.081542 
L 202.595322 409.991129 
L 205.057811 389.49571 
L 207.5203 366.964769 
L 212.445278 333.055084 
L 214.907767 331.083011 
L 217.370256 317.198654 
L 219.832745 301.490503 
L 227.220212 259.510004 
L 229.682701 255.768862 
L 232.14519 250.653858 
L 234.607679 243.446406 
L 237.070168 234.364333 
L 239.532657 225.871967 
L 241.995146 223.380197 
L 244.457635 220.645931 
L 246.920124 221.467537 
L 249.382613 220.315969 
L 251.845102 212.807859 
L 254.30759 207.857854 
L 256.770079 205.491024 
L 259.232568 202.199371 
L 264.157546 192.931738 
L 266.620035 196.608856 
L 271.545013 186.517862 
L 274.007502 186.368072 
L 276.469991 183.974403 
L 278.93248 183.333056 
L 281.394969 180.075035 
L 283.857458 180.707252 
L 286.319947 177.305466 
L 288.782436 176.045053 
L 291.244925 177.367318 
L 293.707414 173.12005 
L 296.169903 171.785619 
L 298.632392 173.266898 
L 301.094881 172.884944 
L 303.55737 169.944452 
L 306.019859 169.931652 
L 308.482348 170.096785 
L 310.944837 167.3354 
L 313.407326 167.012502 
L 315.869815 164.21895 
L 318.332304 161.689677 
L 320.794793 163.987412 
L 323.257282 165.624268 
L 325.719771 170.109548 
L 328.182259 168.720819 
L 330.644748 172.737603 
L 333.107237 173.69794 
L 335.569726 174.149243 
L 338.032215 182.987486 
L 340.494704 185.076705 
L 342.957193 181.236175 
L 345.419682 181.052904 
L 347.882171 183.128356 
L 350.34466 179.398985 
L 352.807149 177.419195 
L 355.269638 176.623454 
L 357.732127 173.43752 
L 360.194616 169.814994 
L 362.657105 169.745578 
L 365.119594 171.54814 
L 367.582083 173.511053 
L 370.044572 176.37927 
L 372.507061 176.735258 
L 374.96955 172.082673 
L 377.432039 170.67982 
L 379.894528 167.729623 
L 382.357017 169.009128 
L 384.819506 167.099233 
L 389.744484 164.66616 
L 392.206973 166.554034 
L 394.669462 164.633531 
L 397.131951 164.110217 
L 399.59444 163.749391 
L 402.056929 164.722825 
L 406.981906 158.099067 
L 409.444395 160.364079 
L 411.906884 156.129475 
L 414.369373 152.769174 
L 416.831862 151.560708 
L 419.294351 149.087735 
L 421.75684 158.988386 
L 424.219329 155.555897 
L 426.681818 152.58528 
L 429.144307 149.866282 
L 431.606796 147.868909 
L 434.069285 146.369605 
L 436.531774 146.610806 
L 438.994263 154.886995 
L 441.456752 154.126023 
L 443.919241 151.58953 
L 448.844219 149.779546 
L 451.306708 146.997092 
L 453.769197 151.750502 
L 456.231686 150.386672 
L 458.694175 146.811923 
L 461.156664 145.55316 
L 463.619153 145.169443 
L 466.081642 150.010044 
L 468.544131 152.273375 
L 471.00662 151.326686 
L 473.469109 150.60825 
L 475.931598 166.618305 
L 478.394086 165.302518 
L 480.856575 164.384645 
L 483.319064 164.267758 
L 485.781553 167.109111 
L 488.244042 169.515142 
L 490.706531 163.958494 
L 493.16902 164.500501 
L 495.631509 163.617813 
L 498.093998 159.615892 
L 500.556487 172.38868 
L 503.018976 203.980233 
L 505.481465 200.264745 
L 507.943954 200.597092 
L 510.406443 193.834464 
L 512.868932 191.59369 
L 515.331421 187.367317 
L 517.79391 185.286369 
L 520.256399 184.549082 
L 522.718888 177.672747 
L 525.181377 171.941256 
L 530.106355 161.318759 
L 532.568844 161.00531 
L 535.031333 157.779747 
L 539.956311 150.657367 
L 542.4188 148.247943 
L 544.881289 145.026953 
L 547.343778 143.075597 
L 549.806267 153.350839 
L 552.268756 150.831297 
L 554.731244 148.525322 
L 557.193733 147.340331 
L 559.656222 146.52658 
L 562.118711 144.861485 
L 564.5812 146.63152 
L 567.043689 145.062575 
L 569.506178 143.311413 
L 571.968667 140.905924 
L 574.431156 142.119487 
L 576.893645 145.049123 
L 579.356134 153.506954 
L 581.818623 153.351551 
L 584.281112 154.00922 
L 586.743601 151.361172 
L 589.20609 147.932468 
L 591.668579 147.000909 
L 594.131068 144.64123 
L 596.593557 142.555984 
L 599.056046 141.378281 
L 601.518535 138.99717 
L 603.981024 137.086229 
L 606.443513 136.475411 
L 608.906002 134.275743 
L 611.368491 133.087794 
L 613.83098 131.171809 
L 616.293469 129.496332 
L 618.755958 128.971497 
L 621.218447 130.915116 
L 623.680936 129.478591 
L 626.143425 130.142546 
L 628.605914 129.96964 
L 631.068402 130.169084 
L 633.530891 129.018385 
L 635.99338 135.311566 
L 638.455869 133.519373 
L 643.380847 130.538652 
L 645.843336 130.759139 
L 648.305825 131.707431 
L 650.768314 130.507771 
L 653.230803 129.457857 
L 655.693292 128.676652 
L 658.155781 128.061172 
L 660.61827 131.68687 
L 663.080759 130.99033 
L 665.543248 131.510846 
L 668.005737 131.760381 
L 670.468226 133.28849 
L 672.930715 131.600735 
L 675.393204 130.365198 
L 677.855693 128.725903 
L 680.318182 128.362576 
L 682.780671 128.815396 
L 685.24316 126.688637 
L 687.705649 125.139328 
L 690.168138 124.172689 
L 692.630627 126.486182 
L 695.093116 127.468536 
L 697.555605 129.459804 
L 700.018094 129.776053 
L 702.480583 128.995054 
L 704.943071 128.939341 
L 707.40556 131.84457 
L 709.868049 130.566775 
L 712.330538 135.944724 
L 714.793027 137.897363 
L 717.255516 136.737357 
L 719.718005 138.361728 
L 722.180494 138.545071 
L 724.642983 136.707861 
L 727.105472 137.402262 
L 729.567961 136.24284 
L 732.03045 136.757333 
L 734.492939 135.006687 
L 736.955428 134.32333 
L 739.417917 132.64995 
L 741.880406 133.612971 
L 744.342895 131.744615 
L 746.805384 132.094091 
L 749.267873 130.58844 
L 751.730362 130.971576 
L 754.192851 129.229956 
L 756.65534 129.071868 
L 761.580318 126.513259 
L 764.042807 126.437679 
L 766.505296 124.983225 
L 768.967785 123.96548 
L 773.892763 123.458735 
L 776.355252 122.930548 
L 778.817741 122.141764 
L 783.742718 121.182652 
L 786.205207 120.236285 
L 788.667696 120.749537 
L 793.592674 120.701569 
L 796.055163 119.22186 
L 798.517652 122.327782 
L 800.980141 121.401672 
L 803.44263 121.037965 
L 805.905119 120.155492 
L 808.367608 119.446909 
L 810.830097 120.977839 
L 813.292586 123.189573 
L 815.755075 125.914124 
L 818.217564 124.997481 
L 820.680053 129.4602 
L 823.142542 128.754898 
L 825.605031 127.318081 
L 830.530009 125.378662 
L 832.992498 123.905034 
L 835.454987 122.965856 
L 837.917476 122.524369 
L 840.379965 121.718851 
L 842.842454 125.812111 
L 845.304943 127.373101 
L 847.767432 126.246724 
L 850.229921 126.695265 
L 852.69241 125.139438 
L 855.154898 124.266536 
L 857.617387 124.316013 
L 860.079876 123.112085 
L 862.542365 122.610083 
L 865.004854 122.491244 
L 867.467343 123.392131 
L 869.929832 122.231164 
L 872.392321 121.544269 
L 874.85481 123.737613 
L 877.317299 123.684891 
L 879.779788 122.253088 
L 882.242277 123.158044 
L 884.704766 121.887902 
L 887.167255 121.049209 
L 889.629744 119.530051 
L 892.092233 119.868884 
L 894.554722 119.922543 
L 897.017211 120.931464 
L 899.4797 120.076543 
L 901.942189 120.931182 
L 904.404678 120.190506 
L 906.867167 119.020657 
L 909.329656 119.573089 
L 911.792145 118.965493 
L 914.254634 124.49545 
L 916.717123 126.268281 
L 919.179612 125.57509 
L 924.10459 123.076444 
L 926.567079 125.142628 
L 929.029568 124.717848 
L 931.492056 124.638583 
L 933.954545 124.927434 
L 933.954545 124.927434 
" style="fill:none;stroke:#4c72b0;stroke-linecap:round;stroke-width:2;"/>
   </g>
   <g id="line2d_15">
    <path clip-path="url(#p7c9a7e2f07)" d="M 173.045455 475.488889 
L 175.507944 568.952148 
L 177.970432 394.910479 
L 180.432921 422.396164 
L 182.89541 363.104447 
L 185.357899 517.827245 
L 187.820388 430.435071 
L 190.282877 556.804671 
L 192.745366 428.815387 
L 195.207855 314.67541 
L 197.670344 213.879578 
L 200.132833 286.02668 
L 202.595322 239.027721 
L 205.057811 316.629819 
L 207.5203 361.20879 
L 209.982789 351.298223 
L 212.445278 250.217489 
L 214.907767 165.570678 
L 217.370256 208.873211 
L 219.832745 153.407545 
L 222.295234 332.947926 
L 224.757723 264.752593 
L 227.220212 230.22165 
L 229.682701 296.498304 
L 232.14519 284.242681 
L 234.607679 178.581049 
L 237.070168 184.625987 
L 239.532657 168.648352 
L 241.995146 266.366938 
L 244.457635 238.801534 
L 246.920124 254.711601 
L 249.382613 201.388193 
L 251.845102 143.666558 
L 254.30759 289.320386 
L 256.770079 227.144846 
L 259.232568 155.870938 
L 261.695057 154.676714 
L 264.157546 208.216327 
L 266.620035 241.56077 
L 269.082524 188.925873 
L 271.545013 164.314994 
L 274.007502 261.266066 
L 276.469991 125.862644 
L 278.93248 187.65313 
L 281.394969 202.766968 
L 283.857458 305.219965 
L 286.319947 173.041036 
L 288.782436 143.69215 
L 291.244925 188.3896 
L 293.707414 155.190388 
L 296.169903 244.72663 
L 298.632392 190.792667 
L 301.094881 127.122912 
L 303.55737 125.303996 
L 306.019859 140.318039 
L 308.482348 137.179869 
L 310.944837 137.345137 
L 313.407326 278.858915 
L 315.869815 142.126125 
L 318.332304 193.306609 
L 320.794793 188.644744 
L 323.257282 147.73741 
L 325.719771 166.98567 
L 328.182259 121.305104 
L 330.644748 165.00976 
L 333.107237 137.762331 
L 335.569726 195.043388 
L 338.032215 136.029377 
L 340.494704 124.056595 
L 342.957193 180.185023 
L 345.419682 129.40489 
L 347.882171 130.993996 
L 350.34466 174.112616 
L 352.807149 148.623644 
L 355.269638 315.339721 
L 357.732127 125.194497 
L 360.194616 137.94505 
L 362.657105 169.117044 
L 365.119594 143.12722 
L 367.582083 137.884028 
L 370.044572 208.395887 
L 372.507061 150.309265 
L 374.96955 154.530194 
L 377.432039 135.921817 
L 379.894528 167.286296 
L 382.357017 121.835389 
L 384.819506 246.744957 
L 387.281995 145.3583 
L 389.744484 139.394543 
L 392.206973 154.810161 
L 394.669462 255.614352 
L 397.131951 147.578657 
L 399.59444 208.710173 
L 402.056929 155.784806 
L 404.519417 159.410888 
L 406.981906 123.183532 
L 409.444395 114.584852 
L 411.906884 144.528853 
L 414.369373 183.754953 
L 416.831862 131.629018 
L 419.294351 125.936185 
L 421.75684 154.800492 
L 424.219329 123.103664 
L 426.681818 151.561741 
L 429.144307 174.900869 
L 431.606796 180.514888 
L 434.069285 133.674903 
L 436.531774 118.043647 
L 438.994263 135.169003 
L 441.456752 135.755111 
L 443.919241 138.299337 
L 446.38173 119.757353 
L 448.844219 112.318002 
L 451.306708 163.22564 
L 453.769197 116.012291 
L 456.231686 144.003017 
L 458.694175 114.445078 
L 461.156664 123.137048 
L 463.619153 111.029264 
L 466.081642 113.182915 
L 468.544131 117.271558 
L 471.00662 113.408079 
L 473.469109 150.274773 
L 475.931598 125.836748 
L 478.394086 124.243371 
L 480.856575 123.579495 
L 483.319064 144.010961 
L 485.781553 124.756482 
L 488.244042 212.725775 
L 490.706531 143.098447 
L 493.16902 121.343045 
L 495.631509 128.068927 
L 498.093998 124.489891 
L 500.556487 124.894558 
L 503.018976 126.373449 
L 505.481465 126.535169 
L 507.943954 126.315367 
L 510.406443 129.875762 
L 512.868932 124.955714 
L 515.331421 163.579077 
L 517.79391 124.013238 
L 520.256399 142.632847 
L 522.718888 124.327528 
L 525.181377 161.321449 
L 527.643866 144.119924 
L 530.106355 152.258152 
L 532.568844 112.79276 
L 535.031333 121.104406 
L 537.493822 137.315515 
L 539.956311 123.99383 
L 542.4188 135.731091 
L 544.881289 124.715449 
L 547.343778 143.4761 
L 549.806267 122.282679 
L 552.268756 130.846269 
L 554.731244 140.377015 
L 557.193733 128.72518 
L 559.656222 118.024417 
L 562.118711 178.475168 
L 564.5812 136.367159 
L 567.043689 157.276985 
L 569.506178 202.065616 
L 571.968667 120.625268 
L 574.431156 118.773183 
L 576.893645 124.104616 
L 579.356134 125.73404 
L 581.818623 123.146967 
L 584.281112 127.406623 
L 586.743601 135.758221 
L 589.20609 127.27877 
L 591.668579 116.444872 
L 594.131068 136.726834 
L 596.593557 128.963658 
L 599.056046 119.151917 
L 601.518535 130.857296 
L 603.981024 122.190337 
L 606.443513 118.417038 
L 608.906002 121.38263 
L 611.368491 118.46093 
L 613.83098 125.54192 
L 616.293469 124.926619 
L 618.755958 125.64025 
L 621.218447 132.863068 
L 623.680936 123.855825 
L 626.143425 121.57282 
L 628.605914 117.168993 
L 631.068402 116.021798 
L 633.530891 116.750602 
L 635.99338 120.421854 
L 638.455869 122.615788 
L 640.918358 111.591611 
L 643.380847 126.740532 
L 645.843336 131.657362 
L 648.305825 117.140023 
L 650.768314 117.048235 
L 653.230803 127.052373 
L 655.693292 125.343849 
L 658.155781 120.143647 
L 660.61827 112.341574 
L 665.543248 127.14518 
L 668.005737 139.248184 
L 670.468226 120.504296 
L 672.930715 115.541821 
L 675.393204 116.101845 
L 677.855693 121.627435 
L 680.318182 120.022245 
L 682.780671 124.325902 
L 685.24316 131.801979 
L 687.705649 148.392108 
L 690.168138 120.219601 
L 692.630627 120.543988 
L 695.093116 117.796214 
L 697.555605 130.106931 
L 700.018094 116.007984 
L 702.480583 119.141712 
L 704.943071 124.902421 
L 707.40556 116.299737 
L 709.868049 117.576769 
L 712.330538 115.020507 
L 714.793027 117.82027 
L 717.255516 126.14564 
L 719.718005 117.008953 
L 722.180494 126.679893 
L 724.642983 117.988781 
L 727.105472 115.196649 
L 729.567961 111.890514 
L 732.03045 117.586474 
L 734.492939 120.459313 
L 736.955428 139.448274 
L 739.417917 126.681931 
L 741.880406 125.271362 
L 744.342895 120.49981 
L 746.805384 124.863515 
L 749.267873 122.291275 
L 751.730362 116.505493 
L 754.192851 121.888164 
L 756.65534 118.063305 
L 759.117829 117.379395 
L 761.580318 120.08871 
L 764.042807 113.52966 
L 766.505296 115.777619 
L 768.967785 119.724326 
L 771.430274 109.859783 
L 773.892763 117.638408 
L 776.355252 116.390471 
L 778.817741 114.37218 
L 781.280229 137.800049 
L 783.742718 114.581492 
L 786.205207 122.793574 
L 788.667696 112.994173 
L 791.130185 118.089916 
L 793.592674 113.448755 
L 796.055163 114.50845 
L 798.517652 118.630013 
L 800.980141 113.536469 
L 803.44263 111.727042 
L 805.905119 115.960803 
L 808.367608 121.0796 
L 810.830097 124.597872 
L 813.292586 115.148611 
L 815.755075 123.302092 
L 818.217564 125.897029 
L 820.680053 117.32948 
L 823.142542 111.129398 
L 825.605031 120.88639 
L 828.06752 115.833968 
L 830.530009 115.866619 
L 832.992498 132.729353 
L 835.454987 128.411096 
L 837.917476 141.498145 
L 840.379965 120.445141 
L 842.842454 140.348081 
L 845.304943 117.058726 
L 847.767432 120.633972 
L 850.229921 115.850696 
L 852.69241 127.083255 
L 855.154898 125.598877 
L 857.617387 113.816731 
L 860.079876 123.857505 
L 862.542365 113.967764 
L 865.004854 113.516917 
L 867.467343 119.81002 
L 869.929832 118.242021 
L 872.392321 111.145197 
L 874.85481 113.643341 
L 877.317299 108.760288 
L 879.779788 113.451311 
L 882.242277 123.290672 
L 884.704766 114.714599 
L 887.167255 121.271433 
L 889.629744 120.913984 
L 892.092233 115.707598 
L 894.554722 115.716105 
L 897.017211 114.003936 
L 899.4797 123.97846 
L 901.942189 115.842707 
L 904.404678 114.471421 
L 906.867167 116.781609 
L 909.329656 125.13107 
L 914.254634 116.225481 
L 916.717123 125.579361 
L 919.179612 120.841104 
L 921.642101 116.889089 
L 924.10459 111.172022 
L 926.567079 117.72664 
L 929.029568 115.498304 
L 931.492056 129.341383 
L 933.954545 117.238442 
L 933.954545 117.238442 
" style="fill:none;stroke:#dd8452;stroke-linecap:round;stroke-opacity:0.3;stroke-width:1.5;"/>
   </g>
   <g id="line2d_16">
    <path clip-path="url(#p7c9a7e2f07)" d="M 173.045455 475.488889 
L 175.507944 484.835215 
L 177.970432 475.842741 
L 180.432921 470.498084 
L 182.89541 459.75872 
L 185.357899 465.565573 
L 187.820388 462.052522 
L 190.282877 471.527737 
L 192.745366 467.256502 
L 195.207855 451.998393 
L 197.670344 428.186511 
L 200.132833 413.970528 
L 202.595322 396.476248 
L 205.057811 388.491605 
L 207.5203 385.763323 
L 209.982789 382.316813 
L 212.445278 369.106881 
L 214.907767 348.753261 
L 217.370256 334.765256 
L 219.832745 316.629485 
L 222.295234 318.261329 
L 224.757723 312.910455 
L 227.220212 304.641575 
L 229.682701 303.827247 
L 232.14519 301.868791 
L 234.607679 289.540017 
L 237.070168 279.048614 
L 239.532657 268.008587 
L 241.995146 267.844423 
L 244.457635 264.940134 
L 246.920124 263.91728 
L 249.382613 257.664372 
L 251.845102 246.26459 
L 254.30759 250.57017 
L 256.770079 248.227637 
L 259.232568 238.991968 
L 261.695057 230.560442 
L 264.157546 228.326031 
L 266.620035 229.649505 
L 269.082524 225.577141 
L 271.545013 219.450927 
L 274.007502 223.632441 
L 276.469991 213.855461 
L 278.93248 211.235228 
L 281.394969 210.388402 
L 283.857458 219.871558 
L 286.319947 215.188506 
L 288.782436 208.03887 
L 291.244925 206.073943 
L 293.707414 200.985588 
L 296.169903 205.359692 
L 298.632392 203.902989 
L 301.094881 196.224982 
L 303.55737 189.132883 
L 308.482348 179.544246 
L 310.944837 175.324335 
L 313.407326 185.677793 
L 315.869815 181.322626 
L 318.332304 182.521024 
L 320.794793 183.133396 
L 323.257282 179.593798 
L 325.719771 178.332985 
L 328.182259 172.630197 
L 330.644748 171.868153 
L 333.107237 168.457571 
L 335.569726 171.116153 
L 338.032215 167.607475 
L 340.494704 163.252387 
L 342.957193 164.945651 
L 345.419682 161.391575 
L 347.882171 158.351817 
L 350.34466 159.927897 
L 352.807149 158.797471 
L 355.269638 174.451696 
L 357.732127 169.525976 
L 360.194616 166.367884 
L 362.657105 166.6428 
L 365.119594 164.291242 
L 367.582083 161.65052 
L 370.044572 166.325057 
L 372.507061 164.723478 
L 374.96955 163.704149 
L 377.432039 160.925916 
L 379.894528 161.561954 
L 382.357017 157.589298 
L 384.819506 166.504864 
L 387.281995 164.390207 
L 389.744484 161.890641 
L 392.206973 161.182593 
L 394.669462 170.625769 
L 397.131951 168.321058 
L 399.59444 172.359969 
L 402.056929 170.702453 
L 404.519417 169.573296 
L 406.981906 164.93432 
L 409.444395 159.899373 
L 411.906884 158.362321 
L 414.369373 160.901584 
L 416.831862 157.974328 
L 419.294351 154.770513 
L 421.75684 154.773511 
L 424.219329 151.606526 
L 426.681818 151.602048 
L 429.144307 153.93193 
L 431.606796 156.590226 
L 434.069285 154.298694 
L 436.531774 150.673189 
L 438.994263 149.12277 
L 441.456752 147.786004 
L 443.919241 146.837338 
L 446.38173 144.129339 
L 448.844219 140.948205 
L 451.306708 143.175949 
L 453.769197 140.459583 
L 456.231686 140.813926 
L 458.694175 138.177042 
L 461.156664 136.673042 
L 463.619153 134.108664 
L 466.081642 132.016089 
L 468.544131 130.541636 
L 471.00662 128.828281 
L 473.469109 130.97293 
L 478.394086 129.837718 
L 480.856575 129.211895 
L 483.319064 130.691802 
L 485.781553 130.09827 
L 488.244042 138.36102 
L 490.706531 138.834763 
L 493.16902 137.085591 
L 495.631509 136.183925 
L 498.093998 135.014521 
L 500.556487 134.002525 
L 505.481465 132.569173 
L 507.943954 131.943792 
L 510.406443 131.736989 
L 512.868932 131.058862 
L 515.331421 134.310883 
L 517.79391 133.281119 
L 520.256399 134.216292 
L 522.718888 133.227415 
L 525.181377 136.036819 
L 527.643866 136.845129 
L 530.106355 138.386431 
L 532.568844 135.827064 
L 535.031333 134.354798 
L 537.493822 134.65087 
L 539.956311 133.585166 
L 542.4188 133.799759 
L 544.881289 132.891328 
L 547.343778 133.949805 
L 549.806267 132.783092 
L 552.268756 132.58941 
L 554.731244 133.368171 
L 557.193733 132.903871 
L 559.656222 131.415926 
L 562.118711 136.12185 
L 564.5812 136.146381 
L 567.043689 138.259442 
L 569.506178 144.640059 
L 574.431156 139.89204 
L 576.893645 138.313298 
L 579.356134 137.055372 
L 581.818623 135.664531 
L 584.281112 134.838741 
L 586.743601 134.930689 
L 589.20609 134.165497 
L 591.668579 132.393434 
L 594.131068 132.826774 
L 596.593557 132.440463 
L 599.056046 131.111608 
L 601.518535 131.086177 
L 603.981024 130.196593 
L 606.443513 129.018637 
L 608.906002 128.255037 
L 611.368491 127.275626 
L 618.755958 126.760248 
L 621.218447 127.37053 
L 623.680936 127.019059 
L 626.143425 126.474435 
L 631.068402 124.591682 
L 633.530891 123.807574 
L 635.99338 123.469002 
L 638.455869 123.38368 
L 640.918358 122.204474 
L 643.380847 122.658079 
L 645.843336 123.558008 
L 650.768314 122.329412 
L 653.230803 122.801708 
L 655.693292 123.055922 
L 658.155781 122.764695 
L 660.61827 121.722383 
L 663.080759 121.517725 
L 665.543248 122.08047 
L 668.005737 123.797242 
L 670.468226 123.467947 
L 672.930715 122.675334 
L 675.393204 122.017986 
L 677.855693 121.978931 
L 680.318182 121.783262 
L 682.780671 122.037526 
L 685.24316 123.013971 
L 687.705649 125.551785 
L 695.093116 123.893619 
L 697.555605 124.514951 
L 700.018094 123.664254 
L 702.480583 123.212 
L 704.943071 123.381042 
L 707.40556 122.672911 
L 709.868049 122.163297 
L 712.330538 121.449018 
L 714.793027 121.086143 
L 717.255516 121.592093 
L 719.718005 121.133779 
L 722.180494 121.68839 
L 724.642983 121.318429 
L 727.105472 120.706251 
L 729.567961 119.824678 
L 732.03045 119.600857 
L 734.492939 119.686703 
L 736.955428 121.66286 
L 739.417917 122.164767 
L 741.880406 122.475427 
L 744.342895 122.277865 
L 746.805384 122.53643 
L 749.267873 122.511914 
L 751.730362 121.911272 
L 754.192851 121.908961 
L 759.117829 121.109896 
L 761.580318 121.007777 
L 764.042807 120.259965 
L 766.505296 119.811731 
L 768.967785 119.80299 
L 771.430274 118.80867 
L 773.892763 118.691643 
L 776.355252 118.461526 
L 778.817741 118.052592 
L 781.280229 120.027337 
L 783.742718 119.482753 
L 786.205207 119.813835 
L 788.667696 119.131869 
L 791.130185 119.027674 
L 793.592674 118.469782 
L 796.055163 118.073649 
L 798.517652 118.129285 
L 800.980141 117.670003 
L 803.44263 117.075707 
L 805.905119 116.964217 
L 808.367608 117.375755 
L 810.830097 118.097967 
L 813.292586 117.803031 
L 815.755075 118.352937 
L 818.217564 119.107346 
L 820.680053 118.92956 
L 823.142542 118.149544 
L 825.605031 118.423228 
L 830.530009 117.934534 
L 832.992498 119.414016 
L 835.454987 120.313724 
L 837.917476 122.432166 
L 840.379965 122.233463 
L 842.842454 124.044925 
L 845.304943 123.346305 
L 847.767432 123.075072 
L 850.229921 122.352634 
L 852.69241 122.825696 
L 855.154898 123.103014 
L 857.617387 122.174386 
L 860.079876 122.342698 
L 865.004854 120.706376 
L 867.467343 120.61674 
L 869.929832 120.379268 
L 872.392321 119.455861 
L 874.85481 118.874609 
L 877.317299 117.863177 
L 879.779788 117.42199 
L 882.242277 118.008859 
L 884.704766 117.679433 
L 889.629744 118.326168 
L 897.017211 117.446935 
L 899.4797 118.100087 
L 901.942189 117.874349 
L 904.404678 117.534056 
L 906.867167 117.458812 
L 909.329656 118.226038 
L 911.792145 118.473093 
L 914.254634 118.248332 
L 916.717123 118.981435 
L 919.179612 119.167402 
L 921.642101 118.93957 
L 924.10459 118.162816 
L 926.567079 118.119198 
L 929.029568 117.857109 
L 931.492056 119.005536 
L 933.954545 118.828827 
L 933.954545 118.828827 
" style="fill:none;stroke:#dd8452;stroke-linecap:round;stroke-width:2;"/>
   </g>
   <g id="line2d_17">
    <path clip-path="url(#p7c9a7e2f07)" d="M 176.792894 577 
L 177.970432 377.487918 
L 180.432921 359.522356 
L 182.89541 433.503211 
L 185.357899 516.671561 
L 187.820388 468.117254 
L 190.282877 409.484757 
L 195.207855 348.327345 
L 197.670344 456.762935 
L 200.132833 384.029115 
L 202.595322 336.394206 
L 205.057811 297.274525 
L 207.5203 356.99098 
L 209.982789 348.624549 
L 212.445278 324.457636 
L 214.907767 316.764821 
L 217.370256 312.111872 
L 219.832745 327.899176 
L 222.295234 309.323051 
L 224.757723 313.958656 
L 229.682701 309.842779 
L 232.14519 346.201488 
L 234.607679 308.613589 
L 237.070168 229.925879 
L 239.532657 327.722346 
L 241.995146 321.498316 
L 244.457635 292.550288 
L 246.920124 267.9646 
L 249.382613 290.395886 
L 251.845102 331.540074 
L 254.30759 183.02816 
L 256.770079 278.761493 
L 259.232568 296.124961 
L 261.695057 297.84667 
L 264.157546 168.775965 
L 266.620035 280.672038 
L 269.082524 262.152029 
L 271.545013 238.752217 
L 274.007502 152.327414 
L 276.469991 168.864179 
L 278.93248 262.137292 
L 281.394969 201.93703 
L 283.857458 159.588361 
L 286.319947 201.438502 
L 288.782436 211.320729 
L 291.244925 138.147625 
L 293.707414 175.520138 
L 296.169903 210.896323 
L 298.632392 123.335351 
L 301.094881 125.603631 
L 303.55737 152.102017 
L 306.019859 139.540214 
L 308.482348 136.51082 
L 310.944837 154.18924 
L 313.407326 156.111597 
L 315.869815 145.168879 
L 318.332304 132.026607 
L 320.794793 128.015902 
L 323.257282 122.959494 
L 325.719771 143.99166 
L 328.182259 136.577114 
L 330.644748 169.113496 
L 333.107237 118.695656 
L 335.569726 120.176209 
L 338.032215 154.930312 
L 340.494704 142.327869 
L 342.957193 125.537899 
L 345.419682 227.453028 
L 347.882171 138.01684 
L 350.34466 114.886238 
L 352.807149 139.103737 
L 355.269638 132.399757 
L 357.732127 116.364254 
L 360.194616 159.026792 
L 362.657105 113.468735 
L 365.119594 110.925126 
L 367.582083 132.289766 
L 370.044572 117.056081 
L 372.507061 122.805584 
L 374.96955 119.126557 
L 377.432039 122.72241 
L 379.894528 127.086472 
L 382.357017 126.348804 
L 384.819506 120.666319 
L 387.281995 118.181222 
L 389.744484 113.895991 
L 392.206973 121.723138 
L 394.669462 165.637705 
L 397.131951 118.581492 
L 399.59444 116.773245 
L 402.056929 118.844865 
L 404.519417 122.197718 
L 406.981906 118.061893 
L 409.444395 112.691715 
L 411.906884 114.330199 
L 414.369373 121.9149 
L 416.831862 116.610899 
L 419.294351 116.780965 
L 421.75684 115.554617 
L 424.219329 120.799767 
L 426.681818 117.63067 
L 429.144307 128.993629 
L 431.606796 121.825506 
L 434.069285 112.400158 
L 436.531774 114.58419 
L 438.994263 111.256859 
L 441.456752 111.225458 
L 443.919241 114.366211 
L 446.38173 112.785094 
L 448.844219 113.71581 
L 451.306708 111.801763 
L 453.769197 110.921284 
L 456.231686 118.407798 
L 458.694175 118.147123 
L 461.156664 118.660877 
L 463.619153 113.224216 
L 466.081642 151.032179 
L 468.544131 124.179623 
L 471.00662 111.404496 
L 473.469109 120.072947 
L 475.931598 113.598608 
L 478.394086 113.488412 
L 480.856575 112.402088 
L 483.319064 120.036328 
L 485.781553 126.732132 
L 488.244042 120.292732 
L 490.706531 115.040666 
L 493.16902 119.04937 
L 495.631509 122.758868 
L 498.093998 118.889258 
L 500.556487 112.953891 
L 503.018976 113.190689 
L 505.481465 111.50027 
L 507.943954 110.644757 
L 510.406443 107.458772 
L 512.868932 110.859895 
L 515.331421 113.567351 
L 517.79391 112.36445 
L 520.256399 110.690812 
L 522.718888 119.678807 
L 525.181377 130.376657 
L 527.643866 113.13014 
L 530.106355 115.238237 
L 532.568844 123.161854 
L 535.031333 112.166719 
L 537.493822 124.931945 
L 539.956311 114.989732 
L 542.4188 116.180695 
L 544.881289 119.836649 
L 547.343778 116.650414 
L 549.806267 119.193737 
L 552.268756 108.579838 
L 554.731244 114.935385 
L 557.193733 133.130588 
L 559.656222 113.288715 
L 562.118711 110.212568 
L 564.5812 112.370276 
L 567.043689 116.747546 
L 569.506178 109.808885 
L 571.968667 115.079215 
L 574.431156 117.551731 
L 576.893645 112.50896 
L 579.356134 136.578169 
L 581.818623 121.923764 
L 584.281112 110.229064 
L 586.743601 115.56954 
L 589.20609 121.75402 
L 591.668579 123.382961 
L 594.131068 116.68537 
L 596.593557 118.687703 
L 599.056046 116.112229 
L 601.518535 116.090872 
L 603.981024 113.274525 
L 606.443513 119.660596 
L 608.906002 108.664925 
L 611.368491 111.330007 
L 613.83098 109.261943 
L 616.293469 112.861155 
L 621.218447 111.841349 
L 623.680936 112.295502 
L 626.143425 107.662061 
L 628.605914 115.82337 
L 631.068402 115.911173 
L 633.530891 114.881359 
L 635.99338 116.208789 
L 638.455869 113.283371 
L 640.918358 117.08312 
L 643.380847 113.644145 
L 645.843336 114.599613 
L 650.768314 110.216786 
L 653.230803 110.549501 
L 655.693292 116.435347 
L 658.155781 113.003038 
L 660.61827 115.250532 
L 663.080759 111.840527 
L 665.543248 113.988155 
L 668.005737 121.027719 
L 670.468226 117.280387 
L 672.930715 110.313936 
L 675.393204 112.78202 
L 677.855693 103.671961 
L 680.318182 121.084425 
L 682.780671 108.876471 
L 685.24316 113.986457 
L 687.705649 120.227733 
L 690.168138 110.189228 
L 692.630627 108.960878 
L 695.093116 116.033504 
L 697.555605 114.4056 
L 700.018094 107.299125 
L 702.480583 116.585915 
L 704.943071 115.558692 
L 707.40556 115.546539 
L 709.868049 114.287182 
L 712.330538 110.160187 
L 714.793027 114.816521 
L 717.255516 107.200313 
L 719.718005 105.665465 
L 722.180494 111.703916 
L 724.642983 111.922075 
L 727.105472 106.743855 
L 729.567961 109.56408 
L 732.03045 113.508535 
L 734.492939 104.461921 
L 736.955428 110.494618 
L 739.417917 117.240015 
L 741.880406 109.453401 
L 744.342895 119.068278 
L 746.805384 113.885018 
L 749.267873 113.838659 
L 751.730362 107.121142 
L 754.192851 113.62781 
L 756.65534 119.177652 
L 759.117829 109.576465 
L 761.580318 126.491062 
L 764.042807 112.630451 
L 766.505296 113.889593 
L 768.967785 113.859319 
L 771.430274 114.006348 
L 773.892763 123.993901 
L 776.355252 113.299098 
L 778.817741 108.144397 
L 781.280229 111.643296 
L 783.742718 113.000929 
L 786.205207 109.739668 
L 788.667696 111.516122 
L 791.130185 111.519142 
L 793.592674 118.241521 
L 796.055163 116.965597 
L 798.517652 112.07947 
L 800.980141 108.4616 
L 803.44263 111.240024 
L 805.905119 110.627046 
L 808.367608 112.585736 
L 810.830097 111.433466 
L 813.292586 111.986681 
L 815.755075 114.44279 
L 818.217564 132.279981 
L 820.680053 112.338608 
L 823.142542 113.305335 
L 825.605031 126.464273 
L 828.06752 113.39934 
L 830.530009 110.808907 
L 832.992498 114.245113 
L 835.454987 106.628279 
L 837.917476 108.1128 
L 840.379965 113.413387 
L 845.304943 109.41067 
L 847.767432 113.117702 
L 850.229921 110.062411 
L 852.69241 118.44179 
L 855.154898 109.9159 
L 857.617387 113.725085 
L 860.079876 113.897385 
L 862.542365 109.900459 
L 865.004854 116.869894 
L 867.467343 114.222273 
L 869.929832 114.69805 
L 872.392321 111.526023 
L 874.85481 111.132419 
L 877.317299 109.21948 
L 879.779788 120.70964 
L 882.242277 115.87627 
L 884.704766 117.177572 
L 887.167255 117.438032 
L 889.629744 116.678633 
L 892.092233 115.236932 
L 894.554722 109.123545 
L 897.017211 113.062782 
L 899.4797 105.444912 
L 901.942189 118.36462 
L 904.404678 106.550841 
L 906.867167 115.052033 
L 906.867167 115.052033 
" style="fill:none;stroke:#55a868;stroke-linecap:round;stroke-opacity:0.3;stroke-width:1.5;"/>
   </g>
   <g id="line2d_18">
    <path clip-path="url(#p7c9a7e2f07)" d="M 190.720811 577 
L 192.745366 560.399775 
L 195.207855 539.192532 
L 197.670344 530.949572 
L 200.132833 516.257527 
L 202.595322 498.271195 
L 205.057811 478.171528 
L 212.445278 441.325286 
L 214.907767 428.86924 
L 217.370256 417.193503 
L 219.832745 408.26407 
L 222.295234 398.369968 
L 224.757723 389.928837 
L 227.220212 382.12494 
L 229.682701 374.896724 
L 232.14519 372.0272 
L 234.607679 365.685839 
L 237.070168 352.109843 
L 239.532657 349.671094 
L 241.995146 346.853816 
L 244.457635 341.423463 
L 246.920124 334.077577 
L 249.382613 329.709408 
L 251.845102 329.892474 
L 254.30759 315.206043 
L 256.770079 311.561588 
L 259.232568 310.017925 
L 261.695057 308.8008 
L 264.157546 294.798316 
L 266.620035 293.385688 
L 269.082524 290.262322 
L 271.545013 285.111312 
L 274.007502 271.832922 
L 276.469991 261.536048 
L 278.93248 261.596172 
L 281.394969 255.630258 
L 283.857458 246.026068 
L 286.319947 241.567312 
L 288.782436 238.542653 
L 291.244925 228.50315 
L 293.707414 223.204849 
L 296.169903 221.973997 
L 298.632392 212.110132 
L 301.094881 203.459482 
L 303.55737 198.323735 
L 308.482348 186.851927 
L 310.944837 183.585658 
L 313.407326 180.838252 
L 315.869815 177.271315 
L 323.257282 163.742324 
L 325.719771 161.767258 
L 328.182259 159.248243 
L 330.644748 160.234769 
L 333.107237 156.080857 
L 335.569726 152.490393 
L 338.032215 152.734384 
L 340.494704 151.693733 
L 342.957193 149.078149 
L 345.419682 156.915637 
L 347.882171 155.025758 
L 350.34466 151.011806 
L 352.807149 149.820999 
L 355.269638 148.078875 
L 357.732127 144.907412 
L 360.194616 146.31935 
L 365.119594 139.823373 
L 367.582083 139.070012 
L 370.044572 136.868619 
L 372.507061 135.462315 
L 374.96955 133.82874 
L 377.432039 132.718107 
L 382.357017 131.574329 
L 384.819506 130.483528 
L 387.281995 129.253298 
L 389.744484 127.717567 
L 392.206973 127.118124 
L 394.669462 130.970082 
L 399.59444 128.435425 
L 402.056929 127.476369 
L 404.519417 126.948504 
L 406.981906 126.059843 
L 409.444395 124.72303 
L 411.906884 123.683747 
L 414.369373 123.506862 
L 421.75684 121.547734 
L 424.219329 121.472937 
L 426.681818 121.088711 
L 429.144307 121.879203 
L 431.606796 121.873833 
L 434.069285 120.926465 
L 436.531774 120.292238 
L 441.456752 118.572376 
L 443.919241 118.151759 
L 446.38173 117.615093 
L 448.844219 117.225164 
L 453.769197 116.10667 
L 461.156664 116.732123 
L 463.619153 116.381332 
L 466.081642 119.846417 
L 468.544131 120.279738 
L 471.00662 119.392213 
L 473.469109 119.460287 
L 480.856575 117.742202 
L 483.319064 117.971615 
L 485.781553 118.847667 
L 488.244042 118.992173 
L 490.706531 118.597022 
L 493.16902 118.642257 
L 495.631509 119.053918 
L 498.093998 119.037452 
L 507.943954 116.602757 
L 510.406443 115.688358 
L 512.868932 115.205512 
L 517.79391 114.773971 
L 520.256399 114.365655 
L 522.718888 114.896971 
L 525.181377 116.444939 
L 527.643866 116.113459 
L 530.106355 116.025937 
L 532.568844 116.739529 
L 535.031333 116.282248 
L 537.493822 117.147217 
L 539.956311 116.931469 
L 542.4188 116.856392 
L 544.881289 117.154417 
L 547.343778 117.104017 
L 549.806267 117.312989 
L 552.268756 116.439674 
L 554.731244 116.289245 
L 557.193733 117.973379 
L 559.656222 117.504913 
L 562.118711 116.775678 
L 564.5812 116.335138 
L 567.043689 116.376379 
L 569.506178 115.719629 
L 571.968667 115.655588 
L 574.431156 115.845202 
L 576.893645 115.511578 
L 579.356134 117.618237 
L 581.818623 118.04879 
L 584.281112 117.266817 
L 586.743601 117.09709 
L 589.20609 117.562783 
L 591.668579 118.1448 
L 594.131068 117.998857 
L 596.593557 118.067742 
L 601.518535 117.694059 
L 603.981024 117.252105 
L 606.443513 117.492954 
L 608.906002 116.610151 
L 611.368491 116.082137 
L 613.83098 115.400118 
L 623.680936 114.333251 
L 626.143425 113.666132 
L 631.068402 114.084788 
L 633.530891 114.164445 
L 635.99338 114.368879 
L 638.455869 114.260328 
L 640.918358 114.542608 
L 648.305825 114.265441 
L 653.230803 113.529468 
L 655.693292 113.820056 
L 658.155781 113.738354 
L 660.61827 113.889572 
L 663.080759 113.684667 
L 665.543248 113.715016 
L 668.005737 114.446286 
L 670.468226 114.729697 
L 672.930715 114.28812 
L 675.393204 114.13751 
L 677.855693 113.090955 
L 680.318182 113.890302 
L 682.780671 113.388919 
L 685.24316 113.448673 
L 687.705649 114.126579 
L 692.630627 113.255647 
L 695.093116 113.533433 
L 697.555605 113.62065 
L 700.018094 112.988497 
L 702.480583 113.348239 
L 707.40556 113.76701 
L 709.868049 113.819027 
L 712.330538 113.453143 
L 714.793027 113.589481 
L 719.718005 112.222054 
L 724.642983 112.145424 
L 727.105472 111.605267 
L 729.567961 111.401148 
L 732.03045 111.611887 
L 734.492939 110.89689 
L 736.955428 110.856663 
L 739.417917 111.494998 
L 741.880406 111.290839 
L 744.342895 112.068583 
L 749.267873 112.409069 
L 751.730362 111.880277 
L 754.192851 112.05503 
L 756.65534 112.767292 
L 759.117829 112.448209 
L 761.580318 113.852495 
L 764.042807 113.73029 
L 771.430274 113.782412 
L 773.892763 114.803561 
L 776.355252 114.653115 
L 778.817741 114.002243 
L 781.280229 113.766348 
L 783.742718 113.689806 
L 786.205207 113.294793 
L 791.130185 112.957147 
L 793.592674 113.485585 
L 796.055163 113.833586 
L 798.517652 113.658174 
L 800.980141 113.138517 
L 805.905119 112.716505 
L 808.367608 112.703428 
L 813.292586 112.517457 
L 815.755075 112.70999 
L 818.217564 114.666989 
L 820.680053 114.434151 
L 823.142542 114.32127 
L 825.605031 115.53557 
L 828.06752 115.321947 
L 830.530009 114.870643 
L 832.992498 114.80809 
L 835.454987 113.990109 
L 837.917476 113.402378 
L 840.379965 113.403479 
L 842.842454 113.202619 
L 845.304943 112.823424 
L 847.767432 112.852852 
L 850.229921 112.573808 
L 852.69241 113.160606 
L 855.154898 112.836135 
L 860.079876 113.022266 
L 862.542365 112.710085 
L 865.004854 113.126066 
L 869.929832 113.381923 
L 874.85481 112.989942 
L 877.317299 112.612895 
L 879.779788 113.42257 
L 884.704766 114.018903 
L 889.629744 114.592598 
L 892.092233 114.657031 
L 894.554722 114.103683 
L 897.017211 113.999593 
L 899.4797 113.144124 
L 901.942189 113.666174 
L 904.404678 112.954641 
L 906.867167 113.16438 
L 906.867167 113.16438 
" style="fill:none;stroke:#55a868;stroke-linecap:round;stroke-width:2;"/>
   </g>
   <g id="patch_3">
    <path d="M 135 512.64 
L 135 69.12 
" style="fill:none;stroke:#ffffff;stroke-linecap:square;stroke-linejoin:miter;stroke-width:1.25;"/>
   </g>
   <g id="patch_4">
    <path d="M 972 512.64 
L 972 69.12 
" style="fill:none;stroke:#ffffff;stroke-linecap:square;stroke-linejoin:miter;stroke-width:1.25;"/>
   </g>
   <g id="patch_5">
    <path d="M 135 512.64 
L 972 512.64 
" style="fill:none;stroke:#ffffff;stroke-linecap:square;stroke-linejoin:miter;stroke-width:1.25;"/>
   </g>
   <g id="patch_6">
    <path d="M 135 69.12 
L 972 69.12 
" style="fill:none;stroke:#ffffff;stroke-linecap:square;stroke-linejoin:miter;stroke-width:1.25;"/>
   </g>
   <g id="text_16">
    <!-- LunarLanderContinuous -->
    <g style="fill:#262626;" transform="translate(473.028516 63.12)scale(0.15 -0.15)">
     <defs>
      <path d="M 7.328125 0 
L 7.328125 71.578125 
L 16.796875 71.578125 
L 16.796875 8.453125 
L 52.046875 8.453125 
L 52.046875 0 
z
" id="ArialMT-76"/>
      <path d="M 40.578125 0 
L 40.578125 7.625 
Q 34.515625 -1.171875 24.125 -1.171875 
Q 19.53125 -1.171875 15.546875 0.578125 
Q 11.578125 2.34375 9.640625 5 
Q 7.71875 7.671875 6.9375 11.53125 
Q 6.390625 14.109375 6.390625 19.734375 
L 6.390625 51.859375 
L 15.1875 51.859375 
L 15.1875 23.09375 
Q 15.1875 16.21875 15.71875 13.8125 
Q 16.546875 10.359375 19.234375 8.375 
Q 21.921875 6.390625 25.875 6.390625 
Q 29.828125 6.390625 33.296875 8.421875 
Q 36.765625 10.453125 38.203125 13.9375 
Q 39.65625 17.4375 39.65625 24.078125 
L 39.65625 51.859375 
L 48.4375 51.859375 
L 48.4375 0 
z
" id="ArialMT-117"/>
      <path d="M 58.796875 25.09375 
L 68.265625 22.703125 
Q 65.28125 11.03125 57.546875 4.90625 
Q 49.8125 -1.21875 38.625 -1.21875 
Q 27.046875 -1.21875 19.796875 3.484375 
Q 12.546875 8.203125 8.765625 17.140625 
Q 4.984375 26.078125 4.984375 36.328125 
Q 4.984375 47.515625 9.25 55.828125 
Q 13.53125 64.15625 21.40625 68.46875 
Q 29.296875 72.796875 38.765625 72.796875 
Q 49.515625 72.796875 56.828125 67.328125 
Q 64.15625 61.859375 67.046875 51.953125 
L 57.71875 49.75 
Q 55.21875 57.5625 50.484375 61.125 
Q 45.75 64.703125 38.578125 64.703125 
Q 30.328125 64.703125 24.78125 60.734375 
Q 19.234375 56.78125 16.984375 50.109375 
Q 14.75 43.453125 14.75 36.375 
Q 14.75 27.25 17.40625 20.4375 
Q 20.0625 13.625 25.671875 10.25 
Q 31.296875 6.890625 37.84375 6.890625 
Q 45.796875 6.890625 51.3125 11.46875 
Q 56.84375 16.0625 58.796875 25.09375 
z
" id="ArialMT-67"/>
     </defs>
     <use xlink:href="#ArialMT-76"/>
     <use x="55.615234" xlink:href="#ArialMT-117"/>
     <use x="111.230469" xlink:href="#ArialMT-110"/>
     <use x="166.845703" xlink:href="#ArialMT-97"/>
     <use x="222.460938" xlink:href="#ArialMT-114"/>
     <use x="255.761719" xlink:href="#ArialMT-76"/>
     <use x="311.376953" xlink:href="#ArialMT-97"/>
     <use x="366.992188" xlink:href="#ArialMT-110"/>
     <use x="422.607422" xlink:href="#ArialMT-100"/>
     <use x="478.222656" xlink:href="#ArialMT-101"/>
     <use x="533.837891" xlink:href="#ArialMT-114"/>
     <use x="567.138672" xlink:href="#ArialMT-67"/>
     <use x="639.355469" xlink:href="#ArialMT-111"/>
     <use x="694.970703" xlink:href="#ArialMT-110"/>
     <use x="750.585938" xlink:href="#ArialMT-116"/>
     <use x="778.369141" xlink:href="#ArialMT-105"/>
     <use x="800.585938" xlink:href="#ArialMT-110"/>
     <use x="856.201172" xlink:href="#ArialMT-117"/>
     <use x="911.816406" xlink:href="#ArialMT-111"/>
     <use x="967.431641" xlink:href="#ArialMT-117"/>
     <use x="1023.046875" xlink:href="#ArialMT-115"/>
    </g>
   </g>
   <g id="legend_1">
    <g id="patch_7">
     <path d="M 840.13125 505.14 
L 961.5 505.14 
Q 964.5 505.14 964.5 502.14 
L 964.5 439.986094 
Q 964.5 436.986094 961.5 436.986094 
L 840.13125 436.986094 
Q 837.13125 436.986094 837.13125 439.986094 
L 837.13125 502.14 
Q 837.13125 505.14 840.13125 505.14 
z
" style="fill:#eaeaf2;opacity:0.8;stroke:#cccccc;stroke-linejoin:miter;"/>
    </g>
    <g id="line2d_19">
     <path d="M 843.13125 448.472813 
L 873.13125 448.472813 
" style="fill:none;stroke:#4c72b0;stroke-linecap:round;stroke-width:2;"/>
    </g>
    <g id="line2d_20"/>
    <g id="text_17">
     <!-- BASELINE -->
     <g style="fill:#262626;" transform="translate(885.13125 453.722813)scale(0.15 -0.15)">
      <defs>
       <path d="M 7.328125 0 
L 7.328125 71.578125 
L 34.1875 71.578125 
Q 42.390625 71.578125 47.34375 69.40625 
Q 52.296875 67.234375 55.09375 62.71875 
Q 57.90625 58.203125 57.90625 53.265625 
Q 57.90625 48.6875 55.421875 44.625 
Q 52.9375 40.578125 47.90625 38.09375 
Q 54.390625 36.1875 57.875 31.59375 
Q 61.375 27 61.375 20.75 
Q 61.375 15.71875 59.25 11.390625 
Q 57.125 7.078125 54 4.734375 
Q 50.875 2.390625 46.15625 1.1875 
Q 41.453125 0 34.625 0 
z
M 16.796875 41.5 
L 32.28125 41.5 
Q 38.578125 41.5 41.3125 42.328125 
Q 44.921875 43.40625 46.75 45.890625 
Q 48.578125 48.390625 48.578125 52.15625 
Q 48.578125 55.71875 46.875 58.421875 
Q 45.171875 61.140625 41.984375 62.140625 
Q 38.8125 63.140625 31.109375 63.140625 
L 16.796875 63.140625 
z
M 16.796875 8.453125 
L 34.625 8.453125 
Q 39.203125 8.453125 41.0625 8.796875 
Q 44.34375 9.375 46.53125 10.734375 
Q 48.734375 12.109375 50.140625 14.71875 
Q 51.5625 17.328125 51.5625 20.75 
Q 51.5625 24.75 49.515625 27.703125 
Q 47.46875 30.671875 43.828125 31.859375 
Q 40.1875 33.0625 33.34375 33.0625 
L 16.796875 33.0625 
z
" id="ArialMT-66"/>
       <path d="M -0.140625 0 
L 27.34375 71.578125 
L 37.546875 71.578125 
L 66.84375 0 
L 56.0625 0 
L 47.703125 21.6875 
L 17.78125 21.6875 
L 9.90625 0 
z
M 20.515625 29.390625 
L 44.78125 29.390625 
L 37.3125 49.21875 
Q 33.890625 58.25 32.234375 64.0625 
Q 30.859375 57.171875 28.375 50.390625 
z
" id="ArialMT-65"/>
       <path d="M 9.328125 0 
L 9.328125 71.578125 
L 18.796875 71.578125 
L 18.796875 0 
z
" id="ArialMT-73"/>
       <path d="M 7.625 0 
L 7.625 71.578125 
L 17.328125 71.578125 
L 54.9375 15.375 
L 54.9375 71.578125 
L 64.015625 71.578125 
L 64.015625 0 
L 54.296875 0 
L 16.703125 56.25 
L 16.703125 0 
z
" id="ArialMT-78"/>
      </defs>
      <use xlink:href="#ArialMT-66"/>
      <use x="66.699219" xlink:href="#ArialMT-65"/>
      <use x="133.398438" xlink:href="#ArialMT-83"/>
      <use x="200.097656" xlink:href="#ArialMT-69"/>
      <use x="266.796875" xlink:href="#ArialMT-76"/>
      <use x="322.412109" xlink:href="#ArialMT-73"/>
      <use x="350.195312" xlink:href="#ArialMT-78"/>
      <use x="422.412109" xlink:href="#ArialMT-69"/>
     </g>
    </g>
    <g id="line2d_21">
     <path d="M 843.13125 469.690781 
L 873.13125 469.690781 
" style="fill:none;stroke:#dd8452;stroke-linecap:round;stroke-width:2;"/>
    </g>
    <g id="line2d_22"/>
    <g id="text_18">
     <!-- PRE -->
     <g style="fill:#262626;" transform="translate(885.13125 474.940781)scale(0.15 -0.15)">
      <defs>
       <path d="M 7.71875 0 
L 7.71875 71.578125 
L 34.71875 71.578125 
Q 41.84375 71.578125 45.609375 70.90625 
Q 50.875 70.015625 54.4375 67.546875 
Q 58.015625 65.09375 60.1875 60.640625 
Q 62.359375 56.203125 62.359375 50.875 
Q 62.359375 41.75 56.546875 35.421875 
Q 50.734375 29.109375 35.546875 29.109375 
L 17.1875 29.109375 
L 17.1875 0 
z
M 17.1875 37.546875 
L 35.6875 37.546875 
Q 44.875 37.546875 48.734375 40.96875 
Q 52.59375 44.390625 52.59375 50.59375 
Q 52.59375 55.078125 50.3125 58.265625 
Q 48.046875 61.46875 44.34375 62.5 
Q 41.9375 63.140625 35.5 63.140625 
L 17.1875 63.140625 
z
" id="ArialMT-80"/>
       <path d="M 7.859375 0 
L 7.859375 71.578125 
L 39.59375 71.578125 
Q 49.171875 71.578125 54.140625 69.640625 
Q 59.125 67.71875 62.109375 62.828125 
Q 65.09375 57.953125 65.09375 52.046875 
Q 65.09375 44.4375 60.15625 39.203125 
Q 55.21875 33.984375 44.921875 32.5625 
Q 48.6875 30.765625 50.640625 29 
Q 54.78125 25.203125 58.5 19.484375 
L 70.953125 0 
L 59.03125 0 
L 49.5625 14.890625 
Q 45.40625 21.34375 42.71875 24.75 
Q 40.046875 28.171875 37.921875 29.53125 
Q 35.796875 30.90625 33.59375 31.453125 
Q 31.984375 31.78125 28.328125 31.78125 
L 17.328125 31.78125 
L 17.328125 0 
z
M 17.328125 39.984375 
L 37.703125 39.984375 
Q 44.1875 39.984375 47.84375 41.328125 
Q 51.515625 42.671875 53.421875 45.625 
Q 55.328125 48.578125 55.328125 52.046875 
Q 55.328125 57.125 51.640625 60.390625 
Q 47.953125 63.671875 39.984375 63.671875 
L 17.328125 63.671875 
z
" id="ArialMT-82"/>
      </defs>
      <use xlink:href="#ArialMT-80"/>
      <use x="66.699219" xlink:href="#ArialMT-82"/>
      <use x="138.916016" xlink:href="#ArialMT-69"/>
     </g>
    </g>
    <g id="line2d_23">
     <path d="M 843.13125 490.90875 
L 873.13125 490.90875 
" style="fill:none;stroke:#55a868;stroke-linecap:round;stroke-width:2;"/>
    </g>
    <g id="line2d_24"/>
    <g id="text_19">
     <!-- PRE_ERE -->
     <g style="fill:#262626;" transform="translate(885.13125 496.15875)scale(0.15 -0.15)">
      <defs>
       <path d="M -1.515625 -19.875 
L -1.515625 -13.53125 
L 56.734375 -13.53125 
L 56.734375 -19.875 
z
" id="ArialMT-95"/>
      </defs>
      <use xlink:href="#ArialMT-80"/>
      <use x="66.699219" xlink:href="#ArialMT-82"/>
      <use x="138.916016" xlink:href="#ArialMT-69"/>
      <use x="205.615234" xlink:href="#ArialMT-95"/>
      <use x="261.230469" xlink:href="#ArialMT-69"/>
      <use x="327.929688" xlink:href="#ArialMT-82"/>
      <use x="400.146484" xlink:href="#ArialMT-69"/>
     </g>
    </g>
   </g>
  </g>
 </g>
 <defs>
  <clipPath id="p7c9a7e2f07">
   <rect height="443.52" width="837" x="135" y="69.12"/>
  </clipPath>
 </defs>
</svg>
