<?xml version="1.0" encoding="utf-8" standalone="no"?>
<!DOCTYPE svg PUBLIC "-//W3C//DTD SVG 1.1//EN"
  "http://www.w3.org/Graphics/SVG/1.1/DTD/svg11.dtd">
<!-- Created with matplotlib (https://matplotlib.org/) -->
<svg height="576pt" version="1.1" viewBox="0 0 576 576" width="576pt" xmlns="http://www.w3.org/2000/svg" xmlns:xlink="http://www.w3.org/1999/xlink">
 <metadata>
  <rdf:RDF xmlns:cc="http://creativecommons.org/ns#" xmlns:dc="http://purl.org/dc/elements/1.1/" xmlns:rdf="http://www.w3.org/1999/02/22-rdf-syntax-ns#">
   <cc:Work>
    <dc:type rdf:resource="http://purl.org/dc/dcmitype/StillImage"/>
    <dc:date>2021-03-13T21:40:47.149025</dc:date>
    <dc:format>image/svg+xml</dc:format>
    <dc:creator>
     <cc:Agent>
      <dc:title>Matplotlib v3.3.2, https://matplotlib.org/</dc:title>
     </cc:Agent>
    </dc:creator>
   </cc:Work>
  </rdf:RDF>
 </metadata>
 <defs>
  <style type="text/css">*{stroke-linecap:butt;stroke-linejoin:round;}</style>
 </defs>
 <g id="figure_1">
  <g id="patch_1">
   <path d="M 0 576 
L 576 576 
L 576 0 
L 0 0 
z
" style="fill:#ffffff;"/>
  </g>
  <g id="axes_1">
   <g id="patch_2">
    <path d="M 72 512.64 
L 518.4 512.64 
L 518.4 69.12 
L 72 69.12 
z
" style="fill:#eaeaf2;"/>
   </g>
   <g id="matplotlib.axis_1">
    <g id="xtick_1">
     <g id="line2d_1">
      <path clip-path="url(#p39b0dca9cc)" d="M 90.977582 512.64 
L 90.977582 69.12 
" style="fill:none;stroke:#ffffff;stroke-linecap:round;"/>
     </g>
     <g id="text_1">
      <!-- 0.0 -->
      <g style="fill:#262626;" transform="translate(83.332582 530.013594)scale(0.11 -0.11)">
       <defs>
        <path d="M 4.15625 35.296875 
Q 4.15625 48 6.765625 55.734375 
Q 9.375 63.484375 14.515625 67.671875 
Q 19.671875 71.875 27.484375 71.875 
Q 33.25 71.875 37.59375 69.546875 
Q 41.9375 67.234375 44.765625 62.859375 
Q 47.609375 58.5 49.21875 52.21875 
Q 50.828125 45.953125 50.828125 35.296875 
Q 50.828125 22.703125 48.234375 14.96875 
Q 45.65625 7.234375 40.5 3 
Q 35.359375 -1.21875 27.484375 -1.21875 
Q 17.140625 -1.21875 11.234375 6.203125 
Q 4.15625 15.140625 4.15625 35.296875 
z
M 13.1875 35.296875 
Q 13.1875 17.671875 17.3125 11.828125 
Q 21.4375 6 27.484375 6 
Q 33.546875 6 37.671875 11.859375 
Q 41.796875 17.71875 41.796875 35.296875 
Q 41.796875 52.984375 37.671875 58.78125 
Q 33.546875 64.59375 27.390625 64.59375 
Q 21.34375 64.59375 17.71875 59.46875 
Q 13.1875 52.9375 13.1875 35.296875 
z
" id="ArialMT-48"/>
        <path d="M 9.078125 0 
L 9.078125 10.015625 
L 19.09375 10.015625 
L 19.09375 0 
z
" id="ArialMT-46"/>
       </defs>
       <use xlink:href="#ArialMT-48"/>
       <use x="55.615234" xlink:href="#ArialMT-46"/>
       <use x="83.398438" xlink:href="#ArialMT-48"/>
      </g>
     </g>
    </g>
    <g id="xtick_2">
     <g id="line2d_2">
      <path clip-path="url(#p39b0dca9cc)" d="M 156.643954 512.64 
L 156.643954 69.12 
" style="fill:none;stroke:#ffffff;stroke-linecap:round;"/>
     </g>
     <g id="text_2">
      <!-- 0.5 -->
      <g style="fill:#262626;" transform="translate(148.998954 530.013594)scale(0.11 -0.11)">
       <defs>
        <path d="M 4.15625 18.75 
L 13.375 19.53125 
Q 14.40625 12.796875 18.140625 9.390625 
Q 21.875 6 27.15625 6 
Q 33.5 6 37.890625 10.78125 
Q 42.28125 15.578125 42.28125 23.484375 
Q 42.28125 31 38.0625 35.34375 
Q 33.84375 39.703125 27 39.703125 
Q 22.75 39.703125 19.328125 37.765625 
Q 15.921875 35.84375 13.96875 32.765625 
L 5.71875 33.84375 
L 12.640625 70.609375 
L 48.25 70.609375 
L 48.25 62.203125 
L 19.671875 62.203125 
L 15.828125 42.96875 
Q 22.265625 47.46875 29.34375 47.46875 
Q 38.71875 47.46875 45.15625 40.96875 
Q 51.609375 34.46875 51.609375 24.265625 
Q 51.609375 14.546875 45.953125 7.46875 
Q 39.0625 -1.21875 27.15625 -1.21875 
Q 17.390625 -1.21875 11.203125 4.25 
Q 5.03125 9.71875 4.15625 18.75 
z
" id="ArialMT-53"/>
       </defs>
       <use xlink:href="#ArialMT-48"/>
       <use x="55.615234" xlink:href="#ArialMT-46"/>
       <use x="83.398438" xlink:href="#ArialMT-53"/>
      </g>
     </g>
    </g>
    <g id="xtick_3">
     <g id="line2d_3">
      <path clip-path="url(#p39b0dca9cc)" d="M 222.310327 512.64 
L 222.310327 69.12 
" style="fill:none;stroke:#ffffff;stroke-linecap:round;"/>
     </g>
     <g id="text_3">
      <!-- 1.0 -->
      <g style="fill:#262626;" transform="translate(214.665327 530.013594)scale(0.11 -0.11)">
       <defs>
        <path d="M 37.25 0 
L 28.46875 0 
L 28.46875 56 
Q 25.296875 52.984375 20.140625 49.953125 
Q 14.984375 46.921875 10.890625 45.40625 
L 10.890625 53.90625 
Q 18.265625 57.375 23.78125 62.296875 
Q 29.296875 67.234375 31.59375 71.875 
L 37.25 71.875 
z
" id="ArialMT-49"/>
       </defs>
       <use xlink:href="#ArialMT-49"/>
       <use x="55.615234" xlink:href="#ArialMT-46"/>
       <use x="83.398438" xlink:href="#ArialMT-48"/>
      </g>
     </g>
    </g>
    <g id="xtick_4">
     <g id="line2d_4">
      <path clip-path="url(#p39b0dca9cc)" d="M 287.976699 512.64 
L 287.976699 69.12 
" style="fill:none;stroke:#ffffff;stroke-linecap:round;"/>
     </g>
     <g id="text_4">
      <!-- 1.5 -->
      <g style="fill:#262626;" transform="translate(280.331699 530.013594)scale(0.11 -0.11)">
       <use xlink:href="#ArialMT-49"/>
       <use x="55.615234" xlink:href="#ArialMT-46"/>
       <use x="83.398438" xlink:href="#ArialMT-53"/>
      </g>
     </g>
    </g>
    <g id="xtick_5">
     <g id="line2d_5">
      <path clip-path="url(#p39b0dca9cc)" d="M 353.643071 512.64 
L 353.643071 69.12 
" style="fill:none;stroke:#ffffff;stroke-linecap:round;"/>
     </g>
     <g id="text_5">
      <!-- 2.0 -->
      <g style="fill:#262626;" transform="translate(345.998071 530.013594)scale(0.11 -0.11)">
       <defs>
        <path d="M 50.34375 8.453125 
L 50.34375 0 
L 3.03125 0 
Q 2.9375 3.171875 4.046875 6.109375 
Q 5.859375 10.9375 9.828125 15.625 
Q 13.8125 20.3125 21.34375 26.46875 
Q 33.015625 36.03125 37.109375 41.625 
Q 41.21875 47.21875 41.21875 52.203125 
Q 41.21875 57.421875 37.46875 61 
Q 33.734375 64.59375 27.734375 64.59375 
Q 21.390625 64.59375 17.578125 60.78125 
Q 13.765625 56.984375 13.71875 50.25 
L 4.6875 51.171875 
Q 5.609375 61.28125 11.65625 66.578125 
Q 17.71875 71.875 27.9375 71.875 
Q 38.234375 71.875 44.234375 66.15625 
Q 50.25 60.453125 50.25 52 
Q 50.25 47.703125 48.484375 43.546875 
Q 46.734375 39.40625 42.65625 34.8125 
Q 38.578125 30.21875 29.109375 22.21875 
Q 21.1875 15.578125 18.9375 13.203125 
Q 16.703125 10.84375 15.234375 8.453125 
z
" id="ArialMT-50"/>
       </defs>
       <use xlink:href="#ArialMT-50"/>
       <use x="55.615234" xlink:href="#ArialMT-46"/>
       <use x="83.398438" xlink:href="#ArialMT-48"/>
      </g>
     </g>
    </g>
    <g id="xtick_6">
     <g id="line2d_6">
      <path clip-path="url(#p39b0dca9cc)" d="M 419.309444 512.64 
L 419.309444 69.12 
" style="fill:none;stroke:#ffffff;stroke-linecap:round;"/>
     </g>
     <g id="text_6">
      <!-- 2.5 -->
      <g style="fill:#262626;" transform="translate(411.664444 530.013594)scale(0.11 -0.11)">
       <use xlink:href="#ArialMT-50"/>
       <use x="55.615234" xlink:href="#ArialMT-46"/>
       <use x="83.398438" xlink:href="#ArialMT-53"/>
      </g>
     </g>
    </g>
    <g id="xtick_7">
     <g id="line2d_7">
      <path clip-path="url(#p39b0dca9cc)" d="M 484.975816 512.64 
L 484.975816 69.12 
" style="fill:none;stroke:#ffffff;stroke-linecap:round;"/>
     </g>
     <g id="text_7">
      <!-- 3.0 -->
      <g style="fill:#262626;" transform="translate(477.330816 530.013594)scale(0.11 -0.11)">
       <defs>
        <path d="M 4.203125 18.890625 
L 12.984375 20.0625 
Q 14.5 12.59375 18.140625 9.296875 
Q 21.78125 6 27 6 
Q 33.203125 6 37.46875 10.296875 
Q 41.75 14.59375 41.75 20.953125 
Q 41.75 27 37.796875 30.921875 
Q 33.84375 34.859375 27.734375 34.859375 
Q 25.25 34.859375 21.53125 33.890625 
L 22.515625 41.609375 
Q 23.390625 41.5 23.921875 41.5 
Q 29.546875 41.5 34.03125 44.421875 
Q 38.53125 47.359375 38.53125 53.46875 
Q 38.53125 58.296875 35.25 61.46875 
Q 31.984375 64.65625 26.8125 64.65625 
Q 21.6875 64.65625 18.265625 61.421875 
Q 14.84375 58.203125 13.875 51.765625 
L 5.078125 53.328125 
Q 6.6875 62.15625 12.390625 67.015625 
Q 18.109375 71.875 26.609375 71.875 
Q 32.46875 71.875 37.390625 69.359375 
Q 42.328125 66.84375 44.9375 62.5 
Q 47.5625 58.15625 47.5625 53.265625 
Q 47.5625 48.640625 45.0625 44.828125 
Q 42.578125 41.015625 37.703125 38.765625 
Q 44.046875 37.3125 47.5625 32.6875 
Q 51.078125 28.078125 51.078125 21.140625 
Q 51.078125 11.765625 44.234375 5.25 
Q 37.40625 -1.265625 26.953125 -1.265625 
Q 17.53125 -1.265625 11.296875 4.34375 
Q 5.078125 9.96875 4.203125 18.890625 
z
" id="ArialMT-51"/>
       </defs>
       <use xlink:href="#ArialMT-51"/>
       <use x="55.615234" xlink:href="#ArialMT-46"/>
       <use x="83.398438" xlink:href="#ArialMT-48"/>
      </g>
     </g>
    </g>
    <g id="text_8">
     <!-- Environment Steps -->
     <g style="fill:#262626;" transform="translate(231.837891 547.119375)scale(0.15 -0.15)">
      <defs>
       <path d="M 7.90625 0 
L 7.90625 71.578125 
L 59.671875 71.578125 
L 59.671875 63.140625 
L 17.390625 63.140625 
L 17.390625 41.21875 
L 56.984375 41.21875 
L 56.984375 32.8125 
L 17.390625 32.8125 
L 17.390625 8.453125 
L 61.328125 8.453125 
L 61.328125 0 
z
" id="ArialMT-69"/>
       <path d="M 6.59375 0 
L 6.59375 51.859375 
L 14.5 51.859375 
L 14.5 44.484375 
Q 20.21875 53.03125 31 53.03125 
Q 35.6875 53.03125 39.625 51.34375 
Q 43.5625 49.65625 45.515625 46.921875 
Q 47.46875 44.1875 48.25 40.4375 
Q 48.734375 37.984375 48.734375 31.890625 
L 48.734375 0 
L 39.9375 0 
L 39.9375 31.546875 
Q 39.9375 36.921875 38.90625 39.578125 
Q 37.890625 42.234375 35.28125 43.8125 
Q 32.671875 45.40625 29.15625 45.40625 
Q 23.53125 45.40625 19.453125 41.84375 
Q 15.375 38.28125 15.375 28.328125 
L 15.375 0 
z
" id="ArialMT-110"/>
       <path d="M 21 0 
L 1.265625 51.859375 
L 10.546875 51.859375 
L 21.6875 20.796875 
Q 23.484375 15.765625 25 10.359375 
Q 26.171875 14.453125 28.265625 20.21875 
L 39.796875 51.859375 
L 48.828125 51.859375 
L 29.203125 0 
z
" id="ArialMT-118"/>
       <path d="M 6.640625 61.46875 
L 6.640625 71.578125 
L 15.4375 71.578125 
L 15.4375 61.46875 
z
M 6.640625 0 
L 6.640625 51.859375 
L 15.4375 51.859375 
L 15.4375 0 
z
" id="ArialMT-105"/>
       <path d="M 6.5 0 
L 6.5 51.859375 
L 14.40625 51.859375 
L 14.40625 44 
Q 17.4375 49.515625 20 51.265625 
Q 22.5625 53.03125 25.640625 53.03125 
Q 30.078125 53.03125 34.671875 50.203125 
L 31.640625 42.046875 
Q 28.421875 43.953125 25.203125 43.953125 
Q 22.3125 43.953125 20.015625 42.21875 
Q 17.71875 40.484375 16.75 37.40625 
Q 15.28125 32.71875 15.28125 27.15625 
L 15.28125 0 
z
" id="ArialMT-114"/>
       <path d="M 3.328125 25.921875 
Q 3.328125 40.328125 11.328125 47.265625 
Q 18.015625 53.03125 27.640625 53.03125 
Q 38.328125 53.03125 45.109375 46.015625 
Q 51.90625 39.015625 51.90625 26.65625 
Q 51.90625 16.65625 48.90625 10.90625 
Q 45.90625 5.171875 40.15625 2 
Q 34.421875 -1.171875 27.640625 -1.171875 
Q 16.75 -1.171875 10.03125 5.8125 
Q 3.328125 12.796875 3.328125 25.921875 
z
M 12.359375 25.921875 
Q 12.359375 15.96875 16.703125 11.015625 
Q 21.046875 6.0625 27.640625 6.0625 
Q 34.1875 6.0625 38.53125 11.03125 
Q 42.875 16.015625 42.875 26.21875 
Q 42.875 35.84375 38.5 40.796875 
Q 34.125 45.75 27.640625 45.75 
Q 21.046875 45.75 16.703125 40.8125 
Q 12.359375 35.890625 12.359375 25.921875 
z
" id="ArialMT-111"/>
       <path d="M 6.59375 0 
L 6.59375 51.859375 
L 14.453125 51.859375 
L 14.453125 44.578125 
Q 16.890625 48.390625 20.9375 50.703125 
Q 25 53.03125 30.171875 53.03125 
Q 35.9375 53.03125 39.625 50.640625 
Q 43.3125 48.25 44.828125 43.953125 
Q 50.984375 53.03125 60.84375 53.03125 
Q 68.5625 53.03125 72.703125 48.75 
Q 76.859375 44.484375 76.859375 35.59375 
L 76.859375 0 
L 68.109375 0 
L 68.109375 32.671875 
Q 68.109375 37.9375 67.25 40.25 
Q 66.40625 42.578125 64.15625 43.984375 
Q 61.921875 45.40625 58.890625 45.40625 
Q 53.421875 45.40625 49.796875 41.765625 
Q 46.1875 38.140625 46.1875 30.125 
L 46.1875 0 
L 37.40625 0 
L 37.40625 33.6875 
Q 37.40625 39.546875 35.25 42.46875 
Q 33.109375 45.40625 28.21875 45.40625 
Q 24.515625 45.40625 21.359375 43.453125 
Q 18.21875 41.5 16.796875 37.734375 
Q 15.375 33.984375 15.375 26.90625 
L 15.375 0 
z
" id="ArialMT-109"/>
       <path d="M 42.09375 16.703125 
L 51.171875 15.578125 
Q 49.03125 7.625 43.21875 3.21875 
Q 37.40625 -1.171875 28.375 -1.171875 
Q 17 -1.171875 10.328125 5.828125 
Q 3.65625 12.84375 3.65625 25.484375 
Q 3.65625 38.578125 10.390625 45.796875 
Q 17.140625 53.03125 27.875 53.03125 
Q 38.28125 53.03125 44.875 45.953125 
Q 51.46875 38.875 51.46875 26.03125 
Q 51.46875 25.25 51.421875 23.6875 
L 12.75 23.6875 
Q 13.234375 15.140625 17.578125 10.59375 
Q 21.921875 6.0625 28.421875 6.0625 
Q 33.25 6.0625 36.671875 8.59375 
Q 40.09375 11.140625 42.09375 16.703125 
z
M 13.234375 30.90625 
L 42.1875 30.90625 
Q 41.609375 37.453125 38.875 40.71875 
Q 34.671875 45.796875 27.984375 45.796875 
Q 21.921875 45.796875 17.796875 41.75 
Q 13.671875 37.703125 13.234375 30.90625 
z
" id="ArialMT-101"/>
       <path d="M 25.78125 7.859375 
L 27.046875 0.09375 
Q 23.34375 -0.6875 20.40625 -0.6875 
Q 15.625 -0.6875 12.984375 0.828125 
Q 10.359375 2.34375 9.28125 4.8125 
Q 8.203125 7.28125 8.203125 15.1875 
L 8.203125 45.015625 
L 1.765625 45.015625 
L 1.765625 51.859375 
L 8.203125 51.859375 
L 8.203125 64.703125 
L 16.9375 69.96875 
L 16.9375 51.859375 
L 25.78125 51.859375 
L 25.78125 45.015625 
L 16.9375 45.015625 
L 16.9375 14.703125 
Q 16.9375 10.9375 17.40625 9.859375 
Q 17.875 8.796875 18.921875 8.15625 
Q 19.96875 7.515625 21.921875 7.515625 
Q 23.390625 7.515625 25.78125 7.859375 
z
" id="ArialMT-116"/>
       <path id="ArialMT-32"/>
       <path d="M 4.5 23 
L 13.421875 23.78125 
Q 14.0625 18.40625 16.375 14.96875 
Q 18.703125 11.53125 23.578125 9.40625 
Q 28.46875 7.28125 34.578125 7.28125 
Q 39.984375 7.28125 44.140625 8.890625 
Q 48.296875 10.5 50.3125 13.296875 
Q 52.34375 16.109375 52.34375 19.4375 
Q 52.34375 22.796875 50.390625 25.3125 
Q 48.4375 27.828125 43.953125 29.546875 
Q 41.0625 30.671875 31.203125 33.03125 
Q 21.34375 35.40625 17.390625 37.5 
Q 12.25 40.1875 9.734375 44.15625 
Q 7.234375 48.140625 7.234375 53.078125 
Q 7.234375 58.5 10.296875 63.203125 
Q 13.375 67.921875 19.28125 70.359375 
Q 25.203125 72.796875 32.421875 72.796875 
Q 40.375 72.796875 46.453125 70.234375 
Q 52.546875 67.671875 55.8125 62.6875 
Q 59.078125 57.71875 59.328125 51.421875 
L 50.25 50.734375 
Q 49.515625 57.515625 45.28125 60.984375 
Q 41.0625 64.453125 32.8125 64.453125 
Q 24.21875 64.453125 20.28125 61.296875 
Q 16.359375 58.15625 16.359375 53.71875 
Q 16.359375 49.859375 19.140625 47.359375 
Q 21.875 44.875 33.421875 42.265625 
Q 44.96875 39.65625 49.265625 37.703125 
Q 55.515625 34.8125 58.484375 30.390625 
Q 61.46875 25.984375 61.46875 20.21875 
Q 61.46875 14.5 58.203125 9.4375 
Q 54.9375 4.390625 48.796875 1.578125 
Q 42.671875 -1.21875 35.015625 -1.21875 
Q 25.296875 -1.21875 18.71875 1.609375 
Q 12.15625 4.4375 8.421875 10.125 
Q 4.6875 15.828125 4.5 23 
z
" id="ArialMT-83"/>
       <path d="M 6.59375 -19.875 
L 6.59375 51.859375 
L 14.59375 51.859375 
L 14.59375 45.125 
Q 17.4375 49.078125 21 51.046875 
Q 24.5625 53.03125 29.640625 53.03125 
Q 36.28125 53.03125 41.359375 49.609375 
Q 46.4375 46.1875 49.015625 39.953125 
Q 51.609375 33.734375 51.609375 26.3125 
Q 51.609375 18.359375 48.75 11.984375 
Q 45.90625 5.609375 40.453125 2.21875 
Q 35.015625 -1.171875 29 -1.171875 
Q 24.609375 -1.171875 21.109375 0.6875 
Q 17.625 2.546875 15.375 5.375 
L 15.375 -19.875 
z
M 14.546875 25.640625 
Q 14.546875 15.625 18.59375 10.84375 
Q 22.65625 6.0625 28.421875 6.0625 
Q 34.28125 6.0625 38.453125 11.015625 
Q 42.625 15.96875 42.625 26.375 
Q 42.625 36.28125 38.546875 41.203125 
Q 34.46875 46.140625 28.8125 46.140625 
Q 23.1875 46.140625 18.859375 40.890625 
Q 14.546875 35.640625 14.546875 25.640625 
z
" id="ArialMT-112"/>
       <path d="M 3.078125 15.484375 
L 11.765625 16.84375 
Q 12.5 11.625 15.84375 8.84375 
Q 19.1875 6.0625 25.203125 6.0625 
Q 31.25 6.0625 34.171875 8.515625 
Q 37.109375 10.984375 37.109375 14.3125 
Q 37.109375 17.28125 34.515625 19 
Q 32.71875 20.171875 25.53125 21.96875 
Q 15.875 24.421875 12.140625 26.203125 
Q 8.40625 27.984375 6.46875 31.125 
Q 4.546875 34.28125 4.546875 38.09375 
Q 4.546875 41.546875 6.125 44.5 
Q 7.71875 47.46875 10.453125 49.421875 
Q 12.5 50.921875 16.03125 51.96875 
Q 19.578125 53.03125 23.640625 53.03125 
Q 29.734375 53.03125 34.34375 51.265625 
Q 38.96875 49.515625 41.15625 46.5 
Q 43.359375 43.5 44.1875 38.484375 
L 35.59375 37.3125 
Q 35.015625 41.3125 32.203125 43.546875 
Q 29.390625 45.796875 24.265625 45.796875 
Q 18.21875 45.796875 15.625 43.796875 
Q 13.03125 41.796875 13.03125 39.109375 
Q 13.03125 37.40625 14.109375 36.03125 
Q 15.1875 34.625 17.484375 33.6875 
Q 18.796875 33.203125 25.25 31.453125 
Q 34.578125 28.953125 38.25 27.359375 
Q 41.9375 25.78125 44.03125 22.75 
Q 46.140625 19.734375 46.140625 15.234375 
Q 46.140625 10.84375 43.578125 6.953125 
Q 41.015625 3.078125 36.171875 0.953125 
Q 31.34375 -1.171875 25.25 -1.171875 
Q 15.140625 -1.171875 9.84375 3.03125 
Q 4.546875 7.234375 3.078125 15.484375 
z
" id="ArialMT-115"/>
      </defs>
      <use xlink:href="#ArialMT-69"/>
      <use x="66.699219" xlink:href="#ArialMT-110"/>
      <use x="122.314453" xlink:href="#ArialMT-118"/>
      <use x="172.314453" xlink:href="#ArialMT-105"/>
      <use x="194.53125" xlink:href="#ArialMT-114"/>
      <use x="227.832031" xlink:href="#ArialMT-111"/>
      <use x="283.447266" xlink:href="#ArialMT-110"/>
      <use x="339.0625" xlink:href="#ArialMT-109"/>
      <use x="422.363281" xlink:href="#ArialMT-101"/>
      <use x="477.978516" xlink:href="#ArialMT-110"/>
      <use x="533.59375" xlink:href="#ArialMT-116"/>
      <use x="561.376953" xlink:href="#ArialMT-32"/>
      <use x="589.160156" xlink:href="#ArialMT-83"/>
      <use x="655.859375" xlink:href="#ArialMT-116"/>
      <use x="683.642578" xlink:href="#ArialMT-101"/>
      <use x="739.257812" xlink:href="#ArialMT-112"/>
      <use x="794.873047" xlink:href="#ArialMT-115"/>
     </g>
    </g>
    <g id="text_9">
     <!-- 1e3 -->
     <g style="fill:#262626;" transform="translate(500.048906 543.073437)scale(0.11 -0.11)">
      <use xlink:href="#ArialMT-49"/>
      <use x="55.615234" xlink:href="#ArialMT-101"/>
      <use x="111.230469" xlink:href="#ArialMT-51"/>
     </g>
    </g>
   </g>
   <g id="matplotlib.axis_2">
    <g id="ytick_1">
     <g id="line2d_8">
      <path clip-path="url(#p39b0dca9cc)" d="M 72 512.64 
L 518.4 512.64 
" style="fill:none;stroke:#ffffff;stroke-linecap:round;"/>
     </g>
     <g id="text_10">
      <!-- −400 -->
      <g style="fill:#262626;" transform="translate(37.724219 516.576797)scale(0.11 -0.11)">
       <defs>
        <path d="M 52.828125 31.203125 
L 5.5625 31.203125 
L 5.5625 39.40625 
L 52.828125 39.40625 
z
" id="ArialMT-8722"/>
        <path d="M 32.328125 0 
L 32.328125 17.140625 
L 1.265625 17.140625 
L 1.265625 25.203125 
L 33.9375 71.578125 
L 41.109375 71.578125 
L 41.109375 25.203125 
L 50.78125 25.203125 
L 50.78125 17.140625 
L 41.109375 17.140625 
L 41.109375 0 
z
M 32.328125 25.203125 
L 32.328125 57.46875 
L 9.90625 25.203125 
z
" id="ArialMT-52"/>
       </defs>
       <use xlink:href="#ArialMT-8722"/>
       <use x="58.398438" xlink:href="#ArialMT-52"/>
       <use x="114.013672" xlink:href="#ArialMT-48"/>
       <use x="169.628906" xlink:href="#ArialMT-48"/>
      </g>
     </g>
    </g>
    <g id="ytick_2">
     <g id="line2d_9">
      <path clip-path="url(#p39b0dca9cc)" d="M 72 395.516782 
L 518.4 395.516782 
" style="fill:none;stroke:#ffffff;stroke-linecap:round;"/>
     </g>
     <g id="text_11">
      <!-- −200 -->
      <g style="fill:#262626;" transform="translate(37.724219 399.453579)scale(0.11 -0.11)">
       <use xlink:href="#ArialMT-8722"/>
       <use x="58.398438" xlink:href="#ArialMT-50"/>
       <use x="114.013672" xlink:href="#ArialMT-48"/>
       <use x="169.628906" xlink:href="#ArialMT-48"/>
      </g>
     </g>
    </g>
    <g id="ytick_3">
     <g id="line2d_10">
      <path clip-path="url(#p39b0dca9cc)" d="M 72 278.393564 
L 518.4 278.393564 
" style="fill:none;stroke:#ffffff;stroke-linecap:round;"/>
     </g>
     <g id="text_12">
      <!-- 0 -->
      <g style="fill:#262626;" transform="translate(56.382969 282.330361)scale(0.11 -0.11)">
       <use xlink:href="#ArialMT-48"/>
      </g>
     </g>
    </g>
    <g id="ytick_4">
     <g id="line2d_11">
      <path clip-path="url(#p39b0dca9cc)" d="M 72 161.270346 
L 518.4 161.270346 
" style="fill:none;stroke:#ffffff;stroke-linecap:round;"/>
     </g>
     <g id="text_13">
      <!-- 200 -->
      <g style="fill:#262626;" transform="translate(44.148906 165.207143)scale(0.11 -0.11)">
       <use xlink:href="#ArialMT-50"/>
       <use x="55.615234" xlink:href="#ArialMT-48"/>
       <use x="111.230469" xlink:href="#ArialMT-48"/>
      </g>
     </g>
    </g>
    <g id="ytick_5">
     <g id="line2d_12">
      <path clip-path="url(#p39b0dca9cc)" d="M 72 103.671961 
L 518.4 103.671961 
" style="fill:none;stroke:#ffffff;stroke-linecap:round;"/>
     </g>
     <g id="text_14">
      <!-- 298 -->
      <g style="fill:#262626;" transform="translate(44.148906 107.608758)scale(0.11 -0.11)">
       <defs>
        <path d="M 5.46875 16.546875 
L 13.921875 17.328125 
Q 14.984375 11.375 18.015625 8.6875 
Q 21.046875 6 25.78125 6 
Q 29.828125 6 32.875 7.859375 
Q 35.9375 9.71875 37.890625 12.8125 
Q 39.84375 15.921875 41.15625 21.1875 
Q 42.484375 26.46875 42.484375 31.9375 
Q 42.484375 32.515625 42.4375 33.6875 
Q 39.796875 29.5 35.234375 26.875 
Q 30.671875 24.265625 25.34375 24.265625 
Q 16.453125 24.265625 10.296875 30.703125 
Q 4.15625 37.15625 4.15625 47.703125 
Q 4.15625 58.59375 10.578125 65.234375 
Q 17 71.875 26.65625 71.875 
Q 33.640625 71.875 39.421875 68.109375 
Q 45.21875 64.359375 48.21875 57.390625 
Q 51.21875 50.4375 51.21875 37.25 
Q 51.21875 23.53125 48.234375 15.40625 
Q 45.265625 7.28125 39.375 3.03125 
Q 33.5 -1.21875 25.59375 -1.21875 
Q 17.1875 -1.21875 11.859375 3.4375 
Q 6.546875 8.109375 5.46875 16.546875 
z
M 41.453125 48.140625 
Q 41.453125 55.71875 37.421875 60.15625 
Q 33.40625 64.59375 27.734375 64.59375 
Q 21.875 64.59375 17.53125 59.8125 
Q 13.1875 55.03125 13.1875 47.40625 
Q 13.1875 40.578125 17.3125 36.296875 
Q 21.4375 32.03125 27.484375 32.03125 
Q 33.59375 32.03125 37.515625 36.296875 
Q 41.453125 40.578125 41.453125 48.140625 
z
" id="ArialMT-57"/>
        <path d="M 17.671875 38.8125 
Q 12.203125 40.828125 9.5625 44.53125 
Q 6.9375 48.25 6.9375 53.421875 
Q 6.9375 61.234375 12.546875 66.546875 
Q 18.171875 71.875 27.484375 71.875 
Q 36.859375 71.875 42.578125 66.421875 
Q 48.296875 60.984375 48.296875 53.171875 
Q 48.296875 48.1875 45.671875 44.5 
Q 43.0625 40.828125 37.75 38.8125 
Q 44.34375 36.671875 47.78125 31.875 
Q 51.21875 27.09375 51.21875 20.453125 
Q 51.21875 11.28125 44.71875 5.03125 
Q 38.234375 -1.21875 27.640625 -1.21875 
Q 17.046875 -1.21875 10.546875 5.046875 
Q 4.046875 11.328125 4.046875 20.703125 
Q 4.046875 27.6875 7.59375 32.390625 
Q 11.140625 37.109375 17.671875 38.8125 
z
M 15.921875 53.71875 
Q 15.921875 48.640625 19.1875 45.40625 
Q 22.46875 42.1875 27.6875 42.1875 
Q 32.765625 42.1875 36.015625 45.375 
Q 39.265625 48.578125 39.265625 53.21875 
Q 39.265625 58.0625 35.90625 61.359375 
Q 32.5625 64.65625 27.59375 64.65625 
Q 22.5625 64.65625 19.234375 61.421875 
Q 15.921875 58.203125 15.921875 53.71875 
z
M 13.09375 20.65625 
Q 13.09375 16.890625 14.875 13.375 
Q 16.65625 9.859375 20.171875 7.921875 
Q 23.6875 6 27.734375 6 
Q 34.03125 6 38.125 10.046875 
Q 42.234375 14.109375 42.234375 20.359375 
Q 42.234375 26.703125 38.015625 30.859375 
Q 33.796875 35.015625 27.4375 35.015625 
Q 21.234375 35.015625 17.15625 30.90625 
Q 13.09375 26.8125 13.09375 20.65625 
z
" id="ArialMT-56"/>
       </defs>
       <use xlink:href="#ArialMT-50"/>
       <use x="55.615234" xlink:href="#ArialMT-57"/>
       <use x="111.230469" xlink:href="#ArialMT-56"/>
      </g>
     </g>
    </g>
    <g id="text_15">
     <!-- avg reward -->
     <g style="fill:#262626;" transform="translate(30.567187 327.978047)rotate(-90)scale(0.15 -0.15)">
      <defs>
       <path d="M 40.4375 6.390625 
Q 35.546875 2.25 31.03125 0.53125 
Q 26.515625 -1.171875 21.34375 -1.171875 
Q 12.796875 -1.171875 8.203125 3 
Q 3.609375 7.171875 3.609375 13.671875 
Q 3.609375 17.484375 5.34375 20.625 
Q 7.078125 23.78125 9.890625 25.6875 
Q 12.703125 27.59375 16.21875 28.5625 
Q 18.796875 29.25 24.03125 29.890625 
Q 34.671875 31.15625 39.703125 32.90625 
Q 39.75 34.71875 39.75 35.203125 
Q 39.75 40.578125 37.25 42.78125 
Q 33.890625 45.75 27.25 45.75 
Q 21.046875 45.75 18.09375 43.578125 
Q 15.140625 41.40625 13.71875 35.890625 
L 5.125 37.0625 
Q 6.296875 42.578125 8.984375 45.96875 
Q 11.671875 49.359375 16.75 51.1875 
Q 21.828125 53.03125 28.515625 53.03125 
Q 35.15625 53.03125 39.296875 51.46875 
Q 43.453125 49.90625 45.40625 47.53125 
Q 47.359375 45.171875 48.140625 41.546875 
Q 48.578125 39.3125 48.578125 33.453125 
L 48.578125 21.734375 
Q 48.578125 9.46875 49.140625 6.21875 
Q 49.703125 2.984375 51.375 0 
L 42.1875 0 
Q 40.828125 2.734375 40.4375 6.390625 
z
M 39.703125 26.03125 
Q 34.90625 24.078125 25.34375 22.703125 
Q 19.921875 21.921875 17.671875 20.9375 
Q 15.4375 19.96875 14.203125 18.09375 
Q 12.984375 16.21875 12.984375 13.921875 
Q 12.984375 10.40625 15.640625 8.0625 
Q 18.3125 5.71875 23.4375 5.71875 
Q 28.515625 5.71875 32.46875 7.9375 
Q 36.421875 10.15625 38.28125 14.015625 
Q 39.703125 17 39.703125 22.796875 
z
" id="ArialMT-97"/>
       <path d="M 4.984375 -4.296875 
L 13.53125 -5.5625 
Q 14.0625 -9.515625 16.5 -11.328125 
Q 19.78125 -13.765625 25.4375 -13.765625 
Q 31.546875 -13.765625 34.859375 -11.328125 
Q 38.1875 -8.890625 39.359375 -4.5 
Q 40.046875 -1.8125 39.984375 6.78125 
Q 34.234375 0 25.640625 0 
Q 14.9375 0 9.078125 7.71875 
Q 3.21875 15.4375 3.21875 26.21875 
Q 3.21875 33.640625 5.90625 39.90625 
Q 8.59375 46.1875 13.6875 49.609375 
Q 18.796875 53.03125 25.6875 53.03125 
Q 34.859375 53.03125 40.828125 45.609375 
L 40.828125 51.859375 
L 48.921875 51.859375 
L 48.921875 7.03125 
Q 48.921875 -5.078125 46.453125 -10.125 
Q 44 -15.1875 38.640625 -18.109375 
Q 33.296875 -21.046875 25.484375 -21.046875 
Q 16.21875 -21.046875 10.5 -16.875 
Q 4.78125 -12.703125 4.984375 -4.296875 
z
M 12.25 26.859375 
Q 12.25 16.65625 16.296875 11.96875 
Q 20.359375 7.28125 26.46875 7.28125 
Q 32.515625 7.28125 36.609375 11.9375 
Q 40.71875 16.609375 40.71875 26.5625 
Q 40.71875 36.078125 36.5 40.90625 
Q 32.28125 45.75 26.3125 45.75 
Q 20.453125 45.75 16.34375 40.984375 
Q 12.25 36.234375 12.25 26.859375 
z
" id="ArialMT-103"/>
       <path d="M 16.15625 0 
L 0.296875 51.859375 
L 9.375 51.859375 
L 17.625 21.921875 
L 20.703125 10.796875 
Q 20.90625 11.625 23.390625 21.484375 
L 31.640625 51.859375 
L 40.671875 51.859375 
L 48.4375 21.78125 
L 51.03125 11.859375 
L 54 21.875 
L 62.890625 51.859375 
L 71.4375 51.859375 
L 55.21875 0 
L 46.09375 0 
L 37.84375 31.0625 
L 35.84375 39.890625 
L 25.34375 0 
z
" id="ArialMT-119"/>
       <path d="M 40.234375 0 
L 40.234375 6.546875 
Q 35.296875 -1.171875 25.734375 -1.171875 
Q 19.53125 -1.171875 14.328125 2.25 
Q 9.125 5.671875 6.265625 11.796875 
Q 3.421875 17.921875 3.421875 25.875 
Q 3.421875 33.640625 6 39.96875 
Q 8.59375 46.296875 13.765625 49.65625 
Q 18.953125 53.03125 25.34375 53.03125 
Q 30.03125 53.03125 33.6875 51.046875 
Q 37.359375 49.078125 39.65625 45.90625 
L 39.65625 71.578125 
L 48.390625 71.578125 
L 48.390625 0 
z
M 12.453125 25.875 
Q 12.453125 15.921875 16.640625 10.984375 
Q 20.84375 6.0625 26.5625 6.0625 
Q 32.328125 6.0625 36.34375 10.765625 
Q 40.375 15.484375 40.375 25.140625 
Q 40.375 35.796875 36.265625 40.765625 
Q 32.171875 45.75 26.171875 45.75 
Q 20.3125 45.75 16.375 40.96875 
Q 12.453125 36.1875 12.453125 25.875 
z
" id="ArialMT-100"/>
      </defs>
      <use xlink:href="#ArialMT-97"/>
      <use x="55.615234" xlink:href="#ArialMT-118"/>
      <use x="105.615234" xlink:href="#ArialMT-103"/>
      <use x="161.230469" xlink:href="#ArialMT-32"/>
      <use x="189.013672" xlink:href="#ArialMT-114"/>
      <use x="222.314453" xlink:href="#ArialMT-101"/>
      <use x="277.929688" xlink:href="#ArialMT-119"/>
      <use x="350.146484" xlink:href="#ArialMT-97"/>
      <use x="405.761719" xlink:href="#ArialMT-114"/>
      <use x="439.0625" xlink:href="#ArialMT-100"/>
     </g>
    </g>
   </g>
   <g id="line2d_13">
    <path clip-path="url(#p39b0dca9cc)" d="M 92.308434 577 
L 93.604237 453.051525 
L 94.917564 466.754778 
L 96.230891 413.369146 
L 97.544219 405.416514 
L 98.857546 415.472649 
L 100.170874 440.891252 
L 101.484201 322.66479 
L 102.797529 360.59407 
L 104.110856 331.996027 
L 105.424184 276.508993 
L 106.737511 330.727399 
L 108.050838 202.177411 
L 109.364166 205.036941 
L 110.677493 164.1863 
L 111.990821 193.816646 
L 113.304148 183.701231 
L 114.617476 313.334348 
L 115.930803 192.239443 
L 117.244131 160.117146 
L 118.557458 161.176904 
L 119.870786 148.132211 
L 121.184113 133.36199 
L 122.49744 222.098581 
L 123.810768 204.618822 
L 126.437423 152.625672 
L 127.75075 149.440679 
L 129.064078 200.954262 
L 130.377405 196.037539 
L 131.690733 228.861993 
L 133.00406 209.95185 
L 134.317387 145.23487 
L 135.630715 163.307814 
L 136.944042 184.189554 
L 138.25737 172.574489 
L 139.570697 155.666031 
L 140.884025 151.403051 
L 142.197352 229.702918 
L 143.51068 146.125044 
L 144.824007 141.134342 
L 146.137335 185.019966 
L 147.450662 162.431382 
L 148.763989 177.56093 
L 150.077317 150.752847 
L 151.390644 186.397204 
L 152.703972 146.689393 
L 154.017299 164.701333 
L 155.330627 189.267711 
L 156.643954 134.894639 
L 159.270609 186.598411 
L 160.583936 169.447355 
L 161.897264 143.480023 
L 163.210591 169.816457 
L 164.523919 171.582974 
L 165.837246 142.48294 
L 167.150574 164.106414 
L 168.463901 139.076983 
L 169.777229 138.926227 
L 171.090556 184.66702 
L 172.403883 180.355974 
L 173.717211 210.477065 
L 175.030538 156.222257 
L 176.343866 208.888661 
L 177.657193 182.340971 
L 178.970521 178.210973 
L 180.283848 262.531676 
L 182.910503 146.671406 
L 184.223831 179.403463 
L 185.537158 201.807425 
L 186.850485 145.834649 
L 188.163813 159.601086 
L 189.47714 169.461778 
L 190.790468 144.764114 
L 192.103795 137.212262 
L 193.417123 169.120832 
L 194.73045 187.771198 
L 196.043778 191.177272 
L 197.357105 202.193219 
L 198.670432 179.939155 
L 199.98376 130.209406 
L 201.297087 158.05414 
L 202.610415 141.17785 
L 203.923742 180.524673 
L 205.23707 149.910183 
L 206.550397 154.678465 
L 207.863725 153.947196 
L 209.177052 183.544899 
L 210.49038 147.348998 
L 211.803707 159.400397 
L 213.117034 160.501957 
L 214.430362 173.483733 
L 215.743689 132.269187 
L 217.057017 127.693516 
L 218.370344 180.749185 
L 219.683672 118.018037 
L 220.996999 122.526466 
L 222.310327 140.684514 
L 223.623654 126.83098 
L 224.936981 248.094249 
L 226.250309 124.663496 
L 227.563636 125.849722 
L 228.876964 125.395302 
L 230.190291 129.892552 
L 231.503619 132.875873 
L 232.816946 148.781611 
L 234.130274 229.3727 
L 235.443601 147.27727 
L 236.756929 128.761093 
L 238.070256 142.425233 
L 239.383583 141.737561 
L 240.696911 121.955004 
L 242.010238 194.531188 
L 243.323566 138.112203 
L 244.636893 114.639181 
L 245.950221 134.224293 
L 247.263548 141.71599 
L 248.576876 193.575451 
L 249.890203 172.643358 
L 251.20353 142.806488 
L 252.516858 144.142326 
L 253.830185 310.7088 
L 255.143513 153.460427 
L 256.45684 156.123794 
L 257.770168 163.215775 
L 259.083495 192.681282 
L 260.396823 191.169427 
L 261.71015 113.948659 
L 263.023477 169.378568 
L 264.336805 155.673618 
L 265.650132 123.5986 
L 266.96346 287.343775 
L 268.276787 488.304209 
L 269.590115 166.825353 
L 270.903442 203.588212 
L 272.21677 132.970816 
L 273.530097 171.426723 
L 274.843425 149.329965 
L 276.156752 166.557833 
L 277.470079 177.9135 
L 278.783407 115.785733 
L 280.096734 120.357838 
L 281.410062 118.605833 
L 282.723389 113.718169 
L 284.036717 158.184263 
L 285.350044 128.749682 
L 286.663372 121.895134 
L 287.976699 118.852103 
L 289.290026 126.56312 
L 290.603354 116.038044 
L 291.916681 125.513397 
L 293.230009 245.828013 
L 294.543336 128.155425 
L 295.856664 127.771543 
L 297.169991 136.675408 
L 298.483319 139.202826 
L 299.796646 129.875628 
L 301.109974 162.561836 
L 302.423301 130.94207 
L 303.736628 127.550954 
L 305.049956 119.25652 
L 306.363283 153.041562 
L 307.676611 171.415839 
L 308.989938 229.627437 
L 310.303266 151.952923 
L 311.616593 159.928243 
L 312.929921 127.52874 
L 314.243248 117.074131 
L 315.556575 138.616879 
L 316.869903 123.404121 
L 318.18323 123.788771 
L 319.496558 130.778947 
L 320.809885 117.567172 
L 322.123213 119.887762 
L 323.43654 130.978045 
L 324.749868 114.47873 
L 326.063195 122.396253 
L 327.376523 113.927946 
L 328.68985 114.417037 
L 330.003177 124.247982 
L 331.316505 148.407693 
L 332.629832 116.549868 
L 333.94316 136.118136 
L 335.256487 128.413491 
L 336.569815 131.964074 
L 337.883142 118.662093 
L 339.19647 191.9502 
L 340.509797 117.389636 
L 341.823124 119.202529 
L 343.136452 116.597317 
L 344.449779 132.743525 
L 345.763107 140.242058 
L 347.076434 119.710833 
L 348.389762 120.008627 
L 349.703089 121.645807 
L 351.016417 122.521855 
L 352.329744 164.318148 
L 353.643071 124.721471 
L 354.956399 136.195494 
L 356.269726 134.006198 
L 357.583054 147.041472 
L 358.896381 116.410934 
L 360.209709 119.245368 
L 361.523036 113.972249 
L 362.836364 125.092629 
L 364.149691 132.890778 
L 365.463019 107.547808 
L 366.776346 111.195541 
L 368.089673 115.472944 
L 369.403001 147.307616 
L 370.716328 136.30972 
L 372.029656 147.38122 
L 373.342983 132.622294 
L 374.656311 121.966066 
L 375.969638 128.437921 
L 377.282966 157.991634 
L 378.596293 119.066616 
L 379.90962 184.34627 
L 382.536275 126.297298 
L 383.849603 152.981067 
L 385.16293 140.195154 
L 386.476258 120.172974 
L 387.789585 143.651867 
L 389.102913 125.808046 
L 390.41624 141.38777 
L 391.729568 119.250872 
L 393.042895 128.173118 
L 394.356222 117.58953 
L 395.66955 142.280161 
L 396.982877 114.929416 
L 398.296205 135.239373 
L 399.609532 117.037584 
L 400.92286 134.4198 
L 402.236187 113.555377 
L 403.549515 127.649069 
L 404.862842 115.924666 
L 406.176169 115.318266 
L 407.489497 125.757451 
L 408.802824 111.893141 
L 410.116152 114.80578 
L 411.429479 121.010848 
L 412.742807 121.5572 
L 415.369462 115.042704 
L 416.682789 117.286964 
L 417.996117 116.919971 
L 419.309444 111.718982 
L 420.622771 125.368798 
L 421.936099 120.919542 
L 423.249426 120.116858 
L 424.562754 105.90448 
L 425.876081 150.281081 
L 427.189409 113.066678 
L 428.502736 117.7646 
L 429.816064 112.213239 
L 431.129391 113.069663 
L 432.442718 134.756205 
L 433.756046 143.095176 
L 435.069373 150.43509 
L 436.382701 116.747689 
L 437.696028 169.624677 
L 439.009356 122.407173 
L 440.322683 114.386727 
L 441.636011 117.029488 
L 442.949338 117.18363 
L 444.262665 110.64238 
L 446.88932 118.550985 
L 448.202648 114.469187 
L 449.515975 162.651453 
L 450.829303 141.422012 
L 452.14263 116.109333 
L 453.455958 130.732132 
L 454.769285 111.136994 
L 456.082613 116.410416 
L 457.39594 124.761307 
L 458.709267 112.276736 
L 460.022595 118.092061 
L 461.335922 121.421698 
L 462.64925 131.50011 
L 463.962577 111.782462 
L 465.275905 115.362212 
L 466.589232 143.477709 
L 467.90256 123.210393 
L 469.215887 109.366867 
L 470.529214 131.302647 
L 471.842542 110.456623 
L 473.155869 113.500976 
L 474.469197 105.857621 
L 475.782524 122.918389 
L 477.095852 120.405466 
L 478.409179 130.011755 
L 479.722507 112.38225 
L 481.035834 128.622937 
L 482.349162 113.524423 
L 483.662489 108.492017 
L 484.975816 124.544972 
L 486.289144 113.497133 
L 487.602471 174.265061 
L 488.915799 142.223758 
L 490.229126 119.33637 
L 491.542454 112.806021 
L 492.855781 112.080792 
L 494.169109 143.738285 
L 495.482436 120.894826 
L 496.795763 123.925203 
L 498.109091 127.527096 
L 498.109091 127.527096 
" style="fill:none;stroke:#4c72b0;stroke-linecap:round;stroke-opacity:0.3;stroke-width:1.5;"/>
   </g>
   <g id="line2d_14">
    <path clip-path="url(#p39b0dca9cc)" d="M 92.466159 577 
L 93.604237 566.113848 
L 94.917564 556.177941 
L 97.544219 528.249006 
L 98.857546 516.971371 
L 100.170874 509.363359 
L 101.484201 490.693502 
L 102.797529 477.683559 
L 104.110856 463.114806 
L 105.424184 444.454224 
L 106.737511 433.081542 
L 108.050838 409.991129 
L 109.364166 389.49571 
L 110.677493 366.964769 
L 113.304148 333.055084 
L 114.617476 331.083011 
L 115.930803 317.198654 
L 117.244131 301.490503 
L 121.184113 259.510004 
L 122.49744 255.768862 
L 123.810768 250.653858 
L 125.124095 243.446406 
L 127.75075 225.871967 
L 129.064078 223.380197 
L 130.377405 220.645931 
L 131.690733 221.467537 
L 133.00406 220.315969 
L 134.317387 212.807859 
L 135.630715 207.857854 
L 136.944042 205.491024 
L 138.25737 202.199371 
L 140.884025 192.931738 
L 142.197352 196.608856 
L 144.824007 186.517862 
L 146.137335 186.368072 
L 147.450662 183.974403 
L 148.763989 183.333056 
L 150.077317 180.075035 
L 151.390644 180.707252 
L 152.703972 177.305466 
L 154.017299 176.045053 
L 155.330627 177.367318 
L 156.643954 173.12005 
L 157.957282 171.785619 
L 159.270609 173.266898 
L 160.583936 172.884944 
L 161.897264 169.944452 
L 163.210591 169.931652 
L 164.523919 170.096785 
L 165.837246 167.3354 
L 167.150574 167.012502 
L 168.463901 164.21895 
L 169.777229 161.689677 
L 171.090556 163.987412 
L 172.403883 165.624268 
L 173.717211 170.109548 
L 175.030538 168.720819 
L 176.343866 172.737603 
L 177.657193 173.69794 
L 178.970521 174.149243 
L 180.283848 182.987486 
L 181.597176 185.076705 
L 182.910503 181.236175 
L 184.223831 181.052904 
L 185.537158 183.128356 
L 186.850485 179.398985 
L 188.163813 177.419195 
L 189.47714 176.623454 
L 190.790468 173.43752 
L 192.103795 169.814994 
L 193.417123 169.745578 
L 196.043778 173.511053 
L 197.357105 176.37927 
L 198.670432 176.735258 
L 199.98376 172.082673 
L 201.297087 170.67982 
L 202.610415 167.729623 
L 203.923742 169.009128 
L 205.23707 167.099233 
L 207.863725 164.66616 
L 209.177052 166.554034 
L 210.49038 164.633531 
L 211.803707 164.110217 
L 213.117034 163.749391 
L 214.430362 164.722825 
L 217.057017 158.099067 
L 218.370344 160.364079 
L 219.683672 156.129475 
L 220.996999 152.769174 
L 222.310327 151.560708 
L 223.623654 149.087735 
L 224.936981 158.988386 
L 226.250309 155.555897 
L 228.876964 149.866282 
L 230.190291 147.868909 
L 231.503619 146.369605 
L 232.816946 146.610806 
L 234.130274 154.886995 
L 235.443601 154.126023 
L 236.756929 151.58953 
L 239.383583 149.779546 
L 240.696911 146.997092 
L 242.010238 151.750502 
L 243.323566 150.386672 
L 244.636893 146.811923 
L 245.950221 145.55316 
L 247.263548 145.169443 
L 248.576876 150.010044 
L 249.890203 152.273375 
L 251.20353 151.326686 
L 252.516858 150.60825 
L 253.830185 166.618305 
L 255.143513 165.302518 
L 256.45684 164.384645 
L 257.770168 164.267758 
L 259.083495 167.109111 
L 260.396823 169.515142 
L 261.71015 163.958494 
L 263.023477 164.500501 
L 264.336805 163.617813 
L 265.650132 159.615892 
L 266.96346 172.38868 
L 268.276787 203.980233 
L 269.590115 200.264745 
L 270.903442 200.597092 
L 272.21677 193.834464 
L 273.530097 191.59369 
L 274.843425 187.367317 
L 276.156752 185.286369 
L 277.470079 184.549082 
L 278.783407 177.672747 
L 281.410062 166.607714 
L 282.723389 161.318759 
L 284.036717 161.00531 
L 285.350044 157.779747 
L 287.976699 150.657367 
L 289.290026 148.247943 
L 290.603354 145.026953 
L 291.916681 143.075597 
L 293.230009 153.350839 
L 295.856664 148.525322 
L 297.169991 147.340331 
L 298.483319 146.52658 
L 299.796646 144.861485 
L 301.109974 146.63152 
L 302.423301 145.062575 
L 303.736628 143.311413 
L 305.049956 140.905924 
L 306.363283 142.119487 
L 307.676611 145.049123 
L 308.989938 153.506954 
L 310.303266 153.351551 
L 311.616593 154.00922 
L 312.929921 151.361172 
L 314.243248 147.932468 
L 315.556575 147.000909 
L 316.869903 144.64123 
L 318.18323 142.555984 
L 319.496558 141.378281 
L 320.809885 138.99717 
L 322.123213 137.086229 
L 323.43654 136.475411 
L 324.749868 134.275743 
L 326.063195 133.087794 
L 327.376523 131.171809 
L 328.68985 129.496332 
L 330.003177 128.971497 
L 331.316505 130.915116 
L 332.629832 129.478591 
L 333.94316 130.142546 
L 335.256487 129.96964 
L 336.569815 130.169084 
L 337.883142 129.018385 
L 339.19647 135.311566 
L 340.509797 133.519373 
L 343.136452 130.538652 
L 344.449779 130.759139 
L 345.763107 131.707431 
L 348.389762 129.457857 
L 349.703089 128.676652 
L 351.016417 128.061172 
L 352.329744 131.68687 
L 353.643071 130.99033 
L 354.956399 131.510846 
L 356.269726 131.760381 
L 357.583054 133.28849 
L 358.896381 131.600735 
L 360.209709 130.365198 
L 361.523036 128.725903 
L 362.836364 128.362576 
L 364.149691 128.815396 
L 365.463019 126.688637 
L 366.776346 125.139328 
L 368.089673 124.172689 
L 369.403001 126.486182 
L 370.716328 127.468536 
L 372.029656 129.459804 
L 373.342983 129.776053 
L 374.656311 128.995054 
L 375.969638 128.939341 
L 377.282966 131.84457 
L 378.596293 130.566775 
L 379.90962 135.944724 
L 381.222948 137.897363 
L 382.536275 136.737357 
L 383.849603 138.361728 
L 385.16293 138.545071 
L 386.476258 136.707861 
L 387.789585 137.402262 
L 389.102913 136.24284 
L 390.41624 136.757333 
L 391.729568 135.006687 
L 393.042895 134.32333 
L 394.356222 132.64995 
L 395.66955 133.612971 
L 396.982877 131.744615 
L 398.296205 132.094091 
L 399.609532 130.58844 
L 400.92286 130.971576 
L 402.236187 129.229956 
L 403.549515 129.071868 
L 406.176169 126.513259 
L 407.489497 126.437679 
L 408.802824 124.983225 
L 410.116152 123.96548 
L 412.742807 123.458735 
L 414.056134 122.930548 
L 415.369462 122.141764 
L 417.996117 121.182652 
L 419.309444 120.236285 
L 420.622771 120.749537 
L 423.249426 120.701569 
L 424.562754 119.22186 
L 425.876081 122.327782 
L 427.189409 121.401672 
L 428.502736 121.037965 
L 429.816064 120.155492 
L 431.129391 119.446909 
L 432.442718 120.977839 
L 433.756046 123.189573 
L 435.069373 125.914124 
L 436.382701 124.997481 
L 437.696028 129.4602 
L 439.009356 128.754898 
L 440.322683 127.318081 
L 442.949338 125.378662 
L 444.262665 123.905034 
L 445.575993 122.965856 
L 446.88932 122.524369 
L 448.202648 121.718851 
L 449.515975 125.812111 
L 450.829303 127.373101 
L 452.14263 126.246724 
L 453.455958 126.695265 
L 454.769285 125.139438 
L 456.082613 124.266536 
L 457.39594 124.316013 
L 458.709267 123.112085 
L 460.022595 122.610083 
L 461.335922 122.491244 
L 462.64925 123.392131 
L 463.962577 122.231164 
L 465.275905 121.544269 
L 466.589232 123.737613 
L 467.90256 123.684891 
L 469.215887 122.253088 
L 470.529214 123.158044 
L 471.842542 121.887902 
L 473.155869 121.049209 
L 474.469197 119.530051 
L 475.782524 119.868884 
L 477.095852 119.922543 
L 478.409179 120.931464 
L 479.722507 120.076543 
L 481.035834 120.931182 
L 482.349162 120.190506 
L 483.662489 119.020657 
L 484.975816 119.573089 
L 486.289144 118.965493 
L 487.602471 124.49545 
L 488.915799 126.268281 
L 490.229126 125.57509 
L 492.855781 123.076444 
L 494.169109 125.142628 
L 495.482436 124.717848 
L 496.795763 124.638583 
L 498.109091 124.927434 
L 498.109091 124.927434 
" style="fill:none;stroke:#4c72b0;stroke-linecap:round;stroke-width:2;"/>
   </g>
   <g id="line2d_15">
    <path clip-path="url(#p39b0dca9cc)" d="M 92.290909 475.488889 
L 93.604237 568.952148 
L 94.917564 394.910479 
L 96.230891 422.396164 
L 97.544219 363.104447 
L 98.857546 517.827245 
L 100.170874 430.435071 
L 101.484201 556.804671 
L 102.797529 428.815387 
L 104.110856 314.67541 
L 105.424184 213.879578 
L 106.737511 286.02668 
L 108.050838 239.027721 
L 109.364166 316.629819 
L 110.677493 361.20879 
L 111.990821 351.298223 
L 113.304148 250.217489 
L 114.617476 165.570678 
L 115.930803 208.873211 
L 117.244131 153.407545 
L 118.557458 332.947926 
L 119.870786 264.752593 
L 121.184113 230.22165 
L 122.49744 296.498304 
L 123.810768 284.242681 
L 125.124095 178.581049 
L 126.437423 184.625987 
L 127.75075 168.648352 
L 129.064078 266.366938 
L 130.377405 238.801534 
L 131.690733 254.711601 
L 134.317387 143.666558 
L 135.630715 289.320386 
L 136.944042 227.144846 
L 138.25737 155.870938 
L 139.570697 154.676714 
L 140.884025 208.216327 
L 142.197352 241.56077 
L 143.51068 188.925873 
L 144.824007 164.314994 
L 146.137335 261.266066 
L 147.450662 125.862644 
L 148.763989 187.65313 
L 150.077317 202.766968 
L 151.390644 305.219965 
L 152.703972 173.041036 
L 154.017299 143.69215 
L 155.330627 188.3896 
L 156.643954 155.190388 
L 157.957282 244.72663 
L 159.270609 190.792667 
L 160.583936 127.122912 
L 161.897264 125.303996 
L 163.210591 140.318039 
L 164.523919 137.179869 
L 165.837246 137.345137 
L 167.150574 278.858915 
L 168.463901 142.126125 
L 169.777229 193.306609 
L 171.090556 188.644744 
L 172.403883 147.73741 
L 173.717211 166.98567 
L 175.030538 121.305104 
L 176.343866 165.00976 
L 177.657193 137.762331 
L 178.970521 195.043388 
L 180.283848 136.029377 
L 181.597176 124.056595 
L 182.910503 180.185023 
L 184.223831 129.40489 
L 185.537158 130.993996 
L 186.850485 174.112616 
L 188.163813 148.623644 
L 189.47714 315.339721 
L 190.790468 125.194497 
L 192.103795 137.94505 
L 193.417123 169.117044 
L 194.73045 143.12722 
L 196.043778 137.884028 
L 197.357105 208.395887 
L 198.670432 150.309265 
L 199.98376 154.530194 
L 201.297087 135.921817 
L 202.610415 167.286296 
L 203.923742 121.835389 
L 205.23707 246.744957 
L 206.550397 145.3583 
L 207.863725 139.394543 
L 209.177052 154.810161 
L 210.49038 255.614352 
L 211.803707 147.578657 
L 213.117034 208.710173 
L 214.430362 155.784806 
L 215.743689 159.410888 
L 217.057017 123.183532 
L 218.370344 114.584852 
L 219.683672 144.528853 
L 220.996999 183.754953 
L 222.310327 131.629018 
L 223.623654 125.936185 
L 224.936981 154.800492 
L 226.250309 123.103664 
L 227.563636 151.561741 
L 228.876964 174.900869 
L 230.190291 180.514888 
L 231.503619 133.674903 
L 232.816946 118.043647 
L 234.130274 135.169003 
L 235.443601 135.755111 
L 236.756929 138.299337 
L 238.070256 119.757353 
L 239.383583 112.318002 
L 240.696911 163.22564 
L 242.010238 116.012291 
L 243.323566 144.003017 
L 244.636893 114.445078 
L 245.950221 123.137048 
L 247.263548 111.029264 
L 248.576876 113.182915 
L 249.890203 117.271558 
L 251.20353 113.408079 
L 252.516858 150.274773 
L 253.830185 125.836748 
L 255.143513 124.243371 
L 256.45684 123.579495 
L 257.770168 144.010961 
L 259.083495 124.756482 
L 260.396823 212.725775 
L 261.71015 143.098447 
L 263.023477 121.343045 
L 264.336805 128.068927 
L 265.650132 124.489891 
L 266.96346 124.894558 
L 268.276787 126.373449 
L 269.590115 126.535169 
L 270.903442 126.315367 
L 272.21677 129.875762 
L 273.530097 124.955714 
L 274.843425 163.579077 
L 276.156752 124.013238 
L 277.470079 142.632847 
L 278.783407 124.327528 
L 280.096734 161.321449 
L 281.410062 144.119924 
L 282.723389 152.258152 
L 284.036717 112.79276 
L 285.350044 121.104406 
L 286.663372 137.315515 
L 287.976699 123.99383 
L 289.290026 135.731091 
L 290.603354 124.715449 
L 291.916681 143.4761 
L 293.230009 122.282679 
L 294.543336 130.846269 
L 295.856664 140.377015 
L 298.483319 118.024417 
L 299.796646 178.475168 
L 301.109974 136.367159 
L 302.423301 157.276985 
L 303.736628 202.065616 
L 305.049956 120.625268 
L 306.363283 118.773183 
L 307.676611 124.104616 
L 308.989938 125.73404 
L 310.303266 123.146967 
L 311.616593 127.406623 
L 312.929921 135.758221 
L 314.243248 127.27877 
L 315.556575 116.444872 
L 316.869903 136.726834 
L 318.18323 128.963658 
L 319.496558 119.151917 
L 320.809885 130.857296 
L 322.123213 122.190337 
L 323.43654 118.417038 
L 324.749868 121.38263 
L 326.063195 118.46093 
L 327.376523 125.54192 
L 328.68985 124.926619 
L 330.003177 125.64025 
L 331.316505 132.863068 
L 332.629832 123.855825 
L 333.94316 121.57282 
L 335.256487 117.168993 
L 336.569815 116.021798 
L 337.883142 116.750602 
L 339.19647 120.421854 
L 340.509797 122.615788 
L 341.823124 111.591611 
L 343.136452 126.740532 
L 344.449779 131.657362 
L 345.763107 117.140023 
L 347.076434 117.048235 
L 348.389762 127.052373 
L 349.703089 125.343849 
L 351.016417 120.143647 
L 352.329744 112.341574 
L 354.956399 127.14518 
L 356.269726 139.248184 
L 357.583054 120.504296 
L 358.896381 115.541821 
L 360.209709 116.101845 
L 361.523036 121.627435 
L 362.836364 120.022245 
L 364.149691 124.325902 
L 365.463019 131.801979 
L 366.776346 148.392108 
L 368.089673 120.219601 
L 369.403001 120.543988 
L 370.716328 117.796214 
L 372.029656 130.106931 
L 373.342983 116.007984 
L 374.656311 119.141712 
L 375.969638 124.902421 
L 377.282966 116.299737 
L 378.596293 117.576769 
L 379.90962 115.020507 
L 381.222948 117.82027 
L 382.536275 126.14564 
L 383.849603 117.008953 
L 385.16293 126.679893 
L 386.476258 117.988781 
L 387.789585 115.196649 
L 389.102913 111.890514 
L 390.41624 117.586474 
L 391.729568 120.459313 
L 393.042895 139.448274 
L 394.356222 126.681931 
L 395.66955 125.271362 
L 396.982877 120.49981 
L 398.296205 124.863515 
L 399.609532 122.291275 
L 400.92286 116.505493 
L 402.236187 121.888164 
L 403.549515 118.063305 
L 404.862842 117.379395 
L 406.176169 120.08871 
L 407.489497 113.52966 
L 408.802824 115.777619 
L 410.116152 119.724326 
L 411.429479 109.859783 
L 412.742807 117.638408 
L 414.056134 116.390471 
L 415.369462 114.37218 
L 416.682789 137.800049 
L 417.996117 114.581492 
L 419.309444 122.793574 
L 420.622771 112.994173 
L 421.936099 118.089916 
L 423.249426 113.448755 
L 424.562754 114.50845 
L 425.876081 118.630013 
L 427.189409 113.536469 
L 428.502736 111.727042 
L 429.816064 115.960803 
L 431.129391 121.0796 
L 432.442718 124.597872 
L 433.756046 115.148611 
L 435.069373 123.302092 
L 436.382701 125.897029 
L 437.696028 117.32948 
L 439.009356 111.129398 
L 440.322683 120.88639 
L 441.636011 115.833968 
L 442.949338 115.866619 
L 444.262665 132.729353 
L 445.575993 128.411096 
L 446.88932 141.498145 
L 448.202648 120.445141 
L 449.515975 140.348081 
L 450.829303 117.058726 
L 452.14263 120.633972 
L 453.455958 115.850696 
L 454.769285 127.083255 
L 456.082613 125.598877 
L 457.39594 113.816731 
L 458.709267 123.857505 
L 460.022595 113.967764 
L 461.335922 113.516917 
L 462.64925 119.81002 
L 463.962577 118.242021 
L 465.275905 111.145197 
L 466.589232 113.643341 
L 467.90256 108.760288 
L 469.215887 113.451311 
L 470.529214 123.290672 
L 471.842542 114.714599 
L 473.155869 121.271433 
L 474.469197 120.913984 
L 475.782524 115.707598 
L 477.095852 115.716105 
L 478.409179 114.003936 
L 479.722507 123.97846 
L 481.035834 115.842707 
L 482.349162 114.471421 
L 483.662489 116.781609 
L 484.975816 125.13107 
L 487.602471 116.225481 
L 488.915799 125.579361 
L 490.229126 120.841104 
L 491.542454 116.889089 
L 492.855781 111.172022 
L 494.169109 117.72664 
L 495.482436 115.498304 
L 496.795763 129.341383 
L 498.109091 117.238442 
L 498.109091 117.238442 
" style="fill:none;stroke:#dd8452;stroke-linecap:round;stroke-opacity:0.3;stroke-width:1.5;"/>
   </g>
   <g id="line2d_16">
    <path clip-path="url(#p39b0dca9cc)" d="M 92.290909 475.488889 
L 93.604237 484.835215 
L 94.917564 475.842741 
L 96.230891 470.498084 
L 97.544219 459.75872 
L 98.857546 465.565573 
L 100.170874 462.052522 
L 101.484201 471.527737 
L 102.797529 467.256502 
L 104.110856 451.998393 
L 105.424184 428.186511 
L 106.737511 413.970528 
L 108.050838 396.476248 
L 109.364166 388.491605 
L 110.677493 385.763323 
L 111.990821 382.316813 
L 113.304148 369.106881 
L 114.617476 348.753261 
L 115.930803 334.765256 
L 117.244131 316.629485 
L 118.557458 318.261329 
L 119.870786 312.910455 
L 121.184113 304.641575 
L 122.49744 303.827247 
L 123.810768 301.868791 
L 125.124095 289.540017 
L 127.75075 268.008587 
L 129.064078 267.844423 
L 130.377405 264.940134 
L 131.690733 263.91728 
L 133.00406 257.664372 
L 134.317387 246.26459 
L 135.630715 250.57017 
L 136.944042 248.227637 
L 138.25737 238.991968 
L 139.570697 230.560442 
L 140.884025 228.326031 
L 142.197352 229.649505 
L 143.51068 225.577141 
L 144.824007 219.450927 
L 146.137335 223.632441 
L 147.450662 213.855461 
L 148.763989 211.235228 
L 150.077317 210.388402 
L 151.390644 219.871558 
L 152.703972 215.188506 
L 154.017299 208.03887 
L 155.330627 206.073943 
L 156.643954 200.985588 
L 157.957282 205.359692 
L 159.270609 203.902989 
L 161.897264 189.132883 
L 164.523919 179.544246 
L 165.837246 175.324335 
L 167.150574 185.677793 
L 168.463901 181.322626 
L 169.777229 182.521024 
L 171.090556 183.133396 
L 172.403883 179.593798 
L 173.717211 178.332985 
L 175.030538 172.630197 
L 176.343866 171.868153 
L 177.657193 168.457571 
L 178.970521 171.116153 
L 180.283848 167.607475 
L 181.597176 163.252387 
L 182.910503 164.945651 
L 184.223831 161.391575 
L 185.537158 158.351817 
L 186.850485 159.927897 
L 188.163813 158.797471 
L 189.47714 174.451696 
L 190.790468 169.525976 
L 192.103795 166.367884 
L 193.417123 166.6428 
L 194.73045 164.291242 
L 196.043778 161.65052 
L 197.357105 166.325057 
L 198.670432 164.723478 
L 199.98376 163.704149 
L 201.297087 160.925916 
L 202.610415 161.561954 
L 203.923742 157.589298 
L 205.23707 166.504864 
L 206.550397 164.390207 
L 207.863725 161.890641 
L 209.177052 161.182593 
L 210.49038 170.625769 
L 211.803707 168.321058 
L 213.117034 172.359969 
L 214.430362 170.702453 
L 215.743689 169.573296 
L 218.370344 159.899373 
L 219.683672 158.362321 
L 220.996999 160.901584 
L 222.310327 157.974328 
L 223.623654 154.770513 
L 224.936981 154.773511 
L 226.250309 151.606526 
L 227.563636 151.602048 
L 228.876964 153.93193 
L 230.190291 156.590226 
L 231.503619 154.298694 
L 232.816946 150.673189 
L 234.130274 149.12277 
L 235.443601 147.786004 
L 236.756929 146.837338 
L 238.070256 144.129339 
L 239.383583 140.948205 
L 240.696911 143.175949 
L 242.010238 140.459583 
L 243.323566 140.813926 
L 244.636893 138.177042 
L 245.950221 136.673042 
L 247.263548 134.108664 
L 248.576876 132.016089 
L 249.890203 130.541636 
L 251.20353 128.828281 
L 252.516858 130.97293 
L 255.143513 129.837718 
L 256.45684 129.211895 
L 257.770168 130.691802 
L 259.083495 130.09827 
L 260.396823 138.36102 
L 261.71015 138.834763 
L 263.023477 137.085591 
L 264.336805 136.183925 
L 265.650132 135.014521 
L 266.96346 134.002525 
L 269.590115 132.569173 
L 270.903442 131.943792 
L 272.21677 131.736989 
L 273.530097 131.058862 
L 274.843425 134.310883 
L 276.156752 133.281119 
L 277.470079 134.216292 
L 278.783407 133.227415 
L 280.096734 136.036819 
L 281.410062 136.845129 
L 282.723389 138.386431 
L 284.036717 135.827064 
L 285.350044 134.354798 
L 286.663372 134.65087 
L 287.976699 133.585166 
L 289.290026 133.799759 
L 290.603354 132.891328 
L 291.916681 133.949805 
L 293.230009 132.783092 
L 294.543336 132.58941 
L 295.856664 133.368171 
L 297.169991 132.903871 
L 298.483319 131.415926 
L 299.796646 136.12185 
L 301.109974 136.146381 
L 302.423301 138.259442 
L 303.736628 144.640059 
L 306.363283 139.89204 
L 307.676611 138.313298 
L 310.303266 135.664531 
L 311.616593 134.838741 
L 312.929921 134.930689 
L 314.243248 134.165497 
L 315.556575 132.393434 
L 316.869903 132.826774 
L 318.18323 132.440463 
L 319.496558 131.111608 
L 320.809885 131.086177 
L 322.123213 130.196593 
L 323.43654 129.018637 
L 324.749868 128.255037 
L 326.063195 127.275626 
L 330.003177 126.760248 
L 331.316505 127.37053 
L 332.629832 127.019059 
L 333.94316 126.474435 
L 337.883142 123.807574 
L 339.19647 123.469002 
L 340.509797 123.38368 
L 341.823124 122.204474 
L 343.136452 122.658079 
L 344.449779 123.558008 
L 347.076434 122.329412 
L 348.389762 122.801708 
L 349.703089 123.055922 
L 351.016417 122.764695 
L 352.329744 121.722383 
L 353.643071 121.517725 
L 354.956399 122.08047 
L 356.269726 123.797242 
L 357.583054 123.467947 
L 358.896381 122.675334 
L 360.209709 122.017986 
L 361.523036 121.978931 
L 362.836364 121.783262 
L 364.149691 122.037526 
L 365.463019 123.013971 
L 366.776346 125.551785 
L 370.716328 123.893619 
L 372.029656 124.514951 
L 373.342983 123.664254 
L 374.656311 123.212 
L 375.969638 123.381042 
L 377.282966 122.672911 
L 378.596293 122.163297 
L 379.90962 121.449018 
L 381.222948 121.086143 
L 382.536275 121.592093 
L 383.849603 121.133779 
L 385.16293 121.68839 
L 386.476258 121.318429 
L 387.789585 120.706251 
L 389.102913 119.824678 
L 390.41624 119.600857 
L 391.729568 119.686703 
L 393.042895 121.66286 
L 394.356222 122.164767 
L 395.66955 122.475427 
L 396.982877 122.277865 
L 398.296205 122.53643 
L 399.609532 122.511914 
L 400.92286 121.911272 
L 402.236187 121.908961 
L 404.862842 121.109896 
L 406.176169 121.007777 
L 407.489497 120.259965 
L 408.802824 119.811731 
L 410.116152 119.80299 
L 411.429479 118.80867 
L 412.742807 118.691643 
L 414.056134 118.461526 
L 415.369462 118.052592 
L 416.682789 120.027337 
L 417.996117 119.482753 
L 419.309444 119.813835 
L 420.622771 119.131869 
L 421.936099 119.027674 
L 423.249426 118.469782 
L 424.562754 118.073649 
L 425.876081 118.129285 
L 427.189409 117.670003 
L 428.502736 117.075707 
L 429.816064 116.964217 
L 431.129391 117.375755 
L 432.442718 118.097967 
L 433.756046 117.803031 
L 435.069373 118.352937 
L 436.382701 119.107346 
L 437.696028 118.92956 
L 439.009356 118.149544 
L 440.322683 118.423228 
L 442.949338 117.934534 
L 444.262665 119.414016 
L 445.575993 120.313724 
L 446.88932 122.432166 
L 448.202648 122.233463 
L 449.515975 124.044925 
L 450.829303 123.346305 
L 452.14263 123.075072 
L 453.455958 122.352634 
L 454.769285 122.825696 
L 456.082613 123.103014 
L 457.39594 122.174386 
L 458.709267 122.342698 
L 461.335922 120.706376 
L 462.64925 120.61674 
L 463.962577 120.379268 
L 465.275905 119.455861 
L 466.589232 118.874609 
L 467.90256 117.863177 
L 469.215887 117.42199 
L 470.529214 118.008859 
L 471.842542 117.679433 
L 474.469197 118.326168 
L 478.409179 117.446935 
L 479.722507 118.100087 
L 481.035834 117.874349 
L 482.349162 117.534056 
L 483.662489 117.458812 
L 484.975816 118.226038 
L 486.289144 118.473093 
L 487.602471 118.248332 
L 488.915799 118.981435 
L 490.229126 119.167402 
L 491.542454 118.93957 
L 492.855781 118.162816 
L 494.169109 118.119198 
L 495.482436 117.857109 
L 496.795763 119.005536 
L 498.109091 118.828827 
L 498.109091 118.828827 
" style="fill:none;stroke:#dd8452;stroke-linecap:round;stroke-width:2;"/>
   </g>
   <g id="line2d_17">
    <path clip-path="url(#p39b0dca9cc)" d="M 94.289544 577 
L 94.917564 377.487918 
L 96.230891 359.522356 
L 97.544219 433.503211 
L 98.857546 516.671561 
L 100.170874 468.117254 
L 101.484201 409.484757 
L 104.110856 348.327345 
L 105.424184 456.762935 
L 106.737511 384.029115 
L 108.050838 336.394206 
L 109.364166 297.274525 
L 110.677493 356.99098 
L 111.990821 348.624549 
L 113.304148 324.457636 
L 114.617476 316.764821 
L 115.930803 312.111872 
L 117.244131 327.899176 
L 118.557458 309.323051 
L 119.870786 313.958656 
L 122.49744 309.842779 
L 123.810768 346.201488 
L 125.124095 308.613589 
L 126.437423 229.925879 
L 127.75075 327.722346 
L 129.064078 321.498316 
L 130.377405 292.550288 
L 131.690733 267.9646 
L 133.00406 290.395886 
L 134.317387 331.540074 
L 135.630715 183.02816 
L 136.944042 278.761493 
L 138.25737 296.124961 
L 139.570697 297.84667 
L 140.884025 168.775965 
L 142.197352 280.672038 
L 143.51068 262.152029 
L 144.824007 238.752217 
L 146.137335 152.327414 
L 147.450662 168.864179 
L 148.763989 262.137292 
L 150.077317 201.93703 
L 151.390644 159.588361 
L 152.703972 201.438502 
L 154.017299 211.320729 
L 155.330627 138.147625 
L 157.957282 210.896323 
L 159.270609 123.335351 
L 160.583936 125.603631 
L 161.897264 152.102017 
L 163.210591 139.540214 
L 164.523919 136.51082 
L 165.837246 154.18924 
L 167.150574 156.111597 
L 168.463901 145.168879 
L 169.777229 132.026607 
L 171.090556 128.015902 
L 172.403883 122.959494 
L 173.717211 143.99166 
L 175.030538 136.577114 
L 176.343866 169.113496 
L 177.657193 118.695656 
L 178.970521 120.176209 
L 180.283848 154.930312 
L 181.597176 142.327869 
L 182.910503 125.537899 
L 184.223831 227.453028 
L 185.537158 138.01684 
L 186.850485 114.886238 
L 188.163813 139.103737 
L 189.47714 132.399757 
L 190.790468 116.364254 
L 192.103795 159.026792 
L 193.417123 113.468735 
L 194.73045 110.925126 
L 196.043778 132.289766 
L 197.357105 117.056081 
L 198.670432 122.805584 
L 199.98376 119.126557 
L 201.297087 122.72241 
L 202.610415 127.086472 
L 203.923742 126.348804 
L 205.23707 120.666319 
L 206.550397 118.181222 
L 207.863725 113.895991 
L 209.177052 121.723138 
L 210.49038 165.637705 
L 211.803707 118.581492 
L 213.117034 116.773245 
L 214.430362 118.844865 
L 215.743689 122.197718 
L 217.057017 118.061893 
L 218.370344 112.691715 
L 219.683672 114.330199 
L 220.996999 121.9149 
L 222.310327 116.610899 
L 223.623654 116.780965 
L 224.936981 115.554617 
L 226.250309 120.799767 
L 227.563636 117.63067 
L 228.876964 128.993629 
L 230.190291 121.825506 
L 231.503619 112.400158 
L 232.816946 114.58419 
L 234.130274 111.256859 
L 235.443601 111.225458 
L 236.756929 114.366211 
L 238.070256 112.785094 
L 239.383583 113.71581 
L 240.696911 111.801763 
L 242.010238 110.921284 
L 243.323566 118.407798 
L 244.636893 118.147123 
L 245.950221 118.660877 
L 247.263548 113.224216 
L 248.576876 151.032179 
L 249.890203 124.179623 
L 251.20353 111.404496 
L 252.516858 120.072947 
L 253.830185 113.598608 
L 255.143513 113.488412 
L 256.45684 112.402088 
L 257.770168 120.036328 
L 259.083495 126.732132 
L 260.396823 120.292732 
L 261.71015 115.040666 
L 264.336805 122.758868 
L 265.650132 118.889258 
L 266.96346 112.953891 
L 268.276787 113.190689 
L 269.590115 111.50027 
L 270.903442 110.644757 
L 272.21677 107.458772 
L 273.530097 110.859895 
L 274.843425 113.567351 
L 276.156752 112.36445 
L 277.470079 110.690812 
L 278.783407 119.678807 
L 280.096734 130.376657 
L 281.410062 113.13014 
L 282.723389 115.238237 
L 284.036717 123.161854 
L 285.350044 112.166719 
L 286.663372 124.931945 
L 287.976699 114.989732 
L 289.290026 116.180695 
L 290.603354 119.836649 
L 291.916681 116.650414 
L 293.230009 119.193737 
L 294.543336 108.579838 
L 295.856664 114.935385 
L 297.169991 133.130588 
L 298.483319 113.288715 
L 299.796646 110.212568 
L 301.109974 112.370276 
L 302.423301 116.747546 
L 303.736628 109.808885 
L 305.049956 115.079215 
L 306.363283 117.551731 
L 307.676611 112.50896 
L 308.989938 136.578169 
L 310.303266 121.923764 
L 311.616593 110.229064 
L 312.929921 115.56954 
L 314.243248 121.75402 
L 315.556575 123.382961 
L 316.869903 116.68537 
L 318.18323 118.687703 
L 319.496558 116.112229 
L 320.809885 116.090872 
L 322.123213 113.274525 
L 323.43654 119.660596 
L 324.749868 108.664925 
L 326.063195 111.330007 
L 327.376523 109.261943 
L 328.68985 112.861155 
L 331.316505 111.841349 
L 332.629832 112.295502 
L 333.94316 107.662061 
L 335.256487 115.82337 
L 336.569815 115.911173 
L 337.883142 114.881359 
L 339.19647 116.208789 
L 340.509797 113.283371 
L 341.823124 117.08312 
L 343.136452 113.644145 
L 344.449779 114.599613 
L 347.076434 110.216786 
L 348.389762 110.549501 
L 349.703089 116.435347 
L 351.016417 113.003038 
L 352.329744 115.250532 
L 353.643071 111.840527 
L 354.956399 113.988155 
L 356.269726 121.027719 
L 357.583054 117.280387 
L 358.896381 110.313936 
L 360.209709 112.78202 
L 361.523036 103.671961 
L 362.836364 121.084425 
L 364.149691 108.876471 
L 365.463019 113.986457 
L 366.776346 120.227733 
L 368.089673 110.189228 
L 369.403001 108.960878 
L 370.716328 116.033504 
L 372.029656 114.4056 
L 373.342983 107.299125 
L 374.656311 116.585915 
L 375.969638 115.558692 
L 377.282966 115.546539 
L 378.596293 114.287182 
L 379.90962 110.160187 
L 381.222948 114.816521 
L 382.536275 107.200313 
L 383.849603 105.665465 
L 385.16293 111.703916 
L 386.476258 111.922075 
L 387.789585 106.743855 
L 389.102913 109.56408 
L 390.41624 113.508535 
L 391.729568 104.461921 
L 393.042895 110.494618 
L 394.356222 117.240015 
L 395.66955 109.453401 
L 396.982877 119.068278 
L 398.296205 113.885018 
L 399.609532 113.838659 
L 400.92286 107.121142 
L 402.236187 113.62781 
L 403.549515 119.177652 
L 404.862842 109.576465 
L 406.176169 126.491062 
L 407.489497 112.630451 
L 408.802824 113.889593 
L 410.116152 113.859319 
L 411.429479 114.006348 
L 412.742807 123.993901 
L 414.056134 113.299098 
L 415.369462 108.144397 
L 416.682789 111.643296 
L 417.996117 113.000929 
L 419.309444 109.739668 
L 420.622771 111.516122 
L 421.936099 111.519142 
L 423.249426 118.241521 
L 424.562754 116.965597 
L 425.876081 112.07947 
L 427.189409 108.4616 
L 428.502736 111.240024 
L 429.816064 110.627046 
L 431.129391 112.585736 
L 432.442718 111.433466 
L 433.756046 111.986681 
L 435.069373 114.44279 
L 436.382701 132.279981 
L 437.696028 112.338608 
L 439.009356 113.305335 
L 440.322683 126.464273 
L 441.636011 113.39934 
L 442.949338 110.808907 
L 444.262665 114.245113 
L 445.575993 106.628279 
L 446.88932 108.1128 
L 448.202648 113.413387 
L 450.829303 109.41067 
L 452.14263 113.117702 
L 453.455958 110.062411 
L 454.769285 118.44179 
L 456.082613 109.9159 
L 457.39594 113.725085 
L 458.709267 113.897385 
L 460.022595 109.900459 
L 461.335922 116.869894 
L 462.64925 114.222273 
L 463.962577 114.69805 
L 465.275905 111.526023 
L 466.589232 111.132419 
L 467.90256 109.21948 
L 469.215887 120.70964 
L 470.529214 115.87627 
L 471.842542 117.177572 
L 473.155869 117.438032 
L 474.469197 116.678633 
L 475.782524 115.236932 
L 477.095852 109.123545 
L 478.409179 113.062782 
L 479.722507 105.444912 
L 481.035834 118.36462 
L 482.349162 106.550841 
L 483.662489 115.052033 
L 483.662489 115.052033 
" style="fill:none;stroke:#55a868;stroke-linecap:round;stroke-opacity:0.3;stroke-width:1.5;"/>
   </g>
   <g id="line2d_18">
    <path clip-path="url(#p39b0dca9cc)" d="M 101.717766 577 
L 104.110856 539.192532 
L 105.424184 530.949572 
L 106.737511 516.257527 
L 108.050838 498.271195 
L 109.364166 478.171528 
L 115.930803 417.193503 
L 117.244131 408.26407 
L 118.557458 398.369968 
L 121.184113 382.12494 
L 122.49744 374.896724 
L 123.810768 372.0272 
L 125.124095 365.685839 
L 126.437423 352.109843 
L 127.75075 349.671094 
L 129.064078 346.853816 
L 130.377405 341.423463 
L 131.690733 334.077577 
L 133.00406 329.709408 
L 134.317387 329.892474 
L 135.630715 315.206043 
L 136.944042 311.561588 
L 138.25737 310.017925 
L 139.570697 308.8008 
L 140.884025 294.798316 
L 142.197352 293.385688 
L 143.51068 290.262322 
L 144.824007 285.111312 
L 146.137335 271.832922 
L 147.450662 261.536048 
L 148.763989 261.596172 
L 150.077317 255.630258 
L 151.390644 246.026068 
L 152.703972 241.567312 
L 154.017299 238.542653 
L 155.330627 228.50315 
L 156.643954 223.204849 
L 157.957282 221.973997 
L 159.270609 212.110132 
L 160.583936 203.459482 
L 161.897264 198.323735 
L 164.523919 186.851927 
L 165.837246 183.585658 
L 167.150574 180.838252 
L 168.463901 177.271315 
L 172.403883 163.742324 
L 173.717211 161.767258 
L 175.030538 159.248243 
L 176.343866 160.234769 
L 177.657193 156.080857 
L 178.970521 152.490393 
L 180.283848 152.734384 
L 181.597176 151.693733 
L 182.910503 149.078149 
L 184.223831 156.915637 
L 185.537158 155.025758 
L 186.850485 151.011806 
L 188.163813 149.820999 
L 189.47714 148.078875 
L 190.790468 144.907412 
L 192.103795 146.31935 
L 194.73045 139.823373 
L 196.043778 139.070012 
L 197.357105 136.868619 
L 198.670432 135.462315 
L 199.98376 133.82874 
L 201.297087 132.718107 
L 203.923742 131.574329 
L 206.550397 129.253298 
L 207.863725 127.717567 
L 209.177052 127.118124 
L 210.49038 130.970082 
L 213.117034 128.435425 
L 214.430362 127.476369 
L 215.743689 126.948504 
L 217.057017 126.059843 
L 218.370344 124.72303 
L 219.683672 123.683747 
L 220.996999 123.506862 
L 224.936981 121.547734 
L 226.250309 121.472937 
L 227.563636 121.088711 
L 228.876964 121.879203 
L 230.190291 121.873833 
L 231.503619 120.926465 
L 232.816946 120.292238 
L 235.443601 118.572376 
L 239.383583 117.225164 
L 242.010238 116.10667 
L 245.950221 116.732123 
L 247.263548 116.381332 
L 248.576876 119.846417 
L 249.890203 120.279738 
L 251.20353 119.392213 
L 252.516858 119.460287 
L 256.45684 117.742202 
L 257.770168 117.971615 
L 259.083495 118.847667 
L 260.396823 118.992173 
L 261.71015 118.597022 
L 263.023477 118.642257 
L 264.336805 119.053918 
L 265.650132 119.037452 
L 270.903442 116.602757 
L 272.21677 115.688358 
L 273.530097 115.205512 
L 276.156752 114.773971 
L 277.470079 114.365655 
L 278.783407 114.896971 
L 280.096734 116.444939 
L 281.410062 116.113459 
L 282.723389 116.025937 
L 284.036717 116.739529 
L 285.350044 116.282248 
L 286.663372 117.147217 
L 287.976699 116.931469 
L 289.290026 116.856392 
L 290.603354 117.154417 
L 291.916681 117.104017 
L 293.230009 117.312989 
L 294.543336 116.439674 
L 295.856664 116.289245 
L 297.169991 117.973379 
L 298.483319 117.504913 
L 299.796646 116.775678 
L 301.109974 116.335138 
L 302.423301 116.376379 
L 303.736628 115.719629 
L 305.049956 115.655588 
L 306.363283 115.845202 
L 307.676611 115.511578 
L 308.989938 117.618237 
L 310.303266 118.04879 
L 311.616593 117.266817 
L 312.929921 117.09709 
L 315.556575 118.1448 
L 316.869903 117.998857 
L 318.18323 118.067742 
L 320.809885 117.694059 
L 322.123213 117.252105 
L 323.43654 117.492954 
L 324.749868 116.610151 
L 326.063195 116.082137 
L 327.376523 115.400118 
L 332.629832 114.333251 
L 333.94316 113.666132 
L 336.569815 114.084788 
L 337.883142 114.164445 
L 339.19647 114.368879 
L 340.509797 114.260328 
L 341.823124 114.542608 
L 345.763107 114.265441 
L 348.389762 113.529468 
L 349.703089 113.820056 
L 351.016417 113.738354 
L 352.329744 113.889572 
L 353.643071 113.684667 
L 354.956399 113.715016 
L 356.269726 114.446286 
L 357.583054 114.729697 
L 358.896381 114.28812 
L 360.209709 114.13751 
L 361.523036 113.090955 
L 362.836364 113.890302 
L 364.149691 113.388919 
L 365.463019 113.448673 
L 366.776346 114.126579 
L 369.403001 113.255647 
L 370.716328 113.533433 
L 372.029656 113.62065 
L 373.342983 112.988497 
L 374.656311 113.348239 
L 377.282966 113.76701 
L 378.596293 113.819027 
L 379.90962 113.453143 
L 381.222948 113.589481 
L 383.849603 112.222054 
L 386.476258 112.145424 
L 387.789585 111.605267 
L 389.102913 111.401148 
L 390.41624 111.611887 
L 391.729568 110.89689 
L 393.042895 110.856663 
L 394.356222 111.494998 
L 395.66955 111.290839 
L 396.982877 112.068583 
L 399.609532 112.409069 
L 400.92286 111.880277 
L 402.236187 112.05503 
L 403.549515 112.767292 
L 404.862842 112.448209 
L 406.176169 113.852495 
L 407.489497 113.73029 
L 411.429479 113.782412 
L 412.742807 114.803561 
L 414.056134 114.653115 
L 415.369462 114.002243 
L 416.682789 113.766348 
L 417.996117 113.689806 
L 419.309444 113.294793 
L 421.936099 112.957147 
L 423.249426 113.485585 
L 424.562754 113.833586 
L 425.876081 113.658174 
L 427.189409 113.138517 
L 429.816064 112.716505 
L 431.129391 112.703428 
L 433.756046 112.517457 
L 435.069373 112.70999 
L 436.382701 114.666989 
L 437.696028 114.434151 
L 439.009356 114.32127 
L 440.322683 115.53557 
L 441.636011 115.321947 
L 442.949338 114.870643 
L 444.262665 114.80809 
L 445.575993 113.990109 
L 446.88932 113.402378 
L 448.202648 113.403479 
L 449.515975 113.202619 
L 450.829303 112.823424 
L 452.14263 112.852852 
L 453.455958 112.573808 
L 454.769285 113.160606 
L 456.082613 112.836135 
L 458.709267 113.022266 
L 460.022595 112.710085 
L 461.335922 113.126066 
L 463.962577 113.381923 
L 466.589232 112.989942 
L 467.90256 112.612895 
L 469.215887 113.42257 
L 471.842542 114.018903 
L 474.469197 114.592598 
L 475.782524 114.657031 
L 477.095852 114.103683 
L 478.409179 113.999593 
L 479.722507 113.144124 
L 481.035834 113.666174 
L 482.349162 112.954641 
L 483.662489 113.16438 
L 483.662489 113.16438 
" style="fill:none;stroke:#55a868;stroke-linecap:round;stroke-width:2;"/>
   </g>
   <g id="patch_3">
    <path d="M 72 512.64 
L 72 69.12 
" style="fill:none;stroke:#ffffff;stroke-linecap:square;stroke-linejoin:miter;stroke-width:1.25;"/>
   </g>
   <g id="patch_4">
    <path d="M 518.4 512.64 
L 518.4 69.12 
" style="fill:none;stroke:#ffffff;stroke-linecap:square;stroke-linejoin:miter;stroke-width:1.25;"/>
   </g>
   <g id="patch_5">
    <path d="M 72 512.64 
L 518.4 512.64 
" style="fill:none;stroke:#ffffff;stroke-linecap:square;stroke-linejoin:miter;stroke-width:1.25;"/>
   </g>
   <g id="patch_6">
    <path d="M 72 69.12 
L 518.4 69.12 
" style="fill:none;stroke:#ffffff;stroke-linecap:square;stroke-linejoin:miter;stroke-width:1.25;"/>
   </g>
   <g id="text_16">
    <!-- LunarLanderContinuous -->
    <g style="fill:#262626;" transform="translate(214.728516 63.12)scale(0.15 -0.15)">
     <defs>
      <path d="M 7.328125 0 
L 7.328125 71.578125 
L 16.796875 71.578125 
L 16.796875 8.453125 
L 52.046875 8.453125 
L 52.046875 0 
z
" id="ArialMT-76"/>
      <path d="M 40.578125 0 
L 40.578125 7.625 
Q 34.515625 -1.171875 24.125 -1.171875 
Q 19.53125 -1.171875 15.546875 0.578125 
Q 11.578125 2.34375 9.640625 5 
Q 7.71875 7.671875 6.9375 11.53125 
Q 6.390625 14.109375 6.390625 19.734375 
L 6.390625 51.859375 
L 15.1875 51.859375 
L 15.1875 23.09375 
Q 15.1875 16.21875 15.71875 13.8125 
Q 16.546875 10.359375 19.234375 8.375 
Q 21.921875 6.390625 25.875 6.390625 
Q 29.828125 6.390625 33.296875 8.421875 
Q 36.765625 10.453125 38.203125 13.9375 
Q 39.65625 17.4375 39.65625 24.078125 
L 39.65625 51.859375 
L 48.4375 51.859375 
L 48.4375 0 
z
" id="ArialMT-117"/>
      <path d="M 58.796875 25.09375 
L 68.265625 22.703125 
Q 65.28125 11.03125 57.546875 4.90625 
Q 49.8125 -1.21875 38.625 -1.21875 
Q 27.046875 -1.21875 19.796875 3.484375 
Q 12.546875 8.203125 8.765625 17.140625 
Q 4.984375 26.078125 4.984375 36.328125 
Q 4.984375 47.515625 9.25 55.828125 
Q 13.53125 64.15625 21.40625 68.46875 
Q 29.296875 72.796875 38.765625 72.796875 
Q 49.515625 72.796875 56.828125 67.328125 
Q 64.15625 61.859375 67.046875 51.953125 
L 57.71875 49.75 
Q 55.21875 57.5625 50.484375 61.125 
Q 45.75 64.703125 38.578125 64.703125 
Q 30.328125 64.703125 24.78125 60.734375 
Q 19.234375 56.78125 16.984375 50.109375 
Q 14.75 43.453125 14.75 36.375 
Q 14.75 27.25 17.40625 20.4375 
Q 20.0625 13.625 25.671875 10.25 
Q 31.296875 6.890625 37.84375 6.890625 
Q 45.796875 6.890625 51.3125 11.46875 
Q 56.84375 16.0625 58.796875 25.09375 
z
" id="ArialMT-67"/>
     </defs>
     <use xlink:href="#ArialMT-76"/>
     <use x="55.615234" xlink:href="#ArialMT-117"/>
     <use x="111.230469" xlink:href="#ArialMT-110"/>
     <use x="166.845703" xlink:href="#ArialMT-97"/>
     <use x="222.460938" xlink:href="#ArialMT-114"/>
     <use x="255.761719" xlink:href="#ArialMT-76"/>
     <use x="311.376953" xlink:href="#ArialMT-97"/>
     <use x="366.992188" xlink:href="#ArialMT-110"/>
     <use x="422.607422" xlink:href="#ArialMT-100"/>
     <use x="478.222656" xlink:href="#ArialMT-101"/>
     <use x="533.837891" xlink:href="#ArialMT-114"/>
     <use x="567.138672" xlink:href="#ArialMT-67"/>
     <use x="639.355469" xlink:href="#ArialMT-111"/>
     <use x="694.970703" xlink:href="#ArialMT-110"/>
     <use x="750.585938" xlink:href="#ArialMT-116"/>
     <use x="778.369141" xlink:href="#ArialMT-105"/>
     <use x="800.585938" xlink:href="#ArialMT-110"/>
     <use x="856.201172" xlink:href="#ArialMT-117"/>
     <use x="911.816406" xlink:href="#ArialMT-111"/>
     <use x="967.431641" xlink:href="#ArialMT-117"/>
     <use x="1023.046875" xlink:href="#ArialMT-115"/>
    </g>
   </g>
   <g id="legend_1">
    <g id="patch_7">
     <path d="M 386.53125 505.14 
L 507.9 505.14 
Q 510.9 505.14 510.9 502.14 
L 510.9 439.986094 
Q 510.9 436.986094 507.9 436.986094 
L 386.53125 436.986094 
Q 383.53125 436.986094 383.53125 439.986094 
L 383.53125 502.14 
Q 383.53125 505.14 386.53125 505.14 
z
" style="fill:#eaeaf2;opacity:0.8;stroke:#cccccc;stroke-linejoin:miter;"/>
    </g>
    <g id="line2d_19">
     <path d="M 389.53125 448.472813 
L 419.53125 448.472813 
" style="fill:none;stroke:#4c72b0;stroke-linecap:round;stroke-width:2;"/>
    </g>
    <g id="line2d_20"/>
    <g id="text_17">
     <!-- BASELINE -->
     <g style="fill:#262626;" transform="translate(431.53125 453.722813)scale(0.15 -0.15)">
      <defs>
       <path d="M 7.328125 0 
L 7.328125 71.578125 
L 34.1875 71.578125 
Q 42.390625 71.578125 47.34375 69.40625 
Q 52.296875 67.234375 55.09375 62.71875 
Q 57.90625 58.203125 57.90625 53.265625 
Q 57.90625 48.6875 55.421875 44.625 
Q 52.9375 40.578125 47.90625 38.09375 
Q 54.390625 36.1875 57.875 31.59375 
Q 61.375 27 61.375 20.75 
Q 61.375 15.71875 59.25 11.390625 
Q 57.125 7.078125 54 4.734375 
Q 50.875 2.390625 46.15625 1.1875 
Q 41.453125 0 34.625 0 
z
M 16.796875 41.5 
L 32.28125 41.5 
Q 38.578125 41.5 41.3125 42.328125 
Q 44.921875 43.40625 46.75 45.890625 
Q 48.578125 48.390625 48.578125 52.15625 
Q 48.578125 55.71875 46.875 58.421875 
Q 45.171875 61.140625 41.984375 62.140625 
Q 38.8125 63.140625 31.109375 63.140625 
L 16.796875 63.140625 
z
M 16.796875 8.453125 
L 34.625 8.453125 
Q 39.203125 8.453125 41.0625 8.796875 
Q 44.34375 9.375 46.53125 10.734375 
Q 48.734375 12.109375 50.140625 14.71875 
Q 51.5625 17.328125 51.5625 20.75 
Q 51.5625 24.75 49.515625 27.703125 
Q 47.46875 30.671875 43.828125 31.859375 
Q 40.1875 33.0625 33.34375 33.0625 
L 16.796875 33.0625 
z
" id="ArialMT-66"/>
       <path d="M -0.140625 0 
L 27.34375 71.578125 
L 37.546875 71.578125 
L 66.84375 0 
L 56.0625 0 
L 47.703125 21.6875 
L 17.78125 21.6875 
L 9.90625 0 
z
M 20.515625 29.390625 
L 44.78125 29.390625 
L 37.3125 49.21875 
Q 33.890625 58.25 32.234375 64.0625 
Q 30.859375 57.171875 28.375 50.390625 
z
" id="ArialMT-65"/>
       <path d="M 9.328125 0 
L 9.328125 71.578125 
L 18.796875 71.578125 
L 18.796875 0 
z
" id="ArialMT-73"/>
       <path d="M 7.625 0 
L 7.625 71.578125 
L 17.328125 71.578125 
L 54.9375 15.375 
L 54.9375 71.578125 
L 64.015625 71.578125 
L 64.015625 0 
L 54.296875 0 
L 16.703125 56.25 
L 16.703125 0 
z
" id="ArialMT-78"/>
      </defs>
      <use xlink:href="#ArialMT-66"/>
      <use x="66.699219" xlink:href="#ArialMT-65"/>
      <use x="133.398438" xlink:href="#ArialMT-83"/>
      <use x="200.097656" xlink:href="#ArialMT-69"/>
      <use x="266.796875" xlink:href="#ArialMT-76"/>
      <use x="322.412109" xlink:href="#ArialMT-73"/>
      <use x="350.195312" xlink:href="#ArialMT-78"/>
      <use x="422.412109" xlink:href="#ArialMT-69"/>
     </g>
    </g>
    <g id="line2d_21">
     <path d="M 389.53125 469.690781 
L 419.53125 469.690781 
" style="fill:none;stroke:#dd8452;stroke-linecap:round;stroke-width:2;"/>
    </g>
    <g id="line2d_22"/>
    <g id="text_18">
     <!-- PRE -->
     <g style="fill:#262626;" transform="translate(431.53125 474.940781)scale(0.15 -0.15)">
      <defs>
       <path d="M 7.71875 0 
L 7.71875 71.578125 
L 34.71875 71.578125 
Q 41.84375 71.578125 45.609375 70.90625 
Q 50.875 70.015625 54.4375 67.546875 
Q 58.015625 65.09375 60.1875 60.640625 
Q 62.359375 56.203125 62.359375 50.875 
Q 62.359375 41.75 56.546875 35.421875 
Q 50.734375 29.109375 35.546875 29.109375 
L 17.1875 29.109375 
L 17.1875 0 
z
M 17.1875 37.546875 
L 35.6875 37.546875 
Q 44.875 37.546875 48.734375 40.96875 
Q 52.59375 44.390625 52.59375 50.59375 
Q 52.59375 55.078125 50.3125 58.265625 
Q 48.046875 61.46875 44.34375 62.5 
Q 41.9375 63.140625 35.5 63.140625 
L 17.1875 63.140625 
z
" id="ArialMT-80"/>
       <path d="M 7.859375 0 
L 7.859375 71.578125 
L 39.59375 71.578125 
Q 49.171875 71.578125 54.140625 69.640625 
Q 59.125 67.71875 62.109375 62.828125 
Q 65.09375 57.953125 65.09375 52.046875 
Q 65.09375 44.4375 60.15625 39.203125 
Q 55.21875 33.984375 44.921875 32.5625 
Q 48.6875 30.765625 50.640625 29 
Q 54.78125 25.203125 58.5 19.484375 
L 70.953125 0 
L 59.03125 0 
L 49.5625 14.890625 
Q 45.40625 21.34375 42.71875 24.75 
Q 40.046875 28.171875 37.921875 29.53125 
Q 35.796875 30.90625 33.59375 31.453125 
Q 31.984375 31.78125 28.328125 31.78125 
L 17.328125 31.78125 
L 17.328125 0 
z
M 17.328125 39.984375 
L 37.703125 39.984375 
Q 44.1875 39.984375 47.84375 41.328125 
Q 51.515625 42.671875 53.421875 45.625 
Q 55.328125 48.578125 55.328125 52.046875 
Q 55.328125 57.125 51.640625 60.390625 
Q 47.953125 63.671875 39.984375 63.671875 
L 17.328125 63.671875 
z
" id="ArialMT-82"/>
      </defs>
      <use xlink:href="#ArialMT-80"/>
      <use x="66.699219" xlink:href="#ArialMT-82"/>
      <use x="138.916016" xlink:href="#ArialMT-69"/>
     </g>
    </g>
    <g id="line2d_23">
     <path d="M 389.53125 490.90875 
L 419.53125 490.90875 
" style="fill:none;stroke:#55a868;stroke-linecap:round;stroke-width:2;"/>
    </g>
    <g id="line2d_24"/>
    <g id="text_19">
     <!-- PRE_ERE -->
     <g style="fill:#262626;" transform="translate(431.53125 496.15875)scale(0.15 -0.15)">
      <defs>
       <path d="M -1.515625 -19.875 
L -1.515625 -13.53125 
L 56.734375 -13.53125 
L 56.734375 -19.875 
z
" id="ArialMT-95"/>
      </defs>
      <use xlink:href="#ArialMT-80"/>
      <use x="66.699219" xlink:href="#ArialMT-82"/>
      <use x="138.916016" xlink:href="#ArialMT-69"/>
      <use x="205.615234" xlink:href="#ArialMT-95"/>
      <use x="261.230469" xlink:href="#ArialMT-69"/>
      <use x="327.929688" xlink:href="#ArialMT-82"/>
      <use x="400.146484" xlink:href="#ArialMT-69"/>
     </g>
    </g>
   </g>
  </g>
 </g>
 <defs>
  <clipPath id="p39b0dca9cc">
   <rect height="443.52" width="446.4" x="72" y="69.12"/>
  </clipPath>
 </defs>
</svg>
