<?xml version="1.0" encoding="utf-8" standalone="no"?>
<!DOCTYPE svg PUBLIC "-//W3C//DTD SVG 1.1//EN"
  "http://www.w3.org/Graphics/SVG/1.1/DTD/svg11.dtd">
<!-- Created with matplotlib (https://matplotlib.org/) -->
<svg height="576pt" version="1.1" viewBox="0 0 1080 576" width="1080pt" xmlns="http://www.w3.org/2000/svg" xmlns:xlink="http://www.w3.org/1999/xlink">
 <metadata>
  <rdf:RDF xmlns:cc="http://creativecommons.org/ns#" xmlns:dc="http://purl.org/dc/elements/1.1/" xmlns:rdf="http://www.w3.org/1999/02/22-rdf-syntax-ns#">
   <cc:Work>
    <dc:type rdf:resource="http://purl.org/dc/dcmitype/StillImage"/>
    <dc:date>2021-03-13T22:02:10.609964</dc:date>
    <dc:format>image/svg+xml</dc:format>
    <dc:creator>
     <cc:Agent>
      <dc:title>Matplotlib v3.3.2, https://matplotlib.org/</dc:title>
     </cc:Agent>
    </dc:creator>
   </cc:Work>
  </rdf:RDF>
 </metadata>
 <defs>
  <style type="text/css">*{stroke-linecap:butt;stroke-linejoin:round;}</style>
 </defs>
 <g id="figure_1">
  <g id="patch_1">
   <path d="M 0 576 
L 1080 576 
L 1080 0 
L 0 0 
z
" style="fill:#ffffff;"/>
  </g>
  <g id="axes_1">
   <g id="patch_2">
    <path d="M 135 512.64 
L 972 512.64 
L 972 69.12 
L 135 69.12 
z
" style="fill:#eaeaf2;"/>
   </g>
   <g id="matplotlib.axis_1">
    <g id="xtick_1">
     <g id="line2d_1">
      <path clip-path="url(#paae9bcb89b)" d="M 171.976841 512.64 
L 171.976841 69.12 
" style="fill:none;stroke:#ffffff;stroke-linecap:round;"/>
     </g>
     <g id="text_1">
      <!-- 0.0 -->
      <g style="fill:#262626;" transform="translate(164.331841 530.013594)scale(0.11 -0.11)">
       <defs>
        <path d="M 4.15625 35.296875 
Q 4.15625 48 6.765625 55.734375 
Q 9.375 63.484375 14.515625 67.671875 
Q 19.671875 71.875 27.484375 71.875 
Q 33.25 71.875 37.59375 69.546875 
Q 41.9375 67.234375 44.765625 62.859375 
Q 47.609375 58.5 49.21875 52.21875 
Q 50.828125 45.953125 50.828125 35.296875 
Q 50.828125 22.703125 48.234375 14.96875 
Q 45.65625 7.234375 40.5 3 
Q 35.359375 -1.21875 27.484375 -1.21875 
Q 17.140625 -1.21875 11.234375 6.203125 
Q 4.15625 15.140625 4.15625 35.296875 
z
M 13.1875 35.296875 
Q 13.1875 17.671875 17.3125 11.828125 
Q 21.4375 6 27.484375 6 
Q 33.546875 6 37.671875 11.859375 
Q 41.796875 17.71875 41.796875 35.296875 
Q 41.796875 52.984375 37.671875 58.78125 
Q 33.546875 64.59375 27.390625 64.59375 
Q 21.34375 64.59375 17.71875 59.46875 
Q 13.1875 52.9375 13.1875 35.296875 
z
" id="ArialMT-48"/>
        <path d="M 9.078125 0 
L 9.078125 10.015625 
L 19.09375 10.015625 
L 19.09375 0 
z
" id="ArialMT-46"/>
       </defs>
       <use xlink:href="#ArialMT-48"/>
       <use x="55.615234" xlink:href="#ArialMT-46"/>
       <use x="83.398438" xlink:href="#ArialMT-48"/>
      </g>
     </g>
    </g>
    <g id="xtick_2">
     <g id="line2d_2">
      <path clip-path="url(#paae9bcb89b)" d="M 284.462478 512.64 
L 284.462478 69.12 
" style="fill:none;stroke:#ffffff;stroke-linecap:round;"/>
     </g>
     <g id="text_2">
      <!-- 0.2 -->
      <g style="fill:#262626;" transform="translate(276.817478 530.013594)scale(0.11 -0.11)">
       <defs>
        <path d="M 50.34375 8.453125 
L 50.34375 0 
L 3.03125 0 
Q 2.9375 3.171875 4.046875 6.109375 
Q 5.859375 10.9375 9.828125 15.625 
Q 13.8125 20.3125 21.34375 26.46875 
Q 33.015625 36.03125 37.109375 41.625 
Q 41.21875 47.21875 41.21875 52.203125 
Q 41.21875 57.421875 37.46875 61 
Q 33.734375 64.59375 27.734375 64.59375 
Q 21.390625 64.59375 17.578125 60.78125 
Q 13.765625 56.984375 13.71875 50.25 
L 4.6875 51.171875 
Q 5.609375 61.28125 11.65625 66.578125 
Q 17.71875 71.875 27.9375 71.875 
Q 38.234375 71.875 44.234375 66.15625 
Q 50.25 60.453125 50.25 52 
Q 50.25 47.703125 48.484375 43.546875 
Q 46.734375 39.40625 42.65625 34.8125 
Q 38.578125 30.21875 29.109375 22.21875 
Q 21.1875 15.578125 18.9375 13.203125 
Q 16.703125 10.84375 15.234375 8.453125 
z
" id="ArialMT-50"/>
       </defs>
       <use xlink:href="#ArialMT-48"/>
       <use x="55.615234" xlink:href="#ArialMT-46"/>
       <use x="83.398438" xlink:href="#ArialMT-50"/>
      </g>
     </g>
    </g>
    <g id="xtick_3">
     <g id="line2d_3">
      <path clip-path="url(#paae9bcb89b)" d="M 396.948115 512.64 
L 396.948115 69.12 
" style="fill:none;stroke:#ffffff;stroke-linecap:round;"/>
     </g>
     <g id="text_3">
      <!-- 0.4 -->
      <g style="fill:#262626;" transform="translate(389.303115 530.013594)scale(0.11 -0.11)">
       <defs>
        <path d="M 32.328125 0 
L 32.328125 17.140625 
L 1.265625 17.140625 
L 1.265625 25.203125 
L 33.9375 71.578125 
L 41.109375 71.578125 
L 41.109375 25.203125 
L 50.78125 25.203125 
L 50.78125 17.140625 
L 41.109375 17.140625 
L 41.109375 0 
z
M 32.328125 25.203125 
L 32.328125 57.46875 
L 9.90625 25.203125 
z
" id="ArialMT-52"/>
       </defs>
       <use xlink:href="#ArialMT-48"/>
       <use x="55.615234" xlink:href="#ArialMT-46"/>
       <use x="83.398438" xlink:href="#ArialMT-52"/>
      </g>
     </g>
    </g>
    <g id="xtick_4">
     <g id="line2d_4">
      <path clip-path="url(#paae9bcb89b)" d="M 509.433752 512.64 
L 509.433752 69.12 
" style="fill:none;stroke:#ffffff;stroke-linecap:round;"/>
     </g>
     <g id="text_4">
      <!-- 0.6 -->
      <g style="fill:#262626;" transform="translate(501.788752 530.013594)scale(0.11 -0.11)">
       <defs>
        <path d="M 49.75 54.046875 
L 41.015625 53.375 
Q 39.84375 58.546875 37.703125 60.890625 
Q 34.125 64.65625 28.90625 64.65625 
Q 24.703125 64.65625 21.53125 62.3125 
Q 17.390625 59.28125 14.984375 53.46875 
Q 12.59375 47.65625 12.5 36.921875 
Q 15.671875 41.75 20.265625 44.09375 
Q 24.859375 46.4375 29.890625 46.4375 
Q 38.671875 46.4375 44.84375 39.96875 
Q 51.03125 33.5 51.03125 23.25 
Q 51.03125 16.5 48.125 10.71875 
Q 45.21875 4.9375 40.140625 1.859375 
Q 35.0625 -1.21875 28.609375 -1.21875 
Q 17.625 -1.21875 10.6875 6.859375 
Q 3.765625 14.9375 3.765625 33.5 
Q 3.765625 54.25 11.421875 63.671875 
Q 18.109375 71.875 29.4375 71.875 
Q 37.890625 71.875 43.28125 67.140625 
Q 48.6875 62.40625 49.75 54.046875 
z
M 13.875 23.1875 
Q 13.875 18.65625 15.796875 14.5 
Q 17.71875 10.359375 21.1875 8.171875 
Q 24.65625 6 28.46875 6 
Q 34.03125 6 38.03125 10.484375 
Q 42.046875 14.984375 42.046875 22.703125 
Q 42.046875 30.125 38.078125 34.390625 
Q 34.125 38.671875 28.125 38.671875 
Q 22.171875 38.671875 18.015625 34.390625 
Q 13.875 30.125 13.875 23.1875 
z
" id="ArialMT-54"/>
       </defs>
       <use xlink:href="#ArialMT-48"/>
       <use x="55.615234" xlink:href="#ArialMT-46"/>
       <use x="83.398438" xlink:href="#ArialMT-54"/>
      </g>
     </g>
    </g>
    <g id="xtick_5">
     <g id="line2d_5">
      <path clip-path="url(#paae9bcb89b)" d="M 621.919389 512.64 
L 621.919389 69.12 
" style="fill:none;stroke:#ffffff;stroke-linecap:round;"/>
     </g>
     <g id="text_5">
      <!-- 0.8 -->
      <g style="fill:#262626;" transform="translate(614.274389 530.013594)scale(0.11 -0.11)">
       <defs>
        <path d="M 17.671875 38.8125 
Q 12.203125 40.828125 9.5625 44.53125 
Q 6.9375 48.25 6.9375 53.421875 
Q 6.9375 61.234375 12.546875 66.546875 
Q 18.171875 71.875 27.484375 71.875 
Q 36.859375 71.875 42.578125 66.421875 
Q 48.296875 60.984375 48.296875 53.171875 
Q 48.296875 48.1875 45.671875 44.5 
Q 43.0625 40.828125 37.75 38.8125 
Q 44.34375 36.671875 47.78125 31.875 
Q 51.21875 27.09375 51.21875 20.453125 
Q 51.21875 11.28125 44.71875 5.03125 
Q 38.234375 -1.21875 27.640625 -1.21875 
Q 17.046875 -1.21875 10.546875 5.046875 
Q 4.046875 11.328125 4.046875 20.703125 
Q 4.046875 27.6875 7.59375 32.390625 
Q 11.140625 37.109375 17.671875 38.8125 
z
M 15.921875 53.71875 
Q 15.921875 48.640625 19.1875 45.40625 
Q 22.46875 42.1875 27.6875 42.1875 
Q 32.765625 42.1875 36.015625 45.375 
Q 39.265625 48.578125 39.265625 53.21875 
Q 39.265625 58.0625 35.90625 61.359375 
Q 32.5625 64.65625 27.59375 64.65625 
Q 22.5625 64.65625 19.234375 61.421875 
Q 15.921875 58.203125 15.921875 53.71875 
z
M 13.09375 20.65625 
Q 13.09375 16.890625 14.875 13.375 
Q 16.65625 9.859375 20.171875 7.921875 
Q 23.6875 6 27.734375 6 
Q 34.03125 6 38.125 10.046875 
Q 42.234375 14.109375 42.234375 20.359375 
Q 42.234375 26.703125 38.015625 30.859375 
Q 33.796875 35.015625 27.4375 35.015625 
Q 21.234375 35.015625 17.15625 30.90625 
Q 13.09375 26.8125 13.09375 20.65625 
z
" id="ArialMT-56"/>
       </defs>
       <use xlink:href="#ArialMT-48"/>
       <use x="55.615234" xlink:href="#ArialMT-46"/>
       <use x="83.398438" xlink:href="#ArialMT-56"/>
      </g>
     </g>
    </g>
    <g id="xtick_6">
     <g id="line2d_6">
      <path clip-path="url(#paae9bcb89b)" d="M 734.405026 512.64 
L 734.405026 69.12 
" style="fill:none;stroke:#ffffff;stroke-linecap:round;"/>
     </g>
     <g id="text_6">
      <!-- 1.0 -->
      <g style="fill:#262626;" transform="translate(726.760026 530.013594)scale(0.11 -0.11)">
       <defs>
        <path d="M 37.25 0 
L 28.46875 0 
L 28.46875 56 
Q 25.296875 52.984375 20.140625 49.953125 
Q 14.984375 46.921875 10.890625 45.40625 
L 10.890625 53.90625 
Q 18.265625 57.375 23.78125 62.296875 
Q 29.296875 67.234375 31.59375 71.875 
L 37.25 71.875 
z
" id="ArialMT-49"/>
       </defs>
       <use xlink:href="#ArialMT-49"/>
       <use x="55.615234" xlink:href="#ArialMT-46"/>
       <use x="83.398438" xlink:href="#ArialMT-48"/>
      </g>
     </g>
    </g>
    <g id="xtick_7">
     <g id="line2d_7">
      <path clip-path="url(#paae9bcb89b)" d="M 846.890662 512.64 
L 846.890662 69.12 
" style="fill:none;stroke:#ffffff;stroke-linecap:round;"/>
     </g>
     <g id="text_7">
      <!-- 1.2 -->
      <g style="fill:#262626;" transform="translate(839.245662 530.013594)scale(0.11 -0.11)">
       <use xlink:href="#ArialMT-49"/>
       <use x="55.615234" xlink:href="#ArialMT-46"/>
       <use x="83.398438" xlink:href="#ArialMT-50"/>
      </g>
     </g>
    </g>
    <g id="xtick_8">
     <g id="line2d_8">
      <path clip-path="url(#paae9bcb89b)" d="M 959.376299 512.64 
L 959.376299 69.12 
" style="fill:none;stroke:#ffffff;stroke-linecap:round;"/>
     </g>
     <g id="text_8">
      <!-- 1.4 -->
      <g style="fill:#262626;" transform="translate(951.731299 530.013594)scale(0.11 -0.11)">
       <use xlink:href="#ArialMT-49"/>
       <use x="55.615234" xlink:href="#ArialMT-46"/>
       <use x="83.398438" xlink:href="#ArialMT-52"/>
      </g>
     </g>
    </g>
    <g id="text_9">
     <!-- Environment Steps -->
     <g style="fill:#262626;" transform="translate(490.137891 547.119375)scale(0.15 -0.15)">
      <defs>
       <path d="M 7.90625 0 
L 7.90625 71.578125 
L 59.671875 71.578125 
L 59.671875 63.140625 
L 17.390625 63.140625 
L 17.390625 41.21875 
L 56.984375 41.21875 
L 56.984375 32.8125 
L 17.390625 32.8125 
L 17.390625 8.453125 
L 61.328125 8.453125 
L 61.328125 0 
z
" id="ArialMT-69"/>
       <path d="M 6.59375 0 
L 6.59375 51.859375 
L 14.5 51.859375 
L 14.5 44.484375 
Q 20.21875 53.03125 31 53.03125 
Q 35.6875 53.03125 39.625 51.34375 
Q 43.5625 49.65625 45.515625 46.921875 
Q 47.46875 44.1875 48.25 40.4375 
Q 48.734375 37.984375 48.734375 31.890625 
L 48.734375 0 
L 39.9375 0 
L 39.9375 31.546875 
Q 39.9375 36.921875 38.90625 39.578125 
Q 37.890625 42.234375 35.28125 43.8125 
Q 32.671875 45.40625 29.15625 45.40625 
Q 23.53125 45.40625 19.453125 41.84375 
Q 15.375 38.28125 15.375 28.328125 
L 15.375 0 
z
" id="ArialMT-110"/>
       <path d="M 21 0 
L 1.265625 51.859375 
L 10.546875 51.859375 
L 21.6875 20.796875 
Q 23.484375 15.765625 25 10.359375 
Q 26.171875 14.453125 28.265625 20.21875 
L 39.796875 51.859375 
L 48.828125 51.859375 
L 29.203125 0 
z
" id="ArialMT-118"/>
       <path d="M 6.640625 61.46875 
L 6.640625 71.578125 
L 15.4375 71.578125 
L 15.4375 61.46875 
z
M 6.640625 0 
L 6.640625 51.859375 
L 15.4375 51.859375 
L 15.4375 0 
z
" id="ArialMT-105"/>
       <path d="M 6.5 0 
L 6.5 51.859375 
L 14.40625 51.859375 
L 14.40625 44 
Q 17.4375 49.515625 20 51.265625 
Q 22.5625 53.03125 25.640625 53.03125 
Q 30.078125 53.03125 34.671875 50.203125 
L 31.640625 42.046875 
Q 28.421875 43.953125 25.203125 43.953125 
Q 22.3125 43.953125 20.015625 42.21875 
Q 17.71875 40.484375 16.75 37.40625 
Q 15.28125 32.71875 15.28125 27.15625 
L 15.28125 0 
z
" id="ArialMT-114"/>
       <path d="M 3.328125 25.921875 
Q 3.328125 40.328125 11.328125 47.265625 
Q 18.015625 53.03125 27.640625 53.03125 
Q 38.328125 53.03125 45.109375 46.015625 
Q 51.90625 39.015625 51.90625 26.65625 
Q 51.90625 16.65625 48.90625 10.90625 
Q 45.90625 5.171875 40.15625 2 
Q 34.421875 -1.171875 27.640625 -1.171875 
Q 16.75 -1.171875 10.03125 5.8125 
Q 3.328125 12.796875 3.328125 25.921875 
z
M 12.359375 25.921875 
Q 12.359375 15.96875 16.703125 11.015625 
Q 21.046875 6.0625 27.640625 6.0625 
Q 34.1875 6.0625 38.53125 11.03125 
Q 42.875 16.015625 42.875 26.21875 
Q 42.875 35.84375 38.5 40.796875 
Q 34.125 45.75 27.640625 45.75 
Q 21.046875 45.75 16.703125 40.8125 
Q 12.359375 35.890625 12.359375 25.921875 
z
" id="ArialMT-111"/>
       <path d="M 6.59375 0 
L 6.59375 51.859375 
L 14.453125 51.859375 
L 14.453125 44.578125 
Q 16.890625 48.390625 20.9375 50.703125 
Q 25 53.03125 30.171875 53.03125 
Q 35.9375 53.03125 39.625 50.640625 
Q 43.3125 48.25 44.828125 43.953125 
Q 50.984375 53.03125 60.84375 53.03125 
Q 68.5625 53.03125 72.703125 48.75 
Q 76.859375 44.484375 76.859375 35.59375 
L 76.859375 0 
L 68.109375 0 
L 68.109375 32.671875 
Q 68.109375 37.9375 67.25 40.25 
Q 66.40625 42.578125 64.15625 43.984375 
Q 61.921875 45.40625 58.890625 45.40625 
Q 53.421875 45.40625 49.796875 41.765625 
Q 46.1875 38.140625 46.1875 30.125 
L 46.1875 0 
L 37.40625 0 
L 37.40625 33.6875 
Q 37.40625 39.546875 35.25 42.46875 
Q 33.109375 45.40625 28.21875 45.40625 
Q 24.515625 45.40625 21.359375 43.453125 
Q 18.21875 41.5 16.796875 37.734375 
Q 15.375 33.984375 15.375 26.90625 
L 15.375 0 
z
" id="ArialMT-109"/>
       <path d="M 42.09375 16.703125 
L 51.171875 15.578125 
Q 49.03125 7.625 43.21875 3.21875 
Q 37.40625 -1.171875 28.375 -1.171875 
Q 17 -1.171875 10.328125 5.828125 
Q 3.65625 12.84375 3.65625 25.484375 
Q 3.65625 38.578125 10.390625 45.796875 
Q 17.140625 53.03125 27.875 53.03125 
Q 38.28125 53.03125 44.875 45.953125 
Q 51.46875 38.875 51.46875 26.03125 
Q 51.46875 25.25 51.421875 23.6875 
L 12.75 23.6875 
Q 13.234375 15.140625 17.578125 10.59375 
Q 21.921875 6.0625 28.421875 6.0625 
Q 33.25 6.0625 36.671875 8.59375 
Q 40.09375 11.140625 42.09375 16.703125 
z
M 13.234375 30.90625 
L 42.1875 30.90625 
Q 41.609375 37.453125 38.875 40.71875 
Q 34.671875 45.796875 27.984375 45.796875 
Q 21.921875 45.796875 17.796875 41.75 
Q 13.671875 37.703125 13.234375 30.90625 
z
" id="ArialMT-101"/>
       <path d="M 25.78125 7.859375 
L 27.046875 0.09375 
Q 23.34375 -0.6875 20.40625 -0.6875 
Q 15.625 -0.6875 12.984375 0.828125 
Q 10.359375 2.34375 9.28125 4.8125 
Q 8.203125 7.28125 8.203125 15.1875 
L 8.203125 45.015625 
L 1.765625 45.015625 
L 1.765625 51.859375 
L 8.203125 51.859375 
L 8.203125 64.703125 
L 16.9375 69.96875 
L 16.9375 51.859375 
L 25.78125 51.859375 
L 25.78125 45.015625 
L 16.9375 45.015625 
L 16.9375 14.703125 
Q 16.9375 10.9375 17.40625 9.859375 
Q 17.875 8.796875 18.921875 8.15625 
Q 19.96875 7.515625 21.921875 7.515625 
Q 23.390625 7.515625 25.78125 7.859375 
z
" id="ArialMT-116"/>
       <path id="ArialMT-32"/>
       <path d="M 4.5 23 
L 13.421875 23.78125 
Q 14.0625 18.40625 16.375 14.96875 
Q 18.703125 11.53125 23.578125 9.40625 
Q 28.46875 7.28125 34.578125 7.28125 
Q 39.984375 7.28125 44.140625 8.890625 
Q 48.296875 10.5 50.3125 13.296875 
Q 52.34375 16.109375 52.34375 19.4375 
Q 52.34375 22.796875 50.390625 25.3125 
Q 48.4375 27.828125 43.953125 29.546875 
Q 41.0625 30.671875 31.203125 33.03125 
Q 21.34375 35.40625 17.390625 37.5 
Q 12.25 40.1875 9.734375 44.15625 
Q 7.234375 48.140625 7.234375 53.078125 
Q 7.234375 58.5 10.296875 63.203125 
Q 13.375 67.921875 19.28125 70.359375 
Q 25.203125 72.796875 32.421875 72.796875 
Q 40.375 72.796875 46.453125 70.234375 
Q 52.546875 67.671875 55.8125 62.6875 
Q 59.078125 57.71875 59.328125 51.421875 
L 50.25 50.734375 
Q 49.515625 57.515625 45.28125 60.984375 
Q 41.0625 64.453125 32.8125 64.453125 
Q 24.21875 64.453125 20.28125 61.296875 
Q 16.359375 58.15625 16.359375 53.71875 
Q 16.359375 49.859375 19.140625 47.359375 
Q 21.875 44.875 33.421875 42.265625 
Q 44.96875 39.65625 49.265625 37.703125 
Q 55.515625 34.8125 58.484375 30.390625 
Q 61.46875 25.984375 61.46875 20.21875 
Q 61.46875 14.5 58.203125 9.4375 
Q 54.9375 4.390625 48.796875 1.578125 
Q 42.671875 -1.21875 35.015625 -1.21875 
Q 25.296875 -1.21875 18.71875 1.609375 
Q 12.15625 4.4375 8.421875 10.125 
Q 4.6875 15.828125 4.5 23 
z
" id="ArialMT-83"/>
       <path d="M 6.59375 -19.875 
L 6.59375 51.859375 
L 14.59375 51.859375 
L 14.59375 45.125 
Q 17.4375 49.078125 21 51.046875 
Q 24.5625 53.03125 29.640625 53.03125 
Q 36.28125 53.03125 41.359375 49.609375 
Q 46.4375 46.1875 49.015625 39.953125 
Q 51.609375 33.734375 51.609375 26.3125 
Q 51.609375 18.359375 48.75 11.984375 
Q 45.90625 5.609375 40.453125 2.21875 
Q 35.015625 -1.171875 29 -1.171875 
Q 24.609375 -1.171875 21.109375 0.6875 
Q 17.625 2.546875 15.375 5.375 
L 15.375 -19.875 
z
M 14.546875 25.640625 
Q 14.546875 15.625 18.59375 10.84375 
Q 22.65625 6.0625 28.421875 6.0625 
Q 34.28125 6.0625 38.453125 11.015625 
Q 42.625 15.96875 42.625 26.375 
Q 42.625 36.28125 38.546875 41.203125 
Q 34.46875 46.140625 28.8125 46.140625 
Q 23.1875 46.140625 18.859375 40.890625 
Q 14.546875 35.640625 14.546875 25.640625 
z
" id="ArialMT-112"/>
       <path d="M 3.078125 15.484375 
L 11.765625 16.84375 
Q 12.5 11.625 15.84375 8.84375 
Q 19.1875 6.0625 25.203125 6.0625 
Q 31.25 6.0625 34.171875 8.515625 
Q 37.109375 10.984375 37.109375 14.3125 
Q 37.109375 17.28125 34.515625 19 
Q 32.71875 20.171875 25.53125 21.96875 
Q 15.875 24.421875 12.140625 26.203125 
Q 8.40625 27.984375 6.46875 31.125 
Q 4.546875 34.28125 4.546875 38.09375 
Q 4.546875 41.546875 6.125 44.5 
Q 7.71875 47.46875 10.453125 49.421875 
Q 12.5 50.921875 16.03125 51.96875 
Q 19.578125 53.03125 23.640625 53.03125 
Q 29.734375 53.03125 34.34375 51.265625 
Q 38.96875 49.515625 41.15625 46.5 
Q 43.359375 43.5 44.1875 38.484375 
L 35.59375 37.3125 
Q 35.015625 41.3125 32.203125 43.546875 
Q 29.390625 45.796875 24.265625 45.796875 
Q 18.21875 45.796875 15.625 43.796875 
Q 13.03125 41.796875 13.03125 39.109375 
Q 13.03125 37.40625 14.109375 36.03125 
Q 15.1875 34.625 17.484375 33.6875 
Q 18.796875 33.203125 25.25 31.453125 
Q 34.578125 28.953125 38.25 27.359375 
Q 41.9375 25.78125 44.03125 22.75 
Q 46.140625 19.734375 46.140625 15.234375 
Q 46.140625 10.84375 43.578125 6.953125 
Q 41.015625 3.078125 36.171875 0.953125 
Q 31.34375 -1.171875 25.25 -1.171875 
Q 15.140625 -1.171875 9.84375 3.03125 
Q 4.546875 7.234375 3.078125 15.484375 
z
" id="ArialMT-115"/>
      </defs>
      <use xlink:href="#ArialMT-69"/>
      <use x="66.699219" xlink:href="#ArialMT-110"/>
      <use x="122.314453" xlink:href="#ArialMT-118"/>
      <use x="172.314453" xlink:href="#ArialMT-105"/>
      <use x="194.53125" xlink:href="#ArialMT-114"/>
      <use x="227.832031" xlink:href="#ArialMT-111"/>
      <use x="283.447266" xlink:href="#ArialMT-110"/>
      <use x="339.0625" xlink:href="#ArialMT-109"/>
      <use x="422.363281" xlink:href="#ArialMT-101"/>
      <use x="477.978516" xlink:href="#ArialMT-110"/>
      <use x="533.59375" xlink:href="#ArialMT-116"/>
      <use x="561.376953" xlink:href="#ArialMT-32"/>
      <use x="589.160156" xlink:href="#ArialMT-83"/>
      <use x="655.859375" xlink:href="#ArialMT-116"/>
      <use x="683.642578" xlink:href="#ArialMT-101"/>
      <use x="739.257812" xlink:href="#ArialMT-112"/>
      <use x="794.873047" xlink:href="#ArialMT-115"/>
     </g>
    </g>
    <g id="text_10">
     <!-- 1e5 -->
     <g style="fill:#262626;" transform="translate(953.648906 543.073437)scale(0.11 -0.11)">
      <defs>
       <path d="M 4.15625 18.75 
L 13.375 19.53125 
Q 14.40625 12.796875 18.140625 9.390625 
Q 21.875 6 27.15625 6 
Q 33.5 6 37.890625 10.78125 
Q 42.28125 15.578125 42.28125 23.484375 
Q 42.28125 31 38.0625 35.34375 
Q 33.84375 39.703125 27 39.703125 
Q 22.75 39.703125 19.328125 37.765625 
Q 15.921875 35.84375 13.96875 32.765625 
L 5.71875 33.84375 
L 12.640625 70.609375 
L 48.25 70.609375 
L 48.25 62.203125 
L 19.671875 62.203125 
L 15.828125 42.96875 
Q 22.265625 47.46875 29.34375 47.46875 
Q 38.71875 47.46875 45.15625 40.96875 
Q 51.609375 34.46875 51.609375 24.265625 
Q 51.609375 14.546875 45.953125 7.46875 
Q 39.0625 -1.21875 27.15625 -1.21875 
Q 17.390625 -1.21875 11.203125 4.25 
Q 5.03125 9.71875 4.15625 18.75 
z
" id="ArialMT-53"/>
      </defs>
      <use xlink:href="#ArialMT-49"/>
      <use x="55.615234" xlink:href="#ArialMT-101"/>
      <use x="111.230469" xlink:href="#ArialMT-53"/>
     </g>
    </g>
   </g>
   <g id="matplotlib.axis_2">
    <g id="ytick_1">
     <g id="line2d_9">
      <path clip-path="url(#paae9bcb89b)" d="M 135 488.596367 
L 972 488.596367 
" style="fill:none;stroke:#ffffff;stroke-linecap:round;"/>
     </g>
     <g id="text_11">
      <!-- −15.00 -->
      <g style="fill:#262626;" transform="translate(91.55125 492.533164)scale(0.11 -0.11)">
       <defs>
        <path d="M 52.828125 31.203125 
L 5.5625 31.203125 
L 5.5625 39.40625 
L 52.828125 39.40625 
z
" id="ArialMT-8722"/>
       </defs>
       <use xlink:href="#ArialMT-8722"/>
       <use x="58.398438" xlink:href="#ArialMT-49"/>
       <use x="114.013672" xlink:href="#ArialMT-53"/>
       <use x="169.628906" xlink:href="#ArialMT-46"/>
       <use x="197.412109" xlink:href="#ArialMT-48"/>
       <use x="253.027344" xlink:href="#ArialMT-48"/>
      </g>
     </g>
    </g>
    <g id="ytick_2">
     <g id="line2d_10">
      <path clip-path="url(#paae9bcb89b)" d="M 135 405.118833 
L 972 405.118833 
" style="fill:none;stroke:#ffffff;stroke-linecap:round;"/>
     </g>
     <g id="text_12">
      <!-- −10.00 -->
      <g style="fill:#262626;" transform="translate(91.55125 409.05563)scale(0.11 -0.11)">
       <use xlink:href="#ArialMT-8722"/>
       <use x="58.398438" xlink:href="#ArialMT-49"/>
       <use x="114.013672" xlink:href="#ArialMT-48"/>
       <use x="169.628906" xlink:href="#ArialMT-46"/>
       <use x="197.412109" xlink:href="#ArialMT-48"/>
       <use x="253.027344" xlink:href="#ArialMT-48"/>
      </g>
     </g>
    </g>
    <g id="ytick_3">
     <g id="line2d_11">
      <path clip-path="url(#paae9bcb89b)" d="M 135 321.6413 
L 972 321.6413 
" style="fill:none;stroke:#ffffff;stroke-linecap:round;"/>
     </g>
     <g id="text_13">
      <!-- −5.00 -->
      <g style="fill:#262626;" transform="translate(97.668281 325.578096)scale(0.11 -0.11)">
       <use xlink:href="#ArialMT-8722"/>
       <use x="58.398438" xlink:href="#ArialMT-53"/>
       <use x="114.013672" xlink:href="#ArialMT-46"/>
       <use x="141.796875" xlink:href="#ArialMT-48"/>
       <use x="197.412109" xlink:href="#ArialMT-48"/>
      </g>
     </g>
    </g>
    <g id="ytick_4">
     <g id="line2d_12">
      <path clip-path="url(#paae9bcb89b)" d="M 135 238.163766 
L 972 238.163766 
" style="fill:none;stroke:#ffffff;stroke-linecap:round;"/>
     </g>
     <g id="text_14">
      <!-- 0.00 -->
      <g style="fill:#262626;" transform="translate(104.092969 242.100563)scale(0.11 -0.11)">
       <use xlink:href="#ArialMT-48"/>
       <use x="55.615234" xlink:href="#ArialMT-46"/>
       <use x="83.398438" xlink:href="#ArialMT-48"/>
       <use x="139.013672" xlink:href="#ArialMT-48"/>
      </g>
     </g>
    </g>
    <g id="ytick_5">
     <g id="line2d_13">
      <path clip-path="url(#paae9bcb89b)" d="M 135 154.686232 
L 972 154.686232 
" style="fill:none;stroke:#ffffff;stroke-linecap:round;"/>
     </g>
     <g id="text_15">
      <!-- 5.00 -->
      <g style="fill:#262626;" transform="translate(104.092969 158.623029)scale(0.11 -0.11)">
       <use xlink:href="#ArialMT-53"/>
       <use x="55.615234" xlink:href="#ArialMT-46"/>
       <use x="83.398438" xlink:href="#ArialMT-48"/>
       <use x="139.013672" xlink:href="#ArialMT-48"/>
      </g>
     </g>
    </g>
    <g id="ytick_6">
     <g id="line2d_14">
      <path clip-path="url(#paae9bcb89b)" d="M 135 71.208699 
L 972 71.208699 
" style="fill:none;stroke:#ffffff;stroke-linecap:round;"/>
     </g>
     <g id="text_16">
      <!-- 10.00 -->
      <g style="fill:#262626;" transform="translate(97.975938 75.145495)scale(0.11 -0.11)">
       <use xlink:href="#ArialMT-49"/>
       <use x="55.615234" xlink:href="#ArialMT-48"/>
       <use x="111.230469" xlink:href="#ArialMT-46"/>
       <use x="139.013672" xlink:href="#ArialMT-48"/>
       <use x="194.628906" xlink:href="#ArialMT-48"/>
      </g>
     </g>
    </g>
    <g id="ytick_7">
     <g id="line2d_15">
      <path clip-path="url(#paae9bcb89b)" d="M 135 89.28 
L 972 89.28 
" style="fill:none;stroke:#ffffff;stroke-linecap:round;"/>
     </g>
     <g id="text_17">
      <!-- 8.92 -->
      <g style="fill:#262626;" transform="translate(104.092969 93.216797)scale(0.11 -0.11)">
       <defs>
        <path d="M 5.46875 16.546875 
L 13.921875 17.328125 
Q 14.984375 11.375 18.015625 8.6875 
Q 21.046875 6 25.78125 6 
Q 29.828125 6 32.875 7.859375 
Q 35.9375 9.71875 37.890625 12.8125 
Q 39.84375 15.921875 41.15625 21.1875 
Q 42.484375 26.46875 42.484375 31.9375 
Q 42.484375 32.515625 42.4375 33.6875 
Q 39.796875 29.5 35.234375 26.875 
Q 30.671875 24.265625 25.34375 24.265625 
Q 16.453125 24.265625 10.296875 30.703125 
Q 4.15625 37.15625 4.15625 47.703125 
Q 4.15625 58.59375 10.578125 65.234375 
Q 17 71.875 26.65625 71.875 
Q 33.640625 71.875 39.421875 68.109375 
Q 45.21875 64.359375 48.21875 57.390625 
Q 51.21875 50.4375 51.21875 37.25 
Q 51.21875 23.53125 48.234375 15.40625 
Q 45.265625 7.28125 39.375 3.03125 
Q 33.5 -1.21875 25.59375 -1.21875 
Q 17.1875 -1.21875 11.859375 3.4375 
Q 6.546875 8.109375 5.46875 16.546875 
z
M 41.453125 48.140625 
Q 41.453125 55.71875 37.421875 60.15625 
Q 33.40625 64.59375 27.734375 64.59375 
Q 21.875 64.59375 17.53125 59.8125 
Q 13.1875 55.03125 13.1875 47.40625 
Q 13.1875 40.578125 17.3125 36.296875 
Q 21.4375 32.03125 27.484375 32.03125 
Q 33.59375 32.03125 37.515625 36.296875 
Q 41.453125 40.578125 41.453125 48.140625 
z
" id="ArialMT-57"/>
       </defs>
       <use xlink:href="#ArialMT-56"/>
       <use x="55.615234" xlink:href="#ArialMT-46"/>
       <use x="83.398438" xlink:href="#ArialMT-57"/>
       <use x="139.013672" xlink:href="#ArialMT-50"/>
      </g>
     </g>
    </g>
    <g id="text_18">
     <!-- avg reward -->
     <g style="fill:#262626;" transform="translate(84.394219 327.978047)rotate(-90)scale(0.15 -0.15)">
      <defs>
       <path d="M 40.4375 6.390625 
Q 35.546875 2.25 31.03125 0.53125 
Q 26.515625 -1.171875 21.34375 -1.171875 
Q 12.796875 -1.171875 8.203125 3 
Q 3.609375 7.171875 3.609375 13.671875 
Q 3.609375 17.484375 5.34375 20.625 
Q 7.078125 23.78125 9.890625 25.6875 
Q 12.703125 27.59375 16.21875 28.5625 
Q 18.796875 29.25 24.03125 29.890625 
Q 34.671875 31.15625 39.703125 32.90625 
Q 39.75 34.71875 39.75 35.203125 
Q 39.75 40.578125 37.25 42.78125 
Q 33.890625 45.75 27.25 45.75 
Q 21.046875 45.75 18.09375 43.578125 
Q 15.140625 41.40625 13.71875 35.890625 
L 5.125 37.0625 
Q 6.296875 42.578125 8.984375 45.96875 
Q 11.671875 49.359375 16.75 51.1875 
Q 21.828125 53.03125 28.515625 53.03125 
Q 35.15625 53.03125 39.296875 51.46875 
Q 43.453125 49.90625 45.40625 47.53125 
Q 47.359375 45.171875 48.140625 41.546875 
Q 48.578125 39.3125 48.578125 33.453125 
L 48.578125 21.734375 
Q 48.578125 9.46875 49.140625 6.21875 
Q 49.703125 2.984375 51.375 0 
L 42.1875 0 
Q 40.828125 2.734375 40.4375 6.390625 
z
M 39.703125 26.03125 
Q 34.90625 24.078125 25.34375 22.703125 
Q 19.921875 21.921875 17.671875 20.9375 
Q 15.4375 19.96875 14.203125 18.09375 
Q 12.984375 16.21875 12.984375 13.921875 
Q 12.984375 10.40625 15.640625 8.0625 
Q 18.3125 5.71875 23.4375 5.71875 
Q 28.515625 5.71875 32.46875 7.9375 
Q 36.421875 10.15625 38.28125 14.015625 
Q 39.703125 17 39.703125 22.796875 
z
" id="ArialMT-97"/>
       <path d="M 4.984375 -4.296875 
L 13.53125 -5.5625 
Q 14.0625 -9.515625 16.5 -11.328125 
Q 19.78125 -13.765625 25.4375 -13.765625 
Q 31.546875 -13.765625 34.859375 -11.328125 
Q 38.1875 -8.890625 39.359375 -4.5 
Q 40.046875 -1.8125 39.984375 6.78125 
Q 34.234375 0 25.640625 0 
Q 14.9375 0 9.078125 7.71875 
Q 3.21875 15.4375 3.21875 26.21875 
Q 3.21875 33.640625 5.90625 39.90625 
Q 8.59375 46.1875 13.6875 49.609375 
Q 18.796875 53.03125 25.6875 53.03125 
Q 34.859375 53.03125 40.828125 45.609375 
L 40.828125 51.859375 
L 48.921875 51.859375 
L 48.921875 7.03125 
Q 48.921875 -5.078125 46.453125 -10.125 
Q 44 -15.1875 38.640625 -18.109375 
Q 33.296875 -21.046875 25.484375 -21.046875 
Q 16.21875 -21.046875 10.5 -16.875 
Q 4.78125 -12.703125 4.984375 -4.296875 
z
M 12.25 26.859375 
Q 12.25 16.65625 16.296875 11.96875 
Q 20.359375 7.28125 26.46875 7.28125 
Q 32.515625 7.28125 36.609375 11.9375 
Q 40.71875 16.609375 40.71875 26.5625 
Q 40.71875 36.078125 36.5 40.90625 
Q 32.28125 45.75 26.3125 45.75 
Q 20.453125 45.75 16.34375 40.984375 
Q 12.25 36.234375 12.25 26.859375 
z
" id="ArialMT-103"/>
       <path d="M 16.15625 0 
L 0.296875 51.859375 
L 9.375 51.859375 
L 17.625 21.921875 
L 20.703125 10.796875 
Q 20.90625 11.625 23.390625 21.484375 
L 31.640625 51.859375 
L 40.671875 51.859375 
L 48.4375 21.78125 
L 51.03125 11.859375 
L 54 21.875 
L 62.890625 51.859375 
L 71.4375 51.859375 
L 55.21875 0 
L 46.09375 0 
L 37.84375 31.0625 
L 35.84375 39.890625 
L 25.34375 0 
z
" id="ArialMT-119"/>
       <path d="M 40.234375 0 
L 40.234375 6.546875 
Q 35.296875 -1.171875 25.734375 -1.171875 
Q 19.53125 -1.171875 14.328125 2.25 
Q 9.125 5.671875 6.265625 11.796875 
Q 3.421875 17.921875 3.421875 25.875 
Q 3.421875 33.640625 6 39.96875 
Q 8.59375 46.296875 13.765625 49.65625 
Q 18.953125 53.03125 25.34375 53.03125 
Q 30.03125 53.03125 33.6875 51.046875 
Q 37.359375 49.078125 39.65625 45.90625 
L 39.65625 71.578125 
L 48.390625 71.578125 
L 48.390625 0 
z
M 12.453125 25.875 
Q 12.453125 15.921875 16.640625 10.984375 
Q 20.84375 6.0625 26.5625 6.0625 
Q 32.328125 6.0625 36.34375 10.765625 
Q 40.375 15.484375 40.375 25.140625 
Q 40.375 35.796875 36.265625 40.765625 
Q 32.171875 45.75 26.171875 45.75 
Q 20.3125 45.75 16.375 40.96875 
Q 12.453125 36.1875 12.453125 25.875 
z
" id="ArialMT-100"/>
      </defs>
      <use xlink:href="#ArialMT-97"/>
      <use x="55.615234" xlink:href="#ArialMT-118"/>
      <use x="105.615234" xlink:href="#ArialMT-103"/>
      <use x="161.230469" xlink:href="#ArialMT-32"/>
      <use x="189.013672" xlink:href="#ArialMT-114"/>
      <use x="222.314453" xlink:href="#ArialMT-101"/>
      <use x="277.929688" xlink:href="#ArialMT-119"/>
      <use x="350.146484" xlink:href="#ArialMT-97"/>
      <use x="405.761719" xlink:href="#ArialMT-114"/>
      <use x="439.0625" xlink:href="#ArialMT-100"/>
     </g>
    </g>
   </g>
   <g id="line2d_16">
    <path clip-path="url(#paae9bcb89b)" d="M 173.045455 455.224301 
L 174.395282 296.724262 
L 174.564011 351.509434 
L 175.182682 402.626121 
L 176.026324 124.717231 
L 176.195052 211.554995 
L 177.319909 172.342139 
L 180.750721 313.773366 
L 180.919449 360.590144 
L 181.425634 222.857755 
L 184.912689 147.259396 
L 185.193903 310.692786 
L 186.375003 425.272822 
L 186.656217 164.523599 
L 187.049916 322.323003 
L 187.387373 348.677749 
L 189.355872 246.868986 
L 189.468358 335.781098 
L 189.9183 247.958009 
L 191.549342 259.991266 
L 192.674198 291.16764 
L 195.71131 338.538603 
L 195.767553 148.901822 
L 196.89241 203.50836 
L 197.061138 185.107496 
L 197.90478 311.915666 
L 198.073509 287.432341 
L 198.129752 250.695653 
L 198.69218 188.276518 
L 202.179235 197.289659 
L 203.697791 268.316098 
L 204.597676 259.422151 
L 204.991375 290.282854 
L 205.047618 246.052273 
L 206.903631 172.874652 
L 207.691031 317.751019 
L 208.140973 276.996025 
L 208.253459 146.777044 
L 208.422187 414.422835 
L 208.534673 284.698079 
L 209.209587 330.895059 
L 209.772015 280.381978 
L 212.190456 293.146249 
L 212.640399 162.269503 
L 213.090341 251.68687 
L 214.327683 166.864781 
L 214.552655 270.113752 
L 215.05884 326.302041 
L 215.283811 134.766847 
L 215.396297 249.702211 
L 216.183696 179.962325 
L 216.296182 110.831613 
L 216.689882 203.111626 
L 217.139824 271.548994 
L 217.477281 284.228712 
L 217.533524 367.73567 
L 219.05208 241.782586 
L 223.04532 190.141204 
L 223.157806 158.5611 
L 225.013819 111.264518 
L 225.182547 176.154178 
L 226.138675 329.77069 
L 226.644861 280.774155 
L 226.701103 208.01757 
L 227.03856 106.605042 
L 227.094803 109.620014 
L 227.376017 236.065858 
L 228.388388 204.452679 
L 228.557116 227.449985 
L 229.063302 192.481121 
L 231.8192 224.40649 
L 231.987928 343.157 
L 232.325385 209.157965 
L 232.662842 189.019996 
L 232.944056 270.128772 
L 233.506484 186.089713 
L 233.843941 224.575446 
L 234.125155 224.173551 
L 237.049782 251.519148 
L 237.330996 360.163704 
L 237.387239 129.897534 
L 238.39961 363.917683 
L 239.130766 187.852816 
L 239.861923 363.988632 
L 241.99915 183.811722 
L 242.955278 168.333696 
L 244.080134 314.232336 
L 244.417591 179.78233 
L 244.811291 143.400617 
L 246.048633 156.953918 
L 246.217361 314.248552 
L 246.836032 279.224618 
L 247.004761 94.387722 
L 247.173489 290.695192 
L 247.229732 279.050152 
L 249.929387 110.73327 
L 250.266844 153.479004 
L 250.323087 101.482424 
L 251.560429 135.773497 
L 252.235343 200.030688 
L 252.797771 328.790168 
L 254.485056 147.703813 
L 255.103727 206.671528 
L 255.553669 313.941813 
L 255.891126 238.408694 
L 257.690896 110.953448 
L 257.915868 292.539056 
L 259.321938 210.523356 
L 260.221823 247.747425 
L 260.278066 206.905706 
L 261.121708 447.513844 
L 261.34668 161.232052 
L 262.302807 110.676396 
L 264.271306 293.1137 
L 264.721249 206.442188 
L 265.846105 98.801784 
L 266.633504 184.689939 
L 267.13969 98.179485 
L 267.477147 189.178643 
L 267.589632 105.228984 
L 267.758361 205.835523 
L 268.152061 236.714627 
L 268.658246 175.826104 
L 269.445645 236.255589 
L 269.726859 345.847472 
L 270.233045 144.27079 
L 271.864087 263.637668 
L 272.201543 173.810612 
L 273.551371 111.301489 
L 274.73247 193.908571 
L 275.744841 176.796873 
L 276.251026 230.914186 
L 276.982183 101.120643 
L 277.150912 274.005414 
L 277.600854 166.940061 
L 279.850567 155.708414 
L 280.806695 319.18481 
L 281.369123 228.058801 
L 281.537851 113.696281 
L 282.662708 138.384391 
L 283.562593 307.651789 
L 284.574964 247.300826 
L 284.799935 100.675191 
L 285.249877 319.035708 
L 286.206005 159.730115 
L 286.543462 236.695986 
L 287.89329 98.158181 
L 288.624446 210.551391 
L 288.793175 109.634471 
L 288.849418 195.362177 
L 289.29936 257.439612 
L 289.524332 410.065058 
L 289.918031 139.78059 
L 290.761674 250.395721 
L 292.673929 191.62919 
L 292.898901 137.584044 
L 293.2926 170.144307 
L 293.798786 168.733579 
L 295.036128 180.03165 
L 295.261099 148.34017 
L 295.711042 275.598807 
L 296.160984 139.812203 
L 296.385955 155.373397 
L 297.510812 271.196439 
L 297.792026 95.417897 
L 297.848269 203.647273 
L 297.960754 191.514288 
L 298.129483 277.712598 
L 298.804397 104.046722 
L 299.254339 184.927843 
L 300.322953 240.667268 
L 301.222838 161.320539 
L 301.785266 197.695879 
L 302.46018 251.844415 
L 303.922493 193.358121 
L 304.428678 241.337448 
L 306.397177 188.360157 
L 306.45342 281.100104 
L 306.565906 143.353615 
L 309.04059 265.472238 
L 309.490532 170.185808 
L 309.996717 155.219017 
L 310.109203 272.144907 
L 311.796488 104.392486 
L 311.85273 112.647414 
L 312.415159 144.257615 
L 312.527644 271.190803 
L 312.808858 162.215949 
L 313.596258 200.546321 
L 313.933715 235.265763 
L 314.4399 305.765891 
L 315.283542 213.900393 
L 315.620999 104.168749 
L 317.02707 105.140394 
L 318.264412 153.558567 
L 318.601869 98.320364 
L 319.557997 115.454189 
L 319.895454 125.240717 
L 321.357767 104.535371 
L 322.651352 146.786494 
L 323.045051 317.554079 
L 323.326265 342.775881 
L 324.057422 293.64242 
L 324.451122 107.851478 
L 325.294764 185.322531 
L 326.138406 155.256816 
L 326.925806 171.037201 
L 328.894304 139.061262 
L 329.00679 247.813106 
L 333.562458 256.562371 
L 334.068644 161.533059 
L 334.574829 194.90698 
L 334.912286 99.426964 
L 336.262114 288.941897 
L 338.905526 210.648966 
L 339.355469 200.96504 
L 341.38021 104.041691 
L 342.280095 142.109806 
L 342.448824 224.4846 
L 342.898766 304.327961 
L 343.067495 229.981238 
L 344.417322 214.559672 
L 344.642294 219.642905 
L 346.329578 218.766102 
L 347.623163 171.81591 
L 348.466805 161.371769 
L 349.479176 176.688543 
L 349.816633 184.772977 
L 350.716518 179.089612 
L 351.728889 174.817444 
L 351.785132 137.263381 
L 353.697387 112.706946 
L 354.259816 250.771218 
L 354.597273 106.856356 
L 354.653515 323.305156 
L 356.059586 174.032331 
L 357.915599 185.989969 
L 359.209184 107.190942 
L 360.165312 99.09717 
L 361.908839 342.213481 
L 363.427395 246.122652 
L 363.708609 105.421801 
L 364.945951 139.817553 
L 366.014565 140.740571 
L 366.12705 222.120863 
L 366.858207 190.547524 
L 367.758092 141.764074 
L 369.389134 124.851613 
L 369.557862 184.224235 
L 370.963933 150.545664 
L 372.426246 210.083089 
L 373.382374 178.430526 
L 374.50723 156.328539 
L 375.519601 193.918203 
L 375.632087 174.138009 
L 375.744572 218.029413 
L 376.082029 163.445165 
L 377.656828 106.627293 
L 378.444228 148.979752 
L 381.593825 139.367507 
L 381.818797 181.752308 
L 382.268739 167.262666 
L 382.437468 266.080232 
L 384.180995 175.789081 
L 384.630938 168.032339 
L 385.362094 157.430123 
L 385.643308 300.340376 
L 386.543193 209.270707 
L 386.936893 109.186297 
L 387.499321 166.675356 
L 387.724293 160.71964 
L 389.355334 138.052431 
L 390.030248 140.49276 
L 392.954875 178.611432 
L 393.348574 256.913304 
L 394.192217 111.881236 
L 394.529674 98.252297 
L 394.867131 95.47598 
L 396.104473 220.614243 
L 397.510543 312.84979 
L 397.566786 155.096449 
L 398.2417 194.738903 
L 398.860371 186.335745 
L 399.029099 306.399383 
L 402.23494 113.462425 
L 402.516154 146.14454 
L 402.572397 98.92553 
L 403.134825 98.806226 
L 407.240551 179.377101 
L 407.859222 189.156038 
L 408.02795 263.019615 
L 408.309164 222.147756 
L 408.365407 310.187714 
L 409.771477 254.377499 
L 410.671363 194.420262 
L 411.796219 168.587064 
L 411.964947 186.994266 
L 412.02119 170.041291 
L 412.864832 187.003815 
L 413.764718 358.267034 
L 414.102174 146.418288 
L 414.833331 205.681785 
L 414.945817 322.235599 
L 416.295644 102.766699 
L 417.757958 209.394959 
L 418.264143 163.058163 
L 419.107785 100.551954 
L 419.501485 278.216978 
L 419.838942 155.43812 
L 420.063913 192.774891 
L 421.18877 432.954666 
L 421.357498 261.278568 
L 423.719696 245.008874 
L 424.675824 218.323993 
L 425.631952 98.658835 
L 425.688195 191.791575 
L 426.813051 144.656041 
L 426.98178 100.367672 
L 427.487965 147.714536 
L 428.106636 305.243965 
L 429.681435 159.219295 
L 430.468835 243.933799 
L 430.58132 166.428851 
L 430.693806 190.723937 
L 432.324848 101.174077 
L 433.899647 165.944358 
L 434.349589 203.712418 
L 434.57456 149.381315 
L 435.024503 208.032618 
L 435.643174 227.882631 
L 437.105487 290.815388 
L 437.386701 286.013362 
L 438.286586 229.88164 
L 439.186471 234.824529 
L 439.636414 158.932634 
L 440.142599 189.729969 
L 440.648785 230.000782 
L 441.661155 103.315995 
L 441.998612 107.686549 
L 442.111098 236.319493 
L 442.279827 224.659422 
L 444.248325 112.664148 
L 444.923239 250.480873 
L 445.991853 95.215288 
L 447.285437 95.817843 
L 448.410294 284.52899 
L 449.760121 134.245909 
L 450.660006 277.168867 
L 451.109949 138.878572 
L 451.616134 140.681803 
L 451.784863 205.795746 
L 451.897348 101.843983 
L 454.765732 300.949368 
L 454.934461 185.665421 
L 456.059317 266.050876 
L 456.171803 192.638904 
L 456.228045 244.790308 
L 456.621745 188.851652 
L 457.634116 162.171598 
L 459.208915 105.100692 
L 460.333771 176.250089 
L 460.446257 194.062203 
L 460.783714 110.701235 
L 462.246027 188.405623 
L 462.527241 149.489784 
L 463.483369 108.656052 
L 464.49574 279.860578 
L 464.945682 174.711598 
L 466.68921 105.088902 
L 468.207766 187.232767 
L 469.501351 146.520627 
L 471.132392 224.013404 
L 471.751063 176.48677 
L 472.650948 199.890976 
L 473.438348 112.552072 
L 474.619447 182.167819 
L 476.86916 170.774001 
L 478.106502 215.4592 
L 478.387716 115.258053 
L 480.4687 218.31569 
L 481.087371 265.852988 
L 481.424828 157.245332 
L 482.212228 192.441192 
L 482.324713 163.076561 
L 484.124483 145.829004 
L 485.474311 149.894261 
L 486.149225 259.615181 
L 486.261711 142.518757 
L 486.599167 164.001403 
L 487.274081 255.022856 
L 488.680152 300.411687 
L 490.254951 121.222001 
L 490.367436 147.684937 
L 490.592408 136.19095 
L 491.43605 135.699754 
L 493.742005 215.236219 
L 493.910734 106.353035 
L 494.923105 356.943288 
L 495.935475 207.835041 
L 496.891603 176.516573 
L 497.060332 361.794761 
L 497.62276 198.234607 
L 498.635131 296.902804 
L 498.691373 179.99487 
L 499.647501 164.322886 
L 499.81623 135.948584 
L 501.728486 209.75428 
L 501.840971 183.229447 
L 502.234671 146.114463 
L 503.753227 278.174132 
L 504.259412 281.189502 
L 505.440512 284.212054 
L 506.790339 98.027206 
L 507.071553 122.494334 
L 507.40901 164.466152 
L 508.927566 225.776478 
L 510.052423 242.182006 
L 510.333637 106.883391 
L 511.177279 217.032102 
L 511.458493 206.115461 
L 512.864564 254.3026 
L 513.876934 157.278545 
L 514.101906 201.28044 
L 514.38312 101.827042 
L 515.39549 211.81281 
L 516.295376 102.6986 
L 516.407861 102.68236 
L 516.745318 107.717812 
L 516.857804 152.384999 
L 517.645203 303.05954 
L 517.870175 196.18784 
L 519.163759 373.168274 
L 519.669945 201.873744 
L 520.738558 208.122313 
L 521.357229 226.094271 
L 521.469715 181.258465 
L 521.807172 117.334961 
L 522.538328 247.397549 
L 523.550699 182.074738 
L 525.744169 156.052792 
L 527.037754 227.899978 
L 527.262725 163.463332 
L 527.318968 256.713502 
L 527.712668 143.86496 
L 528.668796 189.906684 
L 529.287467 129.735368 
L 529.906138 293.004614 
L 530.299837 187.553584 
L 530.637294 239.582849 
L 531.987122 209.21323 
L 535.080477 232.863257 
L 535.305448 99.215391 
L 536.036605 149.739689 
L 537.33019 185.299819 
L 537.386433 109.61097 
L 537.611404 197.560064 
L 538.73626 309.620737 
L 538.848746 103.149991 
L 539.298688 158.899627 
L 540.423545 112.12341 
L 541.773372 228.817369 
L 542.167072 125.295839 
L 542.335801 182.758468 
L 543.404414 178.858384 
L 546.441526 212.215131 
L 546.947712 395.246621 
L 547.060197 105.519841 
L 547.285169 274.084948 
L 547.622625 175.933025 
L 547.791354 252.267635 
L 548.185054 195.667359 
L 548.634996 184.767114 
L 548.803725 137.3323 
L 549.478638 201.446846 
L 550.997195 120.715018 
L 551.222166 297.278541 
L 551.840837 111.556624 
L 552.459508 217.725379 
L 556.28402 104.246019 
L 557.071419 104.639111 
L 557.521362 125.513215 
L 558.308761 155.072534 
L 558.365004 108.39891 
L 559.827317 152.325864 
L 560.614717 107.737468 
L 562.020787 259.986438 
L 563.651829 151.306708 
L 563.820557 203.453943 
L 565.28287 200.917413 
L 566.295241 155.214638 
L 566.520212 153.747363 
L 567.926283 140.810111 
L 568.319983 105.103646 
L 569.388596 252.417609 
L 570.850909 207.934936 
L 571.694552 233.203405 
L 572.144494 113.76594 
L 572.200737 300.0748 
L 573.438079 269.414854 
L 573.66305 135.547005 
L 574.45045 166.979834 
L 575.575306 145.808114 
L 576.700163 119.553256 
L 577.206348 133.768828 
L 577.712533 196.07016 
L 577.825019 130.631661 
L 577.881262 231.204938 
L 578.949875 492.48 
L 579.118604 225.193248 
L 579.624789 112.649181 
L 581.705773 177.365625 
L 582.605659 216.192684 
L 583.22433 101.851801 
L 584.2367 108.452329 
L 584.799128 260.547699 
L 584.855371 144.747012 
L 585.586528 102.481105 
L 585.867742 114.724695 
L 585.923985 201.984681 
L 587.21757 199.097965 
L 587.442541 205.548918 
L 588.286183 152.581716 
L 589.973468 178.701945 
L 590.479653 229.441748 
L 590.648382 341.034882 
L 591.042081 136.764097 
L 592.054452 287.917188 
L 592.61688 139.748976 
L 593.966708 183.763139 
L 594.472893 223.174542 
L 595.541507 201.45077 
L 596.497635 107.797924 
L 599.253533 186.54504 
L 599.984689 166.539907 
L 600.153418 252.149686 
L 601.896945 266.797211 
L 601.953188 244.866335 
L 602.909316 108.578878 
L 603.471744 107.422346 
L 603.752958 254.594866 
L 604.371629 107.381124 
L 604.709086 102.889299 
L 605.102786 232.695828 
L 606.115157 242.47252 
L 606.396371 254.885755 
L 606.677585 273.148181 
L 607.689956 101.42969 
L 608.308627 235.311834 
L 608.477355 152.61145 
L 609.602211 256.120066 
L 610.052154 197.768357 
L 610.614582 190.389461 
L 611.289496 237.658781 
L 612.583081 275.793909 
L 612.864295 190.629909 
L 616.295107 190.479246 
L 616.35135 251.040218 
L 616.576321 308.826162 
L 618.15112 166.434853 
L 620.569561 104.361709 
L 621.019504 182.57331 
L 621.469446 229.622489 
L 621.525689 136.666884 
L 623.437945 192.893487 
L 624.056616 160.081061 
L 624.73153 281.033589 
L 624.900258 199.545579 
L 625.687657 105.001474 
L 629.062227 235.226163 
L 630.412054 301.888153 
L 632.099339 188.229031 
L 633.11171 230.545849 
L 634.067837 284.914444 
L 634.405294 105.253011 
L 636.767493 319.006841 
L 637.667378 99.655493 
L 638.286049 250.190885 
L 638.792234 251.544789 
L 639.242177 190.570054 
L 640.367033 298.130105 
L 640.479519 100.500876 
L 640.760733 256.493393 
L 641.09819 268.866902 
L 641.773104 189.115799 
L 642.223046 188.717054 
L 642.391775 251.650407 
L 642.672989 283.772966 
L 643.066688 250.590433 
L 643.179174 255.089774 
L 646.047558 215.825101 
L 646.666229 136.604701 
L 647.116171 102.774389 
L 648.241028 229.011974 
L 648.297271 290.556045 
L 648.409756 101.474654 
L 649.197156 109.019441 
L 649.422127 142.017132 
L 649.984555 182.633731 
L 650.265769 153.138256 
L 650.49074 165.21972 
L 650.546983 254.395466 
L 651.390626 174.176772 
L 653.134153 107.20118 
L 654.202766 179.657441 
L 654.483981 159.149286 
L 655.27138 153.542884 
L 655.777565 164.231517 
L 656.621208 124.639125 
L 657.239879 246.17673 
L 657.689821 181.677431 
L 658.196007 202.86118 
L 660.333234 149.533992 
L 660.783176 254.033296 
L 660.839419 157.221122 
L 661.06439 236.755144 
L 662.86416 265.572497 
L 665.507573 180.726624 
L 665.732544 210.883353 
L 666.744915 103.176613 
L 667.026129 180.34291 
L 668.0385 104.747166 
L 668.207228 178.037019 
L 669.388327 237.231367 
L 670.006998 103.776334 
L 671.356826 169.040429 
L 671.750526 279.53498 
L 672.706654 104.143306 
L 672.819139 205.885881 
L 672.987868 166.604607 
L 674.168967 146.980576 
L 674.281453 325.113482 
L 674.562667 134.021113 
L 675.181338 208.720187 
L 675.856252 103.377645 
L 676.812379 98.12586 
L 677.82475 151.865517 
L 678.162207 148.149153 
L 678.443421 149.800384 
L 678.724635 272.390867 
L 679.737006 182.692754 
L 679.793249 252.678284 
L 681.311805 192.557973 
L 681.761747 145.472867 
L 682.324176 105.119528 
L 682.942847 170.604065 
L 684.123946 249.63062 
L 685.136317 108.821474 
L 686.936087 245.03121 
L 686.99233 268.235817 
L 687.329787 105.074731 
L 690.254413 305.685668 
L 690.366899 255.274134 
L 690.929327 150.789081 
L 691.323027 193.87771 
L 692.841583 234.60664 
L 694.022682 204.578754 
L 694.58511 248.216656 
L 695.484995 98.549833 
L 695.597481 216.744052 
L 695.991181 229.177221 
L 697.790951 255.624677 
L 698.072165 309.443182 
L 698.97205 190.943259 
L 701.390491 274.825635 
L 701.55922 104.484213 
L 702.684076 163.04209 
L 703.021533 231.13779 
L 703.077776 197.423687 
L 704.540089 318.037481 
L 704.933789 238.650299 
L 708.420843 312.992818 
L 708.477086 102.655483 
L 708.983272 178.776667 
L 709.376971 146.43749 
L 709.5457 109.957578 
L 709.9394 239.157769 
L 710.108128 164.798128 
L 711.34547 106.207149 
L 711.964141 280.736997 
L 712.582812 267.093702 
L 713.14524 182.973548 
L 713.257726 100.882656 
L 713.313969 138.417015 
L 713.482697 173.406502 
L 714.832525 192.014186 
L 715.394953 109.58114 
L 716.463566 106.413523 
L 717.025995 192.717942 
L 717.475937 337.85955 
L 718.150851 281.016959 
L 720.400564 230.647983 
L 720.906749 185.569184 
L 720.962992 168.394535 
L 721.412935 191.259085 
L 721.91912 144.661781 
L 723.887619 235.099622 
L 725.462417 103.339384 
L 725.631146 236.843178 
L 727.880859 105.701806 
L 729.230686 106.754661 
L 729.793114 239.198788 
L 732.886469 107.811131 
L 733.617626 254.434539 
L 734.236297 148.649584 
L 735.248668 191.230175 
L 737.273409 231.261105 
L 737.554623 101.703821 
L 737.723352 263.979887 
L 738.510751 107.894165 
L 739.185665 196.414403 
L 739.748093 106.106617 
L 740.47925 187.153928 
L 740.760464 156.592917 
L 740.816707 110.92904 
L 741.660349 183.471017 
L 741.997806 158.753176 
L 742.560234 184.65265 
L 743.910062 232.169589 
L 744.86619 106.456019 
L 746.103532 279.596861 
L 748.240759 179.924168 
L 748.409487 104.578313 
L 748.85943 184.82677 
L 749.759315 272.299252 
L 749.984286 145.420062 
L 750.2655 186.488218 
L 750.377986 128.736465 
L 750.490472 200.795083 
L 750.6592 182.637138 
L 752.627699 204.616915 
L 753.021398 115.155945 
L 753.921284 112.76171 
L 755.04614 233.342926 
L 756.620939 200.17675 
L 756.733424 102.333778 
L 756.902153 316.794922 
L 757.23961 119.591756 
L 757.745795 106.714275 
L 758.083252 141.634063 
L 758.364466 193.184287 
L 759.995508 156.523401 
L 760.782907 294.258784 
L 761.401578 198.145873 
L 761.964007 249.133663 
L 762.188978 106.153022 
L 762.245221 188.625327 
L 763.82002 217.614478 
L 764.326205 100.986993 
L 764.776148 237.158926 
L 765.61979 171.032345 
L 765.676033 236.762824 
L 766.350946 124.708991 
L 768.094474 149.467891 
L 768.600659 115.407108 
L 769.331816 273.220634 
L 769.556787 107.337744 
L 769.838001 98.712031 
L 770.344187 284.385827 
L 770.794129 251.327364 
L 771.187829 299.184752 
L 771.244072 163.507054 
L 772.2002 204.06502 
L 773.887484 196.099448 
L 774.449912 275.205707 
L 777.037082 267.768342 
L 777.093325 218.873894 
L 777.430782 108.07328 
L 778.330667 253.10755 
L 778.724367 190.870396 
L 780.299165 185.132605 
L 780.355408 201.838274 
L 781.142808 114.423442 
L 781.761479 179.444483 
L 782.267664 176.557389 
L 783.055064 98.557937 
L 783.673735 199.247947 
L 785.192291 116.079155 
L 785.361019 200.378849 
L 785.867204 147.311843 
L 787.273275 274.862216 
L 787.498246 178.56861 
L 788.004432 148.367349 
L 788.791831 241.53379 
L 789.129288 106.841461 
L 789.241774 259.461981 
L 791.154029 190.817929 
L 791.491486 98.96059 
L 791.828943 192.908525 
L 791.941429 128.123536 
L 791.997672 163.066586 
L 792.5601 173.870797 
L 792.841314 101.048404 
L 793.628713 139.814551 
L 794.134899 109.352547 
L 795.034784 114.923857 
L 796.440854 104.669116 
L 797.509468 193.256721 
L 798.015653 254.161384 
L 799.028024 212.451142 
L 800.040395 105.842756 
L 800.54658 265.613457 
L 801.840165 214.006462 
L 801.952651 241.077018 
L 802.008893 191.366687 
L 804.877277 230.269053 
L 805.495948 136.875726 
L 806.002133 100.429306 
L 806.958261 111.260107 
L 808.139361 102.859493 
L 808.983003 203.87218 
L 809.882888 167.532895 
L 811.007744 280.5811 
L 811.401444 136.671709 
L 811.795144 187.580525 
L 812.076358 209.257098 
L 813.819885 105.10308 
L 814.269828 148.114976 
L 814.382313 184.53046 
L 816.294569 133.601964 
L 816.463298 260.036065 
L 817.250697 102.121664 
L 817.363183 105.282076 
L 817.419426 141.791803 
L 818.038097 177.406111 
L 818.375554 98.593316 
L 819.950352 327.973621 
L 820.119081 164.447746 
L 820.175324 208.31471 
L 820.512781 288.64905 
L 820.625266 103.15878 
L 821.581394 102.047021 
L 822.031337 189.17891 
L 822.537522 159.519354 
L 823.381164 185.039763 
L 824.281049 195.184426 
L 826.474519 104.071306 
L 827.149433 194.881931 
L 827.261919 236.755313 
L 827.824347 165.680282 
L 828.443018 224.846759 
L 828.836718 284.416206 
L 829.230417 196.438696 
L 829.342903 104.041516 
L 830.299031 225.590511 
L 831.367645 346.585564 
L 833.392386 278.227383 
L 833.954814 143.287825 
L 834.910942 300.508987 
L 835.248399 104.957107 
L 835.754584 227.153181 
L 837.441869 107.151376 
L 838.735454 163.464598 
L 838.791697 110.963933 
L 839.804067 149.42932 
L 841.378866 177.485964 
L 841.66008 213.351191 
L 842.391237 150.03295 
L 842.44748 135.439826 
L 843.178636 193.005172 
L 843.628579 106.783735 
L 843.909793 269.525847 
L 844.022279 218.130672 
L 844.078522 249.157265 
L 845.203378 89.28 
L 845.484592 174.569952 
L 846.271991 198.03119 
L 846.83442 158.875179 
L 847.115634 228.881442 
L 847.509333 290.351447 
L 848.352976 350.210384 
L 848.577947 244.400981 
L 849.252861 203.373341 
L 851.22136 170.858333 
L 851.727545 363.022337 
L 852.008759 156.349882 
L 854.4272 191.792069 
L 854.708414 236.251616 
L 855.552057 219.184192 
L 856.170728 148.895763 
L 856.395699 335.099235 
L 857.295584 211.001082 
L 858.026741 142.259776 
L 859.151597 274.045728 
L 859.657782 221.073328 
L 860.107725 101.723755 
L 861.232581 191.426502 
L 862.132466 238.19617 
L 863.257323 270.196059 
L 863.426051 109.357841 
L 864.325936 196.750263 
L 865.113336 140.99507 
L 865.225821 194.875299 
L 865.844492 153.181954 
L 869.219061 134.792928 
L 869.725247 110.586596 
L 869.78149 110.95891 
L 871.468774 209.194484 
L 872.537388 97.098742 
L 872.706116 149.46563 
L 873.943458 271.1493 
L 876.418142 252.253681 
L 877.936698 99.691557 
L 878.049184 240.548546 
L 879.230283 106.351737 
L 882.098667 191.666269 
L 883.898437 235.713166 
L 885.585722 106.346109 
L 886.260635 131.611315 
L 889.578962 173.729521 
L 890.478847 132.817977 
L 892.222374 142.872681 
L 893.853416 362.213973 
L 895.5407 119.304386 
L 896.271857 189.230549 
L 897.003014 281.201444 
L 897.340471 286.269297 
L 899.702669 137.302271 
L 899.758912 357.364443 
L 900.040126 101.936235 
L 900.32134 347.436718 
L 900.883768 137.60444 
L 902.571053 96.094075 
L 903.302209 114.831246 
L 904.145852 191.30186 
L 905.10198 162.174846 
L 906.620536 261.7685 
L 906.676779 222.627328 
L 907.126721 124.90547 
L 907.801635 123.216432 
L 907.970363 183.695988 
L 908.476549 98.117278 
L 909.320191 199.748987 
L 909.545162 295.914668 
L 909.657648 134.486109 
L 910.50129 187.979731 
L 911.513661 243.03239 
L 912.526032 156.627093 
L 913.369674 276.875448 
L 913.932102 243.001671 
L 914.831987 101.497566 
L 915.056958 162.723322 
L 916.631757 98.499933 
L 918.094071 161.512703 
L 919.950084 174.002162 
L 920.231298 152.781657 
L 920.793726 194.351173 
L 922.818467 190.834388 
L 923.099681 259.916012 
L 925.799337 311.735221 
L 926.024308 118.983182 
L 927.149164 179.120194 
L 929.84882 281.015876 
L 929.905063 111.786197 
L 931.367376 145.566099 
L 931.536104 103.101413 
L 933.898303 191.510686 
L 933.954545 157.530393 
L 933.954545 157.530393 
" style="fill:none;stroke:#4c72b0;stroke-linecap:round;stroke-opacity:0.3;stroke-width:1.5;"/>
   </g>
   <g id="line2d_17">
    <path clip-path="url(#paae9bcb89b)" d="M 173.045455 455.224301 
L 174.395282 439.374297 
L 174.564011 430.58781 
L 175.182682 427.791642 
L 176.026324 397.4842 
L 176.195052 378.89128 
L 177.319909 358.236366 
L 180.750721 353.790066 
L 180.919449 354.470074 
L 181.425634 341.308842 
L 185.193903 320.782786 
L 186.375003 331.23179 
L 186.656217 314.560971 
L 187.049916 315.337174 
L 187.387373 318.671231 
L 189.355872 311.491007 
L 189.468358 313.920016 
L 189.9183 307.323815 
L 191.549342 302.59056 
L 192.674198 301.448268 
L 195.71131 305.157302 
L 195.767553 289.531754 
L 196.89241 280.929414 
L 197.061138 271.347223 
L 198.073509 276.606894 
L 198.129752 274.01577 
L 198.69218 265.441845 
L 202.179235 258.626626 
L 203.697791 259.595574 
L 204.597676 259.578231 
L 204.991375 262.648694 
L 205.047618 260.989052 
L 206.903631 252.177612 
L 207.691031 258.734952 
L 208.140973 260.56106 
L 208.253459 249.182658 
L 208.534673 267.605816 
L 209.209587 273.93474 
L 209.772015 274.579464 
L 212.190456 276.436143 
L 212.640399 265.019479 
L 213.090341 263.686218 
L 214.327683 254.004074 
L 214.552655 255.615042 
L 215.05884 262.683742 
L 215.283811 249.892052 
L 215.396297 249.873068 
L 216.183696 242.881994 
L 216.296182 229.676956 
L 216.689882 223.348504 
L 217.139824 228.168553 
L 217.477281 233.774569 
L 217.533524 247.170679 
L 219.05208 246.63187 
L 223.04532 240.982803 
L 223.157806 232.740633 
L 225.013819 220.593021 
L 225.182547 216.149137 
L 226.644861 232.837578 
L 227.03856 217.980524 
L 227.094803 207.144473 
L 227.376017 210.036612 
L 228.388388 209.478218 
L 228.557116 211.275395 
L 229.063302 209.395968 
L 231.8192 210.89702 
L 231.987928 224.123018 
L 232.325385 222.626512 
L 232.662842 219.265861 
L 232.944056 224.352152 
L 233.506484 220.525908 
L 234.125155 221.255131 
L 237.049782 224.281533 
L 237.330996 237.86975 
L 237.387239 227.072528 
L 238.39961 240.757044 
L 239.130766 235.466621 
L 239.861923 248.318822 
L 241.99915 241.868112 
L 242.955278 234.51467 
L 244.080134 242.486437 
L 244.811291 226.934485 
L 246.048633 219.936429 
L 246.217361 229.367641 
L 246.836032 234.353339 
L 247.004761 220.356777 
L 247.229732 232.556572 
L 249.929387 220.374242 
L 250.266844 213.684718 
L 250.323087 202.464489 
L 251.560429 195.795389 
L 252.235343 196.218919 
L 252.797771 209.476044 
L 254.485056 203.298821 
L 255.103727 203.636092 
L 255.553669 214.666664 
L 255.891126 217.040867 
L 257.690896 206.432125 
L 257.915868 215.042818 
L 259.321938 214.590872 
L 260.221823 217.906527 
L 260.278066 216.806445 
L 261.121708 239.877185 
L 261.34668 232.012672 
L 262.302807 219.879044 
L 264.271306 227.20251 
L 264.721249 225.126478 
L 265.846105 212.494008 
L 266.633504 209.713601 
L 267.13969 198.56019 
L 267.477147 197.622035 
L 267.589632 188.38273 
L 268.152061 194.786671 
L 268.658246 192.890614 
L 269.445645 197.227112 
L 269.726859 219.01831 
L 270.176802 216.954168 
L 270.233045 209.685831 
L 271.864087 215.081014 
L 272.201543 210.953974 
L 273.551371 200.988726 
L 274.73247 200.28071 
L 275.744841 197.932326 
L 276.251026 201.230512 
L 276.982183 191.219525 
L 277.150912 199.498114 
L 277.600854 196.242309 
L 279.850567 192.188919 
L 280.806695 204.888508 
L 281.369123 207.205538 
L 281.537851 197.854612 
L 282.662708 191.90759 
L 283.562593 203.48201 
L 284.574964 207.863891 
L 284.799935 197.145021 
L 285.249877 209.33409 
L 286.206005 204.373693 
L 286.543462 207.605922 
L 287.89329 196.661148 
L 288.624446 198.050172 
L 288.793175 189.208602 
L 288.849418 189.82396 
L 289.29936 196.585525 
L 289.524332 217.933478 
L 289.918031 210.118189 
L 290.761674 214.145942 
L 292.673929 211.894267 
L 292.898901 204.463245 
L 293.2926 201.031351 
L 293.798786 197.801574 
L 295.036128 196.024581 
L 295.261099 191.25614 
L 295.711042 199.690407 
L 296.385955 189.869668 
L 297.510812 198.002345 
L 297.792026 187.7439 
L 297.848269 189.334237 
L 297.960754 189.552242 
L 298.129483 198.368278 
L 298.804397 188.936122 
L 298.973125 183.505809 
L 299.254339 183.648013 
L 300.322953 189.349938 
L 301.222838 186.546998 
L 301.785266 187.661886 
L 302.46018 194.080139 
L 303.922493 194.007937 
L 304.428678 198.740888 
L 306.397177 197.702815 
L 306.45342 206.042544 
L 306.565906 199.773651 
L 309.04059 206.34351 
L 309.996717 197.976867 
L 310.109203 205.393671 
L 310.390417 209.157603 
L 311.796488 198.681092 
L 311.85273 190.077724 
L 312.415159 185.495713 
L 312.527644 194.065222 
L 312.808858 190.880295 
L 313.596258 191.846897 
L 313.933715 196.188784 
L 314.4399 207.146495 
L 315.283542 207.821884 
L 315.508514 200.403337 
L 315.620999 190.779878 
L 317.02707 182.21593 
L 318.264412 179.350194 
L 318.601869 171.247211 
L 319.557997 165.667909 
L 319.895454 161.625189 
L 321.357767 155.916208 
L 322.651352 155.003236 
L 323.045051 171.25832 
L 323.326265 188.410077 
L 324.057422 198.933311 
L 324.451122 189.825128 
L 325.294764 189.374868 
L 326.138406 185.963063 
L 326.925806 184.470477 
L 328.894304 179.929555 
L 328.950547 180.766292 
L 329.00679 187.470974 
L 333.562458 194.380113 
L 334.068644 191.095408 
L 334.574829 191.476565 
L 334.912286 182.271605 
L 336.262114 192.938634 
L 338.905526 194.709667 
L 339.355469 195.335205 
L 342.280095 181.796249 
L 343.067495 201.100358 
L 344.417322 202.44629 
L 344.642294 204.165951 
L 346.329578 205.625966 
L 347.623163 202.24496 
L 348.466805 198.157641 
L 349.479176 196.010731 
L 349.816633 194.886956 
L 351.728889 191.458244 
L 351.785132 186.038758 
L 353.697387 178.705576 
L 354.259816 185.912141 
L 354.484787 180.984676 
L 354.597273 173.571844 
L 354.653515 188.545175 
L 356.059586 187.093891 
L 357.915599 186.983498 
L 359.209184 179.004243 
L 360.165312 171.013536 
L 361.908839 188.13353 
L 363.427395 193.932442 
L 363.708609 185.081378 
L 366.014565 176.573553 
L 366.12705 181.128284 
L 366.858207 182.070208 
L 367.758092 178.039595 
L 369.389134 172.720797 
L 369.557862 173.87114 
L 370.963933 171.538593 
L 372.426246 175.393042 
L 373.382374 175.696791 
L 374.50723 173.759966 
L 375.519601 175.775789 
L 375.632087 175.612011 
L 375.744572 179.853752 
L 377.656828 171.054333 
L 378.444228 168.846875 
L 381.593825 165.898938 
L 381.818797 167.484275 
L 382.268739 167.462114 
L 382.437468 177.323926 
L 384.180995 177.170442 
L 384.630938 176.256631 
L 385.362094 174.37398 
L 385.643308 186.97062 
L 386.543193 189.200629 
L 386.824408 185.257149 
L 386.936893 177.650064 
L 387.499321 176.552593 
L 387.724293 174.969298 
L 389.355334 171.277611 
L 390.030248 168.199126 
L 392.954875 169.240357 
L 393.573546 182.425933 
L 394.192217 175.371463 
L 394.867131 160.44119 
L 396.104473 166.458495 
L 397.510543 181.097625 
L 397.566786 178.497507 
L 398.2417 180.121647 
L 398.860371 180.743056 
L 399.029099 193.308689 
L 402.23494 185.324063 
L 402.516154 181.40611 
L 402.572397 173.158052 
L 403.134825 165.72287 
L 407.240551 167.088293 
L 407.859222 169.295067 
L 408.02795 182.781543 
L 408.309164 186.718165 
L 408.365407 199.06512 
L 409.771477 204.596358 
L 410.22142 208.797273 
L 411.796219 203.482321 
L 411.964947 201.833516 
L 412.02119 198.654293 
L 412.864832 197.489246 
L 413.764718 213.567024 
L 414.102174 206.852151 
L 414.833331 206.735114 
L 414.945817 218.285163 
L 415.676973 216.63234 
L 416.295644 205.245776 
L 417.757958 205.660695 
L 418.264143 201.400441 
L 419.107785 191.315593 
L 419.501485 200.005731 
L 419.838942 195.54897 
L 420.063913 195.271562 
L 421.357498 223.263742 
L 423.719696 225.438255 
L 424.675824 224.726829 
L 425.688195 210.087184 
L 426.813051 203.54407 
L 426.98178 193.22643 
L 427.487965 188.675241 
L 428.106636 200.332113 
L 429.512707 197.909696 
L 429.681435 194.040656 
L 430.468835 199.02997 
L 430.693806 195.265266 
L 432.324848 185.856147 
L 433.899647 183.864968 
L 434.349589 185.849713 
L 434.57456 182.202873 
L 435.024503 184.785848 
L 437.105487 199.267512 
L 437.386701 207.942097 
L 439.186471 212.604899 
L 439.636414 207.237673 
L 440.142599 205.486902 
L 440.648785 207.93829 
L 441.267456 202.282441 
L 441.323699 195.453456 
L 441.998612 178.384394 
L 442.279827 188.226055 
L 444.248325 180.669865 
L 444.923239 187.650966 
L 445.991853 178.407398 
L 447.285437 170.148442 
L 448.410294 181.586497 
L 449.760121 176.852438 
L 450.660006 186.884081 
L 451.109949 182.08353 
L 451.616134 177.943358 
L 451.784863 180.728596 
L 451.897348 172.840135 
L 454.765732 185.651058 
L 454.934461 185.652495 
L 456.059317 193.692333 
L 456.171803 193.58699 
L 456.228045 198.707322 
L 456.621745 197.721755 
L 457.634116 194.166739 
L 459.208915 185.260134 
L 460.333771 184.35913 
L 460.446257 185.329437 
L 460.783714 177.866617 
L 462.246027 178.920517 
L 462.527241 175.977444 
L 463.483369 169.245305 
L 464.49574 180.306832 
L 464.945682 179.747309 
L 466.68921 172.281468 
L 468.207766 173.776598 
L 469.501351 171.051001 
L 471.132392 176.347241 
L 471.751063 176.361194 
L 472.650948 178.714172 
L 473.438348 172.097962 
L 474.619447 173.104948 
L 476.86916 172.871853 
L 478.106502 177.130588 
L 478.387716 170.943335 
L 480.4687 175.68057 
L 481.087371 184.697812 
L 481.424828 181.952564 
L 482.212228 183.001427 
L 482.324713 181.00894 
L 485.474311 174.731278 
L 486.149225 183.219668 
L 486.261711 179.149577 
L 486.599167 177.63476 
L 487.274081 185.373569 
L 488.680152 196.877381 
L 490.254951 189.311843 
L 490.592408 180.253332 
L 491.43605 175.797974 
L 493.742005 179.741799 
L 493.910734 172.402922 
L 494.923105 190.856959 
L 495.935475 192.554767 
L 496.891603 190.950948 
L 497.060332 208.035329 
L 497.62276 207.055257 
L 498.635131 216.040012 
L 498.691373 212.435497 
L 499.647501 207.624236 
L 499.81623 200.456671 
L 501.728486 201.386432 
L 502.234671 194.225106 
L 503.753227 202.620009 
L 504.259412 210.476958 
L 505.440512 217.850468 
L 506.790339 205.868142 
L 507.071553 197.530761 
L 507.40901 194.2243 
L 508.927566 197.379518 
L 510.052423 201.859767 
L 510.333637 192.362129 
L 511.458493 195.95776 
L 512.864564 201.792244 
L 513.876934 197.340874 
L 514.101906 197.734831 
L 514.38312 188.144052 
L 515.283005 189.755671 
L 515.39549 191.961385 
L 516.295376 183.035106 
L 516.407861 174.999832 
L 516.857804 166.682967 
L 517.645203 180.320624 
L 517.870175 181.907346 
L 519.163759 201.033438 
L 519.669945 201.117469 
L 520.738558 201.817953 
L 521.357229 204.245585 
L 521.807172 193.485682 
L 522.538328 198.876869 
L 523.550699 197.196656 
L 525.744169 193.082269 
L 527.037754 196.56404 
L 527.262725 193.253969 
L 527.318968 199.599923 
L 527.712668 194.026426 
L 528.668796 193.614452 
L 529.287467 187.226544 
L 529.906138 197.804351 
L 530.299837 196.779274 
L 530.637294 201.059632 
L 531.987122 201.874992 
L 535.080477 204.973818 
L 535.305448 194.397975 
L 536.036605 189.932147 
L 537.33019 189.468914 
L 537.386433 181.48312 
L 537.611404 183.090814 
L 538.73626 195.743806 
L 538.848746 178.748657 
L 539.298688 176.763754 
L 540.423545 170.299719 
L 541.773372 176.151484 
L 542.167072 171.06592 
L 542.335801 172.235175 
L 543.404414 172.897496 
L 546.441526 176.829259 
L 546.947712 198.670995 
L 547.060197 189.35588 
L 547.285169 197.828787 
L 547.622625 195.63921 
L 547.791354 201.302053 
L 548.185054 200.738584 
L 548.634996 199.141437 
L 548.803725 192.960523 
L 549.478638 193.809155 
L 550.997195 186.499741 
L 551.222166 197.577621 
L 551.840837 188.975522 
L 552.459508 191.850507 
L 556.28402 183.090059 
L 557.521362 170.271789 
L 558.308761 168.751863 
L 558.365004 162.716568 
L 559.827317 161.677498 
L 560.614717 156.283495 
L 562.020787 166.653789 
L 563.651829 165.119081 
L 563.820557 168.952567 
L 565.28287 172.149052 
L 566.295241 170.45561 
L 566.520212 168.784786 
L 567.926283 165.987318 
L 568.319983 159.898951 
L 569.388596 169.150817 
L 570.850909 173.029229 
L 571.694552 179.046646 
L 572.144494 172.518576 
L 572.200737 185.274198 
L 573.438079 193.688264 
L 573.66305 187.874138 
L 574.45045 185.784707 
L 575.575306 181.787048 
L 576.700163 175.563669 
L 577.206348 171.384185 
L 577.712533 173.852782 
L 577.825019 169.53067 
L 577.881262 175.698097 
L 579.118604 209.157983 
L 579.624789 199.507103 
L 581.705773 197.292955 
L 582.605659 199.182928 
L 583.22433 189.449815 
L 584.2367 181.350067 
L 584.799128 189.26983 
L 584.855371 184.817548 
L 585.586528 176.583904 
L 585.867742 170.397983 
L 585.923985 173.556653 
L 587.21757 176.110784 
L 587.442541 179.054597 
L 588.286183 176.407309 
L 589.973468 176.636773 
L 590.479653 181.91727 
L 590.648382 197.829032 
L 591.042081 191.722538 
L 591.60451 195.319394 
L 592.054452 209.520044 
L 592.61688 202.542937 
L 593.966708 200.664957 
L 594.472893 202.915916 
L 595.541507 202.769401 
L 596.497635 193.272253 
L 599.253533 192.599532 
L 599.984689 189.99357 
L 600.153418 196.209181 
L 601.896945 203.267984 
L 601.953188 207.427819 
L 602.909316 197.542925 
L 603.471744 188.530867 
L 603.752958 195.137267 
L 604.371629 186.361653 
L 604.709086 178.014417 
L 605.102786 183.482558 
L 606.115157 189.381555 
L 606.677585 203.653595 
L 607.689956 193.431205 
L 608.308627 197.619268 
L 608.477355 193.118486 
L 609.602211 199.418644 
L 610.052154 199.253615 
L 610.614582 198.3672 
L 612.583081 209.646113 
L 612.864295 207.744493 
L 616.295107 206.017968 
L 616.576321 220.35079 
L 618.15112 214.959196 
L 621.019504 201.766834 
L 621.469446 204.552399 
L 621.525689 197.763848 
L 623.437945 197.276812 
L 624.056616 193.557237 
L 624.73153 202.304872 
L 624.900258 202.028943 
L 625.687657 192.326196 
L 629.062227 196.616192 
L 630.412054 207.143388 
L 632.099339 205.251953 
L 632.32431 204.405523 
L 633.11171 207.019555 
L 634.067837 214.809044 
L 634.405294 203.853441 
L 636.767493 215.368781 
L 637.667378 203.797452 
L 638.792234 212.747595 
L 639.242177 210.529841 
L 640.367033 219.289867 
L 640.479519 207.410968 
L 640.648247 204.443857 
L 640.760733 209.648811 
L 641.09819 215.57062 
L 641.773104 212.925138 
L 642.223046 210.50433 
L 642.672989 221.53434 
L 643.066688 224.439949 
L 643.179174 227.504932 
L 646.047558 226.336949 
L 646.666229 217.363724 
L 647.116171 205.904791 
L 648.241028 208.215509 
L 648.297271 216.449563 
L 648.409756 204.952072 
L 649.197156 195.358809 
L 649.422127 190.024641 
L 649.928312 188.448712 
L 650.49074 182.476858 
L 650.546983 189.668719 
L 651.390626 188.119524 
L 653.809067 177.025835 
L 654.202766 177.288995 
L 654.483981 175.475024 
L 655.27138 173.28181 
L 655.777565 172.376781 
L 656.621208 167.603015 
L 657.239879 175.460387 
L 658.196007 180.245035 
L 660.333234 177.173931 
L 660.783176 184.859867 
L 660.839419 182.095993 
L 661.06439 187.561908 
L 662.86416 195.362967 
L 665.507573 193.899332 
L 665.732544 195.597734 
L 666.744915 186.355622 
L 667.026129 185.754351 
L 668.0385 177.653633 
L 668.207228 177.691971 
L 669.388327 183.645911 
L 670.006998 175.658953 
L 671.356826 174.997101 
L 671.750526 185.450889 
L 672.706654 177.32013 
L 672.819139 180.176705 
L 672.987868 178.819496 
L 674.168967 175.635604 
L 674.281453 190.583391 
L 674.562667 184.927164 
L 675.181338 187.306466 
L 675.856252 178.913584 
L 676.812379 170.834811 
L 677.82475 168.937882 
L 678.443421 165.153147 
L 678.724635 175.876919 
L 679.737006 176.558502 
L 679.793249 184.17048 
L 681.311805 185.00923 
L 681.761747 181.055593 
L 682.324176 173.461987 
L 682.942847 173.176195 
L 684.123946 180.821637 
L 685.136317 173.621621 
L 686.936087 180.76258 
L 686.99233 189.509904 
L 687.329787 181.066386 
L 690.254413 193.528314 
L 690.366899 199.702896 
L 690.929327 194.811515 
L 691.323027 194.718134 
L 692.841583 198.706985 
L 694.022682 199.294162 
L 694.58511 204.186411 
L 695.484995 193.622753 
L 695.597481 195.934883 
L 695.991181 199.259117 
L 697.790951 204.895673 
L 698.072165 215.350424 
L 698.690836 217.290756 
L 698.97205 214.656007 
L 701.390491 220.672969 
L 701.55922 209.054094 
L 702.684076 204.452893 
L 703.021533 207.121383 
L 703.077776 206.151613 
L 704.540089 217.3402 
L 704.933789 219.47121 
L 708.420843 228.823371 
L 708.477086 216.206582 
L 708.983272 212.463591 
L 709.376971 205.860981 
L 709.5457 196.27064 
L 709.9394 200.559353 
L 710.108128 196.983231 
L 711.34547 187.905622 
L 711.964141 197.18876 
L 712.582812 204.179254 
L 713.14524 202.058683 
L 713.313969 186.588674 
L 713.482697 185.270457 
L 714.832525 185.94483 
L 715.169982 181.48639 
L 715.394953 174.295865 
L 716.463566 167.507631 
L 717.025995 170.028662 
L 717.475937 186.811751 
L 718.150851 196.232272 
L 720.400564 199.673843 
L 720.906749 198.263377 
L 720.962992 195.276493 
L 721.412935 194.874752 
L 721.91912 189.853455 
L 723.887619 194.378072 
L 725.462417 185.274203 
L 725.631146 190.4311 
L 727.880859 181.958171 
L 729.230686 174.43782 
L 729.793114 180.913917 
L 732.886469 173.603638 
L 733.617626 181.686728 
L 734.236297 178.383014 
L 735.248668 179.66773 
L 737.273409 184.827068 
L 737.610866 174.74534 
L 737.723352 183.668795 
L 738.510751 176.091332 
L 739.185665 178.123639 
L 739.748093 170.921937 
L 740.47925 172.545136 
L 740.760464 170.949914 
L 740.816707 164.947827 
L 741.660349 166.800146 
L 741.997806 165.995449 
L 742.560234 167.861169 
L 743.910062 174.292011 
L 744.86619 167.508412 
L 746.103532 178.717257 
L 747.847059 180.58529 
L 748.240759 180.519178 
L 748.409487 172.925091 
L 748.85943 174.115259 
L 749.759315 183.933658 
L 749.984286 180.082299 
L 750.2655 180.722891 
L 750.377986 175.524248 
L 750.490472 178.051332 
L 750.6592 178.509912 
L 752.627699 181.120613 
L 753.021398 174.524146 
L 753.921284 168.347902 
L 755.04614 174.847405 
L 756.620939 177.380339 
L 756.789667 168.567303 
L 756.902153 183.390065 
L 757.23961 177.010234 
L 757.745795 169.980638 
L 758.083252 167.14598 
L 758.364466 169.749811 
L 759.995508 168.42717 
L 760.782907 181.010331 
L 761.401578 182.723886 
L 761.964007 189.364863 
L 762.188978 181.043679 
L 762.245221 181.801844 
L 763.82002 185.383107 
L 764.326205 176.943496 
L 764.776148 182.965039 
L 765.61979 181.77177 
L 765.676033 187.270875 
L 766.350946 181.014687 
L 768.094474 177.860007 
L 768.600659 171.614717 
L 769.331816 181.775309 
L 769.500544 180.668388 
L 769.556787 173.335324 
L 769.838001 165.872994 
L 770.344187 177.724278 
L 770.794129 185.084586 
L 771.187829 196.494603 
L 771.244072 193.195848 
L 772.2002 194.282765 
L 773.887484 194.464434 
L 774.449912 202.538561 
L 776.530897 209.186463 
L 777.093325 215.427575 
L 777.430782 204.692146 
L 778.330667 209.533686 
L 778.724367 207.667357 
L 780.299165 205.413882 
L 780.355408 205.056321 
L 780.861594 199.526397 
L 781.142808 191.016102 
L 781.761479 189.85894 
L 782.267664 188.528785 
L 783.055064 179.5317 
L 783.673735 181.503325 
L 785.192291 174.960908 
L 785.361019 177.502702 
L 785.867204 174.483616 
L 787.273275 184.521476 
L 787.498246 183.926189 
L 788.004432 180.370305 
L 788.791831 186.486654 
L 789.129288 178.522134 
L 789.241774 186.616119 
L 791.154029 187.0363 
L 791.491486 178.228729 
L 791.828943 179.696709 
L 791.997672 173.392111 
L 792.5601 173.43998 
L 792.841314 166.200822 
L 793.628713 163.562195 
L 794.134899 158.14123 
L 795.034784 153.819493 
L 796.440854 148.904455 
L 797.509468 153.339682 
L 798.015653 163.421852 
L 799.028024 168.324781 
L 800.040395 162.076578 
L 800.54658 172.430266 
L 801.840165 176.587886 
L 802.008893 183.869788 
L 804.877277 188.509714 
L 805.32722 184.658236 
L 805.495948 179.879985 
L 806.002133 171.934917 
L 806.958261 165.867436 
L 808.139361 159.566642 
L 808.983003 163.997195 
L 809.882888 164.350765 
L 811.007744 175.973799 
L 811.401444 172.04359 
L 811.795144 173.597283 
L 812.076358 177.163265 
L 814.269828 167.773019 
L 814.382313 169.448763 
L 816.294569 165.864084 
L 816.463298 175.281282 
L 817.250697 167.96532 
L 817.419426 159.706476 
L 818.038097 161.47644 
L 818.375554 155.188127 
L 819.950352 172.466677 
L 820.119081 171.664784 
L 820.175324 175.329776 
L 820.512781 186.661704 
L 820.625266 178.311411 
L 821.581394 170.684972 
L 822.031337 172.534366 
L 822.537522 171.232865 
L 823.381164 172.613555 
L 824.281049 174.870642 
L 826.474519 167.790708 
L 827.149433 170.499831 
L 827.261919 177.125379 
L 827.824347 175.980869 
L 828.443018 180.867458 
L 828.836718 191.222333 
L 829.230417 191.743969 
L 829.342903 182.973724 
L 830.299031 187.235403 
L 831.367645 203.170419 
L 833.392386 210.676115 
L 833.954814 203.937286 
L 834.910942 213.594456 
L 835.248399 202.730721 
L 835.754584 205.172967 
L 837.441869 195.370808 
L 838.735454 192.180187 
L 838.791697 184.058562 
L 839.804067 180.595638 
L 841.378866 180.28467 
L 841.66008 183.591322 
L 842.391237 180.235485 
L 842.44748 175.755919 
L 843.178636 177.480844 
L 843.628579 170.411133 
L 844.022279 184.103412 
L 844.078522 190.608797 
L 845.203378 180.475917 
L 845.484592 179.885321 
L 846.271991 181.699908 
L 846.83442 179.417435 
L 847.115634 184.363835 
L 847.509333 194.962597 
L 848.577947 213.878736 
L 849.252861 212.828196 
L 851.22136 208.63121 
L 851.727545 224.070323 
L 852.008759 217.298279 
L 854.4272 214.747658 
L 854.708414 216.898054 
L 855.552057 217.126667 
L 856.170728 210.303577 
L 856.395699 222.783143 
L 857.295584 221.604937 
L 858.026741 213.670421 
L 859.151597 219.707951 
L 859.657782 219.844489 
L 860.107725 208.032416 
L 861.232581 206.371824 
L 862.132466 209.554259 
L 863.257323 215.618439 
L 863.426051 204.992379 
L 864.325936 204.168168 
L 865.225821 197.553302 
L 865.844492 193.116167 
L 869.219061 187.283843 
L 869.725247 179.614119 
L 869.78149 172.748598 
L 871.468774 176.393186 
L 872.706116 166.563931 
L 873.943458 177.022468 
L 876.418142 184.545589 
L 877.599241 179.131674 
L 877.936698 171.187663 
L 878.049184 178.123751 
L 879.230283 170.94655 
L 880.467625 168.042848 
L 882.098667 170.40519 
L 883.898437 176.935987 
L 884.685836 177.084018 
L 885.585722 170.010227 
L 886.260635 166.170336 
L 889.578962 166.926255 
L 890.478847 163.515427 
L 892.222374 161.451152 
L 892.672317 165.519427 
L 893.853416 185.188882 
L 895.259486 181.561065 
L 895.5407 175.335397 
L 896.271857 176.724912 
L 897.003014 187.172566 
L 897.340471 197.082239 
L 899.702669 191.104242 
L 899.758912 207.730262 
L 900.040126 197.150859 
L 900.32134 212.179445 
L 900.883768 204.721945 
L 902.571053 193.859158 
L 903.302209 185.956367 
L 904.145852 186.490916 
L 905.10198 184.059309 
L 906.620536 191.830228 
L 906.676779 194.909938 
L 907.126721 187.909491 
L 907.801635 181.440185 
L 907.970363 181.665766 
L 908.476549 173.310917 
L 909.320191 175.954724 
L 909.545162 187.950718 
L 909.657648 182.604257 
L 910.50129 183.141805 
L 911.513661 189.130863 
L 912.526032 185.880486 
L 913.369674 194.979982 
L 914.100831 201.400702 
L 914.775744 191.970787 
L 914.831987 182.923465 
L 915.056958 180.903451 
L 916.631757 172.663099 
L 918.094071 171.54806 
L 919.950084 171.79347 
L 920.231298 169.892289 
L 920.793726 172.338177 
L 922.818467 174.187798 
L 923.099681 182.76062 
L 925.799337 195.65808 
L 926.024308 187.99059 
L 927.149164 187.10355 
L 929.84882 196.494783 
L 929.905063 188.023924 
L 931.367376 183.778142 
L 931.536104 175.710469 
L 933.898303 177.290491 
L 933.954545 175.314481 
L 933.954545 175.314481 
" style="fill:none;stroke:#4c72b0;stroke-linecap:round;stroke-width:2;"/>
   </g>
   <g id="patch_3">
    <path d="M 135 512.64 
L 135 69.12 
" style="fill:none;stroke:#ffffff;stroke-linecap:square;stroke-linejoin:miter;stroke-width:1.25;"/>
   </g>
   <g id="patch_4">
    <path d="M 972 512.64 
L 972 69.12 
" style="fill:none;stroke:#ffffff;stroke-linecap:square;stroke-linejoin:miter;stroke-width:1.25;"/>
   </g>
   <g id="patch_5">
    <path d="M 135 512.64 
L 972 512.64 
" style="fill:none;stroke:#ffffff;stroke-linecap:square;stroke-linejoin:miter;stroke-width:1.25;"/>
   </g>
   <g id="patch_6">
    <path d="M 135 69.12 
L 972 69.12 
" style="fill:none;stroke:#ffffff;stroke-linecap:square;stroke-linejoin:miter;stroke-width:1.25;"/>
   </g>
   <g id="text_19">
    <!-- PPO Training Attack -->
    <g style="fill:#262626;" transform="translate(486.384375 63.12)scale(0.15 -0.15)">
     <defs>
      <path d="M 7.71875 0 
L 7.71875 71.578125 
L 34.71875 71.578125 
Q 41.84375 71.578125 45.609375 70.90625 
Q 50.875 70.015625 54.4375 67.546875 
Q 58.015625 65.09375 60.1875 60.640625 
Q 62.359375 56.203125 62.359375 50.875 
Q 62.359375 41.75 56.546875 35.421875 
Q 50.734375 29.109375 35.546875 29.109375 
L 17.1875 29.109375 
L 17.1875 0 
z
M 17.1875 37.546875 
L 35.6875 37.546875 
Q 44.875 37.546875 48.734375 40.96875 
Q 52.59375 44.390625 52.59375 50.59375 
Q 52.59375 55.078125 50.3125 58.265625 
Q 48.046875 61.46875 44.34375 62.5 
Q 41.9375 63.140625 35.5 63.140625 
L 17.1875 63.140625 
z
" id="ArialMT-80"/>
      <path d="M 4.828125 34.859375 
Q 4.828125 52.6875 14.390625 62.765625 
Q 23.96875 72.859375 39.109375 72.859375 
Q 49.03125 72.859375 56.984375 68.109375 
Q 64.9375 63.375 69.109375 54.90625 
Q 73.296875 46.4375 73.296875 35.6875 
Q 73.296875 24.8125 68.890625 16.21875 
Q 64.5 7.625 56.4375 3.203125 
Q 48.390625 -1.21875 39.0625 -1.21875 
Q 28.953125 -1.21875 20.984375 3.65625 
Q 13.03125 8.546875 8.921875 16.984375 
Q 4.828125 25.4375 4.828125 34.859375 
z
M 14.59375 34.71875 
Q 14.59375 21.78125 21.546875 14.328125 
Q 28.515625 6.890625 39.015625 6.890625 
Q 49.703125 6.890625 56.609375 14.40625 
Q 63.53125 21.921875 63.53125 35.75 
Q 63.53125 44.484375 60.578125 51 
Q 57.625 57.515625 51.921875 61.109375 
Q 46.234375 64.703125 39.15625 64.703125 
Q 29.109375 64.703125 21.84375 57.78125 
Q 14.59375 50.875 14.59375 34.71875 
z
" id="ArialMT-79"/>
      <path d="M 25.921875 0 
L 25.921875 63.140625 
L 2.34375 63.140625 
L 2.34375 71.578125 
L 59.078125 71.578125 
L 59.078125 63.140625 
L 35.40625 63.140625 
L 35.40625 0 
z
" id="ArialMT-84"/>
      <path d="M -0.140625 0 
L 27.34375 71.578125 
L 37.546875 71.578125 
L 66.84375 0 
L 56.0625 0 
L 47.703125 21.6875 
L 17.78125 21.6875 
L 9.90625 0 
z
M 20.515625 29.390625 
L 44.78125 29.390625 
L 37.3125 49.21875 
Q 33.890625 58.25 32.234375 64.0625 
Q 30.859375 57.171875 28.375 50.390625 
z
" id="ArialMT-65"/>
      <path d="M 40.4375 19 
L 49.078125 17.875 
Q 47.65625 8.9375 41.8125 3.875 
Q 35.984375 -1.171875 27.484375 -1.171875 
Q 16.84375 -1.171875 10.375 5.78125 
Q 3.90625 12.75 3.90625 25.734375 
Q 3.90625 34.125 6.6875 40.421875 
Q 9.46875 46.734375 15.15625 49.875 
Q 20.84375 53.03125 27.546875 53.03125 
Q 35.984375 53.03125 41.359375 48.75 
Q 46.734375 44.484375 48.25 36.625 
L 39.703125 35.296875 
Q 38.484375 40.53125 35.375 43.15625 
Q 32.28125 45.796875 27.875 45.796875 
Q 21.234375 45.796875 17.078125 41.03125 
Q 12.9375 36.28125 12.9375 25.984375 
Q 12.9375 15.53125 16.9375 10.796875 
Q 20.953125 6.0625 27.390625 6.0625 
Q 32.5625 6.0625 36.03125 9.234375 
Q 39.5 12.40625 40.4375 19 
z
" id="ArialMT-99"/>
      <path d="M 6.640625 0 
L 6.640625 71.578125 
L 15.4375 71.578125 
L 15.4375 30.765625 
L 36.234375 51.859375 
L 47.609375 51.859375 
L 27.78125 32.625 
L 49.609375 0 
L 38.765625 0 
L 21.625 26.515625 
L 15.4375 20.5625 
L 15.4375 0 
z
" id="ArialMT-107"/>
     </defs>
     <use xlink:href="#ArialMT-80"/>
     <use x="66.699219" xlink:href="#ArialMT-80"/>
     <use x="133.398438" xlink:href="#ArialMT-79"/>
     <use x="211.181641" xlink:href="#ArialMT-32"/>
     <use x="237.214844" xlink:href="#ArialMT-84"/>
     <use x="294.548828" xlink:href="#ArialMT-114"/>
     <use x="327.849609" xlink:href="#ArialMT-97"/>
     <use x="383.464844" xlink:href="#ArialMT-105"/>
     <use x="405.681641" xlink:href="#ArialMT-110"/>
     <use x="461.296875" xlink:href="#ArialMT-105"/>
     <use x="483.513672" xlink:href="#ArialMT-110"/>
     <use x="539.128906" xlink:href="#ArialMT-103"/>
     <use x="594.744141" xlink:href="#ArialMT-32"/>
     <use x="617.027344" xlink:href="#ArialMT-65"/>
     <use x="683.726562" xlink:href="#ArialMT-116"/>
     <use x="711.509766" xlink:href="#ArialMT-116"/>
     <use x="739.292969" xlink:href="#ArialMT-97"/>
     <use x="794.908203" xlink:href="#ArialMT-99"/>
     <use x="844.908203" xlink:href="#ArialMT-107"/>
    </g>
   </g>
   <g id="legend_1">
    <g id="patch_7">
     <path d="M 881.821875 505.14 
L 961.5 505.14 
Q 964.5 505.14 964.5 502.14 
L 964.5 482.422031 
Q 964.5 479.422031 961.5 479.422031 
L 881.821875 479.422031 
Q 878.821875 479.422031 878.821875 482.422031 
L 878.821875 502.14 
Q 878.821875 505.14 881.821875 505.14 
z
" style="fill:#eaeaf2;opacity:0.8;stroke:#cccccc;stroke-linejoin:miter;"/>
    </g>
    <g id="line2d_18">
     <path d="M 884.821875 490.90875 
L 914.821875 490.90875 
" style="fill:none;stroke:#4c72b0;stroke-linecap:round;stroke-width:2;"/>
    </g>
    <g id="line2d_19"/>
    <g id="text_20">
     <!-- PPO -->
     <g style="fill:#262626;" transform="translate(926.821875 496.15875)scale(0.15 -0.15)">
      <use xlink:href="#ArialMT-80"/>
      <use x="66.699219" xlink:href="#ArialMT-80"/>
      <use x="133.398438" xlink:href="#ArialMT-79"/>
     </g>
    </g>
   </g>
  </g>
 </g>
 <defs>
  <clipPath id="paae9bcb89b">
   <rect height="443.52" width="837" x="135" y="69.12"/>
  </clipPath>
 </defs>
</svg>
