<?xml version="1.0" encoding="utf-8" standalone="no"?>
<!DOCTYPE svg PUBLIC "-//W3C//DTD SVG 1.1//EN"
  "http://www.w3.org/Graphics/SVG/1.1/DTD/svg11.dtd">
<!-- Created with matplotlib (https://matplotlib.org/) -->
<svg height="576pt" version="1.1" viewBox="0 0 576 576" width="576pt" xmlns="http://www.w3.org/2000/svg" xmlns:xlink="http://www.w3.org/1999/xlink">
 <metadata>
  <rdf:RDF xmlns:cc="http://creativecommons.org/ns#" xmlns:dc="http://purl.org/dc/elements/1.1/" xmlns:rdf="http://www.w3.org/1999/02/22-rdf-syntax-ns#">
   <cc:Work>
    <dc:type rdf:resource="http://purl.org/dc/dcmitype/StillImage"/>
    <dc:date>2021-03-16T19:36:03.310820</dc:date>
    <dc:format>image/svg+xml</dc:format>
    <dc:creator>
     <cc:Agent>
      <dc:title>Matplotlib v3.3.2, https://matplotlib.org/</dc:title>
     </cc:Agent>
    </dc:creator>
   </cc:Work>
  </rdf:RDF>
 </metadata>
 <defs>
  <style type="text/css">*{stroke-linecap:butt;stroke-linejoin:round;}</style>
 </defs>
 <g id="figure_1">
  <g id="patch_1">
   <path d="M 0 576 
L 576 576 
L 576 0 
L 0 0 
z
" style="fill:none;"/>
  </g>
  <g id="axes_1">
   <g id="patch_2">
    <path d="M 72 504 
L 518.4 504 
L 518.4 69.12 
L 72 69.12 
z
" style="fill:#eaeaf2;"/>
   </g>
   <g id="matplotlib.axis_1">
    <g id="xtick_1">
     <g id="line2d_1">
      <path clip-path="url(#pfd2f9d19e9)" d="M 91.720982 504 
L 91.720982 69.12 
" style="fill:none;stroke:#ffffff;stroke-linecap:round;"/>
     </g>
     <g id="text_1">
      <!-- 0.00 -->
      <g style="fill:#262626;" transform="translate(67.39481 531.394531)scale(0.25 -0.25)">
       <defs>
        <path d="M 4.15625 35.296875 
Q 4.15625 48 6.765625 55.734375 
Q 9.375 63.484375 14.515625 67.671875 
Q 19.671875 71.875 27.484375 71.875 
Q 33.25 71.875 37.59375 69.546875 
Q 41.9375 67.234375 44.765625 62.859375 
Q 47.609375 58.5 49.21875 52.21875 
Q 50.828125 45.953125 50.828125 35.296875 
Q 50.828125 22.703125 48.234375 14.96875 
Q 45.65625 7.234375 40.5 3 
Q 35.359375 -1.21875 27.484375 -1.21875 
Q 17.140625 -1.21875 11.234375 6.203125 
Q 4.15625 15.140625 4.15625 35.296875 
z
M 13.1875 35.296875 
Q 13.1875 17.671875 17.3125 11.828125 
Q 21.4375 6 27.484375 6 
Q 33.546875 6 37.671875 11.859375 
Q 41.796875 17.71875 41.796875 35.296875 
Q 41.796875 52.984375 37.671875 58.78125 
Q 33.546875 64.59375 27.390625 64.59375 
Q 21.34375 64.59375 17.71875 59.46875 
Q 13.1875 52.9375 13.1875 35.296875 
z
" id="ArialMT-48"/>
        <path d="M 9.078125 0 
L 9.078125 10.015625 
L 19.09375 10.015625 
L 19.09375 0 
z
" id="ArialMT-46"/>
       </defs>
       <use xlink:href="#ArialMT-48"/>
       <use x="55.615234" xlink:href="#ArialMT-46"/>
       <use x="83.398438" xlink:href="#ArialMT-48"/>
       <use x="139.013672" xlink:href="#ArialMT-48"/>
      </g>
     </g>
    </g>
    <g id="xtick_2">
     <g id="line2d_2">
      <path clip-path="url(#pfd2f9d19e9)" d="M 166.711406 504 
L 166.711406 69.12 
" style="fill:none;stroke:#ffffff;stroke-linecap:round;"/>
     </g>
     <g id="text_2">
      <!-- 0.25 -->
      <g style="fill:#262626;" transform="translate(142.385235 531.394531)scale(0.25 -0.25)">
       <defs>
        <path d="M 50.34375 8.453125 
L 50.34375 0 
L 3.03125 0 
Q 2.9375 3.171875 4.046875 6.109375 
Q 5.859375 10.9375 9.828125 15.625 
Q 13.8125 20.3125 21.34375 26.46875 
Q 33.015625 36.03125 37.109375 41.625 
Q 41.21875 47.21875 41.21875 52.203125 
Q 41.21875 57.421875 37.46875 61 
Q 33.734375 64.59375 27.734375 64.59375 
Q 21.390625 64.59375 17.578125 60.78125 
Q 13.765625 56.984375 13.71875 50.25 
L 4.6875 51.171875 
Q 5.609375 61.28125 11.65625 66.578125 
Q 17.71875 71.875 27.9375 71.875 
Q 38.234375 71.875 44.234375 66.15625 
Q 50.25 60.453125 50.25 52 
Q 50.25 47.703125 48.484375 43.546875 
Q 46.734375 39.40625 42.65625 34.8125 
Q 38.578125 30.21875 29.109375 22.21875 
Q 21.1875 15.578125 18.9375 13.203125 
Q 16.703125 10.84375 15.234375 8.453125 
z
" id="ArialMT-50"/>
        <path d="M 4.15625 18.75 
L 13.375 19.53125 
Q 14.40625 12.796875 18.140625 9.390625 
Q 21.875 6 27.15625 6 
Q 33.5 6 37.890625 10.78125 
Q 42.28125 15.578125 42.28125 23.484375 
Q 42.28125 31 38.0625 35.34375 
Q 33.84375 39.703125 27 39.703125 
Q 22.75 39.703125 19.328125 37.765625 
Q 15.921875 35.84375 13.96875 32.765625 
L 5.71875 33.84375 
L 12.640625 70.609375 
L 48.25 70.609375 
L 48.25 62.203125 
L 19.671875 62.203125 
L 15.828125 42.96875 
Q 22.265625 47.46875 29.34375 47.46875 
Q 38.71875 47.46875 45.15625 40.96875 
Q 51.609375 34.46875 51.609375 24.265625 
Q 51.609375 14.546875 45.953125 7.46875 
Q 39.0625 -1.21875 27.15625 -1.21875 
Q 17.390625 -1.21875 11.203125 4.25 
Q 5.03125 9.71875 4.15625 18.75 
z
" id="ArialMT-53"/>
       </defs>
       <use xlink:href="#ArialMT-48"/>
       <use x="55.615234" xlink:href="#ArialMT-46"/>
       <use x="83.398438" xlink:href="#ArialMT-50"/>
       <use x="139.013672" xlink:href="#ArialMT-53"/>
      </g>
     </g>
    </g>
    <g id="xtick_3">
     <g id="line2d_3">
      <path clip-path="url(#pfd2f9d19e9)" d="M 241.701831 504 
L 241.701831 69.12 
" style="fill:none;stroke:#ffffff;stroke-linecap:round;"/>
     </g>
     <g id="text_3">
      <!-- 0.50 -->
      <g style="fill:#262626;" transform="translate(217.375659 531.394531)scale(0.25 -0.25)">
       <use xlink:href="#ArialMT-48"/>
       <use x="55.615234" xlink:href="#ArialMT-46"/>
       <use x="83.398438" xlink:href="#ArialMT-53"/>
       <use x="139.013672" xlink:href="#ArialMT-48"/>
      </g>
     </g>
    </g>
    <g id="xtick_4">
     <g id="line2d_4">
      <path clip-path="url(#pfd2f9d19e9)" d="M 316.692256 504 
L 316.692256 69.12 
" style="fill:none;stroke:#ffffff;stroke-linecap:round;"/>
     </g>
     <g id="text_4">
      <!-- 0.75 -->
      <g style="fill:#262626;" transform="translate(292.366084 531.394531)scale(0.25 -0.25)">
       <defs>
        <path d="M 4.734375 62.203125 
L 4.734375 70.65625 
L 51.078125 70.65625 
L 51.078125 63.8125 
Q 44.234375 56.546875 37.515625 44.484375 
Q 30.8125 32.421875 27.15625 19.671875 
Q 24.515625 10.6875 23.78125 0 
L 14.75 0 
Q 14.890625 8.453125 18.0625 20.40625 
Q 21.234375 32.375 27.171875 43.484375 
Q 33.109375 54.59375 39.796875 62.203125 
z
" id="ArialMT-55"/>
       </defs>
       <use xlink:href="#ArialMT-48"/>
       <use x="55.615234" xlink:href="#ArialMT-46"/>
       <use x="83.398438" xlink:href="#ArialMT-55"/>
       <use x="139.013672" xlink:href="#ArialMT-53"/>
      </g>
     </g>
    </g>
    <g id="xtick_5">
     <g id="line2d_5">
      <path clip-path="url(#pfd2f9d19e9)" d="M 391.68268 504 
L 391.68268 69.12 
" style="fill:none;stroke:#ffffff;stroke-linecap:round;"/>
     </g>
     <g id="text_5">
      <!-- 1.00 -->
      <g style="fill:#262626;" transform="translate(367.356508 531.394531)scale(0.25 -0.25)">
       <defs>
        <path d="M 37.25 0 
L 28.46875 0 
L 28.46875 56 
Q 25.296875 52.984375 20.140625 49.953125 
Q 14.984375 46.921875 10.890625 45.40625 
L 10.890625 53.90625 
Q 18.265625 57.375 23.78125 62.296875 
Q 29.296875 67.234375 31.59375 71.875 
L 37.25 71.875 
z
" id="ArialMT-49"/>
       </defs>
       <use xlink:href="#ArialMT-49"/>
       <use x="55.615234" xlink:href="#ArialMT-46"/>
       <use x="83.398438" xlink:href="#ArialMT-48"/>
       <use x="139.013672" xlink:href="#ArialMT-48"/>
      </g>
     </g>
    </g>
    <g id="xtick_6">
     <g id="line2d_6">
      <path clip-path="url(#pfd2f9d19e9)" d="M 466.673105 504 
L 466.673105 69.12 
" style="fill:none;stroke:#ffffff;stroke-linecap:round;"/>
     </g>
     <g id="text_6">
      <!-- 1.25 -->
      <g style="fill:#262626;" transform="translate(442.346933 531.394531)scale(0.25 -0.25)">
       <use xlink:href="#ArialMT-49"/>
       <use x="55.615234" xlink:href="#ArialMT-46"/>
       <use x="83.398438" xlink:href="#ArialMT-50"/>
       <use x="139.013672" xlink:href="#ArialMT-53"/>
      </g>
     </g>
    </g>
    <g id="text_7">
     <!-- Episodes -->
     <g style="fill:#262626;" transform="translate(241.723281 558.973594)scale(0.26 -0.26)">
      <defs>
       <path d="M 7.90625 0 
L 7.90625 71.578125 
L 59.671875 71.578125 
L 59.671875 63.140625 
L 17.390625 63.140625 
L 17.390625 41.21875 
L 56.984375 41.21875 
L 56.984375 32.8125 
L 17.390625 32.8125 
L 17.390625 8.453125 
L 61.328125 8.453125 
L 61.328125 0 
z
" id="ArialMT-69"/>
       <path d="M 6.59375 -19.875 
L 6.59375 51.859375 
L 14.59375 51.859375 
L 14.59375 45.125 
Q 17.4375 49.078125 21 51.046875 
Q 24.5625 53.03125 29.640625 53.03125 
Q 36.28125 53.03125 41.359375 49.609375 
Q 46.4375 46.1875 49.015625 39.953125 
Q 51.609375 33.734375 51.609375 26.3125 
Q 51.609375 18.359375 48.75 11.984375 
Q 45.90625 5.609375 40.453125 2.21875 
Q 35.015625 -1.171875 29 -1.171875 
Q 24.609375 -1.171875 21.109375 0.6875 
Q 17.625 2.546875 15.375 5.375 
L 15.375 -19.875 
z
M 14.546875 25.640625 
Q 14.546875 15.625 18.59375 10.84375 
Q 22.65625 6.0625 28.421875 6.0625 
Q 34.28125 6.0625 38.453125 11.015625 
Q 42.625 15.96875 42.625 26.375 
Q 42.625 36.28125 38.546875 41.203125 
Q 34.46875 46.140625 28.8125 46.140625 
Q 23.1875 46.140625 18.859375 40.890625 
Q 14.546875 35.640625 14.546875 25.640625 
z
" id="ArialMT-112"/>
       <path d="M 6.640625 61.46875 
L 6.640625 71.578125 
L 15.4375 71.578125 
L 15.4375 61.46875 
z
M 6.640625 0 
L 6.640625 51.859375 
L 15.4375 51.859375 
L 15.4375 0 
z
" id="ArialMT-105"/>
       <path d="M 3.078125 15.484375 
L 11.765625 16.84375 
Q 12.5 11.625 15.84375 8.84375 
Q 19.1875 6.0625 25.203125 6.0625 
Q 31.25 6.0625 34.171875 8.515625 
Q 37.109375 10.984375 37.109375 14.3125 
Q 37.109375 17.28125 34.515625 19 
Q 32.71875 20.171875 25.53125 21.96875 
Q 15.875 24.421875 12.140625 26.203125 
Q 8.40625 27.984375 6.46875 31.125 
Q 4.546875 34.28125 4.546875 38.09375 
Q 4.546875 41.546875 6.125 44.5 
Q 7.71875 47.46875 10.453125 49.421875 
Q 12.5 50.921875 16.03125 51.96875 
Q 19.578125 53.03125 23.640625 53.03125 
Q 29.734375 53.03125 34.34375 51.265625 
Q 38.96875 49.515625 41.15625 46.5 
Q 43.359375 43.5 44.1875 38.484375 
L 35.59375 37.3125 
Q 35.015625 41.3125 32.203125 43.546875 
Q 29.390625 45.796875 24.265625 45.796875 
Q 18.21875 45.796875 15.625 43.796875 
Q 13.03125 41.796875 13.03125 39.109375 
Q 13.03125 37.40625 14.109375 36.03125 
Q 15.1875 34.625 17.484375 33.6875 
Q 18.796875 33.203125 25.25 31.453125 
Q 34.578125 28.953125 38.25 27.359375 
Q 41.9375 25.78125 44.03125 22.75 
Q 46.140625 19.734375 46.140625 15.234375 
Q 46.140625 10.84375 43.578125 6.953125 
Q 41.015625 3.078125 36.171875 0.953125 
Q 31.34375 -1.171875 25.25 -1.171875 
Q 15.140625 -1.171875 9.84375 3.03125 
Q 4.546875 7.234375 3.078125 15.484375 
z
" id="ArialMT-115"/>
       <path d="M 3.328125 25.921875 
Q 3.328125 40.328125 11.328125 47.265625 
Q 18.015625 53.03125 27.640625 53.03125 
Q 38.328125 53.03125 45.109375 46.015625 
Q 51.90625 39.015625 51.90625 26.65625 
Q 51.90625 16.65625 48.90625 10.90625 
Q 45.90625 5.171875 40.15625 2 
Q 34.421875 -1.171875 27.640625 -1.171875 
Q 16.75 -1.171875 10.03125 5.8125 
Q 3.328125 12.796875 3.328125 25.921875 
z
M 12.359375 25.921875 
Q 12.359375 15.96875 16.703125 11.015625 
Q 21.046875 6.0625 27.640625 6.0625 
Q 34.1875 6.0625 38.53125 11.03125 
Q 42.875 16.015625 42.875 26.21875 
Q 42.875 35.84375 38.5 40.796875 
Q 34.125 45.75 27.640625 45.75 
Q 21.046875 45.75 16.703125 40.8125 
Q 12.359375 35.890625 12.359375 25.921875 
z
" id="ArialMT-111"/>
       <path d="M 40.234375 0 
L 40.234375 6.546875 
Q 35.296875 -1.171875 25.734375 -1.171875 
Q 19.53125 -1.171875 14.328125 2.25 
Q 9.125 5.671875 6.265625 11.796875 
Q 3.421875 17.921875 3.421875 25.875 
Q 3.421875 33.640625 6 39.96875 
Q 8.59375 46.296875 13.765625 49.65625 
Q 18.953125 53.03125 25.34375 53.03125 
Q 30.03125 53.03125 33.6875 51.046875 
Q 37.359375 49.078125 39.65625 45.90625 
L 39.65625 71.578125 
L 48.390625 71.578125 
L 48.390625 0 
z
M 12.453125 25.875 
Q 12.453125 15.921875 16.640625 10.984375 
Q 20.84375 6.0625 26.5625 6.0625 
Q 32.328125 6.0625 36.34375 10.765625 
Q 40.375 15.484375 40.375 25.140625 
Q 40.375 35.796875 36.265625 40.765625 
Q 32.171875 45.75 26.171875 45.75 
Q 20.3125 45.75 16.375 40.96875 
Q 12.453125 36.1875 12.453125 25.875 
z
" id="ArialMT-100"/>
       <path d="M 42.09375 16.703125 
L 51.171875 15.578125 
Q 49.03125 7.625 43.21875 3.21875 
Q 37.40625 -1.171875 28.375 -1.171875 
Q 17 -1.171875 10.328125 5.828125 
Q 3.65625 12.84375 3.65625 25.484375 
Q 3.65625 38.578125 10.390625 45.796875 
Q 17.140625 53.03125 27.875 53.03125 
Q 38.28125 53.03125 44.875 45.953125 
Q 51.46875 38.875 51.46875 26.03125 
Q 51.46875 25.25 51.421875 23.6875 
L 12.75 23.6875 
Q 13.234375 15.140625 17.578125 10.59375 
Q 21.921875 6.0625 28.421875 6.0625 
Q 33.25 6.0625 36.671875 8.59375 
Q 40.09375 11.140625 42.09375 16.703125 
z
M 13.234375 30.90625 
L 42.1875 30.90625 
Q 41.609375 37.453125 38.875 40.71875 
Q 34.671875 45.796875 27.984375 45.796875 
Q 21.921875 45.796875 17.796875 41.75 
Q 13.671875 37.703125 13.234375 30.90625 
z
" id="ArialMT-101"/>
      </defs>
      <use xlink:href="#ArialMT-69"/>
      <use x="66.699219" xlink:href="#ArialMT-112"/>
      <use x="122.314453" xlink:href="#ArialMT-105"/>
      <use x="144.53125" xlink:href="#ArialMT-115"/>
      <use x="194.53125" xlink:href="#ArialMT-111"/>
      <use x="250.146484" xlink:href="#ArialMT-100"/>
      <use x="305.761719" xlink:href="#ArialMT-101"/>
      <use x="361.376953" xlink:href="#ArialMT-115"/>
     </g>
    </g>
    <g id="text_8">
     <!-- 1e5 -->
     <g style="fill:#262626;" transform="translate(481.697812 555.110469)scale(0.22 -0.22)">
      <use xlink:href="#ArialMT-49"/>
      <use x="55.615234" xlink:href="#ArialMT-101"/>
      <use x="111.230469" xlink:href="#ArialMT-53"/>
     </g>
    </g>
   </g>
   <g id="matplotlib.axis_2">
    <g id="ytick_1">
     <g id="line2d_7">
      <path clip-path="url(#pfd2f9d19e9)" d="M 72 504 
L 518.4 504 
" style="fill:none;stroke:#ffffff;stroke-linecap:round;"/>
     </g>
     <g id="text_9">
      <!-- −15.00 -->
      <g style="fill:#262626;" transform="translate(-14.65625 512.947266)scale(0.25 -0.25)">
       <defs>
        <path d="M 52.828125 31.203125 
L 5.5625 31.203125 
L 5.5625 39.40625 
L 52.828125 39.40625 
z
" id="ArialMT-8722"/>
       </defs>
       <use xlink:href="#ArialMT-8722"/>
       <use x="58.398438" xlink:href="#ArialMT-49"/>
       <use x="114.013672" xlink:href="#ArialMT-53"/>
       <use x="169.628906" xlink:href="#ArialMT-46"/>
       <use x="197.412109" xlink:href="#ArialMT-48"/>
       <use x="253.027344" xlink:href="#ArialMT-48"/>
      </g>
     </g>
    </g>
    <g id="ytick_2">
     <g id="line2d_8">
      <path clip-path="url(#pfd2f9d19e9)" d="M 72 417.45708 
L 518.4 417.45708 
" style="fill:none;stroke:#ffffff;stroke-linecap:round;"/>
     </g>
     <g id="text_10">
      <!-- −10.00 -->
      <g style="fill:#262626;" transform="translate(-14.65625 426.404345)scale(0.25 -0.25)">
       <use xlink:href="#ArialMT-8722"/>
       <use x="58.398438" xlink:href="#ArialMT-49"/>
       <use x="114.013672" xlink:href="#ArialMT-48"/>
       <use x="169.628906" xlink:href="#ArialMT-46"/>
       <use x="197.412109" xlink:href="#ArialMT-48"/>
       <use x="253.027344" xlink:href="#ArialMT-48"/>
      </g>
     </g>
    </g>
    <g id="ytick_3">
     <g id="line2d_9">
      <path clip-path="url(#pfd2f9d19e9)" d="M 72 330.914159 
L 518.4 330.914159 
" style="fill:none;stroke:#ffffff;stroke-linecap:round;"/>
     </g>
     <g id="text_11">
      <!-- −5.00 -->
      <g style="fill:#262626;" transform="translate(-0.753906 339.861425)scale(0.25 -0.25)">
       <use xlink:href="#ArialMT-8722"/>
       <use x="58.398438" xlink:href="#ArialMT-53"/>
       <use x="114.013672" xlink:href="#ArialMT-46"/>
       <use x="141.796875" xlink:href="#ArialMT-48"/>
       <use x="197.412109" xlink:href="#ArialMT-48"/>
      </g>
     </g>
    </g>
    <g id="ytick_4">
     <g id="line2d_10">
      <path clip-path="url(#pfd2f9d19e9)" d="M 72 244.371239 
L 518.4 244.371239 
" style="fill:none;stroke:#ffffff;stroke-linecap:round;"/>
     </g>
     <g id="text_12">
      <!-- 0.00 -->
      <g style="fill:#262626;" transform="translate(13.847656 253.318504)scale(0.25 -0.25)">
       <use xlink:href="#ArialMT-48"/>
       <use x="55.615234" xlink:href="#ArialMT-46"/>
       <use x="83.398438" xlink:href="#ArialMT-48"/>
       <use x="139.013672" xlink:href="#ArialMT-48"/>
      </g>
     </g>
    </g>
    <g id="ytick_5">
     <g id="line2d_11">
      <path clip-path="url(#pfd2f9d19e9)" d="M 72 157.828318 
L 518.4 157.828318 
" style="fill:none;stroke:#ffffff;stroke-linecap:round;"/>
     </g>
     <g id="text_13">
      <!-- 5.00 -->
      <g style="fill:#262626;" transform="translate(13.847656 166.775584)scale(0.25 -0.25)">
       <use xlink:href="#ArialMT-53"/>
       <use x="55.615234" xlink:href="#ArialMT-46"/>
       <use x="83.398438" xlink:href="#ArialMT-48"/>
       <use x="139.013672" xlink:href="#ArialMT-48"/>
      </g>
     </g>
    </g>
    <g id="ytick_6">
     <g id="line2d_12">
      <path clip-path="url(#pfd2f9d19e9)" d="M 72 90.020297 
L 518.4 90.020297 
" style="fill:none;stroke:#ffffff;stroke-linecap:round;"/>
     </g>
     <g id="text_14">
      <!-- 8.92 -->
      <g style="fill:#262626;" transform="translate(13.847656 98.967563)scale(0.25 -0.25)">
       <defs>
        <path d="M 17.671875 38.8125 
Q 12.203125 40.828125 9.5625 44.53125 
Q 6.9375 48.25 6.9375 53.421875 
Q 6.9375 61.234375 12.546875 66.546875 
Q 18.171875 71.875 27.484375 71.875 
Q 36.859375 71.875 42.578125 66.421875 
Q 48.296875 60.984375 48.296875 53.171875 
Q 48.296875 48.1875 45.671875 44.5 
Q 43.0625 40.828125 37.75 38.8125 
Q 44.34375 36.671875 47.78125 31.875 
Q 51.21875 27.09375 51.21875 20.453125 
Q 51.21875 11.28125 44.71875 5.03125 
Q 38.234375 -1.21875 27.640625 -1.21875 
Q 17.046875 -1.21875 10.546875 5.046875 
Q 4.046875 11.328125 4.046875 20.703125 
Q 4.046875 27.6875 7.59375 32.390625 
Q 11.140625 37.109375 17.671875 38.8125 
z
M 15.921875 53.71875 
Q 15.921875 48.640625 19.1875 45.40625 
Q 22.46875 42.1875 27.6875 42.1875 
Q 32.765625 42.1875 36.015625 45.375 
Q 39.265625 48.578125 39.265625 53.21875 
Q 39.265625 58.0625 35.90625 61.359375 
Q 32.5625 64.65625 27.59375 64.65625 
Q 22.5625 64.65625 19.234375 61.421875 
Q 15.921875 58.203125 15.921875 53.71875 
z
M 13.09375 20.65625 
Q 13.09375 16.890625 14.875 13.375 
Q 16.65625 9.859375 20.171875 7.921875 
Q 23.6875 6 27.734375 6 
Q 34.03125 6 38.125 10.046875 
Q 42.234375 14.109375 42.234375 20.359375 
Q 42.234375 26.703125 38.015625 30.859375 
Q 33.796875 35.015625 27.4375 35.015625 
Q 21.234375 35.015625 17.15625 30.90625 
Q 13.09375 26.8125 13.09375 20.65625 
z
" id="ArialMT-56"/>
        <path d="M 5.46875 16.546875 
L 13.921875 17.328125 
Q 14.984375 11.375 18.015625 8.6875 
Q 21.046875 6 25.78125 6 
Q 29.828125 6 32.875 7.859375 
Q 35.9375 9.71875 37.890625 12.8125 
Q 39.84375 15.921875 41.15625 21.1875 
Q 42.484375 26.46875 42.484375 31.9375 
Q 42.484375 32.515625 42.4375 33.6875 
Q 39.796875 29.5 35.234375 26.875 
Q 30.671875 24.265625 25.34375 24.265625 
Q 16.453125 24.265625 10.296875 30.703125 
Q 4.15625 37.15625 4.15625 47.703125 
Q 4.15625 58.59375 10.578125 65.234375 
Q 17 71.875 26.65625 71.875 
Q 33.640625 71.875 39.421875 68.109375 
Q 45.21875 64.359375 48.21875 57.390625 
Q 51.21875 50.4375 51.21875 37.25 
Q 51.21875 23.53125 48.234375 15.40625 
Q 45.265625 7.28125 39.375 3.03125 
Q 33.5 -1.21875 25.59375 -1.21875 
Q 17.1875 -1.21875 11.859375 3.4375 
Q 6.546875 8.109375 5.46875 16.546875 
z
M 41.453125 48.140625 
Q 41.453125 55.71875 37.421875 60.15625 
Q 33.40625 64.59375 27.734375 64.59375 
Q 21.875 64.59375 17.53125 59.8125 
Q 13.1875 55.03125 13.1875 47.40625 
Q 13.1875 40.578125 17.3125 36.296875 
Q 21.4375 32.03125 27.484375 32.03125 
Q 33.59375 32.03125 37.515625 36.296875 
Q 41.453125 40.578125 41.453125 48.140625 
z
" id="ArialMT-57"/>
       </defs>
       <use xlink:href="#ArialMT-56"/>
       <use x="55.615234" xlink:href="#ArialMT-46"/>
       <use x="83.398438" xlink:href="#ArialMT-57"/>
       <use x="139.013672" xlink:href="#ArialMT-50"/>
      </g>
     </g>
    </g>
    <g id="text_15">
     <!-- avg reward -->
     <g style="fill:#262626;" transform="translate(-24.128438 350.863281)rotate(-90)scale(0.26 -0.26)">
      <defs>
       <path d="M 40.4375 6.390625 
Q 35.546875 2.25 31.03125 0.53125 
Q 26.515625 -1.171875 21.34375 -1.171875 
Q 12.796875 -1.171875 8.203125 3 
Q 3.609375 7.171875 3.609375 13.671875 
Q 3.609375 17.484375 5.34375 20.625 
Q 7.078125 23.78125 9.890625 25.6875 
Q 12.703125 27.59375 16.21875 28.5625 
Q 18.796875 29.25 24.03125 29.890625 
Q 34.671875 31.15625 39.703125 32.90625 
Q 39.75 34.71875 39.75 35.203125 
Q 39.75 40.578125 37.25 42.78125 
Q 33.890625 45.75 27.25 45.75 
Q 21.046875 45.75 18.09375 43.578125 
Q 15.140625 41.40625 13.71875 35.890625 
L 5.125 37.0625 
Q 6.296875 42.578125 8.984375 45.96875 
Q 11.671875 49.359375 16.75 51.1875 
Q 21.828125 53.03125 28.515625 53.03125 
Q 35.15625 53.03125 39.296875 51.46875 
Q 43.453125 49.90625 45.40625 47.53125 
Q 47.359375 45.171875 48.140625 41.546875 
Q 48.578125 39.3125 48.578125 33.453125 
L 48.578125 21.734375 
Q 48.578125 9.46875 49.140625 6.21875 
Q 49.703125 2.984375 51.375 0 
L 42.1875 0 
Q 40.828125 2.734375 40.4375 6.390625 
z
M 39.703125 26.03125 
Q 34.90625 24.078125 25.34375 22.703125 
Q 19.921875 21.921875 17.671875 20.9375 
Q 15.4375 19.96875 14.203125 18.09375 
Q 12.984375 16.21875 12.984375 13.921875 
Q 12.984375 10.40625 15.640625 8.0625 
Q 18.3125 5.71875 23.4375 5.71875 
Q 28.515625 5.71875 32.46875 7.9375 
Q 36.421875 10.15625 38.28125 14.015625 
Q 39.703125 17 39.703125 22.796875 
z
" id="ArialMT-97"/>
       <path d="M 21 0 
L 1.265625 51.859375 
L 10.546875 51.859375 
L 21.6875 20.796875 
Q 23.484375 15.765625 25 10.359375 
Q 26.171875 14.453125 28.265625 20.21875 
L 39.796875 51.859375 
L 48.828125 51.859375 
L 29.203125 0 
z
" id="ArialMT-118"/>
       <path d="M 4.984375 -4.296875 
L 13.53125 -5.5625 
Q 14.0625 -9.515625 16.5 -11.328125 
Q 19.78125 -13.765625 25.4375 -13.765625 
Q 31.546875 -13.765625 34.859375 -11.328125 
Q 38.1875 -8.890625 39.359375 -4.5 
Q 40.046875 -1.8125 39.984375 6.78125 
Q 34.234375 0 25.640625 0 
Q 14.9375 0 9.078125 7.71875 
Q 3.21875 15.4375 3.21875 26.21875 
Q 3.21875 33.640625 5.90625 39.90625 
Q 8.59375 46.1875 13.6875 49.609375 
Q 18.796875 53.03125 25.6875 53.03125 
Q 34.859375 53.03125 40.828125 45.609375 
L 40.828125 51.859375 
L 48.921875 51.859375 
L 48.921875 7.03125 
Q 48.921875 -5.078125 46.453125 -10.125 
Q 44 -15.1875 38.640625 -18.109375 
Q 33.296875 -21.046875 25.484375 -21.046875 
Q 16.21875 -21.046875 10.5 -16.875 
Q 4.78125 -12.703125 4.984375 -4.296875 
z
M 12.25 26.859375 
Q 12.25 16.65625 16.296875 11.96875 
Q 20.359375 7.28125 26.46875 7.28125 
Q 32.515625 7.28125 36.609375 11.9375 
Q 40.71875 16.609375 40.71875 26.5625 
Q 40.71875 36.078125 36.5 40.90625 
Q 32.28125 45.75 26.3125 45.75 
Q 20.453125 45.75 16.34375 40.984375 
Q 12.25 36.234375 12.25 26.859375 
z
" id="ArialMT-103"/>
       <path id="ArialMT-32"/>
       <path d="M 6.5 0 
L 6.5 51.859375 
L 14.40625 51.859375 
L 14.40625 44 
Q 17.4375 49.515625 20 51.265625 
Q 22.5625 53.03125 25.640625 53.03125 
Q 30.078125 53.03125 34.671875 50.203125 
L 31.640625 42.046875 
Q 28.421875 43.953125 25.203125 43.953125 
Q 22.3125 43.953125 20.015625 42.21875 
Q 17.71875 40.484375 16.75 37.40625 
Q 15.28125 32.71875 15.28125 27.15625 
L 15.28125 0 
z
" id="ArialMT-114"/>
       <path d="M 16.15625 0 
L 0.296875 51.859375 
L 9.375 51.859375 
L 17.625 21.921875 
L 20.703125 10.796875 
Q 20.90625 11.625 23.390625 21.484375 
L 31.640625 51.859375 
L 40.671875 51.859375 
L 48.4375 21.78125 
L 51.03125 11.859375 
L 54 21.875 
L 62.890625 51.859375 
L 71.4375 51.859375 
L 55.21875 0 
L 46.09375 0 
L 37.84375 31.0625 
L 35.84375 39.890625 
L 25.34375 0 
z
" id="ArialMT-119"/>
      </defs>
      <use xlink:href="#ArialMT-97"/>
      <use x="55.615234" xlink:href="#ArialMT-118"/>
      <use x="105.615234" xlink:href="#ArialMT-103"/>
      <use x="161.230469" xlink:href="#ArialMT-32"/>
      <use x="189.013672" xlink:href="#ArialMT-114"/>
      <use x="222.314453" xlink:href="#ArialMT-101"/>
      <use x="277.929688" xlink:href="#ArialMT-119"/>
      <use x="350.146484" xlink:href="#ArialMT-97"/>
      <use x="405.761719" xlink:href="#ArialMT-114"/>
      <use x="439.0625" xlink:href="#ArialMT-100"/>
     </g>
    </g>
   </g>
   <g id="line2d_13">
    <path clip-path="url(#pfd2f9d19e9)" d="M 92.290909 469.402475 
L 93.010817 305.08214 
L 93.100806 361.879085 
L 93.430764 414.872832 
L 93.880706 126.758823 
L 93.970695 216.785365 
L 94.570618 176.132569 
L 96.400384 322.757306 
L 96.490373 371.293248 
L 96.760338 228.503174 
L 98.620101 150.12876 
L 98.770082 319.563605 
L 99.400001 438.351145 
L 99.549982 168.026924 
L 99.759955 331.620896 
L 99.939932 358.943417 
L 100.989798 253.396124 
L 101.049791 345.573187 
L 101.28976 254.525137 
L 102.159649 267.000269 
L 102.759572 299.321474 
L 104.379366 348.43195 
L 104.409362 151.831498 
L 105.009285 208.443249 
L 105.099274 189.366684 
L 105.549216 320.831389 
L 105.969163 192.652077 
L 107.828925 201.99619 
L 108.638822 275.630797 
L 109.11876 266.410256 
L 109.328734 298.404198 
L 109.35873 252.549421 
L 110.348603 176.684637 
L 110.76855 326.881023 
L 111.008519 284.629461 
L 111.068511 149.628696 
L 111.1585 427.102734 
L 111.218492 292.614343 
L 111.578446 340.507727 
L 111.878408 288.13975 
L 113.168243 301.372739 
L 113.408213 165.690055 
L 113.648182 258.390926 
L 114.308098 170.454077 
L 114.428082 277.494463 
L 114.698048 335.746049 
L 114.818033 137.177472 
L 114.878025 256.333388 
L 115.297971 184.032577 
L 115.357964 112.363309 
L 115.567937 208.031946 
L 115.807906 278.982409 
L 115.987883 292.12774 
L 116.017879 378.701165 
L 116.827776 248.122946 
L 118.957504 194.585236 
L 119.017496 161.845476 
L 120.00737 112.812111 
L 120.097359 180.084591 
L 120.607293 339.342069 
L 120.877259 288.546328 
L 120.907255 213.118041 
L 121.087232 107.981534 
L 121.117228 111.107219 
L 121.267209 242.196293 
L 121.80714 209.422244 
L 121.897129 233.264036 
L 122.167094 197.011077 
L 123.636907 230.108781 
L 123.726895 353.21994 
L 123.906872 214.300313 
L 124.086849 193.422855 
L 124.23683 277.510035 
L 124.536792 190.384969 
L 124.716769 230.283941 
L 124.86675 229.867288 
L 126.42655 258.217046 
L 126.576531 370.851148 
L 126.606527 132.129352 
L 127.146458 374.742978 
L 127.536409 192.212816 
L 127.926359 374.816532 
L 129.066213 188.023328 
L 129.576148 171.976932 
L 130.176072 323.23313 
L 130.356049 183.845972 
L 130.566022 146.128283 
L 131.225938 160.179276 
L 131.315926 323.249942 
L 131.645884 286.939891 
L 131.735872 95.315581 
L 131.825861 298.831677 
L 131.855857 286.759018 
L 133.295673 112.261355 
L 133.47565 156.57676 
L 133.505646 102.670808 
L 134.165562 138.221086 
L 134.525516 204.837873 
L 134.825478 338.325542 
L 135.725363 150.589497 
L 136.055321 211.722571 
L 136.29529 322.93194 
L 136.475267 244.625161 
L 137.435145 112.489618 
L 137.555129 300.74325 
L 138.305034 215.715843 
L 138.784972 254.30682 
L 138.814969 211.965348 
L 139.264911 461.408882 
L 139.384896 164.614508 
L 139.894831 112.202393 
L 140.944697 301.338995 
L 141.184666 211.48481 
L 141.784589 99.891731 
L 142.204536 188.933795 
L 142.474501 99.246581 
L 142.654478 193.587329 
L 142.714471 106.554946 
L 142.804459 210.855867 
L 143.014432 242.868886 
L 143.284398 179.744469 
L 143.704344 242.392992 
L 143.854325 356.009209 
L 144.124291 147.03041 
L 144.99418 270.780571 
L 145.174157 177.654966 
L 145.894065 112.85044 
L 146.523984 198.490944 
L 147.063915 180.750886 
L 147.333881 236.855446 
L 147.723831 102.295742 
L 147.813819 281.529031 
L 148.053789 170.532121 
L 149.253636 158.888035 
L 149.763571 328.367464 
L 150.063532 233.895209 
L 150.153521 115.333171 
L 150.753444 140.927855 
L 151.233383 316.410939 
L 151.773314 253.843822 
L 151.893299 101.833932 
L 152.133268 328.212887 
L 152.643203 163.057418 
L 152.82318 242.849561 
L 153.543088 99.224495 
L 153.933038 215.744907 
L 154.023027 111.122207 
L 154.053023 199.997928 
L 154.292992 264.354915 
L 154.412977 422.584935 
L 154.62295 142.375324 
L 155.072893 257.052364 
L 156.092762 196.127862 
L 156.212747 140.098119 
L 156.42272 173.854031 
L 156.692686 172.391499 
L 157.352601 184.104447 
L 157.472586 151.249222 
L 157.712556 283.180936 
L 157.952525 142.408098 
L 158.07251 158.540717 
L 158.672433 278.616908 
L 158.822414 96.383584 
L 158.85241 208.587262 
L 158.912402 196.008741 
L 159.002391 285.372348 
L 159.362345 105.32927 
L 159.602314 189.180434 
L 160.172241 246.966673 
L 160.65218 164.706244 
L 161.312096 258.554256 
L 162.091996 197.920281 
L 162.361962 247.661462 
L 163.411828 192.738787 
L 163.441824 288.884246 
L 163.501816 146.079555 
L 164.821648 272.682508 
L 165.061617 173.897055 
L 165.331583 158.380667 
L 165.391575 279.600205 
L 166.29146 105.687731 
L 166.321456 114.245788 
L 166.621418 147.016751 
L 166.68141 278.611065 
L 166.831391 165.634535 
L 167.251338 205.37244 
L 167.70128 314.455788 
L 168.151223 219.216888 
L 168.3312 105.455778 
L 169.081104 106.463102 
L 169.74102 156.659244 
L 169.920997 99.392633 
L 170.430932 117.155632 
L 170.610909 127.301532 
L 171.390809 105.835862 
L 172.080721 149.638493 
L 172.290694 326.676851 
L 172.440675 352.824826 
L 172.830625 301.88713 
L 173.040598 109.27374 
L 173.490541 189.589616 
L 173.940483 158.419854 
L 174.36043 174.779713 
L 175.410296 141.629582 
L 175.470288 254.374913 
L 177.899978 263.445461 
L 178.169943 164.926568 
L 178.439909 199.526016 
L 178.619886 100.539869 
L 179.339794 297.013999 
L 180.989583 205.806534 
L 182.069445 105.324054 
L 182.549384 144.790072 
L 182.639373 230.189759 
L 182.879342 312.965055 
L 182.969331 235.88824 
L 183.689239 219.900377 
L 183.809223 225.170271 
L 184.709108 224.261271 
L 185.39902 175.587017 
L 185.848963 164.759355 
L 186.568871 189.019881 
L 187.04881 183.127817 
L 187.588741 178.698771 
L 187.618737 139.765681 
L 188.638607 114.307507 
L 188.938568 257.44165 
L 189.118545 108.242076 
L 189.148542 332.639115 
L 189.898446 177.884827 
L 190.888319 190.281563 
L 191.578231 108.588949 
L 192.088166 100.197965 
L 193.018047 352.241774 
L 193.827944 252.622384 
L 193.977925 106.754843 
L 194.637841 142.413645 
L 195.207768 143.370558 
L 195.26776 227.739223 
L 195.65771 195.006476 
L 196.137649 144.431645 
L 197.007538 126.89814 
L 197.097527 188.450989 
L 197.847431 153.535704 
L 198.627331 215.259409 
L 199.137266 182.444528 
L 199.737189 159.530932 
L 200.277121 198.500931 
L 200.337113 177.994386 
L 200.397105 223.49753 
L 200.577082 166.908889 
L 201.416975 108.004602 
L 201.836921 151.91229 
L 203.516707 141.947073 
L 203.636692 185.888291 
L 203.876661 170.866573 
L 203.966649 273.312828 
L 204.896531 179.706087 
L 205.52645 160.672968 
L 205.676431 308.831042 
L 206.15637 214.417195 
L 206.366343 110.657575 
L 206.666305 170.257696 
L 206.786289 164.08328 
L 207.656178 140.583706 
L 208.016132 143.113646 
L 209.575933 182.632078 
L 209.785906 263.80928 
L 210.415826 99.322067 
L 210.595803 96.443801 
L 211.255719 226.177278 
L 212.005623 321.799816 
L 212.035619 158.253598 
L 212.395573 199.351767 
L 212.725531 190.640036 
L 212.81552 315.112542 
L 214.525301 115.090728 
L 214.675282 148.972966 
L 214.705278 100.020022 
L 215.00524 99.896337 
L 217.524918 193.563893 
L 217.614907 270.139822 
L 217.764888 227.767103 
L 217.794884 319.039986 
L 218.544788 261.180358 
L 219.024727 199.021426 
L 219.62465 172.239604 
L 219.714639 191.322738 
L 219.744635 173.747232 
L 220.194577 191.332638 
L 220.674516 368.884831 
L 220.854493 149.256766 
L 221.244443 210.696484 
L 221.304436 331.530282 
L 222.024344 104.002243 
L 222.804244 214.54601 
L 223.524152 101.70617 
L 223.734125 285.895249 
L 223.914102 158.607817 
L 224.034087 197.315634 
L 224.63401 446.315075 
L 224.723999 268.334842 
L 225.983838 251.467707 
L 226.493773 223.802928 
L 227.003708 99.743534 
L 227.033704 196.29621 
L 227.633627 147.429807 
L 227.723616 101.515121 
L 227.993581 150.600614 
L 228.323539 313.914697 
L 229.163432 162.52784 
L 229.583378 250.353154 
L 229.643371 170.002139 
L 229.703363 195.189367 
L 230.573252 102.351138 
L 231.413145 169.499855 
L 231.653114 208.654799 
L 231.773099 152.328599 
L 232.013068 213.133642 
L 232.343026 233.712569 
L 233.122927 298.956286 
L 233.272907 293.977924 
L 233.752846 235.784984 
L 234.232785 240.909381 
L 234.472754 162.230653 
L 235.012685 235.908501 
L 235.552616 104.571709 
L 235.732593 109.102755 
L 235.792586 242.459242 
L 235.882574 230.371001 
L 236.93244 114.263137 
L 237.292394 257.140643 
L 237.862321 96.173536 
L 238.552233 96.798217 
L 239.152157 292.439045 
L 239.872065 136.637404 
L 240.352003 284.808651 
L 240.591973 141.440184 
L 240.861938 143.309631 
L 240.951927 210.814629 
L 241.011919 103.045643 
L 242.541724 309.462397 
L 242.631712 189.945097 
L 243.231636 273.282394 
L 243.291628 197.174654 
L 243.321624 251.241115 
L 243.531597 193.248329 
L 244.071529 165.588555 
L 244.911421 106.421943 
L 245.571337 198.650218 
L 245.751314 112.228143 
L 246.531214 192.785922 
L 246.681195 152.441051 
L 247.19113 110.107859 
L 247.731061 287.599204 
L 247.971031 178.589038 
L 248.900912 106.409719 
L 249.710808 191.569997 
L 250.40072 149.362863 
L 251.270609 229.70126 
L 251.600567 180.429396 
L 252.080506 204.69303 
L 252.500452 114.146946 
L 253.130372 186.319059 
L 254.330219 174.506848 
L 254.990134 220.832936 
L 255.140115 116.952293 
L 256.249973 223.79432 
L 256.579931 273.07724 
L 256.759908 160.481391 
L 257.179855 196.969682 
L 257.239847 166.526749 
L 258.199724 148.645843 
L 258.919633 152.86038 
L 259.279587 266.610373 
L 259.339579 145.21404 
L 259.519556 167.485552 
L 259.87951 261.849413 
L 260.629414 308.904972 
L 261.469307 123.135244 
L 261.529299 150.569928 
L 261.649284 138.653869 
L 262.099227 138.144635 
L 263.32907 220.601767 
L 263.419058 107.720273 
L 263.958989 367.512476 
L 264.49892 212.92881 
L 265.008855 180.460293 
L 265.098844 372.5421 
L 265.398805 202.975837 
L 265.938736 305.267239 
L 265.968732 184.066317 
L 266.478667 167.81884 
L 266.568656 138.402603 
L 267.588526 214.918526 
L 267.648518 187.419672 
L 267.858491 148.941784 
L 268.668388 285.850829 
L 268.938353 288.976927 
L 269.568273 292.11047 
L 270.288181 99.088711 
L 270.618139 167.967368 
L 271.428035 231.529076 
L 272.027959 248.537033 
L 272.17794 108.270105 
L 272.627882 222.463597 
L 272.777863 211.146085 
L 273.527767 261.102709 
L 274.067698 160.515824 
L 274.187683 206.133517 
L 274.337664 103.02808 
L 274.877595 217.052647 
L 275.417526 103.914806 
L 275.597503 109.135166 
L 275.657495 155.442581 
L 276.077442 311.650057 
L 276.197426 200.85391 
L 276.887338 384.333261 
L 277.157304 206.748608 
L 277.727231 213.226631 
L 278.057189 231.858539 
L 278.297158 119.105467 
L 278.687109 253.944096 
L 279.22704 186.222561 
L 280.39689 159.24506 
L 281.086802 233.730553 
L 281.206787 166.927723 
L 281.236783 263.602141 
L 281.446756 146.609678 
L 281.956691 194.342104 
L 282.286649 131.961231 
L 282.616607 301.225903 
L 282.82658 191.902596 
L 283.006557 245.842432 
L 283.726465 214.357608 
L 285.376254 238.876089 
L 285.496239 100.320527 
L 285.886189 152.700133 
L 286.576101 189.566069 
L 286.606097 111.097843 
L 286.726082 202.276524 
L 287.326005 318.452189 
L 287.385998 104.39961 
L 287.625967 162.196434 
L 288.225891 113.702543 
L 288.945799 234.681632 
L 289.155772 127.358678 
L 289.24576 186.931398 
L 289.815688 182.888098 
L 291.435481 217.469741 
L 291.705446 407.222349 
L 291.765439 106.856483 
L 291.885423 281.611487 
L 292.0654 179.855316 
L 292.155389 258.993018 
L 292.365362 200.314317 
L 292.605331 189.013803 
L 292.69532 139.83713 
L 293.055274 206.306033 
L 293.86517 122.609644 
L 293.985155 305.656773 
L 294.315113 113.114944 
L 294.645071 223.182332 
L 296.68481 105.535885 
L 297.104757 105.943412 
L 297.764673 158.228805 
L 297.794669 109.841275 
L 298.574569 155.381275 
L 298.994515 109.155543 
L 299.74442 266.995263 
L 300.614309 154.324694 
L 300.704297 208.386833 
L 301.484198 205.757159 
L 302.144113 156.854973 
L 302.894018 143.442651 
L 303.103991 106.425005 
L 303.673918 259.148499 
L 304.453818 213.032373 
L 304.903761 239.228728 
L 305.14373 115.405388 
L 305.173726 308.555714 
L 305.833642 276.769901 
L 305.953627 137.986278 
L 306.373573 170.573355 
L 306.973497 148.624186 
L 307.57342 121.405221 
L 307.843386 136.142804 
L 308.113351 200.731909 
L 308.173343 132.890437 
L 308.20334 237.156876 
L 308.773267 508.026244 
L 308.863255 230.924429 
L 309.133221 114.247621 
L 310.243079 181.340524 
L 310.723018 221.593355 
L 311.052976 103.053748 
L 311.592907 109.896655 
L 311.892869 267.577134 
L 311.922865 147.524119 
L 312.312815 103.706161 
L 312.462796 116.39935 
L 312.492792 206.863619 
L 313.182704 203.870899 
L 313.302689 210.558738 
L 313.752631 155.646522 
L 314.652516 182.725915 
L 314.922482 235.328939 
L 315.01247 351.019895 
L 315.222443 139.248062 
L 315.762374 295.951661 
L 316.062336 142.34255 
L 316.782244 187.972961 
L 317.05221 228.831595 
L 317.622137 206.310102 
L 318.132072 109.21822 
L 319.601884 190.857017 
L 319.991834 170.117273 
L 320.081823 258.870737 
L 321.011704 274.056136 
L 321.0417 251.319933 
L 321.551635 110.027851 
L 321.851597 108.82885 
L 322.001578 261.405707 
L 322.331536 108.786114 
L 322.511513 104.129345 
L 322.721486 238.702512 
L 323.261417 248.838215 
L 323.561379 280.64032 
L 324.10131 102.616138 
L 324.431268 241.41458 
L 324.521256 155.677348 
L 325.121179 262.986914 
L 325.361149 202.492466 
L 325.66111 194.842609 
L 326.021065 243.84771 
L 326.710976 283.383202 
L 326.860957 195.091886 
L 328.690724 194.935691 
L 328.840704 317.628436 
L 329.680597 170.008362 
L 330.970433 105.655823 
L 331.450371 235.516316 
L 331.480367 139.14728 
L 332.500237 197.438585 
L 332.830195 163.421252 
L 333.190149 288.815289 
L 333.280138 204.334949 
L 333.700084 106.319081 
L 335.499854 241.325764 
L 336.219762 310.435656 
L 337.119647 192.602845 
L 337.659578 236.473584 
L 338.169513 292.838653 
L 338.34949 106.579855 
L 339.609329 328.18296 
L 340.089268 100.77679 
L 340.419226 256.840007 
L 340.689192 258.243628 
L 340.929161 195.029833 
L 341.529084 306.539608 
L 341.589077 101.653216 
L 341.739058 263.37395 
L 341.919035 276.201828 
L 342.278989 193.522176 
L 342.518958 193.10879 
L 342.758927 291.655259 
L 342.9689 257.254226 
L 343.028893 261.918789 
L 344.558697 221.212274 
L 345.128625 104.010215 
L 345.728548 234.883382 
L 345.758544 298.68742 
L 345.818537 102.662753 
L 346.238483 110.484593 
L 346.358468 144.693995 
L 346.658429 186.80208 
L 346.80841 156.223499 
L 346.928395 168.748608 
L 346.958391 261.198985 
L 347.408334 178.034572 
L 348.338215 108.599563 
L 348.908142 183.716497 
L 349.058123 162.45526 
L 349.478069 156.642985 
L 349.748035 167.724116 
L 350.197977 126.677849 
L 350.527935 252.678448 
L 350.767905 185.810663 
L 351.03787 207.772303 
L 352.177725 152.486882 
L 352.417694 260.823515 
L 352.44769 160.456292 
L 352.567675 242.91089 
L 353.527552 272.786449 
L 354.937372 184.824942 
L 355.057357 216.089059 
L 355.597288 104.427209 
L 355.747269 184.427138 
L 356.2872 106.055435 
L 356.377188 182.036572 
L 357.007108 243.404601 
L 357.337066 105.048952 
L 358.056974 172.709617 
L 358.266947 287.261649 
L 358.776882 105.4294 
L 358.836874 210.908074 
L 358.926863 170.184349 
L 359.556782 149.839702 
L 359.616775 334.513844 
L 359.766756 136.404353 
L 360.096713 213.84646 
L 360.456667 104.635623 
L 360.966602 99.190987 
L 361.506533 154.904023 
L 361.68651 151.051191 
L 361.836491 152.763056 
L 361.986472 279.855197 
L 362.526403 186.86327 
L 362.556399 259.418745 
L 363.366296 197.090751 
L 363.906227 106.44147 
L 364.236185 174.330671 
L 364.866104 256.259168 
L 365.406036 110.279356 
L 366.365913 251.490863 
L 366.395909 275.547568 
L 366.575886 106.395028 
L 368.135687 314.372619 
L 368.195679 262.109919 
L 368.495641 153.78806 
L 368.705614 198.45895 
L 369.515511 240.683491 
L 370.14543 209.552948 
L 370.445392 254.793282 
L 370.925331 99.630528 
L 370.985323 222.164969 
L 371.195296 235.054698 
L 372.155174 262.473333 
L 372.305155 318.268114 
L 372.785093 195.416743 
L 374.074929 282.379372 
L 374.164917 105.782826 
L 374.764841 166.491012 
L 374.944818 237.087261 
L 374.974814 202.13514 
L 375.754714 327.178004 
L 375.964687 244.875638 
L 377.82445 321.948096 
L 377.854446 103.886943 
L 378.124412 182.803381 
L 378.334385 149.276673 
L 378.424373 111.457179 
L 378.634346 245.401742 
L 378.724335 168.311534 
L 379.384251 107.56903 
L 379.714209 288.507805 
L 380.044166 274.363514 
L 380.344128 187.154375 
L 380.40412 102.049015 
L 380.434117 140.961678 
L 380.524105 177.236016 
L 381.244013 196.526995 
L 381.543975 111.066918 
L 382.113902 107.782982 
L 382.413864 197.256594 
L 382.653833 347.727962 
L 383.013787 288.798048 
L 384.213634 236.579468 
L 384.513596 172.040005 
L 384.753565 195.744167 
L 385.023531 147.435758 
L 386.073397 241.194576 
L 386.913289 104.595958 
L 387.003278 243.002158 
L 388.203125 107.04513 
L 388.923033 108.136648 
L 389.222994 245.444268 
L 390.872784 109.231912 
L 391.262734 261.239493 
L 391.592692 151.569998 
L 392.132623 195.714195 
L 393.212485 237.215105 
L 393.362466 102.900334 
L 393.392462 162.114627 
L 393.452454 271.135357 
L 393.872401 109.317995 
L 394.232355 201.088793 
L 394.532316 107.464806 
L 394.922267 191.488264 
L 395.072247 159.805018 
L 395.102244 112.464314 
L 395.552186 187.670112 
L 395.732163 162.044605 
L 396.032125 188.895136 
L 396.752033 238.156949 
L 397.261968 107.827039 
L 397.921884 287.325802 
L 399.061738 183.993018 
L 399.151727 105.880381 
L 399.391696 189.07565 
L 399.871635 279.760217 
L 399.991619 148.221884 
L 400.1416 190.798108 
L 400.201593 130.925647 
L 400.261585 205.630337 
L 400.351573 186.805612 
L 401.401439 209.592511 
L 401.611413 116.846435 
L 402.091351 114.364282 
L 402.691275 239.373373 
L 403.531167 204.989297 
L 403.59116 103.553424 
L 403.621156 160.011287 
L 403.681148 325.889817 
L 403.861125 121.445134 
L 404.131091 108.094778 
L 404.311068 144.296859 
L 404.461049 197.740064 
L 405.330938 159.73295 
L 405.750884 302.526127 
L 406.080842 202.883845 
L 406.380804 255.743963 
L 406.500788 107.512915 
L 406.530784 193.013694 
L 407.370677 223.067358 
L 407.640643 102.157184 
L 407.880612 243.3295 
L 408.330555 174.774678 
L 408.360551 242.918853 
L 408.720505 126.75028 
L 409.650386 152.418354 
L 409.920352 117.106821 
L 410.310302 280.715434 
L 410.430286 108.741141 
L 410.580267 99.798683 
L 410.850233 292.290625 
L 411.090202 258.018219 
L 411.300175 307.632982 
L 411.330172 166.973051 
L 411.840106 209.02035 
L 412.739992 200.762273 
L 413.039953 282.773401 
L 414.419777 275.062928 
L 414.449773 224.373022 
L 414.62975 109.503687 
L 415.109689 259.863775 
L 415.319662 195.341204 
L 416.159555 189.392715 
L 416.189551 206.711835 
L 416.609497 116.087034 
L 416.939455 183.495719 
L 417.209421 180.502608 
L 417.629367 99.63893 
L 417.959325 204.026388 
L 418.769222 117.803546 
L 418.85921 205.198818 
L 419.129176 150.183133 
L 419.87908 282.417297 
L 419.999065 182.587683 
L 420.26903 151.277399 
L 420.688977 247.865013 
L 420.868954 108.226634 
L 420.928946 266.451547 
L 421.948816 195.28681 
L 422.128793 100.05637 
L 422.30877 197.454176 
L 422.368762 130.290211 
L 422.398758 166.516408 
L 422.69872 177.717362 
L 422.848701 102.22085 
L 423.268647 142.410533 
L 423.538613 110.829931 
L 424.018551 116.605825 
L 424.768456 105.974519 
L 425.338383 197.815158 
L 425.608348 260.956307 
L 426.148279 217.714419 
L 426.688211 107.191256 
L 426.958176 272.828912 
L 427.648088 219.326852 
L 427.70808 247.391469 
L 427.738076 195.85572 
L 429.267881 236.186623 
L 429.597839 139.363791 
L 429.867805 101.579018 
L 430.377739 112.807538 
L 431.007659 104.098444 
L 431.457602 208.820428 
L 431.93754 171.146725 
L 432.537464 288.346184 
L 432.747437 139.152282 
L 433.107391 214.403086 
L 434.037272 106.424419 
L 434.277241 151.015759 
L 434.337234 188.768459 
L 435.357104 135.969813 
L 435.447092 267.046713 
L 435.867038 103.333521 
L 435.927031 106.609988 
L 435.957027 144.460391 
L 436.286985 181.382496 
L 436.466962 99.675608 
L 437.306855 337.47901 
L 437.396843 167.948286 
L 437.426839 213.426092 
L 437.606816 296.710398 
L 437.666809 104.408721 
L 438.176744 103.256137 
L 438.416713 193.587605 
L 438.686678 162.838918 
L 439.136621 189.296464 
L 439.61656 199.813651 
L 440.78641 105.354756 
L 441.206357 242.911066 
L 441.506318 169.226082 
L 441.836276 230.565217 
L 442.046249 292.32212 
L 442.256223 201.113978 
L 442.316215 105.323872 
L 443.396077 356.774405 
L 444.475939 285.906036 
L 444.775901 146.011349 
L 445.285836 309.005845 
L 445.465813 106.273085 
L 445.735778 232.956333 
L 446.635663 108.54793 
L 447.325575 166.929035 
L 447.355572 112.500488 
L 447.895503 152.378366 
L 448.735395 181.465282 
L 448.885376 218.647519 
L 449.305323 137.875163 
L 449.695273 197.554372 
L 449.935242 108.166789 
L 450.085223 276.88497 
L 450.175211 255.768431 
L 450.775135 90.020297 
L 450.925116 178.44219 
L 451.345062 202.764951 
L 451.645024 162.171088 
L 452.004978 298.475309 
L 452.45492 360.532332 
L 452.574905 250.837492 
L 452.934859 208.303271 
L 453.984725 174.594276 
L 454.254691 373.814754 
L 454.404671 159.553059 
L 455.694507 196.296722 
L 455.844488 242.388872 
L 456.29443 224.694714 
L 456.624388 151.825217 
L 456.744373 344.866285 
L 457.224311 216.211112 
L 457.614262 144.945549 
L 458.214185 281.570826 
L 458.484151 226.653221 
L 458.72412 102.921001 
L 459.324043 195.917731 
L 459.803982 244.404833 
L 460.403905 277.579793 
L 460.493894 110.835419 
L 460.973833 201.436987 
L 461.393779 143.634401 
L 461.453771 199.493172 
L 461.783729 156.268802 
L 463.583499 137.20451 
L 463.853465 112.109295 
L 463.883461 112.49528 
L 464.783346 214.338173 
L 465.353273 98.126153 
L 465.443262 152.41601 
L 466.103178 278.568038 
L 467.423009 258.978551 
L 468.232906 100.814178 
L 468.292898 246.843591 
L 468.922818 107.718928 
L 471.4125 241.83065 
L 472.312385 107.713093 
L 472.672339 133.906065 
L 474.442113 177.570897 
L 474.922052 135.157037 
L 475.851933 145.58096 
L 476.721822 372.976706 
L 477.621707 121.147212 
L 478.011657 193.641141 
L 478.401607 288.989307 
L 478.581584 294.243258 
L 479.841423 139.805999 
L 479.87142 367.949096 
L 480.0214 103.141284 
L 480.171381 357.656814 
L 480.471343 140.119264 
L 481.371228 97.084593 
L 481.761178 116.509813 
L 482.211121 195.788512 
L 482.721056 165.591922 
L 483.530952 268.842765 
L 483.560949 228.264285 
L 483.800918 126.953974 
L 484.160872 125.202913 
L 484.25086 187.903344 
L 484.520826 99.182089 
L 484.970769 204.545827 
L 485.090753 304.242817 
L 485.150746 136.886425 
L 486.140619 249.418644 
L 486.68055 159.84045 
L 487.130493 284.504456 
L 487.430454 249.386797 
L 487.910393 102.686506 
L 488.030378 166.160539 
L 488.870271 99.578796 
L 489.650171 164.905464 
L 490.640045 177.853551 
L 490.790025 155.853805 
L 491.089987 198.949799 
L 492.169849 195.303874 
L 492.31983 266.922252 
L 493.759646 320.644318 
L 493.879631 120.814213 
L 494.479554 183.159522 
L 495.919371 288.796925 
L 495.949367 113.352946 
L 496.729267 148.373284 
L 496.819256 104.349248 
L 498.079095 196.005007 
L 498.109091 160.776919 
L 498.109091 160.776919 
" style="fill:none;stroke:#4c72b0;stroke-linecap:round;stroke-opacity:0.3;stroke-width:1.5;"/>
   </g>
   <g id="line2d_14">
    <path clip-path="url(#pfd2f9d19e9)" d="M 92.290909 469.402475 
L 93.010817 452.970441 
L 93.100806 443.861306 
L 93.430764 440.962458 
L 93.880706 409.542095 
L 93.970695 390.266422 
L 94.570618 368.853037 
L 96.400384 364.243463 
L 96.490373 364.948442 
L 96.760338 351.303915 
L 98.770082 330.02412 
L 99.400001 340.856823 
L 99.549982 323.573833 
L 99.759955 324.378539 
L 99.939932 327.835027 
L 100.989798 320.391137 
L 101.049791 322.909342 
L 101.28976 316.070921 
L 102.159649 311.163856 
L 102.759572 309.979618 
L 104.379366 313.824851 
L 104.409362 297.625516 
L 105.009285 288.707289 
L 105.099274 278.773228 
L 105.639205 284.226041 
L 105.669201 281.539768 
L 105.969163 272.650999 
L 107.828925 265.585518 
L 108.638822 266.590046 
L 109.11876 266.572067 
L 109.328734 269.75528 
L 109.35873 268.034694 
L 110.348603 258.899688 
L 110.76855 265.697822 
L 111.008519 267.590986 
L 111.068511 255.794757 
L 111.218492 274.894433 
L 111.578446 281.455763 
L 111.878408 282.124161 
L 113.168243 284.049019 
L 113.408213 272.213123 
L 113.648182 270.830903 
L 114.308098 260.79322 
L 114.428082 262.463345 
L 114.698048 269.791615 
L 114.878025 256.51052 
L 115.297971 249.262725 
L 115.357964 235.572784 
L 115.567937 229.011944 
L 115.987883 239.820865 
L 116.017879 253.708895 
L 116.827776 253.1503 
L 118.957504 247.293794 
L 119.017496 238.748962 
L 120.00737 226.155277 
L 120.097359 221.548208 
L 120.877259 238.849468 
L 121.117228 212.212883 
L 121.267209 215.211224 
L 121.80714 214.632326 
L 121.897129 216.495497 
L 122.167094 214.547055 
L 123.636907 216.103228 
L 123.726895 229.814899 
L 123.906872 228.26344 
L 124.086849 224.779382 
L 124.23683 230.052447 
L 124.536792 226.085699 
L 124.86675 226.8417 
L 126.42655 229.979235 
L 126.576531 244.066426 
L 126.606527 232.872719 
L 127.146458 247.059744 
L 127.536409 241.575052 
L 127.926359 254.8992 
L 129.066213 248.211612 
L 129.576148 240.588144 
L 130.176072 248.852643 
L 130.566022 232.729607 
L 131.225938 225.474574 
L 131.315926 235.25211 
L 131.645884 240.420888 
L 131.735872 225.910358 
L 131.855857 238.558142 
L 133.295673 225.928464 
L 133.47565 218.993293 
L 133.505646 207.361045 
L 134.165562 200.447049 
L 134.525516 200.886131 
L 134.825478 214.630072 
L 135.725363 208.226015 
L 136.055321 208.57567 
L 136.29529 220.011297 
L 136.475267 222.472684 
L 137.435145 211.474377 
L 137.555129 220.401264 
L 138.305034 219.932722 
L 138.784972 223.370132 
L 138.814969 222.229654 
L 139.264911 246.147577 
L 139.384896 237.99427 
L 139.894831 225.415082 
L 140.944697 233.007473 
L 141.184666 230.855207 
L 141.784589 217.758859 
L 142.204536 214.876353 
L 142.474501 203.313376 
L 142.654478 202.340771 
L 142.714471 192.762189 
L 142.804459 194.571556 
L 143.014432 199.401289 
L 143.284398 197.435607 
L 143.704344 201.931346 
L 143.854325 224.522741 
L 144.094294 222.382802 
L 144.124291 214.847562 
L 144.99418 220.440863 
L 145.174157 216.162274 
L 145.894065 205.83109 
L 146.523984 205.097076 
L 147.063915 202.662457 
L 147.333881 206.081756 
L 147.723831 195.703154 
L 147.813819 204.285742 
L 148.053789 200.91038 
L 149.253636 196.708145 
L 149.763571 209.874077 
L 150.063532 212.27619 
L 150.153521 202.581888 
L 150.753444 196.416485 
L 151.233383 208.41593 
L 151.773314 212.95872 
L 151.893299 201.846241 
L 152.133268 214.482905 
L 152.643203 209.340357 
L 152.82318 212.691277 
L 153.543088 201.344599 
L 153.933038 202.78463 
L 154.023027 193.618388 
L 154.053023 194.256342 
L 154.292992 201.266199 
L 154.412977 223.398073 
L 154.62295 215.295798 
L 155.072893 219.471454 
L 156.092762 217.137095 
L 156.212747 209.433198 
L 156.692686 202.526903 
L 157.352601 200.684657 
L 157.472586 195.741114 
L 157.712556 204.485096 
L 158.07251 194.303728 
L 158.672433 202.735046 
L 158.822414 192.0999 
L 158.85241 193.748636 
L 158.912402 193.974647 
L 159.002391 203.114417 
L 159.362345 193.335902 
L 159.452333 187.706182 
L 159.602314 187.853607 
L 160.172241 193.764914 
L 160.65218 190.859047 
L 160.952142 192.014875 
L 161.312096 198.668813 
L 162.091996 198.59396 
L 162.361962 203.50071 
L 163.411828 202.424518 
L 163.441824 211.07049 
L 163.501816 204.571397 
L 164.821648 211.382508 
L 165.331583 202.708633 
L 165.391575 210.39779 
L 165.541556 214.299938 
L 166.29146 203.438717 
L 166.321456 194.519424 
L 166.621418 189.769157 
L 166.68141 198.653348 
L 166.831391 195.351467 
L 167.251338 196.353564 
L 167.431315 200.854889 
L 167.70128 212.214979 
L 168.151223 212.91517 
L 168.3312 195.247363 
L 169.081104 186.368937 
L 169.74102 183.397968 
L 169.920997 174.997434 
L 170.430932 169.213254 
L 170.610909 165.022082 
L 171.390809 159.10346 
L 172.080721 158.156963 
L 172.440675 192.790539 
L 172.830625 203.700198 
L 173.040598 194.257553 
L 173.490541 193.790759 
L 173.940483 190.253668 
L 174.36043 188.706273 
L 175.410296 183.998604 
L 175.440292 184.866067 
L 175.470288 191.816951 
L 177.899978 198.979802 
L 178.169943 195.574479 
L 178.439909 195.969633 
L 178.619886 186.426656 
L 179.339794 197.485391 
L 180.749614 199.321458 
L 180.989583 199.969966 
L 182.549384 185.933844 
L 182.969331 205.946822 
L 183.689239 207.342177 
L 183.809223 209.124987 
L 184.709108 210.638615 
L 185.39902 207.133455 
L 185.848963 202.896045 
L 187.588741 195.950639 
L 187.618737 190.332143 
L 188.638607 182.729679 
L 188.938568 190.200876 
L 189.058553 185.09247 
L 189.118545 177.40743 
L 189.148542 192.930599 
L 189.898446 191.426022 
L 190.888319 191.311576 
L 191.578231 183.039313 
L 192.088166 174.755178 
L 193.018047 192.503838 
L 193.827944 198.515692 
L 193.977925 189.339607 
L 195.207768 180.519366 
L 195.26776 185.241352 
L 195.65771 186.217864 
L 196.137649 182.039242 
L 197.007538 176.525132 
L 197.097527 177.717717 
L 197.847431 175.299516 
L 198.627331 179.295505 
L 199.137266 179.610408 
L 199.737189 177.60246 
L 200.277121 179.692307 
L 200.337113 179.522515 
L 200.397105 183.920017 
L 201.416975 174.797474 
L 201.836921 172.508955 
L 203.516707 169.452767 
L 203.636692 171.096319 
L 203.876661 171.073345 
L 203.966649 181.297293 
L 204.896531 181.138172 
L 205.52645 178.239022 
L 205.676431 191.298224 
L 206.15637 193.610121 
L 206.306351 189.521833 
L 206.366343 181.635407 
L 206.666305 180.497636 
L 206.786289 178.8562 
L 207.656178 175.028951 
L 208.016132 171.837421 
L 209.575933 172.916886 
L 209.905891 186.586651 
L 210.235849 179.273134 
L 210.595803 163.794604 
L 211.255719 170.032872 
L 212.005623 185.209566 
L 212.035619 182.513969 
L 212.395573 184.197749 
L 212.725531 184.841978 
L 212.81552 197.869034 
L 214.525301 189.591204 
L 214.675282 185.52938 
L 214.705278 176.978444 
L 215.00524 169.270233 
L 217.19496 170.685796 
L 217.524918 172.973606 
L 217.614907 186.95532 
L 217.764888 191.036499 
L 217.794884 203.836847 
L 218.544788 209.571198 
L 218.784757 213.926376 
L 219.62465 208.416254 
L 219.714639 206.706902 
L 219.744635 203.410935 
L 220.194577 202.203105 
L 220.674516 218.871278 
L 220.854493 211.909827 
L 221.244443 211.788493 
L 221.304436 223.762671 
L 221.694386 222.049156 
L 222.024344 210.244464 
L 222.804244 210.674619 
L 223.07421 206.257925 
L 223.524152 195.802749 
L 223.734125 204.811999 
L 224.034087 199.903986 
L 224.723999 228.92407 
L 225.983838 231.178433 
L 226.493773 230.440883 
L 227.033704 215.263654 
L 227.633627 208.48027 
L 227.723616 197.783755 
L 227.993581 193.065441 
L 228.323539 205.150366 
L 229.073444 202.638995 
L 229.163432 198.62788 
L 229.583378 203.800407 
L 229.703363 199.897459 
L 230.573252 190.142827 
L 231.413145 188.07853 
L 231.653114 190.136157 
L 231.773099 186.355401 
L 232.343026 193.501159 
L 233.122927 204.046672 
L 233.272907 213.039797 
L 234.232785 217.873822 
L 234.472754 212.309505 
L 234.74272 210.494445 
L 235.012685 213.03585 
L 235.342643 207.172312 
L 235.372639 200.092559 
L 235.732593 182.396702 
L 235.882574 192.599761 
L 236.93244 184.766098 
L 237.292394 192.003553 
L 237.862321 182.420551 
L 238.552233 173.858318 
L 239.152157 185.716391 
L 239.872065 180.808492 
L 240.352003 191.208508 
L 240.861938 181.939471 
L 240.951927 184.826987 
L 241.011919 176.648852 
L 242.631712 189.931696 
L 243.231636 198.266766 
L 243.291628 198.157555 
L 243.321624 203.465911 
L 243.531597 202.444153 
L 244.071529 198.758593 
L 244.911421 189.524928 
L 245.511345 188.590837 
L 245.571337 189.596775 
L 245.751314 181.859912 
L 246.531214 182.952513 
L 246.681195 179.901367 
L 247.19113 172.922016 
L 247.731061 184.389735 
L 247.971031 183.809665 
L 248.900912 176.069671 
L 249.710808 177.619703 
L 250.40072 174.794019 
L 251.270609 180.284743 
L 251.600567 180.299209 
L 252.080506 182.738591 
L 252.500452 175.879426 
L 253.130372 176.92339 
L 254.330219 176.681735 
L 254.990134 181.096855 
L 255.140115 174.682399 
L 256.249973 179.593591 
L 256.579931 188.941956 
L 256.759908 186.0959 
L 257.179855 187.183278 
L 257.239847 185.117625 
L 258.919633 178.60944 
L 259.279587 187.409533 
L 259.339579 183.189984 
L 259.519556 181.619541 
L 259.87951 189.642528 
L 260.629414 201.568773 
L 261.469307 193.72542 
L 261.649284 184.33427 
L 262.099227 179.715307 
L 263.32907 183.803953 
L 263.419058 176.195585 
L 263.958989 195.327274 
L 264.49892 197.087428 
L 265.008855 195.424714 
L 265.098844 213.136453 
L 265.398805 212.120391 
L 265.938736 221.435076 
L 265.968732 217.6982 
L 266.478667 212.710264 
L 266.568656 205.279498 
L 267.588526 206.243401 
L 267.858491 198.819103 
L 268.668388 207.522276 
L 268.938353 215.667741 
L 269.568273 223.312014 
L 270.288181 210.889684 
L 270.438162 202.246145 
L 270.618139 198.818267 
L 271.428035 202.089348 
L 272.027959 206.734117 
L 272.17794 196.887716 
L 272.777863 200.615382 
L 273.527767 206.664114 
L 274.067698 202.049285 
L 274.187683 202.457709 
L 274.337664 192.514746 
L 274.817603 194.185545 
L 274.877595 196.472256 
L 275.357534 187.218194 
L 275.417526 178.887856 
L 275.657495 170.265586 
L 276.197426 186.049021 
L 276.887338 205.877445 
L 277.157304 205.964561 
L 277.727231 206.690768 
L 278.057189 209.207545 
L 278.297158 198.052526 
L 278.687109 203.641683 
L 279.22704 201.899771 
L 280.39689 197.6343 
L 281.086802 201.243925 
L 281.206787 197.812305 
L 281.236783 204.391289 
L 281.446756 198.613128 
L 281.956691 198.186025 
L 282.286649 191.563546 
L 282.616607 202.529782 
L 282.82658 201.467063 
L 283.006557 205.9046 
L 283.726465 206.749901 
L 285.376254 209.96252 
L 285.496239 198.99832 
L 285.886189 194.368502 
L 286.576101 193.888258 
L 286.606097 185.609217 
L 286.726082 187.275948 
L 287.326005 200.393572 
L 287.385998 182.774341 
L 287.625967 180.716551 
L 288.225891 174.01515 
L 288.945799 180.081798 
L 289.155772 174.809486 
L 289.24576 176.021677 
L 289.815688 176.708319 
L 291.435481 180.784461 
L 291.705446 203.42825 
L 291.765439 193.771073 
L 291.885423 202.555115 
L 292.0654 200.285135 
L 292.155389 206.155923 
L 292.365362 205.571763 
L 292.605331 203.915967 
L 292.69532 197.508083 
L 293.055274 198.387878 
L 293.86517 190.810055 
L 293.985155 202.294726 
L 294.315113 193.376748 
L 294.645071 196.357307 
L 296.68481 187.275164 
L 297.344726 173.986194 
L 297.764673 172.410455 
L 297.794669 166.153537 
L 298.574569 165.076311 
L 298.994515 159.484234 
L 299.74442 170.235337 
L 300.614309 168.644273 
L 300.704297 172.618529 
L 301.484198 175.932392 
L 302.024129 174.176765 
L 302.144113 172.444586 
L 302.894018 169.544393 
L 303.103991 163.232454 
L 303.673918 172.824058 
L 304.453818 176.84489 
L 304.903761 183.083274 
L 305.14373 176.315485 
L 305.173726 189.539508 
L 305.833642 198.262547 
L 305.953627 192.23492 
L 306.373573 190.068764 
L 306.973497 185.924306 
L 307.57342 179.472397 
L 307.843386 175.139438 
L 308.113351 177.698685 
L 308.173343 173.21786 
L 308.20334 179.611762 
L 308.863255 214.300332 
L 309.133221 204.295061 
L 310.243079 201.999607 
L 310.723018 203.958982 
L 311.052976 193.868459 
L 311.592907 185.471278 
L 311.892869 193.681864 
L 311.922865 189.066089 
L 312.312815 180.530096 
L 312.462796 174.117022 
L 312.492792 177.391682 
L 313.182704 180.039603 
L 313.302689 183.091517 
L 313.752631 180.347017 
L 314.652516 180.584907 
L 314.922482 186.05931 
L 315.01247 202.555369 
L 315.222443 196.224638 
L 315.522405 199.953574 
L 315.762374 214.675688 
L 316.062336 207.442374 
L 316.782244 205.495433 
L 317.05221 207.829049 
L 317.622137 207.677154 
L 318.132072 197.831261 
L 319.601884 197.133836 
L 319.991834 194.43218 
L 320.081823 200.876036 
L 321.011704 208.194046 
L 321.0417 212.506634 
L 321.551635 202.258756 
L 321.851597 192.915765 
L 322.001578 199.76476 
L 322.331536 190.666895 
L 322.511513 182.01314 
L 322.721486 187.682077 
L 323.261417 193.797691 
L 323.561379 208.593817 
L 324.10131 197.996049 
L 324.431268 202.337902 
L 324.521256 197.671847 
L 325.121179 204.203353 
L 325.361149 204.032265 
L 325.66111 203.113299 
L 326.710976 214.806386 
L 326.860957 212.834936 
L 328.690724 211.045012 
L 328.840704 225.904151 
L 329.680597 220.314572 
L 331.210402 206.637771 
L 331.450371 209.525626 
L 331.480367 202.487791 
L 332.500237 201.982871 
L 332.830195 198.126709 
L 333.190149 207.195567 
L 333.280138 206.909505 
L 333.700084 196.850463 
L 335.499854 201.297993 
L 336.219762 212.211759 
L 337.119647 210.250868 
L 337.239632 209.373356 
L 337.659578 212.083378 
L 338.169513 220.158906 
L 338.34949 208.801001 
L 339.609329 220.739197 
L 340.089268 208.742956 
L 340.689192 218.021758 
L 340.929161 215.722565 
L 341.529084 224.80427 
L 341.679065 209.413098 
L 341.739058 214.809183 
L 341.919035 220.948448 
L 342.518958 215.696118 
L 342.758927 227.131162 
L 342.9689 230.143469 
L 343.028893 233.321001 
L 344.558697 232.110128 
L 344.888655 222.807397 
L 345.128625 210.927678 
L 345.728548 213.323249 
L 345.758544 221.859666 
L 345.818537 209.939975 
L 346.238483 199.994436 
L 346.358468 194.464392 
L 346.658429 192.227742 
L 346.928395 186.639446 
L 346.958391 194.0954 
L 347.408334 192.489317 
L 348.698169 180.988255 
L 348.908142 181.26108 
L 349.058123 179.380498 
L 349.748035 176.168483 
L 350.197977 171.21942 
L 350.527935 179.365323 
L 351.03787 184.325668 
L 352.177725 181.14179 
L 352.417694 189.109962 
L 352.44769 186.244595 
L 352.567675 191.911225 
L 353.527552 199.998747 
L 354.937372 198.481367 
L 355.057357 200.242136 
L 355.597288 190.660643 
L 355.747269 190.037293 
L 356.2872 181.639107 
L 356.377188 181.678853 
L 357.007108 187.851428 
L 357.337066 179.571181 
L 358.056974 178.885024 
L 358.266947 189.722687 
L 358.776882 181.293358 
L 358.836874 184.25483 
L 358.926863 182.847782 
L 359.556782 179.546974 
L 359.616775 195.043661 
L 359.766756 189.17973 
L 360.096713 191.646403 
L 360.456667 182.945325 
L 360.966602 174.569891 
L 361.506533 172.603304 
L 361.836491 168.679589 
L 361.986472 179.79715 
L 362.526403 180.503762 
L 362.556399 188.39526 
L 363.366296 189.264809 
L 363.606265 185.165991 
L 363.906227 177.293539 
L 364.236185 176.997252 
L 364.866104 184.923444 
L 365.406036 177.459035 
L 366.365913 184.862218 
L 366.395909 193.930753 
L 366.575886 185.177181 
L 368.135687 198.096724 
L 368.195679 204.498044 
L 368.495641 199.427045 
L 368.705614 199.330236 
L 369.515511 203.465561 
L 370.14543 204.0743 
L 370.445392 209.146198 
L 370.925331 198.194631 
L 370.985323 200.591665 
L 371.195296 204.037968 
L 372.155174 209.881505 
L 372.305155 220.720166 
L 372.635112 222.731749 
L 372.785093 220.000249 
L 374.074929 226.238161 
L 374.164917 214.192628 
L 374.764841 209.422466 
L 374.944818 212.188945 
L 374.974814 211.183565 
L 375.964687 224.992272 
L 377.82445 234.687854 
L 377.854446 221.607763 
L 378.124412 217.727325 
L 378.334385 210.88226 
L 378.424373 200.939752 
L 378.634346 205.385951 
L 378.724335 201.678509 
L 379.384251 192.267561 
L 380.044166 209.138778 
L 380.344128 206.940338 
L 380.524105 189.535629 
L 381.244013 190.234766 
L 381.42399 185.612608 
L 381.543975 178.158039 
L 382.113902 171.120533 
L 382.413864 173.734139 
L 382.653833 191.133521 
L 383.013787 200.899974 
L 384.213634 204.467923 
L 384.4836 203.005664 
L 384.513596 199.909098 
L 384.753565 199.492605 
L 385.023531 194.28692 
L 386.073397 198.977686 
L 386.913289 189.539513 
L 387.003278 194.885777 
L 388.203125 186.101713 
L 388.923033 178.305206 
L 389.222994 185.019112 
L 390.872784 177.440392 
L 391.262734 185.820302 
L 391.592692 182.395272 
L 392.132623 183.727164 
L 393.212485 189.075958 
L 393.392462 178.624019 
L 393.452454 187.875153 
L 393.872401 180.019437 
L 394.232355 182.126372 
L 394.532316 174.660216 
L 394.922267 176.343021 
L 395.072247 174.68922 
L 395.102244 168.46673 
L 395.552186 170.387068 
L 395.732163 169.552822 
L 396.032125 171.487053 
L 396.752033 178.154043 
L 397.261968 171.121342 
L 397.921884 182.741788 
L 398.851765 184.678418 
L 399.061738 184.609878 
L 399.151727 176.736928 
L 399.391696 177.9708 
L 399.871635 188.149742 
L 399.991619 184.156956 
L 400.1416 184.821072 
L 400.201593 179.431529 
L 400.261585 182.05141 
L 400.351573 182.52683 
L 401.401439 185.233398 
L 401.611413 178.394702 
L 402.091351 171.99166 
L 402.691275 178.729831 
L 403.531167 181.355778 
L 403.621156 172.219117 
L 403.681148 187.586187 
L 404.131091 173.684351 
L 404.311068 170.745602 
L 404.461049 173.445048 
L 405.330938 172.073838 
L 405.750884 185.119067 
L 406.080842 186.895545 
L 406.380804 193.780387 
L 406.500788 185.15364 
L 406.530784 185.939645 
L 407.370677 189.652416 
L 407.640643 180.902893 
L 407.880612 187.145554 
L 408.330555 185.908466 
L 408.360551 191.609505 
L 408.720505 185.123582 
L 409.650386 181.85306 
L 409.920352 175.378436 
L 410.310302 185.912136 
L 410.40029 184.764568 
L 410.430286 177.162225 
L 410.580267 169.425871 
L 411.300175 201.171938 
L 411.330172 197.75205 
L 411.840106 198.87888 
L 412.739992 199.067219 
L 413.039953 207.437837 
L 414.149812 214.329857 
L 414.449773 220.80015 
L 414.62975 209.670504 
L 415.109689 214.689831 
L 415.319662 212.754968 
L 416.189551 210.048052 
L 416.459517 204.315063 
L 416.609497 195.492261 
L 417.209421 192.913607 
L 417.629367 183.586139 
L 417.959325 185.630164 
L 418.769222 178.847502 
L 418.85921 181.482634 
L 419.129176 178.352684 
L 419.87908 188.759145 
L 419.999065 188.141999 
L 420.26903 184.455539 
L 420.688977 190.796486 
L 420.868954 182.539501 
L 420.928946 190.930706 
L 421.948816 191.366316 
L 422.128793 182.235321 
L 422.30877 183.757207 
L 422.398758 177.221097 
L 422.69872 177.270724 
L 422.848701 169.765736 
L 423.268647 167.030216 
L 423.538613 161.410188 
L 424.018551 156.929751 
L 424.768456 151.834228 
L 425.338383 156.432321 
L 425.608348 166.88472 
L 426.148279 171.96769 
L 426.688211 165.490046 
L 426.958176 176.223933 
L 427.648088 180.534225 
L 427.738076 188.083526 
L 429.267881 192.893836 
L 429.50785 188.900927 
L 429.597839 183.947213 
L 429.867805 175.710394 
L 431.007659 162.887942 
L 431.457602 167.48119 
L 431.93754 167.847744 
L 432.537464 179.897588 
L 432.747437 175.823057 
L 432.95741 177.433804 
L 433.107391 181.130732 
L 434.277241 171.395667 
L 434.337234 173.132946 
L 435.357104 169.416633 
L 435.447092 179.179641 
L 435.867038 171.595029 
L 435.957027 163.032911 
L 436.286985 164.86787 
L 436.466962 158.348644 
L 437.306855 176.26168 
L 437.396843 175.430341 
L 437.606816 190.977964 
L 437.666809 182.32104 
L 438.176744 174.41455 
L 438.416713 176.331855 
L 438.686678 174.982562 
L 439.136621 176.413952 
L 439.61656 178.753922 
L 440.78641 171.414005 
L 441.146364 174.222609 
L 441.206357 181.091455 
L 441.506318 179.904918 
L 441.836276 184.970948 
L 442.046249 195.706065 
L 442.256223 196.246856 
L 442.316215 187.154558 
L 442.82615 191.57273 
L 443.396077 208.092898 
L 444.475939 215.874211 
L 444.775901 208.887925 
L 445.285836 218.899717 
L 445.465813 207.637054 
L 445.735778 210.168982 
L 446.635663 200.006877 
L 447.325575 196.699092 
L 447.355572 188.279232 
L 447.895503 184.689145 
L 448.735395 184.366759 
L 448.885376 187.794835 
L 449.275326 184.315768 
L 449.305323 179.671707 
L 449.695273 181.459974 
L 449.935242 174.130655 
L 450.175211 195.069999 
L 450.775135 184.565029 
L 450.925116 183.952745 
L 451.345062 185.833965 
L 451.645024 183.467678 
L 451.795005 188.595716 
L 452.004978 199.583675 
L 452.574905 219.194436 
L 452.934859 218.105319 
L 453.984725 213.754215 
L 454.254691 229.760269 
L 454.404671 222.739548 
L 455.694507 220.095265 
L 455.844488 222.324626 
L 456.29443 222.561635 
L 456.624388 215.487993 
L 456.744373 228.425822 
L 457.224311 227.204351 
L 457.614262 218.978471 
L 458.214185 225.237707 
L 458.484151 225.379258 
L 458.72412 213.133432 
L 459.324043 211.411862 
L 459.803982 214.711159 
L 460.403905 220.998023 
L 460.493894 209.981762 
L 460.973833 209.127285 
L 461.783729 197.669443 
L 463.583499 191.622949 
L 463.853465 183.671584 
L 463.883461 176.553954 
L 464.783346 180.332376 
L 465.443262 170.142179 
L 466.103178 180.984765 
L 467.423009 188.784143 
L 468.052929 183.171424 
L 468.232906 174.935699 
L 468.292898 182.126489 
L 468.922818 174.685732 
L 469.582733 171.675403 
L 470.452622 174.124493 
L 471.4125 180.895109 
L 471.832446 181.048576 
L 472.672339 169.734131 
L 474.442113 170.517808 
L 474.922052 166.981731 
L 475.851933 164.841654 
L 476.091902 169.05932 
L 476.721822 189.451059 
L 477.471726 185.690025 
L 477.621707 179.235743 
L 478.011657 180.676283 
L 478.401607 191.507585 
L 478.581584 201.781153 
L 479.841423 195.583637 
L 479.87142 212.820183 
L 480.0214 201.852293 
L 480.171381 217.432745 
L 480.471343 209.701397 
L 481.371228 198.439717 
L 481.761178 190.246726 
L 482.211121 190.800905 
L 482.721056 188.280007 
L 483.530952 196.336283 
L 483.560949 199.529083 
L 483.800918 192.271572 
L 484.520826 177.136922 
L 484.970769 179.877812 
L 485.090753 192.314313 
L 485.150746 186.771524 
L 485.600688 187.328811 
L 486.140619 193.537794 
L 486.68055 190.16806 
L 487.520443 206.258195 
L 487.880397 196.482003 
L 487.910393 187.102454 
L 488.030378 185.008262 
L 488.870271 176.465316 
L 489.650171 175.30933 
L 490.640045 175.563752 
L 490.790025 173.592758 
L 491.089987 176.128462 
L 492.169849 178.046003 
L 492.31983 186.933628 
L 493.759646 200.304697 
L 493.879631 192.355649 
L 494.479554 191.436036 
L 495.919371 201.172125 
L 495.949367 192.390207 
L 496.729267 187.988515 
L 496.819256 179.624588 
L 498.079095 181.26263 
L 498.109091 179.214059 
L 498.109091 179.214059 
" style="fill:none;stroke:#4c72b0;stroke-linecap:round;stroke-width:2;"/>
   </g>
   <g id="patch_3">
    <path d="M 72 504 
L 72 69.12 
" style="fill:none;stroke:#ffffff;stroke-linecap:square;stroke-linejoin:miter;stroke-width:1.25;"/>
   </g>
   <g id="patch_4">
    <path d="M 518.4 504 
L 518.4 69.12 
" style="fill:none;stroke:#ffffff;stroke-linecap:square;stroke-linejoin:miter;stroke-width:1.25;"/>
   </g>
   <g id="patch_5">
    <path d="M 72 504 
L 518.4 504 
" style="fill:none;stroke:#ffffff;stroke-linecap:square;stroke-linejoin:miter;stroke-width:1.25;"/>
   </g>
   <g id="patch_6">
    <path d="M 72 69.12 
L 518.4 69.12 
" style="fill:none;stroke:#ffffff;stroke-linecap:square;stroke-linejoin:miter;stroke-width:1.25;"/>
   </g>
   <g id="text_16">
    <!-- PPO Training Attack -->
    <g style="fill:#262626;" transform="translate(178.86625 63.12)scale(0.26 -0.26)">
     <defs>
      <path d="M 7.71875 0 
L 7.71875 71.578125 
L 34.71875 71.578125 
Q 41.84375 71.578125 45.609375 70.90625 
Q 50.875 70.015625 54.4375 67.546875 
Q 58.015625 65.09375 60.1875 60.640625 
Q 62.359375 56.203125 62.359375 50.875 
Q 62.359375 41.75 56.546875 35.421875 
Q 50.734375 29.109375 35.546875 29.109375 
L 17.1875 29.109375 
L 17.1875 0 
z
M 17.1875 37.546875 
L 35.6875 37.546875 
Q 44.875 37.546875 48.734375 40.96875 
Q 52.59375 44.390625 52.59375 50.59375 
Q 52.59375 55.078125 50.3125 58.265625 
Q 48.046875 61.46875 44.34375 62.5 
Q 41.9375 63.140625 35.5 63.140625 
L 17.1875 63.140625 
z
" id="ArialMT-80"/>
      <path d="M 4.828125 34.859375 
Q 4.828125 52.6875 14.390625 62.765625 
Q 23.96875 72.859375 39.109375 72.859375 
Q 49.03125 72.859375 56.984375 68.109375 
Q 64.9375 63.375 69.109375 54.90625 
Q 73.296875 46.4375 73.296875 35.6875 
Q 73.296875 24.8125 68.890625 16.21875 
Q 64.5 7.625 56.4375 3.203125 
Q 48.390625 -1.21875 39.0625 -1.21875 
Q 28.953125 -1.21875 20.984375 3.65625 
Q 13.03125 8.546875 8.921875 16.984375 
Q 4.828125 25.4375 4.828125 34.859375 
z
M 14.59375 34.71875 
Q 14.59375 21.78125 21.546875 14.328125 
Q 28.515625 6.890625 39.015625 6.890625 
Q 49.703125 6.890625 56.609375 14.40625 
Q 63.53125 21.921875 63.53125 35.75 
Q 63.53125 44.484375 60.578125 51 
Q 57.625 57.515625 51.921875 61.109375 
Q 46.234375 64.703125 39.15625 64.703125 
Q 29.109375 64.703125 21.84375 57.78125 
Q 14.59375 50.875 14.59375 34.71875 
z
" id="ArialMT-79"/>
      <path d="M 25.921875 0 
L 25.921875 63.140625 
L 2.34375 63.140625 
L 2.34375 71.578125 
L 59.078125 71.578125 
L 59.078125 63.140625 
L 35.40625 63.140625 
L 35.40625 0 
z
" id="ArialMT-84"/>
      <path d="M 6.59375 0 
L 6.59375 51.859375 
L 14.5 51.859375 
L 14.5 44.484375 
Q 20.21875 53.03125 31 53.03125 
Q 35.6875 53.03125 39.625 51.34375 
Q 43.5625 49.65625 45.515625 46.921875 
Q 47.46875 44.1875 48.25 40.4375 
Q 48.734375 37.984375 48.734375 31.890625 
L 48.734375 0 
L 39.9375 0 
L 39.9375 31.546875 
Q 39.9375 36.921875 38.90625 39.578125 
Q 37.890625 42.234375 35.28125 43.8125 
Q 32.671875 45.40625 29.15625 45.40625 
Q 23.53125 45.40625 19.453125 41.84375 
Q 15.375 38.28125 15.375 28.328125 
L 15.375 0 
z
" id="ArialMT-110"/>
      <path d="M -0.140625 0 
L 27.34375 71.578125 
L 37.546875 71.578125 
L 66.84375 0 
L 56.0625 0 
L 47.703125 21.6875 
L 17.78125 21.6875 
L 9.90625 0 
z
M 20.515625 29.390625 
L 44.78125 29.390625 
L 37.3125 49.21875 
Q 33.890625 58.25 32.234375 64.0625 
Q 30.859375 57.171875 28.375 50.390625 
z
" id="ArialMT-65"/>
      <path d="M 25.78125 7.859375 
L 27.046875 0.09375 
Q 23.34375 -0.6875 20.40625 -0.6875 
Q 15.625 -0.6875 12.984375 0.828125 
Q 10.359375 2.34375 9.28125 4.8125 
Q 8.203125 7.28125 8.203125 15.1875 
L 8.203125 45.015625 
L 1.765625 45.015625 
L 1.765625 51.859375 
L 8.203125 51.859375 
L 8.203125 64.703125 
L 16.9375 69.96875 
L 16.9375 51.859375 
L 25.78125 51.859375 
L 25.78125 45.015625 
L 16.9375 45.015625 
L 16.9375 14.703125 
Q 16.9375 10.9375 17.40625 9.859375 
Q 17.875 8.796875 18.921875 8.15625 
Q 19.96875 7.515625 21.921875 7.515625 
Q 23.390625 7.515625 25.78125 7.859375 
z
" id="ArialMT-116"/>
      <path d="M 40.4375 19 
L 49.078125 17.875 
Q 47.65625 8.9375 41.8125 3.875 
Q 35.984375 -1.171875 27.484375 -1.171875 
Q 16.84375 -1.171875 10.375 5.78125 
Q 3.90625 12.75 3.90625 25.734375 
Q 3.90625 34.125 6.6875 40.421875 
Q 9.46875 46.734375 15.15625 49.875 
Q 20.84375 53.03125 27.546875 53.03125 
Q 35.984375 53.03125 41.359375 48.75 
Q 46.734375 44.484375 48.25 36.625 
L 39.703125 35.296875 
Q 38.484375 40.53125 35.375 43.15625 
Q 32.28125 45.796875 27.875 45.796875 
Q 21.234375 45.796875 17.078125 41.03125 
Q 12.9375 36.28125 12.9375 25.984375 
Q 12.9375 15.53125 16.9375 10.796875 
Q 20.953125 6.0625 27.390625 6.0625 
Q 32.5625 6.0625 36.03125 9.234375 
Q 39.5 12.40625 40.4375 19 
z
" id="ArialMT-99"/>
      <path d="M 6.640625 0 
L 6.640625 71.578125 
L 15.4375 71.578125 
L 15.4375 30.765625 
L 36.234375 51.859375 
L 47.609375 51.859375 
L 27.78125 32.625 
L 49.609375 0 
L 38.765625 0 
L 21.625 26.515625 
L 15.4375 20.5625 
L 15.4375 0 
z
" id="ArialMT-107"/>
     </defs>
     <use xlink:href="#ArialMT-80"/>
     <use x="66.699219" xlink:href="#ArialMT-80"/>
     <use x="133.398438" xlink:href="#ArialMT-79"/>
     <use x="211.181641" xlink:href="#ArialMT-32"/>
     <use x="237.214844" xlink:href="#ArialMT-84"/>
     <use x="294.548828" xlink:href="#ArialMT-114"/>
     <use x="327.849609" xlink:href="#ArialMT-97"/>
     <use x="383.464844" xlink:href="#ArialMT-105"/>
     <use x="405.681641" xlink:href="#ArialMT-110"/>
     <use x="461.296875" xlink:href="#ArialMT-105"/>
     <use x="483.513672" xlink:href="#ArialMT-110"/>
     <use x="539.128906" xlink:href="#ArialMT-103"/>
     <use x="594.744141" xlink:href="#ArialMT-32"/>
     <use x="617.027344" xlink:href="#ArialMT-65"/>
     <use x="683.726562" xlink:href="#ArialMT-116"/>
     <use x="711.509766" xlink:href="#ArialMT-116"/>
     <use x="739.292969" xlink:href="#ArialMT-97"/>
     <use x="794.908203" xlink:href="#ArialMT-99"/>
     <use x="844.908203" xlink:href="#ArialMT-107"/>
    </g>
   </g>
   <g id="legend_1">
    <g id="patch_7">
     <path d="M 386.13875 493 
L 503 493 
Q 507.4 493 507.4 488.6 
L 507.4 459.680313 
Q 507.4 455.280312 503 455.280312 
L 386.13875 455.280312 
Q 381.73875 455.280312 381.73875 459.680313 
L 381.73875 488.6 
Q 381.73875 493 386.13875 493 
z
" style="fill:#eaeaf2;opacity:0.8;stroke:#cccccc;stroke-linejoin:miter;"/>
    </g>
    <g id="line2d_15">
     <path d="M 390.53875 472.1275 
L 434.53875 472.1275 
" style="fill:none;stroke:#4c72b0;stroke-linecap:round;stroke-width:2;"/>
    </g>
    <g id="line2d_16"/>
    <g id="text_17">
     <!-- PPO -->
     <g style="fill:#262626;" transform="translate(452.13875 479.8275)scale(0.22 -0.22)">
      <use xlink:href="#ArialMT-80"/>
      <use x="66.699219" xlink:href="#ArialMT-80"/>
      <use x="133.398438" xlink:href="#ArialMT-79"/>
     </g>
    </g>
   </g>
  </g>
 </g>
 <defs>
  <clipPath id="pfd2f9d19e9">
   <rect height="434.88" width="446.4" x="72" y="69.12"/>
  </clipPath>
 </defs>
</svg>
