<?xml version="1.0" encoding="utf-8" standalone="no"?>
<!DOCTYPE svg PUBLIC "-//W3C//DTD SVG 1.1//EN"
  "http://www.w3.org/Graphics/SVG/1.1/DTD/svg11.dtd">
<!-- Created with matplotlib (https://matplotlib.org/) -->
<svg height="576pt" version="1.1" viewBox="0 0 576 576" width="576pt" xmlns="http://www.w3.org/2000/svg" xmlns:xlink="http://www.w3.org/1999/xlink">
 <metadata>
  <rdf:RDF xmlns:cc="http://creativecommons.org/ns#" xmlns:dc="http://purl.org/dc/elements/1.1/" xmlns:rdf="http://www.w3.org/1999/02/22-rdf-syntax-ns#">
   <cc:Work>
    <dc:type rdf:resource="http://purl.org/dc/dcmitype/StillImage"/>
    <dc:date>2021-03-13T22:02:10.466607</dc:date>
    <dc:format>image/svg+xml</dc:format>
    <dc:creator>
     <cc:Agent>
      <dc:title>Matplotlib v3.3.2, https://matplotlib.org/</dc:title>
     </cc:Agent>
    </dc:creator>
   </cc:Work>
  </rdf:RDF>
 </metadata>
 <defs>
  <style type="text/css">*{stroke-linecap:butt;stroke-linejoin:round;}</style>
 </defs>
 <g id="figure_1">
  <g id="patch_1">
   <path d="M 0 576 
L 576 576 
L 576 0 
L 0 0 
z
" style="fill:#ffffff;"/>
  </g>
  <g id="axes_1">
   <g id="patch_2">
    <path d="M 72 512.64 
L 518.4 512.64 
L 518.4 69.12 
L 72 69.12 
z
" style="fill:#eaeaf2;"/>
   </g>
   <g id="matplotlib.axis_1">
    <g id="xtick_1">
     <g id="line2d_1">
      <path clip-path="url(#pbfbe57ccf4)" d="M 91.720982 512.64 
L 91.720982 69.12 
" style="fill:none;stroke:#ffffff;stroke-linecap:round;"/>
     </g>
     <g id="text_1">
      <!-- 0.0 -->
      <g style="fill:#262626;" transform="translate(84.075982 530.013594)scale(0.11 -0.11)">
       <defs>
        <path d="M 4.15625 35.296875 
Q 4.15625 48 6.765625 55.734375 
Q 9.375 63.484375 14.515625 67.671875 
Q 19.671875 71.875 27.484375 71.875 
Q 33.25 71.875 37.59375 69.546875 
Q 41.9375 67.234375 44.765625 62.859375 
Q 47.609375 58.5 49.21875 52.21875 
Q 50.828125 45.953125 50.828125 35.296875 
Q 50.828125 22.703125 48.234375 14.96875 
Q 45.65625 7.234375 40.5 3 
Q 35.359375 -1.21875 27.484375 -1.21875 
Q 17.140625 -1.21875 11.234375 6.203125 
Q 4.15625 15.140625 4.15625 35.296875 
z
M 13.1875 35.296875 
Q 13.1875 17.671875 17.3125 11.828125 
Q 21.4375 6 27.484375 6 
Q 33.546875 6 37.671875 11.859375 
Q 41.796875 17.71875 41.796875 35.296875 
Q 41.796875 52.984375 37.671875 58.78125 
Q 33.546875 64.59375 27.390625 64.59375 
Q 21.34375 64.59375 17.71875 59.46875 
Q 13.1875 52.9375 13.1875 35.296875 
z
" id="ArialMT-48"/>
        <path d="M 9.078125 0 
L 9.078125 10.015625 
L 19.09375 10.015625 
L 19.09375 0 
z
" id="ArialMT-46"/>
       </defs>
       <use xlink:href="#ArialMT-48"/>
       <use x="55.615234" xlink:href="#ArialMT-46"/>
       <use x="83.398438" xlink:href="#ArialMT-48"/>
      </g>
     </g>
    </g>
    <g id="xtick_2">
     <g id="line2d_2">
      <path clip-path="url(#pbfbe57ccf4)" d="M 151.713322 512.64 
L 151.713322 69.12 
" style="fill:none;stroke:#ffffff;stroke-linecap:round;"/>
     </g>
     <g id="text_2">
      <!-- 0.2 -->
      <g style="fill:#262626;" transform="translate(144.068322 530.013594)scale(0.11 -0.11)">
       <defs>
        <path d="M 50.34375 8.453125 
L 50.34375 0 
L 3.03125 0 
Q 2.9375 3.171875 4.046875 6.109375 
Q 5.859375 10.9375 9.828125 15.625 
Q 13.8125 20.3125 21.34375 26.46875 
Q 33.015625 36.03125 37.109375 41.625 
Q 41.21875 47.21875 41.21875 52.203125 
Q 41.21875 57.421875 37.46875 61 
Q 33.734375 64.59375 27.734375 64.59375 
Q 21.390625 64.59375 17.578125 60.78125 
Q 13.765625 56.984375 13.71875 50.25 
L 4.6875 51.171875 
Q 5.609375 61.28125 11.65625 66.578125 
Q 17.71875 71.875 27.9375 71.875 
Q 38.234375 71.875 44.234375 66.15625 
Q 50.25 60.453125 50.25 52 
Q 50.25 47.703125 48.484375 43.546875 
Q 46.734375 39.40625 42.65625 34.8125 
Q 38.578125 30.21875 29.109375 22.21875 
Q 21.1875 15.578125 18.9375 13.203125 
Q 16.703125 10.84375 15.234375 8.453125 
z
" id="ArialMT-50"/>
       </defs>
       <use xlink:href="#ArialMT-48"/>
       <use x="55.615234" xlink:href="#ArialMT-46"/>
       <use x="83.398438" xlink:href="#ArialMT-50"/>
      </g>
     </g>
    </g>
    <g id="xtick_3">
     <g id="line2d_3">
      <path clip-path="url(#pbfbe57ccf4)" d="M 211.705661 512.64 
L 211.705661 69.12 
" style="fill:none;stroke:#ffffff;stroke-linecap:round;"/>
     </g>
     <g id="text_3">
      <!-- 0.4 -->
      <g style="fill:#262626;" transform="translate(204.060661 530.013594)scale(0.11 -0.11)">
       <defs>
        <path d="M 32.328125 0 
L 32.328125 17.140625 
L 1.265625 17.140625 
L 1.265625 25.203125 
L 33.9375 71.578125 
L 41.109375 71.578125 
L 41.109375 25.203125 
L 50.78125 25.203125 
L 50.78125 17.140625 
L 41.109375 17.140625 
L 41.109375 0 
z
M 32.328125 25.203125 
L 32.328125 57.46875 
L 9.90625 25.203125 
z
" id="ArialMT-52"/>
       </defs>
       <use xlink:href="#ArialMT-48"/>
       <use x="55.615234" xlink:href="#ArialMT-46"/>
       <use x="83.398438" xlink:href="#ArialMT-52"/>
      </g>
     </g>
    </g>
    <g id="xtick_4">
     <g id="line2d_4">
      <path clip-path="url(#pbfbe57ccf4)" d="M 271.698001 512.64 
L 271.698001 69.12 
" style="fill:none;stroke:#ffffff;stroke-linecap:round;"/>
     </g>
     <g id="text_4">
      <!-- 0.6 -->
      <g style="fill:#262626;" transform="translate(264.053001 530.013594)scale(0.11 -0.11)">
       <defs>
        <path d="M 49.75 54.046875 
L 41.015625 53.375 
Q 39.84375 58.546875 37.703125 60.890625 
Q 34.125 64.65625 28.90625 64.65625 
Q 24.703125 64.65625 21.53125 62.3125 
Q 17.390625 59.28125 14.984375 53.46875 
Q 12.59375 47.65625 12.5 36.921875 
Q 15.671875 41.75 20.265625 44.09375 
Q 24.859375 46.4375 29.890625 46.4375 
Q 38.671875 46.4375 44.84375 39.96875 
Q 51.03125 33.5 51.03125 23.25 
Q 51.03125 16.5 48.125 10.71875 
Q 45.21875 4.9375 40.140625 1.859375 
Q 35.0625 -1.21875 28.609375 -1.21875 
Q 17.625 -1.21875 10.6875 6.859375 
Q 3.765625 14.9375 3.765625 33.5 
Q 3.765625 54.25 11.421875 63.671875 
Q 18.109375 71.875 29.4375 71.875 
Q 37.890625 71.875 43.28125 67.140625 
Q 48.6875 62.40625 49.75 54.046875 
z
M 13.875 23.1875 
Q 13.875 18.65625 15.796875 14.5 
Q 17.71875 10.359375 21.1875 8.171875 
Q 24.65625 6 28.46875 6 
Q 34.03125 6 38.03125 10.484375 
Q 42.046875 14.984375 42.046875 22.703125 
Q 42.046875 30.125 38.078125 34.390625 
Q 34.125 38.671875 28.125 38.671875 
Q 22.171875 38.671875 18.015625 34.390625 
Q 13.875 30.125 13.875 23.1875 
z
" id="ArialMT-54"/>
       </defs>
       <use xlink:href="#ArialMT-48"/>
       <use x="55.615234" xlink:href="#ArialMT-46"/>
       <use x="83.398438" xlink:href="#ArialMT-54"/>
      </g>
     </g>
    </g>
    <g id="xtick_5">
     <g id="line2d_5">
      <path clip-path="url(#pbfbe57ccf4)" d="M 331.690341 512.64 
L 331.690341 69.12 
" style="fill:none;stroke:#ffffff;stroke-linecap:round;"/>
     </g>
     <g id="text_5">
      <!-- 0.8 -->
      <g style="fill:#262626;" transform="translate(324.045341 530.013594)scale(0.11 -0.11)">
       <defs>
        <path d="M 17.671875 38.8125 
Q 12.203125 40.828125 9.5625 44.53125 
Q 6.9375 48.25 6.9375 53.421875 
Q 6.9375 61.234375 12.546875 66.546875 
Q 18.171875 71.875 27.484375 71.875 
Q 36.859375 71.875 42.578125 66.421875 
Q 48.296875 60.984375 48.296875 53.171875 
Q 48.296875 48.1875 45.671875 44.5 
Q 43.0625 40.828125 37.75 38.8125 
Q 44.34375 36.671875 47.78125 31.875 
Q 51.21875 27.09375 51.21875 20.453125 
Q 51.21875 11.28125 44.71875 5.03125 
Q 38.234375 -1.21875 27.640625 -1.21875 
Q 17.046875 -1.21875 10.546875 5.046875 
Q 4.046875 11.328125 4.046875 20.703125 
Q 4.046875 27.6875 7.59375 32.390625 
Q 11.140625 37.109375 17.671875 38.8125 
z
M 15.921875 53.71875 
Q 15.921875 48.640625 19.1875 45.40625 
Q 22.46875 42.1875 27.6875 42.1875 
Q 32.765625 42.1875 36.015625 45.375 
Q 39.265625 48.578125 39.265625 53.21875 
Q 39.265625 58.0625 35.90625 61.359375 
Q 32.5625 64.65625 27.59375 64.65625 
Q 22.5625 64.65625 19.234375 61.421875 
Q 15.921875 58.203125 15.921875 53.71875 
z
M 13.09375 20.65625 
Q 13.09375 16.890625 14.875 13.375 
Q 16.65625 9.859375 20.171875 7.921875 
Q 23.6875 6 27.734375 6 
Q 34.03125 6 38.125 10.046875 
Q 42.234375 14.109375 42.234375 20.359375 
Q 42.234375 26.703125 38.015625 30.859375 
Q 33.796875 35.015625 27.4375 35.015625 
Q 21.234375 35.015625 17.15625 30.90625 
Q 13.09375 26.8125 13.09375 20.65625 
z
" id="ArialMT-56"/>
       </defs>
       <use xlink:href="#ArialMT-48"/>
       <use x="55.615234" xlink:href="#ArialMT-46"/>
       <use x="83.398438" xlink:href="#ArialMT-56"/>
      </g>
     </g>
    </g>
    <g id="xtick_6">
     <g id="line2d_6">
      <path clip-path="url(#pbfbe57ccf4)" d="M 391.68268 512.64 
L 391.68268 69.12 
" style="fill:none;stroke:#ffffff;stroke-linecap:round;"/>
     </g>
     <g id="text_6">
      <!-- 1.0 -->
      <g style="fill:#262626;" transform="translate(384.03768 530.013594)scale(0.11 -0.11)">
       <defs>
        <path d="M 37.25 0 
L 28.46875 0 
L 28.46875 56 
Q 25.296875 52.984375 20.140625 49.953125 
Q 14.984375 46.921875 10.890625 45.40625 
L 10.890625 53.90625 
Q 18.265625 57.375 23.78125 62.296875 
Q 29.296875 67.234375 31.59375 71.875 
L 37.25 71.875 
z
" id="ArialMT-49"/>
       </defs>
       <use xlink:href="#ArialMT-49"/>
       <use x="55.615234" xlink:href="#ArialMT-46"/>
       <use x="83.398438" xlink:href="#ArialMT-48"/>
      </g>
     </g>
    </g>
    <g id="xtick_7">
     <g id="line2d_7">
      <path clip-path="url(#pbfbe57ccf4)" d="M 451.67502 512.64 
L 451.67502 69.12 
" style="fill:none;stroke:#ffffff;stroke-linecap:round;"/>
     </g>
     <g id="text_7">
      <!-- 1.2 -->
      <g style="fill:#262626;" transform="translate(444.03002 530.013594)scale(0.11 -0.11)">
       <use xlink:href="#ArialMT-49"/>
       <use x="55.615234" xlink:href="#ArialMT-46"/>
       <use x="83.398438" xlink:href="#ArialMT-50"/>
      </g>
     </g>
    </g>
    <g id="xtick_8">
     <g id="line2d_8">
      <path clip-path="url(#pbfbe57ccf4)" d="M 511.66736 512.64 
L 511.66736 69.12 
" style="fill:none;stroke:#ffffff;stroke-linecap:round;"/>
     </g>
     <g id="text_8">
      <!-- 1.4 -->
      <g style="fill:#262626;" transform="translate(504.02236 530.013594)scale(0.11 -0.11)">
       <use xlink:href="#ArialMT-49"/>
       <use x="55.615234" xlink:href="#ArialMT-46"/>
       <use x="83.398438" xlink:href="#ArialMT-52"/>
      </g>
     </g>
    </g>
    <g id="text_9">
     <!-- Environment Steps -->
     <g style="fill:#262626;" transform="translate(231.837891 547.119375)scale(0.15 -0.15)">
      <defs>
       <path d="M 7.90625 0 
L 7.90625 71.578125 
L 59.671875 71.578125 
L 59.671875 63.140625 
L 17.390625 63.140625 
L 17.390625 41.21875 
L 56.984375 41.21875 
L 56.984375 32.8125 
L 17.390625 32.8125 
L 17.390625 8.453125 
L 61.328125 8.453125 
L 61.328125 0 
z
" id="ArialMT-69"/>
       <path d="M 6.59375 0 
L 6.59375 51.859375 
L 14.5 51.859375 
L 14.5 44.484375 
Q 20.21875 53.03125 31 53.03125 
Q 35.6875 53.03125 39.625 51.34375 
Q 43.5625 49.65625 45.515625 46.921875 
Q 47.46875 44.1875 48.25 40.4375 
Q 48.734375 37.984375 48.734375 31.890625 
L 48.734375 0 
L 39.9375 0 
L 39.9375 31.546875 
Q 39.9375 36.921875 38.90625 39.578125 
Q 37.890625 42.234375 35.28125 43.8125 
Q 32.671875 45.40625 29.15625 45.40625 
Q 23.53125 45.40625 19.453125 41.84375 
Q 15.375 38.28125 15.375 28.328125 
L 15.375 0 
z
" id="ArialMT-110"/>
       <path d="M 21 0 
L 1.265625 51.859375 
L 10.546875 51.859375 
L 21.6875 20.796875 
Q 23.484375 15.765625 25 10.359375 
Q 26.171875 14.453125 28.265625 20.21875 
L 39.796875 51.859375 
L 48.828125 51.859375 
L 29.203125 0 
z
" id="ArialMT-118"/>
       <path d="M 6.640625 61.46875 
L 6.640625 71.578125 
L 15.4375 71.578125 
L 15.4375 61.46875 
z
M 6.640625 0 
L 6.640625 51.859375 
L 15.4375 51.859375 
L 15.4375 0 
z
" id="ArialMT-105"/>
       <path d="M 6.5 0 
L 6.5 51.859375 
L 14.40625 51.859375 
L 14.40625 44 
Q 17.4375 49.515625 20 51.265625 
Q 22.5625 53.03125 25.640625 53.03125 
Q 30.078125 53.03125 34.671875 50.203125 
L 31.640625 42.046875 
Q 28.421875 43.953125 25.203125 43.953125 
Q 22.3125 43.953125 20.015625 42.21875 
Q 17.71875 40.484375 16.75 37.40625 
Q 15.28125 32.71875 15.28125 27.15625 
L 15.28125 0 
z
" id="ArialMT-114"/>
       <path d="M 3.328125 25.921875 
Q 3.328125 40.328125 11.328125 47.265625 
Q 18.015625 53.03125 27.640625 53.03125 
Q 38.328125 53.03125 45.109375 46.015625 
Q 51.90625 39.015625 51.90625 26.65625 
Q 51.90625 16.65625 48.90625 10.90625 
Q 45.90625 5.171875 40.15625 2 
Q 34.421875 -1.171875 27.640625 -1.171875 
Q 16.75 -1.171875 10.03125 5.8125 
Q 3.328125 12.796875 3.328125 25.921875 
z
M 12.359375 25.921875 
Q 12.359375 15.96875 16.703125 11.015625 
Q 21.046875 6.0625 27.640625 6.0625 
Q 34.1875 6.0625 38.53125 11.03125 
Q 42.875 16.015625 42.875 26.21875 
Q 42.875 35.84375 38.5 40.796875 
Q 34.125 45.75 27.640625 45.75 
Q 21.046875 45.75 16.703125 40.8125 
Q 12.359375 35.890625 12.359375 25.921875 
z
" id="ArialMT-111"/>
       <path d="M 6.59375 0 
L 6.59375 51.859375 
L 14.453125 51.859375 
L 14.453125 44.578125 
Q 16.890625 48.390625 20.9375 50.703125 
Q 25 53.03125 30.171875 53.03125 
Q 35.9375 53.03125 39.625 50.640625 
Q 43.3125 48.25 44.828125 43.953125 
Q 50.984375 53.03125 60.84375 53.03125 
Q 68.5625 53.03125 72.703125 48.75 
Q 76.859375 44.484375 76.859375 35.59375 
L 76.859375 0 
L 68.109375 0 
L 68.109375 32.671875 
Q 68.109375 37.9375 67.25 40.25 
Q 66.40625 42.578125 64.15625 43.984375 
Q 61.921875 45.40625 58.890625 45.40625 
Q 53.421875 45.40625 49.796875 41.765625 
Q 46.1875 38.140625 46.1875 30.125 
L 46.1875 0 
L 37.40625 0 
L 37.40625 33.6875 
Q 37.40625 39.546875 35.25 42.46875 
Q 33.109375 45.40625 28.21875 45.40625 
Q 24.515625 45.40625 21.359375 43.453125 
Q 18.21875 41.5 16.796875 37.734375 
Q 15.375 33.984375 15.375 26.90625 
L 15.375 0 
z
" id="ArialMT-109"/>
       <path d="M 42.09375 16.703125 
L 51.171875 15.578125 
Q 49.03125 7.625 43.21875 3.21875 
Q 37.40625 -1.171875 28.375 -1.171875 
Q 17 -1.171875 10.328125 5.828125 
Q 3.65625 12.84375 3.65625 25.484375 
Q 3.65625 38.578125 10.390625 45.796875 
Q 17.140625 53.03125 27.875 53.03125 
Q 38.28125 53.03125 44.875 45.953125 
Q 51.46875 38.875 51.46875 26.03125 
Q 51.46875 25.25 51.421875 23.6875 
L 12.75 23.6875 
Q 13.234375 15.140625 17.578125 10.59375 
Q 21.921875 6.0625 28.421875 6.0625 
Q 33.25 6.0625 36.671875 8.59375 
Q 40.09375 11.140625 42.09375 16.703125 
z
M 13.234375 30.90625 
L 42.1875 30.90625 
Q 41.609375 37.453125 38.875 40.71875 
Q 34.671875 45.796875 27.984375 45.796875 
Q 21.921875 45.796875 17.796875 41.75 
Q 13.671875 37.703125 13.234375 30.90625 
z
" id="ArialMT-101"/>
       <path d="M 25.78125 7.859375 
L 27.046875 0.09375 
Q 23.34375 -0.6875 20.40625 -0.6875 
Q 15.625 -0.6875 12.984375 0.828125 
Q 10.359375 2.34375 9.28125 4.8125 
Q 8.203125 7.28125 8.203125 15.1875 
L 8.203125 45.015625 
L 1.765625 45.015625 
L 1.765625 51.859375 
L 8.203125 51.859375 
L 8.203125 64.703125 
L 16.9375 69.96875 
L 16.9375 51.859375 
L 25.78125 51.859375 
L 25.78125 45.015625 
L 16.9375 45.015625 
L 16.9375 14.703125 
Q 16.9375 10.9375 17.40625 9.859375 
Q 17.875 8.796875 18.921875 8.15625 
Q 19.96875 7.515625 21.921875 7.515625 
Q 23.390625 7.515625 25.78125 7.859375 
z
" id="ArialMT-116"/>
       <path id="ArialMT-32"/>
       <path d="M 4.5 23 
L 13.421875 23.78125 
Q 14.0625 18.40625 16.375 14.96875 
Q 18.703125 11.53125 23.578125 9.40625 
Q 28.46875 7.28125 34.578125 7.28125 
Q 39.984375 7.28125 44.140625 8.890625 
Q 48.296875 10.5 50.3125 13.296875 
Q 52.34375 16.109375 52.34375 19.4375 
Q 52.34375 22.796875 50.390625 25.3125 
Q 48.4375 27.828125 43.953125 29.546875 
Q 41.0625 30.671875 31.203125 33.03125 
Q 21.34375 35.40625 17.390625 37.5 
Q 12.25 40.1875 9.734375 44.15625 
Q 7.234375 48.140625 7.234375 53.078125 
Q 7.234375 58.5 10.296875 63.203125 
Q 13.375 67.921875 19.28125 70.359375 
Q 25.203125 72.796875 32.421875 72.796875 
Q 40.375 72.796875 46.453125 70.234375 
Q 52.546875 67.671875 55.8125 62.6875 
Q 59.078125 57.71875 59.328125 51.421875 
L 50.25 50.734375 
Q 49.515625 57.515625 45.28125 60.984375 
Q 41.0625 64.453125 32.8125 64.453125 
Q 24.21875 64.453125 20.28125 61.296875 
Q 16.359375 58.15625 16.359375 53.71875 
Q 16.359375 49.859375 19.140625 47.359375 
Q 21.875 44.875 33.421875 42.265625 
Q 44.96875 39.65625 49.265625 37.703125 
Q 55.515625 34.8125 58.484375 30.390625 
Q 61.46875 25.984375 61.46875 20.21875 
Q 61.46875 14.5 58.203125 9.4375 
Q 54.9375 4.390625 48.796875 1.578125 
Q 42.671875 -1.21875 35.015625 -1.21875 
Q 25.296875 -1.21875 18.71875 1.609375 
Q 12.15625 4.4375 8.421875 10.125 
Q 4.6875 15.828125 4.5 23 
z
" id="ArialMT-83"/>
       <path d="M 6.59375 -19.875 
L 6.59375 51.859375 
L 14.59375 51.859375 
L 14.59375 45.125 
Q 17.4375 49.078125 21 51.046875 
Q 24.5625 53.03125 29.640625 53.03125 
Q 36.28125 53.03125 41.359375 49.609375 
Q 46.4375 46.1875 49.015625 39.953125 
Q 51.609375 33.734375 51.609375 26.3125 
Q 51.609375 18.359375 48.75 11.984375 
Q 45.90625 5.609375 40.453125 2.21875 
Q 35.015625 -1.171875 29 -1.171875 
Q 24.609375 -1.171875 21.109375 0.6875 
Q 17.625 2.546875 15.375 5.375 
L 15.375 -19.875 
z
M 14.546875 25.640625 
Q 14.546875 15.625 18.59375 10.84375 
Q 22.65625 6.0625 28.421875 6.0625 
Q 34.28125 6.0625 38.453125 11.015625 
Q 42.625 15.96875 42.625 26.375 
Q 42.625 36.28125 38.546875 41.203125 
Q 34.46875 46.140625 28.8125 46.140625 
Q 23.1875 46.140625 18.859375 40.890625 
Q 14.546875 35.640625 14.546875 25.640625 
z
" id="ArialMT-112"/>
       <path d="M 3.078125 15.484375 
L 11.765625 16.84375 
Q 12.5 11.625 15.84375 8.84375 
Q 19.1875 6.0625 25.203125 6.0625 
Q 31.25 6.0625 34.171875 8.515625 
Q 37.109375 10.984375 37.109375 14.3125 
Q 37.109375 17.28125 34.515625 19 
Q 32.71875 20.171875 25.53125 21.96875 
Q 15.875 24.421875 12.140625 26.203125 
Q 8.40625 27.984375 6.46875 31.125 
Q 4.546875 34.28125 4.546875 38.09375 
Q 4.546875 41.546875 6.125 44.5 
Q 7.71875 47.46875 10.453125 49.421875 
Q 12.5 50.921875 16.03125 51.96875 
Q 19.578125 53.03125 23.640625 53.03125 
Q 29.734375 53.03125 34.34375 51.265625 
Q 38.96875 49.515625 41.15625 46.5 
Q 43.359375 43.5 44.1875 38.484375 
L 35.59375 37.3125 
Q 35.015625 41.3125 32.203125 43.546875 
Q 29.390625 45.796875 24.265625 45.796875 
Q 18.21875 45.796875 15.625 43.796875 
Q 13.03125 41.796875 13.03125 39.109375 
Q 13.03125 37.40625 14.109375 36.03125 
Q 15.1875 34.625 17.484375 33.6875 
Q 18.796875 33.203125 25.25 31.453125 
Q 34.578125 28.953125 38.25 27.359375 
Q 41.9375 25.78125 44.03125 22.75 
Q 46.140625 19.734375 46.140625 15.234375 
Q 46.140625 10.84375 43.578125 6.953125 
Q 41.015625 3.078125 36.171875 0.953125 
Q 31.34375 -1.171875 25.25 -1.171875 
Q 15.140625 -1.171875 9.84375 3.03125 
Q 4.546875 7.234375 3.078125 15.484375 
z
" id="ArialMT-115"/>
      </defs>
      <use xlink:href="#ArialMT-69"/>
      <use x="66.699219" xlink:href="#ArialMT-110"/>
      <use x="122.314453" xlink:href="#ArialMT-118"/>
      <use x="172.314453" xlink:href="#ArialMT-105"/>
      <use x="194.53125" xlink:href="#ArialMT-114"/>
      <use x="227.832031" xlink:href="#ArialMT-111"/>
      <use x="283.447266" xlink:href="#ArialMT-110"/>
      <use x="339.0625" xlink:href="#ArialMT-109"/>
      <use x="422.363281" xlink:href="#ArialMT-101"/>
      <use x="477.978516" xlink:href="#ArialMT-110"/>
      <use x="533.59375" xlink:href="#ArialMT-116"/>
      <use x="561.376953" xlink:href="#ArialMT-32"/>
      <use x="589.160156" xlink:href="#ArialMT-83"/>
      <use x="655.859375" xlink:href="#ArialMT-116"/>
      <use x="683.642578" xlink:href="#ArialMT-101"/>
      <use x="739.257812" xlink:href="#ArialMT-112"/>
      <use x="794.873047" xlink:href="#ArialMT-115"/>
     </g>
    </g>
    <g id="text_10">
     <!-- 1e5 -->
     <g style="fill:#262626;" transform="translate(500.048906 543.073437)scale(0.11 -0.11)">
      <defs>
       <path d="M 4.15625 18.75 
L 13.375 19.53125 
Q 14.40625 12.796875 18.140625 9.390625 
Q 21.875 6 27.15625 6 
Q 33.5 6 37.890625 10.78125 
Q 42.28125 15.578125 42.28125 23.484375 
Q 42.28125 31 38.0625 35.34375 
Q 33.84375 39.703125 27 39.703125 
Q 22.75 39.703125 19.328125 37.765625 
Q 15.921875 35.84375 13.96875 32.765625 
L 5.71875 33.84375 
L 12.640625 70.609375 
L 48.25 70.609375 
L 48.25 62.203125 
L 19.671875 62.203125 
L 15.828125 42.96875 
Q 22.265625 47.46875 29.34375 47.46875 
Q 38.71875 47.46875 45.15625 40.96875 
Q 51.609375 34.46875 51.609375 24.265625 
Q 51.609375 14.546875 45.953125 7.46875 
Q 39.0625 -1.21875 27.15625 -1.21875 
Q 17.390625 -1.21875 11.203125 4.25 
Q 5.03125 9.71875 4.15625 18.75 
z
" id="ArialMT-53"/>
      </defs>
      <use xlink:href="#ArialMT-49"/>
      <use x="55.615234" xlink:href="#ArialMT-101"/>
      <use x="111.230469" xlink:href="#ArialMT-53"/>
     </g>
    </g>
   </g>
   <g id="matplotlib.axis_2">
    <g id="ytick_1">
     <g id="line2d_9">
      <path clip-path="url(#pbfbe57ccf4)" d="M 72 488.596367 
L 518.4 488.596367 
" style="fill:none;stroke:#ffffff;stroke-linecap:round;"/>
     </g>
     <g id="text_11">
      <!-- −15.00 -->
      <g style="fill:#262626;" transform="translate(28.55125 492.533164)scale(0.11 -0.11)">
       <defs>
        <path d="M 52.828125 31.203125 
L 5.5625 31.203125 
L 5.5625 39.40625 
L 52.828125 39.40625 
z
" id="ArialMT-8722"/>
       </defs>
       <use xlink:href="#ArialMT-8722"/>
       <use x="58.398438" xlink:href="#ArialMT-49"/>
       <use x="114.013672" xlink:href="#ArialMT-53"/>
       <use x="169.628906" xlink:href="#ArialMT-46"/>
       <use x="197.412109" xlink:href="#ArialMT-48"/>
       <use x="253.027344" xlink:href="#ArialMT-48"/>
      </g>
     </g>
    </g>
    <g id="ytick_2">
     <g id="line2d_10">
      <path clip-path="url(#pbfbe57ccf4)" d="M 72 405.118833 
L 518.4 405.118833 
" style="fill:none;stroke:#ffffff;stroke-linecap:round;"/>
     </g>
     <g id="text_12">
      <!-- −10.00 -->
      <g style="fill:#262626;" transform="translate(28.55125 409.05563)scale(0.11 -0.11)">
       <use xlink:href="#ArialMT-8722"/>
       <use x="58.398438" xlink:href="#ArialMT-49"/>
       <use x="114.013672" xlink:href="#ArialMT-48"/>
       <use x="169.628906" xlink:href="#ArialMT-46"/>
       <use x="197.412109" xlink:href="#ArialMT-48"/>
       <use x="253.027344" xlink:href="#ArialMT-48"/>
      </g>
     </g>
    </g>
    <g id="ytick_3">
     <g id="line2d_11">
      <path clip-path="url(#pbfbe57ccf4)" d="M 72 321.6413 
L 518.4 321.6413 
" style="fill:none;stroke:#ffffff;stroke-linecap:round;"/>
     </g>
     <g id="text_13">
      <!-- −5.00 -->
      <g style="fill:#262626;" transform="translate(34.668281 325.578096)scale(0.11 -0.11)">
       <use xlink:href="#ArialMT-8722"/>
       <use x="58.398438" xlink:href="#ArialMT-53"/>
       <use x="114.013672" xlink:href="#ArialMT-46"/>
       <use x="141.796875" xlink:href="#ArialMT-48"/>
       <use x="197.412109" xlink:href="#ArialMT-48"/>
      </g>
     </g>
    </g>
    <g id="ytick_4">
     <g id="line2d_12">
      <path clip-path="url(#pbfbe57ccf4)" d="M 72 238.163766 
L 518.4 238.163766 
" style="fill:none;stroke:#ffffff;stroke-linecap:round;"/>
     </g>
     <g id="text_14">
      <!-- 0.00 -->
      <g style="fill:#262626;" transform="translate(41.092969 242.100563)scale(0.11 -0.11)">
       <use xlink:href="#ArialMT-48"/>
       <use x="55.615234" xlink:href="#ArialMT-46"/>
       <use x="83.398438" xlink:href="#ArialMT-48"/>
       <use x="139.013672" xlink:href="#ArialMT-48"/>
      </g>
     </g>
    </g>
    <g id="ytick_5">
     <g id="line2d_13">
      <path clip-path="url(#pbfbe57ccf4)" d="M 72 154.686232 
L 518.4 154.686232 
" style="fill:none;stroke:#ffffff;stroke-linecap:round;"/>
     </g>
     <g id="text_15">
      <!-- 5.00 -->
      <g style="fill:#262626;" transform="translate(41.092969 158.623029)scale(0.11 -0.11)">
       <use xlink:href="#ArialMT-53"/>
       <use x="55.615234" xlink:href="#ArialMT-46"/>
       <use x="83.398438" xlink:href="#ArialMT-48"/>
       <use x="139.013672" xlink:href="#ArialMT-48"/>
      </g>
     </g>
    </g>
    <g id="ytick_6">
     <g id="line2d_14">
      <path clip-path="url(#pbfbe57ccf4)" d="M 72 71.208699 
L 518.4 71.208699 
" style="fill:none;stroke:#ffffff;stroke-linecap:round;"/>
     </g>
     <g id="text_16">
      <!-- 10.00 -->
      <g style="fill:#262626;" transform="translate(34.975938 75.145495)scale(0.11 -0.11)">
       <use xlink:href="#ArialMT-49"/>
       <use x="55.615234" xlink:href="#ArialMT-48"/>
       <use x="111.230469" xlink:href="#ArialMT-46"/>
       <use x="139.013672" xlink:href="#ArialMT-48"/>
       <use x="194.628906" xlink:href="#ArialMT-48"/>
      </g>
     </g>
    </g>
    <g id="ytick_7">
     <g id="line2d_15">
      <path clip-path="url(#pbfbe57ccf4)" d="M 72 89.28 
L 518.4 89.28 
" style="fill:none;stroke:#ffffff;stroke-linecap:round;"/>
     </g>
     <g id="text_17">
      <!-- 8.92 -->
      <g style="fill:#262626;" transform="translate(41.092969 93.216797)scale(0.11 -0.11)">
       <defs>
        <path d="M 5.46875 16.546875 
L 13.921875 17.328125 
Q 14.984375 11.375 18.015625 8.6875 
Q 21.046875 6 25.78125 6 
Q 29.828125 6 32.875 7.859375 
Q 35.9375 9.71875 37.890625 12.8125 
Q 39.84375 15.921875 41.15625 21.1875 
Q 42.484375 26.46875 42.484375 31.9375 
Q 42.484375 32.515625 42.4375 33.6875 
Q 39.796875 29.5 35.234375 26.875 
Q 30.671875 24.265625 25.34375 24.265625 
Q 16.453125 24.265625 10.296875 30.703125 
Q 4.15625 37.15625 4.15625 47.703125 
Q 4.15625 58.59375 10.578125 65.234375 
Q 17 71.875 26.65625 71.875 
Q 33.640625 71.875 39.421875 68.109375 
Q 45.21875 64.359375 48.21875 57.390625 
Q 51.21875 50.4375 51.21875 37.25 
Q 51.21875 23.53125 48.234375 15.40625 
Q 45.265625 7.28125 39.375 3.03125 
Q 33.5 -1.21875 25.59375 -1.21875 
Q 17.1875 -1.21875 11.859375 3.4375 
Q 6.546875 8.109375 5.46875 16.546875 
z
M 41.453125 48.140625 
Q 41.453125 55.71875 37.421875 60.15625 
Q 33.40625 64.59375 27.734375 64.59375 
Q 21.875 64.59375 17.53125 59.8125 
Q 13.1875 55.03125 13.1875 47.40625 
Q 13.1875 40.578125 17.3125 36.296875 
Q 21.4375 32.03125 27.484375 32.03125 
Q 33.59375 32.03125 37.515625 36.296875 
Q 41.453125 40.578125 41.453125 48.140625 
z
" id="ArialMT-57"/>
       </defs>
       <use xlink:href="#ArialMT-56"/>
       <use x="55.615234" xlink:href="#ArialMT-46"/>
       <use x="83.398438" xlink:href="#ArialMT-57"/>
       <use x="139.013672" xlink:href="#ArialMT-50"/>
      </g>
     </g>
    </g>
    <g id="text_18">
     <!-- avg reward -->
     <g style="fill:#262626;" transform="translate(21.394219 327.978047)rotate(-90)scale(0.15 -0.15)">
      <defs>
       <path d="M 40.4375 6.390625 
Q 35.546875 2.25 31.03125 0.53125 
Q 26.515625 -1.171875 21.34375 -1.171875 
Q 12.796875 -1.171875 8.203125 3 
Q 3.609375 7.171875 3.609375 13.671875 
Q 3.609375 17.484375 5.34375 20.625 
Q 7.078125 23.78125 9.890625 25.6875 
Q 12.703125 27.59375 16.21875 28.5625 
Q 18.796875 29.25 24.03125 29.890625 
Q 34.671875 31.15625 39.703125 32.90625 
Q 39.75 34.71875 39.75 35.203125 
Q 39.75 40.578125 37.25 42.78125 
Q 33.890625 45.75 27.25 45.75 
Q 21.046875 45.75 18.09375 43.578125 
Q 15.140625 41.40625 13.71875 35.890625 
L 5.125 37.0625 
Q 6.296875 42.578125 8.984375 45.96875 
Q 11.671875 49.359375 16.75 51.1875 
Q 21.828125 53.03125 28.515625 53.03125 
Q 35.15625 53.03125 39.296875 51.46875 
Q 43.453125 49.90625 45.40625 47.53125 
Q 47.359375 45.171875 48.140625 41.546875 
Q 48.578125 39.3125 48.578125 33.453125 
L 48.578125 21.734375 
Q 48.578125 9.46875 49.140625 6.21875 
Q 49.703125 2.984375 51.375 0 
L 42.1875 0 
Q 40.828125 2.734375 40.4375 6.390625 
z
M 39.703125 26.03125 
Q 34.90625 24.078125 25.34375 22.703125 
Q 19.921875 21.921875 17.671875 20.9375 
Q 15.4375 19.96875 14.203125 18.09375 
Q 12.984375 16.21875 12.984375 13.921875 
Q 12.984375 10.40625 15.640625 8.0625 
Q 18.3125 5.71875 23.4375 5.71875 
Q 28.515625 5.71875 32.46875 7.9375 
Q 36.421875 10.15625 38.28125 14.015625 
Q 39.703125 17 39.703125 22.796875 
z
" id="ArialMT-97"/>
       <path d="M 4.984375 -4.296875 
L 13.53125 -5.5625 
Q 14.0625 -9.515625 16.5 -11.328125 
Q 19.78125 -13.765625 25.4375 -13.765625 
Q 31.546875 -13.765625 34.859375 -11.328125 
Q 38.1875 -8.890625 39.359375 -4.5 
Q 40.046875 -1.8125 39.984375 6.78125 
Q 34.234375 0 25.640625 0 
Q 14.9375 0 9.078125 7.71875 
Q 3.21875 15.4375 3.21875 26.21875 
Q 3.21875 33.640625 5.90625 39.90625 
Q 8.59375 46.1875 13.6875 49.609375 
Q 18.796875 53.03125 25.6875 53.03125 
Q 34.859375 53.03125 40.828125 45.609375 
L 40.828125 51.859375 
L 48.921875 51.859375 
L 48.921875 7.03125 
Q 48.921875 -5.078125 46.453125 -10.125 
Q 44 -15.1875 38.640625 -18.109375 
Q 33.296875 -21.046875 25.484375 -21.046875 
Q 16.21875 -21.046875 10.5 -16.875 
Q 4.78125 -12.703125 4.984375 -4.296875 
z
M 12.25 26.859375 
Q 12.25 16.65625 16.296875 11.96875 
Q 20.359375 7.28125 26.46875 7.28125 
Q 32.515625 7.28125 36.609375 11.9375 
Q 40.71875 16.609375 40.71875 26.5625 
Q 40.71875 36.078125 36.5 40.90625 
Q 32.28125 45.75 26.3125 45.75 
Q 20.453125 45.75 16.34375 40.984375 
Q 12.25 36.234375 12.25 26.859375 
z
" id="ArialMT-103"/>
       <path d="M 16.15625 0 
L 0.296875 51.859375 
L 9.375 51.859375 
L 17.625 21.921875 
L 20.703125 10.796875 
Q 20.90625 11.625 23.390625 21.484375 
L 31.640625 51.859375 
L 40.671875 51.859375 
L 48.4375 21.78125 
L 51.03125 11.859375 
L 54 21.875 
L 62.890625 51.859375 
L 71.4375 51.859375 
L 55.21875 0 
L 46.09375 0 
L 37.84375 31.0625 
L 35.84375 39.890625 
L 25.34375 0 
z
" id="ArialMT-119"/>
       <path d="M 40.234375 0 
L 40.234375 6.546875 
Q 35.296875 -1.171875 25.734375 -1.171875 
Q 19.53125 -1.171875 14.328125 2.25 
Q 9.125 5.671875 6.265625 11.796875 
Q 3.421875 17.921875 3.421875 25.875 
Q 3.421875 33.640625 6 39.96875 
Q 8.59375 46.296875 13.765625 49.65625 
Q 18.953125 53.03125 25.34375 53.03125 
Q 30.03125 53.03125 33.6875 51.046875 
Q 37.359375 49.078125 39.65625 45.90625 
L 39.65625 71.578125 
L 48.390625 71.578125 
L 48.390625 0 
z
M 12.453125 25.875 
Q 12.453125 15.921875 16.640625 10.984375 
Q 20.84375 6.0625 26.5625 6.0625 
Q 32.328125 6.0625 36.34375 10.765625 
Q 40.375 15.484375 40.375 25.140625 
Q 40.375 35.796875 36.265625 40.765625 
Q 32.171875 45.75 26.171875 45.75 
Q 20.3125 45.75 16.375 40.96875 
Q 12.453125 36.1875 12.453125 25.875 
z
" id="ArialMT-100"/>
      </defs>
      <use xlink:href="#ArialMT-97"/>
      <use x="55.615234" xlink:href="#ArialMT-118"/>
      <use x="105.615234" xlink:href="#ArialMT-103"/>
      <use x="161.230469" xlink:href="#ArialMT-32"/>
      <use x="189.013672" xlink:href="#ArialMT-114"/>
      <use x="222.314453" xlink:href="#ArialMT-101"/>
      <use x="277.929688" xlink:href="#ArialMT-119"/>
      <use x="350.146484" xlink:href="#ArialMT-97"/>
      <use x="405.761719" xlink:href="#ArialMT-114"/>
      <use x="439.0625" xlink:href="#ArialMT-100"/>
     </g>
    </g>
   </g>
   <g id="line2d_16">
    <path clip-path="url(#pbfbe57ccf4)" d="M 92.290909 455.224301 
L 93.010817 296.724262 
L 93.100806 351.509434 
L 93.430764 402.626121 
L 93.880706 124.717231 
L 93.970695 211.554995 
L 94.570618 172.342139 
L 96.400384 313.773366 
L 96.490373 360.590144 
L 96.760338 222.857755 
L 98.620101 147.259396 
L 98.770082 310.692786 
L 99.400001 425.272822 
L 99.549982 164.523599 
L 99.759955 322.323003 
L 99.939932 348.677749 
L 100.989798 246.868986 
L 101.049791 335.781098 
L 101.28976 247.958009 
L 102.159649 259.991266 
L 102.759572 291.16764 
L 104.379366 338.538603 
L 104.409362 148.901822 
L 105.009285 203.50836 
L 105.099274 185.107496 
L 105.549216 311.915666 
L 105.969163 188.276518 
L 107.828925 197.289659 
L 108.638822 268.316098 
L 109.11876 259.422151 
L 109.328734 290.282854 
L 109.35873 246.052273 
L 110.348603 172.874652 
L 110.76855 317.751019 
L 111.008519 276.996025 
L 111.068511 146.777044 
L 111.1585 414.422835 
L 111.218492 284.698079 
L 111.578446 330.895059 
L 111.878408 280.381978 
L 113.168243 293.146249 
L 113.408213 162.269503 
L 113.648182 251.68687 
L 114.308098 166.864781 
L 114.428082 270.113752 
L 114.698048 326.302041 
L 114.818033 134.766847 
L 114.878025 249.702211 
L 115.297971 179.962325 
L 115.357964 110.831613 
L 115.567937 203.111626 
L 115.807906 271.548994 
L 115.987883 284.228712 
L 116.017879 367.73567 
L 116.827776 241.782586 
L 118.957504 190.141204 
L 119.017496 158.5611 
L 120.00737 111.264518 
L 120.097359 176.154178 
L 120.607293 329.77069 
L 120.877259 280.774155 
L 120.907255 208.01757 
L 121.087232 106.605042 
L 121.117228 109.620014 
L 121.267209 236.065858 
L 121.80714 204.452679 
L 121.897129 227.449985 
L 122.167094 192.481121 
L 123.636907 224.40649 
L 123.726895 343.157 
L 123.906872 209.157965 
L 124.086849 189.019996 
L 124.23683 270.128772 
L 124.536792 186.089713 
L 124.716769 224.575446 
L 124.86675 224.173551 
L 126.42655 251.519148 
L 126.576531 360.163704 
L 126.606527 129.897534 
L 127.146458 363.917683 
L 127.536409 187.852816 
L 127.926359 363.988632 
L 129.066213 183.811722 
L 129.576148 168.333696 
L 130.176072 314.232336 
L 130.356049 179.78233 
L 130.566022 143.400617 
L 131.225938 156.953918 
L 131.315926 314.248552 
L 131.645884 279.224618 
L 131.735872 94.387722 
L 131.825861 290.695192 
L 131.855857 279.050152 
L 133.295673 110.73327 
L 133.47565 153.479004 
L 133.505646 101.482424 
L 134.165562 135.773497 
L 134.525516 200.030688 
L 134.825478 328.790168 
L 135.725363 147.703813 
L 136.055321 206.671528 
L 136.29529 313.941813 
L 136.475267 238.408694 
L 137.435145 110.953448 
L 137.555129 292.539056 
L 138.305034 210.523356 
L 138.784972 247.747425 
L 138.814969 206.905706 
L 139.264911 447.513844 
L 139.384896 161.232052 
L 139.894831 110.676396 
L 140.944697 293.1137 
L 141.184666 206.442188 
L 141.784589 98.801784 
L 142.204536 184.689939 
L 142.474501 98.179485 
L 142.654478 189.178643 
L 142.714471 105.228984 
L 142.804459 205.835523 
L 143.014432 236.714627 
L 143.284398 175.826104 
L 143.704344 236.255589 
L 143.854325 345.847472 
L 144.124291 144.27079 
L 144.99418 263.637668 
L 145.174157 173.810612 
L 145.894065 111.301489 
L 146.523984 193.908571 
L 147.063915 176.796873 
L 147.333881 230.914186 
L 147.723831 101.120643 
L 147.813819 274.005414 
L 148.053789 166.940061 
L 149.253636 155.708414 
L 149.763571 319.18481 
L 150.063532 228.058801 
L 150.153521 113.696281 
L 150.753444 138.384391 
L 151.233383 307.651789 
L 151.773314 247.300826 
L 151.893299 100.675191 
L 152.133268 319.035708 
L 152.643203 159.730115 
L 152.82318 236.695986 
L 153.543088 98.158181 
L 153.933038 210.551391 
L 154.023027 109.634471 
L 154.053023 195.362177 
L 154.292992 257.439612 
L 154.412977 410.065058 
L 154.62295 139.78059 
L 155.072893 250.395721 
L 156.092762 191.62919 
L 156.212747 137.584044 
L 156.42272 170.144307 
L 156.692686 168.733579 
L 157.352601 180.03165 
L 157.472586 148.34017 
L 157.712556 275.598807 
L 157.952525 139.812203 
L 158.07251 155.373397 
L 158.672433 271.196439 
L 158.822414 95.417897 
L 158.85241 203.647273 
L 158.912402 191.514288 
L 159.002391 277.712598 
L 159.362345 104.046722 
L 159.602314 184.927843 
L 160.172241 240.667268 
L 160.65218 161.320539 
L 161.312096 251.844415 
L 162.091996 193.358121 
L 162.361962 241.337448 
L 163.411828 188.360157 
L 163.441824 281.100104 
L 163.501816 143.353615 
L 164.821648 265.472238 
L 165.061617 170.185808 
L 165.331583 155.219017 
L 165.391575 272.144907 
L 166.29146 104.392486 
L 166.321456 112.647414 
L 166.621418 144.257615 
L 166.68141 271.190803 
L 166.831391 162.215949 
L 167.251338 200.546321 
L 167.70128 305.765891 
L 168.151223 213.900393 
L 168.3312 104.168749 
L 169.081104 105.140394 
L 169.74102 153.558567 
L 169.920997 98.320364 
L 170.430932 115.454189 
L 170.610909 125.240717 
L 171.390809 104.535371 
L 172.080721 146.786494 
L 172.290694 317.554079 
L 172.440675 342.775881 
L 172.830625 293.64242 
L 173.040598 107.851478 
L 173.490541 185.322531 
L 173.940483 155.256816 
L 174.36043 171.037201 
L 175.410296 139.061262 
L 175.470288 247.813106 
L 177.899978 256.562371 
L 178.169943 161.533059 
L 178.439909 194.90698 
L 178.619886 99.426964 
L 179.339794 288.941897 
L 180.989583 200.96504 
L 182.069445 104.041691 
L 182.549384 142.109806 
L 182.639373 224.4846 
L 182.879342 304.327961 
L 182.969331 229.981238 
L 183.689239 214.559672 
L 183.809223 219.642905 
L 184.709108 218.766102 
L 185.39902 171.81591 
L 185.848963 161.371769 
L 186.568871 184.772977 
L 187.04881 179.089612 
L 187.588741 174.817444 
L 187.618737 137.263381 
L 188.638607 112.706946 
L 188.938568 250.771218 
L 189.118545 106.856356 
L 189.148542 323.305156 
L 189.898446 174.032331 
L 190.888319 185.989969 
L 191.578231 107.190942 
L 192.088166 99.09717 
L 193.018047 342.213481 
L 193.827944 246.122652 
L 193.977925 105.421801 
L 194.637841 139.817553 
L 195.207768 140.740571 
L 195.26776 222.120863 
L 195.65771 190.547524 
L 196.137649 141.764074 
L 197.007538 124.851613 
L 197.097527 184.224235 
L 197.847431 150.545664 
L 198.627331 210.083089 
L 199.137266 178.430526 
L 199.737189 156.328539 
L 200.277121 193.918203 
L 200.337113 174.138009 
L 200.397105 218.029413 
L 200.577082 163.445165 
L 201.416975 106.627293 
L 201.836921 148.979752 
L 203.516707 139.367507 
L 203.636692 181.752308 
L 203.876661 167.262666 
L 203.966649 266.080232 
L 204.896531 175.789081 
L 205.52645 157.430123 
L 205.676431 300.340376 
L 206.15637 209.270707 
L 206.366343 109.186297 
L 206.666305 166.675356 
L 206.786289 160.71964 
L 207.656178 138.052431 
L 208.016132 140.49276 
L 209.575933 178.611432 
L 209.785906 256.913304 
L 210.415826 98.252297 
L 210.595803 95.47598 
L 211.255719 220.614243 
L 212.005623 312.84979 
L 212.035619 155.096449 
L 212.395573 194.738903 
L 212.725531 186.335745 
L 212.81552 306.399383 
L 214.525301 113.462425 
L 214.675282 146.14454 
L 214.705278 98.92553 
L 215.00524 98.806226 
L 217.524918 189.156038 
L 217.614907 263.019615 
L 217.764888 222.147756 
L 217.794884 310.187714 
L 218.544788 254.377499 
L 219.024727 194.420262 
L 219.62465 168.587064 
L 219.714639 186.994266 
L 219.744635 170.041291 
L 220.194577 187.003815 
L 220.674516 358.267034 
L 220.854493 146.418288 
L 221.244443 205.681785 
L 221.304436 322.235599 
L 222.024344 102.766699 
L 222.804244 209.394959 
L 223.524152 100.551954 
L 223.734125 278.216978 
L 223.914102 155.43812 
L 224.034087 192.774891 
L 224.63401 432.954666 
L 224.723999 261.278568 
L 225.983838 245.008874 
L 226.493773 218.323993 
L 227.003708 98.658835 
L 227.033704 191.791575 
L 227.633627 144.656041 
L 227.723616 100.367672 
L 227.993581 147.714536 
L 228.323539 305.243965 
L 229.163432 159.219295 
L 229.583378 243.933799 
L 229.643371 166.428851 
L 229.703363 190.723937 
L 230.573252 101.174077 
L 231.413145 165.944358 
L 231.653114 203.712418 
L 231.773099 149.381315 
L 232.013068 208.032618 
L 232.343026 227.882631 
L 233.122927 290.815388 
L 233.272907 286.013362 
L 233.752846 229.88164 
L 234.232785 234.824529 
L 234.472754 158.932634 
L 235.012685 230.000782 
L 235.552616 103.315995 
L 235.732593 107.686549 
L 235.792586 236.319493 
L 235.882574 224.659422 
L 236.93244 112.664148 
L 237.292394 250.480873 
L 237.862321 95.215288 
L 238.552233 95.817843 
L 239.152157 284.52899 
L 239.872065 134.245909 
L 240.352003 277.168867 
L 240.591973 138.878572 
L 240.861938 140.681803 
L 240.951927 205.795746 
L 241.011919 101.843983 
L 242.541724 300.949368 
L 242.631712 185.665421 
L 243.231636 266.050876 
L 243.291628 192.638904 
L 243.321624 244.790308 
L 243.531597 188.851652 
L 244.071529 162.171598 
L 244.911421 105.100692 
L 245.571337 194.062203 
L 245.751314 110.701235 
L 246.531214 188.405623 
L 246.681195 149.489784 
L 247.19113 108.656052 
L 247.731061 279.860578 
L 247.971031 174.711598 
L 248.900912 105.088902 
L 249.710808 187.232767 
L 250.40072 146.520627 
L 251.270609 224.013404 
L 251.600567 176.48677 
L 252.080506 199.890976 
L 252.500452 112.552072 
L 253.130372 182.167819 
L 254.330219 170.774001 
L 254.990134 215.4592 
L 255.140115 115.258053 
L 256.249973 218.31569 
L 256.579931 265.852988 
L 256.759908 157.245332 
L 257.179855 192.441192 
L 257.239847 163.076561 
L 258.199724 145.829004 
L 258.919633 149.894261 
L 259.279587 259.615181 
L 259.339579 142.518757 
L 259.519556 164.001403 
L 259.87951 255.022856 
L 260.629414 300.411687 
L 261.469307 121.222001 
L 261.529299 147.684937 
L 261.649284 136.19095 
L 262.099227 135.699754 
L 263.32907 215.236219 
L 263.419058 106.353035 
L 263.958989 356.943288 
L 264.49892 207.835041 
L 265.008855 176.516573 
L 265.098844 361.794761 
L 265.398805 198.234607 
L 265.938736 296.902804 
L 265.968732 179.99487 
L 266.478667 164.322886 
L 266.568656 135.948584 
L 267.588526 209.75428 
L 267.648518 183.229447 
L 267.858491 146.114463 
L 268.668388 278.174132 
L 268.938353 281.189502 
L 269.568273 284.212054 
L 270.288181 98.027206 
L 270.618139 164.466152 
L 271.428035 225.776478 
L 272.027959 242.182006 
L 272.17794 106.883391 
L 272.627882 217.032102 
L 272.777863 206.115461 
L 273.527767 254.3026 
L 274.067698 157.278545 
L 274.187683 201.28044 
L 274.337664 101.827042 
L 274.877595 211.81281 
L 275.417526 102.68236 
L 275.597503 107.717812 
L 275.657495 152.384999 
L 276.077442 303.05954 
L 276.197426 196.18784 
L 276.887338 373.168274 
L 277.157304 201.873744 
L 277.727231 208.122313 
L 278.057189 226.094271 
L 278.297158 117.334961 
L 278.687109 247.397549 
L 279.22704 182.074738 
L 280.39689 156.052792 
L 281.086802 227.899978 
L 281.206787 163.463332 
L 281.236783 256.713502 
L 281.446756 143.86496 
L 281.956691 189.906684 
L 282.286649 129.735368 
L 282.616607 293.004614 
L 282.82658 187.553584 
L 283.006557 239.582849 
L 283.726465 209.21323 
L 285.376254 232.863257 
L 285.496239 99.215391 
L 285.886189 149.739689 
L 286.576101 185.299819 
L 286.606097 109.61097 
L 286.726082 197.560064 
L 287.326005 309.620737 
L 287.385998 103.149991 
L 287.625967 158.899627 
L 288.225891 112.12341 
L 288.945799 228.817369 
L 289.155772 125.295839 
L 289.24576 182.758468 
L 289.815688 178.858384 
L 291.435481 212.215131 
L 291.705446 395.246621 
L 291.765439 105.519841 
L 291.885423 274.084948 
L 292.0654 175.933025 
L 292.155389 252.267635 
L 292.365362 195.667359 
L 292.605331 184.767114 
L 292.69532 137.3323 
L 293.055274 201.446846 
L 293.86517 120.715018 
L 293.985155 297.278541 
L 294.315113 111.556624 
L 294.645071 217.725379 
L 296.68481 104.246019 
L 297.104757 104.639111 
L 297.764673 155.072534 
L 297.794669 108.39891 
L 298.574569 152.325864 
L 298.994515 107.737468 
L 299.74442 259.986438 
L 300.614309 151.306708 
L 300.704297 203.453943 
L 301.484198 200.917413 
L 302.144113 153.747363 
L 302.894018 140.810111 
L 303.103991 105.103646 
L 303.673918 252.417609 
L 304.453818 207.934936 
L 304.903761 233.203405 
L 305.14373 113.76594 
L 305.173726 300.0748 
L 305.833642 269.414854 
L 305.953627 135.547005 
L 306.373573 166.979834 
L 306.973497 145.808114 
L 307.57342 119.553256 
L 307.843386 133.768828 
L 308.113351 196.07016 
L 308.173343 130.631661 
L 308.20334 231.204938 
L 308.773267 492.48 
L 308.863255 225.193248 
L 309.133221 112.649181 
L 310.243079 177.365625 
L 310.723018 216.192684 
L 311.052976 101.851801 
L 311.592907 108.452329 
L 311.892869 260.547699 
L 311.922865 144.747012 
L 312.312815 102.481105 
L 312.462796 114.724695 
L 312.492792 201.984681 
L 313.182704 199.097965 
L 313.302689 205.548918 
L 313.752631 152.581716 
L 314.652516 178.701945 
L 314.922482 229.441748 
L 315.01247 341.034882 
L 315.222443 136.764097 
L 315.762374 287.917188 
L 316.062336 139.748976 
L 316.782244 183.763139 
L 317.05221 223.174542 
L 317.622137 201.45077 
L 318.132072 107.797924 
L 319.601884 186.54504 
L 319.991834 166.539907 
L 320.081823 252.149686 
L 321.011704 266.797211 
L 321.0417 244.866335 
L 321.551635 108.578878 
L 321.851597 107.422346 
L 322.001578 254.594866 
L 322.331536 107.381124 
L 322.511513 102.889299 
L 322.721486 232.695828 
L 323.261417 242.47252 
L 323.561379 273.148181 
L 324.10131 101.42969 
L 324.431268 235.311834 
L 324.521256 152.61145 
L 325.121179 256.120066 
L 325.361149 197.768357 
L 325.66111 190.389461 
L 326.021065 237.658781 
L 326.710976 275.793909 
L 326.860957 190.629909 
L 328.690724 190.479246 
L 328.840704 308.826162 
L 329.680597 166.434853 
L 330.970433 104.361709 
L 331.450371 229.622489 
L 331.480367 136.666884 
L 332.500237 192.893487 
L 332.830195 160.081061 
L 333.190149 281.033589 
L 333.280138 199.545579 
L 333.700084 105.001474 
L 335.499854 235.226163 
L 336.219762 301.888153 
L 337.119647 188.229031 
L 337.659578 230.545849 
L 338.169513 284.914444 
L 338.34949 105.253011 
L 339.609329 319.006841 
L 340.089268 99.655493 
L 340.419226 250.190885 
L 340.689192 251.544789 
L 340.929161 190.570054 
L 341.529084 298.130105 
L 341.589077 100.500876 
L 341.739058 256.493393 
L 341.919035 268.866902 
L 342.278989 189.115799 
L 342.518958 188.717054 
L 342.758927 283.772966 
L 342.9689 250.590433 
L 343.028893 255.089774 
L 344.558697 215.825101 
L 345.128625 102.774389 
L 345.728548 229.011974 
L 345.758544 290.556045 
L 345.818537 101.474654 
L 346.238483 109.019441 
L 346.358468 142.017132 
L 346.658429 182.633731 
L 346.80841 153.138256 
L 346.928395 165.21972 
L 346.958391 254.395466 
L 347.408334 174.176772 
L 348.338215 107.20118 
L 348.908142 179.657441 
L 349.058123 159.149286 
L 349.478069 153.542884 
L 349.748035 164.231517 
L 350.197977 124.639125 
L 350.527935 246.17673 
L 350.767905 181.677431 
L 351.03787 202.86118 
L 352.177725 149.533992 
L 352.417694 254.033296 
L 352.44769 157.221122 
L 352.567675 236.755144 
L 353.527552 265.572497 
L 354.937372 180.726624 
L 355.057357 210.883353 
L 355.597288 103.176613 
L 355.747269 180.34291 
L 356.2872 104.747166 
L 356.377188 178.037019 
L 357.007108 237.231367 
L 357.337066 103.776334 
L 358.056974 169.040429 
L 358.266947 279.53498 
L 358.776882 104.143306 
L 358.836874 205.885881 
L 358.926863 166.604607 
L 359.556782 146.980576 
L 359.616775 325.113482 
L 359.766756 134.021113 
L 360.096713 208.720187 
L 360.456667 103.377645 
L 360.966602 98.12586 
L 361.506533 151.865517 
L 361.68651 148.149153 
L 361.836491 149.800384 
L 361.986472 272.390867 
L 362.526403 182.692754 
L 362.556399 252.678284 
L 363.366296 192.557973 
L 363.906227 105.119528 
L 364.236185 170.604065 
L 364.866104 249.63062 
L 365.406036 108.821474 
L 366.365913 245.03121 
L 366.395909 268.235817 
L 366.575886 105.074731 
L 368.135687 305.685668 
L 368.195679 255.274134 
L 368.495641 150.789081 
L 368.705614 193.87771 
L 369.515511 234.60664 
L 370.14543 204.578754 
L 370.445392 248.216656 
L 370.925331 98.549833 
L 370.985323 216.744052 
L 371.195296 229.177221 
L 372.155174 255.624677 
L 372.305155 309.443182 
L 372.785093 190.943259 
L 374.074929 274.825635 
L 374.164917 104.484213 
L 374.764841 163.04209 
L 374.944818 231.13779 
L 374.974814 197.423687 
L 375.754714 318.037481 
L 375.964687 238.650299 
L 377.82445 312.992818 
L 377.854446 102.655483 
L 378.124412 178.776667 
L 378.334385 146.43749 
L 378.424373 109.957578 
L 378.634346 239.157769 
L 378.724335 164.798128 
L 379.384251 106.207149 
L 379.714209 280.736997 
L 380.044166 267.093702 
L 380.344128 182.973548 
L 380.40412 100.882656 
L 380.434117 138.417015 
L 380.524105 173.406502 
L 381.244013 192.014186 
L 381.543975 109.58114 
L 382.113902 106.413523 
L 382.413864 192.717942 
L 382.653833 337.85955 
L 383.013787 281.016959 
L 384.213634 230.647983 
L 384.513596 168.394535 
L 384.753565 191.259085 
L 385.023531 144.661781 
L 386.073397 235.099622 
L 386.913289 103.339384 
L 387.003278 236.843178 
L 388.203125 105.701806 
L 388.923033 106.754661 
L 389.222994 239.198788 
L 390.872784 107.811131 
L 391.262734 254.434539 
L 391.592692 148.649584 
L 392.132623 191.230175 
L 393.212485 231.261105 
L 393.362466 101.703821 
L 393.392462 158.820718 
L 393.452454 263.979887 
L 393.872401 107.894165 
L 394.232355 196.414403 
L 394.532316 106.106617 
L 394.922267 187.153928 
L 395.072247 156.592917 
L 395.102244 110.92904 
L 395.552186 183.471017 
L 395.732163 158.753176 
L 396.032125 184.65265 
L 396.752033 232.169589 
L 397.261968 106.456019 
L 397.921884 279.596861 
L 399.061738 179.924168 
L 399.151727 104.578313 
L 399.391696 184.82677 
L 399.871635 272.299252 
L 399.991619 145.420062 
L 400.1416 186.488218 
L 400.201593 128.736465 
L 400.261585 200.795083 
L 400.351573 182.637138 
L 401.401439 204.616915 
L 401.611413 115.155945 
L 402.091351 112.76171 
L 402.691275 233.342926 
L 403.531167 200.17675 
L 403.59116 102.333778 
L 403.621156 156.791879 
L 403.681148 316.794922 
L 403.861125 119.591756 
L 404.131091 106.714275 
L 404.311068 141.634063 
L 404.461049 193.184287 
L 405.330938 156.523401 
L 405.750884 294.258784 
L 406.080842 198.145873 
L 406.380804 249.133663 
L 406.500788 106.153022 
L 406.530784 188.625327 
L 407.370677 217.614478 
L 407.640643 100.986993 
L 407.880612 237.158926 
L 408.330555 171.032345 
L 408.360551 236.762824 
L 408.720505 124.708991 
L 409.650386 149.467891 
L 409.920352 115.407108 
L 410.310302 273.220634 
L 410.430286 107.337744 
L 410.580267 98.712031 
L 410.850233 284.385827 
L 411.090202 251.327364 
L 411.300175 299.184752 
L 411.330172 163.507054 
L 411.840106 204.06502 
L 412.739992 196.099448 
L 413.039953 275.205707 
L 414.419777 267.768342 
L 414.449773 218.873894 
L 414.62975 108.07328 
L 415.109689 253.10755 
L 415.319662 190.870396 
L 416.159555 185.132605 
L 416.189551 201.838274 
L 416.609497 114.423442 
L 416.939455 179.444483 
L 417.209421 176.557389 
L 417.629367 98.557937 
L 417.959325 199.247947 
L 418.769222 116.079155 
L 418.85921 200.378849 
L 419.129176 147.311843 
L 419.87908 274.862216 
L 419.999065 178.56861 
L 420.26903 148.367349 
L 420.688977 241.53379 
L 420.868954 106.841461 
L 420.928946 259.461981 
L 421.948816 190.817929 
L 422.128793 98.96059 
L 422.30877 192.908525 
L 422.368762 128.123536 
L 422.398758 163.066586 
L 422.69872 173.870797 
L 422.848701 101.048404 
L 423.268647 139.814551 
L 423.538613 109.352547 
L 424.018551 114.923857 
L 424.768456 104.669116 
L 425.338383 193.256721 
L 425.608348 254.161384 
L 426.148279 212.451142 
L 426.688211 105.842756 
L 426.958176 265.613457 
L 427.648088 214.006462 
L 427.70808 241.077018 
L 427.738076 191.366687 
L 429.267881 230.269053 
L 429.597839 136.875726 
L 429.867805 100.429306 
L 430.377739 111.260107 
L 431.007659 102.859493 
L 431.457602 203.87218 
L 431.93754 167.532895 
L 432.537464 280.5811 
L 432.747437 136.671709 
L 433.107391 209.257098 
L 434.037272 105.10308 
L 434.277241 148.114976 
L 434.337234 184.53046 
L 435.357104 133.601964 
L 435.447092 260.036065 
L 435.867038 102.121664 
L 435.927031 105.282076 
L 435.957027 141.791803 
L 436.286985 177.406111 
L 436.466962 98.593316 
L 437.306855 327.973621 
L 437.396843 164.447746 
L 437.426839 208.31471 
L 437.606816 288.64905 
L 437.666809 103.15878 
L 438.176744 102.047021 
L 438.416713 189.17891 
L 438.686678 159.519354 
L 439.136621 185.039763 
L 439.61656 195.184426 
L 440.78641 104.071306 
L 441.206357 236.755313 
L 441.506318 165.680282 
L 441.836276 224.846759 
L 442.046249 284.416206 
L 442.256223 196.438696 
L 442.316215 104.041516 
L 443.396077 346.585564 
L 444.475939 278.227383 
L 444.775901 143.287825 
L 445.285836 300.508987 
L 445.465813 104.957107 
L 445.735778 227.153181 
L 446.635663 107.151376 
L 447.325575 163.464598 
L 447.355572 110.963933 
L 447.895503 149.42932 
L 448.735395 177.485964 
L 448.885376 213.351191 
L 449.305323 135.439826 
L 449.695273 193.005172 
L 449.935242 106.783735 
L 450.085223 269.525847 
L 450.175211 249.157265 
L 450.775135 89.28 
L 450.925116 174.569952 
L 451.345062 198.03119 
L 451.645024 158.875179 
L 452.004978 290.351447 
L 452.45492 350.210384 
L 452.574905 244.400981 
L 452.934859 203.373341 
L 453.984725 170.858333 
L 454.254691 363.022337 
L 454.404671 156.349882 
L 455.694507 191.792069 
L 455.844488 236.251616 
L 456.29443 219.184192 
L 456.624388 148.895763 
L 456.744373 335.099235 
L 457.224311 211.001082 
L 457.614262 142.259776 
L 458.214185 274.045728 
L 458.484151 221.073328 
L 458.72412 101.723755 
L 459.324043 191.426502 
L 459.803982 238.19617 
L 460.403905 270.196059 
L 460.493894 109.357841 
L 460.973833 196.750263 
L 461.393779 140.99507 
L 461.453771 194.875299 
L 461.783729 153.181954 
L 463.583499 134.792928 
L 463.853465 110.586596 
L 463.883461 110.95891 
L 464.783346 209.194484 
L 465.353273 97.098742 
L 465.443262 149.46563 
L 466.103178 271.1493 
L 467.423009 252.253681 
L 468.232906 99.691557 
L 468.292898 240.548546 
L 468.922818 106.351737 
L 471.4125 235.713166 
L 472.312385 106.346109 
L 472.672339 131.611315 
L 474.442113 173.729521 
L 474.922052 132.817977 
L 475.851933 142.872681 
L 476.721822 362.213973 
L 477.621707 119.304386 
L 478.011657 189.230549 
L 478.401607 281.201444 
L 478.581584 286.269297 
L 479.841423 137.302271 
L 479.87142 357.364443 
L 480.0214 101.936235 
L 480.171381 347.436718 
L 480.471343 137.60444 
L 481.371228 96.094075 
L 481.761178 114.831246 
L 482.211121 191.30186 
L 482.721056 162.174846 
L 483.530952 261.7685 
L 483.560949 222.627328 
L 483.800918 124.90547 
L 484.160872 123.216432 
L 484.25086 183.695988 
L 484.520826 98.117278 
L 484.970769 199.748987 
L 485.090753 295.914668 
L 485.150746 134.486109 
L 486.140619 243.03239 
L 486.68055 156.627093 
L 487.130493 276.875448 
L 487.430454 243.001671 
L 487.910393 101.497566 
L 488.030378 162.723322 
L 488.870271 98.499933 
L 489.650171 161.512703 
L 490.640045 174.002162 
L 490.790025 152.781657 
L 491.089987 194.351173 
L 492.169849 190.834388 
L 492.31983 259.916012 
L 493.759646 311.735221 
L 493.879631 118.983182 
L 494.479554 179.120194 
L 495.919371 281.015876 
L 495.949367 111.786197 
L 496.729267 145.566099 
L 496.819256 103.101413 
L 498.079095 191.510686 
L 498.109091 157.530393 
L 498.109091 157.530393 
" style="fill:none;stroke:#4c72b0;stroke-linecap:round;stroke-opacity:0.3;stroke-width:1.5;"/>
   </g>
   <g id="line2d_17">
    <path clip-path="url(#pbfbe57ccf4)" d="M 92.290909 455.224301 
L 93.010817 439.374297 
L 93.100806 430.58781 
L 93.430764 427.791642 
L 93.880706 397.4842 
L 93.970695 378.89128 
L 94.570618 358.236366 
L 96.400384 353.790066 
L 96.490373 354.470074 
L 96.760338 341.308842 
L 98.770082 320.782786 
L 99.400001 331.23179 
L 99.549982 314.560971 
L 99.759955 315.337174 
L 99.939932 318.671231 
L 100.989798 311.491007 
L 101.049791 313.920016 
L 101.28976 307.323815 
L 102.159649 302.59056 
L 102.759572 301.448268 
L 104.379366 305.157302 
L 104.409362 289.531754 
L 105.009285 280.929414 
L 105.099274 271.347223 
L 105.639205 276.606894 
L 105.669201 274.01577 
L 105.969163 265.441845 
L 107.828925 258.626626 
L 108.638822 259.595574 
L 109.11876 259.578231 
L 109.328734 262.648694 
L 109.35873 260.989052 
L 110.348603 252.177612 
L 110.76855 258.734952 
L 111.008519 260.56106 
L 111.068511 249.182658 
L 111.218492 267.605816 
L 111.578446 273.93474 
L 111.878408 274.579464 
L 113.168243 276.436143 
L 113.408213 265.019479 
L 113.648182 263.686218 
L 114.308098 254.004074 
L 114.428082 255.615042 
L 114.698048 262.683742 
L 114.878025 249.873068 
L 115.297971 242.881994 
L 115.357964 229.676956 
L 115.567937 223.348504 
L 115.987883 233.774569 
L 116.017879 247.170679 
L 116.827776 246.63187 
L 118.957504 240.982803 
L 119.017496 232.740633 
L 120.00737 220.593021 
L 120.097359 216.149137 
L 120.877259 232.837578 
L 121.117228 207.144473 
L 121.267209 210.036612 
L 121.80714 209.478218 
L 121.897129 211.275395 
L 122.167094 209.395968 
L 123.636907 210.89702 
L 123.726895 224.123018 
L 123.906872 222.626512 
L 124.086849 219.265861 
L 124.23683 224.352152 
L 124.536792 220.525908 
L 124.86675 221.255131 
L 126.42655 224.281533 
L 126.576531 237.86975 
L 126.606527 227.072528 
L 127.146458 240.757044 
L 127.536409 235.466621 
L 127.926359 248.318822 
L 129.066213 241.868112 
L 129.576148 234.51467 
L 130.176072 242.486437 
L 130.566022 226.934485 
L 131.225938 219.936429 
L 131.315926 229.367641 
L 131.645884 234.353339 
L 131.735872 220.356777 
L 131.855857 232.556572 
L 133.295673 220.374242 
L 133.47565 213.684718 
L 133.505646 202.464489 
L 134.165562 195.795389 
L 134.525516 196.218919 
L 134.825478 209.476044 
L 135.725363 203.298821 
L 136.055321 203.636092 
L 136.29529 214.666664 
L 136.475267 217.040867 
L 137.435145 206.432125 
L 137.555129 215.042818 
L 138.305034 214.590872 
L 138.784972 217.906527 
L 138.814969 216.806445 
L 139.264911 239.877185 
L 139.384896 232.012672 
L 139.894831 219.879044 
L 140.944697 227.20251 
L 141.184666 225.126478 
L 141.784589 212.494008 
L 142.204536 209.713601 
L 142.474501 198.56019 
L 142.654478 197.622035 
L 142.714471 188.38273 
L 142.804459 190.128009 
L 143.014432 194.786671 
L 143.284398 192.890614 
L 143.704344 197.227112 
L 143.854325 219.01831 
L 144.094294 216.954168 
L 144.124291 209.685831 
L 144.99418 215.081014 
L 145.174157 210.953974 
L 145.894065 200.988726 
L 146.523984 200.28071 
L 147.063915 197.932326 
L 147.333881 201.230512 
L 147.723831 191.219525 
L 147.813819 199.498114 
L 148.053789 196.242309 
L 149.253636 192.188919 
L 149.763571 204.888508 
L 150.063532 207.205538 
L 150.153521 197.854612 
L 150.753444 191.90759 
L 151.233383 203.48201 
L 151.773314 207.863891 
L 151.893299 197.145021 
L 152.133268 209.33409 
L 152.643203 204.373693 
L 152.82318 207.605922 
L 153.543088 196.661148 
L 153.933038 198.050172 
L 154.023027 189.208602 
L 154.053023 189.82396 
L 154.292992 196.585525 
L 154.412977 217.933478 
L 154.62295 210.118189 
L 155.072893 214.145942 
L 156.092762 211.894267 
L 156.212747 204.463245 
L 156.692686 197.801574 
L 157.352601 196.024581 
L 157.472586 191.25614 
L 157.712556 199.690407 
L 158.07251 189.869668 
L 158.672433 198.002345 
L 158.822414 187.7439 
L 158.85241 189.334237 
L 158.912402 189.552242 
L 159.002391 198.368278 
L 159.362345 188.936122 
L 159.452333 183.505809 
L 159.602314 183.648013 
L 160.172241 189.349938 
L 160.65218 186.546998 
L 160.952142 187.661886 
L 161.312096 194.080139 
L 162.091996 194.007937 
L 162.361962 198.740888 
L 163.411828 197.702815 
L 163.441824 206.042544 
L 163.501816 199.773651 
L 164.821648 206.34351 
L 165.331583 197.976867 
L 165.391575 205.393671 
L 165.541556 209.157603 
L 166.29146 198.681092 
L 166.321456 190.077724 
L 166.621418 185.495713 
L 166.68141 194.065222 
L 166.831391 190.880295 
L 167.251338 191.846897 
L 167.431315 196.188784 
L 167.70128 207.146495 
L 168.151223 207.821884 
L 168.3312 190.779878 
L 169.081104 182.21593 
L 169.74102 179.350194 
L 169.920997 171.247211 
L 170.430932 165.667909 
L 170.610909 161.625189 
L 171.390809 155.916208 
L 172.080721 155.003236 
L 172.440675 188.410077 
L 172.830625 198.933311 
L 173.040598 189.825128 
L 173.490541 189.374868 
L 173.940483 185.963063 
L 174.36043 184.470477 
L 175.410296 179.929555 
L 175.440292 180.766292 
L 175.470288 187.470974 
L 177.899978 194.380113 
L 178.169943 191.095408 
L 178.439909 191.476565 
L 178.619886 182.271605 
L 179.339794 192.938634 
L 180.749614 194.709667 
L 180.989583 195.335205 
L 182.549384 181.796249 
L 182.969331 201.100358 
L 183.689239 202.44629 
L 183.809223 204.165951 
L 184.709108 205.625966 
L 185.39902 202.24496 
L 185.848963 198.157641 
L 187.588741 191.458244 
L 187.618737 186.038758 
L 188.638607 178.705576 
L 188.938568 185.912141 
L 189.058553 180.984676 
L 189.118545 173.571844 
L 189.148542 188.545175 
L 189.898446 187.093891 
L 190.888319 186.983498 
L 191.578231 179.004243 
L 192.088166 171.013536 
L 193.018047 188.13353 
L 193.827944 193.932442 
L 193.977925 185.081378 
L 195.207768 176.573553 
L 195.26776 181.128284 
L 195.65771 182.070208 
L 196.137649 178.039595 
L 197.007538 172.720797 
L 197.097527 173.87114 
L 197.847431 171.538593 
L 198.627331 175.393042 
L 199.137266 175.696791 
L 199.737189 173.759966 
L 200.277121 175.775789 
L 200.337113 175.612011 
L 200.397105 179.853752 
L 201.416975 171.054333 
L 201.836921 168.846875 
L 203.516707 165.898938 
L 203.636692 167.484275 
L 203.876661 167.462114 
L 203.966649 177.323926 
L 204.896531 177.170442 
L 205.52645 174.37398 
L 205.676431 186.97062 
L 206.15637 189.200629 
L 206.306351 185.257149 
L 206.366343 177.650064 
L 206.666305 176.552593 
L 206.786289 174.969298 
L 207.656178 171.277611 
L 208.016132 168.199126 
L 209.575933 169.240357 
L 209.905891 182.425933 
L 210.235849 175.371463 
L 210.595803 160.44119 
L 211.255719 166.458495 
L 212.005623 181.097625 
L 212.035619 178.497507 
L 212.395573 180.121647 
L 212.725531 180.743056 
L 212.81552 193.308689 
L 214.525301 185.324063 
L 214.675282 181.40611 
L 214.705278 173.158052 
L 215.00524 165.72287 
L 217.19496 167.088293 
L 217.524918 169.295067 
L 217.614907 182.781543 
L 217.764888 186.718165 
L 217.794884 199.06512 
L 218.544788 204.596358 
L 218.784757 208.797273 
L 219.62465 203.482321 
L 219.714639 201.833516 
L 219.744635 198.654293 
L 220.194577 197.489246 
L 220.674516 213.567024 
L 220.854493 206.852151 
L 221.244443 206.735114 
L 221.304436 218.285163 
L 221.694386 216.63234 
L 222.024344 205.245776 
L 222.804244 205.660695 
L 223.07421 201.400441 
L 223.524152 191.315593 
L 223.734125 200.005731 
L 224.034087 195.271562 
L 224.723999 223.263742 
L 225.983838 225.438255 
L 226.493773 224.726829 
L 227.033704 210.087184 
L 227.633627 203.54407 
L 227.723616 193.22643 
L 227.993581 188.675241 
L 228.323539 200.332113 
L 229.073444 197.909696 
L 229.163432 194.040656 
L 229.583378 199.02997 
L 229.703363 195.265266 
L 230.573252 185.856147 
L 231.413145 183.864968 
L 231.653114 185.849713 
L 231.773099 182.202873 
L 232.343026 189.095526 
L 233.122927 199.267512 
L 233.272907 207.942097 
L 234.232785 212.604899 
L 234.472754 207.237673 
L 234.74272 205.486902 
L 235.012685 207.93829 
L 235.342643 202.282441 
L 235.372639 195.453456 
L 235.732593 178.384394 
L 235.882574 188.226055 
L 236.93244 180.669865 
L 237.292394 187.650966 
L 237.862321 178.407398 
L 238.552233 170.148442 
L 239.152157 181.586497 
L 239.872065 176.852438 
L 240.352003 186.884081 
L 240.861938 177.943358 
L 240.951927 180.728596 
L 241.011919 172.840135 
L 242.631712 185.652495 
L 243.231636 193.692333 
L 243.291628 193.58699 
L 243.321624 198.707322 
L 243.531597 197.721755 
L 244.071529 194.166739 
L 244.911421 185.260134 
L 245.511345 184.35913 
L 245.571337 185.329437 
L 245.751314 177.866617 
L 246.531214 178.920517 
L 246.681195 175.977444 
L 247.19113 169.245305 
L 247.731061 180.306832 
L 247.971031 179.747309 
L 248.900912 172.281468 
L 249.710808 173.776598 
L 250.40072 171.051001 
L 251.270609 176.347241 
L 251.600567 176.361194 
L 252.080506 178.714172 
L 252.500452 172.097962 
L 253.130372 173.104948 
L 254.330219 172.871853 
L 254.990134 177.130588 
L 255.140115 170.943335 
L 256.249973 175.68057 
L 256.579931 184.697812 
L 256.759908 181.952564 
L 257.179855 183.001427 
L 257.239847 181.00894 
L 258.919633 174.731278 
L 259.279587 183.219668 
L 259.339579 179.149577 
L 259.519556 177.63476 
L 259.87951 185.373569 
L 260.629414 196.877381 
L 261.469307 189.311843 
L 261.649284 180.253332 
L 262.099227 175.797974 
L 263.32907 179.741799 
L 263.419058 172.402922 
L 263.958989 190.856959 
L 264.49892 192.554767 
L 265.008855 190.950948 
L 265.098844 208.035329 
L 265.398805 207.055257 
L 265.938736 216.040012 
L 265.968732 212.435497 
L 266.478667 207.624236 
L 266.568656 200.456671 
L 267.588526 201.386432 
L 267.858491 194.225106 
L 268.668388 202.620009 
L 268.938353 210.476958 
L 269.568273 217.850468 
L 270.288181 205.868142 
L 270.438162 197.530761 
L 270.618139 194.2243 
L 271.428035 197.379518 
L 272.027959 201.859767 
L 272.17794 192.362129 
L 272.777863 195.95776 
L 273.527767 201.792244 
L 274.067698 197.340874 
L 274.187683 197.734831 
L 274.337664 188.144052 
L 274.817603 189.755671 
L 274.877595 191.961385 
L 275.357534 183.035106 
L 275.417526 174.999832 
L 275.657495 166.682967 
L 276.197426 181.907346 
L 276.887338 201.033438 
L 277.157304 201.117469 
L 277.727231 201.817953 
L 278.057189 204.245585 
L 278.297158 193.485682 
L 278.687109 198.876869 
L 279.22704 197.196656 
L 280.39689 193.082269 
L 281.086802 196.56404 
L 281.206787 193.253969 
L 281.236783 199.599923 
L 281.446756 194.026426 
L 281.956691 193.614452 
L 282.286649 187.226544 
L 282.616607 197.804351 
L 282.82658 196.779274 
L 283.006557 201.059632 
L 283.726465 201.874992 
L 285.376254 204.973818 
L 285.496239 194.397975 
L 285.886189 189.932147 
L 286.576101 189.468914 
L 286.606097 181.48312 
L 286.726082 183.090814 
L 287.326005 195.743806 
L 287.385998 178.748657 
L 287.625967 176.763754 
L 288.225891 170.299719 
L 288.945799 176.151484 
L 289.155772 171.06592 
L 289.24576 172.235175 
L 289.815688 172.897496 
L 291.435481 176.829259 
L 291.705446 198.670995 
L 291.765439 189.35588 
L 291.885423 197.828787 
L 292.0654 195.63921 
L 292.155389 201.302053 
L 292.365362 200.738584 
L 292.605331 199.141437 
L 292.69532 192.960523 
L 293.055274 193.809155 
L 293.86517 186.499741 
L 293.985155 197.577621 
L 294.315113 188.975522 
L 294.645071 191.850507 
L 296.68481 183.090059 
L 297.344726 170.271789 
L 297.764673 168.751863 
L 297.794669 162.716568 
L 298.574569 161.677498 
L 298.994515 156.283495 
L 299.74442 166.653789 
L 300.614309 165.119081 
L 300.704297 168.952567 
L 301.484198 172.149052 
L 302.024129 170.45561 
L 302.144113 168.784786 
L 302.894018 165.987318 
L 303.103991 159.898951 
L 303.673918 169.150817 
L 304.453818 173.029229 
L 304.903761 179.046646 
L 305.14373 172.518576 
L 305.173726 185.274198 
L 305.833642 193.688264 
L 305.953627 187.874138 
L 306.373573 185.784707 
L 306.973497 181.787048 
L 307.57342 175.563669 
L 307.843386 171.384185 
L 308.113351 173.852782 
L 308.173343 169.53067 
L 308.20334 175.698097 
L 308.863255 209.157983 
L 309.133221 199.507103 
L 310.243079 197.292955 
L 310.723018 199.182928 
L 311.052976 189.449815 
L 311.592907 181.350067 
L 311.892869 189.26983 
L 311.922865 184.817548 
L 312.312815 176.583904 
L 312.462796 170.397983 
L 312.492792 173.556653 
L 313.182704 176.110784 
L 313.302689 179.054597 
L 313.752631 176.407309 
L 314.652516 176.636773 
L 314.922482 181.91727 
L 315.01247 197.829032 
L 315.222443 191.722538 
L 315.522405 195.319394 
L 315.762374 209.520044 
L 316.062336 202.542937 
L 316.782244 200.664957 
L 317.05221 202.915916 
L 317.622137 202.769401 
L 318.132072 193.272253 
L 319.601884 192.599532 
L 319.991834 189.99357 
L 320.081823 196.209181 
L 321.011704 203.267984 
L 321.0417 207.427819 
L 321.551635 197.542925 
L 321.851597 188.530867 
L 322.001578 195.137267 
L 322.331536 186.361653 
L 322.511513 178.014417 
L 322.721486 183.482558 
L 323.261417 189.381555 
L 323.561379 203.653595 
L 324.10131 193.431205 
L 324.431268 197.619268 
L 324.521256 193.118486 
L 325.121179 199.418644 
L 325.361149 199.253615 
L 325.66111 198.3672 
L 326.710976 209.646113 
L 326.860957 207.744493 
L 328.690724 206.017968 
L 328.840704 220.35079 
L 329.680597 214.959196 
L 331.210402 201.766834 
L 331.450371 204.552399 
L 331.480367 197.763848 
L 332.500237 197.276812 
L 332.830195 193.557237 
L 333.190149 202.304872 
L 333.280138 202.028943 
L 333.700084 192.326196 
L 335.499854 196.616192 
L 336.219762 207.143388 
L 337.119647 205.251953 
L 337.239632 204.405523 
L 337.659578 207.019555 
L 338.169513 214.809044 
L 338.34949 203.853441 
L 339.609329 215.368781 
L 340.089268 203.797452 
L 340.689192 212.747595 
L 340.929161 210.529841 
L 341.529084 219.289867 
L 341.679065 204.443857 
L 341.739058 209.648811 
L 341.919035 215.57062 
L 342.518958 210.50433 
L 342.758927 221.53434 
L 342.9689 224.439949 
L 343.028893 227.504932 
L 344.558697 226.336949 
L 344.888655 217.363724 
L 345.128625 205.904791 
L 345.728548 208.215509 
L 345.758544 216.449563 
L 345.818537 204.952072 
L 346.238483 195.358809 
L 346.358468 190.024641 
L 346.658429 187.867213 
L 346.928395 182.476858 
L 346.958391 189.668719 
L 347.408334 188.119524 
L 348.698169 177.025835 
L 348.908142 177.288995 
L 349.058123 175.475024 
L 349.748035 172.376781 
L 350.197977 167.603015 
L 350.527935 175.460387 
L 351.03787 180.245035 
L 352.177725 177.173931 
L 352.417694 184.859867 
L 352.44769 182.095993 
L 352.567675 187.561908 
L 353.527552 195.362967 
L 354.937372 193.899332 
L 355.057357 195.597734 
L 355.597288 186.355622 
L 355.747269 185.754351 
L 356.2872 177.653633 
L 356.377188 177.691971 
L 357.007108 183.645911 
L 357.337066 175.658953 
L 358.056974 174.997101 
L 358.266947 185.450889 
L 358.776882 177.32013 
L 358.836874 180.176705 
L 358.926863 178.819496 
L 359.556782 175.635604 
L 359.616775 190.583391 
L 359.766756 184.927164 
L 360.096713 187.306466 
L 360.456667 178.913584 
L 360.966602 170.834811 
L 361.506533 168.937882 
L 361.836491 165.153147 
L 361.986472 175.876919 
L 362.526403 176.558502 
L 362.556399 184.17048 
L 363.366296 185.00923 
L 363.606265 181.055593 
L 363.906227 173.461987 
L 364.236185 173.176195 
L 364.866104 180.821637 
L 365.406036 173.621621 
L 366.365913 180.76258 
L 366.395909 189.509904 
L 366.575886 181.066386 
L 368.135687 193.528314 
L 368.195679 199.702896 
L 368.495641 194.811515 
L 368.705614 194.718134 
L 369.515511 198.706985 
L 370.14543 199.294162 
L 370.445392 204.186411 
L 370.925331 193.622753 
L 370.985323 195.934883 
L 371.195296 199.259117 
L 372.155174 204.895673 
L 372.305155 215.350424 
L 372.635112 217.290756 
L 372.785093 214.656007 
L 374.074929 220.672969 
L 374.164917 209.054094 
L 374.764841 204.452893 
L 374.944818 207.121383 
L 374.974814 206.151613 
L 375.964687 219.47121 
L 377.82445 228.823371 
L 377.854446 216.206582 
L 378.124412 212.463591 
L 378.334385 205.860981 
L 378.424373 196.27064 
L 378.634346 200.559353 
L 378.724335 196.983231 
L 379.384251 187.905622 
L 380.044166 204.179254 
L 380.344128 202.058683 
L 380.524105 185.270457 
L 381.244013 185.94483 
L 381.42399 181.48639 
L 381.543975 174.295865 
L 382.113902 167.507631 
L 382.413864 170.028662 
L 382.653833 186.811751 
L 383.013787 196.232272 
L 384.213634 199.673843 
L 384.4836 198.263377 
L 384.513596 195.276493 
L 384.753565 194.874752 
L 385.023531 189.853455 
L 386.073397 194.378072 
L 386.913289 185.274203 
L 387.003278 190.4311 
L 388.203125 181.958171 
L 388.923033 174.43782 
L 389.222994 180.913917 
L 390.872784 173.603638 
L 391.262734 181.686728 
L 391.592692 178.383014 
L 392.132623 179.66773 
L 393.212485 184.827068 
L 393.392462 174.74534 
L 393.452454 183.668795 
L 393.872401 176.091332 
L 394.232355 178.123639 
L 394.532316 170.921937 
L 394.922267 172.545136 
L 395.072247 170.949914 
L 395.102244 164.947827 
L 395.552186 166.800146 
L 395.732163 165.995449 
L 396.032125 167.861169 
L 396.752033 174.292011 
L 397.261968 167.508412 
L 397.921884 178.717257 
L 398.851765 180.58529 
L 399.061738 180.519178 
L 399.151727 172.925091 
L 399.391696 174.115259 
L 399.871635 183.933658 
L 399.991619 180.082299 
L 400.1416 180.722891 
L 400.201593 175.524248 
L 400.261585 178.051332 
L 400.351573 178.509912 
L 401.401439 181.120613 
L 401.611413 174.524146 
L 402.091351 168.347902 
L 402.691275 174.847405 
L 403.531167 177.380339 
L 403.621156 168.567303 
L 403.681148 183.390065 
L 404.131091 169.980638 
L 404.311068 167.14598 
L 404.461049 169.749811 
L 405.330938 168.42717 
L 405.750884 181.010331 
L 406.080842 182.723886 
L 406.380804 189.364863 
L 406.500788 181.043679 
L 406.530784 181.801844 
L 407.370677 185.383107 
L 407.640643 176.943496 
L 407.880612 182.965039 
L 408.330555 181.77177 
L 408.360551 187.270875 
L 408.720505 181.014687 
L 409.650386 177.860007 
L 409.920352 171.614717 
L 410.310302 181.775309 
L 410.40029 180.668388 
L 410.430286 173.335324 
L 410.580267 165.872994 
L 411.300175 196.494603 
L 411.330172 193.195848 
L 411.840106 194.282765 
L 412.739992 194.464434 
L 413.039953 202.538561 
L 414.149812 209.186463 
L 414.449773 215.427575 
L 414.62975 204.692146 
L 415.109689 209.533686 
L 415.319662 207.667357 
L 416.189551 205.056321 
L 416.459517 199.526397 
L 416.609497 191.016102 
L 417.209421 188.528785 
L 417.629367 179.5317 
L 417.959325 181.503325 
L 418.769222 174.960908 
L 418.85921 177.502702 
L 419.129176 174.483616 
L 419.87908 184.521476 
L 419.999065 183.926189 
L 420.26903 180.370305 
L 420.688977 186.486654 
L 420.868954 178.522134 
L 420.928946 186.616119 
L 421.948816 187.0363 
L 422.128793 178.228729 
L 422.30877 179.696709 
L 422.398758 173.392111 
L 422.69872 173.43998 
L 422.848701 166.200822 
L 423.268647 163.562195 
L 423.538613 158.14123 
L 424.018551 153.819493 
L 424.768456 148.904455 
L 425.338383 153.339682 
L 425.608348 163.421852 
L 426.148279 168.324781 
L 426.688211 162.076578 
L 426.958176 172.430266 
L 427.648088 176.587886 
L 427.738076 183.869788 
L 429.267881 188.509714 
L 429.50785 184.658236 
L 429.597839 179.879985 
L 429.867805 171.934917 
L 431.007659 159.566642 
L 431.457602 163.997195 
L 431.93754 164.350765 
L 432.537464 175.973799 
L 432.747437 172.04359 
L 432.95741 173.597283 
L 433.107391 177.163265 
L 434.277241 167.773019 
L 434.337234 169.448763 
L 435.357104 165.864084 
L 435.447092 175.281282 
L 435.867038 167.96532 
L 435.957027 159.706476 
L 436.286985 161.47644 
L 436.466962 155.188127 
L 437.306855 172.466677 
L 437.396843 171.664784 
L 437.606816 186.661704 
L 437.666809 178.311411 
L 438.176744 170.684972 
L 438.416713 172.534366 
L 438.686678 171.232865 
L 439.136621 172.613555 
L 439.61656 174.870642 
L 440.78641 167.790708 
L 441.146364 170.499831 
L 441.206357 177.125379 
L 441.506318 175.980869 
L 441.836276 180.867458 
L 442.046249 191.222333 
L 442.256223 191.743969 
L 442.316215 182.973724 
L 442.82615 187.235403 
L 443.396077 203.170419 
L 444.475939 210.676115 
L 444.775901 203.937286 
L 445.285836 213.594456 
L 445.465813 202.730721 
L 445.735778 205.172967 
L 446.635663 195.370808 
L 447.325575 192.180187 
L 447.355572 184.058562 
L 447.895503 180.595638 
L 448.735395 180.28467 
L 448.885376 183.591322 
L 449.275326 180.235485 
L 449.305323 175.755919 
L 449.695273 177.480844 
L 449.935242 170.411133 
L 450.175211 190.608797 
L 450.775135 180.475917 
L 450.925116 179.885321 
L 451.345062 181.699908 
L 451.645024 179.417435 
L 451.795005 184.363835 
L 452.004978 194.962597 
L 452.574905 213.878736 
L 452.934859 212.828196 
L 453.984725 208.63121 
L 454.254691 224.070323 
L 454.404671 217.298279 
L 455.694507 214.747658 
L 455.844488 216.898054 
L 456.29443 217.126667 
L 456.624388 210.303577 
L 456.744373 222.783143 
L 457.224311 221.604937 
L 457.614262 213.670421 
L 458.214185 219.707951 
L 458.484151 219.844489 
L 458.72412 208.032416 
L 459.324043 206.371824 
L 459.803982 209.554259 
L 460.403905 215.618439 
L 460.493894 204.992379 
L 460.973833 204.168168 
L 461.783729 193.116167 
L 463.583499 187.283843 
L 463.853465 179.614119 
L 463.883461 172.748598 
L 464.783346 176.393186 
L 465.443262 166.563931 
L 466.103178 177.022468 
L 467.423009 184.545589 
L 468.052929 179.131674 
L 468.232906 171.187663 
L 468.292898 178.123751 
L 468.922818 170.94655 
L 469.582733 168.042848 
L 470.452622 170.40519 
L 471.4125 176.935987 
L 471.832446 177.084018 
L 472.672339 166.170336 
L 474.442113 166.926255 
L 474.922052 163.515427 
L 475.851933 161.451152 
L 476.091902 165.519427 
L 476.721822 185.188882 
L 477.471726 181.561065 
L 477.621707 175.335397 
L 478.011657 176.724912 
L 478.401607 187.172566 
L 478.581584 197.082239 
L 479.841423 191.104242 
L 479.87142 207.730262 
L 480.0214 197.150859 
L 480.171381 212.179445 
L 480.471343 204.721945 
L 481.371228 193.859158 
L 481.761178 185.956367 
L 482.211121 186.490916 
L 482.721056 184.059309 
L 483.530952 191.830228 
L 483.560949 194.909938 
L 483.800918 187.909491 
L 484.520826 173.310917 
L 484.970769 175.954724 
L 485.090753 187.950718 
L 485.150746 182.604257 
L 485.600688 183.141805 
L 486.140619 189.130863 
L 486.68055 185.880486 
L 487.520443 201.400702 
L 487.880397 191.970787 
L 487.910393 182.923465 
L 488.030378 180.903451 
L 488.870271 172.663099 
L 489.650171 171.54806 
L 490.640045 171.79347 
L 490.790025 169.892289 
L 491.089987 172.338177 
L 492.169849 174.187798 
L 492.31983 182.76062 
L 493.759646 195.65808 
L 493.879631 187.99059 
L 494.479554 187.10355 
L 495.919371 196.494783 
L 495.949367 188.023924 
L 496.729267 183.778142 
L 496.819256 175.710469 
L 498.079095 177.290491 
L 498.109091 175.314481 
L 498.109091 175.314481 
" style="fill:none;stroke:#4c72b0;stroke-linecap:round;stroke-width:2;"/>
   </g>
   <g id="patch_3">
    <path d="M 72 512.64 
L 72 69.12 
" style="fill:none;stroke:#ffffff;stroke-linecap:square;stroke-linejoin:miter;stroke-width:1.25;"/>
   </g>
   <g id="patch_4">
    <path d="M 518.4 512.64 
L 518.4 69.12 
" style="fill:none;stroke:#ffffff;stroke-linecap:square;stroke-linejoin:miter;stroke-width:1.25;"/>
   </g>
   <g id="patch_5">
    <path d="M 72 512.64 
L 518.4 512.64 
" style="fill:none;stroke:#ffffff;stroke-linecap:square;stroke-linejoin:miter;stroke-width:1.25;"/>
   </g>
   <g id="patch_6">
    <path d="M 72 69.12 
L 518.4 69.12 
" style="fill:none;stroke:#ffffff;stroke-linecap:square;stroke-linejoin:miter;stroke-width:1.25;"/>
   </g>
   <g id="text_19">
    <!-- PPO Training Attack -->
    <g style="fill:#262626;" transform="translate(228.084375 63.12)scale(0.15 -0.15)">
     <defs>
      <path d="M 7.71875 0 
L 7.71875 71.578125 
L 34.71875 71.578125 
Q 41.84375 71.578125 45.609375 70.90625 
Q 50.875 70.015625 54.4375 67.546875 
Q 58.015625 65.09375 60.1875 60.640625 
Q 62.359375 56.203125 62.359375 50.875 
Q 62.359375 41.75 56.546875 35.421875 
Q 50.734375 29.109375 35.546875 29.109375 
L 17.1875 29.109375 
L 17.1875 0 
z
M 17.1875 37.546875 
L 35.6875 37.546875 
Q 44.875 37.546875 48.734375 40.96875 
Q 52.59375 44.390625 52.59375 50.59375 
Q 52.59375 55.078125 50.3125 58.265625 
Q 48.046875 61.46875 44.34375 62.5 
Q 41.9375 63.140625 35.5 63.140625 
L 17.1875 63.140625 
z
" id="ArialMT-80"/>
      <path d="M 4.828125 34.859375 
Q 4.828125 52.6875 14.390625 62.765625 
Q 23.96875 72.859375 39.109375 72.859375 
Q 49.03125 72.859375 56.984375 68.109375 
Q 64.9375 63.375 69.109375 54.90625 
Q 73.296875 46.4375 73.296875 35.6875 
Q 73.296875 24.8125 68.890625 16.21875 
Q 64.5 7.625 56.4375 3.203125 
Q 48.390625 -1.21875 39.0625 -1.21875 
Q 28.953125 -1.21875 20.984375 3.65625 
Q 13.03125 8.546875 8.921875 16.984375 
Q 4.828125 25.4375 4.828125 34.859375 
z
M 14.59375 34.71875 
Q 14.59375 21.78125 21.546875 14.328125 
Q 28.515625 6.890625 39.015625 6.890625 
Q 49.703125 6.890625 56.609375 14.40625 
Q 63.53125 21.921875 63.53125 35.75 
Q 63.53125 44.484375 60.578125 51 
Q 57.625 57.515625 51.921875 61.109375 
Q 46.234375 64.703125 39.15625 64.703125 
Q 29.109375 64.703125 21.84375 57.78125 
Q 14.59375 50.875 14.59375 34.71875 
z
" id="ArialMT-79"/>
      <path d="M 25.921875 0 
L 25.921875 63.140625 
L 2.34375 63.140625 
L 2.34375 71.578125 
L 59.078125 71.578125 
L 59.078125 63.140625 
L 35.40625 63.140625 
L 35.40625 0 
z
" id="ArialMT-84"/>
      <path d="M -0.140625 0 
L 27.34375 71.578125 
L 37.546875 71.578125 
L 66.84375 0 
L 56.0625 0 
L 47.703125 21.6875 
L 17.78125 21.6875 
L 9.90625 0 
z
M 20.515625 29.390625 
L 44.78125 29.390625 
L 37.3125 49.21875 
Q 33.890625 58.25 32.234375 64.0625 
Q 30.859375 57.171875 28.375 50.390625 
z
" id="ArialMT-65"/>
      <path d="M 40.4375 19 
L 49.078125 17.875 
Q 47.65625 8.9375 41.8125 3.875 
Q 35.984375 -1.171875 27.484375 -1.171875 
Q 16.84375 -1.171875 10.375 5.78125 
Q 3.90625 12.75 3.90625 25.734375 
Q 3.90625 34.125 6.6875 40.421875 
Q 9.46875 46.734375 15.15625 49.875 
Q 20.84375 53.03125 27.546875 53.03125 
Q 35.984375 53.03125 41.359375 48.75 
Q 46.734375 44.484375 48.25 36.625 
L 39.703125 35.296875 
Q 38.484375 40.53125 35.375 43.15625 
Q 32.28125 45.796875 27.875 45.796875 
Q 21.234375 45.796875 17.078125 41.03125 
Q 12.9375 36.28125 12.9375 25.984375 
Q 12.9375 15.53125 16.9375 10.796875 
Q 20.953125 6.0625 27.390625 6.0625 
Q 32.5625 6.0625 36.03125 9.234375 
Q 39.5 12.40625 40.4375 19 
z
" id="ArialMT-99"/>
      <path d="M 6.640625 0 
L 6.640625 71.578125 
L 15.4375 71.578125 
L 15.4375 30.765625 
L 36.234375 51.859375 
L 47.609375 51.859375 
L 27.78125 32.625 
L 49.609375 0 
L 38.765625 0 
L 21.625 26.515625 
L 15.4375 20.5625 
L 15.4375 0 
z
" id="ArialMT-107"/>
     </defs>
     <use xlink:href="#ArialMT-80"/>
     <use x="66.699219" xlink:href="#ArialMT-80"/>
     <use x="133.398438" xlink:href="#ArialMT-79"/>
     <use x="211.181641" xlink:href="#ArialMT-32"/>
     <use x="237.214844" xlink:href="#ArialMT-84"/>
     <use x="294.548828" xlink:href="#ArialMT-114"/>
     <use x="327.849609" xlink:href="#ArialMT-97"/>
     <use x="383.464844" xlink:href="#ArialMT-105"/>
     <use x="405.681641" xlink:href="#ArialMT-110"/>
     <use x="461.296875" xlink:href="#ArialMT-105"/>
     <use x="483.513672" xlink:href="#ArialMT-110"/>
     <use x="539.128906" xlink:href="#ArialMT-103"/>
     <use x="594.744141" xlink:href="#ArialMT-32"/>
     <use x="617.027344" xlink:href="#ArialMT-65"/>
     <use x="683.726562" xlink:href="#ArialMT-116"/>
     <use x="711.509766" xlink:href="#ArialMT-116"/>
     <use x="739.292969" xlink:href="#ArialMT-97"/>
     <use x="794.908203" xlink:href="#ArialMT-99"/>
     <use x="844.908203" xlink:href="#ArialMT-107"/>
    </g>
   </g>
   <g id="legend_1">
    <g id="patch_7">
     <path d="M 428.221875 505.14 
L 507.9 505.14 
Q 510.9 505.14 510.9 502.14 
L 510.9 482.422031 
Q 510.9 479.422031 507.9 479.422031 
L 428.221875 479.422031 
Q 425.221875 479.422031 425.221875 482.422031 
L 425.221875 502.14 
Q 425.221875 505.14 428.221875 505.14 
z
" style="fill:#eaeaf2;opacity:0.8;stroke:#cccccc;stroke-linejoin:miter;"/>
    </g>
    <g id="line2d_18">
     <path d="M 431.221875 490.90875 
L 461.221875 490.90875 
" style="fill:none;stroke:#4c72b0;stroke-linecap:round;stroke-width:2;"/>
    </g>
    <g id="line2d_19"/>
    <g id="text_20">
     <!-- PPO -->
     <g style="fill:#262626;" transform="translate(473.221875 496.15875)scale(0.15 -0.15)">
      <use xlink:href="#ArialMT-80"/>
      <use x="66.699219" xlink:href="#ArialMT-80"/>
      <use x="133.398438" xlink:href="#ArialMT-79"/>
     </g>
    </g>
   </g>
  </g>
 </g>
 <defs>
  <clipPath id="pbfbe57ccf4">
   <rect height="443.52" width="446.4" x="72" y="69.12"/>
  </clipPath>
 </defs>
</svg>
