<?xml version="1.0" encoding="utf-8" standalone="no"?>
<!DOCTYPE svg PUBLIC "-//W3C//DTD SVG 1.1//EN"
  "http://www.w3.org/Graphics/SVG/1.1/DTD/svg11.dtd">
<!-- Created with matplotlib (https://matplotlib.org/) -->
<svg height="576pt" version="1.1" viewBox="0 0 1080 576" width="1080pt" xmlns="http://www.w3.org/2000/svg" xmlns:xlink="http://www.w3.org/1999/xlink">
 <metadata>
  <rdf:RDF xmlns:cc="http://creativecommons.org/ns#" xmlns:dc="http://purl.org/dc/elements/1.1/" xmlns:rdf="http://www.w3.org/1999/02/22-rdf-syntax-ns#">
   <cc:Work>
    <dc:type rdf:resource="http://purl.org/dc/dcmitype/StillImage"/>
    <dc:date>2021-03-16T19:36:03.477002</dc:date>
    <dc:format>image/svg+xml</dc:format>
    <dc:creator>
     <cc:Agent>
      <dc:title>Matplotlib v3.3.2, https://matplotlib.org/</dc:title>
     </cc:Agent>
    </dc:creator>
   </cc:Work>
  </rdf:RDF>
 </metadata>
 <defs>
  <style type="text/css">*{stroke-linecap:butt;stroke-linejoin:round;}</style>
 </defs>
 <g id="figure_1">
  <g id="patch_1">
   <path d="M 0 576 
L 1080 576 
L 1080 0 
L 0 0 
z
" style="fill:none;"/>
  </g>
  <g id="axes_1">
   <g id="patch_2">
    <path d="M 135 504 
L 972 504 
L 972 69.12 
L 135 69.12 
z
" style="fill:#eaeaf2;"/>
   </g>
   <g id="matplotlib.axis_1">
    <g id="xtick_1">
     <g id="line2d_1">
      <path clip-path="url(#p6779f8bc4e)" d="M 171.976841 504 
L 171.976841 69.12 
" style="fill:none;stroke:#ffffff;stroke-linecap:round;"/>
     </g>
     <g id="text_1">
      <!-- 0.0 -->
      <g style="fill:#262626;" transform="translate(150.431841 535.689219)scale(0.31 -0.31)">
       <defs>
        <path d="M 4.15625 35.296875 
Q 4.15625 48 6.765625 55.734375 
Q 9.375 63.484375 14.515625 67.671875 
Q 19.671875 71.875 27.484375 71.875 
Q 33.25 71.875 37.59375 69.546875 
Q 41.9375 67.234375 44.765625 62.859375 
Q 47.609375 58.5 49.21875 52.21875 
Q 50.828125 45.953125 50.828125 35.296875 
Q 50.828125 22.703125 48.234375 14.96875 
Q 45.65625 7.234375 40.5 3 
Q 35.359375 -1.21875 27.484375 -1.21875 
Q 17.140625 -1.21875 11.234375 6.203125 
Q 4.15625 15.140625 4.15625 35.296875 
z
M 13.1875 35.296875 
Q 13.1875 17.671875 17.3125 11.828125 
Q 21.4375 6 27.484375 6 
Q 33.546875 6 37.671875 11.859375 
Q 41.796875 17.71875 41.796875 35.296875 
Q 41.796875 52.984375 37.671875 58.78125 
Q 33.546875 64.59375 27.390625 64.59375 
Q 21.34375 64.59375 17.71875 59.46875 
Q 13.1875 52.9375 13.1875 35.296875 
z
" id="ArialMT-48"/>
        <path d="M 9.078125 0 
L 9.078125 10.015625 
L 19.09375 10.015625 
L 19.09375 0 
z
" id="ArialMT-46"/>
       </defs>
       <use xlink:href="#ArialMT-48"/>
       <use x="55.615234" xlink:href="#ArialMT-46"/>
       <use x="83.398438" xlink:href="#ArialMT-48"/>
      </g>
     </g>
    </g>
    <g id="xtick_2">
     <g id="line2d_2">
      <path clip-path="url(#p6779f8bc4e)" d="M 284.462478 504 
L 284.462478 69.12 
" style="fill:none;stroke:#ffffff;stroke-linecap:round;"/>
     </g>
     <g id="text_2">
      <!-- 0.2 -->
      <g style="fill:#262626;" transform="translate(262.917478 535.689219)scale(0.31 -0.31)">
       <defs>
        <path d="M 50.34375 8.453125 
L 50.34375 0 
L 3.03125 0 
Q 2.9375 3.171875 4.046875 6.109375 
Q 5.859375 10.9375 9.828125 15.625 
Q 13.8125 20.3125 21.34375 26.46875 
Q 33.015625 36.03125 37.109375 41.625 
Q 41.21875 47.21875 41.21875 52.203125 
Q 41.21875 57.421875 37.46875 61 
Q 33.734375 64.59375 27.734375 64.59375 
Q 21.390625 64.59375 17.578125 60.78125 
Q 13.765625 56.984375 13.71875 50.25 
L 4.6875 51.171875 
Q 5.609375 61.28125 11.65625 66.578125 
Q 17.71875 71.875 27.9375 71.875 
Q 38.234375 71.875 44.234375 66.15625 
Q 50.25 60.453125 50.25 52 
Q 50.25 47.703125 48.484375 43.546875 
Q 46.734375 39.40625 42.65625 34.8125 
Q 38.578125 30.21875 29.109375 22.21875 
Q 21.1875 15.578125 18.9375 13.203125 
Q 16.703125 10.84375 15.234375 8.453125 
z
" id="ArialMT-50"/>
       </defs>
       <use xlink:href="#ArialMT-48"/>
       <use x="55.615234" xlink:href="#ArialMT-46"/>
       <use x="83.398438" xlink:href="#ArialMT-50"/>
      </g>
     </g>
    </g>
    <g id="xtick_3">
     <g id="line2d_3">
      <path clip-path="url(#p6779f8bc4e)" d="M 396.948115 504 
L 396.948115 69.12 
" style="fill:none;stroke:#ffffff;stroke-linecap:round;"/>
     </g>
     <g id="text_3">
      <!-- 0.4 -->
      <g style="fill:#262626;" transform="translate(375.403115 535.689219)scale(0.31 -0.31)">
       <defs>
        <path d="M 32.328125 0 
L 32.328125 17.140625 
L 1.265625 17.140625 
L 1.265625 25.203125 
L 33.9375 71.578125 
L 41.109375 71.578125 
L 41.109375 25.203125 
L 50.78125 25.203125 
L 50.78125 17.140625 
L 41.109375 17.140625 
L 41.109375 0 
z
M 32.328125 25.203125 
L 32.328125 57.46875 
L 9.90625 25.203125 
z
" id="ArialMT-52"/>
       </defs>
       <use xlink:href="#ArialMT-48"/>
       <use x="55.615234" xlink:href="#ArialMT-46"/>
       <use x="83.398438" xlink:href="#ArialMT-52"/>
      </g>
     </g>
    </g>
    <g id="xtick_4">
     <g id="line2d_4">
      <path clip-path="url(#p6779f8bc4e)" d="M 509.433752 504 
L 509.433752 69.12 
" style="fill:none;stroke:#ffffff;stroke-linecap:round;"/>
     </g>
     <g id="text_4">
      <!-- 0.6 -->
      <g style="fill:#262626;" transform="translate(487.888752 535.689219)scale(0.31 -0.31)">
       <defs>
        <path d="M 49.75 54.046875 
L 41.015625 53.375 
Q 39.84375 58.546875 37.703125 60.890625 
Q 34.125 64.65625 28.90625 64.65625 
Q 24.703125 64.65625 21.53125 62.3125 
Q 17.390625 59.28125 14.984375 53.46875 
Q 12.59375 47.65625 12.5 36.921875 
Q 15.671875 41.75 20.265625 44.09375 
Q 24.859375 46.4375 29.890625 46.4375 
Q 38.671875 46.4375 44.84375 39.96875 
Q 51.03125 33.5 51.03125 23.25 
Q 51.03125 16.5 48.125 10.71875 
Q 45.21875 4.9375 40.140625 1.859375 
Q 35.0625 -1.21875 28.609375 -1.21875 
Q 17.625 -1.21875 10.6875 6.859375 
Q 3.765625 14.9375 3.765625 33.5 
Q 3.765625 54.25 11.421875 63.671875 
Q 18.109375 71.875 29.4375 71.875 
Q 37.890625 71.875 43.28125 67.140625 
Q 48.6875 62.40625 49.75 54.046875 
z
M 13.875 23.1875 
Q 13.875 18.65625 15.796875 14.5 
Q 17.71875 10.359375 21.1875 8.171875 
Q 24.65625 6 28.46875 6 
Q 34.03125 6 38.03125 10.484375 
Q 42.046875 14.984375 42.046875 22.703125 
Q 42.046875 30.125 38.078125 34.390625 
Q 34.125 38.671875 28.125 38.671875 
Q 22.171875 38.671875 18.015625 34.390625 
Q 13.875 30.125 13.875 23.1875 
z
" id="ArialMT-54"/>
       </defs>
       <use xlink:href="#ArialMT-48"/>
       <use x="55.615234" xlink:href="#ArialMT-46"/>
       <use x="83.398438" xlink:href="#ArialMT-54"/>
      </g>
     </g>
    </g>
    <g id="xtick_5">
     <g id="line2d_5">
      <path clip-path="url(#p6779f8bc4e)" d="M 621.919389 504 
L 621.919389 69.12 
" style="fill:none;stroke:#ffffff;stroke-linecap:round;"/>
     </g>
     <g id="text_5">
      <!-- 0.8 -->
      <g style="fill:#262626;" transform="translate(600.374389 535.689219)scale(0.31 -0.31)">
       <defs>
        <path d="M 17.671875 38.8125 
Q 12.203125 40.828125 9.5625 44.53125 
Q 6.9375 48.25 6.9375 53.421875 
Q 6.9375 61.234375 12.546875 66.546875 
Q 18.171875 71.875 27.484375 71.875 
Q 36.859375 71.875 42.578125 66.421875 
Q 48.296875 60.984375 48.296875 53.171875 
Q 48.296875 48.1875 45.671875 44.5 
Q 43.0625 40.828125 37.75 38.8125 
Q 44.34375 36.671875 47.78125 31.875 
Q 51.21875 27.09375 51.21875 20.453125 
Q 51.21875 11.28125 44.71875 5.03125 
Q 38.234375 -1.21875 27.640625 -1.21875 
Q 17.046875 -1.21875 10.546875 5.046875 
Q 4.046875 11.328125 4.046875 20.703125 
Q 4.046875 27.6875 7.59375 32.390625 
Q 11.140625 37.109375 17.671875 38.8125 
z
M 15.921875 53.71875 
Q 15.921875 48.640625 19.1875 45.40625 
Q 22.46875 42.1875 27.6875 42.1875 
Q 32.765625 42.1875 36.015625 45.375 
Q 39.265625 48.578125 39.265625 53.21875 
Q 39.265625 58.0625 35.90625 61.359375 
Q 32.5625 64.65625 27.59375 64.65625 
Q 22.5625 64.65625 19.234375 61.421875 
Q 15.921875 58.203125 15.921875 53.71875 
z
M 13.09375 20.65625 
Q 13.09375 16.890625 14.875 13.375 
Q 16.65625 9.859375 20.171875 7.921875 
Q 23.6875 6 27.734375 6 
Q 34.03125 6 38.125 10.046875 
Q 42.234375 14.109375 42.234375 20.359375 
Q 42.234375 26.703125 38.015625 30.859375 
Q 33.796875 35.015625 27.4375 35.015625 
Q 21.234375 35.015625 17.15625 30.90625 
Q 13.09375 26.8125 13.09375 20.65625 
z
" id="ArialMT-56"/>
       </defs>
       <use xlink:href="#ArialMT-48"/>
       <use x="55.615234" xlink:href="#ArialMT-46"/>
       <use x="83.398438" xlink:href="#ArialMT-56"/>
      </g>
     </g>
    </g>
    <g id="xtick_6">
     <g id="line2d_6">
      <path clip-path="url(#p6779f8bc4e)" d="M 734.405026 504 
L 734.405026 69.12 
" style="fill:none;stroke:#ffffff;stroke-linecap:round;"/>
     </g>
     <g id="text_6">
      <!-- 1.0 -->
      <g style="fill:#262626;" transform="translate(712.860026 535.689219)scale(0.31 -0.31)">
       <defs>
        <path d="M 37.25 0 
L 28.46875 0 
L 28.46875 56 
Q 25.296875 52.984375 20.140625 49.953125 
Q 14.984375 46.921875 10.890625 45.40625 
L 10.890625 53.90625 
Q 18.265625 57.375 23.78125 62.296875 
Q 29.296875 67.234375 31.59375 71.875 
L 37.25 71.875 
z
" id="ArialMT-49"/>
       </defs>
       <use xlink:href="#ArialMT-49"/>
       <use x="55.615234" xlink:href="#ArialMT-46"/>
       <use x="83.398438" xlink:href="#ArialMT-48"/>
      </g>
     </g>
    </g>
    <g id="xtick_7">
     <g id="line2d_7">
      <path clip-path="url(#p6779f8bc4e)" d="M 846.890662 504 
L 846.890662 69.12 
" style="fill:none;stroke:#ffffff;stroke-linecap:round;"/>
     </g>
     <g id="text_7">
      <!-- 1.2 -->
      <g style="fill:#262626;" transform="translate(825.345662 535.689219)scale(0.31 -0.31)">
       <use xlink:href="#ArialMT-49"/>
       <use x="55.615234" xlink:href="#ArialMT-46"/>
       <use x="83.398438" xlink:href="#ArialMT-50"/>
      </g>
     </g>
    </g>
    <g id="xtick_8">
     <g id="line2d_8">
      <path clip-path="url(#p6779f8bc4e)" d="M 959.376299 504 
L 959.376299 69.12 
" style="fill:none;stroke:#ffffff;stroke-linecap:round;"/>
     </g>
     <g id="text_8">
      <!-- 1.4 -->
      <g style="fill:#262626;" transform="translate(937.831299 535.689219)scale(0.31 -0.31)">
       <use xlink:href="#ArialMT-49"/>
       <use x="55.615234" xlink:href="#ArialMT-46"/>
       <use x="83.398438" xlink:href="#ArialMT-52"/>
      </g>
     </g>
    </g>
    <g id="text_9">
     <!-- Episodes -->
     <g style="fill:#262626;" transform="translate(487.6825 568.755469)scale(0.32 -0.32)">
      <defs>
       <path d="M 7.90625 0 
L 7.90625 71.578125 
L 59.671875 71.578125 
L 59.671875 63.140625 
L 17.390625 63.140625 
L 17.390625 41.21875 
L 56.984375 41.21875 
L 56.984375 32.8125 
L 17.390625 32.8125 
L 17.390625 8.453125 
L 61.328125 8.453125 
L 61.328125 0 
z
" id="ArialMT-69"/>
       <path d="M 6.59375 -19.875 
L 6.59375 51.859375 
L 14.59375 51.859375 
L 14.59375 45.125 
Q 17.4375 49.078125 21 51.046875 
Q 24.5625 53.03125 29.640625 53.03125 
Q 36.28125 53.03125 41.359375 49.609375 
Q 46.4375 46.1875 49.015625 39.953125 
Q 51.609375 33.734375 51.609375 26.3125 
Q 51.609375 18.359375 48.75 11.984375 
Q 45.90625 5.609375 40.453125 2.21875 
Q 35.015625 -1.171875 29 -1.171875 
Q 24.609375 -1.171875 21.109375 0.6875 
Q 17.625 2.546875 15.375 5.375 
L 15.375 -19.875 
z
M 14.546875 25.640625 
Q 14.546875 15.625 18.59375 10.84375 
Q 22.65625 6.0625 28.421875 6.0625 
Q 34.28125 6.0625 38.453125 11.015625 
Q 42.625 15.96875 42.625 26.375 
Q 42.625 36.28125 38.546875 41.203125 
Q 34.46875 46.140625 28.8125 46.140625 
Q 23.1875 46.140625 18.859375 40.890625 
Q 14.546875 35.640625 14.546875 25.640625 
z
" id="ArialMT-112"/>
       <path d="M 6.640625 61.46875 
L 6.640625 71.578125 
L 15.4375 71.578125 
L 15.4375 61.46875 
z
M 6.640625 0 
L 6.640625 51.859375 
L 15.4375 51.859375 
L 15.4375 0 
z
" id="ArialMT-105"/>
       <path d="M 3.078125 15.484375 
L 11.765625 16.84375 
Q 12.5 11.625 15.84375 8.84375 
Q 19.1875 6.0625 25.203125 6.0625 
Q 31.25 6.0625 34.171875 8.515625 
Q 37.109375 10.984375 37.109375 14.3125 
Q 37.109375 17.28125 34.515625 19 
Q 32.71875 20.171875 25.53125 21.96875 
Q 15.875 24.421875 12.140625 26.203125 
Q 8.40625 27.984375 6.46875 31.125 
Q 4.546875 34.28125 4.546875 38.09375 
Q 4.546875 41.546875 6.125 44.5 
Q 7.71875 47.46875 10.453125 49.421875 
Q 12.5 50.921875 16.03125 51.96875 
Q 19.578125 53.03125 23.640625 53.03125 
Q 29.734375 53.03125 34.34375 51.265625 
Q 38.96875 49.515625 41.15625 46.5 
Q 43.359375 43.5 44.1875 38.484375 
L 35.59375 37.3125 
Q 35.015625 41.3125 32.203125 43.546875 
Q 29.390625 45.796875 24.265625 45.796875 
Q 18.21875 45.796875 15.625 43.796875 
Q 13.03125 41.796875 13.03125 39.109375 
Q 13.03125 37.40625 14.109375 36.03125 
Q 15.1875 34.625 17.484375 33.6875 
Q 18.796875 33.203125 25.25 31.453125 
Q 34.578125 28.953125 38.25 27.359375 
Q 41.9375 25.78125 44.03125 22.75 
Q 46.140625 19.734375 46.140625 15.234375 
Q 46.140625 10.84375 43.578125 6.953125 
Q 41.015625 3.078125 36.171875 0.953125 
Q 31.34375 -1.171875 25.25 -1.171875 
Q 15.140625 -1.171875 9.84375 3.03125 
Q 4.546875 7.234375 3.078125 15.484375 
z
" id="ArialMT-115"/>
       <path d="M 3.328125 25.921875 
Q 3.328125 40.328125 11.328125 47.265625 
Q 18.015625 53.03125 27.640625 53.03125 
Q 38.328125 53.03125 45.109375 46.015625 
Q 51.90625 39.015625 51.90625 26.65625 
Q 51.90625 16.65625 48.90625 10.90625 
Q 45.90625 5.171875 40.15625 2 
Q 34.421875 -1.171875 27.640625 -1.171875 
Q 16.75 -1.171875 10.03125 5.8125 
Q 3.328125 12.796875 3.328125 25.921875 
z
M 12.359375 25.921875 
Q 12.359375 15.96875 16.703125 11.015625 
Q 21.046875 6.0625 27.640625 6.0625 
Q 34.1875 6.0625 38.53125 11.03125 
Q 42.875 16.015625 42.875 26.21875 
Q 42.875 35.84375 38.5 40.796875 
Q 34.125 45.75 27.640625 45.75 
Q 21.046875 45.75 16.703125 40.8125 
Q 12.359375 35.890625 12.359375 25.921875 
z
" id="ArialMT-111"/>
       <path d="M 40.234375 0 
L 40.234375 6.546875 
Q 35.296875 -1.171875 25.734375 -1.171875 
Q 19.53125 -1.171875 14.328125 2.25 
Q 9.125 5.671875 6.265625 11.796875 
Q 3.421875 17.921875 3.421875 25.875 
Q 3.421875 33.640625 6 39.96875 
Q 8.59375 46.296875 13.765625 49.65625 
Q 18.953125 53.03125 25.34375 53.03125 
Q 30.03125 53.03125 33.6875 51.046875 
Q 37.359375 49.078125 39.65625 45.90625 
L 39.65625 71.578125 
L 48.390625 71.578125 
L 48.390625 0 
z
M 12.453125 25.875 
Q 12.453125 15.921875 16.640625 10.984375 
Q 20.84375 6.0625 26.5625 6.0625 
Q 32.328125 6.0625 36.34375 10.765625 
Q 40.375 15.484375 40.375 25.140625 
Q 40.375 35.796875 36.265625 40.765625 
Q 32.171875 45.75 26.171875 45.75 
Q 20.3125 45.75 16.375 40.96875 
Q 12.453125 36.1875 12.453125 25.875 
z
" id="ArialMT-100"/>
       <path d="M 42.09375 16.703125 
L 51.171875 15.578125 
Q 49.03125 7.625 43.21875 3.21875 
Q 37.40625 -1.171875 28.375 -1.171875 
Q 17 -1.171875 10.328125 5.828125 
Q 3.65625 12.84375 3.65625 25.484375 
Q 3.65625 38.578125 10.390625 45.796875 
Q 17.140625 53.03125 27.875 53.03125 
Q 38.28125 53.03125 44.875 45.953125 
Q 51.46875 38.875 51.46875 26.03125 
Q 51.46875 25.25 51.421875 23.6875 
L 12.75 23.6875 
Q 13.234375 15.140625 17.578125 10.59375 
Q 21.921875 6.0625 28.421875 6.0625 
Q 33.25 6.0625 36.671875 8.59375 
Q 40.09375 11.140625 42.09375 16.703125 
z
M 13.234375 30.90625 
L 42.1875 30.90625 
Q 41.609375 37.453125 38.875 40.71875 
Q 34.671875 45.796875 27.984375 45.796875 
Q 21.921875 45.796875 17.796875 41.75 
Q 13.671875 37.703125 13.234375 30.90625 
z
" id="ArialMT-101"/>
      </defs>
      <use xlink:href="#ArialMT-69"/>
      <use x="66.699219" xlink:href="#ArialMT-112"/>
      <use x="122.314453" xlink:href="#ArialMT-105"/>
      <use x="144.53125" xlink:href="#ArialMT-115"/>
      <use x="194.53125" xlink:href="#ArialMT-111"/>
      <use x="250.146484" xlink:href="#ArialMT-100"/>
      <use x="305.761719" xlink:href="#ArialMT-101"/>
      <use x="361.376953" xlink:href="#ArialMT-115"/>
     </g>
    </g>
    <g id="text_10">
     <!-- 1e5 -->
     <g style="fill:#262626;" transform="translate(925.288125 564.892344)scale(0.28 -0.28)">
      <defs>
       <path d="M 4.15625 18.75 
L 13.375 19.53125 
Q 14.40625 12.796875 18.140625 9.390625 
Q 21.875 6 27.15625 6 
Q 33.5 6 37.890625 10.78125 
Q 42.28125 15.578125 42.28125 23.484375 
Q 42.28125 31 38.0625 35.34375 
Q 33.84375 39.703125 27 39.703125 
Q 22.75 39.703125 19.328125 37.765625 
Q 15.921875 35.84375 13.96875 32.765625 
L 5.71875 33.84375 
L 12.640625 70.609375 
L 48.25 70.609375 
L 48.25 62.203125 
L 19.671875 62.203125 
L 15.828125 42.96875 
Q 22.265625 47.46875 29.34375 47.46875 
Q 38.71875 47.46875 45.15625 40.96875 
Q 51.609375 34.46875 51.609375 24.265625 
Q 51.609375 14.546875 45.953125 7.46875 
Q 39.0625 -1.21875 27.15625 -1.21875 
Q 17.390625 -1.21875 11.203125 4.25 
Q 5.03125 9.71875 4.15625 18.75 
z
" id="ArialMT-53"/>
      </defs>
      <use xlink:href="#ArialMT-49"/>
      <use x="55.615234" xlink:href="#ArialMT-101"/>
      <use x="111.230469" xlink:href="#ArialMT-53"/>
     </g>
    </g>
   </g>
   <g id="matplotlib.axis_2">
    <g id="ytick_1">
     <g id="line2d_9">
      <path clip-path="url(#p6779f8bc4e)" d="M 135 504 
L 972 504 
" style="fill:none;stroke:#ffffff;stroke-linecap:round;"/>
     </g>
     <g id="text_11">
      <!-- −15.00 -->
      <g style="fill:#262626;" transform="translate(29.82625 515.094609)scale(0.31 -0.31)">
       <defs>
        <path d="M 52.828125 31.203125 
L 5.5625 31.203125 
L 5.5625 39.40625 
L 52.828125 39.40625 
z
" id="ArialMT-8722"/>
       </defs>
       <use xlink:href="#ArialMT-8722"/>
       <use x="58.398438" xlink:href="#ArialMT-49"/>
       <use x="114.013672" xlink:href="#ArialMT-53"/>
       <use x="169.628906" xlink:href="#ArialMT-46"/>
       <use x="197.412109" xlink:href="#ArialMT-48"/>
       <use x="253.027344" xlink:href="#ArialMT-48"/>
      </g>
     </g>
    </g>
    <g id="ytick_2">
     <g id="line2d_10">
      <path clip-path="url(#p6779f8bc4e)" d="M 135 417.45708 
L 972 417.45708 
" style="fill:none;stroke:#ffffff;stroke-linecap:round;"/>
     </g>
     <g id="text_12">
      <!-- −10.00 -->
      <g style="fill:#262626;" transform="translate(29.82625 428.551689)scale(0.31 -0.31)">
       <use xlink:href="#ArialMT-8722"/>
       <use x="58.398438" xlink:href="#ArialMT-49"/>
       <use x="114.013672" xlink:href="#ArialMT-48"/>
       <use x="169.628906" xlink:href="#ArialMT-46"/>
       <use x="197.412109" xlink:href="#ArialMT-48"/>
       <use x="253.027344" xlink:href="#ArialMT-48"/>
      </g>
     </g>
    </g>
    <g id="ytick_3">
     <g id="line2d_11">
      <path clip-path="url(#p6779f8bc4e)" d="M 135 330.914159 
L 972 330.914159 
" style="fill:none;stroke:#ffffff;stroke-linecap:round;"/>
     </g>
     <g id="text_13">
      <!-- −5.00 -->
      <g style="fill:#262626;" transform="translate(47.065156 342.008769)scale(0.31 -0.31)">
       <use xlink:href="#ArialMT-8722"/>
       <use x="58.398438" xlink:href="#ArialMT-53"/>
       <use x="114.013672" xlink:href="#ArialMT-46"/>
       <use x="141.796875" xlink:href="#ArialMT-48"/>
       <use x="197.412109" xlink:href="#ArialMT-48"/>
      </g>
     </g>
    </g>
    <g id="ytick_4">
     <g id="line2d_12">
      <path clip-path="url(#p6779f8bc4e)" d="M 135 244.371239 
L 972 244.371239 
" style="fill:none;stroke:#ffffff;stroke-linecap:round;"/>
     </g>
     <g id="text_14">
      <!-- 0.00 -->
      <g style="fill:#262626;" transform="translate(65.171094 255.465848)scale(0.31 -0.31)">
       <use xlink:href="#ArialMT-48"/>
       <use x="55.615234" xlink:href="#ArialMT-46"/>
       <use x="83.398438" xlink:href="#ArialMT-48"/>
       <use x="139.013672" xlink:href="#ArialMT-48"/>
      </g>
     </g>
    </g>
    <g id="ytick_5">
     <g id="line2d_13">
      <path clip-path="url(#p6779f8bc4e)" d="M 135 157.828318 
L 972 157.828318 
" style="fill:none;stroke:#ffffff;stroke-linecap:round;"/>
     </g>
     <g id="text_15">
      <!-- 5.00 -->
      <g style="fill:#262626;" transform="translate(65.171094 168.922928)scale(0.31 -0.31)">
       <use xlink:href="#ArialMT-53"/>
       <use x="55.615234" xlink:href="#ArialMT-46"/>
       <use x="83.398438" xlink:href="#ArialMT-48"/>
       <use x="139.013672" xlink:href="#ArialMT-48"/>
      </g>
     </g>
    </g>
    <g id="ytick_6">
     <g id="line2d_14">
      <path clip-path="url(#p6779f8bc4e)" d="M 135 90.020297 
L 972 90.020297 
" style="fill:none;stroke:#ffffff;stroke-linecap:round;"/>
     </g>
     <g id="text_16">
      <!-- 8.92 -->
      <g style="fill:#262626;" transform="translate(65.171094 101.114907)scale(0.31 -0.31)">
       <defs>
        <path d="M 5.46875 16.546875 
L 13.921875 17.328125 
Q 14.984375 11.375 18.015625 8.6875 
Q 21.046875 6 25.78125 6 
Q 29.828125 6 32.875 7.859375 
Q 35.9375 9.71875 37.890625 12.8125 
Q 39.84375 15.921875 41.15625 21.1875 
Q 42.484375 26.46875 42.484375 31.9375 
Q 42.484375 32.515625 42.4375 33.6875 
Q 39.796875 29.5 35.234375 26.875 
Q 30.671875 24.265625 25.34375 24.265625 
Q 16.453125 24.265625 10.296875 30.703125 
Q 4.15625 37.15625 4.15625 47.703125 
Q 4.15625 58.59375 10.578125 65.234375 
Q 17 71.875 26.65625 71.875 
Q 33.640625 71.875 39.421875 68.109375 
Q 45.21875 64.359375 48.21875 57.390625 
Q 51.21875 50.4375 51.21875 37.25 
Q 51.21875 23.53125 48.234375 15.40625 
Q 45.265625 7.28125 39.375 3.03125 
Q 33.5 -1.21875 25.59375 -1.21875 
Q 17.1875 -1.21875 11.859375 3.4375 
Q 6.546875 8.109375 5.46875 16.546875 
z
M 41.453125 48.140625 
Q 41.453125 55.71875 37.421875 60.15625 
Q 33.40625 64.59375 27.734375 64.59375 
Q 21.875 64.59375 17.53125 59.8125 
Q 13.1875 55.03125 13.1875 47.40625 
Q 13.1875 40.578125 17.3125 36.296875 
Q 21.4375 32.03125 27.484375 32.03125 
Q 33.59375 32.03125 37.515625 36.296875 
Q 41.453125 40.578125 41.453125 48.140625 
z
" id="ArialMT-57"/>
       </defs>
       <use xlink:href="#ArialMT-56"/>
       <use x="55.615234" xlink:href="#ArialMT-46"/>
       <use x="83.398438" xlink:href="#ArialMT-57"/>
       <use x="139.013672" xlink:href="#ArialMT-50"/>
      </g>
     </g>
    </g>
    <g id="text_17">
     <!-- avg reward -->
     <g style="fill:#262626;" transform="translate(19.09125 365.7025)rotate(-90)scale(0.32 -0.32)">
      <defs>
       <path d="M 40.4375 6.390625 
Q 35.546875 2.25 31.03125 0.53125 
Q 26.515625 -1.171875 21.34375 -1.171875 
Q 12.796875 -1.171875 8.203125 3 
Q 3.609375 7.171875 3.609375 13.671875 
Q 3.609375 17.484375 5.34375 20.625 
Q 7.078125 23.78125 9.890625 25.6875 
Q 12.703125 27.59375 16.21875 28.5625 
Q 18.796875 29.25 24.03125 29.890625 
Q 34.671875 31.15625 39.703125 32.90625 
Q 39.75 34.71875 39.75 35.203125 
Q 39.75 40.578125 37.25 42.78125 
Q 33.890625 45.75 27.25 45.75 
Q 21.046875 45.75 18.09375 43.578125 
Q 15.140625 41.40625 13.71875 35.890625 
L 5.125 37.0625 
Q 6.296875 42.578125 8.984375 45.96875 
Q 11.671875 49.359375 16.75 51.1875 
Q 21.828125 53.03125 28.515625 53.03125 
Q 35.15625 53.03125 39.296875 51.46875 
Q 43.453125 49.90625 45.40625 47.53125 
Q 47.359375 45.171875 48.140625 41.546875 
Q 48.578125 39.3125 48.578125 33.453125 
L 48.578125 21.734375 
Q 48.578125 9.46875 49.140625 6.21875 
Q 49.703125 2.984375 51.375 0 
L 42.1875 0 
Q 40.828125 2.734375 40.4375 6.390625 
z
M 39.703125 26.03125 
Q 34.90625 24.078125 25.34375 22.703125 
Q 19.921875 21.921875 17.671875 20.9375 
Q 15.4375 19.96875 14.203125 18.09375 
Q 12.984375 16.21875 12.984375 13.921875 
Q 12.984375 10.40625 15.640625 8.0625 
Q 18.3125 5.71875 23.4375 5.71875 
Q 28.515625 5.71875 32.46875 7.9375 
Q 36.421875 10.15625 38.28125 14.015625 
Q 39.703125 17 39.703125 22.796875 
z
" id="ArialMT-97"/>
       <path d="M 21 0 
L 1.265625 51.859375 
L 10.546875 51.859375 
L 21.6875 20.796875 
Q 23.484375 15.765625 25 10.359375 
Q 26.171875 14.453125 28.265625 20.21875 
L 39.796875 51.859375 
L 48.828125 51.859375 
L 29.203125 0 
z
" id="ArialMT-118"/>
       <path d="M 4.984375 -4.296875 
L 13.53125 -5.5625 
Q 14.0625 -9.515625 16.5 -11.328125 
Q 19.78125 -13.765625 25.4375 -13.765625 
Q 31.546875 -13.765625 34.859375 -11.328125 
Q 38.1875 -8.890625 39.359375 -4.5 
Q 40.046875 -1.8125 39.984375 6.78125 
Q 34.234375 0 25.640625 0 
Q 14.9375 0 9.078125 7.71875 
Q 3.21875 15.4375 3.21875 26.21875 
Q 3.21875 33.640625 5.90625 39.90625 
Q 8.59375 46.1875 13.6875 49.609375 
Q 18.796875 53.03125 25.6875 53.03125 
Q 34.859375 53.03125 40.828125 45.609375 
L 40.828125 51.859375 
L 48.921875 51.859375 
L 48.921875 7.03125 
Q 48.921875 -5.078125 46.453125 -10.125 
Q 44 -15.1875 38.640625 -18.109375 
Q 33.296875 -21.046875 25.484375 -21.046875 
Q 16.21875 -21.046875 10.5 -16.875 
Q 4.78125 -12.703125 4.984375 -4.296875 
z
M 12.25 26.859375 
Q 12.25 16.65625 16.296875 11.96875 
Q 20.359375 7.28125 26.46875 7.28125 
Q 32.515625 7.28125 36.609375 11.9375 
Q 40.71875 16.609375 40.71875 26.5625 
Q 40.71875 36.078125 36.5 40.90625 
Q 32.28125 45.75 26.3125 45.75 
Q 20.453125 45.75 16.34375 40.984375 
Q 12.25 36.234375 12.25 26.859375 
z
" id="ArialMT-103"/>
       <path id="ArialMT-32"/>
       <path d="M 6.5 0 
L 6.5 51.859375 
L 14.40625 51.859375 
L 14.40625 44 
Q 17.4375 49.515625 20 51.265625 
Q 22.5625 53.03125 25.640625 53.03125 
Q 30.078125 53.03125 34.671875 50.203125 
L 31.640625 42.046875 
Q 28.421875 43.953125 25.203125 43.953125 
Q 22.3125 43.953125 20.015625 42.21875 
Q 17.71875 40.484375 16.75 37.40625 
Q 15.28125 32.71875 15.28125 27.15625 
L 15.28125 0 
z
" id="ArialMT-114"/>
       <path d="M 16.15625 0 
L 0.296875 51.859375 
L 9.375 51.859375 
L 17.625 21.921875 
L 20.703125 10.796875 
Q 20.90625 11.625 23.390625 21.484375 
L 31.640625 51.859375 
L 40.671875 51.859375 
L 48.4375 21.78125 
L 51.03125 11.859375 
L 54 21.875 
L 62.890625 51.859375 
L 71.4375 51.859375 
L 55.21875 0 
L 46.09375 0 
L 37.84375 31.0625 
L 35.84375 39.890625 
L 25.34375 0 
z
" id="ArialMT-119"/>
      </defs>
      <use xlink:href="#ArialMT-97"/>
      <use x="55.615234" xlink:href="#ArialMT-118"/>
      <use x="105.615234" xlink:href="#ArialMT-103"/>
      <use x="161.230469" xlink:href="#ArialMT-32"/>
      <use x="189.013672" xlink:href="#ArialMT-114"/>
      <use x="222.314453" xlink:href="#ArialMT-101"/>
      <use x="277.929688" xlink:href="#ArialMT-119"/>
      <use x="350.146484" xlink:href="#ArialMT-97"/>
      <use x="405.761719" xlink:href="#ArialMT-114"/>
      <use x="439.0625" xlink:href="#ArialMT-100"/>
     </g>
    </g>
   </g>
   <g id="line2d_15">
    <path clip-path="url(#p6779f8bc4e)" d="M 173.045455 469.402475 
L 174.395282 305.08214 
L 174.564011 361.879085 
L 175.182682 414.872832 
L 176.026324 126.758823 
L 176.195052 216.785365 
L 177.319909 176.132569 
L 180.750721 322.757306 
L 180.919449 371.293248 
L 181.425634 228.503174 
L 184.912689 150.12876 
L 185.193903 319.563605 
L 186.375003 438.351145 
L 186.656217 168.026924 
L 187.049916 331.620896 
L 187.387373 358.943417 
L 189.355872 253.396124 
L 189.468358 345.573187 
L 189.9183 254.525137 
L 191.549342 267.000269 
L 192.674198 299.321474 
L 195.71131 348.43195 
L 195.767553 151.831498 
L 196.89241 208.443249 
L 197.061138 189.366684 
L 197.90478 320.831389 
L 198.073509 295.44901 
L 198.129752 257.36331 
L 198.69218 192.652077 
L 202.179235 201.99619 
L 203.697791 275.630797 
L 204.597676 266.410256 
L 204.991375 298.404198 
L 205.047618 252.549421 
L 206.903631 176.684637 
L 207.691031 326.881023 
L 208.140973 284.629461 
L 208.253459 149.628696 
L 208.422187 427.102734 
L 208.534673 292.614343 
L 209.209587 340.507727 
L 209.772015 288.13975 
L 212.190456 301.372739 
L 212.640399 165.690055 
L 213.090341 258.390926 
L 214.327683 170.454077 
L 214.552655 277.494463 
L 215.05884 335.746049 
L 215.283811 137.177472 
L 215.396297 256.333388 
L 216.183696 184.032577 
L 216.296182 112.363309 
L 216.689882 208.031946 
L 217.139824 278.982409 
L 217.477281 292.12774 
L 217.533524 378.701165 
L 219.05208 248.122946 
L 223.04532 194.585236 
L 223.157806 161.845476 
L 225.013819 112.812111 
L 225.182547 180.084591 
L 226.138675 339.342069 
L 226.644861 288.546328 
L 226.701103 213.118041 
L 227.03856 107.981534 
L 227.094803 111.107219 
L 227.376017 242.196293 
L 228.388388 209.422244 
L 228.557116 233.264036 
L 229.063302 197.011077 
L 231.8192 230.108781 
L 231.987928 353.21994 
L 232.325385 214.300313 
L 232.662842 193.422855 
L 232.944056 277.510035 
L 233.506484 190.384969 
L 233.843941 230.283941 
L 234.125155 229.867288 
L 237.049782 258.217046 
L 237.330996 370.851148 
L 237.387239 132.129352 
L 238.39961 374.742978 
L 239.130766 192.212816 
L 239.861923 374.816532 
L 241.99915 188.023328 
L 242.955278 171.976932 
L 244.080134 323.23313 
L 244.417591 183.845972 
L 244.811291 146.128283 
L 246.048633 160.179276 
L 246.217361 323.249942 
L 246.836032 286.939891 
L 247.004761 95.315581 
L 247.173489 298.831677 
L 247.229732 286.759018 
L 249.929387 112.261355 
L 250.266844 156.57676 
L 250.323087 102.670808 
L 251.560429 138.221086 
L 252.235343 204.837873 
L 252.797771 338.325542 
L 254.485056 150.589497 
L 255.103727 211.722571 
L 255.553669 322.93194 
L 255.891126 244.625161 
L 257.690896 112.489618 
L 257.915868 300.74325 
L 259.321938 215.715843 
L 260.221823 254.30682 
L 260.278066 211.965348 
L 261.121708 461.408882 
L 261.34668 164.614508 
L 262.302807 112.202393 
L 264.271306 301.338995 
L 264.721249 211.48481 
L 265.846105 99.891731 
L 266.633504 188.933795 
L 267.13969 99.246581 
L 267.477147 193.587329 
L 267.589632 106.554946 
L 267.758361 210.855867 
L 268.152061 242.868886 
L 268.658246 179.744469 
L 269.445645 242.392992 
L 269.726859 356.009209 
L 270.233045 147.03041 
L 271.864087 270.780571 
L 272.201543 177.654966 
L 273.551371 112.85044 
L 274.73247 198.490944 
L 275.744841 180.750886 
L 276.251026 236.855446 
L 276.982183 102.295742 
L 277.150912 281.529031 
L 277.600854 170.532121 
L 279.850567 158.888035 
L 280.806695 328.367464 
L 281.369123 233.895209 
L 281.537851 115.333171 
L 282.662708 140.927855 
L 283.562593 316.410939 
L 284.574964 253.843822 
L 284.799935 101.833932 
L 285.249877 328.212887 
L 286.206005 163.057418 
L 286.543462 242.849561 
L 287.89329 99.224495 
L 288.624446 215.744907 
L 288.793175 111.122207 
L 288.849418 199.997928 
L 289.29936 264.354915 
L 289.524332 422.584935 
L 289.918031 142.375324 
L 290.761674 257.052364 
L 292.673929 196.127862 
L 292.898901 140.098119 
L 293.2926 173.854031 
L 293.798786 172.391499 
L 295.036128 184.104447 
L 295.261099 151.249222 
L 295.711042 283.180936 
L 296.160984 142.408098 
L 296.385955 158.540717 
L 297.510812 278.616908 
L 297.792026 96.383584 
L 297.848269 208.587262 
L 297.960754 196.008741 
L 298.129483 285.372348 
L 298.804397 105.32927 
L 299.254339 189.180434 
L 300.322953 246.966673 
L 301.222838 164.706244 
L 301.785266 202.417327 
L 302.46018 258.554256 
L 303.922493 197.920281 
L 304.428678 247.661462 
L 306.397177 192.738787 
L 306.45342 288.884246 
L 306.565906 146.079555 
L 309.04059 272.682508 
L 309.490532 173.897055 
L 309.996717 158.380667 
L 310.109203 279.600205 
L 311.796488 105.687731 
L 311.85273 114.245788 
L 312.415159 147.016751 
L 312.527644 278.611065 
L 312.808858 165.634535 
L 313.596258 205.37244 
L 313.933715 241.366818 
L 314.4399 314.455788 
L 315.283542 219.216888 
L 315.620999 105.455778 
L 317.02707 106.463102 
L 318.264412 156.659244 
L 318.601869 99.392633 
L 319.557997 117.155632 
L 319.895454 127.301532 
L 321.357767 105.835862 
L 322.651352 149.638493 
L 323.045051 326.676851 
L 323.326265 352.824826 
L 324.057422 301.88713 
L 324.451122 109.27374 
L 325.294764 189.589616 
L 326.138406 158.419854 
L 326.925806 174.779713 
L 328.894304 141.629582 
L 329.00679 254.374913 
L 333.562458 263.445461 
L 334.068644 164.926568 
L 334.574829 199.526016 
L 334.912286 100.539869 
L 336.262114 297.013999 
L 338.905526 215.846065 
L 339.355469 205.806534 
L 341.38021 105.324054 
L 342.280095 144.790072 
L 342.448824 230.189759 
L 342.898766 312.965055 
L 343.067495 235.88824 
L 344.417322 219.900377 
L 344.642294 225.170271 
L 346.329578 224.261271 
L 347.623163 175.587017 
L 348.466805 164.759355 
L 349.479176 180.638578 
L 349.816633 189.019881 
L 350.716518 183.127817 
L 351.728889 178.698771 
L 351.785132 139.765681 
L 353.697387 114.307507 
L 354.259816 257.44165 
L 354.597273 108.242076 
L 354.653515 332.639115 
L 356.059586 177.884827 
L 357.915599 190.281563 
L 359.209184 108.588949 
L 360.165312 100.197965 
L 361.908839 352.241774 
L 363.427395 252.622384 
L 363.708609 106.754843 
L 364.945951 142.413645 
L 366.014565 143.370558 
L 366.12705 227.739223 
L 366.858207 195.006476 
L 367.758092 144.431645 
L 369.389134 126.89814 
L 369.557862 188.450989 
L 370.963933 153.535704 
L 372.426246 215.259409 
L 373.382374 182.444528 
L 374.50723 159.530932 
L 375.519601 198.500931 
L 375.632087 177.994386 
L 375.744572 223.49753 
L 376.082029 166.908889 
L 377.656828 108.004602 
L 378.444228 151.91229 
L 381.593825 141.947073 
L 381.818797 185.888291 
L 382.268739 170.866573 
L 382.437468 273.312828 
L 384.180995 179.706087 
L 384.630938 171.664509 
L 385.362094 160.672968 
L 385.643308 308.831042 
L 386.543193 214.417195 
L 386.936893 110.657575 
L 387.499321 170.257696 
L 387.724293 164.08328 
L 389.355334 140.583706 
L 390.030248 143.113646 
L 392.954875 182.632078 
L 393.348574 263.80928 
L 394.192217 113.451475 
L 394.529674 99.322067 
L 394.867131 96.443801 
L 396.104473 226.177278 
L 397.510543 321.799816 
L 397.566786 158.253598 
L 398.2417 199.351767 
L 398.860371 190.640036 
L 399.029099 315.112542 
L 402.23494 115.090728 
L 402.516154 148.972966 
L 402.572397 100.020022 
L 403.134825 99.896337 
L 407.240551 183.425863 
L 407.859222 193.563893 
L 408.02795 270.139822 
L 408.309164 227.767103 
L 408.365407 319.039986 
L 409.771477 261.180358 
L 410.671363 199.021426 
L 411.796219 172.239604 
L 411.964947 191.322738 
L 412.02119 173.747232 
L 412.864832 191.332638 
L 413.764718 368.884831 
L 414.102174 149.256766 
L 414.833331 210.696484 
L 414.945817 331.530282 
L 416.295644 104.002243 
L 417.757958 214.54601 
L 418.264143 166.507676 
L 419.107785 101.70617 
L 419.501485 285.895249 
L 419.838942 158.607817 
L 420.063913 197.315634 
L 421.18877 446.315075 
L 421.357498 268.334842 
L 423.719696 251.467707 
L 424.675824 223.802928 
L 425.631952 99.743534 
L 425.688195 196.29621 
L 426.813051 147.429807 
L 426.98178 101.515121 
L 427.487965 150.600614 
L 428.106636 313.914697 
L 429.681435 162.52784 
L 430.468835 250.353154 
L 430.58132 170.002139 
L 430.693806 195.189367 
L 432.324848 102.351138 
L 433.899647 169.499855 
L 434.349589 208.654799 
L 434.57456 152.328599 
L 435.024503 213.133642 
L 435.643174 233.712569 
L 437.105487 298.956286 
L 437.386701 293.977924 
L 438.286586 235.784984 
L 439.186471 240.909381 
L 439.636414 162.230653 
L 440.142599 194.1589 
L 440.648785 235.908501 
L 441.661155 104.571709 
L 441.998612 109.102755 
L 442.111098 242.459242 
L 442.279827 230.371001 
L 444.248325 114.263137 
L 444.923239 257.140643 
L 445.991853 96.173536 
L 447.285437 96.798217 
L 448.410294 292.439045 
L 449.760121 136.637404 
L 450.660006 284.808651 
L 451.109949 141.440184 
L 451.616134 143.309631 
L 451.784863 210.814629 
L 451.897348 103.045643 
L 454.765732 309.462397 
L 454.934461 189.945097 
L 456.059317 273.282394 
L 456.171803 197.174654 
L 456.228045 251.241115 
L 456.621745 193.248329 
L 457.634116 165.588555 
L 459.208915 106.421943 
L 460.333771 180.184023 
L 460.446257 198.650218 
L 460.783714 112.228143 
L 462.246027 192.785922 
L 462.527241 152.441051 
L 463.483369 110.107859 
L 464.49574 287.599204 
L 464.945682 178.589038 
L 466.68921 106.409719 
L 468.207766 191.569997 
L 469.501351 149.362863 
L 471.132392 229.70126 
L 471.751063 180.429396 
L 472.650948 204.69303 
L 473.438348 114.146946 
L 474.619447 186.319059 
L 476.86916 174.506848 
L 478.106502 220.832936 
L 478.387716 116.952293 
L 480.4687 223.79432 
L 481.087371 273.07724 
L 481.424828 160.481391 
L 482.212228 196.969682 
L 482.324713 166.526749 
L 484.124483 148.645843 
L 485.474311 152.86038 
L 486.149225 266.610373 
L 486.261711 145.21404 
L 486.599167 167.485552 
L 487.274081 261.849413 
L 488.680152 308.904972 
L 490.254951 123.135244 
L 490.367436 150.569928 
L 490.592408 138.653869 
L 491.43605 138.144635 
L 493.742005 220.601767 
L 493.910734 107.720273 
L 494.923105 367.512476 
L 495.935475 212.92881 
L 496.891603 180.460293 
L 497.060332 372.5421 
L 497.62276 202.975837 
L 498.635131 305.267239 
L 498.691373 184.066317 
L 499.647501 167.81884 
L 499.81623 138.402603 
L 501.728486 214.918526 
L 501.840971 187.419672 
L 502.234671 148.941784 
L 503.753227 285.850829 
L 504.259412 288.976927 
L 505.440512 292.11047 
L 506.790339 99.088711 
L 507.071553 124.454298 
L 507.40901 167.967368 
L 508.927566 231.529076 
L 510.052423 248.537033 
L 510.333637 108.270105 
L 511.177279 222.463597 
L 511.458493 211.146085 
L 512.864564 261.102709 
L 513.876934 160.515824 
L 514.101906 206.133517 
L 514.38312 103.02808 
L 515.39549 217.052647 
L 516.295376 103.931643 
L 516.407861 103.914806 
L 516.745318 109.135166 
L 516.857804 155.442581 
L 517.645203 311.650057 
L 517.870175 200.85391 
L 519.163759 384.333261 
L 519.669945 206.748608 
L 520.738558 213.226631 
L 521.357229 231.858539 
L 521.469715 185.376313 
L 521.807172 119.105467 
L 522.538328 253.944096 
L 523.550699 186.222561 
L 525.744169 159.24506 
L 527.037754 233.730553 
L 527.262725 166.927723 
L 527.318968 263.602141 
L 527.712668 146.609678 
L 528.668796 194.342104 
L 529.287467 131.961231 
L 529.906138 301.225903 
L 530.299837 191.902596 
L 530.637294 245.842432 
L 531.987122 214.357608 
L 535.080477 238.876089 
L 535.305448 100.320527 
L 536.036605 152.700133 
L 537.33019 189.566069 
L 537.386433 111.097843 
L 537.611404 202.276524 
L 538.73626 318.452189 
L 538.848746 104.39961 
L 539.298688 162.196434 
L 540.423545 113.702543 
L 541.773372 234.681632 
L 542.167072 127.358678 
L 542.335801 186.931398 
L 543.404414 182.888098 
L 546.441526 217.469741 
L 546.947712 407.222349 
L 547.060197 106.856483 
L 547.285169 281.611487 
L 547.622625 179.855316 
L 547.791354 258.993018 
L 548.185054 200.314317 
L 548.634996 189.013803 
L 548.803725 139.83713 
L 549.478638 206.306033 
L 550.997195 122.609644 
L 551.222166 305.656773 
L 551.840837 113.114944 
L 552.459508 223.182332 
L 556.28402 105.535885 
L 557.071419 105.943412 
L 557.521362 127.584036 
L 558.308761 158.228805 
L 558.365004 109.841275 
L 559.827317 155.381275 
L 560.614717 109.155543 
L 562.020787 266.995263 
L 563.651829 154.324694 
L 563.820557 208.386833 
L 565.28287 205.757159 
L 566.295241 158.376128 
L 566.520212 156.854973 
L 567.926283 143.442651 
L 568.319983 106.425005 
L 569.388596 259.148499 
L 570.850909 213.032373 
L 571.694552 239.228728 
L 572.144494 115.405388 
L 572.200737 308.555714 
L 573.438079 276.769901 
L 573.66305 137.986278 
L 574.45045 170.573355 
L 575.575306 148.624186 
L 576.700163 121.405221 
L 577.206348 136.142804 
L 577.712533 200.731909 
L 577.825019 132.890437 
L 577.881262 237.156876 
L 578.949875 508.026244 
L 579.118604 230.924429 
L 579.624789 114.247621 
L 581.705773 181.340524 
L 582.605659 221.593355 
L 583.22433 103.053748 
L 584.2367 109.896655 
L 584.799128 267.577134 
L 584.855371 147.524119 
L 585.586528 103.706161 
L 585.867742 116.39935 
L 585.923985 206.863619 
L 587.21757 203.870899 
L 587.442541 210.558738 
L 588.286183 155.646522 
L 589.973468 182.725915 
L 590.479653 235.328939 
L 590.648382 351.019895 
L 591.042081 139.248062 
L 592.054452 295.951661 
L 592.61688 142.34255 
L 593.966708 187.972961 
L 594.472893 228.831595 
L 595.541507 206.310102 
L 596.497635 109.21822 
L 599.253533 190.857017 
L 599.984689 170.117273 
L 600.153418 258.870737 
L 601.896945 274.056136 
L 601.953188 251.319933 
L 602.909316 110.027851 
L 603.471744 108.82885 
L 603.752958 261.405707 
L 604.371629 108.786114 
L 604.709086 104.129345 
L 605.102786 238.702512 
L 606.115157 248.838215 
L 606.396371 261.707278 
L 606.677585 280.64032 
L 607.689956 102.616138 
L 608.308627 241.41458 
L 608.477355 155.677348 
L 609.602211 262.986914 
L 610.052154 202.492466 
L 610.614582 194.842609 
L 611.289496 243.84771 
L 612.583081 283.383202 
L 612.864295 195.091886 
L 616.295107 194.935691 
L 616.35135 257.720529 
L 616.576321 317.628436 
L 618.15112 170.008362 
L 620.569561 105.655823 
L 621.019504 186.739441 
L 621.469446 235.516316 
L 621.525689 139.14728 
L 623.437945 197.438585 
L 624.056616 163.421252 
L 624.73153 288.815289 
L 624.900258 204.334949 
L 625.687657 106.319081 
L 629.062227 241.325764 
L 630.412054 310.435656 
L 632.099339 192.602845 
L 633.11171 236.473584 
L 634.067837 292.838653 
L 634.405294 106.579855 
L 636.767493 328.18296 
L 637.667378 100.77679 
L 638.286049 256.840007 
L 638.792234 258.243628 
L 639.242177 195.029833 
L 640.367033 306.539608 
L 640.479519 101.653216 
L 640.760733 263.37395 
L 641.09819 276.201828 
L 641.773104 193.522176 
L 642.223046 193.10879 
L 642.391775 258.353124 
L 642.672989 291.655259 
L 643.066688 257.254226 
L 643.179174 261.918789 
L 646.047558 221.212274 
L 646.666229 139.082813 
L 647.116171 104.010215 
L 648.241028 234.883382 
L 648.297271 298.68742 
L 648.409756 102.662753 
L 649.197156 110.484593 
L 649.422127 144.693995 
L 649.984555 186.80208 
L 650.265769 156.223499 
L 650.49074 168.748608 
L 650.546983 261.198985 
L 651.390626 178.034572 
L 653.134153 108.599563 
L 654.202766 183.716497 
L 654.483981 162.45526 
L 655.27138 156.642985 
L 655.777565 167.724116 
L 656.621208 126.677849 
L 657.239879 252.678448 
L 657.689821 185.810663 
L 658.196007 207.772303 
L 660.333234 152.486882 
L 660.783176 260.823515 
L 660.839419 160.456292 
L 661.06439 242.91089 
L 662.86416 272.786449 
L 665.507573 184.824942 
L 665.732544 216.089059 
L 666.744915 104.427209 
L 667.026129 184.427138 
L 668.0385 106.055435 
L 668.207228 182.036572 
L 669.388327 243.404601 
L 670.006998 105.048952 
L 671.356826 172.709617 
L 671.750526 287.261649 
L 672.706654 105.4294 
L 672.819139 210.908074 
L 672.987868 170.184349 
L 674.168967 149.839702 
L 674.281453 334.513844 
L 674.562667 136.404353 
L 675.181338 213.84646 
L 675.856252 104.635623 
L 676.812379 99.190987 
L 677.82475 154.904023 
L 678.162207 151.051191 
L 678.443421 152.763056 
L 678.724635 279.855197 
L 679.737006 186.86327 
L 679.793249 259.418745 
L 681.311805 197.090751 
L 681.761747 148.276628 
L 682.324176 106.44147 
L 682.942847 174.330671 
L 684.123946 256.259168 
L 685.136317 110.279356 
L 686.936087 251.490863 
L 686.99233 275.547568 
L 687.329787 106.395028 
L 690.254413 314.372619 
L 690.366899 262.109919 
L 690.929327 153.78806 
L 691.323027 198.45895 
L 692.841583 240.683491 
L 694.022682 209.552948 
L 694.58511 254.793282 
L 695.484995 99.630528 
L 695.597481 222.164969 
L 695.991181 235.054698 
L 697.790951 262.473333 
L 698.072165 318.268114 
L 698.97205 195.416743 
L 701.390491 282.379372 
L 701.55922 105.782826 
L 702.684076 166.491012 
L 703.021533 237.087261 
L 703.077776 202.13514 
L 704.540089 327.178004 
L 704.933789 244.875638 
L 708.420843 321.948096 
L 708.477086 103.886943 
L 708.983272 182.803381 
L 709.376971 149.276673 
L 709.5457 111.457179 
L 709.9394 245.401742 
L 710.108128 168.311534 
L 711.34547 107.56903 
L 711.964141 288.507805 
L 712.582812 274.363514 
L 713.14524 187.154375 
L 713.257726 102.049015 
L 713.313969 140.961678 
L 713.482697 177.236016 
L 714.832525 196.526995 
L 715.394953 111.066918 
L 716.463566 107.782982 
L 717.025995 197.256594 
L 717.475937 347.727962 
L 718.150851 288.798048 
L 720.400564 236.579468 
L 720.906749 189.845326 
L 720.962992 172.040005 
L 721.412935 195.744167 
L 721.91912 147.435758 
L 723.887619 241.194576 
L 725.462417 104.595958 
L 725.631146 243.002158 
L 727.880859 107.04513 
L 729.230686 108.136648 
L 729.793114 245.444268 
L 732.886469 109.231912 
L 733.617626 261.239493 
L 734.236297 151.569998 
L 735.248668 195.714195 
L 737.273409 237.215105 
L 737.554623 102.900334 
L 737.723352 271.135357 
L 738.510751 109.317995 
L 739.185665 201.088793 
L 739.748093 107.464806 
L 740.47925 191.488264 
L 740.760464 159.805018 
L 740.816707 112.464314 
L 741.660349 187.670112 
L 741.997806 162.044605 
L 742.560234 188.895136 
L 743.910062 238.156949 
L 744.86619 107.827039 
L 746.103532 287.325802 
L 748.240759 183.993018 
L 748.409487 105.880381 
L 748.85943 189.07565 
L 749.759315 279.760217 
L 749.984286 148.221884 
L 750.2655 190.798108 
L 750.377986 130.925647 
L 750.490472 205.630337 
L 750.6592 186.805612 
L 752.627699 209.592511 
L 753.021398 116.846435 
L 753.921284 114.364282 
L 755.04614 239.373373 
L 756.620939 204.989297 
L 756.733424 103.553424 
L 756.902153 325.889817 
L 757.23961 121.445134 
L 757.745795 108.094778 
L 758.083252 144.296859 
L 758.364466 197.740064 
L 759.995508 159.73295 
L 760.782907 302.526127 
L 761.401578 202.883845 
L 761.964007 255.743963 
L 762.188978 107.512915 
L 762.245221 193.013694 
L 763.82002 223.067358 
L 764.326205 102.157184 
L 764.776148 243.3295 
L 765.61979 174.774678 
L 765.676033 242.918853 
L 766.350946 126.75028 
L 768.094474 152.418354 
L 768.600659 117.106821 
L 769.331816 280.715434 
L 769.556787 108.741141 
L 769.838001 99.798683 
L 770.344187 292.290625 
L 770.794129 258.018219 
L 771.187829 307.632982 
L 771.244072 166.973051 
L 772.2002 209.02035 
L 773.887484 200.762273 
L 774.449912 282.773401 
L 777.037082 275.062928 
L 777.093325 224.373022 
L 777.430782 109.503687 
L 778.330667 259.863775 
L 778.724367 195.341204 
L 780.299165 189.392715 
L 780.355408 206.711835 
L 781.142808 116.087034 
L 781.761479 183.495719 
L 782.267664 180.502608 
L 783.055064 99.63893 
L 783.673735 204.026388 
L 785.192291 117.803546 
L 785.361019 205.198818 
L 785.867204 150.183133 
L 787.273275 282.417297 
L 787.498246 182.587683 
L 788.004432 151.277399 
L 788.791831 247.865013 
L 789.129288 108.226634 
L 789.241774 266.451547 
L 791.154029 195.28681 
L 791.491486 100.05637 
L 791.828943 197.454176 
L 791.941429 130.290211 
L 791.997672 166.516408 
L 792.5601 177.717362 
L 792.841314 102.22085 
L 793.628713 142.410533 
L 794.134899 110.829931 
L 795.034784 116.605825 
L 796.440854 105.974519 
L 797.509468 197.815158 
L 798.015653 260.956307 
L 799.028024 217.714419 
L 800.040395 107.191256 
L 800.54658 272.828912 
L 801.840165 219.326852 
L 801.952651 247.391469 
L 802.008893 195.85572 
L 804.877277 236.186623 
L 805.495948 139.363791 
L 806.002133 101.579018 
L 806.958261 112.807538 
L 808.139361 104.098444 
L 808.983003 208.820428 
L 809.882888 171.146725 
L 811.007744 288.346184 
L 811.401444 139.152282 
L 811.795144 191.930525 
L 812.076358 214.403086 
L 813.819885 106.424419 
L 814.269828 151.015759 
L 814.382313 188.768459 
L 816.294569 135.969813 
L 816.463298 267.046713 
L 817.250697 103.333521 
L 817.363183 106.609988 
L 817.419426 144.460391 
L 818.038097 181.382496 
L 818.375554 99.675608 
L 819.950352 337.47901 
L 820.119081 167.948286 
L 820.175324 213.426092 
L 820.512781 296.710398 
L 820.625266 104.408721 
L 821.581394 103.256137 
L 822.031337 193.587605 
L 822.537522 162.838918 
L 823.381164 189.296464 
L 824.281049 199.813651 
L 826.474519 105.354756 
L 827.149433 199.500047 
L 827.261919 242.911066 
L 827.824347 169.226082 
L 828.443018 230.565217 
L 828.836718 292.32212 
L 829.230417 201.113978 
L 829.342903 105.323872 
L 830.299031 231.336281 
L 831.367645 356.774405 
L 833.392386 285.906036 
L 833.954814 146.011349 
L 834.910942 309.005845 
L 835.248399 106.273085 
L 835.754584 232.956333 
L 837.441869 108.54793 
L 838.735454 166.929035 
L 838.791697 112.500488 
L 839.804067 152.378366 
L 841.378866 181.465282 
L 841.66008 218.647519 
L 842.391237 153.004162 
L 842.44748 137.875163 
L 843.178636 197.554372 
L 843.628579 108.166789 
L 843.909793 276.88497 
L 844.022279 223.602507 
L 844.078522 255.768431 
L 845.203378 90.020297 
L 845.484592 178.44219 
L 846.271991 202.764951 
L 846.83442 162.171088 
L 847.115634 234.748058 
L 847.509333 298.475309 
L 848.352976 360.532332 
L 848.577947 250.837492 
L 849.252861 208.303271 
L 851.22136 174.594276 
L 851.727545 373.814754 
L 852.008759 159.553059 
L 854.4272 196.296722 
L 854.708414 242.388872 
L 855.552057 224.694714 
L 856.170728 151.825217 
L 856.395699 344.866285 
L 857.295584 216.211112 
L 858.026741 144.945549 
L 859.151597 281.570826 
L 859.657782 226.653221 
L 860.107725 102.921001 
L 861.232581 195.917731 
L 862.132466 244.404833 
L 863.257323 277.579793 
L 863.426051 110.835419 
L 864.325936 201.436987 
L 865.113336 143.634401 
L 865.225821 199.493172 
L 865.844492 156.268802 
L 869.219061 137.20451 
L 869.725247 112.109295 
L 869.78149 112.49528 
L 871.468774 214.338173 
L 872.537388 98.126153 
L 872.706116 152.41601 
L 873.943458 278.568038 
L 876.418142 258.978551 
L 877.936698 100.814178 
L 878.049184 246.843591 
L 879.230283 107.718928 
L 882.098667 196.166302 
L 883.898437 241.83065 
L 885.585722 107.713093 
L 886.260635 133.906065 
L 889.578962 177.570897 
L 890.478847 135.157037 
L 892.222374 145.58096 
L 893.853416 372.976706 
L 895.5407 121.147212 
L 896.271857 193.641141 
L 897.003014 288.989307 
L 897.340471 294.243258 
L 899.702669 139.805999 
L 899.758912 367.949096 
L 900.040126 103.141284 
L 900.32134 357.656814 
L 900.883768 140.119264 
L 902.571053 97.084593 
L 903.302209 116.509813 
L 904.145852 195.788512 
L 905.10198 165.591922 
L 906.620536 268.842765 
L 906.676779 228.264285 
L 907.126721 126.953974 
L 907.801635 125.202913 
L 907.970363 187.903344 
L 908.476549 99.182089 
L 909.320191 204.545827 
L 909.545162 304.242817 
L 909.657648 136.886425 
L 910.50129 192.344391 
L 911.513661 249.418644 
L 912.526032 159.84045 
L 913.369674 284.504456 
L 913.932102 249.386797 
L 914.831987 102.686506 
L 915.056958 166.160539 
L 916.631757 99.578796 
L 918.094071 164.905464 
L 919.950084 177.853551 
L 920.231298 155.853805 
L 920.793726 198.949799 
L 922.818467 195.303874 
L 923.099681 266.922252 
L 925.799337 320.644318 
L 926.024308 120.814213 
L 927.149164 183.159522 
L 929.84882 288.796925 
L 929.905063 113.352946 
L 931.367376 148.373284 
L 931.536104 104.349248 
L 933.898303 196.005007 
L 933.954545 160.776919 
L 933.954545 160.776919 
" style="fill:none;stroke:#4c72b0;stroke-linecap:round;stroke-opacity:0.3;stroke-width:1.5;"/>
   </g>
   <g id="line2d_16">
    <path clip-path="url(#p6779f8bc4e)" d="M 173.045455 469.402475 
L 174.395282 452.970441 
L 174.564011 443.861306 
L 175.182682 440.962458 
L 176.026324 409.542095 
L 176.195052 390.266422 
L 177.319909 368.853037 
L 180.750721 364.243463 
L 180.919449 364.948442 
L 181.425634 351.303915 
L 185.193903 330.02412 
L 186.375003 340.856823 
L 186.656217 323.573833 
L 187.049916 324.378539 
L 187.387373 327.835027 
L 189.355872 320.391137 
L 189.468358 322.909342 
L 189.9183 316.070921 
L 191.549342 311.163856 
L 192.674198 309.979618 
L 195.71131 313.824851 
L 195.767553 297.625516 
L 196.89241 288.707289 
L 197.061138 278.773228 
L 198.073509 284.226041 
L 198.129752 281.539768 
L 198.69218 272.650999 
L 202.179235 265.585518 
L 203.697791 266.590046 
L 204.597676 266.572067 
L 204.991375 269.75528 
L 205.047618 268.034694 
L 206.903631 258.899688 
L 207.691031 265.697822 
L 208.140973 267.590986 
L 208.253459 255.794757 
L 208.534673 274.894433 
L 209.209587 281.455763 
L 209.772015 282.124161 
L 212.190456 284.049019 
L 212.640399 272.213123 
L 213.090341 270.830903 
L 214.327683 260.79322 
L 214.552655 262.463345 
L 215.05884 269.791615 
L 215.283811 256.530201 
L 215.396297 256.51052 
L 216.183696 249.262725 
L 216.296182 235.572784 
L 216.689882 229.011944 
L 217.139824 234.00899 
L 217.477281 239.820865 
L 217.533524 253.708895 
L 219.05208 253.1503 
L 223.04532 247.293794 
L 223.157806 238.748962 
L 225.013819 226.155277 
L 225.182547 221.548208 
L 226.644861 238.849468 
L 227.03856 223.446846 
L 227.094803 212.212883 
L 227.376017 215.211224 
L 228.388388 214.632326 
L 228.557116 216.495497 
L 229.063302 214.547055 
L 231.8192 216.103228 
L 231.987928 229.814899 
L 232.325385 228.26344 
L 232.662842 224.779382 
L 232.944056 230.052447 
L 233.506484 226.085699 
L 234.125155 226.8417 
L 237.049782 229.979235 
L 237.330996 244.066426 
L 237.387239 232.872719 
L 238.39961 247.059744 
L 239.130766 241.575052 
L 239.861923 254.8992 
L 241.99915 248.211612 
L 242.955278 240.588144 
L 244.080134 248.852643 
L 244.811291 232.729607 
L 246.048633 225.474574 
L 246.217361 235.25211 
L 246.836032 240.420888 
L 247.004761 225.910358 
L 247.229732 238.558142 
L 249.929387 225.928464 
L 250.266844 218.993293 
L 250.323087 207.361045 
L 251.560429 200.447049 
L 252.235343 200.886131 
L 252.797771 214.630072 
L 254.485056 208.226015 
L 255.103727 208.57567 
L 255.553669 220.011297 
L 255.891126 222.472684 
L 257.690896 211.474377 
L 257.915868 220.401264 
L 259.321938 219.932722 
L 260.221823 223.370132 
L 260.278066 222.229654 
L 261.121708 246.147577 
L 261.34668 237.99427 
L 262.302807 225.415082 
L 264.271306 233.007473 
L 264.721249 230.855207 
L 265.846105 217.758859 
L 266.633504 214.876353 
L 267.13969 203.313376 
L 267.477147 202.340771 
L 267.589632 192.762189 
L 268.152061 199.401289 
L 268.658246 197.435607 
L 269.445645 201.931346 
L 269.726859 224.522741 
L 270.176802 222.382802 
L 270.233045 214.847562 
L 271.864087 220.440863 
L 272.201543 216.162274 
L 273.551371 205.83109 
L 274.73247 205.097076 
L 275.744841 202.662457 
L 276.251026 206.081756 
L 276.982183 195.703154 
L 277.150912 204.285742 
L 277.600854 200.91038 
L 279.850567 196.708145 
L 280.806695 209.874077 
L 281.369123 212.27619 
L 281.537851 202.581888 
L 282.662708 196.416485 
L 283.562593 208.41593 
L 284.574964 212.95872 
L 284.799935 201.846241 
L 285.249877 214.482905 
L 286.206005 209.340357 
L 286.543462 212.691277 
L 287.89329 201.344599 
L 288.624446 202.78463 
L 288.793175 193.618388 
L 288.849418 194.256342 
L 289.29936 201.266199 
L 289.524332 223.398073 
L 289.918031 215.295798 
L 290.761674 219.471454 
L 292.673929 217.137095 
L 292.898901 209.433198 
L 293.2926 205.875281 
L 293.798786 202.526903 
L 295.036128 200.684657 
L 295.261099 195.741114 
L 295.711042 204.485096 
L 296.385955 194.303728 
L 297.510812 202.735046 
L 297.792026 192.0999 
L 297.848269 193.748636 
L 297.960754 193.974647 
L 298.129483 203.114417 
L 298.804397 193.335902 
L 298.973125 187.706182 
L 299.254339 187.853607 
L 300.322953 193.764914 
L 301.222838 190.859047 
L 301.785266 192.014875 
L 302.46018 198.668813 
L 303.922493 198.59396 
L 304.428678 203.50071 
L 306.397177 202.424518 
L 306.45342 211.07049 
L 306.565906 204.571397 
L 309.04059 211.382508 
L 309.996717 202.708633 
L 310.109203 210.39779 
L 310.390417 214.299938 
L 311.796488 203.438717 
L 311.85273 194.519424 
L 312.415159 189.769157 
L 312.527644 198.653348 
L 312.808858 195.351467 
L 313.596258 196.353564 
L 313.933715 200.854889 
L 314.4399 212.214979 
L 315.283542 212.91517 
L 315.508514 205.224206 
L 315.620999 195.247363 
L 317.02707 186.368937 
L 318.264412 183.397968 
L 318.601869 174.997434 
L 319.557997 169.213254 
L 319.895454 165.022082 
L 321.357767 159.10346 
L 322.651352 158.156963 
L 323.045051 175.008952 
L 323.326265 192.790539 
L 324.057422 203.700198 
L 324.451122 194.257553 
L 325.294764 193.790759 
L 326.138406 190.253668 
L 326.925806 188.706273 
L 328.894304 183.998604 
L 328.950547 184.866067 
L 329.00679 191.816951 
L 333.562458 198.979802 
L 334.068644 195.574479 
L 334.574829 195.969633 
L 334.912286 186.426656 
L 336.262114 197.485391 
L 338.905526 199.321458 
L 339.355469 199.969966 
L 342.280095 185.933844 
L 343.067495 205.946822 
L 344.417322 207.342177 
L 344.642294 209.124987 
L 346.329578 210.638615 
L 347.623163 207.133455 
L 348.466805 202.896045 
L 349.479176 200.670299 
L 349.816633 199.505257 
L 351.728889 195.950639 
L 351.785132 190.332143 
L 353.697387 182.729679 
L 354.259816 190.200876 
L 354.484787 185.09247 
L 354.597273 177.40743 
L 354.653515 192.930599 
L 356.059586 191.426022 
L 357.915599 191.311576 
L 359.209184 183.039313 
L 360.165312 174.755178 
L 361.908839 192.503838 
L 363.427395 198.515692 
L 363.708609 189.339607 
L 366.014565 180.519366 
L 366.12705 185.241352 
L 366.858207 186.217864 
L 367.758092 182.039242 
L 369.389134 176.525132 
L 369.557862 177.717717 
L 370.963933 175.299516 
L 372.426246 179.295505 
L 373.382374 179.610408 
L 374.50723 177.60246 
L 375.519601 179.692307 
L 375.632087 179.522515 
L 375.744572 183.920017 
L 377.656828 174.797474 
L 378.444228 172.508955 
L 381.593825 169.452767 
L 381.818797 171.096319 
L 382.268739 171.073345 
L 382.437468 181.297293 
L 384.180995 181.138172 
L 384.630938 180.190806 
L 385.362094 178.239022 
L 385.643308 191.298224 
L 386.543193 193.610121 
L 386.824408 189.521833 
L 386.936893 181.635407 
L 387.499321 180.497636 
L 387.724293 178.8562 
L 389.355334 175.028951 
L 390.030248 171.837421 
L 392.954875 172.916886 
L 393.573546 186.586651 
L 394.192217 179.273134 
L 394.867131 163.794604 
L 396.104473 170.032872 
L 397.510543 185.209566 
L 397.566786 182.513969 
L 398.2417 184.197749 
L 398.860371 184.841978 
L 399.029099 197.869034 
L 402.23494 189.591204 
L 402.516154 185.52938 
L 402.572397 176.978444 
L 403.134825 169.270233 
L 407.240551 170.685796 
L 407.859222 172.973606 
L 408.02795 186.95532 
L 408.309164 191.036499 
L 408.365407 203.836847 
L 409.771477 209.571198 
L 410.22142 213.926376 
L 411.796219 208.416254 
L 411.964947 206.706902 
L 412.02119 203.410935 
L 412.864832 202.203105 
L 413.764718 218.871278 
L 414.102174 211.909827 
L 414.833331 211.788493 
L 414.945817 223.762671 
L 415.676973 222.049156 
L 416.295644 210.244464 
L 417.757958 210.674619 
L 418.264143 206.257925 
L 419.107785 195.802749 
L 419.501485 204.811999 
L 419.838942 200.191581 
L 420.063913 199.903986 
L 421.357498 228.92407 
L 423.719696 231.178433 
L 424.675824 230.440883 
L 425.688195 215.263654 
L 426.813051 208.48027 
L 426.98178 197.783755 
L 427.487965 193.065441 
L 428.106636 205.150366 
L 429.512707 202.638995 
L 429.681435 198.62788 
L 430.468835 203.800407 
L 430.693806 199.897459 
L 432.324848 190.142827 
L 433.899647 188.07853 
L 434.349589 190.136157 
L 434.57456 186.355401 
L 435.024503 189.033225 
L 437.105487 204.046672 
L 437.386701 213.039797 
L 439.186471 217.873822 
L 439.636414 212.309505 
L 440.142599 210.494445 
L 440.648785 213.03585 
L 441.267456 207.172312 
L 441.323699 200.092559 
L 441.998612 182.396702 
L 442.279827 192.599761 
L 444.248325 184.766098 
L 444.923239 192.003553 
L 445.991853 182.420551 
L 447.285437 173.858318 
L 448.410294 185.716391 
L 449.760121 180.808492 
L 450.660006 191.208508 
L 451.109949 186.231675 
L 451.616134 181.939471 
L 451.784863 184.826987 
L 451.897348 176.648852 
L 454.765732 189.930207 
L 454.934461 189.931696 
L 456.059317 198.266766 
L 456.171803 198.157555 
L 456.228045 203.465911 
L 456.621745 202.444153 
L 457.634116 198.758593 
L 459.208915 189.524928 
L 460.333771 188.590837 
L 460.446257 189.596775 
L 460.783714 181.859912 
L 462.246027 182.952513 
L 462.527241 179.901367 
L 463.483369 172.922016 
L 464.49574 184.389735 
L 464.945682 183.809665 
L 466.68921 176.069671 
L 468.207766 177.619703 
L 469.501351 174.794019 
L 471.132392 180.284743 
L 471.751063 180.299209 
L 472.650948 182.738591 
L 473.438348 175.879426 
L 474.619447 176.92339 
L 476.86916 176.681735 
L 478.106502 181.096855 
L 478.387716 174.682399 
L 480.4687 179.593591 
L 481.087371 188.941956 
L 481.424828 186.0959 
L 482.212228 187.183278 
L 482.324713 185.117625 
L 485.474311 178.60944 
L 486.149225 187.409533 
L 486.261711 183.189984 
L 486.599167 181.619541 
L 487.274081 189.642528 
L 488.680152 201.568773 
L 490.254951 193.72542 
L 490.592408 184.33427 
L 491.43605 179.715307 
L 493.742005 183.803953 
L 493.910734 176.195585 
L 494.923105 195.327274 
L 495.935475 197.087428 
L 496.891603 195.424714 
L 497.060332 213.136453 
L 497.62276 212.120391 
L 498.635131 221.435076 
L 498.691373 217.6982 
L 499.647501 212.710264 
L 499.81623 205.279498 
L 501.728486 206.243401 
L 502.234671 198.819103 
L 503.753227 207.522276 
L 504.259412 215.667741 
L 505.440512 223.312014 
L 506.790339 210.889684 
L 507.071553 202.246145 
L 507.40901 198.818267 
L 508.927566 202.089348 
L 510.052423 206.734117 
L 510.333637 196.887716 
L 511.458493 200.615382 
L 512.864564 206.664114 
L 513.876934 202.049285 
L 514.101906 202.457709 
L 514.38312 192.514746 
L 515.283005 194.185545 
L 515.39549 196.472256 
L 516.295376 187.218194 
L 516.407861 178.887856 
L 516.857804 170.265586 
L 517.645203 184.404033 
L 517.870175 186.049021 
L 519.163759 205.877445 
L 519.669945 205.964561 
L 520.738558 206.690768 
L 521.357229 209.207545 
L 521.807172 198.052526 
L 522.538328 203.641683 
L 523.550699 201.899771 
L 525.744169 197.6343 
L 527.037754 201.243925 
L 527.262725 197.812305 
L 527.318968 204.391289 
L 527.712668 198.613128 
L 528.668796 198.186025 
L 529.287467 191.563546 
L 529.906138 202.529782 
L 530.299837 201.467063 
L 530.637294 205.9046 
L 531.987122 206.749901 
L 535.080477 209.96252 
L 535.305448 198.99832 
L 536.036605 194.368502 
L 537.33019 193.888258 
L 537.386433 185.609217 
L 537.611404 187.275948 
L 538.73626 200.393572 
L 538.848746 182.774341 
L 539.298688 180.716551 
L 540.423545 174.01515 
L 541.773372 180.081798 
L 542.167072 174.809486 
L 542.335801 176.021677 
L 543.404414 176.708319 
L 546.441526 180.784461 
L 546.947712 203.42825 
L 547.060197 193.771073 
L 547.285169 202.555115 
L 547.622625 200.285135 
L 547.791354 206.155923 
L 548.185054 205.571763 
L 548.634996 203.915967 
L 548.803725 197.508083 
L 549.478638 198.387878 
L 550.997195 190.810055 
L 551.222166 202.294726 
L 551.840837 193.376748 
L 552.459508 196.357307 
L 556.28402 187.275164 
L 557.521362 173.986194 
L 558.308761 172.410455 
L 558.365004 166.153537 
L 559.827317 165.076311 
L 560.614717 159.484234 
L 562.020787 170.235337 
L 563.651829 168.644273 
L 563.820557 172.618529 
L 565.28287 175.932392 
L 566.295241 174.176765 
L 566.520212 172.444586 
L 567.926283 169.544393 
L 568.319983 163.232454 
L 569.388596 172.824058 
L 570.850909 176.84489 
L 571.694552 183.083274 
L 572.144494 176.315485 
L 572.200737 189.539508 
L 573.438079 198.262547 
L 573.66305 192.23492 
L 574.45045 190.068764 
L 575.575306 185.924306 
L 576.700163 179.472397 
L 577.206348 175.139438 
L 577.712533 177.698685 
L 577.825019 173.21786 
L 577.881262 179.611762 
L 579.118604 214.300332 
L 579.624789 204.295061 
L 581.705773 201.999607 
L 582.605659 203.958982 
L 583.22433 193.868459 
L 584.2367 185.471278 
L 584.799128 193.681864 
L 584.855371 189.066089 
L 585.586528 180.530096 
L 585.867742 174.117022 
L 585.923985 177.391682 
L 587.21757 180.039603 
L 587.442541 183.091517 
L 588.286183 180.347017 
L 589.973468 180.584907 
L 590.479653 186.05931 
L 590.648382 202.555369 
L 591.042081 196.224638 
L 591.60451 199.953574 
L 592.054452 214.675688 
L 592.61688 207.442374 
L 593.966708 205.495433 
L 594.472893 207.829049 
L 595.541507 207.677154 
L 596.497635 197.831261 
L 599.253533 197.133836 
L 599.984689 194.43218 
L 600.153418 200.876036 
L 601.896945 208.194046 
L 601.953188 212.506634 
L 602.909316 202.258756 
L 603.471744 192.915765 
L 603.752958 199.76476 
L 604.371629 190.666895 
L 604.709086 182.01314 
L 605.102786 187.682077 
L 606.115157 193.797691 
L 606.677585 208.593817 
L 607.689956 197.996049 
L 608.308627 202.337902 
L 608.477355 197.671847 
L 609.602211 204.203353 
L 610.052154 204.032265 
L 610.614582 203.113299 
L 612.583081 214.806386 
L 612.864295 212.834936 
L 616.295107 211.045012 
L 616.576321 225.904151 
L 618.15112 220.314572 
L 621.019504 206.637771 
L 621.469446 209.525626 
L 621.525689 202.487791 
L 623.437945 201.982871 
L 624.056616 198.126709 
L 624.73153 207.195567 
L 624.900258 206.909505 
L 625.687657 196.850463 
L 629.062227 201.297993 
L 630.412054 212.211759 
L 632.099339 210.250868 
L 632.32431 209.373356 
L 633.11171 212.083378 
L 634.067837 220.158906 
L 634.405294 208.801001 
L 636.767493 220.739197 
L 637.667378 208.742956 
L 638.792234 218.021758 
L 639.242177 215.722565 
L 640.367033 224.80427 
L 640.479519 212.489164 
L 640.648247 209.413098 
L 640.760733 214.809183 
L 641.09819 220.948448 
L 641.773104 218.205821 
L 642.223046 215.696118 
L 642.672989 227.131162 
L 643.066688 230.143469 
L 643.179174 233.321001 
L 646.047558 232.110128 
L 646.666229 222.807397 
L 647.116171 210.927678 
L 648.241028 213.323249 
L 648.297271 221.859666 
L 648.409756 209.939975 
L 649.197156 199.994436 
L 649.422127 194.464392 
L 649.928312 192.830593 
L 650.49074 186.639446 
L 650.546983 194.0954 
L 651.390626 192.489317 
L 653.809067 180.988255 
L 654.202766 181.26108 
L 654.483981 179.380498 
L 655.27138 177.106746 
L 655.777565 176.168483 
L 656.621208 171.21942 
L 657.239879 179.365323 
L 658.196007 184.325668 
L 660.333234 181.14179 
L 660.783176 189.109962 
L 660.839419 186.244595 
L 661.06439 191.911225 
L 662.86416 199.998747 
L 665.507573 198.481367 
L 665.732544 200.242136 
L 666.744915 190.660643 
L 667.026129 190.037293 
L 668.0385 181.639107 
L 668.207228 181.678853 
L 669.388327 187.851428 
L 670.006998 179.571181 
L 671.356826 178.885024 
L 671.750526 189.722687 
L 672.706654 181.293358 
L 672.819139 184.25483 
L 672.987868 182.847782 
L 674.168967 179.546974 
L 674.281453 195.043661 
L 674.562667 189.17973 
L 675.181338 191.646403 
L 675.856252 182.945325 
L 676.812379 174.569891 
L 677.82475 172.603304 
L 678.443421 168.679589 
L 678.724635 179.79715 
L 679.737006 180.503762 
L 679.793249 188.39526 
L 681.311805 189.264809 
L 681.761747 185.165991 
L 682.324176 177.293539 
L 682.942847 176.997252 
L 684.123946 184.923444 
L 685.136317 177.459035 
L 686.936087 184.862218 
L 686.99233 193.930753 
L 687.329787 185.177181 
L 690.254413 198.096724 
L 690.366899 204.498044 
L 690.929327 199.427045 
L 691.323027 199.330236 
L 692.841583 203.465561 
L 694.022682 204.0743 
L 694.58511 209.146198 
L 695.484995 198.194631 
L 695.597481 200.591665 
L 695.991181 204.037968 
L 697.790951 209.881505 
L 698.072165 220.720166 
L 698.690836 222.731749 
L 698.97205 220.000249 
L 701.390491 226.238161 
L 701.55922 214.192628 
L 702.684076 209.422466 
L 703.021533 212.188945 
L 703.077776 211.183565 
L 704.540089 222.783009 
L 704.933789 224.992272 
L 708.420843 234.687854 
L 708.477086 221.607763 
L 708.983272 217.727325 
L 709.376971 210.88226 
L 709.5457 200.939752 
L 709.9394 205.385951 
L 710.108128 201.678509 
L 711.34547 192.267561 
L 711.964141 201.891585 
L 712.582812 209.138778 
L 713.14524 206.940338 
L 713.313969 190.902253 
L 713.482697 189.535629 
L 714.832525 190.234766 
L 715.169982 185.612608 
L 715.394953 178.158039 
L 716.463566 171.120533 
L 717.025995 173.734139 
L 717.475937 191.133521 
L 718.150851 200.899974 
L 720.400564 204.467923 
L 720.906749 203.005664 
L 720.962992 199.909098 
L 721.412935 199.492605 
L 721.91912 194.28692 
L 723.887619 198.977686 
L 725.462417 189.539513 
L 725.631146 194.885777 
L 727.880859 186.101713 
L 729.230686 178.305206 
L 729.793114 185.019112 
L 732.886469 177.440392 
L 733.617626 185.820302 
L 734.236297 182.395272 
L 735.248668 183.727164 
L 737.273409 189.075958 
L 737.610866 178.624019 
L 737.723352 187.875153 
L 738.510751 180.019437 
L 739.185665 182.126372 
L 739.748093 174.660216 
L 740.47925 176.343021 
L 740.760464 174.68922 
L 740.816707 168.46673 
L 741.660349 170.387068 
L 741.997806 169.552822 
L 742.560234 171.487053 
L 743.910062 178.154043 
L 744.86619 171.121342 
L 746.103532 182.741788 
L 747.847059 184.678418 
L 748.240759 184.609878 
L 748.409487 176.736928 
L 748.85943 177.9708 
L 749.759315 188.149742 
L 749.984286 184.156956 
L 750.2655 184.821072 
L 750.377986 179.431529 
L 750.490472 182.05141 
L 750.6592 182.52683 
L 752.627699 185.233398 
L 753.021398 178.394702 
L 753.921284 171.99166 
L 755.04614 178.729831 
L 756.620939 181.355778 
L 756.789667 172.219117 
L 756.902153 187.586187 
L 757.23961 180.972082 
L 757.745795 173.684351 
L 758.083252 170.745602 
L 758.364466 173.445048 
L 759.995508 172.073838 
L 760.782907 185.119067 
L 761.401578 186.895545 
L 761.964007 193.780387 
L 762.188978 185.15364 
L 762.245221 185.939645 
L 763.82002 189.652416 
L 764.326205 180.902893 
L 764.776148 187.145554 
L 765.61979 185.908466 
L 765.676033 191.609505 
L 766.350946 185.123582 
L 768.094474 181.85306 
L 768.600659 175.378436 
L 769.331816 185.912136 
L 769.500544 184.764568 
L 769.556787 177.162225 
L 769.838001 169.425871 
L 770.344187 181.712346 
L 770.794129 189.342933 
L 771.187829 201.171938 
L 771.244072 197.75205 
L 772.2002 198.87888 
L 773.887484 199.067219 
L 774.449912 207.437837 
L 776.530897 214.329857 
L 777.093325 220.80015 
L 777.430782 209.670504 
L 778.330667 214.689831 
L 778.724367 212.754968 
L 780.299165 210.418743 
L 780.355408 210.048052 
L 780.861594 204.315063 
L 781.142808 195.492261 
L 781.761479 194.292606 
L 782.267664 192.913607 
L 783.055064 183.586139 
L 783.673735 185.630164 
L 785.192291 178.847502 
L 785.361019 181.482634 
L 785.867204 178.352684 
L 787.273275 188.759145 
L 787.498246 188.141999 
L 788.004432 184.455539 
L 788.791831 190.796486 
L 789.129288 182.539501 
L 789.241774 190.930706 
L 791.154029 191.366316 
L 791.491486 182.235321 
L 791.828943 183.757207 
L 791.997672 177.221097 
L 792.5601 177.270724 
L 792.841314 169.765736 
L 793.628713 167.030216 
L 794.134899 161.410188 
L 795.034784 156.929751 
L 796.440854 151.834228 
L 797.509468 156.432321 
L 798.015653 166.88472 
L 799.028024 171.96769 
L 800.040395 165.490046 
L 800.54658 176.223933 
L 801.840165 180.534225 
L 802.008893 188.083526 
L 804.877277 192.893836 
L 805.32722 188.900927 
L 805.495948 183.947213 
L 806.002133 175.710394 
L 806.958261 169.420108 
L 808.139361 162.887942 
L 808.983003 167.48119 
L 809.882888 167.847744 
L 811.007744 179.897588 
L 811.401444 175.823057 
L 811.795144 177.433804 
L 812.076358 181.130732 
L 814.269828 171.395667 
L 814.382313 173.132946 
L 816.294569 169.416633 
L 816.463298 179.179641 
L 817.250697 171.595029 
L 817.419426 163.032911 
L 818.038097 164.86787 
L 818.375554 158.348644 
L 819.950352 176.26168 
L 820.119081 175.430341 
L 820.175324 179.229916 
L 820.512781 190.977964 
L 820.625266 182.32104 
L 821.581394 174.41455 
L 822.031337 176.331855 
L 822.537522 174.982562 
L 823.381164 176.413952 
L 824.281049 178.753922 
L 826.474519 171.414005 
L 827.149433 174.222609 
L 827.261919 181.091455 
L 827.824347 179.904918 
L 828.443018 184.970948 
L 828.836718 195.706065 
L 829.230417 196.246856 
L 829.342903 187.154558 
L 830.299031 191.57273 
L 831.367645 208.092898 
L 833.392386 215.874211 
L 833.954814 208.887925 
L 834.910942 218.899717 
L 835.248399 207.637054 
L 835.754584 210.168982 
L 837.441869 200.006877 
L 838.735454 196.699092 
L 838.791697 188.279232 
L 839.804067 184.689145 
L 841.378866 184.366759 
L 841.66008 187.794835 
L 842.391237 184.315768 
L 842.44748 179.671707 
L 843.178636 181.459974 
L 843.628579 174.130655 
L 844.022279 188.325729 
L 844.078522 195.069999 
L 845.203378 184.565029 
L 845.484592 183.952745 
L 846.271991 185.833965 
L 846.83442 183.467678 
L 847.115634 188.595716 
L 847.509333 199.583675 
L 848.577947 219.194436 
L 849.252861 218.105319 
L 851.22136 213.754215 
L 851.727545 229.760269 
L 852.008759 222.739548 
L 854.4272 220.095265 
L 854.708414 222.324626 
L 855.552057 222.561635 
L 856.170728 215.487993 
L 856.395699 228.425822 
L 857.295584 227.204351 
L 858.026741 218.978471 
L 859.151597 225.237707 
L 859.657782 225.379258 
L 860.107725 213.133432 
L 861.232581 211.411862 
L 862.132466 214.711159 
L 863.257323 220.998023 
L 863.426051 209.981762 
L 864.325936 209.127285 
L 865.225821 202.269514 
L 865.844492 197.669443 
L 869.219061 191.622949 
L 869.725247 183.671584 
L 869.78149 176.553954 
L 871.468774 180.332376 
L 872.706116 170.142179 
L 873.943458 180.984765 
L 876.418142 188.784143 
L 877.599241 183.171424 
L 877.936698 174.935699 
L 878.049184 182.126489 
L 879.230283 174.685732 
L 880.467625 171.675403 
L 882.098667 174.124493 
L 883.898437 180.895109 
L 884.685836 181.048576 
L 885.585722 173.715027 
L 886.260635 169.734131 
L 889.578962 170.517808 
L 890.478847 166.981731 
L 892.222374 164.841654 
L 892.672317 169.05932 
L 893.853416 189.451059 
L 895.259486 185.690025 
L 895.5407 179.235743 
L 896.271857 180.676283 
L 897.003014 191.507585 
L 897.340471 201.781153 
L 899.702669 195.583637 
L 899.758912 212.820183 
L 900.040126 201.852293 
L 900.32134 217.432745 
L 900.883768 209.701397 
L 902.571053 198.439717 
L 903.302209 190.246726 
L 904.145852 190.800905 
L 905.10198 188.280007 
L 906.620536 196.336283 
L 906.676779 199.529083 
L 907.126721 192.271572 
L 907.801635 185.564706 
L 907.970363 185.79857 
L 908.476549 177.136922 
L 909.320191 179.877812 
L 909.545162 192.314313 
L 909.657648 186.771524 
L 910.50129 187.328811 
L 911.513661 193.537794 
L 912.526032 190.16806 
L 913.369674 199.601699 
L 914.100831 206.258195 
L 914.775744 196.482003 
L 914.831987 187.102454 
L 915.056958 185.008262 
L 916.631757 176.465316 
L 918.094071 175.30933 
L 919.950084 175.563752 
L 920.231298 173.592758 
L 920.793726 176.128462 
L 922.818467 178.046003 
L 923.099681 186.933628 
L 925.799337 200.304697 
L 926.024308 192.355649 
L 927.149164 191.436036 
L 929.84882 201.172125 
L 929.905063 192.390207 
L 931.367376 187.988515 
L 931.536104 179.624588 
L 933.898303 181.26263 
L 933.954545 179.214059 
L 933.954545 179.214059 
" style="fill:none;stroke:#4c72b0;stroke-linecap:round;stroke-width:2;"/>
   </g>
   <g id="patch_3">
    <path d="M 135 504 
L 135 69.12 
" style="fill:none;stroke:#ffffff;stroke-linecap:square;stroke-linejoin:miter;stroke-width:1.25;"/>
   </g>
   <g id="patch_4">
    <path d="M 972 504 
L 972 69.12 
" style="fill:none;stroke:#ffffff;stroke-linecap:square;stroke-linejoin:miter;stroke-width:1.25;"/>
   </g>
   <g id="patch_5">
    <path d="M 135 504 
L 972 504 
" style="fill:none;stroke:#ffffff;stroke-linecap:square;stroke-linejoin:miter;stroke-width:1.25;"/>
   </g>
   <g id="patch_6">
    <path d="M 135 69.12 
L 972 69.12 
" style="fill:none;stroke:#ffffff;stroke-linecap:square;stroke-linejoin:miter;stroke-width:1.25;"/>
   </g>
   <g id="text_18">
    <!-- PPO Training Attack -->
    <g style="fill:#262626;" transform="translate(410.32 63.12)scale(0.32 -0.32)">
     <defs>
      <path d="M 7.71875 0 
L 7.71875 71.578125 
L 34.71875 71.578125 
Q 41.84375 71.578125 45.609375 70.90625 
Q 50.875 70.015625 54.4375 67.546875 
Q 58.015625 65.09375 60.1875 60.640625 
Q 62.359375 56.203125 62.359375 50.875 
Q 62.359375 41.75 56.546875 35.421875 
Q 50.734375 29.109375 35.546875 29.109375 
L 17.1875 29.109375 
L 17.1875 0 
z
M 17.1875 37.546875 
L 35.6875 37.546875 
Q 44.875 37.546875 48.734375 40.96875 
Q 52.59375 44.390625 52.59375 50.59375 
Q 52.59375 55.078125 50.3125 58.265625 
Q 48.046875 61.46875 44.34375 62.5 
Q 41.9375 63.140625 35.5 63.140625 
L 17.1875 63.140625 
z
" id="ArialMT-80"/>
      <path d="M 4.828125 34.859375 
Q 4.828125 52.6875 14.390625 62.765625 
Q 23.96875 72.859375 39.109375 72.859375 
Q 49.03125 72.859375 56.984375 68.109375 
Q 64.9375 63.375 69.109375 54.90625 
Q 73.296875 46.4375 73.296875 35.6875 
Q 73.296875 24.8125 68.890625 16.21875 
Q 64.5 7.625 56.4375 3.203125 
Q 48.390625 -1.21875 39.0625 -1.21875 
Q 28.953125 -1.21875 20.984375 3.65625 
Q 13.03125 8.546875 8.921875 16.984375 
Q 4.828125 25.4375 4.828125 34.859375 
z
M 14.59375 34.71875 
Q 14.59375 21.78125 21.546875 14.328125 
Q 28.515625 6.890625 39.015625 6.890625 
Q 49.703125 6.890625 56.609375 14.40625 
Q 63.53125 21.921875 63.53125 35.75 
Q 63.53125 44.484375 60.578125 51 
Q 57.625 57.515625 51.921875 61.109375 
Q 46.234375 64.703125 39.15625 64.703125 
Q 29.109375 64.703125 21.84375 57.78125 
Q 14.59375 50.875 14.59375 34.71875 
z
" id="ArialMT-79"/>
      <path d="M 25.921875 0 
L 25.921875 63.140625 
L 2.34375 63.140625 
L 2.34375 71.578125 
L 59.078125 71.578125 
L 59.078125 63.140625 
L 35.40625 63.140625 
L 35.40625 0 
z
" id="ArialMT-84"/>
      <path d="M 6.59375 0 
L 6.59375 51.859375 
L 14.5 51.859375 
L 14.5 44.484375 
Q 20.21875 53.03125 31 53.03125 
Q 35.6875 53.03125 39.625 51.34375 
Q 43.5625 49.65625 45.515625 46.921875 
Q 47.46875 44.1875 48.25 40.4375 
Q 48.734375 37.984375 48.734375 31.890625 
L 48.734375 0 
L 39.9375 0 
L 39.9375 31.546875 
Q 39.9375 36.921875 38.90625 39.578125 
Q 37.890625 42.234375 35.28125 43.8125 
Q 32.671875 45.40625 29.15625 45.40625 
Q 23.53125 45.40625 19.453125 41.84375 
Q 15.375 38.28125 15.375 28.328125 
L 15.375 0 
z
" id="ArialMT-110"/>
      <path d="M -0.140625 0 
L 27.34375 71.578125 
L 37.546875 71.578125 
L 66.84375 0 
L 56.0625 0 
L 47.703125 21.6875 
L 17.78125 21.6875 
L 9.90625 0 
z
M 20.515625 29.390625 
L 44.78125 29.390625 
L 37.3125 49.21875 
Q 33.890625 58.25 32.234375 64.0625 
Q 30.859375 57.171875 28.375 50.390625 
z
" id="ArialMT-65"/>
      <path d="M 25.78125 7.859375 
L 27.046875 0.09375 
Q 23.34375 -0.6875 20.40625 -0.6875 
Q 15.625 -0.6875 12.984375 0.828125 
Q 10.359375 2.34375 9.28125 4.8125 
Q 8.203125 7.28125 8.203125 15.1875 
L 8.203125 45.015625 
L 1.765625 45.015625 
L 1.765625 51.859375 
L 8.203125 51.859375 
L 8.203125 64.703125 
L 16.9375 69.96875 
L 16.9375 51.859375 
L 25.78125 51.859375 
L 25.78125 45.015625 
L 16.9375 45.015625 
L 16.9375 14.703125 
Q 16.9375 10.9375 17.40625 9.859375 
Q 17.875 8.796875 18.921875 8.15625 
Q 19.96875 7.515625 21.921875 7.515625 
Q 23.390625 7.515625 25.78125 7.859375 
z
" id="ArialMT-116"/>
      <path d="M 40.4375 19 
L 49.078125 17.875 
Q 47.65625 8.9375 41.8125 3.875 
Q 35.984375 -1.171875 27.484375 -1.171875 
Q 16.84375 -1.171875 10.375 5.78125 
Q 3.90625 12.75 3.90625 25.734375 
Q 3.90625 34.125 6.6875 40.421875 
Q 9.46875 46.734375 15.15625 49.875 
Q 20.84375 53.03125 27.546875 53.03125 
Q 35.984375 53.03125 41.359375 48.75 
Q 46.734375 44.484375 48.25 36.625 
L 39.703125 35.296875 
Q 38.484375 40.53125 35.375 43.15625 
Q 32.28125 45.796875 27.875 45.796875 
Q 21.234375 45.796875 17.078125 41.03125 
Q 12.9375 36.28125 12.9375 25.984375 
Q 12.9375 15.53125 16.9375 10.796875 
Q 20.953125 6.0625 27.390625 6.0625 
Q 32.5625 6.0625 36.03125 9.234375 
Q 39.5 12.40625 40.4375 19 
z
" id="ArialMT-99"/>
      <path d="M 6.640625 0 
L 6.640625 71.578125 
L 15.4375 71.578125 
L 15.4375 30.765625 
L 36.234375 51.859375 
L 47.609375 51.859375 
L 27.78125 32.625 
L 49.609375 0 
L 38.765625 0 
L 21.625 26.515625 
L 15.4375 20.5625 
L 15.4375 0 
z
" id="ArialMT-107"/>
     </defs>
     <use xlink:href="#ArialMT-80"/>
     <use x="66.699219" xlink:href="#ArialMT-80"/>
     <use x="133.398438" xlink:href="#ArialMT-79"/>
     <use x="211.181641" xlink:href="#ArialMT-32"/>
     <use x="237.214844" xlink:href="#ArialMT-84"/>
     <use x="294.548828" xlink:href="#ArialMT-114"/>
     <use x="327.849609" xlink:href="#ArialMT-97"/>
     <use x="383.464844" xlink:href="#ArialMT-105"/>
     <use x="405.681641" xlink:href="#ArialMT-110"/>
     <use x="461.296875" xlink:href="#ArialMT-105"/>
     <use x="483.513672" xlink:href="#ArialMT-110"/>
     <use x="539.128906" xlink:href="#ArialMT-103"/>
     <use x="594.744141" xlink:href="#ArialMT-32"/>
     <use x="617.027344" xlink:href="#ArialMT-65"/>
     <use x="683.726562" xlink:href="#ArialMT-116"/>
     <use x="711.509766" xlink:href="#ArialMT-116"/>
     <use x="739.292969" xlink:href="#ArialMT-97"/>
     <use x="794.908203" xlink:href="#ArialMT-99"/>
     <use x="844.908203" xlink:href="#ArialMT-107"/>
    </g>
   </g>
   <g id="legend_1">
    <g id="patch_7">
     <path d="M 803.6675 490 
L 952.4 490 
Q 958 490 958 484.4 
L 958 447.593125 
Q 958 441.993125 952.4 441.993125 
L 803.6675 441.993125 
Q 798.0675 441.993125 798.0675 447.593125 
L 798.0675 484.4 
Q 798.0675 490 803.6675 490 
z
" style="fill:#eaeaf2;opacity:0.8;stroke:#cccccc;stroke-linejoin:miter;"/>
    </g>
    <g id="line2d_17">
     <path d="M 809.2675 463.435 
L 865.2675 463.435 
" style="fill:none;stroke:#4c72b0;stroke-linecap:round;stroke-width:2;"/>
    </g>
    <g id="line2d_18"/>
    <g id="text_19">
     <!-- PPO -->
     <g style="fill:#262626;" transform="translate(887.6675 473.235)scale(0.28 -0.28)">
      <use xlink:href="#ArialMT-80"/>
      <use x="66.699219" xlink:href="#ArialMT-80"/>
      <use x="133.398438" xlink:href="#ArialMT-79"/>
     </g>
    </g>
   </g>
  </g>
 </g>
 <defs>
  <clipPath id="p6779f8bc4e">
   <rect height="434.88" width="837" x="135" y="69.12"/>
  </clipPath>
 </defs>
</svg>
