<?xml version="1.0" encoding="utf-8" standalone="no"?>
<!DOCTYPE svg PUBLIC "-//W3C//DTD SVG 1.1//EN"
  "http://www.w3.org/Graphics/SVG/1.1/DTD/svg11.dtd">
<!-- Created with matplotlib (https://matplotlib.org/) -->
<svg height="576pt" version="1.1" viewBox="0 0 1080 576" width="1080pt" xmlns="http://www.w3.org/2000/svg" xmlns:xlink="http://www.w3.org/1999/xlink">
 <metadata>
  <rdf:RDF xmlns:cc="http://creativecommons.org/ns#" xmlns:dc="http://purl.org/dc/elements/1.1/" xmlns:rdf="http://www.w3.org/1999/02/22-rdf-syntax-ns#">
   <cc:Work>
    <dc:type rdf:resource="http://purl.org/dc/dcmitype/StillImage"/>
    <dc:date>2021-03-16T19:32:24.647881</dc:date>
    <dc:format>image/svg+xml</dc:format>
    <dc:creator>
     <cc:Agent>
      <dc:title>Matplotlib v3.3.2, https://matplotlib.org/</dc:title>
     </cc:Agent>
    </dc:creator>
   </cc:Work>
  </rdf:RDF>
 </metadata>
 <defs>
  <style type="text/css">*{stroke-linecap:butt;stroke-linejoin:round;}</style>
 </defs>
 <g id="figure_1">
  <g id="patch_1">
   <path d="M 0 576 
L 1080 576 
L 1080 0 
L 0 0 
z
" style="fill:none;"/>
  </g>
  <g id="axes_1">
   <g id="patch_2">
    <path d="M 135 504 
L 972 504 
L 972 69.12 
L 135 69.12 
z
" style="fill:#eaeaf2;"/>
   </g>
   <g id="matplotlib.axis_1">
    <g id="xtick_1">
     <g id="line2d_1">
      <path clip-path="url(#pa32188162d)" d="M 170.500608 504 
L 170.500608 69.12 
" style="fill:none;stroke:#ffffff;stroke-linecap:round;"/>
     </g>
     <g id="text_1">
      <!-- 0.0 -->
      <g style="fill:#262626;" transform="translate(148.955608 535.689219)scale(0.31 -0.31)">
       <defs>
        <path d="M 4.15625 35.296875 
Q 4.15625 48 6.765625 55.734375 
Q 9.375 63.484375 14.515625 67.671875 
Q 19.671875 71.875 27.484375 71.875 
Q 33.25 71.875 37.59375 69.546875 
Q 41.9375 67.234375 44.765625 62.859375 
Q 47.609375 58.5 49.21875 52.21875 
Q 50.828125 45.953125 50.828125 35.296875 
Q 50.828125 22.703125 48.234375 14.96875 
Q 45.65625 7.234375 40.5 3 
Q 35.359375 -1.21875 27.484375 -1.21875 
Q 17.140625 -1.21875 11.234375 6.203125 
Q 4.15625 15.140625 4.15625 35.296875 
z
M 13.1875 35.296875 
Q 13.1875 17.671875 17.3125 11.828125 
Q 21.4375 6 27.484375 6 
Q 33.546875 6 37.671875 11.859375 
Q 41.796875 17.71875 41.796875 35.296875 
Q 41.796875 52.984375 37.671875 58.78125 
Q 33.546875 64.59375 27.390625 64.59375 
Q 21.34375 64.59375 17.71875 59.46875 
Q 13.1875 52.9375 13.1875 35.296875 
z
" id="ArialMT-48"/>
        <path d="M 9.078125 0 
L 9.078125 10.015625 
L 19.09375 10.015625 
L 19.09375 0 
z
" id="ArialMT-46"/>
       </defs>
       <use xlink:href="#ArialMT-48"/>
       <use x="55.615234" xlink:href="#ArialMT-46"/>
       <use x="83.398438" xlink:href="#ArialMT-48"/>
      </g>
     </g>
    </g>
    <g id="xtick_2">
     <g id="line2d_2">
      <path clip-path="url(#pa32188162d)" d="M 297.742931 504 
L 297.742931 69.12 
" style="fill:none;stroke:#ffffff;stroke-linecap:round;"/>
     </g>
     <g id="text_2">
      <!-- 0.5 -->
      <g style="fill:#262626;" transform="translate(276.197931 535.689219)scale(0.31 -0.31)">
       <defs>
        <path d="M 4.15625 18.75 
L 13.375 19.53125 
Q 14.40625 12.796875 18.140625 9.390625 
Q 21.875 6 27.15625 6 
Q 33.5 6 37.890625 10.78125 
Q 42.28125 15.578125 42.28125 23.484375 
Q 42.28125 31 38.0625 35.34375 
Q 33.84375 39.703125 27 39.703125 
Q 22.75 39.703125 19.328125 37.765625 
Q 15.921875 35.84375 13.96875 32.765625 
L 5.71875 33.84375 
L 12.640625 70.609375 
L 48.25 70.609375 
L 48.25 62.203125 
L 19.671875 62.203125 
L 15.828125 42.96875 
Q 22.265625 47.46875 29.34375 47.46875 
Q 38.71875 47.46875 45.15625 40.96875 
Q 51.609375 34.46875 51.609375 24.265625 
Q 51.609375 14.546875 45.953125 7.46875 
Q 39.0625 -1.21875 27.15625 -1.21875 
Q 17.390625 -1.21875 11.203125 4.25 
Q 5.03125 9.71875 4.15625 18.75 
z
" id="ArialMT-53"/>
       </defs>
       <use xlink:href="#ArialMT-48"/>
       <use x="55.615234" xlink:href="#ArialMT-46"/>
       <use x="83.398438" xlink:href="#ArialMT-53"/>
      </g>
     </g>
    </g>
    <g id="xtick_3">
     <g id="line2d_3">
      <path clip-path="url(#pa32188162d)" d="M 424.985254 504 
L 424.985254 69.12 
" style="fill:none;stroke:#ffffff;stroke-linecap:round;"/>
     </g>
     <g id="text_3">
      <!-- 1.0 -->
      <g style="fill:#262626;" transform="translate(403.440254 535.689219)scale(0.31 -0.31)">
       <defs>
        <path d="M 37.25 0 
L 28.46875 0 
L 28.46875 56 
Q 25.296875 52.984375 20.140625 49.953125 
Q 14.984375 46.921875 10.890625 45.40625 
L 10.890625 53.90625 
Q 18.265625 57.375 23.78125 62.296875 
Q 29.296875 67.234375 31.59375 71.875 
L 37.25 71.875 
z
" id="ArialMT-49"/>
       </defs>
       <use xlink:href="#ArialMT-49"/>
       <use x="55.615234" xlink:href="#ArialMT-46"/>
       <use x="83.398438" xlink:href="#ArialMT-48"/>
      </g>
     </g>
    </g>
    <g id="xtick_4">
     <g id="line2d_4">
      <path clip-path="url(#pa32188162d)" d="M 552.227577 504 
L 552.227577 69.12 
" style="fill:none;stroke:#ffffff;stroke-linecap:round;"/>
     </g>
     <g id="text_4">
      <!-- 1.5 -->
      <g style="fill:#262626;" transform="translate(530.682577 535.689219)scale(0.31 -0.31)">
       <use xlink:href="#ArialMT-49"/>
       <use x="55.615234" xlink:href="#ArialMT-46"/>
       <use x="83.398438" xlink:href="#ArialMT-53"/>
      </g>
     </g>
    </g>
    <g id="xtick_5">
     <g id="line2d_5">
      <path clip-path="url(#pa32188162d)" d="M 679.4699 504 
L 679.4699 69.12 
" style="fill:none;stroke:#ffffff;stroke-linecap:round;"/>
     </g>
     <g id="text_5">
      <!-- 2.0 -->
      <g style="fill:#262626;" transform="translate(657.9249 535.689219)scale(0.31 -0.31)">
       <defs>
        <path d="M 50.34375 8.453125 
L 50.34375 0 
L 3.03125 0 
Q 2.9375 3.171875 4.046875 6.109375 
Q 5.859375 10.9375 9.828125 15.625 
Q 13.8125 20.3125 21.34375 26.46875 
Q 33.015625 36.03125 37.109375 41.625 
Q 41.21875 47.21875 41.21875 52.203125 
Q 41.21875 57.421875 37.46875 61 
Q 33.734375 64.59375 27.734375 64.59375 
Q 21.390625 64.59375 17.578125 60.78125 
Q 13.765625 56.984375 13.71875 50.25 
L 4.6875 51.171875 
Q 5.609375 61.28125 11.65625 66.578125 
Q 17.71875 71.875 27.9375 71.875 
Q 38.234375 71.875 44.234375 66.15625 
Q 50.25 60.453125 50.25 52 
Q 50.25 47.703125 48.484375 43.546875 
Q 46.734375 39.40625 42.65625 34.8125 
Q 38.578125 30.21875 29.109375 22.21875 
Q 21.1875 15.578125 18.9375 13.203125 
Q 16.703125 10.84375 15.234375 8.453125 
z
" id="ArialMT-50"/>
       </defs>
       <use xlink:href="#ArialMT-50"/>
       <use x="55.615234" xlink:href="#ArialMT-46"/>
       <use x="83.398438" xlink:href="#ArialMT-48"/>
      </g>
     </g>
    </g>
    <g id="xtick_6">
     <g id="line2d_6">
      <path clip-path="url(#pa32188162d)" d="M 806.712223 504 
L 806.712223 69.12 
" style="fill:none;stroke:#ffffff;stroke-linecap:round;"/>
     </g>
     <g id="text_6">
      <!-- 2.5 -->
      <g style="fill:#262626;" transform="translate(785.167223 535.689219)scale(0.31 -0.31)">
       <use xlink:href="#ArialMT-50"/>
       <use x="55.615234" xlink:href="#ArialMT-46"/>
       <use x="83.398438" xlink:href="#ArialMT-53"/>
      </g>
     </g>
    </g>
    <g id="xtick_7">
     <g id="line2d_7">
      <path clip-path="url(#pa32188162d)" d="M 933.954545 504 
L 933.954545 69.12 
" style="fill:none;stroke:#ffffff;stroke-linecap:round;"/>
     </g>
     <g id="text_7">
      <!-- 3.0 -->
      <g style="fill:#262626;" transform="translate(912.409545 535.689219)scale(0.31 -0.31)">
       <defs>
        <path d="M 4.203125 18.890625 
L 12.984375 20.0625 
Q 14.5 12.59375 18.140625 9.296875 
Q 21.78125 6 27 6 
Q 33.203125 6 37.46875 10.296875 
Q 41.75 14.59375 41.75 20.953125 
Q 41.75 27 37.796875 30.921875 
Q 33.84375 34.859375 27.734375 34.859375 
Q 25.25 34.859375 21.53125 33.890625 
L 22.515625 41.609375 
Q 23.390625 41.5 23.921875 41.5 
Q 29.546875 41.5 34.03125 44.421875 
Q 38.53125 47.359375 38.53125 53.46875 
Q 38.53125 58.296875 35.25 61.46875 
Q 31.984375 64.65625 26.8125 64.65625 
Q 21.6875 64.65625 18.265625 61.421875 
Q 14.84375 58.203125 13.875 51.765625 
L 5.078125 53.328125 
Q 6.6875 62.15625 12.390625 67.015625 
Q 18.109375 71.875 26.609375 71.875 
Q 32.46875 71.875 37.390625 69.359375 
Q 42.328125 66.84375 44.9375 62.5 
Q 47.5625 58.15625 47.5625 53.265625 
Q 47.5625 48.640625 45.0625 44.828125 
Q 42.578125 41.015625 37.703125 38.765625 
Q 44.046875 37.3125 47.5625 32.6875 
Q 51.078125 28.078125 51.078125 21.140625 
Q 51.078125 11.765625 44.234375 5.25 
Q 37.40625 -1.265625 26.953125 -1.265625 
Q 17.53125 -1.265625 11.296875 4.34375 
Q 5.078125 9.96875 4.203125 18.890625 
z
" id="ArialMT-51"/>
       </defs>
       <use xlink:href="#ArialMT-51"/>
       <use x="55.615234" xlink:href="#ArialMT-46"/>
       <use x="83.398438" xlink:href="#ArialMT-48"/>
      </g>
     </g>
    </g>
    <g id="text_8">
     <!-- Episodes -->
     <g style="fill:#262626;" transform="translate(487.6825 568.755469)scale(0.32 -0.32)">
      <defs>
       <path d="M 7.90625 0 
L 7.90625 71.578125 
L 59.671875 71.578125 
L 59.671875 63.140625 
L 17.390625 63.140625 
L 17.390625 41.21875 
L 56.984375 41.21875 
L 56.984375 32.8125 
L 17.390625 32.8125 
L 17.390625 8.453125 
L 61.328125 8.453125 
L 61.328125 0 
z
" id="ArialMT-69"/>
       <path d="M 6.59375 -19.875 
L 6.59375 51.859375 
L 14.59375 51.859375 
L 14.59375 45.125 
Q 17.4375 49.078125 21 51.046875 
Q 24.5625 53.03125 29.640625 53.03125 
Q 36.28125 53.03125 41.359375 49.609375 
Q 46.4375 46.1875 49.015625 39.953125 
Q 51.609375 33.734375 51.609375 26.3125 
Q 51.609375 18.359375 48.75 11.984375 
Q 45.90625 5.609375 40.453125 2.21875 
Q 35.015625 -1.171875 29 -1.171875 
Q 24.609375 -1.171875 21.109375 0.6875 
Q 17.625 2.546875 15.375 5.375 
L 15.375 -19.875 
z
M 14.546875 25.640625 
Q 14.546875 15.625 18.59375 10.84375 
Q 22.65625 6.0625 28.421875 6.0625 
Q 34.28125 6.0625 38.453125 11.015625 
Q 42.625 15.96875 42.625 26.375 
Q 42.625 36.28125 38.546875 41.203125 
Q 34.46875 46.140625 28.8125 46.140625 
Q 23.1875 46.140625 18.859375 40.890625 
Q 14.546875 35.640625 14.546875 25.640625 
z
" id="ArialMT-112"/>
       <path d="M 6.640625 61.46875 
L 6.640625 71.578125 
L 15.4375 71.578125 
L 15.4375 61.46875 
z
M 6.640625 0 
L 6.640625 51.859375 
L 15.4375 51.859375 
L 15.4375 0 
z
" id="ArialMT-105"/>
       <path d="M 3.078125 15.484375 
L 11.765625 16.84375 
Q 12.5 11.625 15.84375 8.84375 
Q 19.1875 6.0625 25.203125 6.0625 
Q 31.25 6.0625 34.171875 8.515625 
Q 37.109375 10.984375 37.109375 14.3125 
Q 37.109375 17.28125 34.515625 19 
Q 32.71875 20.171875 25.53125 21.96875 
Q 15.875 24.421875 12.140625 26.203125 
Q 8.40625 27.984375 6.46875 31.125 
Q 4.546875 34.28125 4.546875 38.09375 
Q 4.546875 41.546875 6.125 44.5 
Q 7.71875 47.46875 10.453125 49.421875 
Q 12.5 50.921875 16.03125 51.96875 
Q 19.578125 53.03125 23.640625 53.03125 
Q 29.734375 53.03125 34.34375 51.265625 
Q 38.96875 49.515625 41.15625 46.5 
Q 43.359375 43.5 44.1875 38.484375 
L 35.59375 37.3125 
Q 35.015625 41.3125 32.203125 43.546875 
Q 29.390625 45.796875 24.265625 45.796875 
Q 18.21875 45.796875 15.625 43.796875 
Q 13.03125 41.796875 13.03125 39.109375 
Q 13.03125 37.40625 14.109375 36.03125 
Q 15.1875 34.625 17.484375 33.6875 
Q 18.796875 33.203125 25.25 31.453125 
Q 34.578125 28.953125 38.25 27.359375 
Q 41.9375 25.78125 44.03125 22.75 
Q 46.140625 19.734375 46.140625 15.234375 
Q 46.140625 10.84375 43.578125 6.953125 
Q 41.015625 3.078125 36.171875 0.953125 
Q 31.34375 -1.171875 25.25 -1.171875 
Q 15.140625 -1.171875 9.84375 3.03125 
Q 4.546875 7.234375 3.078125 15.484375 
z
" id="ArialMT-115"/>
       <path d="M 3.328125 25.921875 
Q 3.328125 40.328125 11.328125 47.265625 
Q 18.015625 53.03125 27.640625 53.03125 
Q 38.328125 53.03125 45.109375 46.015625 
Q 51.90625 39.015625 51.90625 26.65625 
Q 51.90625 16.65625 48.90625 10.90625 
Q 45.90625 5.171875 40.15625 2 
Q 34.421875 -1.171875 27.640625 -1.171875 
Q 16.75 -1.171875 10.03125 5.8125 
Q 3.328125 12.796875 3.328125 25.921875 
z
M 12.359375 25.921875 
Q 12.359375 15.96875 16.703125 11.015625 
Q 21.046875 6.0625 27.640625 6.0625 
Q 34.1875 6.0625 38.53125 11.03125 
Q 42.875 16.015625 42.875 26.21875 
Q 42.875 35.84375 38.5 40.796875 
Q 34.125 45.75 27.640625 45.75 
Q 21.046875 45.75 16.703125 40.8125 
Q 12.359375 35.890625 12.359375 25.921875 
z
" id="ArialMT-111"/>
       <path d="M 40.234375 0 
L 40.234375 6.546875 
Q 35.296875 -1.171875 25.734375 -1.171875 
Q 19.53125 -1.171875 14.328125 2.25 
Q 9.125 5.671875 6.265625 11.796875 
Q 3.421875 17.921875 3.421875 25.875 
Q 3.421875 33.640625 6 39.96875 
Q 8.59375 46.296875 13.765625 49.65625 
Q 18.953125 53.03125 25.34375 53.03125 
Q 30.03125 53.03125 33.6875 51.046875 
Q 37.359375 49.078125 39.65625 45.90625 
L 39.65625 71.578125 
L 48.390625 71.578125 
L 48.390625 0 
z
M 12.453125 25.875 
Q 12.453125 15.921875 16.640625 10.984375 
Q 20.84375 6.0625 26.5625 6.0625 
Q 32.328125 6.0625 36.34375 10.765625 
Q 40.375 15.484375 40.375 25.140625 
Q 40.375 35.796875 36.265625 40.765625 
Q 32.171875 45.75 26.171875 45.75 
Q 20.3125 45.75 16.375 40.96875 
Q 12.453125 36.1875 12.453125 25.875 
z
" id="ArialMT-100"/>
       <path d="M 42.09375 16.703125 
L 51.171875 15.578125 
Q 49.03125 7.625 43.21875 3.21875 
Q 37.40625 -1.171875 28.375 -1.171875 
Q 17 -1.171875 10.328125 5.828125 
Q 3.65625 12.84375 3.65625 25.484375 
Q 3.65625 38.578125 10.390625 45.796875 
Q 17.140625 53.03125 27.875 53.03125 
Q 38.28125 53.03125 44.875 45.953125 
Q 51.46875 38.875 51.46875 26.03125 
Q 51.46875 25.25 51.421875 23.6875 
L 12.75 23.6875 
Q 13.234375 15.140625 17.578125 10.59375 
Q 21.921875 6.0625 28.421875 6.0625 
Q 33.25 6.0625 36.671875 8.59375 
Q 40.09375 11.140625 42.09375 16.703125 
z
M 13.234375 30.90625 
L 42.1875 30.90625 
Q 41.609375 37.453125 38.875 40.71875 
Q 34.671875 45.796875 27.984375 45.796875 
Q 21.921875 45.796875 17.796875 41.75 
Q 13.671875 37.703125 13.234375 30.90625 
z
" id="ArialMT-101"/>
      </defs>
      <use xlink:href="#ArialMT-69"/>
      <use x="66.699219" xlink:href="#ArialMT-112"/>
      <use x="122.314453" xlink:href="#ArialMT-105"/>
      <use x="144.53125" xlink:href="#ArialMT-115"/>
      <use x="194.53125" xlink:href="#ArialMT-111"/>
      <use x="250.146484" xlink:href="#ArialMT-100"/>
      <use x="305.761719" xlink:href="#ArialMT-101"/>
      <use x="361.376953" xlink:href="#ArialMT-115"/>
     </g>
    </g>
    <g id="text_9">
     <!-- 1e3 -->
     <g style="fill:#262626;" transform="translate(925.288125 564.892344)scale(0.28 -0.28)">
      <use xlink:href="#ArialMT-49"/>
      <use x="55.615234" xlink:href="#ArialMT-101"/>
      <use x="111.230469" xlink:href="#ArialMT-51"/>
     </g>
    </g>
   </g>
   <g id="matplotlib.axis_2">
    <g id="ytick_1">
     <g id="line2d_8">
      <path clip-path="url(#pa32188162d)" d="M 135 504 
L 972 504 
" style="fill:none;stroke:#ffffff;stroke-linecap:round;"/>
     </g>
     <g id="text_10">
      <!-- −200 -->
      <g style="fill:#262626;" transform="translate(55.677344 515.094609)scale(0.31 -0.31)">
       <defs>
        <path d="M 52.828125 31.203125 
L 5.5625 31.203125 
L 5.5625 39.40625 
L 52.828125 39.40625 
z
" id="ArialMT-8722"/>
       </defs>
       <use xlink:href="#ArialMT-8722"/>
       <use x="58.398438" xlink:href="#ArialMT-50"/>
       <use x="114.013672" xlink:href="#ArialMT-48"/>
       <use x="169.628906" xlink:href="#ArialMT-48"/>
      </g>
     </g>
    </g>
    <g id="ytick_2">
     <g id="line2d_9">
      <path clip-path="url(#pa32188162d)" d="M 135 347.948997 
L 972 347.948997 
" style="fill:none;stroke:#ffffff;stroke-linecap:round;"/>
     </g>
     <g id="text_11">
      <!-- 0 -->
      <g style="fill:#262626;" transform="translate(108.261094 359.043607)scale(0.31 -0.31)">
       <use xlink:href="#ArialMT-48"/>
      </g>
     </g>
    </g>
    <g id="ytick_3">
     <g id="line2d_10">
      <path clip-path="url(#pa32188162d)" d="M 135 191.897995 
L 972 191.897995 
" style="fill:none;stroke:#ffffff;stroke-linecap:round;"/>
     </g>
     <g id="text_12">
      <!-- 200 -->
      <g style="fill:#262626;" transform="translate(73.783281 202.992604)scale(0.31 -0.31)">
       <use xlink:href="#ArialMT-50"/>
       <use x="55.615234" xlink:href="#ArialMT-48"/>
       <use x="111.230469" xlink:href="#ArialMT-48"/>
      </g>
     </g>
    </g>
    <g id="ytick_4">
     <g id="line2d_11">
      <path clip-path="url(#pa32188162d)" d="M 135 115.155861 
L 972 115.155861 
" style="fill:none;stroke:#ffffff;stroke-linecap:round;"/>
     </g>
     <g id="text_13">
      <!-- 298 -->
      <g style="fill:#262626;" transform="translate(73.783281 126.250471)scale(0.31 -0.31)">
       <defs>
        <path d="M 5.46875 16.546875 
L 13.921875 17.328125 
Q 14.984375 11.375 18.015625 8.6875 
Q 21.046875 6 25.78125 6 
Q 29.828125 6 32.875 7.859375 
Q 35.9375 9.71875 37.890625 12.8125 
Q 39.84375 15.921875 41.15625 21.1875 
Q 42.484375 26.46875 42.484375 31.9375 
Q 42.484375 32.515625 42.4375 33.6875 
Q 39.796875 29.5 35.234375 26.875 
Q 30.671875 24.265625 25.34375 24.265625 
Q 16.453125 24.265625 10.296875 30.703125 
Q 4.15625 37.15625 4.15625 47.703125 
Q 4.15625 58.59375 10.578125 65.234375 
Q 17 71.875 26.65625 71.875 
Q 33.640625 71.875 39.421875 68.109375 
Q 45.21875 64.359375 48.21875 57.390625 
Q 51.21875 50.4375 51.21875 37.25 
Q 51.21875 23.53125 48.234375 15.40625 
Q 45.265625 7.28125 39.375 3.03125 
Q 33.5 -1.21875 25.59375 -1.21875 
Q 17.1875 -1.21875 11.859375 3.4375 
Q 6.546875 8.109375 5.46875 16.546875 
z
M 41.453125 48.140625 
Q 41.453125 55.71875 37.421875 60.15625 
Q 33.40625 64.59375 27.734375 64.59375 
Q 21.875 64.59375 17.53125 59.8125 
Q 13.1875 55.03125 13.1875 47.40625 
Q 13.1875 40.578125 17.3125 36.296875 
Q 21.4375 32.03125 27.484375 32.03125 
Q 33.59375 32.03125 37.515625 36.296875 
Q 41.453125 40.578125 41.453125 48.140625 
z
" id="ArialMT-57"/>
        <path d="M 17.671875 38.8125 
Q 12.203125 40.828125 9.5625 44.53125 
Q 6.9375 48.25 6.9375 53.421875 
Q 6.9375 61.234375 12.546875 66.546875 
Q 18.171875 71.875 27.484375 71.875 
Q 36.859375 71.875 42.578125 66.421875 
Q 48.296875 60.984375 48.296875 53.171875 
Q 48.296875 48.1875 45.671875 44.5 
Q 43.0625 40.828125 37.75 38.8125 
Q 44.34375 36.671875 47.78125 31.875 
Q 51.21875 27.09375 51.21875 20.453125 
Q 51.21875 11.28125 44.71875 5.03125 
Q 38.234375 -1.21875 27.640625 -1.21875 
Q 17.046875 -1.21875 10.546875 5.046875 
Q 4.046875 11.328125 4.046875 20.703125 
Q 4.046875 27.6875 7.59375 32.390625 
Q 11.140625 37.109375 17.671875 38.8125 
z
M 15.921875 53.71875 
Q 15.921875 48.640625 19.1875 45.40625 
Q 22.46875 42.1875 27.6875 42.1875 
Q 32.765625 42.1875 36.015625 45.375 
Q 39.265625 48.578125 39.265625 53.21875 
Q 39.265625 58.0625 35.90625 61.359375 
Q 32.5625 64.65625 27.59375 64.65625 
Q 22.5625 64.65625 19.234375 61.421875 
Q 15.921875 58.203125 15.921875 53.71875 
z
M 13.09375 20.65625 
Q 13.09375 16.890625 14.875 13.375 
Q 16.65625 9.859375 20.171875 7.921875 
Q 23.6875 6 27.734375 6 
Q 34.03125 6 38.125 10.046875 
Q 42.234375 14.109375 42.234375 20.359375 
Q 42.234375 26.703125 38.015625 30.859375 
Q 33.796875 35.015625 27.4375 35.015625 
Q 21.234375 35.015625 17.15625 30.90625 
Q 13.09375 26.8125 13.09375 20.65625 
z
" id="ArialMT-56"/>
       </defs>
       <use xlink:href="#ArialMT-50"/>
       <use x="55.615234" xlink:href="#ArialMT-57"/>
       <use x="111.230469" xlink:href="#ArialMT-56"/>
      </g>
     </g>
    </g>
    <g id="text_14">
     <!-- avg reward -->
     <g style="fill:#262626;" transform="translate(44.942344 365.7025)rotate(-90)scale(0.32 -0.32)">
      <defs>
       <path d="M 40.4375 6.390625 
Q 35.546875 2.25 31.03125 0.53125 
Q 26.515625 -1.171875 21.34375 -1.171875 
Q 12.796875 -1.171875 8.203125 3 
Q 3.609375 7.171875 3.609375 13.671875 
Q 3.609375 17.484375 5.34375 20.625 
Q 7.078125 23.78125 9.890625 25.6875 
Q 12.703125 27.59375 16.21875 28.5625 
Q 18.796875 29.25 24.03125 29.890625 
Q 34.671875 31.15625 39.703125 32.90625 
Q 39.75 34.71875 39.75 35.203125 
Q 39.75 40.578125 37.25 42.78125 
Q 33.890625 45.75 27.25 45.75 
Q 21.046875 45.75 18.09375 43.578125 
Q 15.140625 41.40625 13.71875 35.890625 
L 5.125 37.0625 
Q 6.296875 42.578125 8.984375 45.96875 
Q 11.671875 49.359375 16.75 51.1875 
Q 21.828125 53.03125 28.515625 53.03125 
Q 35.15625 53.03125 39.296875 51.46875 
Q 43.453125 49.90625 45.40625 47.53125 
Q 47.359375 45.171875 48.140625 41.546875 
Q 48.578125 39.3125 48.578125 33.453125 
L 48.578125 21.734375 
Q 48.578125 9.46875 49.140625 6.21875 
Q 49.703125 2.984375 51.375 0 
L 42.1875 0 
Q 40.828125 2.734375 40.4375 6.390625 
z
M 39.703125 26.03125 
Q 34.90625 24.078125 25.34375 22.703125 
Q 19.921875 21.921875 17.671875 20.9375 
Q 15.4375 19.96875 14.203125 18.09375 
Q 12.984375 16.21875 12.984375 13.921875 
Q 12.984375 10.40625 15.640625 8.0625 
Q 18.3125 5.71875 23.4375 5.71875 
Q 28.515625 5.71875 32.46875 7.9375 
Q 36.421875 10.15625 38.28125 14.015625 
Q 39.703125 17 39.703125 22.796875 
z
" id="ArialMT-97"/>
       <path d="M 21 0 
L 1.265625 51.859375 
L 10.546875 51.859375 
L 21.6875 20.796875 
Q 23.484375 15.765625 25 10.359375 
Q 26.171875 14.453125 28.265625 20.21875 
L 39.796875 51.859375 
L 48.828125 51.859375 
L 29.203125 0 
z
" id="ArialMT-118"/>
       <path d="M 4.984375 -4.296875 
L 13.53125 -5.5625 
Q 14.0625 -9.515625 16.5 -11.328125 
Q 19.78125 -13.765625 25.4375 -13.765625 
Q 31.546875 -13.765625 34.859375 -11.328125 
Q 38.1875 -8.890625 39.359375 -4.5 
Q 40.046875 -1.8125 39.984375 6.78125 
Q 34.234375 0 25.640625 0 
Q 14.9375 0 9.078125 7.71875 
Q 3.21875 15.4375 3.21875 26.21875 
Q 3.21875 33.640625 5.90625 39.90625 
Q 8.59375 46.1875 13.6875 49.609375 
Q 18.796875 53.03125 25.6875 53.03125 
Q 34.859375 53.03125 40.828125 45.609375 
L 40.828125 51.859375 
L 48.921875 51.859375 
L 48.921875 7.03125 
Q 48.921875 -5.078125 46.453125 -10.125 
Q 44 -15.1875 38.640625 -18.109375 
Q 33.296875 -21.046875 25.484375 -21.046875 
Q 16.21875 -21.046875 10.5 -16.875 
Q 4.78125 -12.703125 4.984375 -4.296875 
z
M 12.25 26.859375 
Q 12.25 16.65625 16.296875 11.96875 
Q 20.359375 7.28125 26.46875 7.28125 
Q 32.515625 7.28125 36.609375 11.9375 
Q 40.71875 16.609375 40.71875 26.5625 
Q 40.71875 36.078125 36.5 40.90625 
Q 32.28125 45.75 26.3125 45.75 
Q 20.453125 45.75 16.34375 40.984375 
Q 12.25 36.234375 12.25 26.859375 
z
" id="ArialMT-103"/>
       <path id="ArialMT-32"/>
       <path d="M 6.5 0 
L 6.5 51.859375 
L 14.40625 51.859375 
L 14.40625 44 
Q 17.4375 49.515625 20 51.265625 
Q 22.5625 53.03125 25.640625 53.03125 
Q 30.078125 53.03125 34.671875 50.203125 
L 31.640625 42.046875 
Q 28.421875 43.953125 25.203125 43.953125 
Q 22.3125 43.953125 20.015625 42.21875 
Q 17.71875 40.484375 16.75 37.40625 
Q 15.28125 32.71875 15.28125 27.15625 
L 15.28125 0 
z
" id="ArialMT-114"/>
       <path d="M 16.15625 0 
L 0.296875 51.859375 
L 9.375 51.859375 
L 17.625 21.921875 
L 20.703125 10.796875 
Q 20.90625 11.625 23.390625 21.484375 
L 31.640625 51.859375 
L 40.671875 51.859375 
L 48.4375 21.78125 
L 51.03125 11.859375 
L 54 21.875 
L 62.890625 51.859375 
L 71.4375 51.859375 
L 55.21875 0 
L 46.09375 0 
L 37.84375 31.0625 
L 35.84375 39.890625 
L 25.34375 0 
z
" id="ArialMT-119"/>
      </defs>
      <use xlink:href="#ArialMT-97"/>
      <use x="55.615234" xlink:href="#ArialMT-118"/>
      <use x="105.615234" xlink:href="#ArialMT-103"/>
      <use x="161.230469" xlink:href="#ArialMT-32"/>
      <use x="189.013672" xlink:href="#ArialMT-114"/>
      <use x="222.314453" xlink:href="#ArialMT-101"/>
      <use x="277.929688" xlink:href="#ArialMT-119"/>
      <use x="350.146484" xlink:href="#ArialMT-97"/>
      <use x="405.761719" xlink:href="#ArialMT-114"/>
      <use x="439.0625" xlink:href="#ArialMT-100"/>
     </g>
    </g>
   </g>
   <g id="line2d_12">
    <path clip-path="url(#pa32188162d)" d="M 178.919221 577 
L 180.679994 527.785884 
L 183.22484 517.190067 
L 185.769687 530.588521 
L 188.314533 564.455405 
L 190.85938 406.934477 
L 193.404226 457.470163 
L 195.949073 419.367101 
L 198.493919 345.43806 
L 201.038766 417.676824 
L 203.583612 246.401181 
L 206.128458 250.211121 
L 208.673305 195.783114 
L 211.218151 235.261581 
L 213.762998 221.784145 
L 216.307844 394.502913 
L 218.852691 233.160169 
L 221.397537 190.36151 
L 223.942384 191.773496 
L 226.48723 174.39319 
L 229.032077 154.713848 
L 231.576923 272.943472 
L 234.12177 249.654034 
L 239.211462 180.380125 
L 241.756309 176.136548 
L 244.301155 244.771499 
L 246.846002 238.220624 
L 249.390848 281.954813 
L 251.935695 256.75958 
L 254.480541 170.53287 
L 257.025388 194.612648 
L 259.570234 222.43477 
L 262.115081 206.959252 
L 264.659927 184.430996 
L 267.204773 178.751145 
L 269.74962 283.075233 
L 272.294466 171.718909 
L 274.839313 165.069466 
L 277.384159 223.541183 
L 279.929006 193.44492 
L 282.473852 213.603016 
L 285.018699 177.884836 
L 287.563545 225.376168 
L 290.108392 172.470828 
L 292.653238 196.469325 
L 295.198085 229.200735 
L 297.742931 156.755897 
L 300.287777 189.906628 
L 302.832624 225.64425 
L 305.37747 202.792765 
L 307.922317 168.194772 
L 310.467163 203.284544 
L 313.01201 205.638191 
L 315.556856 166.866293 
L 318.101703 195.676676 
L 320.646549 162.328311 
L 323.191396 162.127449 
L 325.736242 223.07093 
L 328.281088 217.327038 
L 330.825935 257.459358 
L 333.370781 185.172093 
L 335.915628 255.343022 
L 338.460474 219.971781 
L 341.005321 214.469112 
L 343.550167 326.815156 
L 348.63986 172.446862 
L 351.184707 216.057945 
L 353.729553 245.908224 
L 356.2744 171.331996 
L 358.819246 189.67393 
L 361.364092 202.811981 
L 363.908939 169.905652 
L 366.453785 159.84382 
L 368.998632 202.357717 
L 371.543478 227.206832 
L 374.088325 231.744969 
L 376.633171 246.422243 
L 379.178018 216.771683 
L 381.722864 150.513453 
L 384.267711 187.612831 
L 386.812557 165.127435 
L 389.357403 217.551807 
L 391.90225 176.7621 
L 394.447096 183.115197 
L 396.991943 182.140878 
L 399.536789 221.575854 
L 402.081636 173.349663 
L 404.626482 189.406539 
L 407.171329 190.874219 
L 409.716175 208.170698 
L 412.261022 153.257834 
L 414.805868 147.161366 
L 417.350715 217.850939 
L 419.895561 134.270085 
L 422.440407 140.276963 
L 424.985254 164.470131 
L 427.5301 146.012152 
L 430.074947 307.579218 
L 432.619793 143.12427 
L 435.16464 144.704758 
L 437.709486 144.099303 
L 440.254333 150.091287 
L 442.799179 154.066163 
L 445.344026 175.258428 
L 447.888872 282.635262 
L 450.433718 173.254095 
L 452.978565 148.583769 
L 455.523411 166.789406 
L 458.068258 165.873175 
L 460.613104 139.515567 
L 463.157951 236.213612 
L 465.702797 161.042871 
L 468.247644 129.768213 
L 470.79249 155.862752 
L 473.337337 165.844435 
L 475.882183 234.940221 
L 478.427029 207.05101 
L 480.971876 167.297376 
L 483.516722 169.077202 
L 486.061569 391.004722 
L 488.606415 181.492324 
L 491.151262 185.040904 
L 493.696108 194.490019 
L 496.240955 233.748861 
L 498.785801 231.734516 
L 501.330648 128.848184 
L 503.875494 202.701114 
L 506.420341 184.441104 
L 508.965187 141.705438 
L 511.510033 359.873955 
L 513.573699 577 
M 514.355672 577 
L 516.599726 199.299297 
L 519.144573 248.280884 
L 521.689419 154.192662 
L 524.234266 205.430007 
L 526.779112 175.989036 
L 529.323959 198.942863 
L 531.868805 214.072769 
L 534.413652 131.295839 
L 536.958498 137.387557 
L 539.503344 135.053245 
L 542.048191 128.541088 
L 544.593037 187.786202 
L 547.137884 148.568565 
L 549.68273 139.435798 
L 552.227577 135.381368 
L 554.772423 145.655265 
L 557.31727 131.63201 
L 559.862116 144.256649 
L 562.406963 304.559763 
L 564.951809 147.776798 
L 567.496656 147.265327 
L 570.041502 159.128534 
L 572.586348 162.495979 
L 575.131195 150.068737 
L 577.676041 193.618732 
L 580.220888 151.489629 
L 582.765734 146.971421 
L 585.310581 135.920198 
L 587.855427 180.934243 
L 590.400274 205.415506 
L 592.94512 282.974665 
L 595.489967 179.483777 
L 598.034813 190.109823 
L 600.579659 146.941824 
L 603.124506 133.012457 
L 605.669352 161.715284 
L 608.214199 141.446322 
L 610.759045 141.958816 
L 613.303892 151.272289 
L 615.848738 133.669369 
L 618.393585 136.761244 
L 620.938431 151.537561 
L 623.483278 129.554433 
L 626.028124 140.103472 
L 628.572971 128.820587 
L 631.117817 129.472236 
L 633.662663 142.570653 
L 636.20751 174.760232 
L 638.752356 132.313947 
L 641.297203 158.386044 
L 643.842049 148.120636 
L 646.386896 152.851313 
L 648.931742 135.128204 
L 651.476589 232.774792 
L 654.021435 133.432825 
L 656.566282 135.848263 
L 659.111128 132.377167 
L 661.655974 153.889827 
L 664.200821 163.880618 
L 666.745667 136.52551 
L 669.290514 136.922281 
L 671.83536 139.103604 
L 674.380207 140.27082 
L 676.925053 195.958783 
L 679.4699 143.201514 
L 682.014746 158.489112 
L 684.559593 155.572169 
L 687.104439 172.939927 
L 689.649285 132.128837 
L 692.194132 135.905339 
L 694.738978 128.879616 
L 697.283825 143.696032 
L 699.828671 154.086022 
L 702.373518 120.319908 
L 704.918364 125.180024 
L 707.463211 130.87909 
L 710.008057 173.294527 
L 712.552904 158.641303 
L 715.09775 173.392595 
L 717.642597 153.728302 
L 720.187443 139.530306 
L 722.732289 148.153186 
L 725.277136 187.52955 
L 727.821982 135.667177 
L 730.366829 222.643573 
L 735.456522 145.301093 
L 738.001368 180.853641 
L 740.546215 163.818124 
L 743.091061 137.141251 
L 745.635908 168.423732 
L 748.180754 144.649229 
L 750.7256 165.407125 
L 753.270447 135.912673 
L 755.815293 147.800371 
L 758.36014 133.699157 
L 760.904986 166.596116 
L 763.449833 130.154911 
L 765.994679 157.215209 
L 768.539526 132.963763 
L 771.084372 156.123238 
L 773.629219 128.324189 
L 776.174065 147.102147 
L 778.718912 131.48095 
L 781.263758 130.673002 
L 783.808604 144.581819 
L 786.353451 126.109482 
L 788.898297 129.990184 
L 791.443144 138.257605 
L 793.98799 138.985547 
L 796.532837 134.481698 
L 799.077683 130.305853 
L 801.62253 133.296028 
L 804.167376 132.807059 
L 806.712223 125.877439 
L 809.257069 144.063991 
L 811.801915 138.135953 
L 814.346762 137.066483 
L 816.891608 118.130393 
L 819.436455 177.256272 
L 821.981301 127.673063 
L 824.526148 133.932414 
L 827.070994 126.535969 
L 829.615841 127.67704 
L 832.160687 156.571454 
L 834.705534 167.682015 
L 837.25038 177.461467 
L 839.795227 132.577517 
L 842.340073 203.029022 
L 844.884919 140.118021 
L 847.429766 129.431852 
L 849.974612 132.952976 
L 852.519459 133.15835 
L 855.064305 124.44301 
L 860.153998 134.980168 
L 862.698845 129.541718 
L 865.243691 193.738135 
L 867.788538 165.452748 
L 870.333384 131.726994 
L 872.87823 151.209915 
L 875.423077 125.102017 
L 877.967923 132.128146 
L 880.51277 143.25459 
L 883.057616 126.620572 
L 885.602463 134.368712 
L 888.147309 138.805008 
L 890.692156 152.233142 
L 893.237002 125.962017 
L 895.781849 130.731554 
L 898.326695 168.191689 
L 900.871542 141.188205 
L 903.416388 122.74356 
L 905.961234 151.970049 
L 908.506081 124.195514 
L 911.050927 128.251706 
L 913.595774 118.067959 
L 916.14062 140.799149 
L 918.685467 137.451015 
L 921.230313 150.250109 
L 923.77516 126.761155 
L 926.320006 148.399694 
L 928.864853 128.282947 
L 931.409699 121.57794 
L 933.954545 142.966352 
L 933.954545 142.966352 
" style="fill:none;stroke:#4c72b0;stroke-linecap:round;stroke-opacity:0.3;stroke-width:1.5;"/>
   </g>
   <g id="line2d_13">
    <path clip-path="url(#pa32188162d)" d="M 197.695808 577 
L 198.493919 569.202588 
L 201.038766 554.050012 
L 203.583612 523.285129 
L 206.128458 495.977728 
L 208.673305 465.958267 
L 213.762998 420.778153 
L 216.307844 418.150629 
L 218.852691 399.651583 
L 221.397537 378.722576 
L 229.032077 322.789183 
L 231.576923 317.804612 
L 234.12177 310.989554 
L 236.666616 301.38659 
L 239.211462 289.285943 
L 241.756309 277.971004 
L 244.301155 274.651053 
L 246.846002 271.00801 
L 249.390848 272.102691 
L 251.935695 270.56838 
L 254.480541 260.564829 
L 257.025388 253.969611 
L 259.570234 250.816127 
L 262.115081 246.430439 
L 267.204773 234.08256 
L 269.74962 238.981827 
L 274.839313 225.536928 
L 277.384159 225.337354 
L 279.929006 222.14811 
L 282.473852 221.293601 
L 285.018699 216.952725 
L 287.563545 217.795069 
L 290.108392 213.262645 
L 292.653238 211.583313 
L 295.198085 213.345055 
L 297.742931 207.686139 
L 300.287777 205.908188 
L 302.832624 207.881794 
L 305.37747 207.372891 
L 307.922317 203.455079 
L 310.467163 203.438026 
L 313.01201 203.658042 
L 315.556856 199.978867 
L 318.101703 199.548648 
L 320.646549 195.826615 
L 323.191396 192.456698 
L 325.736242 195.518121 
L 328.281088 197.699013 
L 330.825935 203.675047 
L 333.370781 201.824752 
L 335.915628 207.176579 
L 338.460474 208.456099 
L 341.005321 209.0574 
L 343.550167 220.833176 
L 346.095014 223.61678 
L 348.63986 218.499789 
L 351.184707 218.255604 
L 353.729553 221.020866 
L 356.2744 216.051979 
L 358.819246 213.414174 
L 361.364092 212.353955 
L 363.908939 208.109125 
L 366.453785 203.282594 
L 368.998632 203.190106 
L 371.543478 205.591779 
L 374.088325 208.207098 
L 376.633171 212.028612 
L 379.178018 212.502919 
L 381.722864 206.303973 
L 384.267711 204.434859 
L 386.812557 200.504116 
L 389.357403 202.208885 
L 391.90225 199.664207 
L 396.991943 196.422463 
L 399.536789 198.937802 
L 402.081636 196.378988 
L 404.626482 195.681743 
L 407.171329 195.200991 
L 409.716175 196.497962 
L 414.805868 187.67269 
L 417.350715 190.690515 
L 419.895561 185.048472 
L 422.440407 180.571321 
L 424.985254 178.961202 
L 427.5301 175.666297 
L 430.074947 188.857589 
L 432.619793 184.284257 
L 435.16464 180.326307 
L 437.709486 176.703607 
L 440.254333 174.042375 
L 442.799179 172.044754 
L 445.344026 172.366121 
L 447.888872 183.393035 
L 450.433718 182.379141 
L 452.978565 178.999604 
L 458.068258 176.588043 
L 460.613104 172.880796 
L 463.157951 179.214077 
L 465.702797 177.396957 
L 468.247644 172.634082 
L 470.79249 170.956949 
L 473.337337 170.445698 
L 475.882183 176.89515 
L 478.427029 179.910736 
L 480.971876 178.6494 
L 483.516722 177.69218 
L 486.061569 199.023435 
L 488.606415 197.270324 
L 491.151262 196.047382 
L 493.696108 195.891645 
L 496.240955 199.677367 
L 498.785801 202.883082 
L 501.330648 195.479592 
L 503.875494 196.201744 
L 506.420341 195.02568 
L 508.965187 189.693656 
L 511.510033 206.711686 
L 514.05488 248.803199 
L 516.599726 243.852809 
L 519.144573 244.295617 
L 521.689419 235.285321 
L 524.234266 232.29979 
L 526.779112 226.668714 
L 529.323959 223.896129 
L 531.868805 222.913793 
L 534.413652 213.751998 
L 536.958498 206.115554 
L 542.048191 191.962499 
L 544.593037 191.54487 
L 547.137884 187.247239 
L 552.227577 177.757622 
L 554.772423 174.547387 
L 557.31727 170.255849 
L 559.862116 167.655929 
L 562.406963 181.346312 
L 564.951809 177.989361 
L 567.496656 174.916957 
L 570.041502 173.338115 
L 572.586348 172.253902 
L 575.131195 170.035385 
L 577.676041 172.39372 
L 580.220888 170.303311 
L 582.765734 167.970122 
L 585.310581 164.765129 
L 587.855427 166.382041 
L 590.400274 170.285387 
L 592.94512 181.554315 
L 595.489967 181.347261 
L 598.034813 182.223517 
L 600.579659 178.695348 
L 603.124506 174.127059 
L 605.669352 172.885881 
L 608.214199 169.741925 
L 610.759045 166.963615 
L 613.303892 165.394482 
L 615.848738 162.221971 
L 618.393585 159.675898 
L 620.938431 158.862064 
L 623.483278 155.931301 
L 626.028124 154.348518 
L 628.572971 151.795725 
L 631.117817 149.563376 
L 633.662663 148.864104 
L 636.20751 151.453717 
L 638.752356 149.53974 
L 641.297203 150.42437 
L 643.842049 150.193997 
L 646.386896 150.459728 
L 648.931742 148.926576 
L 651.476589 157.311398 
L 654.021435 154.92354 
L 656.566282 153.016013 
L 659.111128 150.952128 
L 661.655974 151.245898 
L 664.200821 152.50937 
L 666.745667 150.910984 
L 669.290514 149.512114 
L 671.83536 148.471263 
L 674.380207 147.651218 
L 676.925053 152.481975 
L 679.4699 151.553929 
L 682.014746 152.247447 
L 684.559593 152.579919 
L 687.104439 154.61592 
L 689.649285 152.367212 
L 692.194132 150.721024 
L 694.738978 148.536884 
L 697.283825 148.052798 
L 699.828671 148.656121 
L 702.373518 145.822499 
L 704.918364 143.758252 
L 707.463211 142.470336 
L 710.008057 145.552755 
L 712.552904 146.86161 
L 715.09775 149.514708 
L 717.642597 149.936068 
L 720.187443 148.895491 
L 722.732289 148.821261 
L 725.277136 152.69209 
L 727.821982 150.989598 
L 730.366829 158.154996 
L 732.911675 160.756626 
L 735.456522 159.211073 
L 738.001368 161.375329 
L 740.546215 161.619609 
L 743.091061 159.171773 
L 745.635908 160.096969 
L 748.180754 158.552195 
L 750.7256 159.237688 
L 753.270447 156.905187 
L 755.815293 155.994705 
L 758.36014 153.76515 
L 760.904986 155.048247 
L 763.449833 152.558913 
L 765.994679 153.024543 
L 768.539526 151.018465 
L 771.084372 151.528942 
L 773.629219 149.208467 
L 776.174065 148.997835 
L 781.263758 145.588832 
L 783.808604 145.488131 
L 786.353451 143.550266 
L 788.898297 142.194257 
L 793.98799 141.519088 
L 796.532837 140.815349 
L 799.077683 139.764399 
L 804.167376 138.486512 
L 806.712223 137.225604 
L 809.257069 137.909443 
L 814.346762 137.845533 
L 816.891608 135.874019 
L 819.436455 140.012244 
L 821.981301 138.778326 
L 824.526148 138.293735 
L 827.070994 137.117958 
L 829.615841 136.173867 
L 832.160687 138.213625 
L 834.705534 141.160464 
L 837.25038 144.790565 
L 839.795227 143.56926 
L 842.340073 149.515236 
L 844.884919 148.575515 
L 847.429766 146.661148 
L 849.974612 145.290331 
L 852.519459 144.077133 
L 855.064305 142.113721 
L 857.609152 140.862392 
L 860.153998 140.27417 
L 862.698845 139.200925 
L 865.243691 144.654646 
L 867.788538 146.734456 
L 870.333384 145.23371 
L 872.87823 145.83133 
L 875.423077 143.758399 
L 877.967923 142.595374 
L 880.51277 142.661295 
L 883.057616 141.057223 
L 885.602463 140.388372 
L 888.147309 140.230035 
L 890.692156 141.430346 
L 893.237002 139.883513 
L 895.781849 138.968317 
L 898.326695 141.890655 
L 900.871542 141.82041 
L 903.416388 139.912725 
L 905.961234 141.118457 
L 908.506081 139.426163 
L 911.050927 138.308717 
L 913.595774 136.284641 
L 916.14062 136.736092 
L 918.685467 136.807584 
L 921.230313 138.151837 
L 923.77516 137.012769 
L 926.320006 138.151461 
L 928.864853 137.16461 
L 931.409699 135.605943 
L 933.954545 136.341984 
L 933.954545 136.341984 
" style="fill:none;stroke:#4c72b0;stroke-linecap:round;stroke-width:2;"/>
   </g>
   <g id="line2d_14">
    <path clip-path="url(#pa32188162d)" d="M 177.325144 577 
L 178.135147 503.192183 
L 180.679994 539.813177 
L 183.22484 460.814904 
L 184.659121 577 
M 187.73588 577 
L 188.314533 550.523943 
L 188.714707 577 
M 192.976912 577 
L 193.404226 548.365932 
L 195.949073 396.289698 
L 198.493919 261.992751 
L 201.038766 358.119102 
L 203.583612 295.499284 
L 206.128458 398.893687 
L 208.673305 458.289195 
L 211.218151 445.084692 
L 213.762998 310.408151 
L 216.307844 197.627611 
L 218.852691 255.322437 
L 221.397537 181.421866 
L 223.942384 420.635378 
L 226.48723 329.774231 
L 229.032077 283.766373 
L 231.576923 372.071138 
L 234.12177 355.742162 
L 236.666616 214.962188 
L 239.211462 223.016259 
L 241.756309 201.728201 
L 244.301155 331.925129 
L 246.846002 295.19792 
L 249.390848 316.395953 
L 251.935695 245.349654 
L 254.480541 168.443305 
L 257.025388 362.507524 
L 259.570234 279.666945 
L 262.115081 184.704007 
L 264.659927 183.112863 
L 267.204773 254.447228 
L 269.74962 298.874233 
L 272.294466 228.74528 
L 274.839313 195.95458 
L 277.384159 325.1289 
L 279.929006 144.721974 
L 282.473852 227.049521 
L 285.018699 247.186687 
L 287.563545 383.691585 
L 290.108392 207.580863 
L 292.653238 168.477403 
L 295.198085 228.030769 
L 297.742931 183.797265 
L 300.287777 303.092317 
L 302.832624 231.232534 
L 305.37747 146.401112 
L 307.922317 143.97765 
L 310.467163 163.981852 
L 313.01201 159.800661 
L 315.556856 160.020858 
L 318.101703 348.569015 
L 320.646549 166.390885 
L 323.191396 234.582025 
L 325.736242 228.370714 
L 328.281088 173.86717 
L 330.825935 199.512898 
L 333.370781 138.649662 
L 335.915628 196.880264 
L 338.460474 160.576713 
L 341.005321 236.89605 
L 343.550167 158.267784 
L 346.095014 142.315655 
L 348.63986 217.09927 
L 351.184707 149.441542 
L 353.729553 151.558813 
L 356.2744 209.0086 
L 358.819246 175.047958 
L 361.364092 397.174804 
L 363.908939 143.831757 
L 366.453785 160.820162 
L 368.998632 202.352669 
L 371.543478 167.724709 
L 374.088325 160.738858 
L 376.633171 254.686468 
L 379.178018 177.293822 
L 381.722864 182.917645 
L 384.267711 158.124475 
L 386.812557 199.913443 
L 389.357403 139.356196 
L 391.90225 305.781468 
L 394.447096 170.697324 
L 396.991943 162.751417 
L 399.536789 183.290664 
L 402.081636 317.598749 
L 404.626482 173.655652 
L 407.171329 255.105211 
L 409.716175 184.589247 
L 412.261022 189.420516 
L 414.805868 141.152416 
L 417.350715 129.695826 
L 419.895561 169.592197 
L 422.440407 221.855723 
L 424.985254 152.404895 
L 427.5301 144.819958 
L 430.074947 183.277782 
L 432.619793 141.046003 
L 435.16464 178.962579 
L 437.709486 210.058842 
L 440.254333 217.53877 
L 442.799179 155.130763 
L 445.344026 134.304207 
L 447.888872 157.121451 
L 450.433718 157.902361 
L 452.978565 161.292201 
L 455.523411 136.587491 
L 458.068258 126.675552 
L 460.613104 194.503162 
L 463.157951 131.597697 
L 465.702797 168.891592 
L 468.247644 129.509596 
L 470.79249 141.090483 
L 473.337337 124.958482 
L 475.882183 127.827933 
L 478.427029 133.275503 
L 480.971876 128.127934 
L 483.516722 177.247866 
L 486.061569 144.687471 
L 488.606415 142.564509 
L 491.151262 141.679984 
L 493.696108 168.902176 
L 496.240955 143.248161 
L 498.785801 260.455463 
L 501.330648 167.686373 
L 503.875494 138.700214 
L 506.420341 147.66155 
L 508.965187 142.892965 
L 511.510033 143.432129 
L 514.05488 145.402554 
L 516.599726 145.618024 
L 519.144573 145.325166 
L 521.689419 150.068916 
L 524.234266 143.513612 
L 526.779112 194.97407 
L 529.323959 142.257889 
L 531.868805 167.066024 
L 534.413652 142.676638 
L 536.958498 191.966084 
L 539.503344 169.047355 
L 542.048191 179.890454 
L 544.593037 127.308105 
L 547.137884 138.382259 
L 549.68273 159.98139 
L 552.227577 142.232029 
L 554.772423 157.870359 
L 557.31727 143.19349 
L 559.862116 168.189546 
L 562.406963 139.95215 
L 564.951809 151.361987 
L 567.496656 164.06043 
L 570.041502 148.53592 
L 572.586348 134.278586 
L 575.131195 214.821117 
L 577.676041 158.717834 
L 580.220888 186.577376 
L 582.765734 246.252229 
L 585.310581 137.743873 
L 587.855427 135.276216 
L 590.400274 142.379637 
L 592.94512 144.550626 
L 595.489967 141.103698 
L 598.034813 146.77912 
L 600.579659 157.906505 
L 603.124506 146.608772 
L 605.669352 132.174055 
L 608.214199 159.197052 
L 610.759045 148.85366 
L 613.303892 135.780829 
L 615.848738 151.376679 
L 618.393585 139.829116 
L 620.938431 134.801701 
L 623.483278 138.752956 
L 626.028124 134.860182 
L 628.572971 144.294652 
L 631.117817 143.474847 
L 633.662663 144.425663 
L 636.20751 154.049102 
L 638.752356 142.048157 
L 641.297203 139.006358 
L 643.842049 133.138849 
L 646.386896 131.610365 
L 648.931742 132.581398 
L 651.476589 137.47285 
L 654.021435 140.395973 
L 656.566282 125.707734 
L 659.111128 145.891642 
L 661.655974 152.44266 
L 664.200821 133.10025 
L 666.745667 132.977955 
L 669.290514 146.307128 
L 671.83536 144.03075 
L 674.380207 137.102177 
L 676.925053 126.70696 
L 682.014746 146.430782 
L 684.559593 162.556413 
L 687.104439 137.582693 
L 689.649285 130.97086 
L 692.194132 131.717017 
L 694.738978 139.079126 
L 697.283825 136.940425 
L 699.828671 142.674471 
L 702.373518 152.635342 
L 704.918364 174.739468 
L 707.463211 137.203375 
L 710.008057 137.635578 
L 712.552904 133.974537 
L 715.09775 150.376917 
L 717.642597 131.591959 
L 720.187443 135.767233 
L 722.732289 143.442606 
L 725.277136 131.980682 
L 727.821982 133.682156 
L 730.366829 130.276279 
L 732.911675 134.006587 
L 735.456522 145.099029 
L 738.001368 132.925617 
L 740.546215 145.810849 
L 743.091061 134.231106 
L 745.635908 130.510965 
L 748.180754 126.105981 
L 750.7256 133.695085 
L 753.270447 137.522759 
L 755.815293 162.823006 
L 758.36014 145.813564 
L 760.904986 143.93417 
L 763.449833 137.576716 
L 765.994679 143.390768 
L 768.539526 139.963604 
L 771.084372 132.254823 
L 773.629219 139.426512 
L 776.174065 134.3304 
L 778.718912 133.419181 
L 781.263758 137.02898 
L 783.808604 128.289924 
L 786.353451 131.285029 
L 788.898297 136.543488 
L 791.443144 123.400305 
L 793.98799 133.764281 
L 796.532837 132.101572 
L 799.077683 129.412469 
L 801.62253 160.626968 
L 804.167376 129.691349 
L 806.712223 140.63285 
L 809.257069 127.57646 
L 811.801915 134.365855 
L 814.346762 128.182129 
L 816.891608 129.594032 
L 819.436455 135.085462 
L 821.981301 128.298996 
L 824.526148 125.888178 
L 827.070994 131.529097 
L 829.615841 138.349208 
L 832.160687 143.036834 
L 834.705534 130.446959 
L 837.25038 141.310382 
L 839.795227 144.767787 
L 842.340073 133.352676 
L 844.884919 125.091897 
L 847.429766 138.091782 
L 849.974612 131.360106 
L 852.519459 131.40361 
L 855.064305 153.870945 
L 857.609152 148.117445 
L 860.153998 165.554185 
L 862.698845 137.503876 
L 865.243691 164.021879 
L 867.788538 132.991932 
L 870.333384 137.755469 
L 872.87823 131.382394 
L 875.423077 146.348275 
L 877.967923 144.37054 
L 880.51277 128.672408 
L 883.057616 142.050395 
L 885.602463 128.873639 
L 888.147309 128.272946 
L 890.692156 136.657664 
L 893.237002 134.568515 
L 895.781849 125.112947 
L 898.326695 128.441389 
L 900.871542 121.935374 
L 903.416388 128.185534 
L 905.961234 141.295166 
L 908.506081 129.868697 
L 911.050927 138.604801 
L 913.595774 138.128547 
L 916.14062 131.191735 
L 918.685467 131.20307 
L 921.230313 128.921833 
L 923.77516 142.211552 
L 926.320006 131.37175 
L 928.864853 129.544694 
L 931.409699 132.622711 
L 933.954545 143.74725 
L 933.954545 143.74725 
" style="fill:none;stroke:#dd8452;stroke-linecap:round;stroke-opacity:0.3;stroke-width:1.5;"/>
   </g>
   <g id="line2d_15">
    <path clip-path="url(#pa32188162d)" d="M 196.129887 577 
L 198.493919 547.528039 
L 201.038766 528.587146 
L 203.583612 505.278359 
L 206.128458 494.639892 
L 208.673305 491.004823 
L 211.218151 486.41281 
L 213.762998 468.812344 
L 216.307844 441.69387 
L 218.852691 423.056727 
L 221.397537 398.893241 
L 223.942384 401.067455 
L 226.48723 393.938132 
L 229.032077 382.920956 
L 231.576923 381.835975 
L 234.12177 379.226593 
L 236.666616 362.800153 
L 239.211462 348.821763 
L 241.756309 334.112407 
L 244.301155 333.893679 
L 246.846002 330.024103 
L 249.390848 328.661288 
L 251.935695 320.330125 
L 254.480541 305.141443 
L 257.025388 310.878051 
L 259.570234 307.75694 
L 262.115081 295.451647 
L 264.659927 284.217769 
L 267.204773 281.240715 
L 269.74962 283.004066 
L 272.294466 277.578188 
L 274.839313 269.415827 
L 277.384159 274.987134 
L 279.929006 261.960618 
L 282.473852 258.469509 
L 285.018699 257.341226 
L 287.563545 269.976262 
L 290.108392 263.736722 
L 292.653238 254.21079 
L 295.198085 251.592788 
L 297.742931 244.813236 
L 300.287777 250.641144 
L 302.832624 248.700283 
L 305.37747 238.470366 
L 307.922317 229.021094 
L 313.01201 216.245519 
L 315.556856 210.623053 
L 318.101703 224.417649 
L 320.646549 218.614973 
L 323.191396 220.211678 
L 325.736242 221.027582 
L 328.281088 216.31154 
L 330.825935 214.631676 
L 333.370781 207.033475 
L 335.915628 206.018154 
L 338.460474 201.47401 
L 341.005321 205.016214 
L 343.550167 200.341371 
L 346.095014 194.538799 
L 348.63986 196.794846 
L 351.184707 192.059516 
L 353.729553 188.009446 
L 356.2744 190.109361 
L 358.819246 188.603221 
L 361.364092 209.460379 
L 363.908939 202.897517 
L 366.453785 198.689781 
L 368.998632 199.05607 
L 371.543478 195.922934 
L 374.088325 192.404526 
L 376.633171 198.632721 
L 379.178018 196.498831 
L 381.722864 195.140712 
L 384.267711 191.439088 
L 386.812557 192.286524 
L 389.357403 186.993491 
L 391.90225 198.872289 
L 394.447096 196.054792 
L 396.991943 192.724455 
L 399.536789 191.781076 
L 402.081636 204.362843 
L 404.626482 201.292124 
L 407.171329 206.673433 
L 409.716175 204.465014 
L 412.261022 202.960564 
L 414.805868 196.77975 
L 417.350715 190.071357 
L 419.895561 188.023441 
L 422.440407 191.406669 
L 424.985254 187.506492 
L 427.5301 183.237838 
L 430.074947 183.241833 
L 432.619793 179.02225 
L 435.16464 179.016283 
L 437.709486 182.120539 
L 440.254333 185.662362 
L 442.799179 182.609202 
L 445.344026 177.778702 
L 447.888872 175.712977 
L 450.433718 173.931916 
L 452.978565 172.667944 
L 455.523411 169.059899 
L 458.068258 164.821464 
L 460.613104 167.789634 
L 463.157951 164.17044 
L 465.702797 164.642556 
L 468.247644 161.12926 
L 470.79249 159.125382 
L 473.337337 155.708692 
L 475.882183 152.920616 
L 478.427029 150.956105 
L 480.971876 148.673288 
L 483.516722 151.530746 
L 486.061569 150.846418 
L 491.151262 149.184403 
L 493.696108 151.15618 
L 496.240955 150.365378 
L 498.785801 161.374387 
L 501.330648 162.005585 
L 503.875494 159.675048 
L 506.420341 158.473698 
L 508.965187 156.915625 
L 511.510033 155.567275 
L 514.05488 154.550803 
L 519.144573 152.824289 
L 521.689419 152.548752 
L 524.234266 151.645238 
L 526.779112 155.978121 
L 529.323959 154.606098 
L 531.868805 155.852091 
L 534.413652 154.534545 
L 536.958498 158.277699 
L 539.503344 159.354665 
L 542.048191 161.408244 
L 544.593037 157.99823 
L 547.137884 156.036633 
L 549.68273 156.431108 
L 552.227577 155.0112 
L 554.772423 155.297116 
L 557.31727 154.086754 
L 559.862116 155.497033 
L 562.406963 153.942545 
L 564.951809 153.684489 
L 567.496656 154.722083 
L 570.041502 154.103467 
L 572.586348 152.120979 
L 575.131195 158.390992 
L 577.676041 158.423677 
L 580.220888 161.239046 
L 582.765734 169.740365 
L 587.855427 163.414266 
L 590.400274 161.310803 
L 592.94512 159.634785 
L 595.489967 157.781676 
L 598.034813 156.681421 
L 600.579659 156.803929 
L 603.124506 155.784413 
L 605.669352 153.423378 
L 608.214199 154.000745 
L 610.759045 153.486036 
L 613.303892 151.715516 
L 615.848738 151.681632 
L 618.393585 150.49638 
L 620.938431 148.926912 
L 623.483278 147.909517 
L 626.028124 146.604583 
L 633.662663 145.917911 
L 636.20751 146.73103 
L 638.752356 146.262742 
L 641.297203 145.537104 
L 646.386896 143.028587 
L 648.931742 141.983868 
L 651.476589 141.532766 
L 654.021435 141.419087 
L 656.566282 139.847952 
L 659.111128 140.452321 
L 661.655974 141.651355 
L 666.745667 140.014415 
L 669.290514 140.643687 
L 671.83536 140.982393 
L 674.380207 140.594371 
L 676.925053 139.20563 
L 679.4699 138.932951 
L 682.014746 139.682734 
L 684.559593 141.970102 
L 687.104439 141.531361 
L 689.649285 140.475311 
L 692.194132 139.599481 
L 694.738978 139.547446 
L 697.283825 139.286744 
L 699.828671 139.625517 
L 702.373518 140.926499 
L 704.918364 144.307796 
L 712.552904 142.098512 
L 715.09775 142.926353 
L 717.642597 141.792914 
L 720.187443 141.190345 
L 722.732289 141.415571 
L 725.277136 140.472082 
L 727.821982 139.79309 
L 730.366829 138.841409 
L 732.911675 138.357927 
L 735.456522 139.032037 
L 738.001368 138.421395 
L 740.546215 139.16034 
L 743.091061 138.667417 
L 745.635908 137.851772 
L 748.180754 136.677193 
L 750.7256 136.378982 
L 753.270447 136.49336 
L 755.815293 139.126324 
L 758.36014 139.795048 
L 760.904986 140.20896 
L 763.449833 139.945736 
L 765.994679 140.290239 
L 768.539526 140.257576 
L 771.084372 139.4573 
L 773.629219 139.454222 
L 778.718912 138.389574 
L 781.263758 138.253514 
L 783.808604 137.257155 
L 786.353451 136.659943 
L 788.898297 136.648297 
L 791.443144 135.323498 
L 793.98799 135.167576 
L 796.532837 134.860976 
L 799.077683 134.316125 
L 801.62253 136.947209 
L 804.167376 136.221623 
L 806.712223 136.662746 
L 809.257069 135.754117 
L 811.801915 135.615291 
L 814.346762 134.871975 
L 816.891608 134.344181 
L 819.436455 134.418309 
L 821.981301 133.806378 
L 824.526148 133.014558 
L 827.070994 132.866011 
L 829.615841 133.414331 
L 832.160687 134.376581 
L 834.705534 133.983619 
L 837.25038 134.716295 
L 839.795227 135.721445 
L 842.340073 135.484568 
L 844.884919 134.445301 
L 847.429766 134.809949 
L 852.519459 134.158829 
L 855.064305 136.130041 
L 857.609152 137.328781 
L 860.153998 140.151321 
L 862.698845 139.886577 
L 865.243691 142.300107 
L 867.788538 141.36929 
L 870.333384 141.007908 
L 872.87823 140.045356 
L 875.423077 140.675648 
L 877.967923 141.045137 
L 880.51277 139.807864 
L 883.057616 140.032117 
L 888.147309 137.851937 
L 890.692156 137.73251 
L 893.237002 137.41611 
L 895.781849 136.185794 
L 898.326695 135.411353 
L 900.871542 134.063756 
L 903.416388 133.475933 
L 905.961234 134.257857 
L 908.506081 133.818941 
L 913.595774 134.680629 
L 918.685467 134.018872 
L 921.230313 133.509169 
L 923.77516 134.379407 
L 926.320006 134.078641 
L 928.864853 133.625247 
L 931.409699 133.524993 
L 933.954545 134.547219 
L 933.954545 134.547219 
" style="fill:none;stroke:#dd8452;stroke-linecap:round;stroke-width:2;"/>
   </g>
   <g id="line2d_16">
    <path clip-path="url(#pa32188162d)" d="M 177.690992 577 
L 178.135147 479.978954 
L 180.679994 456.042248 
L 183.739001 577 
M 189.087578 577 
L 190.85938 522.610456 
L 195.949073 441.126395 
L 198.342395 577 
M 198.719819 577 
L 201.038766 488.694222 
L 203.583612 425.227086 
L 206.128458 373.105349 
L 208.673305 452.669528 
L 211.218151 441.52238 
L 213.762998 409.323205 
L 216.307844 399.073559 
L 218.852691 392.874127 
L 221.397537 413.908596 
L 223.942384 389.158397 
L 226.48723 395.33472 
L 231.576923 389.850865 
L 234.12177 438.293976 
L 236.666616 388.213134 
L 239.211462 283.372299 
L 241.756309 413.672993 
L 244.301155 405.380307 
L 246.846002 366.810937 
L 249.390848 334.0538 
L 251.935695 363.940484 
L 254.480541 418.759604 
L 257.025388 220.887369 
L 259.570234 348.439214 
L 262.115081 371.573709 
L 264.659927 373.867656 
L 267.204773 201.898227 
L 269.74962 350.984759 
L 272.294466 326.309328 
L 274.839313 295.132212 
L 277.384159 179.982735 
L 279.929006 202.01576 
L 282.473852 326.289692 
L 285.018699 246.080905 
L 287.563545 189.656976 
L 290.108392 245.416683 
L 292.653238 258.583427 
L 295.198085 161.090065 
L 297.742931 210.883934 
L 300.287777 258.017964 
L 302.832624 141.354695 
L 305.37747 144.376874 
L 307.922317 179.682425 
L 310.467163 162.945505 
L 313.01201 158.909242 
L 315.556856 182.463369 
L 318.101703 185.024652 
L 320.646549 170.444946 
L 323.191396 152.934629 
L 325.736242 147.590901 
L 328.281088 140.853915 
L 330.825935 168.876459 
L 333.370781 158.997571 
L 335.915628 202.347942 
L 338.460474 135.172922 
L 341.005321 137.145561 
L 343.550167 183.450748 
L 346.095014 166.659681 
L 348.63986 144.289295 
L 351.184707 280.077556 
L 353.729553 160.915813 
L 356.2744 130.097383 
L 358.819246 162.363957 
L 361.364092 153.431801 
L 363.908939 132.066641 
L 366.453785 188.908759 
L 368.998632 128.208751 
L 371.543478 124.819732 
L 374.088325 153.285253 
L 376.633171 132.988408 
L 379.178018 140.648851 
L 381.722864 135.747041 
L 384.267711 140.538032 
L 386.812557 146.352561 
L 389.357403 145.369718 
L 391.90225 137.798568 
L 394.447096 134.487508 
L 396.991943 128.778012 
L 399.536789 139.206636 
L 402.081636 197.716916 
L 404.626482 135.020814 
L 407.171329 132.611567 
L 409.716175 135.371724 
L 412.261022 139.838951 
L 414.805868 134.328519 
L 417.350715 127.173474 
L 419.895561 129.356536 
L 422.440407 139.462134 
L 424.985254 132.395263 
L 427.5301 132.621854 
L 430.074947 130.987909 
L 432.619793 137.976368 
L 435.16464 133.753971 
L 437.709486 148.893592 
L 440.254333 139.343029 
L 442.799179 126.785014 
L 445.344026 129.694945 
L 447.888872 125.261721 
L 450.433718 125.219884 
L 452.978565 129.404516 
L 455.523411 127.297889 
L 458.068258 128.537944 
L 460.613104 125.987733 
L 463.157951 124.814613 
L 465.702797 134.78939 
L 468.247644 134.442076 
L 470.79249 135.126585 
L 473.337337 127.882962 
L 475.882183 178.257009 
L 478.427029 142.479574 
L 480.971876 125.458428 
L 483.516722 137.007978 
L 486.061569 128.381789 
L 488.606415 128.234967 
L 491.151262 126.787585 
L 493.696108 136.959189 
L 496.240955 145.88045 
L 498.785801 137.300812 
L 501.330648 130.303138 
L 503.875494 135.644199 
L 506.420341 140.586608 
L 508.965187 135.430872 
L 511.510033 127.522789 
L 514.05488 127.838291 
L 516.599726 125.586034 
L 519.144573 124.446177 
L 521.689419 120.201279 
L 524.234266 124.73282 
L 526.779112 128.340142 
L 529.323959 126.737438 
L 531.868805 124.50754 
L 534.413652 136.48284 
L 536.958498 150.736292 
L 539.503344 127.757618 
L 542.048191 130.566374 
L 544.593037 141.123533 
L 547.137884 126.473988 
L 549.68273 143.481942 
L 552.227577 130.235275 
L 554.772423 131.822073 
L 557.31727 136.693143 
L 559.862116 132.447911 
L 562.406963 135.836548 
L 564.951809 121.69495 
L 567.496656 130.162865 
L 570.041502 154.405536 
L 572.586348 127.968897 
L 575.131195 123.870344 
L 577.676041 126.745201 
L 580.220888 132.577326 
L 582.765734 123.33249 
L 585.310581 130.354499 
L 587.855427 133.648796 
L 590.400274 126.929978 
L 592.94512 158.998976 
L 595.489967 139.473944 
L 598.034813 123.892322 
L 600.579659 131.007792 
L 603.124506 139.247783 
L 605.669352 141.418129 
L 608.214199 132.494486 
L 610.759045 135.162326 
L 613.303892 131.730851 
L 615.848738 131.702397 
L 618.393585 127.949991 
L 620.938431 136.458576 
L 623.483278 121.808316 
L 626.028124 125.359181 
L 628.572971 122.603763 
L 631.117817 127.399231 
L 633.662663 126.652955 
L 636.20751 126.040476 
L 638.752356 126.645574 
L 641.297203 120.472134 
L 643.842049 131.345986 
L 646.386896 131.462972 
L 648.931742 130.090882 
L 651.476589 131.859505 
L 654.021435 127.961778 
L 656.566282 133.024435 
L 659.111128 128.44246 
L 661.655974 129.715494 
L 666.745667 123.875964 
L 669.290514 124.319262 
L 671.83536 132.161363 
L 674.380207 127.588271 
L 676.925053 130.582756 
L 679.4699 126.039381 
L 682.014746 128.900808 
L 684.559593 138.280084 
L 687.104439 133.287266 
L 689.649285 124.005403 
L 692.194132 127.293794 
L 694.738978 115.155861 
L 697.283825 138.355637 
L 699.828671 122.090173 
L 702.373518 128.898546 
L 704.918364 137.21421 
L 707.463211 123.839246 
L 710.008057 122.202635 
L 712.552904 131.625962 
L 715.09775 129.456997 
L 717.642597 119.988571 
L 720.187443 132.361975 
L 722.732289 130.993338 
L 725.277136 130.977146 
L 727.821982 129.299222 
L 730.366829 123.800553 
L 732.911675 130.004494 
L 735.456522 119.856917 
L 738.001368 117.811938 
L 740.546215 125.857366 
L 743.091061 126.148032 
L 745.635908 119.248747 
L 748.180754 123.00632 
L 750.7256 128.261779 
L 753.270447 116.208377 
L 755.815293 124.246137 
L 758.36014 133.233476 
L 760.904986 122.858856 
L 763.449833 135.669391 
L 765.994679 128.763392 
L 768.539526 128.701625 
L 771.084372 119.751432 
L 773.629219 128.420697 
L 776.174065 135.815118 
L 778.718912 123.022822 
L 781.263758 145.559257 
L 783.808604 127.091849 
L 786.353451 128.769487 
L 788.898297 128.729151 
L 791.443144 128.925048 
L 793.98799 142.232125 
L 796.532837 127.982732 
L 799.077683 121.114783 
L 801.62253 125.776597 
L 804.167376 127.585461 
L 806.712223 123.240268 
L 809.257069 125.607154 
L 811.801915 125.611179 
L 814.346762 134.567848 
L 816.891608 132.86785 
L 819.436455 126.35774 
L 821.981301 121.537413 
L 824.526148 125.239291 
L 827.070994 124.42258 
L 829.615841 127.032272 
L 832.160687 125.497026 
L 834.705534 126.234111 
L 837.25038 129.506548 
L 839.795227 153.272216 
L 842.340073 126.703007 
L 844.884919 127.991042 
L 847.429766 145.523564 
L 849.974612 128.11629 
L 852.519459 124.664886 
L 855.064305 129.243169 
L 857.609152 119.094759 
L 860.153998 121.072684 
L 862.698845 128.135006 
L 867.788538 122.801922 
L 870.333384 127.741045 
L 872.87823 123.67028 
L 875.423077 134.83468 
L 877.967923 123.475073 
L 880.51277 128.550303 
L 883.057616 128.779869 
L 885.602463 123.4545 
L 888.147309 132.74034 
L 890.692156 129.212738 
L 893.237002 129.846648 
L 895.781849 125.620346 
L 898.326695 125.095922 
L 900.871542 122.547187 
L 903.416388 137.856287 
L 905.961234 131.416468 
L 908.506081 133.150278 
L 911.050927 133.497307 
L 913.595774 132.485509 
L 916.14062 130.564636 
L 918.685467 122.419367 
L 921.230313 127.667872 
L 923.77516 117.518081 
L 926.320006 134.731861 
L 928.864853 118.991583 
L 931.409699 130.318282 
L 931.409699 130.318282 
" style="fill:none;stroke:#55a868;stroke-linecap:round;stroke-opacity:0.3;stroke-width:1.5;"/>
   </g>
   <g id="line2d_17">
    <path clip-path="url(#pa32188162d)" d="M 212.002862 577 
L 216.307844 548.437683 
L 218.852691 532.881328 
L 221.397537 520.984054 
L 223.942384 507.801489 
L 226.48723 496.554812 
L 229.032077 486.157164 
L 231.576923 476.526534 
L 234.12177 472.703278 
L 236.666616 464.254264 
L 239.211462 446.166067 
L 241.756309 442.91676 
L 244.301155 439.163115 
L 246.846002 431.927897 
L 249.390848 422.140487 
L 251.935695 416.320487 
L 254.480541 416.564399 
L 257.025388 396.996696 
L 259.570234 392.140947 
L 262.115081 390.084224 
L 264.659927 388.462567 
L 267.204773 369.806133 
L 269.74962 367.923995 
L 272.294466 363.762529 
L 274.839313 356.899497 
L 277.384159 339.207821 
L 279.929006 325.488615 
L 282.473852 325.568723 
L 285.018699 317.619941 
L 287.563545 304.823644 
L 290.108392 298.882948 
L 292.653238 294.852996 
L 295.198085 281.476703 
L 297.742931 274.417426 
L 300.287777 272.77748 
L 302.832624 259.635201 
L 305.37747 248.109369 
L 307.922317 241.266674 
L 310.467163 233.434557 
L 313.01201 225.982026 
L 315.556856 221.63016 
L 318.101703 217.969609 
L 320.646549 213.217143 
L 328.281088 195.191575 
L 330.825935 192.560063 
L 333.370781 189.203814 
L 335.915628 190.518227 
L 338.460474 184.983696 
L 341.005321 180.199883 
L 343.550167 180.524969 
L 346.095014 179.138441 
L 348.63986 175.653526 
L 351.184707 186.095929 
L 353.729553 183.577917 
L 356.2744 178.229864 
L 358.819246 176.643273 
L 361.364092 174.322126 
L 363.908939 170.096577 
L 366.453785 171.977796 
L 371.543478 163.322775 
L 374.088325 162.319023 
L 376.633171 159.385962 
L 379.178018 157.51225 
L 381.722864 155.335729 
L 384.267711 153.85596 
L 389.357403 152.33203 
L 391.90225 150.878683 
L 394.447096 149.239566 
L 396.991943 147.19341 
L 399.536789 146.394733 
L 402.081636 151.526951 
L 407.171329 148.149861 
L 409.716175 146.872047 
L 412.261022 146.168737 
L 414.805868 144.984715 
L 417.350715 143.203591 
L 419.895561 141.818886 
L 422.440407 141.583211 
L 427.5301 139.86016 
L 430.074947 138.972935 
L 432.619793 138.873278 
L 435.16464 138.361347 
L 437.709486 139.414572 
L 440.254333 139.407417 
L 442.799179 138.145177 
L 445.344026 137.300154 
L 450.433718 135.008668 
L 452.978565 134.448253 
L 455.523411 133.733216 
L 458.068258 133.213689 
L 463.157951 131.723446 
L 470.79249 132.556778 
L 473.337337 132.089396 
L 475.882183 136.706157 
L 478.427029 137.283499 
L 480.971876 136.100992 
L 483.516722 136.191691 
L 491.151262 133.902573 
L 493.696108 134.208234 
L 496.240955 135.375456 
L 498.785801 135.567992 
L 501.330648 135.041506 
L 503.875494 135.101776 
L 506.420341 135.650259 
L 508.965187 135.62832 
L 519.144573 132.384414 
L 521.689419 131.166101 
L 524.234266 130.522773 
L 526.779112 130.30451 
L 529.323959 129.947803 
L 531.868805 129.403776 
L 534.413652 130.111683 
L 536.958498 132.174144 
L 539.503344 131.732491 
L 542.048191 131.615879 
L 544.593037 132.566645 
L 547.137884 131.957379 
L 549.68273 133.109835 
L 552.227577 132.822379 
L 554.772423 132.722349 
L 557.31727 133.119428 
L 559.862116 133.052276 
L 562.406963 133.330704 
L 564.951809 132.167128 
L 567.496656 131.966702 
L 570.041502 134.210585 
L 572.586348 133.586416 
L 575.131195 132.614809 
L 577.676041 132.027848 
L 580.220888 132.082796 
L 582.765734 131.207766 
L 585.310581 131.122439 
L 587.855427 131.375075 
L 590.400274 130.930565 
L 592.94512 133.737406 
L 595.489967 134.31106 
L 598.034813 133.269186 
L 600.579659 133.043047 
L 603.124506 133.66352 
L 605.669352 134.438981 
L 608.214199 134.244532 
L 610.759045 134.336311 
L 615.848738 133.838428 
L 618.393585 133.249584 
L 620.938431 133.570484 
L 623.483278 132.394267 
L 626.028124 131.690758 
L 628.572971 130.782059 
L 638.752356 129.360602 
L 641.297203 128.471756 
L 646.386896 129.029558 
L 648.931742 129.13569 
L 651.476589 129.408072 
L 654.021435 129.263442 
L 656.566282 129.639542 
L 659.111128 129.519833 
L 661.655974 129.5394 
L 664.200821 129.270254 
L 669.290514 128.289669 
L 671.83536 128.676838 
L 674.380207 128.567982 
L 676.925053 128.769459 
L 679.4699 128.496451 
L 682.014746 128.536887 
L 684.559593 129.511207 
L 687.104439 129.888812 
L 689.649285 129.300472 
L 692.194132 129.099804 
L 694.738978 127.70541 
L 697.283825 128.770432 
L 699.828671 128.102406 
L 702.373518 128.18202 
L 704.918364 129.085239 
L 710.008057 127.924839 
L 712.552904 128.294952 
L 715.09775 128.411156 
L 717.642597 127.568898 
L 720.187443 128.048205 
L 725.277136 128.606161 
L 727.821982 128.675467 
L 730.366829 128.187976 
L 732.911675 128.369628 
L 735.456522 127.518357 
L 738.001368 126.547715 
L 743.091061 126.445615 
L 745.635908 125.725928 
L 748.180754 125.453968 
L 750.7256 125.734749 
L 753.270447 124.782111 
L 755.815293 124.728514 
L 758.36014 125.57901 
L 760.904986 125.306995 
L 763.449833 126.343234 
L 768.539526 126.796888 
L 771.084372 126.092342 
L 773.629219 126.325177 
L 776.174065 127.274172 
L 778.718912 126.849037 
L 781.263758 128.720059 
L 783.808604 128.557238 
L 791.443144 128.626683 
L 793.98799 129.987227 
L 796.532837 129.786778 
L 799.077683 128.919578 
L 801.62253 128.60528 
L 804.167376 128.503298 
L 806.712223 127.976995 
L 811.801915 127.527128 
L 814.346762 128.2312 
L 816.891608 128.694865 
L 819.436455 128.461152 
L 821.981301 127.768778 
L 827.070994 127.206505 
L 829.615841 127.189081 
L 834.705534 126.941299 
L 837.25038 127.197824 
L 839.795227 129.805264 
L 842.340073 129.495038 
L 844.884919 129.344638 
L 847.429766 130.962531 
L 849.974612 130.677907 
L 852.519459 130.076605 
L 855.064305 129.993261 
L 857.609152 128.903411 
L 860.153998 128.120338 
L 862.698845 128.121805 
L 865.243691 127.854186 
L 867.788538 127.34896 
L 870.333384 127.388168 
L 872.87823 127.01638 
L 875.423077 127.79821 
L 877.967923 127.365896 
L 883.057616 127.61389 
L 885.602463 127.197951 
L 888.147309 127.75219 
L 893.237002 128.093085 
L 898.326695 127.570822 
L 900.871542 127.068459 
L 903.416388 128.147241 
L 905.961234 128.474164 
L 911.050927 129.397329 
L 913.595774 129.706147 
L 916.14062 129.791996 
L 918.685467 129.054733 
L 921.230313 128.916047 
L 923.77516 127.77625 
L 926.320006 128.471811 
L 928.864853 127.523788 
L 931.409699 127.803238 
L 931.409699 127.803238 
" style="fill:none;stroke:#55a868;stroke-linecap:round;stroke-width:2;"/>
   </g>
   <g id="patch_3">
    <path d="M 135 504 
L 135 69.12 
" style="fill:none;stroke:#ffffff;stroke-linecap:square;stroke-linejoin:miter;stroke-width:1.25;"/>
   </g>
   <g id="patch_4">
    <path d="M 972 504 
L 972 69.12 
" style="fill:none;stroke:#ffffff;stroke-linecap:square;stroke-linejoin:miter;stroke-width:1.25;"/>
   </g>
   <g id="patch_5">
    <path d="M 135 504 
L 972 504 
" style="fill:none;stroke:#ffffff;stroke-linecap:square;stroke-linejoin:miter;stroke-width:1.25;"/>
   </g>
   <g id="patch_6">
    <path d="M 135 69.12 
L 972 69.12 
" style="fill:none;stroke:#ffffff;stroke-linecap:square;stroke-linejoin:miter;stroke-width:1.25;"/>
   </g>
   <g id="text_15">
    <!-- LunarLanderContinuous -->
    <g style="fill:#262626;" transform="translate(381.8275 63.12)scale(0.32 -0.32)">
     <defs>
      <path d="M 7.328125 0 
L 7.328125 71.578125 
L 16.796875 71.578125 
L 16.796875 8.453125 
L 52.046875 8.453125 
L 52.046875 0 
z
" id="ArialMT-76"/>
      <path d="M 40.578125 0 
L 40.578125 7.625 
Q 34.515625 -1.171875 24.125 -1.171875 
Q 19.53125 -1.171875 15.546875 0.578125 
Q 11.578125 2.34375 9.640625 5 
Q 7.71875 7.671875 6.9375 11.53125 
Q 6.390625 14.109375 6.390625 19.734375 
L 6.390625 51.859375 
L 15.1875 51.859375 
L 15.1875 23.09375 
Q 15.1875 16.21875 15.71875 13.8125 
Q 16.546875 10.359375 19.234375 8.375 
Q 21.921875 6.390625 25.875 6.390625 
Q 29.828125 6.390625 33.296875 8.421875 
Q 36.765625 10.453125 38.203125 13.9375 
Q 39.65625 17.4375 39.65625 24.078125 
L 39.65625 51.859375 
L 48.4375 51.859375 
L 48.4375 0 
z
" id="ArialMT-117"/>
      <path d="M 6.59375 0 
L 6.59375 51.859375 
L 14.5 51.859375 
L 14.5 44.484375 
Q 20.21875 53.03125 31 53.03125 
Q 35.6875 53.03125 39.625 51.34375 
Q 43.5625 49.65625 45.515625 46.921875 
Q 47.46875 44.1875 48.25 40.4375 
Q 48.734375 37.984375 48.734375 31.890625 
L 48.734375 0 
L 39.9375 0 
L 39.9375 31.546875 
Q 39.9375 36.921875 38.90625 39.578125 
Q 37.890625 42.234375 35.28125 43.8125 
Q 32.671875 45.40625 29.15625 45.40625 
Q 23.53125 45.40625 19.453125 41.84375 
Q 15.375 38.28125 15.375 28.328125 
L 15.375 0 
z
" id="ArialMT-110"/>
      <path d="M 58.796875 25.09375 
L 68.265625 22.703125 
Q 65.28125 11.03125 57.546875 4.90625 
Q 49.8125 -1.21875 38.625 -1.21875 
Q 27.046875 -1.21875 19.796875 3.484375 
Q 12.546875 8.203125 8.765625 17.140625 
Q 4.984375 26.078125 4.984375 36.328125 
Q 4.984375 47.515625 9.25 55.828125 
Q 13.53125 64.15625 21.40625 68.46875 
Q 29.296875 72.796875 38.765625 72.796875 
Q 49.515625 72.796875 56.828125 67.328125 
Q 64.15625 61.859375 67.046875 51.953125 
L 57.71875 49.75 
Q 55.21875 57.5625 50.484375 61.125 
Q 45.75 64.703125 38.578125 64.703125 
Q 30.328125 64.703125 24.78125 60.734375 
Q 19.234375 56.78125 16.984375 50.109375 
Q 14.75 43.453125 14.75 36.375 
Q 14.75 27.25 17.40625 20.4375 
Q 20.0625 13.625 25.671875 10.25 
Q 31.296875 6.890625 37.84375 6.890625 
Q 45.796875 6.890625 51.3125 11.46875 
Q 56.84375 16.0625 58.796875 25.09375 
z
" id="ArialMT-67"/>
      <path d="M 25.78125 7.859375 
L 27.046875 0.09375 
Q 23.34375 -0.6875 20.40625 -0.6875 
Q 15.625 -0.6875 12.984375 0.828125 
Q 10.359375 2.34375 9.28125 4.8125 
Q 8.203125 7.28125 8.203125 15.1875 
L 8.203125 45.015625 
L 1.765625 45.015625 
L 1.765625 51.859375 
L 8.203125 51.859375 
L 8.203125 64.703125 
L 16.9375 69.96875 
L 16.9375 51.859375 
L 25.78125 51.859375 
L 25.78125 45.015625 
L 16.9375 45.015625 
L 16.9375 14.703125 
Q 16.9375 10.9375 17.40625 9.859375 
Q 17.875 8.796875 18.921875 8.15625 
Q 19.96875 7.515625 21.921875 7.515625 
Q 23.390625 7.515625 25.78125 7.859375 
z
" id="ArialMT-116"/>
     </defs>
     <use xlink:href="#ArialMT-76"/>
     <use x="55.615234" xlink:href="#ArialMT-117"/>
     <use x="111.230469" xlink:href="#ArialMT-110"/>
     <use x="166.845703" xlink:href="#ArialMT-97"/>
     <use x="222.460938" xlink:href="#ArialMT-114"/>
     <use x="255.761719" xlink:href="#ArialMT-76"/>
     <use x="311.376953" xlink:href="#ArialMT-97"/>
     <use x="366.992188" xlink:href="#ArialMT-110"/>
     <use x="422.607422" xlink:href="#ArialMT-100"/>
     <use x="478.222656" xlink:href="#ArialMT-101"/>
     <use x="533.837891" xlink:href="#ArialMT-114"/>
     <use x="567.138672" xlink:href="#ArialMT-67"/>
     <use x="639.355469" xlink:href="#ArialMT-111"/>
     <use x="694.970703" xlink:href="#ArialMT-110"/>
     <use x="750.585938" xlink:href="#ArialMT-116"/>
     <use x="778.369141" xlink:href="#ArialMT-105"/>
     <use x="800.585938" xlink:href="#ArialMT-110"/>
     <use x="856.201172" xlink:href="#ArialMT-117"/>
     <use x="911.816406" xlink:href="#ArialMT-111"/>
     <use x="967.431641" xlink:href="#ArialMT-117"/>
     <use x="1023.046875" xlink:href="#ArialMT-115"/>
    </g>
   </g>
   <g id="legend_1">
    <g id="patch_7">
     <path d="M 725.845 490 
L 952.4 490 
Q 958 490 958 484.4 
L 958 368.379375 
Q 958 362.779375 952.4 362.779375 
L 725.845 362.779375 
Q 720.245 362.779375 720.245 368.379375 
L 720.245 484.4 
Q 720.245 490 725.845 490 
z
" style="fill:#eaeaf2;opacity:0.8;stroke:#cccccc;stroke-linejoin:miter;"/>
    </g>
    <g id="line2d_18">
     <path d="M 731.445 384.22125 
L 787.445 384.22125 
" style="fill:none;stroke:#4c72b0;stroke-linecap:round;stroke-width:2;"/>
    </g>
    <g id="line2d_19"/>
    <g id="text_16">
     <!-- BASELINE -->
     <g style="fill:#262626;" transform="translate(809.845 394.02125)scale(0.28 -0.28)">
      <defs>
       <path d="M 7.328125 0 
L 7.328125 71.578125 
L 34.1875 71.578125 
Q 42.390625 71.578125 47.34375 69.40625 
Q 52.296875 67.234375 55.09375 62.71875 
Q 57.90625 58.203125 57.90625 53.265625 
Q 57.90625 48.6875 55.421875 44.625 
Q 52.9375 40.578125 47.90625 38.09375 
Q 54.390625 36.1875 57.875 31.59375 
Q 61.375 27 61.375 20.75 
Q 61.375 15.71875 59.25 11.390625 
Q 57.125 7.078125 54 4.734375 
Q 50.875 2.390625 46.15625 1.1875 
Q 41.453125 0 34.625 0 
z
M 16.796875 41.5 
L 32.28125 41.5 
Q 38.578125 41.5 41.3125 42.328125 
Q 44.921875 43.40625 46.75 45.890625 
Q 48.578125 48.390625 48.578125 52.15625 
Q 48.578125 55.71875 46.875 58.421875 
Q 45.171875 61.140625 41.984375 62.140625 
Q 38.8125 63.140625 31.109375 63.140625 
L 16.796875 63.140625 
z
M 16.796875 8.453125 
L 34.625 8.453125 
Q 39.203125 8.453125 41.0625 8.796875 
Q 44.34375 9.375 46.53125 10.734375 
Q 48.734375 12.109375 50.140625 14.71875 
Q 51.5625 17.328125 51.5625 20.75 
Q 51.5625 24.75 49.515625 27.703125 
Q 47.46875 30.671875 43.828125 31.859375 
Q 40.1875 33.0625 33.34375 33.0625 
L 16.796875 33.0625 
z
" id="ArialMT-66"/>
       <path d="M -0.140625 0 
L 27.34375 71.578125 
L 37.546875 71.578125 
L 66.84375 0 
L 56.0625 0 
L 47.703125 21.6875 
L 17.78125 21.6875 
L 9.90625 0 
z
M 20.515625 29.390625 
L 44.78125 29.390625 
L 37.3125 49.21875 
Q 33.890625 58.25 32.234375 64.0625 
Q 30.859375 57.171875 28.375 50.390625 
z
" id="ArialMT-65"/>
       <path d="M 4.5 23 
L 13.421875 23.78125 
Q 14.0625 18.40625 16.375 14.96875 
Q 18.703125 11.53125 23.578125 9.40625 
Q 28.46875 7.28125 34.578125 7.28125 
Q 39.984375 7.28125 44.140625 8.890625 
Q 48.296875 10.5 50.3125 13.296875 
Q 52.34375 16.109375 52.34375 19.4375 
Q 52.34375 22.796875 50.390625 25.3125 
Q 48.4375 27.828125 43.953125 29.546875 
Q 41.0625 30.671875 31.203125 33.03125 
Q 21.34375 35.40625 17.390625 37.5 
Q 12.25 40.1875 9.734375 44.15625 
Q 7.234375 48.140625 7.234375 53.078125 
Q 7.234375 58.5 10.296875 63.203125 
Q 13.375 67.921875 19.28125 70.359375 
Q 25.203125 72.796875 32.421875 72.796875 
Q 40.375 72.796875 46.453125 70.234375 
Q 52.546875 67.671875 55.8125 62.6875 
Q 59.078125 57.71875 59.328125 51.421875 
L 50.25 50.734375 
Q 49.515625 57.515625 45.28125 60.984375 
Q 41.0625 64.453125 32.8125 64.453125 
Q 24.21875 64.453125 20.28125 61.296875 
Q 16.359375 58.15625 16.359375 53.71875 
Q 16.359375 49.859375 19.140625 47.359375 
Q 21.875 44.875 33.421875 42.265625 
Q 44.96875 39.65625 49.265625 37.703125 
Q 55.515625 34.8125 58.484375 30.390625 
Q 61.46875 25.984375 61.46875 20.21875 
Q 61.46875 14.5 58.203125 9.4375 
Q 54.9375 4.390625 48.796875 1.578125 
Q 42.671875 -1.21875 35.015625 -1.21875 
Q 25.296875 -1.21875 18.71875 1.609375 
Q 12.15625 4.4375 8.421875 10.125 
Q 4.6875 15.828125 4.5 23 
z
" id="ArialMT-83"/>
       <path d="M 9.328125 0 
L 9.328125 71.578125 
L 18.796875 71.578125 
L 18.796875 0 
z
" id="ArialMT-73"/>
       <path d="M 7.625 0 
L 7.625 71.578125 
L 17.328125 71.578125 
L 54.9375 15.375 
L 54.9375 71.578125 
L 64.015625 71.578125 
L 64.015625 0 
L 54.296875 0 
L 16.703125 56.25 
L 16.703125 0 
z
" id="ArialMT-78"/>
      </defs>
      <use xlink:href="#ArialMT-66"/>
      <use x="66.699219" xlink:href="#ArialMT-65"/>
      <use x="133.398438" xlink:href="#ArialMT-83"/>
      <use x="200.097656" xlink:href="#ArialMT-69"/>
      <use x="266.796875" xlink:href="#ArialMT-76"/>
      <use x="322.412109" xlink:href="#ArialMT-73"/>
      <use x="350.195312" xlink:href="#ArialMT-78"/>
      <use x="422.412109" xlink:href="#ArialMT-69"/>
     </g>
    </g>
    <g id="line2d_20">
     <path d="M 731.445 423.828125 
L 787.445 423.828125 
" style="fill:none;stroke:#dd8452;stroke-linecap:round;stroke-width:2;"/>
    </g>
    <g id="line2d_21"/>
    <g id="text_17">
     <!-- PRE -->
     <g style="fill:#262626;" transform="translate(809.845 433.628125)scale(0.28 -0.28)">
      <defs>
       <path d="M 7.71875 0 
L 7.71875 71.578125 
L 34.71875 71.578125 
Q 41.84375 71.578125 45.609375 70.90625 
Q 50.875 70.015625 54.4375 67.546875 
Q 58.015625 65.09375 60.1875 60.640625 
Q 62.359375 56.203125 62.359375 50.875 
Q 62.359375 41.75 56.546875 35.421875 
Q 50.734375 29.109375 35.546875 29.109375 
L 17.1875 29.109375 
L 17.1875 0 
z
M 17.1875 37.546875 
L 35.6875 37.546875 
Q 44.875 37.546875 48.734375 40.96875 
Q 52.59375 44.390625 52.59375 50.59375 
Q 52.59375 55.078125 50.3125 58.265625 
Q 48.046875 61.46875 44.34375 62.5 
Q 41.9375 63.140625 35.5 63.140625 
L 17.1875 63.140625 
z
" id="ArialMT-80"/>
       <path d="M 7.859375 0 
L 7.859375 71.578125 
L 39.59375 71.578125 
Q 49.171875 71.578125 54.140625 69.640625 
Q 59.125 67.71875 62.109375 62.828125 
Q 65.09375 57.953125 65.09375 52.046875 
Q 65.09375 44.4375 60.15625 39.203125 
Q 55.21875 33.984375 44.921875 32.5625 
Q 48.6875 30.765625 50.640625 29 
Q 54.78125 25.203125 58.5 19.484375 
L 70.953125 0 
L 59.03125 0 
L 49.5625 14.890625 
Q 45.40625 21.34375 42.71875 24.75 
Q 40.046875 28.171875 37.921875 29.53125 
Q 35.796875 30.90625 33.59375 31.453125 
Q 31.984375 31.78125 28.328125 31.78125 
L 17.328125 31.78125 
L 17.328125 0 
z
M 17.328125 39.984375 
L 37.703125 39.984375 
Q 44.1875 39.984375 47.84375 41.328125 
Q 51.515625 42.671875 53.421875 45.625 
Q 55.328125 48.578125 55.328125 52.046875 
Q 55.328125 57.125 51.640625 60.390625 
Q 47.953125 63.671875 39.984375 63.671875 
L 17.328125 63.671875 
z
" id="ArialMT-82"/>
      </defs>
      <use xlink:href="#ArialMT-80"/>
      <use x="66.699219" xlink:href="#ArialMT-82"/>
      <use x="138.916016" xlink:href="#ArialMT-69"/>
     </g>
    </g>
    <g id="line2d_22">
     <path d="M 731.445 463.435 
L 787.445 463.435 
" style="fill:none;stroke:#55a868;stroke-linecap:round;stroke-width:2;"/>
    </g>
    <g id="line2d_23"/>
    <g id="text_18">
     <!-- ERE -->
     <g style="fill:#262626;" transform="translate(809.845 473.235)scale(0.28 -0.28)">
      <use xlink:href="#ArialMT-69"/>
      <use x="66.699219" xlink:href="#ArialMT-82"/>
      <use x="138.916016" xlink:href="#ArialMT-69"/>
     </g>
    </g>
   </g>
  </g>
 </g>
 <defs>
  <clipPath id="pa32188162d">
   <rect height="434.88" width="837" x="135" y="69.12"/>
  </clipPath>
 </defs>
</svg>
